<svg height="42" viewBox="0 0 61 42" width="61" xmlns="http://www.w3.org/2000/svg"><g fill="none" transform="translate(0 -1)"><g transform="translate(0 4)"><path d="m60.08 22.617c0 12.031-13.244 15.408-29.58 15.408s-29.58-3.377-29.58-15.408c0-12.033 13.244-21.787 29.58-21.787s29.58 9.754 29.58 21.787z" fill="#ffc533"/><path d="m60.08 22.617c0 12.031-13.244 15.408-29.58 15.408s-29.58-3.377-29.58-15.408c0-12.033 13.244-18.762 29.58-18.762s29.58 6.729 29.58 18.762z" fill="#ffb031"/><path d="m60.08 22.617c0 12.031-13.244 15.408-29.58 15.408s-29.58-3.377-29.58-15.408c0-12.033 13.244-5.492 29.58-5.492s29.58-6.541 29.58 5.492z" fill="#ff912e"/><ellipse cx="30.5" cy="25.641" fill="#ff4817" rx="10.688" ry="2.375"/><path d="m41.188 25.641c0 1.312-4.785 2.375-10.688 2.375s-10.688-1.062-10.688-2.375c0-1.311 4.785.502 10.688.502s10.688-1.813 10.688-.502z" fill="#d33213"/><g fill="#082856"><circle cx="18.81" cy="20.312" r="2.657"/><circle cx="42.19" cy="20.312" r="2.657"/></g><g fill="#000" transform="translate(16 20)"><path d="m5.467.312c0 1.469-1.189 2.658-2.656 2.658-1.469 0-2.658-1.189-2.658-2.658"/><path d="m28.848.312c0 1.469-1.189 2.658-2.656 2.658-1.469 0-2.658-1.189-2.658-2.658"/></g></g><path d="m32.416 2.891c0 1.059-.857 3.75-1.916 3.75s-1.916-2.691-1.916-3.75.857-1.916 1.916-1.916 1.916.857 1.916 1.916z" fill="#ffc533"/></g></svg>