<svg height="62" viewBox="0 0 62 62" width="62" xmlns="http://www.w3.org/2000/svg"><g fill="none"><g transform="translate(0 3)"><path d="m61.2 34.8c0 13-11.9 23.5-30.3 23.5s-30.3-10.5-30.3-23.5 11.9-32.5 30.3-32.5 30.3 19.5 30.3 32.5z" fill="#f7910b"/><path d="m61.2 34.8c0 13-11.9 19.5-30.3 19.5s-30.3-6.5-30.3-19.5 11.9-34.5 30.3-34.5 30.3 21.5 30.3 34.5z" fill="#f7910b"/><path d="m30.9.3c18.4 0 30.3 21.5 30.3 34.5s-11.9 19.5-30.3 19.5" fill="#f9a908"/><path d="m61.2 34.8c0 13-11.9 19.5-30.3 19.5s-30.3-6.5-30.3-19.5 11.9-32.5 30.3-32.5 30.3 19.5 30.3 32.5z" fill="#f9a908"/><path d="m.5 34.8c0-13 11.9-32.5 30.3-32.5" fill="#f9c55d"/><path d="m30.9 2.3c18.4 0 30.3 19.5 30.3 32.5s-11.9 23.5-30.3 23.5" fill="#f7910b"/><path d="m30.9 2.3c18.4 0 30.3 19.5 30.3 32.5" fill="#ea7103"/><g transform="translate(18 11)"><path d="m6.8 1.5c.2.8-1.3.8-3 1.3s-3 1.3-3.3.4c-.2-.8 1-1.9 2.7-2.4 1.7-.4 3.3-.1 3.6.7z" fill="#19bca4"/><path d="m6.8 1.5c.2.8-1.3.8-3 1.3s-3 1.3-3.3.4" fill="#109da0"/></g><g transform="translate(37 8)"><path d="m.1 1.5c-.3.8 1.2 1 2.8 1.7 1.7.7 2.8 1.7 3.2.9.3-.8-.7-2-2.4-2.7-1.7-.8-3.3-.7-3.6.1z" fill="#19bca4"/><path d="m.1 1.5c-.3.8 1.2 1 2.8 1.7 1.7.7 2.8 1.7 3.2.9" fill="#109da0"/></g><circle cx="9.2" cy="31.8" fill="#f7910b" r="1"/><circle cx="4.7" cy="33.8" fill="#f7910b" r="1.1"/><circle cx="7.7" cy="29.8" fill="#f7910b" r="1"/><circle cx="12.3" cy="31.6" fill="#f7910b" r="1"/><g fill="#f9a908"><circle cx="51.5" cy="32.1" r="1"/><circle cx="54" cy="33.5" r="1"/><circle cx="48.6" cy="24.7" r="1"/><circle cx="48.1" cy="36.3" r="1.3"/><circle cx="55.3" cy="36.4" r="1"/></g><circle cx="8.2" cy="35.8" fill="#f7910b" r="1"/><circle cx="9" cy="27.4" fill="#f7910b" r="1"/><circle cx="3.7" cy="13.6" fill="#f9a908" r="1.1"/><circle cx="6.9" cy="10.1" fill="#f9a908" r="1"/><circle cx="58.1" cy="16" fill="#f9a908" r="1"/><g transform="translate(14 19)"><path d="m8.7 6.3c-.4-.1-.8-.3-1.1-.7-1.1-1.6-3.4-2-5-.9-.8.5-1.8.3-2.3-.4-.5-.8-.3-1.8.4-2.3 3.1-2.2 7.4-1.4 9.6 1.8.5.7.3 1.8-.4 2.3-.3.2-.8.2-1.2.2z" fill="#1e4784"/><path d="m10.4 3.7c.5.7.3 1.8-.4 2.3-.4.3-.8.3-1.2.3-.4-.1-.8-.3-1.1-.7-1.1-1.6-3.4-2-5-.9-.8.5-1.8.3-2.3-.4-.5-.8-.3-1.8.4-2.3" fill="#02243e"/></g><g transform="translate(37 18)"><circle cx="3.6" cy="5" fill="#d87703" r="3.5"/><circle cx="3.6" cy="4" fill="#1e4784" r="3.5"/><path d="m3.6.5c1.9 0 3.5 1.6 3.5 3.5s-1.6 3.5-3.5 3.5" fill="#00233f"/></g><circle cx="57.3" cy="13.1" fill="#f9a908" r="1"/><circle cx="59.8" cy="13.6" fill="#f9a908" r="1"/><circle cx="4.9" cy="16.6" fill="#f9a908" r="1"/><g transform="translate(11 25)"><path d="m15.7 3.1c0 1.2-3.5.7-7.8.7s-7.8.6-7.8-.7 3.5-2.2 7.8-2.2 7.8 1 7.8 2.2z" fill="#f9c55d"/><path d="m39.6 3.1c0 1.2-3.5.7-7.8.7s-7.8.6-7.8-.7 3.5-2.2 7.8-2.2c4.4 0 7.8 1 7.8 2.2z" fill="#f9a908"/></g><g transform="translate(18 27)"><path d="m16.8 3.8c0 .8-1.7 1.5-3.9 1.5s-3.9-.7-3.9-1.5" fill="#f9c55d"/><path d="m18.3 5.7c0 1.9-2.4 5.4-5.4 5.4s-5.4-3.5-5.4-5.4" fill="#f7910b"/><g fill="#02243e"><g><path d="m1.8 4.5c-.6 0-1.1-.5-1.1-1.1s.5-1.1 1.1-1.1c.5 0 .9-.4.9-.9 0-.6.5-1.1 1.1-1.1s1.1.5 1.1 1.1c0 1.7-1.4 3.1-3.1 3.1z"/><path d="m23.9 4.5c-1.7 0-3.1-1.4-3.1-3.1 0-.6.5-1.1 1.1-1.1s1.1.5 1.1 1.1c0 .5.4.9.9.9.6 0 1.1.5 1.1 1.1s-.5 1.1-1.1 1.1z"/></g><path d="m12.9 8.1c-3.8 0-7.6-1.4-10.4-4.3-.4-.4-.4-1.1 0-1.6.4-.4 1.1-.4 1.6 0 4.9 4.9 12.9 4.9 17.8 0 .4-.4 1.1-.4 1.6 0 .4.4.4 1.1 0 1.6-3.1 2.9-6.9 4.3-10.6 4.3z"/></g></g></g><g transform="translate(0 38)"><path d="m.5.3c.3 12.7 12.1 23 30.3 23s30-10.3 30.3-23z" fill="#3cc676"/><path d="m30.9 23.3c18.2 0 30-10.3 30.3-23h-60.7" fill="#12af6b"/></g><g transform="translate(16 44)"><path d="m29.4 13.7c-.8-7.4-7-13.1-14.6-13.1s-13.8 5.7-14.6 13.1z" fill="#d63834"/><path d="m.3 13.7h29.1c-.8-7.4-7-13.1-14.6-13.1" fill="#bc1e1e"/><path d="m24.6 13.7c-.6-4.9-4.7-8.7-9.7-8.7s-9.2 3.8-9.7 8.7z" fill="#f7df77"/><path d="m5.2 13.7h19.4c-.6-4.9-4.7-8.7-9.7-8.7" fill="#f2c549"/><path d="m19.9 13.7c-.3-2.6-2.4-4.6-5.1-4.6-2.6 0-4.8 2-5.1 4.6z" fill="#3cc676"/><path d="m9.8 13.7h10.2c-.3-2.6-2.4-4.6-5.1-4.6" fill="#12af6b"/></g><circle cx="11.4" cy="48.5" fill="#d63834" r="1"/><circle cx="18" cy="45.5" fill="#d63834" r="1"/><circle cx="49.8" cy="46.7" fill="#d63834" r="2.2"/><circle cx="55.9" cy="42.6" fill="#d63834" r="1"/><circle cx="57" cy="47" fill="#d63834" r="1"/><circle cx="16.8" cy="41.6" fill="#f7df77" r="1"/><circle cx="23" cy="40.9" fill="#f7df77" r="1"/><circle cx="18.3" cy="45.2" fill="#f7df77" r="1"/><circle cx="40" cy="44" fill="#f7df77" r="1.4"/><circle cx="45.4" cy="41.6" fill="#f7df77" r="1"/><circle cx="51.3" cy="41.8" fill="#f7df77" r="1"/><circle cx="34.3" cy="41.6" fill="#f7df77" r="1"/><g fill="#98f4f1"><circle cx="48.9" cy="53.5" r="1"/><circle cx="13.3" cy="43.8" r="1"/><circle cx="14.5" cy="52.5" r="1.1"/><circle cx="6.4" cy="47.1" r="1"/><circle cx="44.8" cy="48" r="1"/><circle cx="53.2" cy="44.2" r="1"/><circle cx="53.5" cy="50.5" r="1"/><circle cx="4.4" cy="40.6" r="1"/></g><circle cx="9.5" cy="43.5" fill="#d63834" r="1.6"/><path d="m36.6 38.2c0 3.2-2.6 5.8-5.8 5.8s-5.8-2.6-5.8-5.8" fill="#f7910b"/><path d="m50.3 10.5c0 .6-.4 1-1 1h-36.9c-.6 0-1-.4-1-1 0-.6.4-1 1-1h36.8c.6 0 1.1.4 1.1 1z" fill="#12af6b"/><path d="m49.3 9.5c.6 0 1 .4 1 1 0 .6-.4 1-1 1h-36.9c-.6 0-1-.4-1-1" fill="#3cc676"/><g transform="translate(49)"><ellipse cx="2.7" cy="5.4" fill="#d63834" rx="2.7" ry="4.7"/><path d="m2.7.7c1.5 0 2.7 2.1 2.7 4.7s-1.2 4.6-2.7 4.6" fill="#bc1e1e"/></g><g transform="translate(49 10)"><ellipse cx="2.7" cy="5.5" fill="#d63834" rx="2.7" ry="4.7"/><path d="m2.7.9c1.5 0 2.7 2.1 2.7 4.7s-1.2 4.7-2.7 4.7" fill="#bc1e1e"/></g><g transform="translate(50 1)"><ellipse cx="5.27184" cy="5.88172" fill="#d63834" rx="2.699974" ry="4.699955" transform="matrix(.70710678 .70710678 -.70710678 .70710678 5.70309 -2.005038)"/><path d="m8.6 2.6c1.1 1.1.4 3.4-1.4 5.2s-4.2 2.4-5.2 1.4" fill="#bc1e1e"/></g><g transform="translate(42 8)"><ellipse cx="6.13671" cy="5.99821" fill="#d63834" rx="2.699974" ry="4.699955" transform="matrix(.70710678 .70710678 -.70710678 .70710678 6.038776 -2.582474)"/><path d="m9.4 2.7c1.1 1.1.4 3.4-1.4 5.2s-4.2 2.5-5.2 1.4" fill="#bc1e1e"/></g><g transform="translate(52 7)"><ellipse cx="4.8" cy="3.5" fill="#d63834" rx="4.7" ry="2.7"/><path d="m9.5 3.5c0 1.5-2.1 2.7-4.7 2.7s-4.7-1.2-4.7-2.7" fill="#bc1e1e"/></g><g transform="translate(41 7)"><ellipse cx="5.6" cy="3.5" fill="#d63834" rx="4.7" ry="2.7"/><path d="m10.3 3.5c0 1.5-2.1 2.7-4.7 2.7s-4.7-1.2-4.7-2.7" fill="#bc1e1e"/></g><g transform="translate(51 10)"><path d="m2.4 5.9c-1.8-1.8-2.5-4.2-1.4-5.2 1.1-1.1 3.4-.4 5.2 1.4s2.5 4.2 1.4 5.2c-1 1.1-3.4.5-5.2-1.4z" fill="#d63834"/><path d="m7.6 7.3c-1 1.1-3.4.4-5.2-1.4s-2.5-4.2-1.4-5.2" fill="#bc1e1e"/></g><g transform="translate(42 1)"><ellipse cx="6.10534" cy="5.81392" fill="#d63834" rx="2.699974" ry="4.699955" transform="matrix(-.70690675 .70730676 -.70730676 -.70690675 14.533471 5.605471)"/><path d="m9.4 9.2c-1.1 1.1-3.4.4-5.2-1.4s-2.5-4.2-1.4-5.2" fill="#bc1e1e"/></g><g transform="translate(46 4)"><circle cx="5.7" cy="6.5" fill="#f9a908" r="5.6"/><path d="m9.6 2.5c2.2 2.2 2.2 5.7 0 7.9s-5.7 2.2-7.9 0" fill="#f7910b"/><path d="m5.9 2.6c.5.6 0 1.8-1 2.5-1 .8-2.2.9-2.7.3s0-1.8 1-2.5c1-.8 2.2-1 2.7-.3z" fill="#f9c55d"/></g></g></svg>