<?xml version="1.0" encoding="UTF-8"?>
<svg width="62px" height="58px" viewBox="0 0 62 58" version="1.1" xmlns="http://www.w3.org/2000/svg" xmlns:xlink="http://www.w3.org/1999/xlink">
    <!-- Generator: Sketch 43.1 (39012) - http://www.bohemiancoding.com/sketch -->
    <title>imgly_sticker_emoticons_sick</title>
    <desc>Created with Sketch.</desc>
    <defs></defs>
    <g id="Page-1" stroke="none" stroke-width="1" fill="none" fill-rule="evenodd">
        <g id="sick" fill-rule="nonzero">
            <g id="Group" transform="translate(1.000000, 0.000000)">
                <path d="M61,34.5 C61,47.5 49,58 30.6,58 C12.2,58 0.3,47.5 0.3,34.5 C0.3,21.5 12.2,2 30.6,2 C49,2 61,21.5 61,34.5 Z" id="Shape" fill="#F7910B"></path>
                <path d="M61,34.5 C61,47.5 49,54 30.6,54 C12.2,54 0.3,47.5 0.3,34.5 C0.3,21.5 12.2,0 30.6,0 C49,0 61,21.5 61,34.5 Z" id="Shape" fill="#F7910B"></path>
                <path d="M30.6,0 C49,0 61,21.5 61,34.5 C61,47.5 49,54 30.6,54" id="Shape" fill="#F9A908"></path>
                <path d="M61,34.5 C61,47.5 49,54 30.6,54 C12.2,54 0.3,47.5 0.3,34.5 C0.3,21.5 12.2,2 30.6,2 C49,2 61,21.5 61,34.5 Z" id="Shape" fill="#F9A908"></path>
                <path d="M0.3,34.5 C0.3,21.5 12.2,2 30.6,2" id="Shape" fill="#F9C55D"></path>
                <path d="M30.6,2 C49,2 61,21.5 61,34.5 C61,47.5 49,58 30.6,58" id="Shape" fill="#F7910B"></path>
                <path d="M30.6,2 C49,2 61,21.5 61,34.5" id="Shape" fill="#EA7103"></path>
                <g transform="translate(2.000000, 11.000000)" id="Shape">
                    <path d="M25.5,0.8 C23.8,1.4 22.6,2.5 22.9,3.3 L29.1,1.2 C28.8,0.4 27.2,0.2 25.5,0.8 Z" fill="#19BCA4"></path>
                    <g transform="translate(9.000000, 0.000000)">
                        <path d="M3.9,0.9 C2.1,0.5 0.6,0.8 0.4,1.7 L6.8,3.2 C6.9,2.3 5.6,1.3 3.9,0.9 Z" fill="#19BCA4"></path>
                        <path d="M3.4,2.8 C5.2,3.2 6.5,4 6.7,3.1 L0.3,1.6 C0.1,2.5 1.7,2.4 3.4,2.8 Z" fill="#109DA0"></path>
                    </g>
                    <path d="M26.2,2.6 C27.9,2 29.4,2 29.2,1.1 L23,3.2 C23.2,4.1 24.4,3.2 26.2,2.6 Z" fill="#109DA0"></path>
                    <path d="M7.9,13.3 C3.6,13.3 0.1,14.3 0.1,15.5 C0.1,16.7 3.6,16.2 7.9,16.2 C12.2,16.2 15.7,16.8 15.7,15.5 C15.7,14.3 12.2,13.3 7.9,13.3 Z" fill="#F9C55D"></path>
                    <path d="M29,13.3 C24.7,13.3 21.2,14.3 21.2,15.5 C21.2,16.7 24.7,16.2 29,16.2 C33.3,16.2 36.8,16.8 36.8,15.5 C36.8,14.3 33.3,13.3 29,13.3 Z" fill="#F9A908"></path>
                </g>
                <g transform="translate(8.000000, 18.000000)" id="Shape">
                    <g>
                        <path d="M1,4.1 C1.4,3.9 1.8,3.8 2.3,4 C4.2,4.6 6.2,3.5 6.8,1.6 C7.1,0.7 8,0.2 8.9,0.5 C9.8,0.8 10.3,1.7 10,2.6 C8.9,6.2 5,8.3 1.4,7.2 C0.5,6.9 2.30371278e-15,6 0.3,5.1 C0.3,4.7 0.6,4.3 1,4.1 Z" fill="#1E4784"></path>
                        <path d="M1.3,7.1 C0.4,6.8 -0.1,5.9 0.2,5 C0.3,4.6 0.6,4.2 1,4 C1.4,3.8 1.8,3.7 2.3,3.9 C4.2,4.5 6.2,3.4 6.8,1.5 C7.1,0.6 8,0.1 8.9,0.4 C9.8,0.7 10.3,1.6 10,2.5" fill="#02243E"></path>
                    </g>
                    <g transform="translate(15.000000, 0.000000)">
                        <path d="M9.6,4.2 C9.2,4 8.8,3.9 8.3,4 C6.4,4.5 4.4,3.4 3.9,1.5 C3.7,0.6 2.8,0.1 1.9,0.3 C1,0.5 0.5,1.4 0.7,2.3 C1.7,6 5.5,8.1 9.2,7.1 C10.1,6.9 10.6,6 10.4,5.1 C10.3,4.8 10,4.5 9.6,4.2 Z" fill="#1E4784"></path>
                        <path d="M9.3,7.3 C10.2,7.1 10.7,6.2 10.5,5.3 C10.4,4.9 10.1,4.5 9.7,4.3 C9.3,4.1 8.9,4 8.4,4.1 C6.5,4.6 4.5,3.5 4,1.6 C3.8,0.7 2.9,0.2 2,0.4 C1.1,0.6 0.6,1.5 0.8,2.4" fill="#02243E"></path>
                    </g>
                </g>
                <ellipse id="Oval" fill="#F7910B" cx="9" cy="31.5" rx="1" ry="1"></ellipse>
                <ellipse id="Oval" fill="#F7910B" cx="4.5" cy="33.5" rx="1.1" ry="1.1"></ellipse>
                <ellipse id="Oval" fill="#F7910B" cx="7.5" cy="29.5" rx="1" ry="1"></ellipse>
                <circle id="Oval" fill="#F7910B" cx="12" cy="31.3" r="1"></circle>
                <circle id="Oval" fill="#F9A908" cx="57.2" cy="34.4" r="1"></circle>
                <circle id="Oval" fill="#F9A908" cx="53.7" cy="33.2" r="1"></circle>
                <circle id="Oval" fill="#F9A908" cx="57.8" cy="40.2" r="1"></circle>
                <circle id="Oval" fill="#F9A908" cx="54.1" cy="44" r="1.3"></circle>
                <circle id="Oval" fill="#F9A908" cx="55.1" cy="36.1" r="1"></circle>
                <ellipse id="Oval" fill="#F7910B" cx="8" cy="35.5" rx="1" ry="1"></ellipse>
                <circle id="Oval" fill="#F7910B" cx="20.8" cy="18.2" r="1"></circle>
                <ellipse id="Oval" fill="#F9A908" cx="3.5" cy="13.3" rx="1.1" ry="1.1"></ellipse>
                <ellipse id="Oval" fill="#F9A908" cx="6.6" cy="9.8" rx="1" ry="1"></ellipse>
                <circle id="Oval" fill="#F9A908" cx="57.8" cy="15.7" r="1"></circle>
                <ellipse id="Oval" fill="#F9A908" cx="57" cy="12.8" rx="1" ry="1"></ellipse>
                <circle id="Oval" fill="#F9A908" cx="59.6" cy="13.3" r="1"></circle>
                <circle id="Oval" fill="#F9A908" cx="4.6" cy="16.3" r="1"></circle>
            </g>
            <g id="Group" transform="translate(14.000000, 30.000000)">
                <path d="M19,11.6 C19.8,18.7 15.1,25 9.9,25.6 C4.7,26.2 1.2,20.8 0.4,13.7 C-0.4,6.6 0.5,0.7 5.6,0.1 C10.8,-0.4 18.2,4.6 19,11.6 Z" id="Shape" fill="#C42260"></path>
                <path d="M0.5,13.8 C-0.3,6.7 0.6,0.8 5.7,0.2 C10.8,-0.4 18.2,4.6 19,11.6" id="Shape" fill="#99144A"></path>
                <path d="M18.5,17.2 C17.4,16.9 16.3,16.7 15.1,16.7 C14,16.7 12.9,16.9 11.9,17.1 C10.9,16.8 9.8,16.7 8.7,16.7 C6,16.7 3.5,17.6 1.6,19 C3.2,23.3 6.1,26.1 9.9,25.7 C13.7,25.2 17.2,21.7 18.5,17.2 Z" id="Shape" fill="#E2446E"></path>
            </g>
            <g id="Group" transform="translate(0.000000, 31.000000)">
                <path d="M26.8,7.2 C26.8,7.2 20.5,2.7 11.8,3.2 C2.6,3.8 -3.1,8.9 2,13.7 C2,13.7 -1.5,17.3 1,20.2 C5.9,25.8 14.3,12.4 19.1,12.1 C19.1,12.1 16.1,12.9 16.4,16.6 C16.6,20.3 21.5,21.7 24.1,16.3 C26.7,11 26.8,7.2 26.8,7.2 Z" id="Shape" fill="#11D389"></path>
                <path d="M24.1,16.4 C26.7,11 26.8,7.3 26.8,7.3 C26.8,7.3 20.5,2.8 11.8,3.3" id="Shape" fill="#12AD79"></path>
                <path d="M2,13.7 C2,13.7 -1.5,17.3 1,20.2 C5.9,25.8 14.3,12.4 19.1,12.1" id="Shape" fill="#12AD79"></path>
                <path d="M6.4,8.2 C6.5,9 5.9,9.7 5.1,9.8 C4.3,9.9 3.6,9.3 3.5,8.5 C3.4,7.7 4,7 4.8,6.9 C5.7,6.8 6.4,7.4 6.4,8.2 Z" id="Shape" fill="#38E8A0"></path>
                <ellipse id="Oval" fill="#38E8A0" cx="7.4" cy="6.3" rx="1" ry="1"></ellipse>
                <circle id="Oval" fill="#38E8A0" cx="12.3" cy="10.6" r="1"></circle>
                <ellipse id="Oval" fill="#38E8A0" cx="11.1" cy="5.8" rx="1" ry="1"></ellipse>
                <ellipse id="Oval" fill="#38E8A0" cx="3.8" cy="16.5" rx="1" ry="1"></ellipse>
                <circle id="Oval" fill="#38E8A0" cx="13.8" cy="8.1" r="1"></circle>
                <path d="M23.4,7.2 C23.5,8.1 22.8,9 21.9,9 C21,9.1 20.1,8.4 20.1,7.5 C20,6.6 20.7,5.7 21.6,5.7 C22.5,5.6 23.3,6.2 23.4,7.2 Z" id="Shape" fill="#11D389"></path>
                <circle id="Oval" fill="#38E8A0" cx="21.9" cy="0.9" r="1"></circle>
                <ellipse id="Oval" fill="#12AD79" cx="25.5" cy="2.2" rx="1" ry="1"></ellipse>
                <ellipse id="Oval" fill="#11D389" cx="22.4" cy="3.6" rx="1" ry="1"></ellipse>
                <ellipse id="Oval" fill="#11D389" cx="17.8" cy="9.2" rx="1.2" ry="1.2"></ellipse>
                <circle id="Oval" fill="#38E8A0" cx="20.1" cy="15.5" r="1"></circle>
            </g>
            <g id="Group" transform="translate(9.000000, 43.000000)">
                <path d="M8.9,0.4 C8.9,0.4 10.7,3.8 9.8,8 C8.9,12.5 5.9,14.9 3.9,12 C3.9,12 1.9,13.5 0.6,12 C-1.8,9.2 5.4,6.1 5.9,3.7 C5.9,3.7 5.3,5.1 3.5,4.7 C1.7,4.3 1.4,1.9 4.2,1 C7,0.2 8.9,0.4 8.9,0.4 Z" id="Shape" fill="#11D389"></path>
                <path d="M4.2,1.1 C7,0.2 8.9,0.4 8.9,0.4 C8.9,0.4 10.7,3.8 9.8,8" id="Shape" fill="#12AD79"></path>
                <path d="M3.9,12.1 C3.9,12.1 1.9,13.6 0.6,12.1 C-1.8,9.3 5.4,6.2 5.9,3.8" id="Shape" fill="#12AD79"></path>
                <path d="M6.9,10.3 C6.5,10.2 6.1,10.4 6,10.8 C5.9,11.2 6.1,11.6 6.5,11.7 C6.9,11.8 7.3,11.6 7.4,11.2 C7.5,10.8 7.3,10.4 6.9,10.3 Z" id="Shape" fill="#38E8A0"></path>
                <ellipse id="Oval" fill="#38E8A0" cx="7.9" cy="10" rx="1" ry="1"></ellipse>
                <circle id="Oval" fill="#38E8A0" cx="6.2" cy="7.3" r="1"></circle>
                <circle id="Oval" fill="#38E8A0" cx="8.4" cy="8.2" r="1"></circle>
                <circle id="Oval" fill="#38E8A0" cx="2.6" cy="11" r="1"></circle>
                <circle id="Oval" fill="#38E8A0" cx="7.5" cy="6.7" r="1"></circle>
                <path d="M8.6,2.1 C8.2,2 7.7,2.3 7.6,2.7 C7.5,3.1 7.8,3.6 8.2,3.7 C8.6,3.8 9.1,3.5 9.2,3.1 C9.4,2.7 9.1,2.2 8.6,2.1 Z" id="Shape" fill="#11D389"></path>
                <circle id="Oval" fill="#38E8A0" cx="11.6" cy="3.3" r="1"></circle>
                <circle id="Oval" fill="#12AD79" cx="11.2" cy="1.4" r="1"></circle>
                <circle id="Oval" fill="#11D389" cx="10.3" cy="2.8" r="1"></circle>
                <circle id="Oval" fill="#11D389" cx="7.2" cy="4.7" r="1"></circle>
                <circle id="Oval" fill="#38E8A0" cx="4.3" cy="3.1" r="1"></circle>
            </g>
        </g>
    </g>
</svg>