<svg height="62" viewBox="0 0 62 62" width="62" xmlns="http://www.w3.org/2000/svg"><g fill="none"><g transform="translate(0 3)"><path d="m61.3 34.9c0 13-11.9 23.5-30.3 23.5s-30.3-10.5-30.3-23.5 11.9-32.5 30.3-32.5 30.3 19.5 30.3 32.5z" fill="#f7910b"/><path d="m61.3 34.9c0 13-11.9 19.5-30.3 19.5s-30.3-6.5-30.3-19.5 11.9-34.5 30.3-34.5 30.3 21.5 30.3 34.5z" fill="#f7910b"/><path d="m31 .4c18.4 0 30.3 21.5 30.3 34.5s-11.9 19.5-30.3 19.5" fill="#f9a908"/><path d="m61.3 34.9c0 13-11.9 19.5-30.3 19.5s-30.3-6.5-30.3-19.5 11.9-32.5 30.3-32.5 30.3 19.5 30.3 32.5z" fill="#f9a908"/><path d="m.7 34.9c0-13 11.9-32.5 30.3-32.5" fill="#f9c55d"/><path d="m31 2.4c18.4 0 30.3 19.5 30.3 32.5s-11.9 23.5-30.3 23.5" fill="#f7910b"/><path d="m31 2.4c18.4 0 30.3 19.5 30.3 32.5" fill="#ea7103"/><g transform="translate(11 26)"><path d="m15.8 2.2c0 1.2-3.5.7-7.8.7s-7.8.6-7.8-.7c0-1.2 3.5-2.2 7.8-2.2s7.8 1 7.8 2.2z" fill="#f9c55d"/><path d="m39.8 2.2c0 1.2-3.5.7-7.8.7s-7.8.6-7.8-.7c0-1.2 3.5-2.2 7.8-2.2s7.8 1 7.8 2.2z" fill="#f9a908"/></g><circle cx="9.3" cy="31.9" fill="#f7910b" r="1"/><circle cx="4.8" cy="33.9" fill="#f7910b" r="1.1"/><circle cx="7.8" cy="29.9" fill="#f7910b" r="1"/><circle cx="12.4" cy="31.7" fill="#f7910b" r="1"/><g fill="#f9a908"><circle cx="51.6" cy="32.2" r="1"/><circle cx="54.1" cy="33.6" r="1"/><circle cx="48.8" cy="24.8" r="1"/><circle cx="48.3" cy="36.4" r="1.3"/><circle cx="55.5" cy="36.5" r="1"/></g><circle cx="8.3" cy="35.9" fill="#f7910b" r="1"/><circle cx="9.1" cy="27.5" fill="#f7910b" r="1"/><circle cx="3.8" cy="13.7" fill="#f9a908" r="1.1"/><path d="m52.2 16.7c0-7-9.5-14.8-21.2-14.8s-21.3 7.8-21.3 14.8c0 .7.1 1.7.3 2.9-.1 6.5 1.8 14.4 2.8 16.4.5 1 1.4 1.7 2.6 2.2 3.9 9.9 9.5 19.3 15.6 19.3 6.2 0 11.8-9.4 15.6-19.3 1.2-.5 2.1-1.2 2.6-2.2 1-2 2.9-10 2.8-16.4.1-1.2.2-2.2.2-2.9z" fill="#fff"/><path d="m34.7 58.2c5.6 0 10.6-9.1 14.2-18.6 1.1-.5 1.9-1.2 2.3-2.1.9-1.9 2.6-9.6 2.5-15.8.2-1.1.3-2.1.3-2.8 0-6.7-8.6-14.3-19.3-14.3" fill="#ea7103"/><path d="m31 57.6c6.2 0 11.8-9.4 15.6-19.3 1.2-.5 2.1-1.2 2.6-2.2 1-2 2.9-10 2.8-16.4.2-1.2.3-2.2.3-2.9 0-7-9.5-14.8-21.2-14.8" fill="#e5e5e5"/><circle cx="7" cy="10.2" fill="#f9a908" r="1"/><circle cx="58.2" cy="16.1" fill="#f9a908" r="1"/><circle cx="57.4" cy="13.2" fill="#f9a908" r="1"/><circle cx="60" cy="13.7" fill="#f9a908" r="1"/><circle cx="5" cy="16.7" fill="#f9a908" r="1"/><g transform="translate(15 19)"><path d="m9 6.4c-.4-.1-.8-.3-1.1-.7-1.1-1.6-3.4-2-5-.9-.7.5-1.8.3-2.3-.4-.5-.7-.3-1.8.4-2.3 3.1-2.2 7.4-1.4 9.6 1.8.5.7.3 1.8-.4 2.3-.3.2-.7.3-1.2.2z" fill="#1e4784"/><path d="m10.7 3.8c.5.7.3 1.8-.4 2.3-.4.3-.8.3-1.2.3-.4-.1-.8-.3-1.1-.7-1.1-1.6-3.4-2-5-.9-.7.5-1.8.3-2.3-.4s-.3-1.8.4-2.3" fill="#02243e"/></g><g transform="translate(36 19)"><path d="m2 6.4c.4-.1.8-.3 1.1-.7 1.1-1.6 3.4-2 5-.9.8.5 1.8.3 2.3-.4s.3-1.8-.4-2.3c-3.1-2.2-7.4-1.4-9.6 1.8-.5.7-.3 1.8.4 2.3.3.2.7.3 1.2.2z" fill="#1e4784"/><path d="m.3 3.8c-.5.7-.3 1.8.4 2.3.4.3.8.3 1.2.3.4-.1.8-.3 1.1-.7 1.1-1.6 3.4-2 5-.9.8.5 1.8.3 2.3-.4s.3-1.8-.4-2.3" fill="#02243e"/></g><g transform="translate(19 10)"><path d="m7.7 6.9c-.6.7-1.9-1-3.8-2.7-2-1.7-3.8-2.7-3.3-3.3.6-.7 2.6.1 4.6 1.8 1.9 1.7 3.1 3.6 2.5 4.2z" fill="#19bca4"/><path d="m7.7 6.9c-.6.7-1.9-1-3.8-2.7-2-1.7-3.8-2.7-3.3-3.3" fill="#109da0"/></g><g transform="translate(35 10)"><path d="m.3 6.9c.6.7 1.9-1 3.8-2.7 2-1.7 3.8-2.7 3.3-3.3-.6-.7-2.6.1-4.6 1.8-1.9 1.7-3.1 3.6-2.5 4.2z" fill="#19bca4"/><path d="m.3 6.9c.6.7 1.9-1 3.8-2.7 2-1.7 3.8-2.7 3.3-3.3" fill="#109da0"/></g><path d="m34.1 57.4-3.1 1.1-3.1-1.1 3.1-10.1z" fill="#1e4784"/><path d="m34.1 57.4-3.1 1.1.7-2.2-.7-9z" fill="#02243e"/><path d="m34.3 39h-6.6l-1-3h8.6z" fill="#c6c6c2"/><path d="m34.3 45h-6.6l-1-1h8.6z" fill="#c6c6c2"/><g transform="translate(18 33)"><path d="m.5.2 4 6.8h8.5v2h-9.3z" fill="#1e4784"/><path d="m25.5.2-4 6.8h-8.5v2h9.3z" fill="#02243e"/></g><path d="m15.6 31h9l1.6 3.9z" fill="#e5e5e5"/><path d="m46.4 31h-9l-1.6 3.9z" fill="#fff"/></g><g fill="#f7910b"><circle cx="11.1" cy="5" r="3.3"/><circle cx="39.6" cy="1.7" r="1"/><circle cx="53.7" cy="5.2" r="2.8"/><circle cx="22.8" cy="1.1" r="1"/></g></g></svg>