<?xml version="1.0" encoding="UTF-8"?>
<svg width="62px" height="60px" viewBox="0 0 62 60" version="1.1" xmlns="http://www.w3.org/2000/svg" xmlns:xlink="http://www.w3.org/1999/xlink">
    <!-- Generator: Sketch 43.1 (39012) - http://www.bohemiancoding.com/sketch -->
    <title>imgly_sticker_emoticons_wrestler</title>
    <desc>Created with Sketch.</desc>
    <defs></defs>
    <g id="Page-1" stroke="none" stroke-width="1" fill="none" fill-rule="evenodd">
        <g id="wrestler" fill-rule="nonzero">
            <g id="Group" transform="translate(0.000000, 1.000000)">
                <g>
                    <path d="M61.3,35.1 C61.3,48.1 49.4,58.6 31,58.6 C12.6,58.6 0.7,48.1 0.7,35.1 C0.7,22.1 12.6,2.6 31,2.6 C49.4,2.6 61.3,22.1 61.3,35.1 Z" id="Shape" fill="#F7910B"></path>
                    <path d="M61.3,35.1 C61.3,48.1 49.4,54.6 31,54.6 C12.6,54.6 0.7,48.1 0.7,35.1 C0.7,22.1 12.6,0.6 31,0.6 C49.4,0.6 61.3,22.1 61.3,35.1 Z" id="Shape" fill="#F7910B"></path>
                    <path d="M31,0.6 C49.4,0.6 61.3,22.1 61.3,35.1 C61.3,48.1 49.4,54.6 31,54.6" id="Shape" fill="#F9A908"></path>
                    <path d="M61.3,35.1 C61.3,48.1 49.4,54.6 31,54.6 C12.6,54.6 0.7,48.1 0.7,35.1 C0.7,22.1 12.6,2.6 31,2.6 C49.4,2.6 61.3,22.1 61.3,35.1 Z" id="Shape" fill="#F9A908"></path>
                    <path d="M0.7,35.1 C0.7,22.1 12.6,2.6 31,2.6" id="Shape" fill="#F9C55D"></path>
                    <path d="M31,2.6 C49.4,2.6 61.3,22.1 61.3,35.1 C61.3,48.1 49.4,58.6 31,58.6" id="Shape" fill="#F7910B"></path>
                    <path d="M31,2.6 C49.4,2.6 61.3,22.1 61.3,35.1" id="Shape" fill="#EA7103"></path>
                    <g transform="translate(11.000000, 24.000000)" id="Shape">
                        <path d="M15.8,3 C15.8,4.2 12.3,3.7 8,3.7 C3.7,3.7 0.2,4.3 0.2,3 C0.2,1.8 3.7,0.8 8,0.8 C12.3,0.8 15.8,1.8 15.8,3 Z" fill="#F9C55D"></path>
                        <path d="M39.8,3 C39.8,4.2 36.3,3.7 32,3.7 C27.7,3.7 24.2,4.3 24.2,3 C24.2,1.8 27.7,0.8 32,0.8 C36.3,0.8 39.8,1.8 39.8,3 Z" fill="#F9A908"></path>
                    </g>
                    <circle id="Oval" fill="#F7910B" cx="9.3" cy="32" r="1"></circle>
                    <circle id="Oval" fill="#F7910B" cx="4.8" cy="34" r="1.1"></circle>
                    <circle id="Oval" fill="#F7910B" cx="7.8" cy="30" r="1"></circle>
                    <circle id="Oval" fill="#F7910B" cx="12.4" cy="31.9" r="1"></circle>
                    <circle id="Oval" fill="#F9A908" cx="51.6" cy="32.4" r="1"></circle>
                    <circle id="Oval" fill="#F9A908" cx="54.1" cy="33.8" r="1"></circle>
                    <circle id="Oval" fill="#F9A908" cx="48.8" cy="25" r="1"></circle>
                    <circle id="Oval" fill="#F9A908" cx="48.3" cy="36.6" r="1.3"></circle>
                    <circle id="Oval" fill="#F9A908" cx="55.5" cy="36.7" r="1"></circle>
                    <circle id="Oval" fill="#F7910B" cx="8.3" cy="36.1" r="1"></circle>
                    <circle id="Oval" fill="#F7910B" cx="9.1" cy="27.7" r="1"></circle>
                    <circle id="Oval" fill="#F9A908" cx="3.8" cy="13.9" r="1.1"></circle>
                    <circle id="Oval" fill="#F9A908" cx="7" cy="10.4" r="1"></circle>
                    <circle id="Oval" fill="#F9A908" cx="58.2" cy="16.3" r="1"></circle>
                    <circle id="Oval" fill="#F9A908" cx="57.4" cy="13.4" r="1"></circle>
                    <circle id="Oval" fill="#F9A908" cx="60" cy="13.9" r="1"></circle>
                    <circle id="Oval" fill="#F9A908" cx="5" cy="16.9" r="1"></circle>
                </g>
                <g transform="translate(14.000000, 20.000000)" id="Shape">
                    <g>
                        <path d="M1.7,0.4 C2.1,0.4 2.5,0.6 2.9,0.9 C4.3,2.3 6.6,2.3 8,0.9 C8.6,0.3 9.7,0.2 10.3,0.9 C10.9,1.5 11,2.6 10.3,3.2 C7.6,5.9 3.2,5.9 0.5,3.2 C-0.1,2.6 -0.1,1.5 0.5,0.9 C0.9,0.6 1.3,0.4 1.7,0.4 Z" fill="#1E4784"></path>
                        <path d="M0.6,3.2 C-1.33226763e-15,2.6 -1.33226763e-15,1.5 0.6,0.9 C0.9,0.6 1.3,0.4 1.8,0.4 C2.2,0.4 2.6,0.6 3,0.9 C4.4,2.3 6.7,2.3 8.1,0.9 C8.7,0.3 9.8,0.2 10.4,0.9 C11,1.5 11.1,2.6 10.4,3.2" fill="#02243E"></path>
                    </g>
                    <g transform="translate(23.000000, 0.000000)">
                        <path d="M9.3,0.4 C8.9,0.4 8.5,0.6 8.1,0.9 C6.7,2.3 4.4,2.3 3,0.9 C2.4,0.3 1.3,0.2 0.7,0.9 C0.1,1.5 -1.77080572e-14,2.6 0.7,3.2 C3.4,5.9 7.8,5.9 10.5,3.2 C11.1,2.6 11.1,1.5 10.5,0.9 C10.1,0.6 9.7,0.4 9.3,0.4 Z" fill="#1E4784"></path>
                        <path d="M10.4,3.2 C11,2.6 11,1.5 10.4,0.9 C10.1,0.6 9.7,0.4 9.2,0.4 C8.8,0.4 8.4,0.6 8,0.9 C6.6,2.3 4.3,2.3 2.9,0.9 C2.3,0.3 1.2,0.2 0.6,0.9 C-1.06026299e-14,1.5 -0.1,2.6 0.6,3.2" fill="#02243E"></path>
                    </g>
                </g>
            </g>
            <path d="M31,1.6 C12.6,1.6 0.7,23.1 0.7,36.1 C0.7,49.1 12.6,59.6 31,59.6 C49.4,59.6 61.3,49.1 61.3,36.1 C61.3,23.1 49.4,1.6 31,1.6 Z M10.7,24.5 C10.7,20.5 14.8,17.3 19.8,17.3 C24.8,17.3 28.9,20.5 28.9,24.5 C28.9,28.5 24.8,28.1 19.8,28.1 C14.8,28.1 10.7,28.5 10.7,24.5 Z M31,52.4 C23.9,52.4 18.1,46.8 18.1,39.9 C18.1,33 23.9,32.3 31,32.3 C38.1,32.3 43.9,33 43.9,39.9 C43.9,46.8 38.1,52.4 31,52.4 Z M42.2,28.1 C37.2,28.1 33.1,28.5 33.1,24.5 C33.1,20.5 37.2,17.3 42.2,17.3 C47.2,17.3 51.3,20.5 51.3,24.5 C51.3,28.5 47.2,28.1 42.2,28.1 Z" id="Shape" fill="#1E4784"></path>
            <path d="M30.9,1.6 C24.9,1.6 19.7,4 15,7.6 L15,18.2 C17,17.6 18,17.2 19.7,17.2 C24.7,17.2 28.8,20.4 28.8,24.4 C28.8,28.4 24.6,28 19.6,28 L14.9,28 L14.9,56.3 C19.9,58.5 24.8,59.5 30.8,59.5 C49.2,59.5 61.1,49 61.1,36 C61.1,23 49.3,1.6 30.9,1.6 Z M31,52.4 C23.9,52.4 18.1,46.8 18.1,39.9 C18.1,33 23.9,32.3 31,32.3 C38.1,32.3 43.9,33 43.9,39.9 C43.9,46.8 38.1,52.4 31,52.4 Z M42.2,28.1 C37.2,28.1 33.1,28.5 33.1,24.5 C33.1,20.5 37.2,17.3 42.2,17.3 C47.2,17.3 51.3,20.5 51.3,24.5 C51.3,28.5 47.2,28.1 42.2,28.1 Z" id="Shape" fill="#00233F"></path>
            <ellipse id="Oval" fill="#2B63A5" transform="translate(8.793340, 32.903020) rotate(-19.402532) translate(-8.793340, -32.903020) " cx="8.79334" cy="32.90302" rx="4.79995939" ry="2.69997716"></ellipse>
            <polygon id="Shape" fill="#F9A908" points="6.9 0.4 8.4 3.4 11.7 3.9 9.3 6.2 9.8 9.4 6.9 7.9 4 9.4 4.5 6.2 2.2 3.9 5.4 3.4"></polygon>
            <polygon id="Shape" fill="#AAD6C3" points="15.3 8.1 16.8 11.1 20.1 11.6 17.7 13.9 18.3 17.1 15.3 15.6 12.4 17.1 13 13.9 10.6 11.6 13.9 11.1"></polygon>
            <polygon id="Shape" fill="#AAD6C3" points="44.4 13.8 47.6 14.9 50.2 12.9 50.2 16.2 52.9 18.1 49.7 19.1 48.7 22.3 46.8 19.6 43.5 19.6 45.5 17"></polygon>
            <polygon id="Shape" fill="#F7910B" points="51.8 39.7 54.9 40.7 57.6 38.8 57.5 42.1 60.2 44 57.1 45 56.1 48.1 54.2 45.4 50.8 45.5 52.8 42.8"></polygon>
            <g id="Group" transform="translate(23.000000, 37.000000)">
                <path d="M15.4,1.4 C15.4,4 12.1,6.1 8,6.1 C3.9,6.1 0.6,4 0.6,1.4" id="Shape" fill="#F7910B"></path>
                <path d="M15,2 L1,2 C0.4,2 0,1.6 0,1 C0,0.4 0.4,0 1,0 L15,0 C15.6,0 16,0.4 16,1 C16,1.6 15.6,2 15,2 Z" id="Shape" fill="#02243E"></path>
            </g>
        </g>
    </g>
</svg>