<svg height="58" viewBox="0 0 62 58" width="62" xmlns="http://www.w3.org/2000/svg"><g fill="none"><path d="m61.3 34.5c0 13-11.9 23.5-30.3 23.5s-30.3-10.5-30.3-23.5 11.9-32.5 30.3-32.5 30.3 19.5 30.3 32.5z" fill="#f7910b"/><path d="m61.3 34.5c0 13-11.9 19.5-30.3 19.5s-30.3-6.5-30.3-19.5 11.9-34.5 30.3-34.5 30.3 21.5 30.3 34.5z" fill="#f7910b"/><path d="m31 0c18.4 0 30.3 21.5 30.3 34.5s-11.9 19.5-30.3 19.5" fill="#f9a908"/><path d="m61.3 34.5c0 13-11.9 19.5-30.3 19.5s-30.3-6.5-30.3-19.5 11.9-32.5 30.3-32.5 30.3 19.5 30.3 32.5z" fill="#f9a908"/><path d="m.7 34.5c0-13 11.9-32.5 30.3-32.5" fill="#f9c55d"/><path d="m31 2c18.4 0 30.3 19.5 30.3 32.5s-11.9 23.5-30.3 23.5" fill="#f7910b"/><path d="m31 2c18.4 0 30.3 19.5 30.3 32.5" fill="#ea7103"/><g transform="translate(9 26)"><g fill="#ea7103"><circle cx="11.6" cy="4.8" r="3.2"/><circle cx="32.4" cy="4.8" r="3.2"/></g><circle cx="11.6" cy="3.9" fill="#1e4784" r="3.2"/><path d="m11.6.7c1.8 0 3.2 1.4 3.2 3.2s-1.4 3.2-3.2 3.2" fill="#00233f"/><circle cx="32.4" cy="3.9" fill="#1e4784" r="3.2"/><path d="m32.4.7c1.8 0 3.2 1.4 3.2 3.2s-1.4 3.2-3.2 3.2" fill="#00233f"/><g fill="#ff4200" transform="translate(0 8)"><path d="m17.4 2.9c0 1.3-3.8 1.8-8.6 1.8-4.7 0-8.6-.5-8.6-1.8s3.8-2.4 8.6-2.4 8.6 1.1 8.6 2.4z"/><path d="m43.8 2.9c0 1.3-3.8 1.8-8.6 1.8s-8.6-.5-8.6-1.8 3.8-2.4 8.6-2.4 8.6 1.1 8.6 2.4z"/></g></g><g fill="#19bca4" transform="translate(18 11)"><path d="m6.7 2c0 .9-1.4.5-3.3.6-1.8.1-3.3.6-3.3-.3s1.4-1.6 3.2-1.7c1.9-.1 3.4.5 3.4 1.4z"/><path d="m19.3 2c0 .9 1.4.5 3.3.6 1.8.1 3.3.6 3.3-.3s-1.4-1.6-3.2-1.7c-1.9-.1-3.4.5-3.4 1.4z"/></g><g fill="#109da0" transform="translate(18 13)"><path d="m6.7 0c0 .9-1.4.5-3.3.6-1.8.1-3.3.6-3.3-.3"/><path d="m19.3 0c0 .9 1.4.5 3.3.6 1.8.1 3.3.6 3.3-.3"/></g><circle cx="9.3" cy="31.5" fill="#f7910b" r="1"/><circle cx="4.8" cy="33.5" fill="#f7910b" r="1.1"/><circle cx="7.8" cy="29.5" fill="#f7910b" r="1"/><circle cx="12.4" cy="31.3" fill="#f7910b" r="1"/><circle cx="51.6" cy="31.8" fill="#f9a908" r="1"/><circle cx="54.1" cy="33.2" fill="#f9a908" r="1"/><circle cx="48.8" cy="24.4" fill="#f9a908" r="1"/><circle cx="43.9" cy="23.3" fill="#f9a908" r="1.3"/><circle cx="55.5" cy="36.1" fill="#f9a908" r="1"/><circle cx="8.3" cy="35.5" fill="#f7910b" r="1"/><circle cx="9.1" cy="27.1" fill="#f7910b" r="1"/><g fill="#f9a908"><circle cx="3.8" cy="13.3" r="1.1"/><circle cx="7" cy="9.8" r="1"/><circle cx="58.2" cy="15.7" r="1"/><circle cx="57.4" cy="12.8" r="1"/><circle cx="60" cy="13.3" r="1"/><circle cx="5" cy="16.3" r="1"/></g><path d="m38.4 43.7c0 2.6-3.3 8.1-7.4 8.1s-7.4-5.5-7.4-8.1" fill="#f7910b"/><path d="m31 45.2c-3.5 0-6.5-.8-7.9-2.2-.4-.4-.4-1.1 0-1.6.4-.4 1.1-.4 1.6 0 1 1 3.5 1.6 6.3 1.6s5.4-.6 6.3-1.6c.4-.4 1.1-.4 1.6 0 .4.4.4 1.1 0 1.6-1.4 1.4-4.4 2.2-7.9 2.2z" fill="#02243e"/></g></svg>