<svg height="58" viewBox="0 0 62 58" width="62" xmlns="http://www.w3.org/2000/svg"><g fill="none"><path d="m61.3 34.5c0 13-11.9 23.5-30.3 23.5s-30.3-10.5-30.3-23.5 11.9-32.5 30.3-32.5 30.3 19.5 30.3 32.5z" fill="#f7910b"/><path d="m61.3 34.5c0 13-11.9 19.5-30.3 19.5s-30.3-6.5-30.3-19.5 11.9-34.5 30.3-34.5 30.3 21.5 30.3 34.5z" fill="#f7910b"/><path d="m31 0c18.4 0 30.3 21.5 30.3 34.5s-11.9 19.5-30.3 19.5" fill="#f9a908"/><path d="m61.3 34.5c0 13-11.9 19.5-30.3 19.5s-30.3-6.5-30.3-19.5 11.9-32.5 30.3-32.5 30.3 19.5 30.3 32.5z" fill="#f9a908"/><path d="m.7 34.5c0-13 11.9-32.5 30.3-32.5" fill="#f9c55d"/><path d="m31 2c18.4 0 30.3 19.5 30.3 32.5s-11.9 23.5-30.3 23.5" fill="#f7910b"/><path d="m31 2c18.4 0 30.3 19.5 30.3 32.5" fill="#ea7103"/><g transform="translate(17 18)"><ellipse cx="3.6" cy="4.7" fill="#ea7103" rx="3.2" ry="3.2"/><ellipse cx="24.4" cy="4.7" fill="#ea7103" rx="3.2" ry="3.2"/><ellipse cx="3.6" cy="3.8" fill="#1e4784" rx="3.2" ry="3.2"/><path d="m3.6.6c1.8 0 3.2 1.4 3.2 3.2s-1.4 3.2-3.2 3.2" fill="#00233f"/><ellipse cx="24.4" cy="3.8" fill="#1e4784" rx="3.2" ry="3.2"/><path d="m24.4.6c1.8 0 3.2 1.4 3.2 3.2s-1.4 3.2-3.2 3.2" fill="#00233f"/></g><g transform="translate(11 25)"><path d="m15.8 2.8c0 1.2-3.5.7-7.8.7s-7.8.6-7.8-.7c0-1.2 3.5-2.2 7.8-2.2s7.8 1 7.8 2.2z" fill="#f9c55d"/><path d="m39.8 2.8c0 1.2-3.5.7-7.8.7s-7.8.6-7.8-.7c0-1.2 3.5-2.2 7.8-2.2s7.8 1 7.8 2.2z" fill="#f9a908"/></g><ellipse cx="9.3" cy="31.5" fill="#f7910b" rx="1" ry="1"/><ellipse cx="4.8" cy="33.5" fill="#f7910b" rx="1.1" ry="1.1"/><ellipse cx="7.8" cy="29.5" fill="#f7910b" rx="1" ry="1"/><circle cx="12.4" cy="31.3" fill="#f7910b" r="1"/><circle cx="51.6" cy="31.8" fill="#f9a908" r="1"/><circle cx="54.1" cy="33.2" fill="#f9a908" r="1"/><circle cx="48.8" cy="24.4" fill="#f9a908" r="1"/><circle cx="48.3" cy="36" fill="#f9a908" r="1.3"/><circle cx="55.5" cy="36.1" fill="#f9a908" r="1"/><ellipse cx="8.3" cy="35.5" fill="#f7910b" rx="1" ry="1"/><circle cx="9.1" cy="27.1" fill="#f7910b" r="1"/><g fill="#f9a908"><ellipse cx="3.8" cy="13.3" rx="1.1" ry="1.1"/><ellipse cx="7" cy="9.8" rx="1" ry="1"/><circle cx="58.2" cy="15.7" r="1"/><ellipse cx="57.4" cy="12.8" rx="1" ry="1"/><path d="m60.5 13.3c0 .3-.2.5-.5.5s-.5-.2-.5-.5.2-.5.5-.5c.2 0 .5.3.5.5z"/><ellipse cx="5" cy="16.3" rx="1" ry="1"/></g><path d="m38.4 36.9c0 2.6-3.3 4.7-7.4 4.7s-7.4-2.1-7.4-4.7" fill="#f7910b"/><g transform="translate(14 23)"><path d="m10.3 1.1c0 .9-2.1 2.7-4.8 2.7s-4.8-1.8-4.8-2.7c0-.9 2.1-.4 4.8-.4s4.8-.5 4.8.4z" fill="#f7910b"/><path d="m10.3.9c0 .9-2.1 1.6-4.8 1.6s-4.8-.7-4.8-1.6 2.1-.4 4.8-.4 4.8-.5 4.8.4z" fill="#cbebef"/><path d="m5.6.5c2.6 0 4.8-.5 4.8.4s-2.1 1.6-4.8 1.6" fill="#89d3db"/></g><g transform="translate(8 25)"><ellipse cx="2.9" cy="3.5" fill="#f7910b" rx="2.5" ry="2.5"/><ellipse cx="2.9" cy="2.6" fill="#cbebef" rx="2.5" ry="2.5"/><path d="m1.2.9c1-1 2.5-1 3.5 0s1 2.5 0 3.5" fill="#89d3db"/></g><g transform="translate(8 32)"><ellipse cx="2.9" cy="3.5" fill="#f7910b" rx="2.5" ry="2.5"/><ellipse cx="2.9" cy="2.6" fill="#cbebef" rx="2.5" ry="2.5"/><path d="m1.2.8c1-1 2.5-1 3.5 0s1 2.5 0 3.5" fill="#89d3db"/></g><g transform="translate(11 21)"><ellipse cx="1.7" cy="2.5" fill="#f7910b" rx="1.2" ry="1.2"/><ellipse cx="1.7" cy="2" fill="#cbebef" rx="1.2" ry="1.2"/><path d="m.9 1.2c.5-.5 1.3-.5 1.8 0s.5 1.3 0 1.8" fill="#89d3db"/></g><g transform="translate(11 38)"><ellipse cx="1.7" cy="2.6" fill="#f7910b" rx="1.2" ry="1.2"/><ellipse cx="1.7" cy="2.1" fill="#cbebef" rx="1.2" ry="1.2"/><path d="m.8 1.2c.5-.5 1.3-.5 1.8 0s.5 1.3 0 1.8" fill="#89d3db"/></g><g transform="translate(14 42)"><ellipse cx="1.1" cy="1.6" fill="#f7910b" rx="1" ry="1"/><ellipse cx="1.1" cy="1.3" fill="#cbebef" rx="1" ry="1"/><path d="m.5.7c.3-.3.9-.3 1.3 0 .3.3.3.9 0 1.2" fill="#89d3db"/></g><g transform="translate(37 23)"><path d="m.7 1.1c0 .9 2.1 2.7 4.8 2.7 2.6 0 4.8-1.8 4.8-2.7 0-.9-2.1-.4-4.8-.4-2.7-.1-4.8-.5-4.8.4z" fill="#f7910b"/><path d="m.7.9c0 .9 2.1 1.6 4.8 1.6 2.6 0 4.8-.7 4.8-1.6s-2.1-.4-4.8-.4-4.8-.5-4.8.4z" fill="#89d3db"/><path d="m5.4.5c-2.6 0-4.8-.5-4.8.4s2.1 1.6 4.8 1.6" fill="#cbebef"/></g><g transform="translate(48 25)"><ellipse cx="3.1" cy="3.5" fill="#f7910b" rx="2.5" ry="2.5"/><ellipse cx="3.1" cy="2.6" fill="#89d3db" rx="2.5" ry="2.5"/><path d="m4.8.9c-1-1-2.5-1-3.5 0-1 1-1 2.5 0 3.5" fill="#cbebef"/></g><g transform="translate(48 32)"><ellipse cx="3.1" cy="3.5" fill="#f7910b" rx="2.5" ry="2.5"/><ellipse cx="3.1" cy="2.6" fill="#89d3db" rx="2.5" ry="2.5"/><path d="m4.8.8c-1-1-2.5-1-3.5 0-1 1-1 2.5 0 3.5" fill="#cbebef"/></g><g transform="translate(47 21)"><ellipse cx="2.3" cy="2.5" fill="#f7910b" rx="1.2" ry="1.2"/><ellipse cx="2.3" cy="2" fill="#89d3db" rx="1.2" ry="1.2"/><path d="m3.1 1.2c-.5-.5-1.3-.5-1.8 0s-.5 1.3 0 1.8" fill="#cbebef"/></g><g transform="translate(48 38)"><ellipse cx="1.3" cy="2.6" fill="#f7910b" rx="1.2" ry="1.2"/><ellipse cx="1.3" cy="2.1" fill="#89d3db" rx="1.2" ry="1.2"/><path d="m2.2 1.2c-.5-.5-1.3-.5-1.8 0s-.5 1.3 0 1.8" fill="#cbebef"/></g><g transform="translate(46 42)"><circle cx=".9" cy="1.6" fill="#f7910b" r="1"/><circle cx=".9" cy="1.3" fill="#89d3db" r="1"/><path d="m1.5.7c-.3-.3-.9-.3-1.2 0s-.3.9 0 1.2" fill="#cbebef"/></g><g fill="#19bca4" transform="translate(19 14)"><path d="m.7 3.3c-.3-.4.8-.8 2-1.6s2-1.6 2.2-1.2c.3.4-.5 1.4-1.6 2.1-1.1.8-2.3 1.1-2.6.7z"/><path d="m23.3 3.3c.3-.4-.8-.8-2-1.6s-2-1.6-2.2-1.2c-.3.4.5 1.4 1.6 2.1 1.1.8 2.3 1.1 2.6.7z"/></g><g transform="translate(19 28)"><path d="m4.1 5.7c4.4-4.4 11.4-4.4 15.8 0" fill="#f7910b"/><g fill="#02243e"><path d="m19.5 8.1c-.6 0-1.1-.5-1.1-1.1 0-2.1 1.7-3.8 3.8-3.8.6 0 1.1.5 1.1 1.1s-.5 1.1-1.1 1.1c-.9 0-1.6.7-1.6 1.6 0 .6-.5 1.1-1.1 1.1z"/><path d="m4.5 8.1c-.6 0-1.1-.5-1.1-1.1 0-.9-.7-1.6-1.6-1.6-.6 0-1.1-.5-1.1-1.1s.5-1.1 1.1-1.1c2.1 0 3.8 1.7 3.8 3.8 0 .6-.5 1.1-1.1 1.1z"/><path d="m19.9 6.1c-.3 0-.6-.1-.8-.3-1.9-1.9-4.4-2.9-7.1-2.9s-5.2 1-7.1 2.9c-.4.4-1.1.4-1.6 0s-.4-1.1 0-1.6c2.3-2.3 5.4-3.6 8.7-3.6s6.4 1.3 8.7 3.6c.4.4.4 1.1 0 1.6-.2.2-.5.3-.8.3z"/></g></g></g></svg>