<?xml version="1.0" encoding="UTF-8"?>
<svg width="62px" height="58px" viewBox="0 0 62 58" version="1.1" xmlns="http://www.w3.org/2000/svg" xmlns:xlink="http://www.w3.org/1999/xlink">
    <!-- Generator: Sketch 43.1 (39012) - http://www.bohemiancoding.com/sketch -->
    <title>imgly_sticker_emoticons_devil</title>
    <desc>Created with Sketch.</desc>
    <defs></defs>
    <g id="Page-1" stroke="none" stroke-width="1" fill="none" fill-rule="evenodd">
        <g id="devil" fill-rule="nonzero">
            <g id="Group" transform="translate(4.000000, 2.000000)">
                <path d="M14.6,16.7 L14.4,16.7 C9.6,16.4 5.2,11.4 4.5,5.5 C4.3,3.6 4.5,1.9 5,0.4 C2.9,1.9 1.2,4.2 0.5,7 C-1,12.6 1.6,18.1 6.3,19.4 C9.3,20.1 12.4,19 14.6,16.7 Z" id="Shape" fill="#ED1841"></path>
                <path d="M39.4,16.7 L39.6,16.7 C44.4,16.4 48.8,11.4 49.5,5.5 C49.7,3.6 49.5,1.9 49,0.4 C51.1,1.8 52.8,4.1 53.5,7 C55,12.6 52.3,18.1 47.6,19.3 C44.7,20.1 41.6,19 39.4,16.7 Z" id="Shape" fill="#C1053A"></path>
            </g>
            <g id="Group">
                <path d="M61.3,34.5 C61.3,47.5 49.4,58 31,58 C12.6,58 0.7,47.5 0.7,34.5 C0.7,21.5 12.6,2 31,2 C49.4,2 61.3,21.5 61.3,34.5 Z" id="Shape" fill="#ED1841"></path>
                <path d="M61.3,34.5 C61.3,47.5 49.4,54 31,54 C12.6,54 0.7,47.5 0.7,34.5 C0.7,21.5 12.6,0 31,0 C49.4,0 61.3,21.5 61.3,34.5 Z" id="Shape" fill="#ED1841"></path>
                <path d="M31,0 C49.4,0 61.3,21.5 61.3,34.5 C61.3,47.5 49.4,54 31,54" id="Shape" fill="#FC4777"></path>
                <path d="M61.3,34.5 C61.3,47.5 49.4,54 31,54 C12.6,54 0.7,47.5 0.7,34.5 C0.7,21.5 12.6,2 31,2 C49.4,2 61.3,21.5 61.3,34.5 Z" id="Shape" fill="#FC4777"></path>
                <path d="M0.7,34.5 C0.7,21.5 12.6,2 31,2" id="Shape" fill="#F98A9F"></path>
                <path d="M31,2 C49.4,2 61.3,21.5 61.3,34.5 C61.3,47.5 49.4,58 31,58" id="Shape" fill="#ED1841"></path>
                <path d="M31,2 C49.4,2 61.3,21.5 61.3,34.5" id="Shape" fill="#C1053A"></path>
                <g transform="translate(9.000000, 26.000000)">
                    <g transform="translate(8.000000, 1.000000)" id="Oval" fill="#C1053A">
                        <circle cx="3.6" cy="3.8" r="3.2"></circle>
                        <circle cx="24.4" cy="3.8" r="3.2"></circle>
                    </g>
                    <circle id="Oval" fill="#1E4784" cx="11.6" cy="3.9" r="3.2"></circle>
                    <path d="M11.6,0.7 C13.4,0.7 14.8,2.1 14.8,3.9 C14.8,5.7 13.4,7.1 11.6,7.1" id="Shape" fill="#00233F"></path>
                    <circle id="Oval" fill="#1E4784" cx="32.4" cy="3.9" r="3.2"></circle>
                    <path d="M32.4,0.7 C34.2,0.7 35.6,2.1 35.6,3.9 C35.6,5.7 34.2,7.1 32.4,7.1" id="Shape" fill="#00233F"></path>
                    <g transform="translate(0.000000, 7.000000)" id="Shape">
                        <path d="M17.4,3.1 C17.4,4.4 13.6,3.9 8.8,3.9 C4.1,3.9 0.2,4.4 0.2,3.1 C0.2,1.8 4,0.7 8.8,0.7 C13.6,0.7 17.4,1.8 17.4,3.1 Z" fill="#F98A9F"></path>
                        <path d="M43.8,3.1 C43.8,4.4 40,3.9 35.2,3.9 C30.4,3.9 26.6,4.4 26.6,3.1 C26.6,1.8 30.4,0.7 35.2,0.7 C40,0.7 43.8,1.8 43.8,3.1 Z" fill="#FF5069"></path>
                    </g>
                </g>
                <circle id="Oval" fill="#F98A9F" cx="9.3" cy="31.5" r="1"></circle>
                <circle id="Oval" fill="#F98A9F" cx="4.8" cy="33.5" r="1.1"></circle>
                <circle id="Oval" fill="#F98A9F" cx="7.8" cy="29.5" r="1"></circle>
                <circle id="Oval" fill="#F98A9F" cx="12.4" cy="31.3" r="1"></circle>
                <circle id="Oval" fill="#FC4777" cx="51.6" cy="31.8" r="1"></circle>
                <circle id="Oval" fill="#FC4777" cx="54.1" cy="33.2" r="1"></circle>
                <circle id="Oval" fill="#FC4777" cx="48.8" cy="24.4" r="1"></circle>
                <circle id="Oval" fill="#FC4777" cx="43.9" cy="23.3" r="1.3"></circle>
                <circle id="Oval" fill="#FC4777" cx="55.5" cy="36.1" r="1"></circle>
                <circle id="Oval" fill="#F98A9F" cx="8.3" cy="35.5" r="1"></circle>
                <circle id="Oval" fill="#F98A9F" cx="9.1" cy="27.1" r="1"></circle>
                <circle id="Oval" fill="#FC4777" cx="3.8" cy="4" r="1.1"></circle>
                <circle id="Oval" fill="#FC4777" cx="11.1" cy="5.7" r="1"></circle>
                <circle id="Oval" fill="#ED1841" cx="58.2" cy="15.7" r="1"></circle>
                <circle id="Oval" fill="#ED1841" cx="48.4" cy="3" r="1"></circle>
                <circle id="Oval" fill="#ED1841" cx="57.1" cy="2.1" r="1"></circle>
                <circle id="Oval" fill="#FC4777" cx="11.3" cy="0.6" r="1"></circle>
                <g transform="translate(19.000000, 38.000000)" id="Shape">
                    <path d="M19.4,9.4 C19.4,12 16.1,16.7 12,16.7 C7.9,16.7 4.6,12 4.6,9.4" fill="#ED1841"></path>
                    <g>
                        <path d="M23.9,0.5 C23.9,7.3 18.6,12.8 12,12.8 C5.4,12.8 0.1,7.3 0.1,0.5" fill="#1E4784"></path>
                        <path d="M23.9,0.5 C23.9,2.8 18.6,4.6 12,4.6 C5.4,4.6 0.1,2.8 0.1,0.5" fill="#00233F"></path>
                        <path d="M12,12.8 C15.7,12.8 18.9,11.1 21.1,8.4 C19.8,6.9 17.8,5.9 15.6,5.9 C14.3,5.9 13,6.3 12,6.9 C10.9,6.3 9.7,5.9 8.4,5.9 C6.2,5.9 4.3,6.9 2.9,8.4 C5.1,11.1 8.3,12.8 12,12.8 Z" fill="#F98A9F"></path>
                    </g>
                </g>
                <g transform="translate(17.000000, 20.000000)" id="Shape" fill="#7A0B0B">
                    <path d="M0.5,1.7 C-0.2,3.2 1.9,3.8 4,5.4 C6.1,7.1 7.5,9.2 8.2,7.6 C8.9,6.1 7.8,3.5 5.6,1.8 C3.6,0.3 1.2,0.2 0.5,1.7 Z"></path>
                    <path d="M27.5,1.7 C28.2,3.2 26.1,3.8 24,5.4 C21.9,7.1 20.5,9.2 19.8,7.6 C19.1,6.1 20.2,3.5 22.4,1.8 C24.4,0.3 26.8,0.2 27.5,1.7 Z"></path>
                </g>
            </g>
        </g>
    </g>
</svg>