<svg height="60" viewBox="0 0 62 60" width="62" xmlns="http://www.w3.org/2000/svg"><g fill="none"><g transform="translate(0 2)"><path d="m61.3 34.5c0 12.9-11.9 23.5-30.3 23.5s-30.3-10.6-30.3-23.5 11.9-32.5 30.3-32.5 30.3 19.5 30.3 32.5z" fill="#f7910b"/><path d="m61.3 34.5c0 12.9-11.9 19.5-30.3 19.5s-30.3-6.6-30.3-19.5 11.9-34.5 30.3-34.5 30.3 21.5 30.3 34.5z" fill="#f7910b"/><path d="m31 0c18.4 0 30.3 21.5 30.3 34.5s-11.9 19.5-30.3 19.5" fill="#f9a908"/><path d="m61.3 34.5c0 12.9-11.9 19.5-30.3 19.5s-30.3-6.6-30.3-19.5 11.9-32.5 30.3-32.5 30.3 19.5 30.3 32.5z" fill="#f9a908"/><path d="m.7 34.5c0-13 11.9-32.5 30.3-32.5" fill="#f9c55d"/><path d="m31 2c18.4 0 30.3 19.5 30.3 32.5s-11.9 23.5-30.3 23.5" fill="#f7910b"/><path d="m31 2c18.4 0 30.3 19.5 30.3 32.5" fill="#ea7103"/><g transform="translate(17 21)"><ellipse cx="3.6" cy="2.6" fill="#ea7103" rx="3.2" ry="2"/><ellipse cx="24.4" cy="2.6" fill="#ea7103" rx="3.2" ry="2"/><ellipse cx="3.6" cy="2" fill="#1e4784" rx="3.2" ry="2"/><path d="m3.6.1c1.8 0 3.2.9 3.2 2s-1.4 2-3.2 2" fill="#00233f"/><ellipse cx="24.4" cy="2" fill="#1e4784" rx="3.2" ry="2"/><path d="m24.4.1c1.8 0 3.2.9 3.2 2s-1.4 2-3.2 2" fill="#00233f"/></g><g fill="#19bca4" transform="translate(18 8)"><path d="m6.2 7.5c-.3.8-1.5-.2-3.2-.9s-3.2-.9-2.8-1.7c.3-.8 2-.9 3.6-.2 1.7.8 2.7 2 2.4 2.8z"/><path d="m19.7 3.9c.4.8 1.5-.3 3.1-1.2s3.1-1.2 2.7-1.9c-.4-.8-2-.7-3.6.2-1.7.8-2.6 2.1-2.2 2.9z"/></g><g fill="#109da0" transform="translate(18 8)"><path d="m6.2 7.5c-.3.8-1.5-.2-3.2-.9s-3.2-.9-2.8-1.7"/><path d="m19.7 3.9c.4.8 1.5-.3 3.1-1.2s3.1-1.2 2.7-1.9"/></g><g transform="translate(11 25)"><path d="m15.8 2.8c0 1.2-3.5.7-7.8.7s-7.8.6-7.8-.7c0-1.2 3.5-2.2 7.8-2.2s7.8 1 7.8 2.2z" fill="#f9c55d"/><path d="m39.8 2.8c0 1.2-3.5.7-7.8.7s-7.8.6-7.8-.7c0-1.2 3.5-2.2 7.8-2.2s7.8 1 7.8 2.2z" fill="#f9a908"/></g><circle cx="9.3" cy="31.4" fill="#f7910b" r="1"/><ellipse cx="4.8" cy="33.4" fill="#f7910b" rx="1.1" ry="1.1"/><ellipse cx="7.8" cy="29.4" fill="#f7910b" rx="1" ry="1"/><circle cx="12.4" cy="31.2" fill="#f7910b" r="1"/><ellipse cx="51.6" cy="31.8" fill="#f9a908" rx="1" ry="1"/><circle cx="54.1" cy="33.2" fill="#f9a908" r="1"/><circle cx="48.8" cy="24.4" fill="#f9a908" r="1"/><circle cx="48.3" cy="36" fill="#f9a908" r="1.3"/><circle cx="55.5" cy="36.1" fill="#f9a908" r="1"/><ellipse cx="8.3" cy="35.5" fill="#f7910b" rx="1" ry="1"/><circle cx="9.1" cy="27.1" fill="#f7910b" r="1"/><g fill="#f9a908"><ellipse cx="3.8" cy="13.3" rx="1.1" ry="1.1"/><ellipse cx="7" cy="9.7" rx="1" ry="1"/><ellipse cx="58.2" cy="15.7" rx="1" ry="1"/><ellipse cx="57.4" cy="12.7" rx="1" ry="1"/><circle cx="60" cy="13.3" r="1"/><ellipse cx="5" cy="16.2" rx="1" ry="1"/></g></g><g transform="translate(6 6)"><path d="m49.7 23.5-7.9 1.2-3.4 2.6-3.3-2.6-3.4 2.6-3.3-2.6-3.4 2.6-3.4-2.6-3.3 2.6-3.4-2.6-3.3 2.6-3.4-2.6-7.9-1.2 7.9 16.3 3.4-2.7 3.3 2.7 3.4-2.7 3.3 2.7 3.4-2.7 3.4 2.7 3.3-2.7 3.4 2.7 3.3-2.7 3.4 2.7z" fill="#f9c55d"/><path d="m49.7 23.5-7.9 2.6-3.4 2.6-3.3-2.6-3.4 2.6-3.3-2.6-3.4 2.6-3.4-2.6-3.3 2.6-3.4-2.6-3.3 2.6-3.4-2.6-7.9-2.6 7.9 14.9 3.4-2.6 3.3 2.6 3.4-2.6 3.3 2.6 3.4-2.6 3.4 2.6 3.3-2.6 3.4 2.6 3.3-2.6 3.4 2.6z" fill="#960e08"/><path d="m8.2 30.9 3.4 2.6 3.3-2.6 3.4 2.6 3.3-2.6 3.4 2.6 3.4-2.6 3.3 2.6 3.4-2.6 3.3 2.6 3.4-2.6 4.8-1.6 3.1-5.8-7.9 2.6-3.4 2.6-3.3-2.6-3.4 2.6-3.3-2.6-3.4 2.6-3.4-2.6-3.3 2.6-3.4-2.6-3.3 2.6-3.4-2.6-7.9-2.6 3.1 5.8z" fill="#490101"/><g fill="#f9c55d" transform="translate(24)"><path d="m2 1c0 .6-.4 1-1 1-.6 0-1-.4-1-1 0-.6.4-1 1-1 .6 0 1 .4 1 1z"/><path d="m2 8c0 .6-.4 1-1 1-.6 0-1-.4-1-1 0-.6.4-1 1-1 .6 0 1 .4 1 1z"/><path d="m2 15c0 .6-.4 1-1 1-.6 0-1-.4-1-1 0-.6.4-1 1-1 .6 0 1 .4 1 1z"/><path d="m2 21.8c0 .6-.5 1-1 1-.6 0-1-.5-1-1 0-.6.5-1 1-1 .6 0 1 .5 1 1z"/></g></g><path d="m36.1 3.3c0 1.8-2.3 1.2-5.1 1.2s-5.1.5-5.1-1.2 2.3-3.3 5.1-3.3 5.1 1.5 5.1 3.3z" fill="#109da0"/><path d="m36.1 3.3c0 1.8-2.3 1.2-5.1 1.2s-5.1.5-5.1-1.2" fill="#19bca4"/></g></svg>