<svg height="58" viewBox="0 0 62 58" width="62" xmlns="http://www.w3.org/2000/svg"><g fill="none"><path d="m61.3 34.5c0 13-11.9 23.5-30.3 23.5s-30.3-10.5-30.3-23.5 11.9-32.5 30.3-32.5 30.3 19.5 30.3 32.5z" fill="#f7910b"/><path d="m61.3 34.5c0 13-11.9 19.5-30.3 19.5s-30.3-6.5-30.3-19.5 11.9-34.5 30.3-34.5 30.3 21.5 30.3 34.5z" fill="#f7910b"/><path d="m31 0c18.4 0 30.3 21.5 30.3 34.5s-11.9 19.5-30.3 19.5" fill="#f9a908"/><path d="m61.3 34.5c0 13-11.9 19.5-30.3 19.5s-30.3-6.5-30.3-19.5 11.9-32.5 30.3-32.5 30.3 19.5 30.3 32.5z" fill="#f9a908"/><path d="m.7 34.5c0-13 11.9-32.5 30.3-32.5" fill="#f9c55d"/><path d="m31 2c18.4 0 30.3 19.5 30.3 32.5s-11.9 23.5-30.3 23.5" fill="#f7910b"/><path d="m31 2c18.4 0 30.3 19.5 30.3 32.5" fill="#ea7103"/><g transform="translate(11 15)"><path d="m15.8 2.6c0 1.2-3.5.7-7.8.7s-7.8.6-7.8-.7 3.5-2.2 7.8-2.2 7.8 1 7.8 2.2z" fill="#f9c55d"/><path d="m39.8 2.6c0 1.2-3.5.7-7.8.7s-7.8.6-7.8-.7 3.5-2.2 7.8-2.2 7.8 1 7.8 2.2z" fill="#f9a908"/></g><ellipse cx="9.3" cy="31.5" fill="#f7910b" rx="1" ry="1"/><ellipse cx="4.8" cy="33.5" fill="#f7910b" rx="1.1" ry="1.1"/><circle cx="7.8" cy="29.5" fill="#f7910b" r="1"/><circle cx="12.4" cy="31.3" fill="#f7910b" r="1"/><circle cx="51.6" cy="31.8" fill="#f9a908" r="1"/><circle cx="54.1" cy="33.2" fill="#f9a908" r="1"/><circle cx="48.8" cy="24.4" fill="#f9a908" r="1"/><ellipse cx="48.3" cy="36" fill="#f9a908" rx="1.3" ry="1.3"/><circle cx="55.5" cy="36.1" fill="#f9a908" r="1"/><circle cx="8.3" cy="35.5" fill="#f7910b" r="1"/><circle cx="9.1" cy="27.1" fill="#f7910b" r="1"/><g fill="#061c33"><ellipse cx="3.8" cy="13.3" rx="1.1" ry="1.1"/><ellipse cx="7" cy="9.8" rx="1" ry="1"/><circle cx="58.2" cy="15.7" r="1"/><ellipse cx="57.4" cy="12.8" rx="1" ry="1"/><circle cx="60" cy="13.3" r="1"/><ellipse cx="5" cy="16.3" rx="1" ry="1"/></g><g fill="#037a66" transform="translate(17 6)"><path d="m7.6 1.8c.3.9-1.4.9-3.3 1.5s-3.3 1.5-3.6.6 1-2.1 2.9-2.7c1.9-.5 3.7-.3 4 .6z"/><path d="m20.4 1.8c-.3.9 1.4.9 3.3 1.5s3.3 1.5 3.6.6-1-2.1-2.9-2.7c-1.9-.5-3.7-.3-4 .6z"/></g><path d="m36.3 24.4c0 .7-2.4 4-5.3 4s-5.2-3.3-5.2-4 2.4-.1 5.2-.1c2.9 0 5.3-.6 5.3.1z" fill="#f7910b"/><path d="m25.8 24.3c0-.7 2.4-1.3 5.2-1.3 2.9 0 5.2.6 5.2 1.3s-2.4.1-5.2.1c-2.9 0-5.2.6-5.2-.1z" fill="#99144a"/><path d="m31 0c-18.4 0-30.3 21.5-30.3 34.5s11.9 23.5 30.3 23.5 30.3-10.5 30.3-23.5-11.9-34.5-30.3-34.5zm0 33.5c-4.9 0-9-3.9-9-8.8 0-4.8 4-5.3 9-5.3s9 .5 9 5.3c0 4.9-4.1 8.8-9 8.8z" fill="#02598e"/><path d="m31 2.8c-17.7 0-29.5 20-30.3 33.1.8 12.3 12.6 22.1 30.3 22.1s29.5-9.8 30.3-22.1c-.8-13.1-12.6-33.1-30.3-33.1zm9 24.8c0 4.8-4 8.8-9 8.8s-9-3.9-9-8.8c0-.5.1-.9.1-1.4-.1-.5-.1-1-.1-1.5 0-4.8 4-5.3 9-5.3s9 .5 9 5.3c0 .5-.1 1-.1 1.5 0 .4.1.9.1 1.4z" fill="#061c33"/><g transform="translate(37 12)"><path d="m9.3 5.8c-.4 0-.8-.2-1.2-.5-1.4-1.4-3.7-1.4-5.1 0-.6.6-1.7.7-2.3 0-.6-.6-.7-1.7 0-2.3 2.7-2.7 7.1-2.7 9.8 0 .6.6.6 1.7 0 2.3-.4.4-.8.5-1.2.5z" fill="#f8fcff"/><path d="m10.4 3c.6.6.6 1.7 0 2.3-.3.3-.7.5-1.2.5-.4 0-.8-.2-1.2-.5-1.4-1.4-3.7-1.4-5.1 0-.6.6-1.7.7-2.3 0-.6-.6-.7-1.7 0-2.3" fill="#e7e8cd"/></g><g transform="translate(14 12)"><path d="m1.7 5.8c.4 0 .8-.2 1.2-.5 1.4-1.4 3.7-1.4 5.1 0 .6.6 1.7.7 2.3 0 .6-.6.7-1.7 0-2.3-2.7-2.7-7.1-2.7-9.8 0-.6.6-.6 1.7 0 2.3.4.4.8.5 1.2.5z" fill="#f8fcff"/><path d="m.6 3c-.6.6-.6 1.7 0 2.3.3.3.7.5 1.2.5.4 0 .8-.2 1.2-.5 1.4-1.4 3.7-1.4 5.1 0 .6.6 1.7.7 2.3 0 .6-.6.7-1.7 0-2.3" fill="#e7e8cd"/></g><g transform="translate(5)"><path d="m1.5 20.3v-20.3l10.2 10.2z" fill="#02598e"/><path d="m.5 20.3 4.6-10.3-3.6-10 10.2 10.2z" fill="#061c33"/></g><g transform="translate(45)"><path d="m10.5 20.3v-20.3l-10.2 10.2z" fill="#02598e"/><path d="m11.5 20.3-4.6-10.3 3.6-10-10.2 10.2z" fill="#061c33"/></g><g fill="#02598e" transform="translate(20 7)"><path d="m9.5 8-9.3-5.8s2-1.9 4.1-1.4 5.2 7.2 5.2 7.2z"/><path d="m12.5 8 9.2-5.8s-2-1.9-4.1-1.4c-2 .5-5.1 7.2-5.1 7.2z"/></g><g fill="#02598e"><ellipse cx="18.9" cy="19.2" rx="5.8" ry="1.1"/><ellipse cx="43.1" cy="19.2" rx="5.8" ry="1.1"/></g><g fill="#f8fcff" transform="translate(12 39)"><path d="m24.9 7.9c0 3.9-2.6 5.1-5.9 5.1s-5.9-1.2-5.9-5.1 2.7-7.1 5.9-7.1 5.9 3.2 5.9 7.1z"/><g transform="translate(0 2)"><path d="m14.1 4.2-5-4-8.2 5.5 5.9-.7.6 2.3 2-2 1.7 2.4.5-2.2 2.5 1.8z"/><path d="m23.9 4.2 5-4 8.2 5.5-5.9-.7-.6 2.3-2-2-1.7 2.4-.5-2.2-2.5 1.8z"/></g></g></g></svg>