<svg height="60" viewBox="0 0 64 60" width="64" xmlns="http://www.w3.org/2000/svg"><g fill="none"><path d="m21 49.1c0 5-8 8.5-13 8.5s-4-3.2-4-8.2 3-9.3 8-9.3c4.9 0 9 4 9 9z" fill="#ea7103"/><g transform="translate(1)"><path d="m60.8 34.8c0 13-11.9 23.5-30.3 23.5s-30.3-10.5-30.3-23.5 11.9-32.5 30.3-32.5 30.3 19.5 30.3 32.5z" fill="#f7910b"/><path d="m60.8 34.8c0 13-11.9 19.5-30.3 19.5s-30.3-6.5-30.3-19.5 11.9-34.5 30.3-34.5 30.3 21.5 30.3 34.5z" fill="#f7910b"/><path d="m30.5.3c18.4 0 30.3 21.5 30.3 34.5s-11.9 19.5-30.3 19.5" fill="#f9a908"/><path d="m60.8 34.8c0 13-11.9 19.5-30.3 19.5s-30.3-6.5-30.3-19.5 11.9-32.5 30.3-32.5 30.3 19.5 30.3 32.5z" fill="#f9a908"/><path d="m.2 34.8c0-13 11.9-32.5 30.3-32.5" fill="#f9c55d"/><path d="m30.5 2.3c18.4 0 30.3 19.5 30.3 32.5s-11.9 23.5-30.3 23.5" fill="#f7910b"/><path d="m30.5 2.3c18.4 0 30.3 19.5 30.3 32.5" fill="#ea7103"/><g fill="#19bca4" transform="translate(29 10)"><path d="m6.8 1.5c0 .9-1.4.5-3.3.6-1.8.1-3.3.6-3.3-.3s1.4-1.6 3.2-1.7c1.9-.1 3.4.5 3.4 1.4z"/><path d="m19.4 1.5c0 .9 1.4.5 3.3.6 1.8.1 3.3.6 3.3-.3s-1.4-1.6-3.2-1.7-3.3.5-3.4 1.4z"/></g><g fill="#109da0" transform="translate(29 11)"><path d="m6.8.5c0 .9-1.4.5-3.3.6-1.8.1-3.3.6-3.3-.3"/><path d="m19.4.5c0 .9 1.4.5 3.3.6 1.8.1 3.3.6 3.3-.3"/></g><g transform="translate(18 27)"><path d="m15.8 3c0 1.2-3.5.7-7.8.7s-7.8.6-7.8-.7 3.5-2.2 7.8-2.2 7.8.9 7.8 2.2z" fill="#f9c55d"/><path d="m39.8 3c0 1.2-3.5.7-7.8.7s-7.8.6-7.8-.7 3.5-2.2 7.8-2.2 7.8.9 7.8 2.2z" fill="#f9a908"/></g><circle cx="8.8" cy="31.7" fill="#f7910b" r="1"/><circle cx="4.3" cy="33.7" fill="#f7910b" r="1.1"/><circle cx="7.3" cy="29.7" fill="#f7910b" r="1"/><circle cx="11.9" cy="31.6" fill="#f7910b" r="1"/><circle cx="51.1" cy="32.1" fill="#f9a908" r="1"/><circle cx="53.6" cy="33.5" fill="#f9a908" r="1"/><circle cx="48.3" cy="24.7" fill="#f9a908" r="1"/><circle cx="47.8" cy="36.3" fill="#f9a908" r="1.3"/><circle cx="55" cy="36.4" fill="#f9a908" r="1"/><circle cx="7.8" cy="35.8" fill="#f7910b" r="1"/><circle cx="8.6" cy="27.4" fill="#f7910b" r="1"/><g fill="#f9a908"><circle cx="3.3" cy="13.6" r="1.1"/><circle cx="6.5" cy="10.1" r="1"/><circle cx="57.7" cy="16" r="1"/><circle cx="56.9" cy="13.1" r="1"/><circle cx="59.5" cy="13.6" r="1"/><circle cx="4.5" cy="16.6" r="1"/></g></g><g transform="translate(3 34)"><path d="m7.8 23.6c0 1.2-1 2.1-2.1 2.1h-3.6c-1.2 0-2.1-1-2.1-2.1l2.7-10.6c0-1.2 1-2.1 2.1-2.1h3.6c1.2 0 2.1 1 2.1 2.1z" fill="#454949"/><path d="m29.4 8.8h-26.7v4.3l-2.7 10.5c0 1.2 1 2.1 2.1 2.1h3.6c1.2 0 2.1-1 2.1-2.1l1.5-5.7h7c1.2 0 1.5-1 1.5-2.1v-2.7h11.6zm-14 5.9c0 .9-.2 1.7-1.1 1.7h-4.6l.9-3.3h4.8z" fill="#454949"/><path d="m9.3 17.9h7c1.2 0 1.5-1 1.5-2.1v-2.7h11.6v-4.3h-26.7v4.3zm6.1-3.2c0 .9-.2 1.7-1.1 1.7h-4.6l.9-3.3h4.8z" fill="#252828"/><path d="m13.1 16h-1l-.7-2.6h1.7z" fill="#2aba9e"/><path d="m11.4 13.4h1.7v2.6" fill="#1a9992"/><path d="m31.5.7-.7 2.5h-26.9l-1.2 4.8h29.8v-4.7-.1-2.5z" fill="#2aba9e"/><g fill="#2aba9e" transform="translate(0 15)"><path d="m5.3 0h-3.1l-.2.9h3.3c.2 0 .4-.2.4-.4 0-.3-.2-.5-.4-.5z"/><path d="m4.9 2.2h-3.3l-.2.9h3.5c.2 0 .4-.2.4-.4s-.1-.5-.4-.5z"/><path d="m.8 5.3h3.4c.2 0 .4-.2.4-.4s-.2-.4-.4-.4h-3.1z"/></g><path d="m30.2 12.4c0 .4-.3.7-.7.7-.4 0-.7-.3-.7-.7v-2.9c0-.4.3-.7.7-.7.4 0 .7.3.7.7z" fill="#252828"/><path d="m3.5 5-.8 3h29.8v-3z" fill="#1a9992"/><g fill="#2aba9e"><path d="m32.5 7.5c0 .3-.2.5-.5.5-.3 0-.5-.2-.5-.5v-2.1c0-.3.2-.5.5-.5.3 0 .5.2.5.5z"/><circle cx="16.9" cy="10.8" r="1"/><circle cx="19.8" cy="10.8" r="1"/><path d="m23.4 10.8c0 .3-.3.6-.6.6s-.6-.3-.6-.6.3-.6.6-.6c.4 0 .6.3.6.6z"/></g><path d="m33.2 13.2c-1.3 0-2.4-1.1-2.4-2.4s1.1-2.4 2.4-2.4" fill="#ea1f0a"/><path d="m60 10.3h-25.7c-1.3 0-2.4.2-2.4.5s1.1.5 2.4.5h25.7z" fill="#ff5512"/></g><g fill="#00233f" transform="translate(0 17)"><g transform="translate(21)"><path d="m1.6 2.1c-.1.6-.2 1.1-.2 1.7 0 4.5 1.3 8.2 5.8 8.2h7.5c4.5 0 5.8-3.7 5.8-8.2 0-.6-.1-1.2-.2-1.7z"/><path d="m21.1 1.8c0 .7-.6 1.3-1.3 1.3h-17.6c-.7 0-1.3-.6-1.3-1.3 0-.7.6-1.3 1.3-1.3h17.6c.8 0 1.3.6 1.3 1.3z"/></g><path d="m32 1.4c0 .5-.4 1.9-.8 1.9h-29.9c-.5 0-.8-1.5-.8-1.9 0-.5.4-.8.8-.8h29.8c.5-.1.9.3.9.8z"/><g transform="translate(47)"><path d="m13.5 2.1c.1.6.1 1.1.1 1.7 0 4.5-.9 8.2-3.9 8.2h-5.1c-3.1 0-3.9-3.7-3.9-8.2 0-.6 0-1.2.1-1.7z"/><path d="m.4 1.8c0 .7.4 1.3.9 1.3h11.9c.5 0 .9-.6.9-1.3 0-.7-.4-1.3-.9-1.3h-12c-.5 0-.8.6-.8 1.3z"/><path d="m7.2 1.4c0 .5.2 1.9.6 1.9h8.2c.3 0 .6-1.5.6-1.9 0-.5-.2-.8-.6-.8h-8.2c-.3-.1-.6.3-.6.8z"/></g><path d="m54.1 1.6c0 .6-.5 1.1-1.1 1.1h-16.6c-.6 0-1.1-.5-1.1-1.1 0-.6.5-1.1 1.1-1.1h16.7c.6 0 1 .5 1 1.1z"/></g><path d="m46.6 34.5h-3c-.6 0-1.1-.5-1.1-1.1s.5-1.1 1.1-1.1h3c.6 0 1.1.5 1.1 1.1s-.5 1.1-1.1 1.1z" fill="#02243e"/></g></svg>