<svg height="62" viewBox="0 0 62 62" width="62" xmlns="http://www.w3.org/2000/svg"><g fill="none"><g transform="translate(0 2)"><path d="m61.3 34.7c0 13-11.9 23.5-30.3 23.5s-30.3-10.5-30.3-23.5 11.9-32.5 30.3-32.5 30.3 19.5 30.3 32.5z" fill="#f7910b"/><path d="m61.3 34.7c0 13-11.9 19.5-30.3 19.5s-30.3-6.5-30.3-19.5 11.9-34.5 30.3-34.5 30.3 21.5 30.3 34.5z" fill="#f7910b"/><path d="m31 .2c18.4 0 30.3 21.5 30.3 34.5s-11.9 19.5-30.3 19.5" fill="#f9a908"/><path d="m61.3 34.7c0 13-11.9 19.5-30.3 19.5s-30.3-6.5-30.3-19.5 11.9-32.5 30.3-32.5 30.3 19.5 30.3 32.5z" fill="#f9a908"/><path d="m.7 34.7c0-13 11.9-32.5 30.3-32.5" fill="#f9c55d"/><path d="m31 2.2c18.4 0 30.3 19.5 30.3 32.5s-11.9 23.5-30.3 23.5" fill="#f7910b"/><path d="m37 31.2c0 2.3-2.8 4.2-6.2 4.2s-6.2-1.9-6.2-4.2 2.8-4.2 6.2-4.2 6.2 1.9 6.2 4.2z" fill="#00233f"/><path d="m31 2.2c18.4 0 30.3 19.5 30.3 32.5" fill="#ea7103"/><ellipse cx="9.3" cy="31.6" fill="#f7910b" rx="1" ry="1"/><ellipse cx="4.8" cy="33.6" fill="#f7910b" rx="1.1" ry="1.1"/><circle cx="7.8" cy="29.6" fill="#f7910b" r="1"/><circle cx="12.4" cy="31.5" fill="#f7910b" r="1"/><circle cx="51.6" cy="32" fill="#f9a908" r="1"/><circle cx="54.1" cy="33.4" fill="#f9a908" r="1"/><circle cx="48.8" cy="24.6" fill="#f9a908" r="1"/><ellipse cx="48.3" cy="36.2" fill="#f9a908" rx="1.3" ry="1.3"/><circle cx="55.5" cy="36.3" fill="#f9a908" r="1"/><circle cx="8.3" cy="35.7" fill="#f7910b" r="1"/><circle cx="9.1" cy="27.3" fill="#f7910b" r="1"/><g fill="#f9a908"><ellipse cx="3.8" cy="13.5" rx="1.1" ry="1.1"/><ellipse cx="7" cy="10" rx="1" ry="1"/><circle cx="58.2" cy="15.9" r="1"/><ellipse cx="57.4" cy="13" rx="1" ry="1"/><path d="m60.5 13.5c0 .3-.2.5-.5.5s-.5-.2-.5-.5.2-.5.5-.5c.2 0 .5.2.5.5z"/><ellipse cx="5" cy="16.5" rx="1" ry="1"/></g><path d="m38.4 32.2c0 2.6-3.3 7.2-7.4 7.2s-7.4-4.6-7.4-7.2" fill="#f7910b"/><g transform="translate(15 11)"><ellipse cx="4.6" cy="7.5" fill="#d87703" rx="3.5" ry="3.5"/><path d="m30.9 7.5c0 1.9-1.6 3.5-3.5 3.5s-3.5-1.6-3.5-3.5 1.6-3.5 3.5-3.5c2 0 3.5 1.6 3.5 3.5z" fill="#d87703"/><ellipse cx="4.6" cy="6.5" fill="#1e4784" rx="3.5" ry="3.5"/><path d="m4.6 3c1.9 0 3.5 1.6 3.5 3.5s-1.6 3.5-3.5 3.5" fill="#00233f"/><path d="m30.9 6.5c0 1.9-1.6 3.5-3.5 3.5s-3.5-1.6-3.5-3.5 1.6-3.5 3.5-3.5c2 0 3.5 1.6 3.5 3.5z" fill="#1e4784"/><path d="m27.4 3c1.9 0 3.5 1.6 3.5 3.5s-1.5 3.5-3.5 3.5" fill="#00233f"/><path d="m.5 5.8c0-2.3 1.8-5.1 4.1-5.1s4.1 2.8 4.1 5.1" fill="#f9a908"/><path d="m23.3 5.8c0-2.3 1.8-5.1 4.1-5.1 2.2 0 4.1 2.8 4.1 5.1" fill="#f7910b"/></g><g transform="translate(11 21)"><path d="m15.8 2.3c0 1.2-3.5.7-7.8.7s-7.8.6-7.8-.7 3.5-2.2 7.8-2.2 7.8 1 7.8 2.2z" fill="#f9c55d"/><path d="m39.8 2.3c0 1.2-3.5.7-7.8.7s-7.8.6-7.8-.7 3.5-2.2 7.8-2.2 7.8 1 7.8 2.2z" fill="#f9a908"/></g><g fill="#19bca4" transform="translate(15 11)"><path d="m10.2 2.7c0 1.1-2.3.5-5.1.4s-5.1.4-5.1-.7 2.3-2 5.1-1.9c2.9.1 5.2 1.1 5.1 2.2z"/><path d="m21.8 2.7c0 1.1 2.3.5 5.1.4s5.1.4 5.1-.7-2.3-2-5.1-1.9c-2.9.1-5.2 1.1-5.1 2.2z"/></g></g><g transform="translate(4)"><path d="m53.9 27.4c0-14.9-12-27-26.9-27s-26.9 12.1-26.9 27c0 9.7 5.1 18.1 12.7 22.9v8.3c0 1.7 1.6 3.1 3.6 3.1h21.2c2 0 3.6-1.4 3.6-3.1v-8.3c7.7-4.8 12.7-13.3 12.7-22.9z" fill="#fff"/><path d="m53.9 27.4c0-14.9-12-24.8-26.9-24.8s-26.9 9.9-26.9 24.7c0 9.7 5.1 18.1 12.7 22.9v8.3c0 1.7 1.6 3.1 3.6 3.1h21.2c2 0 3.6-1.4 3.6-3.1v-8.3c7.7-4.7 12.7-13.2 12.7-22.8z" fill="#e2f2ef"/><path d="m26.9 61.6h10.7c2 0 3.6-1.4 3.6-3.1v-8.3c7.6-4.8 12.7-13.2 12.7-22.9 0-14.8-12-24.8-26.9-24.8" fill="#c7e2dd"/><g fill="#617f79"><path d="m20.9 60.4v-11.7c0-.6-.4-1-1-1s-1 .4-1 1v11.6h2z"/><path d="m28 60.4v-11.7c0-.6-.4-1-1-1s-1 .4-1 1v11.6h2z"/><path d="m35.1 60.4v-11.7c0-.6-.4-1-1-1s-1 .4-1 1v11.6h2z"/></g><g transform="translate(4 20)"><path d="m15.9 9.2c0 4.1-3.3 10.5-7.5 10.5-4.1 0-7.5-6.3-7.5-10.5s3.3-8.5 7.5-8.5 7.5 4.4 7.5 8.5z" fill="#9cbcb6"/><path d="m45 9.2c0 4.1-3.3 10.5-7.5 10.5-4.1 0-7.5-6.3-7.5-10.5s3.3-8.5 7.5-8.5 7.5 4.4 7.5 8.5z" fill="#7fa39c"/><path d="m15.9 10.5c0 4.1-3.3 7.5-7.5 7.5-4.1 0-7.5-3.3-7.5-7.5s3.3-7.5 7.5-7.5 7.5 3.3 7.5 7.5z" fill="#f7910b"/><path d="m13.7 5.2c2.9 2.9 2.9 7.6 0 10.6-2.9 2.9-7.6 2.9-10.5 0" fill="#f9a908"/><ellipse cx="37.5" cy="10.5" fill="#f7910b" rx="7.5" ry="7.5"/><path d="m42.8 5.2c2.9 2.9 2.9 7.6 0 10.6-2.9 2.9-7.6 2.9-10.6 0" fill="#f9a908"/></g><path d="m6.5 39.5c-1.1 0-2.2.3-3.1.8 2.2 4 5.4 7.4 9.3 9.9v-4.4c.1-3.5-2.7-6.3-6.2-6.3z" fill="#8fa8a3"/><path d="m12.8 50.2v-4.4c0-3.5-2.8-6.2-6.2-6.2" fill="#617f79"/><path d="m50.6 40.3c-.9-.5-2-.8-3.1-.8-3.5 0-6.2 2.8-6.2 6.2v4.4c3.8-2.3 7.1-5.7 9.3-9.8z" fill="#8fa8a3"/><path d="m47.5 39.5c-3.5 0-6.2 2.8-6.2 6.2v4.4" fill="#617f79"/><path d="m4.1 38.9c0 1.1-.9 2-2 2-1.1 0-2-.9-2-2v-11.2c0-1.1.9-2 2-2 1.1 0 2 .9 2 2z" fill="#e2f2ef"/><path d="m53.9 38.9c0 1.1-.9 2-2 2-1.1 0-2-.9-2-2v-11.2c0-1.1.9-2 2-2 1.1 0 2 .9 2 2z" fill="#c7e2dd"/><g transform="translate(22 30)"><path d="m7.6 11.4c-1.1 0-2-.6-2.3-1.5 0-.1-.1-.1-.2-.1s-.2 0-.2.1c-.3.9-1.3 1.5-2.3 1.5-1.4 0-2.5-1-2.5-2.2 0-.4.1-.9.4-1.2l4.6-7.9 4.6 7.9c.3.4.4.8.4 1.2-.1 1.2-1.2 2.2-2.5 2.2z" fill="#9cbcb6"/><path d="m7.6 11.8c-1.1 0-2-.6-2.3-1.5 0-.1-.1-.1-.2-.1s-.2 0-.2.1c-.3.9-1.3 1.5-2.3 1.5-1.4 0-2.5-1-2.5-2.2 0-.4.1-.9.4-1.2l4.6-5.4 4.6 5.4c.3.4.4.8.4 1.2-.1 1.2-1.2 2.2-2.5 2.2z" fill="#f9a908"/><path d="m5 10.2c-.1 0-.2 0-.2.1-.3.9-1.3 1.5-2.3 1.5-1.4 0-2.5-1-2.5-2.2 0-.4.1-.9.4-1.2l4.6-5.4" fill="#ea7103"/></g><path d="m27.6 31.2c0 .3-.3.6-.6.6-.3 0-.6-.3-.6-.6v-6.6c0-.3.3-.6.6-.6.3 0 .6.3.6.6z" fill="#9cbcb6"/><path d="m2.3 37.3c0 .4-.3.7-.7.7-.4 0-.7-.3-.7-.7v-8.1c0-.4.3-.7.7-.7.4 0 .7.3.7.7z" fill="#fff"/><ellipse cx="1.7" cy="26.4" fill="#fff" rx="1" ry="1"/><g transform="translate(25 7)"><circle cx="2" cy="1.2" fill="#9cbcb6" r="1.2"/><path d="m2 0c.6 0 1.2.5 1.2 1.2 0 .6-.5 1.2-1.2 1.2" fill="#e2f2ef"/></g><g transform="translate(25 12)"><circle cx="2" cy="1.7" fill="#9cbcb6" r="1.2"/><path d="m2 .6c.6 0 1.2.5 1.2 1.2 0 .6-.5 1.2-1.2 1.2" fill="#e2f2ef"/></g><g transform="translate(25 18)"><circle cx="2" cy="1.3" fill="#9cbcb6" r="1.2"/><path d="m2 .1c.6 0 1.2.5 1.2 1.2 0 .6-.5 1.2-1.2 1.2" fill="#e2f2ef"/></g><g transform="translate(18 48)"><path d="m2.9 13.5v-11.6c0-.6-.4-1-1-1s-1 .4-1 1v11.6z" fill="#8fa8a3"/><path d="m2.9 13.5v-11.6c0-.6-.4-1-1-1s-1 .4-1 1" fill="#76938d"/></g><g transform="translate(26 48)"><path d="m2 13.5v-11.6c0-.6-.4-1-1-1s-1 .4-1 1v11.6z" fill="#8fa8a3"/><path d="m2 13.5v-11.6c0-.6-.4-1-1-1s-1 .4-1 1" fill="#76938d"/></g><g transform="translate(33 48)"><path d="m2.1 13.5v-11.6c0-.6-.4-1-1-1s-1 .4-1 1v11.6z" fill="#8fa8a3"/><path d="m2.1 13.5v-11.6c0-.6-.4-1-1-1s-1 .4-1 1" fill="#76938d"/></g></g><g transform="translate(15 24)"><ellipse cx="4.6" cy="7.2" fill="#d87703" rx="3.5" ry="3.5"/><path d="m30.9 7.2c0 1.9-1.6 3.5-3.5 3.5s-3.5-1.6-3.5-3.5 1.6-3.5 3.5-3.5c2 0 3.5 1.6 3.5 3.5z" fill="#d87703"/><ellipse cx="4.6" cy="6.2" fill="#1e4784" rx="3.5" ry="3.5"/><path d="m4.6 2.7c1.9 0 3.5 1.6 3.5 3.5s-1.6 3.5-3.5 3.5" fill="#00233f"/><path d="m30.9 6.2c0 1.9-1.6 3.5-3.5 3.5s-3.5-1.6-3.5-3.5 1.6-3.5 3.5-3.5c2 0 3.5 1.6 3.5 3.5z" fill="#1e4784"/><path d="m27.4 2.7c1.9 0 3.5 1.6 3.5 3.5s-1.6 3.5-3.5 3.5" fill="#00233f"/><path d="m.5 5.5c0-2.3 1.8-5.1 4.1-5.1s4.1 2.8 4.1 5.1" fill="#f9a908"/><path d="m23.3 5.5c0-2.3 1.8-5.1 4.1-5.1 2.2 0 4.1 2.8 4.1 5.1" fill="#f7910b"/></g><g fill="#19bca4" transform="translate(15 16)"><path d="m10.2 2.3c0 1.1-2.3.5-5.1.4s-5.1.4-5.1-.7 2.3-2 5.1-1.9c2.9.1 5.2 1.1 5.1 2.2z"/><path d="m21.8 2.3c0 1.1 2.3.5 5.1.4s5.1.4 5.1-.7-2.3-2-5.1-1.9c-2.9.1-5.2 1.1-5.1 2.2z"/></g></g></svg>