<svg height="58" viewBox="0 0 62 58" width="62" xmlns="http://www.w3.org/2000/svg"><g fill="none" transform="translate(-1)"><ellipse cx="11.30328" cy="49.289" fill="#ea7103" rx="8.800113" ry="8.500109" transform="matrix(.96178765 -.27379648 .27379648 .96178765 -13.06323 4.978247)"/><g transform="translate(1)"><path d="m61.3 34.5c0 13-11.9 23.5-30.3 23.5s-30.3-10.5-30.3-23.5 11.9-32.5 30.3-32.5 30.3 19.5 30.3 32.5z" fill="#f7910b"/><path d="m61.3 34.5c0 13-11.9 19.5-30.3 19.5s-30.3-6.5-30.3-19.5 11.9-34.5 30.3-34.5 30.3 21.5 30.3 34.5z" fill="#f7910b"/><path d="m31 0c18.4 0 30.3 21.5 30.3 34.5s-11.9 19.5-30.3 19.5" fill="#f9a908"/><path d="m61.3 34.5c0 13-11.9 19.5-30.3 19.5s-30.3-6.5-30.3-19.5 11.9-32.5 30.3-32.5 30.3 19.5 30.3 32.5z" fill="#f9a908"/><path d="m.7 34.5c0-13 11.9-32.5 30.3-32.5" fill="#f9c55d"/><path d="m31 2c18.4 0 30.3 19.5 30.3 32.5s-11.9 23.5-30.3 23.5" fill="#f7910b"/><path d="m31 2c18.4 0 30.3 19.5 30.3 32.5" fill="#ea7103"/><g transform="translate(18 8)"><path d="m10.8.7c-1.8.1-3.2.8-3.2 1.7l6.5-.3c0-.8-1.5-1.5-3.3-1.4z" fill="#19bca4"/><path d="m30.1 9.7c-1.8-.1-3.3.6-3.3 1.4l6.5.3c0-.9-1.4-1.6-3.2-1.7z" fill="#19bca4"/><path d="m10.8 2.7c1.8-.1 3.3.3 3.3-.6l-6.5.3c0 .9 1.4.4 3.2.3z" fill="#109da0"/><path d="m30 11.7c1.8.1 3.3.6 3.3-.3l-6.5-.3c-.1.9 1.4.5 3.2.6z" fill="#109da0"/><path d="m8.4 27.3c-4.3 0-7.8 1-7.8 2.2s3.5.7 7.8.7 7.8.6 7.8-.7c0-1.2-3.4-2.2-7.8-2.2z" fill="#f9c55d"/><path d="m32.4 27.3c-4.3 0-7.8 1-7.8 2.2s3.5.7 7.8.7 7.8.6 7.8-.7c0-1.2-3.5-2.2-7.8-2.2z" fill="#f9a908"/></g><g transform="translate(23 30)"><path d="m2.6.6c.4.1.8.3 1.1.6 1.2 1.6 3.5 1.9 5.1.6.7-.6 1.8-.4 2.3.3.6.7.4 1.8-.3 2.3-3 2.3-7.4 1.8-9.7-1.2-.6-.7-.4-1.8.3-2.3.3-.2.8-.3 1.2-.3z" fill="#1e4784"/><path d="m1.1 3.3c-.6-.7-.4-1.8.3-2.3.4-.3.8-.4 1.2-.3s.8.3 1.1.6c1.2 1.6 3.5 1.9 5.1.6.7-.6 1.8-.4 2.3.3.6.7.4 1.8-.3 2.3" fill="#02243e"/></g><g transform="translate(42 30)"><path d="m9.2.6c-.4.1-.8.3-1.1.6-1.2 1.6-3.5 1.9-5.1.6-.7-.6-1.8-.4-2.3.3-.6.7-.4 1.8.3 2.3 3 2.3 7.4 1.8 9.7-1.2.6-.7.4-1.8-.3-2.3-.3-.2-.7-.3-1.2-.3z" fill="#1e4784"/><path d="m10.8 3.3c.6-.7.4-1.8-.3-2.3-.4-.3-.8-.4-1.2-.3s-.8.3-1.1.6c-1.2 1.6-3.5 1.9-5.1.6-.7-.6-1.8-.4-2.3.3-.6.7-.4 1.8.3 2.3" fill="#02243e"/></g><g transform="translate(29 39)"><path d="m1.2 5.6c0-2.6 3.3-4.7 7.4-4.7s7.4 2.1 7.4 4.7" fill="#ed7e11"/><path d="m15.6 8.4c-.3 0-.6-.1-.8-.3-1-1-3.5-1.6-6.3-1.6s-5.4.6-6.3 1.6c-.4.4-1.1.4-1.6 0-.4-.4-.4-1.1 0-1.6 1.4-1.4 4.4-2.2 7.9-2.2s6.5.8 7.9 2.2c.4.4.4 1.1 0 1.6-.3.2-.6.3-.8.3z" fill="#02243e"/></g><circle cx="9.3" cy="31.5" fill="#f7910b" r="1"/><ellipse cx="4.8" cy="33.5" fill="#f7910b" rx="1.1" ry="1.1"/><ellipse cx="7.8" cy="29.5" fill="#f7910b" rx="1" ry="1"/><ellipse cx="12.4" cy="31.3" fill="#f7910b" rx="1" ry="1"/><circle cx="57.6" cy="34.4" fill="#f9a908" r="1"/><circle cx="54.1" cy="33.2" fill="#f9a908" r="1"/><circle cx="58.2" cy="40.2" fill="#f9a908" r="1"/><circle cx="54.4" cy="44" fill="#f9a908" r="1.3"/><circle cx="55.5" cy="36.1" fill="#f9a908" r="1"/><ellipse cx="8.3" cy="35.5" fill="#f7910b" rx="1" ry="1"/><circle cx="9.1" cy="27.1" fill="#f7910b" r="1"/><g fill="#f9a908"><ellipse cx="3.8" cy="13.3" rx="1.1" ry="1.1"/><ellipse cx="7" cy="9.8" rx="1" ry="1"/><ellipse cx="58.2" cy="15.7" rx="1" ry="1"/><ellipse cx="57.4" cy="12.8" rx="1" ry="1"/><circle cx="60" cy="13.3" r="1"/><ellipse cx="5" cy="16.3" rx="1" ry="1"/></g></g><g transform="translate(1 23)"><path d="m17.8 12c-.4 8-2.2 5.9-4.5 5.8s-4.3 1.8-3.9-6.2c.4-8 2.4-11.1 4.7-11 2.4.1 4.1 3.4 3.7 11.4z" fill="#ccf2e3"/><path d="m14.2.6c2.3.1 4 3.4 3.6 11.4s-2.2 5.9-4.5 5.8" fill="#aad6c3"/><path d="m9.2 16.5c-.4 8-2.2 5.9-4.5 5.8s-4.4 3-4-5.1c.4-8 2.6-12.2 4.9-12.1s4 3.4 3.6 11.4z" fill="#ccf2e3"/><path d="m5.6 5.1c2.3.1 4 3.4 3.6 11.4s-2.2 5.9-4.5 5.8" fill="#aad6c3"/><path d="m25.9 15.7c-.4 8-2.2 5.9-4.5 5.8s-4.3 1.8-3.9-6.2 2.4-11.1 4.7-11c2.4.1 4.1 3.4 3.7 11.4z" fill="#ccf2e3"/><path d="m22.3 4.3c2.3.1 4 3.4 3.6 11.4s-2.2 5.9-4.5 5.8" fill="#aad6c3"/><path d="m25.7 21.1c-.4 7.4-4.6 13.5-12.1 13.1s-13.3-6.8-12.9-14.2 6.6-9.8 14.1-9.5c7.5.4 11.2 3.1 10.9 10.6z" fill="#ccf2e3"/><path d="m25.7 21.1c-.4 7.4-4.6 13.5-12.1 13.1s-9.5-7.1-9.1-14.5-1.9-9 9.9-9.1c7.5-.1 11.6 2.8 11.3 10.5z" fill="#aad6c3"/><path d="m30.5 20.1c1.6 2.2-1.5 7.2-6.9 11-5.4 3.9-10.9 3.4-12.5 1.2s1.4-5.3 6.8-9.2c5.3-3.8 11-5.2 12.6-3z" fill="#ccf2e3"/><path d="m30.5 20.1c1.6 2.2-1.5 7.2-6.9 11-5.4 3.9-10.9 3.4-12.5 1.2" fill="#aad6c3"/><path d="m21.5 15.5c.1.3-.1.5-.4.6l-13.3 2.9c-.3.1-.5-.1-.6-.4-.1-.3.1-.5.4-.6l13.3-3c.3 0 .6.2.6.5z" fill="#ccf2e3"/><path d="m21.1 18.4c.1.3-.1.5-.4.6l-13.3 3c-.2 0-.4-.2-.5-.5-.1-.2.1-.5.4-.5l13.3-3c.2-.1.5.1.5.4z" fill="#ccf2e3"/><g fill="#e7f7ef"><ellipse cx="12.28911" cy="3.33239" rx="1" ry="2.100107" transform="matrix(-.8849551 -.46567636 .46567636 -.8849551 21.612605 12.004154)"/><path d="m3 8c-.5 1-.7 1.9-.4 2.1s1-.5 1.5-1.5.7-1.9.4-2.1-.9.5-1.5 1.5z"/><ellipse cx="20.6242" cy="7.2328" rx="1" ry="2.09995" transform="matrix(-.88462086 -.46631099 .46631099 -.88462086 35.496063 23.248377)"/><path d="m3.5 18.2c-.1 2.4-.6 4.4-1.1 4.4s-.9-2-.8-4.4.5-3 1.1-3c.5 0 .9.6.8 3z"/><path d="m23.2 21c1.8-.9 3.5-1.3 3.8-.8s-1 1.7-2.9 2.6c-1.8.9-2.5.8-2.7.3-.2-.6 0-1.2 1.8-2.1z"/></g></g></g></svg>