<svg height="54" viewBox="0 0 62 54" width="62" xmlns="http://www.w3.org/2000/svg"><g fill="none"><path d="m48.9 9.5c0 5.2-4.3 9.5-9.5 9.5h-16.8c-5.2 0-9.5-4.3-9.5-9.5 0-5.2 4.3-9.5 9.5-9.5h16.9c5.2 0 9.4 4.2 9.4 9.5z" fill="#c42260"/><path d="m22.6 0h16.9c5.2 0 9.5 4.3 9.5 9.5 0 5.2-4.3 9.5-9.5 9.5" fill="#99144a"/><path d="m57.7 17.8c0 6.7-11.9 14.7-26.7 14.7s-26.7-8-26.7-14.7 11.9-12.1 26.7-12.1 26.7 5.5 26.7 12.1z" fill="#02243e"/><g transform="translate(4 1)"><path d="m53.9 30.7c0 11.5-10.6 20.8-26.9 20.8s-26.9-9.3-26.9-20.8 10.6-28.8 26.9-28.8 26.9 17.3 26.9 28.8z" fill="#f7910b"/><path d="m53.9 30.7c0 11.5-10.6 17.3-26.9 17.3s-26.9-5.8-26.9-17.3 10.6-30.6 26.9-30.6 26.9 19.1 26.9 30.6z" fill="#f7910b"/><path d="m27 .1c16.3 0 26.9 19.1 26.9 30.5 0 11.5-10.6 17.3-26.9 17.3" fill="#f9a908"/><path d="m53.9 30.7c0 11.5-10.6 17.3-26.9 17.3s-26.9-5.8-26.9-17.3 10.6-28.8 26.9-28.8 26.9 17.3 26.9 28.8z" fill="#f9a908"/><path d="m.1 30.7c0-11.5 10.6-28.8 26.9-28.8" fill="#f9c55d"/><path d="m27 1.9c16.3 0 26.9 17.3 26.9 28.8s-10.6 20.8-26.9 20.8" fill="#f7910b"/><path d="m27 1.9c16.3 0 26.9 17.3 26.9 28.8" fill="#ea7103"/><g transform="translate(9 26)"><path d="m14.3 2.8c0 1.1-3.1.6-6.9.6s-6.9.5-6.9-.6 3.1-2 6.9-2 6.9.9 6.9 2z" fill="#f9c55d"/><path d="m35.5 2.8c0 1.1-3.1.6-6.9.6s-6.9.5-6.9-.6 3.1-2 6.9-2 6.9.9 6.9 2z" fill="#f9a908"/></g><circle cx="7.8" cy="28" fill="#f7910b" r="1"/><circle cx="3.8" cy="29.8" fill="#f7910b" r="1"/><circle cx="6.5" cy="26.2" fill="#f7910b" r="1"/><circle cx="10.5" cy="27.8" fill="#f7910b" r="1"/><path d="m45.9 28.3c0 .4-.3.7-.7.7s-.7-.3-.7-.7.3-.7.7-.7c.4.1.7.4.7.7z" fill="#f9a908"/><circle cx="47.4" cy="29.5" fill="#f9a908" r="1"/><circle cx="42.7" cy="21.7" fill="#f9a908" r="1"/><circle cx="42.3" cy="32" fill="#f9a908" r="1.2"/><path d="m49.2 32.1c0 .3-.2.6-.6.6-.3 0-.6-.2-.6-.6s.2-.6.6-.6.6.3.6.6z" fill="#f9a908"/><circle cx="6.9" cy="31.6" fill="#f7910b" r="1"/><path d="m8 24.1c0 .2-.2.4-.4.4s-.4-.2-.4-.4.2-.4.4-.4.4.2.4.4z" fill="#f7910b"/><g fill="#f9a908"><path d="m3.9 11.9c0 .5-.4 1-1 1-.5 0-1-.4-1-1 0-.5.4-1 1-1s1 .5 1 1z"/><circle cx="5.8" cy="8.8" r="1"/><circle cx="51.1" cy="14" r="1"/><circle cx="50.4" cy="11.4" r="1"/><path d="m53.1 11.9c0 .2-.2.4-.4.4s-.4-.2-.4-.4.2-.4.4-.4.4.2.4.4z"/><circle cx="4" cy="14.5" r="1"/></g><g transform="translate(32 23)"><path d="m8.5 4.6c-.4 0-.7-.1-1-.4-1.3-1.2-3.3-1.2-4.5 0-.6.6-1.5.6-2.1 0s-.6-1.5 0-2.1c2.4-2.4 6.3-2.4 8.6 0 .6.6.6 1.5 0 2.1-.2.3-.6.4-1 .4z" fill="#1e4784"/><path d="m9.5 2.1c.6.6.6 1.5 0 2.1-.3.3-.7.4-1 .4-.4 0-.7-.1-1-.4-1.3-1.2-3.3-1.2-4.5 0-.6.6-1.5.6-2.1 0s-.6-1.5 0-2.1" fill="#02243e"/></g><g transform="translate(12 23)"><path d="m1.5 4.6c.4 0 .7-.1 1-.4 1.2-1.2 3.3-1.2 4.5 0 .6.6 1.5.6 2.1 0s.6-1.5 0-2.1c-2.4-2.4-6.3-2.4-8.6 0-.6.6-.6 1.5 0 2.1.2.3.6.4 1 .4z" fill="#1e4784"/><path d="m.5 2.1c-.6.6-.6 1.5 0 2.1.3.3.7.4 1 .4.4 0 .7-.1 1-.4 1.2-1.2 3.3-1.2 4.5 0 .6.6 1.5.6 2.1 0s.6-1.5 0-2.1" fill="#02243e"/></g><path d="m34.3 38.1c0 2.5-3.3 6-7.3 6s-7.3-3.5-7.3-6" fill="#f7910b"/></g><g transform="translate(0 15)"><path d="m12.1 11.8c0 6.2-.7 11.2-3.7 11.2s-8.4-5-8.4-11.2 5.4-11.2 8.4-11.2 3.7 5 3.7 11.2z" fill="#073551"/><path d="m12.1 11.8c0 6.2-.7 11.2-3.7 11.2s-8.4-5-8.4-11.2" fill="#02243e"/><path d="m0 11.8c0 5 3.6 9.3 6.6 10.7.4-3.2.7-6.9.7-10.7s-.2-7.5-.7-10.7c-3 1.4-6.6 5.7-6.6 10.7z" fill="#1e4784"/><path d="m0 11.8c0 5 3.6 9.3 6.6 10.7.4-3.2.7-6.9.7-10.7" fill="#0f3a6d"/><path d="m0 11.8c0 3.8 2.1 7.2 4.3 9.2.6-2.3 1.1-5.6 1.1-9.2s-.4-6.9-1.1-9.2c-2.2 2-4.3 5.4-4.3 9.2z" fill="#c42260"/><path d="m0 11.8c0 3.8 2.1 7.2 4.3 9.2.6-2.3 1.1-5.6 1.1-9.2" fill="#99144a"/><g fill="#c42260"><circle cx="9" cy="7.7" r="1"/><circle cx="9" cy="11.8" r="1"/><circle cx="9" cy="16" r="1"/></g></g><g transform="translate(49 15)"><path d="m.9 11.8c0 6.2.7 11.2 3.7 11.2s8.4-5 8.4-11.2-5.4-11.2-8.4-11.2-3.7 5-3.7 11.2z" fill="#073551"/><path d="m.9 11.8c0 6.2.7 11.2 3.7 11.2s8.4-5 8.4-11.2" fill="#02243e"/><path d="m13 11.8c0 5-3.6 9.3-6.6 10.7-.4-3.2-.7-6.9-.7-10.7s.2-7.5.7-10.7c3 1.4 6.6 5.7 6.6 10.7z" fill="#1e4784"/><path d="m13 11.8c0 5-3.6 9.3-6.6 10.7-.4-3.2-.7-6.9-.7-10.7" fill="#0f3a6d"/><path d="m13 11.8c0 3.8-2.1 7.2-4.3 9.2-.7-2.3-1.1-5.6-1.1-9.2s.4-6.9 1.1-9.2c2.2 2 4.3 5.4 4.3 9.2z" fill="#c42260"/><path d="m13 11.8c0 3.8-2.1 7.2-4.3 9.2-.7-2.3-1.1-5.6-1.1-9.2" fill="#99144a"/><g fill="#c42260"><circle cx="4" cy="7.7" r="1"/><circle cx="4" cy="11.8" r="1"/><circle cx="4" cy="16" r="1"/></g></g><g transform="translate(37 40)"><path d="m9.5 2.1-5.3 1.1v-1.4l5.3-1.2z" fill="#6965a8"/><path d="m4.2 2.1v9.2h1.3v-9.4z" fill="#4c4c8c"/><path d="m2.7 14-1.8-1.9 3.4-3.4 1.2 2.6z" fill="#6965a8"/></g><g transform="translate(46 36)"><path d="m9.2 1.7-5.4 1.1v-1.4l5.4-1.2z" fill="#6965a8"/><path d="m3.9 1.8v9.1h1.3v-9.4z" fill="#4c4c8c"/><path d="m2.4 13.6-1.9-1.9 3.5-3.4 1.2 2.6z" fill="#6965a8"/></g><g transform="translate(35 39)"><path d="m4.8 1.2-2.8.5v-.7l2.8-.6z" fill="#6965a8"/><path d="m2.1 1.2v4.7h.6v-4.9z" fill="#4c4c8c"/><path d="m1.3 7.3-1-1 1.8-1.7.6 1.3z" fill="#6965a8"/></g><g fill="#037a66" transform="translate(19 10)"><path d="m6.3 1.1c.2.8-1.2.8-2.9 1.3s-2.9 1.3-3.2.5c-.2-.8.9-1.9 2.6-2.4s3.3-.3 3.5.6z"/><path d="m17.7 1.1c-.2.8 1.2.8 2.9 1.3s2.9 1.3 3.2.5c.2-.8-.9-1.9-2.6-2.4s-3.3-.3-3.5.6z"/></g><path d="m33.4 37.6c0 2-1.1 2.6-2.4 2.6s-2.4-.6-2.4-2.6c0-1.9 1.1-3.5 2.4-3.5s2.4 1.6 2.4 3.5z" fill="#99144a"/></g></svg>