<svg height="61" viewBox="0 0 62 61" width="62" xmlns="http://www.w3.org/2000/svg"><g fill="none"><g transform="translate(0 2)"><path d="m61.3 34.8c0 13-11.9 23.5-30.3 23.5s-30.3-10.5-30.3-23.5 11.9-32.5 30.3-32.5 30.3 19.6 30.3 32.5z" fill="#f7910b"/><path d="m61.3 34.8c0 13-11.9 19.5-30.3 19.5s-30.3-6.5-30.3-19.5 11.9-34.5 30.3-34.5 30.3 21.6 30.3 34.5z" fill="#f7910b"/><path d="m31 .3c18.4 0 30.3 21.5 30.3 34.5s-11.9 19.5-30.3 19.5" fill="#f9a908"/><path d="m61.3 34.8c0 13-11.9 19.5-30.3 19.5s-30.3-6.5-30.3-19.5 11.9-32.5 30.3-32.5 30.3 19.6 30.3 32.5z" fill="#f9a908"/><path d="m.7 34.8c0-13 11.9-32.5 30.3-32.5" fill="#f9c55d"/><path d="m31 2.3c18.4 0 30.3 19.5 30.3 32.5s-11.9 23.5-30.3 23.5" fill="#f7910b"/><path d="m31 2.3c18.4 0 30.3 19.5 30.3 32.5" fill="#ea7103"/><ellipse cx="9.3" cy="31.8" fill="#f7910b" rx="1" ry="1"/><ellipse cx="4.8" cy="33.8" fill="#f7910b" rx="1.1" ry="1.1"/><ellipse cx="7.8" cy="29.8" fill="#f7910b" rx="1" ry="1"/><circle cx="12.4" cy="31.6" fill="#f7910b" r="1"/><circle cx="51.6" cy="32.2" fill="#f9a908" r="1"/><circle cx="54.1" cy="33.6" fill="#f9a908" r="1"/><circle cx="48.8" cy="24.7" fill="#f9a908" r="1"/><circle cx="48.3" cy="36.4" fill="#f9a908" r="1.3"/><circle cx="55.5" cy="36.4" fill="#f9a908" r="1"/><ellipse cx="8.3" cy="35.8" fill="#f7910b" rx="1" ry="1"/><circle cx="9.1" cy="27.4" fill="#f7910b" r="1"/><g fill="#f9a908"><ellipse cx="3.8" cy="13.7" rx="1.1" ry="1.1"/><ellipse cx="7" cy="10.1" rx="1" ry="1"/><circle cx="58.2" cy="16.1" r="1"/><ellipse cx="57.4" cy="13.1" rx="1" ry="1"/><circle cx="60" cy="13.7" r="1"/><ellipse cx="5" cy="16.6" rx="1" ry="1"/></g><g fill="#109da0" transform="translate(16 13)"><path d="m10.6 6.9c-1 1.7-2.6-.4-5.3-1.9-2.6-1.6-5.3-2-4.3-3.6 1-1.7 3.9-1.8 6.5-.3 2.7 1.5 4 4.1 3.1 5.8z"/><path d="m19.4 6.9c1 1.7 2.6-.4 5.3-1.9 2.6-1.5 5.3-1.9 4.3-3.6-1-1.7-3.9-1.8-6.5-.3-2.7 1.5-4 4.1-3.1 5.8z"/></g></g><g transform="translate(14 32)"><path d="m9.6 11.6c0-2.6 3.3-4.7 7.4-4.7s7.4 2.1 7.4 4.7" fill="#f7910b"/><g fill="#02243e"><g transform="translate(0 5)"><path d="m29.4 5.3c-.6 0-1.1-.5-1.1-1.1 0-2.1 1.7-3.8 3.8-3.8.6 0 1.1.5 1.1 1.1s-.5 1.1-1.1 1.1c-.9 0-1.6.7-1.6 1.6 0 .6-.5 1.1-1.1 1.1z"/><path d="m4.6 5.3c-.6 0-1.1-.5-1.1-1.1 0-.9-.7-1.6-1.6-1.6-.6 0-1.1-.5-1.1-1.1s.5-1.1 1.1-1.1c2.1 0 3.8 1.7 3.8 3.8 0 .6-.5 1.1-1.1 1.1z"/></g><path d="m30.2 8.2c-.3 0-.6-.1-.8-.3-3.3-3.3-7.7-5.1-12.4-5.1s-9.1 1.8-12.4 5.1c-.4.4-1.1.4-1.6 0s-.4-1.1 0-1.6c7.7-7.7 20.2-7.7 27.9 0 .4.4.4 1.1 0 1.6-.2.1-.5.3-.7.3z"/></g></g><g transform="translate(16 21)"><ellipse cx="3.6" cy="5.1" fill="#d87703" rx="3.5" ry="3.5"/><ellipse cx="26.4" cy="5.1" fill="#d87703" rx="3.5" ry="3.5"/><ellipse cx="3.6" cy="4.1" fill="#1e4784" rx="3.5" ry="3.5"/><path d="m3.6.6c1.9 0 3.5 1.6 3.5 3.5s-1.6 3.5-3.5 3.5" fill="#00233f"/><ellipse cx="26.4" cy="4.1" fill="#1e4784" rx="3.5" ry="3.5"/><path d="m26.4.6c1.9 0 3.5 1.6 3.5 3.5s-1.6 3.5-3.5 3.5" fill="#00233f"/></g><g transform="translate(11 27)"><path d="m15.8 3.2c0 1.2-3.5.7-7.8.7s-7.8.6-7.8-.7c0-1.2 3.5-2.2 7.8-2.2 4.3-.1 7.8.9 7.8 2.2z" fill="#f9c55d"/><path d="m39.8 3.2c0 1.2-3.5.7-7.8.7s-7.8.6-7.8-.7c0-1.2 3.5-2.2 7.8-2.2s7.8.9 7.8 2.2z" fill="#f9a908"/></g><g transform="translate(50)"><path d="m6.1 24h-2.9l-2.3-24h7.5z" fill="#81ccb1"/><path d="m6.1 24h-2.9l.4-24h4.8z" fill="#109da0"/><path d="m2 26h5v6h-5z" fill="#81ccb1"/><path d="m7 32h-5l1.9-3.4 3.1-2.6z" fill="#109da0"/></g></g></svg>