<?xml version="1.0" encoding="UTF-8"?>
<svg width="63px" height="41px" viewBox="0 0 63 41" version="1.1" xmlns="http://www.w3.org/2000/svg" xmlns:xlink="http://www.w3.org/1999/xlink">
    <!-- Generator: Sketch 43.1 (39012) - http://www.bohemiancoding.com/sketch -->
    <title>imgly_sticker_emoticons_pig</title>
    <desc>Created with Sketch.</desc>
    <defs></defs>
    <g id="Page-1" stroke="none" stroke-width="1" fill="none" fill-rule="evenodd">
        <g id="pig" fill-rule="nonzero">
            <g id="Group">
                <g id="Shape">
                    <path d="M1.413,16.69 C3.655,20.446 7.063,15.165 13.03,11.602 C18.999,8.043 25.266,7.551 23.026,3.795 C20.786,0.043 14.131,-0.117 8.163,3.443 C2.196,7.007 -0.827,12.937 1.413,16.69 Z" fill="#F25595"></path>
                    <path d="M9.265,6.556 C4.54,9.376 1.673,13.679 1.79,17.214 C4.034,19.866 7.388,14.972 13.03,11.603 C17.651,8.847 22.432,7.925 23.325,5.908 C20.565,3.169 14.642,3.349 9.265,6.556 Z" fill="#DD4389"></path>
                </g>
                <g transform="translate(39.000000, 0.000000)" id="Shape">
                    <path d="M22.587,16.69 C20.347,20.446 16.937,15.165 10.97,11.602 C5.003,8.043 -1.266,7.551 0.974,3.795 C3.214,0.043 9.869,-0.117 15.837,3.443 C21.804,7.007 24.827,12.937 22.587,16.69 Z" fill="#F25595"></path>
                    <path d="M14.737,6.556 C19.462,9.376 22.327,13.679 22.21,17.214 C19.966,19.866 16.614,14.972 10.97,11.603 C6.351,8.847 1.568,7.925 0.677,5.908 C3.437,3.169 9.358,3.349 14.737,6.556 Z" fill="#DD4389"></path>
                </g>
            </g>
            <g id="Group" transform="translate(1.000000, 2.000000)">
                <g>
                    <path d="M60.08,22.718 C60.08,34.749 46.837,38.126 30.501,38.126 C14.165,38.126 0.921,34.749 0.921,22.718 C0.921,10.685 14.165,0.931 30.501,0.931 C46.837,0.931 60.08,10.685 60.08,22.718 Z" id="Shape" fill="#FF80BA"></path>
                    <path d="M60.08,22.718 C60.08,34.749 46.837,38.126 30.501,38.126 C14.165,38.126 0.921,34.749 0.921,22.718 C0.921,10.685 14.165,3.956 30.501,3.956 C46.837,3.956 60.08,10.685 60.08,22.718 Z" id="Shape" fill="#F25595"></path>
                    <path d="M60.08,22.718 C60.08,34.749 46.837,38.126 30.501,38.126 C14.165,38.126 0.921,34.749 0.921,22.718 C0.921,10.685 14.165,17.226 30.501,17.226 C46.837,17.226 60.08,10.685 60.08,22.718 Z" id="Shape" fill="#DD4389"></path>
                    <g transform="translate(16.000000, 17.000000)" id="Oval" fill="#082856">
                        <ellipse cx="2.811" cy="3.413" rx="2.657" ry="2.657"></ellipse>
                        <ellipse cx="26.191" cy="3.413" rx="2.657" ry="2.657"></ellipse>
                    </g>
                    <g transform="translate(16.000000, 20.000000)" id="Shape" fill="#000000">
                        <path d="M5.468,0.413 C5.468,1.882 4.279,3.071 2.811,3.071 C1.343,3.071 0.154,1.882 0.154,0.413"></path>
                        <path d="M28.848,0.413 C28.848,1.882 27.659,3.071 26.192,3.071 C24.724,3.071 23.535,1.882 23.535,0.413"></path>
                    </g>
                </g>
                <g transform="translate(20.000000, 21.000000)">
                    <path d="M0.804,5.854 C0.804,1.911 5.144,0.803 10.501,0.803 C15.856,0.803 20.198,1.91 20.198,5.854 C20.198,9.799 15.856,12.999 10.501,12.999 C5.144,12.999 0.804,9.8 0.804,5.854 Z" id="Shape" fill="#E276B7"></path>
                    <path d="M0.804,5.854 C0.804,1.911 5.144,0.803 10.501,0.803 C15.856,0.803 20.198,1.91 20.198,5.854 C20.198,9.799 15.856,12.006 10.501,12.006 C5.144,12.007 0.804,9.8 0.804,5.854 Z" id="Shape" fill="#F28FC5"></path>
                    <path d="M0.804,5.854 C0.804,1.911 5.144,0.803 10.501,0.803 C15.856,0.803 20.198,1.91 20.198,5.854 C20.198,9.799 15.856,7.657 10.501,7.657 C5.144,7.657 0.804,9.8 0.804,5.854 Z" id="Shape" fill="#FFA4D2"></path>
                    <g transform="translate(5.000000, 5.000000)" id="Oval" fill="#DD4389">
                        <ellipse cx="9.333" cy="1.61" rx="1" ry="1"></ellipse>
                        <circle cx="1.669" cy="1.61" r="1"></circle>
                    </g>
                    <g transform="translate(5.000000, 5.000000)" id="Shape" fill="#BA2A79">
                        <path d="M8.462,1.61 C8.462,1.13 8.853,0.739 9.335,0.739 C9.815,0.739 10.204,1.13 10.204,1.61"></path>
                        <path d="M0.798,1.61 C0.798,1.13 1.187,0.739 1.669,0.739 C2.149,0.739 2.54,1.13 2.54,1.61"></path>
                    </g>
                </g>
            </g>
        </g>
    </g>
</svg>