<?xml version="1.0" encoding="UTF-8"?>
<svg width="62px" height="58px" viewBox="0 0 62 58" version="1.1" xmlns="http://www.w3.org/2000/svg" xmlns:xlink="http://www.w3.org/1999/xlink">
    <!-- Generator: Sketch 43.1 (39012) - http://www.bohemiancoding.com/sketch -->
    <title>imgly_sticker_emoticons_smile</title>
    <desc>Created with Sketch.</desc>
    <defs></defs>
    <g id="Page-1" stroke="none" stroke-width="1" fill="none" fill-rule="evenodd">
        <g id="smile" fill-rule="nonzero">
            <path d="M61.3,34.5 C61.3,47.5 49.4,58 31,58 C12.6,58 0.7,47.5 0.7,34.5 C0.7,21.5 12.6,2 31,2 C49.4,2 61.3,21.5 61.3,34.5 Z" id="Shape" fill="#F7910B"></path>
            <path d="M61.3,34.5 C61.3,47.5 49.4,54 31,54 C12.6,54 0.7,47.5 0.7,34.5 C0.7,21.5 12.6,0 31,0 C49.4,0 61.3,21.5 61.3,34.5 Z" id="Shape" fill="#F7910B"></path>
            <path d="M31,0 C49.4,0 61.3,21.5 61.3,34.5 C61.3,47.5 49.4,54 31,54" id="Shape" fill="#F9A908"></path>
            <path d="M61.3,34.5 C61.3,47.5 49.4,54 31,54 C12.6,54 0.7,47.5 0.7,34.5 C0.7,21.5 12.6,2 31,2 C49.4,2 61.3,21.5 61.3,34.5 Z" id="Shape" fill="#F9A908"></path>
            <path d="M0.7,34.5 C0.7,21.5 12.6,2 31,2" id="Shape" fill="#F9C55D"></path>
            <path d="M31,2 C49.4,2 61.3,21.5 61.3,34.5 C61.3,47.5 49.4,58 31,58" id="Shape" fill="#F7910B"></path>
            <path d="M31,2 C49.4,2 61.3,21.5 61.3,34.5" id="Shape" fill="#EA7103"></path>
            <g id="Group" transform="translate(17.000000, 18.000000)">
                <ellipse id="Oval" fill="#EA7103" cx="3.6" cy="4.7" rx="3.2" ry="3.2"></ellipse>
                <ellipse id="Oval" fill="#EA7103" cx="24.4" cy="4.7" rx="3.2" ry="3.2"></ellipse>
                <ellipse id="Oval" fill="#1E4784" cx="3.6" cy="3.8" rx="3.2" ry="3.2"></ellipse>
                <path d="M3.6,0.6 C5.4,0.6 6.8,2 6.8,3.8 C6.8,5.6 5.4,7 3.6,7" id="Shape" fill="#00233F"></path>
                <ellipse id="Oval" fill="#1E4784" cx="24.4" cy="3.8" rx="3.2" ry="3.2"></ellipse>
                <path d="M24.4,0.6 C26.2,0.6 27.6,2 27.6,3.8 C27.6,5.6 26.2,7 24.4,7" id="Shape" fill="#00233F"></path>
            </g>
            <g id="Group" transform="translate(18.000000, 11.000000)" fill="#19BCA4">
                <path d="M6.7,2 C6.7,2.9 5.3,2.5 3.4,2.6 C1.6,2.7 0.1,3.2 0.1,2.3 C0.1,1.4 1.5,0.7 3.3,0.6 C5.2,0.5 6.7,1.1 6.7,2 Z" id="Shape"></path>
                <path d="M19.3,2 C19.3,2.9 20.7,2.5 22.6,2.6 C24.4,2.7 25.9,3.2 25.9,2.3 C25.9,1.4 24.5,0.7 22.7,0.6 C20.8,0.5 19.3,1.1 19.3,2 Z" id="Shape"></path>
            </g>
            <g id="Group" transform="translate(18.000000, 13.000000)" fill="#109DA0">
                <path d="M6.7,0 C6.7,0.9 5.3,0.5 3.4,0.6 C1.6,0.7 0.1,1.2 0.1,0.3" id="Shape"></path>
                <path d="M19.3,0 C19.3,0.9 20.7,0.5 22.6,0.6 C24.4,0.7 25.9,1.2 25.9,0.3" id="Shape"></path>
            </g>
            <g id="Group" transform="translate(11.000000, 25.000000)">
                <path d="M15.8,2.8 C15.8,4 12.3,3.5 8,3.5 C3.7,3.5 0.2,4.1 0.2,2.8 C0.2,1.6 3.7,0.6 8,0.6 C12.3,0.6 15.8,1.6 15.8,2.8 Z" id="Shape" fill="#F9C55D"></path>
                <path d="M39.8,2.8 C39.8,4 36.3,3.5 32,3.5 C27.7,3.5 24.2,4.1 24.2,2.8 C24.2,1.6 27.7,0.6 32,0.6 C36.3,0.6 39.8,1.6 39.8,2.8 Z" id="Shape" fill="#F9A908"></path>
            </g>
            <g id="Group" transform="translate(16.000000, 28.000000)">
                <path d="M21.7,7.1 C21.7,9.5 18.7,13.7 15,13.7 C11.3,13.7 8.3,9.4 8.3,7.1" id="Shape" fill="#F7910B"></path>
                <g id="Shape" fill="#02243E">
                    <path d="M1.3,5.1 C0.7,5.1 0.3,4.7 0.3,4.1 C0.3,3.5 0.7,3.1 1.3,3.1 C2.1,3.1 2.7,2.5 2.7,1.7 C2.7,1.1 3.1,0.7 3.7,0.7 C4.3,0.7 4.7,1.1 4.7,1.7 C4.8,3.6 3.2,5.1 1.3,5.1 Z"></path>
                    <path d="M28.7,5.1 C26.8,5.1 25.3,3.6 25.3,1.7 C25.3,1.1 25.7,0.7 26.3,0.7 C26.9,0.7 27.3,1.1 27.3,1.7 C27.3,2.5 27.9,3.1 28.7,3.1 C29.3,3.1 29.7,3.5 29.7,4.1 C29.7,4.7 29.2,5.1 28.7,5.1 Z"></path>
                </g>
                <path d="M15,9.6 C10.2,9.6 5.7,7.7 2.3,4.4 C1.9,4 1.9,3.4 2.3,3 C2.7,2.6 3.3,2.6 3.7,3 C6.7,6 10.7,7.7 15,7.7 C19.3,7.7 23.2,6 26.3,3 C26.7,2.6 27.3,2.6 27.7,3 C28.1,3.4 28.1,4 27.7,4.4 C24.3,7.8 19.8,9.6 15,9.6 Z" id="Shape" fill="#02243E"></path>
            </g>
            <path d="M36.3,32.6 C36.3,33.7 33.9,34.7 31,34.7 C28.1,34.7 25.7,33.8 25.7,32.6" id="Shape" fill="#F9C55D"></path>
            <ellipse id="Oval" fill="#F7910B" cx="9.3" cy="31.5" rx="1" ry="1"></ellipse>
            <ellipse id="Oval" fill="#F7910B" cx="4.8" cy="33.5" rx="1.1" ry="1.1"></ellipse>
            <ellipse id="Oval" fill="#F7910B" cx="7.8" cy="29.5" rx="1" ry="1"></ellipse>
            <circle id="Oval" fill="#F7910B" cx="12.4" cy="31.3" r="1"></circle>
            <circle id="Oval" fill="#F9A908" cx="51.6" cy="31.8" r="1"></circle>
            <circle id="Oval" fill="#F9A908" cx="54.1" cy="33.2" r="1"></circle>
            <circle id="Oval" fill="#F9A908" cx="48.8" cy="24.4" r="1"></circle>
            <circle id="Oval" fill="#F9A908" cx="48.3" cy="36" r="1.3"></circle>
            <circle id="Oval" fill="#F9A908" cx="55.5" cy="36.1" r="1"></circle>
            <ellipse id="Oval" fill="#F7910B" cx="8.3" cy="35.5" rx="1" ry="1"></ellipse>
            <circle id="Oval" fill="#F7910B" cx="9.1" cy="27.1" r="1"></circle>
            <ellipse id="Oval" fill="#F9A908" cx="3.8" cy="13.3" rx="1.1" ry="1.1"></ellipse>
            <ellipse id="Oval" fill="#F9A908" cx="7" cy="9.8" rx="1" ry="1"></ellipse>
            <circle id="Oval" fill="#F9A908" cx="58.2" cy="15.7" r="1"></circle>
            <ellipse id="Oval" fill="#F9A908" cx="57.4" cy="12.8" rx="1" ry="1"></ellipse>
            <circle id="Oval" fill="#F9A908" cx="60" cy="13.3" r="1"></circle>
            <ellipse id="Oval" fill="#F9A908" cx="5" cy="16.3" rx="1" ry="1"></ellipse>
        </g>
    </g>
</svg>