<svg height="59" viewBox="0 0 62 59" width="62" xmlns="http://www.w3.org/2000/svg"><g fill="none"><path d="m61.3 34.5c0 13-11.9 23.5-30.3 23.5s-30.3-10.5-30.3-23.5 11.9-32.5 30.3-32.5 30.3 19.5 30.3 32.5z" fill="#f7910b"/><path d="m61.3 34.5c0 13-11.9 19.5-30.3 19.5s-30.3-6.5-30.3-19.5 11.9-34.5 30.3-34.5 30.3 21.5 30.3 34.5z" fill="#f7910b"/><path d="m31 0c18.4 0 30.3 21.5 30.3 34.5s-11.9 19.5-30.3 19.5" fill="#f9a908"/><path d="m61.3 34.5c0 13-11.9 19.5-30.3 19.5s-30.3-6.5-30.3-19.5 11.9-32.5 30.3-32.5 30.3 19.5 30.3 32.5z" fill="#f9a908"/><path d="m.7 34.5c0-13 11.9-32.5 30.3-32.5" fill="#f9c55d"/><path d="m31 2c18.4 0 30.3 19.5 30.3 32.5s-11.9 23.5-30.3 23.5" fill="#f7910b"/><path d="m31 2c18.4 0 30.3 19.5 30.3 32.5" fill="#ea7103"/><g transform="translate(18 10)"><path d="m7.2 2.7c.2 1.3-1.3.9-3.1 1.2s-3.1 1.2-3.3-.1 1.1-2.6 2.9-2.8c1.7-.4 3.3.5 3.5 1.7z" fill="#19bca4"/><path d="m7.2 2.7c.2 1.3-1.3.9-3.1 1.2s-3.1 1.2-3.3-.1" fill="#109da0"/></g><g transform="translate(36 10)"><path d="m.8 2.7c-.2 1.3 1.3.9 3.1 1.2s3.1 1.2 3.3-.1-1.1-2.6-2.9-2.8c-1.7-.4-3.3.5-3.5 1.7z" fill="#19bca4"/><path d="m.8 2.7c-.2 1.3 1.3.9 3.1 1.2s3.1 1.2 3.3-.1" fill="#109da0"/></g><g transform="translate(11 25)"><path d="m15.8 2.8c0 1.2-3.5.7-7.8.7s-7.8.6-7.8-.7 3.5-2.2 7.8-2.2 7.8 1 7.8 2.2z" fill="#f9c55d"/><path d="m39.8 2.8c0 1.2-3.5.7-7.8.7s-7.8.6-7.8-.7 3.5-2.2 7.8-2.2 7.8 1 7.8 2.2z" fill="#f9a908"/></g><ellipse cx="9.3" cy="31.5" fill="#f7910b" rx="1" ry="1"/><ellipse cx="4.8" cy="33.5" fill="#f7910b" rx="1.1" ry="1.1"/><ellipse cx="7.8" cy="29.5" fill="#f7910b" rx="1" ry="1"/><circle cx="12.4" cy="31.3" fill="#f7910b" r="1"/><circle cx="51.6" cy="31.8" fill="#f9a908" r="1"/><circle cx="54.1" cy="33.2" fill="#f9a908" r="1"/><circle cx="48.8" cy="24.4" fill="#f9a908" r="1"/><circle cx="48.3" cy="36" fill="#f9a908" r="1.3"/><circle cx="55.5" cy="36.1" fill="#f9a908" r="1"/><ellipse cx="8.3" cy="35.5" fill="#f7910b" rx="1" ry="1"/><circle cx="9.1" cy="27.1" fill="#f7910b" r="1"/><g fill="#f9a908"><ellipse cx="3.8" cy="13.3" rx="1.1" ry="1.1"/><ellipse cx="7" cy="9.8" rx="1" ry="1"/><circle cx="58.2" cy="15.7" r="1"/><ellipse cx="57.4" cy="12.8" rx="1" ry="1"/><path d="m60.5 13.3c0 .3-.2.5-.5.5s-.5-.2-.5-.5.2-.5.5-.5c.2 0 .5.3.5.5z"/><ellipse cx="5" cy="16.3" rx="1" ry="1"/></g><g transform="translate(15 21)"><path d="m8 36c0 2.3-1.7.1-4 .1-2.3 0-4 .2-4-2.1v-29.9c0-2.3 1.7-4.1 4-4.1 2.3 0 4 1.8 4 4.1z" fill="#98dded"/><path d="m4 0c2.3 0 4 1.8 4 4.1v31.9c0 2.3-1.8.1-4.1.1" fill="#78c7dd"/></g><g transform="translate(39 21)"><path d="m0 36c0 2.3 1.7.1 4 .1 2.3 0 4 .2 4-2.1v-29.9c0-2.3-1.7-4.1-4-4.1-2.3 0-4 1.8-4 4.1z" fill="#78c7dd"/><path d="m4 0c-2.3 0-4 1.8-4 4.1v31.9c0 2.3 1.8.1 4.1.1" fill="#98dded"/></g><g transform="translate(24 31)"><path d="m13.2 11.1c0 6.1-2.8 4.1-6.2 4.1-3.5 0-6.2 2-6.2-4.1s2.8-11.1 6.2-11.1c3.5 0 6.2 4.9 6.2 11.1z" fill="#99144a"/><path d="m13.2 11.1c0 6.1-2.8 4.1-6.2 4.1-3.5 0-6.2 2-6.2-4.1" fill="#6d0c38"/></g><path d="m31 36.5c1.9 0 3.7-.3 5.2-.7-1.2-2.9-3.1-4.8-5.2-4.8s-4 1.9-5.2 4.8c1.5.4 3.3.7 5.2.7z" fill="#eadaea"/><g transform="translate(14 20)"><path d="m8.9 6.3c-.4-.1-.8-.3-1.1-.7-1.1-1.6-3.4-2-5-.9-.8.5-1.8.3-2.3-.4-.5-.8-.3-1.8.4-2.3 3.1-2.2 7.4-1.4 9.6 1.8.5.7.3 1.8-.4 2.3-.4.2-.8.3-1.2.2z" fill="#1e4784"/><path d="m10.5 3.7c.5.7.3 1.8-.4 2.3-.4.3-.8.3-1.2.3-.4-.1-.8-.3-1.1-.7-1.1-1.6-3.4-2-5-.9-.8.5-1.8.3-2.3-.4-.5-.8-.3-1.8.4-2.3" fill="#02243e"/></g><g transform="translate(37 20)"><path d="m2.1 6.3c.4-.1.8-.3 1.1-.7 1.1-1.6 3.4-2 5-.9.8.5 1.8.3 2.3-.4.5-.8.3-1.8-.4-2.3-3.1-2.2-7.4-1.4-9.6 1.8-.5.7-.3 1.8.4 2.3.4.2.8.3 1.2.2z" fill="#1e4784"/><path d="m.5 3.7c-.5.7-.3 1.8.4 2.3.4.3.8.3 1.2.3.4-.1.8-.3 1.1-.7 1.1-1.6 3.4-2 5-.9.8.5 1.8.3 2.3-.4.5-.8.3-1.8-.4-2.3" fill="#02243e"/></g></g></svg>