<svg height="62" viewBox="0 0 62 62" width="62" xmlns="http://www.w3.org/2000/svg"><g fill="none"><g transform="translate(0 3)"><path d="m61.3 35.1c0 13-11.9 23.5-30.3 23.5s-30.3-10.5-30.3-23.5 11.9-32.5 30.3-32.5 30.3 19.5 30.3 32.5z" fill="#f7910b"/><path d="m61.3 35.1c0 13-11.9 19.5-30.3 19.5s-30.3-6.5-30.3-19.5 11.9-34.5 30.3-34.5 30.3 21.5 30.3 34.5z" fill="#f7910b"/><path d="m31 .6c18.4 0 30.3 21.5 30.3 34.5s-11.9 19.5-30.3 19.5" fill="#f9a908"/><path d="m61.3 35.1c0 13-11.9 19.5-30.3 19.5s-30.3-6.5-30.3-19.5 11.9-32.5 30.3-32.5 30.3 19.5 30.3 32.5z" fill="#f9a908"/><path d="m.7 35.1c0-13 11.9-32.5 30.3-32.5" fill="#f9c55d"/><path d="m31 2.6c18.4 0 30.3 19.5 30.3 32.5s-11.9 23.5-30.3 23.5" fill="#f7910b"/><path d="m31 2.6c18.4 0 30.3 19.5 30.3 32.5" fill="#ea7103"/><ellipse cx="9.3" cy="32.1" fill="#f7910b" rx="1" ry="1"/><ellipse cx="4.8" cy="34.1" fill="#f7910b" rx="1.1" ry="1.1"/><ellipse cx="7.8" cy="30.1" fill="#f7910b" rx="1" ry="1"/><circle cx="12.4" cy="31.9" fill="#f7910b" r="1"/><circle cx="51.6" cy="32.4" fill="#f9a908" r="1"/><circle cx="54.1" cy="33.8" fill="#f9a908" r="1"/><circle cx="48.8" cy="25" fill="#f9a908" r="1"/><ellipse cx="48.3" cy="36.6" fill="#f9a908" rx="1.3" ry="1.3"/><circle cx="55.5" cy="36.7" fill="#f9a908" r="1"/><ellipse cx="8.3" cy="36.1" fill="#f7910b" rx="1" ry="1"/><circle cx="9.1" cy="27.7" fill="#f7910b" r="1"/><g fill="#f9a908"><ellipse cx="3.8" cy="13.9" rx="1.1" ry="1.1"/><ellipse cx="7" cy="10.4" rx="1" ry="1"/><circle cx="58.2" cy="16.3" r="1"/><ellipse cx="57.4" cy="13.4" rx="1" ry="1"/><circle cx="60" cy="13.9" r="1"/><ellipse cx="5" cy="16.9" rx="1" ry="1"/></g><path d="m38.2 45.5c0 2.6-3.3 7.2-7.4 7.2s-7.4-4.6-7.4-7.2" fill="#f7910b"/><g transform="translate(15 18)"><ellipse cx="4.6" cy="5.6" fill="#d87703" rx="3.5" ry="3.5"/><path d="m30.9 5.6c0 1.9-1.6 3.5-3.5 3.5s-3.5-1.6-3.5-3.5 1.6-3.5 3.5-3.5c2 0 3.5 1.6 3.5 3.5z" fill="#d87703"/><ellipse cx="4.6" cy="4.6" fill="#1e4784" rx="3.5" ry="3.5"/><path d="m4.6 1.1c1.9 0 3.5 1.6 3.5 3.5s-1.6 3.5-3.5 3.5" fill="#00233f"/><path d="m30.9 4.6c0 1.9-1.6 3.5-3.5 3.5s-3.5-1.6-3.5-3.5 1.6-3.5 3.5-3.5c2 0 3.5 1.6 3.5 3.5z" fill="#1e4784"/><path d="m27.4 1.1c1.9 0 3.5 1.6 3.5 3.5s-1.6 3.5-3.5 3.5" fill="#00233f"/><path d="m.5 5.4c0-2.3 1.8-5.1 4.1-5.1s4.1 2.8 4.1 5.1" fill="#f9a908"/><path d="m23.3 5.4c0-2.3 1.8-5.1 4.1-5.1s4.1 2.8 4.1 5.1" fill="#f7910b"/></g><g transform="translate(11 26)"><path d="m15.8 2.4c0 1.2-3.5.7-7.8.7s-7.8.6-7.8-.7c0-1.2 3.5-2.2 7.8-2.2s7.8 1 7.8 2.2z" fill="#f9c55d"/><path d="m39.8 2.4c0 1.2-3.5.7-7.8.7s-7.8.6-7.8-.7c0-1.2 3.5-2.2 7.8-2.2s7.8 1 7.8 2.2z" fill="#f9a908"/></g></g><g fill="#19bca4" transform="translate(18 11)"><path d="m4.3 11.1c.2.9-.1.5-1.4.7-1.4.2-2.4.9-2.6 0s.8-1.9 2.2-2.1c1.3-.3 1.6.5 1.8 1.4z"/><path d="m21.8 2.1c0 1 .1.5 1.5.5s2.5.5 2.5-.5-1.1-1.7-2.5-1.7-1.5.8-1.5 1.7z"/></g><path d="m49.1 20v-1c-.1-2.2.6-4.3 2.5-6.6 1.3-1.6 2.4-3 2.4-4.4 0-1.5-1-2.4-3.1-2.5-1.4 0-3.1.5-4.2 1.3l-1.4-4.6c1.5-.9 4.1-1.7 7.1-1.7 5.6 0 8.1 3.1 8.1 6.6 0 3.2-1.8 5.3-3.5 7.1-1.6 1.7-2 3.4-2 5.3v.5zm-1.1 6c0-2.2 1.6-3.9 3.8-3.9 2.3 0 3.8 1.6 3.8 3.9 0 2.2-1.5 3.9-3.8 3.9s-3.8-1.6-3.8-3.9z" fill="#24b9ed"/><path d="m38 38h-14c-.6 0-1-.4-1-1s.4-1 1-1h14c.6 0 1 .4 1 1s-.4 1-1 1z" fill="#02243e"/><g fill="#1491dd" transform="translate(50)"><path d="m1.7 22.2c-.1 0 0 0 0 0v7.7c2.3 0 3.8-1.7 3.8-3.9s-1.5-3.8-3.8-3.8z"/><path d="m2.2.4h-1.2v5c2 .2 2.8 1.2 2.8 2.6s-.5 2.2-1.9 3.8c-.1.1-.3.4-1 1.2v7h4v-.6c0-1.9.4-3.6 2-5.3 1.6-1.8 3.5-3.9 3.5-7.1.1-3.5-2.6-6.6-8.2-6.6z"/></g></g></svg>