<?xml version="1.0" encoding="UTF-8"?>
<svg width="62px" height="58px" viewBox="0 0 62 58" version="1.1" xmlns="http://www.w3.org/2000/svg" xmlns:xlink="http://www.w3.org/1999/xlink">
    <!-- Generator: Sketch 43.1 (39012) - http://www.bohemiancoding.com/sketch -->
    <title>imgly_sticker_emoticons_batman</title>
    <desc>Created with Sketch.</desc>
    <defs></defs>
    <g id="Page-1" stroke="none" stroke-width="1" fill="none" fill-rule="evenodd">
        <g id="batman" fill-rule="nonzero">
            <g id="Group">
                <g>
                    <g>
                        <path d="M61.3,34.5 C61.3,47.5 49.4,58 31,58 C12.6,58 0.7,47.5 0.7,34.5 C0.7,21.5 12.6,2 31,2 C49.4,2 61.3,21.5 61.3,34.5 Z" id="Shape" fill="#F7910B"></path>
                        <path d="M61.3,34.5 C61.3,47.5 49.4,54 31,54 C12.6,54 0.7,47.5 0.7,34.5 C0.7,21.5 12.6,0 31,0 C49.4,0 61.3,21.5 61.3,34.5 Z" id="Shape" fill="#F7910B"></path>
                        <path d="M31,0 C49.4,0 61.3,21.5 61.3,34.5 C61.3,47.5 49.4,54 31,54" id="Shape" fill="#F9A908"></path>
                        <path d="M61.3,34.5 C61.3,47.5 49.4,54 31,54 C12.6,54 0.7,47.5 0.7,34.5 C0.7,21.5 12.6,2 31,2 C49.4,2 61.3,21.5 61.3,34.5 Z" id="Shape" fill="#F9A908"></path>
                        <path d="M0.7,34.5 C0.7,21.5 12.6,2 31,2" id="Shape" fill="#F9C55D"></path>
                        <path d="M31,2 C49.4,2 61.3,21.5 61.3,34.5 C61.3,47.5 49.4,58 31,58" id="Shape" fill="#F7910B"></path>
                        <path d="M31,2 C49.4,2 61.3,21.5 61.3,34.5" id="Shape" fill="#EA7103"></path>
                        <g transform="translate(11.000000, 15.000000)" id="Shape">
                            <path d="M15.8,2.6 C15.8,3.8 12.3,3.3 8,3.3 C3.7,3.3 0.2,3.9 0.2,2.6 C0.2,1.3 3.7,0.4 8,0.4 C12.3,0.4 15.8,1.4 15.8,2.6 Z" fill="#F9C55D"></path>
                            <path d="M39.8,2.6 C39.8,3.8 36.3,3.3 32,3.3 C27.7,3.3 24.2,3.9 24.2,2.6 C24.2,1.3 27.7,0.4 32,0.4 C36.3,0.4 39.8,1.4 39.8,2.6 Z" fill="#F9A908"></path>
                        </g>
                        <ellipse id="Oval" fill="#F7910B" cx="9.3" cy="31.5" rx="1" ry="1"></ellipse>
                        <ellipse id="Oval" fill="#F7910B" cx="4.8" cy="33.5" rx="1.1" ry="1.1"></ellipse>
                        <circle id="Oval" fill="#F7910B" cx="7.8" cy="29.5" r="1"></circle>
                        <circle id="Oval" fill="#F7910B" cx="12.4" cy="31.3" r="1"></circle>
                        <circle id="Oval" fill="#F9A908" cx="51.6" cy="31.8" r="1"></circle>
                        <circle id="Oval" fill="#F9A908" cx="54.1" cy="33.2" r="1"></circle>
                        <circle id="Oval" fill="#F9A908" cx="48.8" cy="24.4" r="1"></circle>
                        <ellipse id="Oval" fill="#F9A908" cx="48.3" cy="36" rx="1.3" ry="1.3"></ellipse>
                        <circle id="Oval" fill="#F9A908" cx="55.5" cy="36.1" r="1"></circle>
                        <circle id="Oval" fill="#F7910B" cx="8.3" cy="35.5" r="1"></circle>
                        <circle id="Oval" fill="#F7910B" cx="9.1" cy="27.1" r="1"></circle>
                        <ellipse id="Oval" fill="#061C33" cx="3.8" cy="13.3" rx="1.1" ry="1.1"></ellipse>
                        <ellipse id="Oval" fill="#061C33" cx="7" cy="9.8" rx="1" ry="1"></ellipse>
                        <circle id="Oval" fill="#061C33" cx="58.2" cy="15.7" r="1"></circle>
                        <ellipse id="Oval" fill="#061C33" cx="57.4" cy="12.8" rx="1" ry="1"></ellipse>
                        <circle id="Oval" fill="#061C33" cx="60" cy="13.3" r="1"></circle>
                        <ellipse id="Oval" fill="#061C33" cx="5" cy="16.3" rx="1" ry="1"></ellipse>
                    </g>
                    <g transform="translate(17.000000, 6.000000)" id="Shape" fill="#037A66">
                        <path d="M7.6,1.8 C7.9,2.7 6.2,2.7 4.3,3.3 C2.4,3.9 1,4.8 0.7,3.9 C0.4,3 1.7,1.8 3.6,1.2 C5.5,0.7 7.3,0.9 7.6,1.8 Z"></path>
                        <path d="M20.4,1.8 C20.1,2.7 21.8,2.7 23.7,3.3 C25.6,3.9 27,4.8 27.3,3.9 C27.6,3 26.3,1.8 24.4,1.2 C22.5,0.7 20.7,0.9 20.4,1.8 Z"></path>
                    </g>
                </g>
                <path d="M36.3,24.4 C36.3,25.1 33.9,28.4 31,28.4 C28.1,28.4 25.8,25.1 25.8,24.4 C25.8,23.7 28.2,24.3 31,24.3 C33.9,24.3 36.3,23.7 36.3,24.4 Z" id="Shape" fill="#F7910B"></path>
                <path d="M25.8,24.3 C25.8,23.6 28.2,23 31,23 C33.9,23 36.2,23.6 36.2,24.3 C36.2,25 33.8,24.4 31,24.4 C28.1,24.4 25.8,25 25.8,24.3 Z" id="Shape" fill="#99144A"></path>
            </g>
            <path d="M31,0 C12.6,0 0.7,21.5 0.7,34.5 C0.7,47.5 12.6,58 31,58 C49.4,58 61.3,47.5 61.3,34.5 C61.3,21.5 49.4,0 31,0 Z M31,33.5 C26.1,33.5 22,29.6 22,24.7 C22,19.9 26,19.4 31,19.4 C36,19.4 40,19.9 40,24.7 C40,29.6 35.9,33.5 31,33.5 Z" id="Shape" fill="#02598E"></path>
            <path d="M31,2.8 C13.3,2.8 1.5,22.8 0.7,35.9 C1.5,48.2 13.3,58 31,58 C48.7,58 60.5,48.2 61.3,35.9 C60.5,22.8 48.7,2.8 31,2.8 Z M40,27.6 C40,32.4 36,36.4 31,36.4 C26,36.4 22,32.5 22,27.6 C22,27.1 22.1,26.7 22.1,26.2 C22,25.7 22,25.2 22,24.7 C22,19.9 26,19.4 31,19.4 C36,19.4 40,19.9 40,24.7 C40,25.2 39.9,25.7 39.9,26.2 C39.9,26.6 40,27.1 40,27.6 Z" id="Shape" fill="#061C33"></path>
            <g id="Group" transform="translate(14.000000, 12.000000)">
                <g transform="translate(23.000000, 0.000000)" id="Shape">
                    <path d="M9.3,5.8 C8.9,5.8 8.5,5.6 8.1,5.3 C6.7,3.9 4.4,3.9 3,5.3 C2.4,5.9 1.3,6 0.7,5.3 C0.1,4.7 -1.83464355e-14,3.6 0.7,3 C3.4,0.3 7.8,0.3 10.5,3 C11.1,3.6 11.1,4.7 10.5,5.3 C10.1,5.7 9.7,5.8 9.3,5.8 Z" fill="#F8FCFF"></path>
                    <path d="M10.4,3 C11,3.6 11,4.7 10.4,5.3 C10.1,5.6 9.7,5.8 9.2,5.8 C8.8,5.8 8.4,5.6 8,5.3 C6.6,3.9 4.3,3.9 2.9,5.3 C2.3,5.9 1.2,6 0.6,5.3 C-1.09356968e-14,4.7 -0.1,3.6 0.6,3" fill="#E7E8CD"></path>
                </g>
                <g id="Shape">
                    <path d="M1.7,5.8 C2.1,5.8 2.5,5.6 2.9,5.3 C4.3,3.9 6.6,3.9 8,5.3 C8.6,5.9 9.7,6 10.3,5.3 C10.9,4.7 11,3.6 10.3,3 C7.6,0.3 3.2,0.3 0.5,3 C-0.1,3.6 -0.1,4.7 0.5,5.3 C0.9,5.7 1.3,5.8 1.7,5.8 Z" fill="#F8FCFF"></path>
                    <path d="M0.6,3 C-2.24820162e-15,3.6 -2.24820162e-15,4.7 0.6,5.3 C0.9,5.6 1.3,5.8 1.8,5.8 C2.2,5.8 2.6,5.6 3,5.3 C4.4,3.9 6.7,3.9 8.1,5.3 C8.7,5.9 9.8,6 10.4,5.3 C11,4.7 11.1,3.6 10.4,3" fill="#E7E8CD"></path>
                </g>
            </g>
            <g id="Group" transform="translate(5.000000, 0.000000)">
                <g id="Shape">
                    <polygon fill="#02598E" points="1.5 20.3 1.5 0 11.7 10.2"></polygon>
                    <polygon fill="#061C33" points="0.5 20.3 5.1 10 1.5 0 11.7 10.2"></polygon>
                </g>
                <g transform="translate(40.000000, 0.000000)" id="Shape">
                    <polygon fill="#02598E" points="10.5 20.3 10.5 0 0.3 10.2"></polygon>
                    <polygon fill="#061C33" points="11.5 20.3 6.9 10 10.5 0 0.3 10.2"></polygon>
                </g>
            </g>
            <g id="Group" transform="translate(20.000000, 7.000000)" fill="#02598E">
                <path d="M9.5,8 L0.2,2.2 C0.2,2.2 2.2,0.3 4.3,0.8 C6.4,1.3 9.5,8 9.5,8 Z" id="Shape"></path>
                <path d="M12.5,8 L21.7,2.2 C21.7,2.2 19.7,0.3 17.6,0.8 C15.6,1.3 12.5,8 12.5,8 Z" id="Shape"></path>
            </g>
            <g id="Group" transform="translate(13.000000, 18.000000)" fill="#02598E">
                <ellipse id="Oval" cx="5.9" cy="1.2" rx="5.8" ry="1.1"></ellipse>
                <ellipse id="Oval" cx="30.1" cy="1.2" rx="5.8" ry="1.1"></ellipse>
            </g>
            <g id="Group" transform="translate(12.000000, 39.000000)" fill="#F8FCFF">
                <path d="M24.9,7.9 C24.9,11.8 22.3,13 19,13 C15.7,13 13.1,11.8 13.1,7.9 C13.1,4 15.8,0.8 19,0.8 C22.2,0.8 24.9,4 24.9,7.9 Z" id="Shape"></path>
                <g transform="translate(0.000000, 2.000000)" id="Shape">
                    <polygon points="14.1 4.2 9.1 0.2 0.9 5.7 6.8 5 7.4 7.3 9.4 5.3 11.1 7.7 11.6 5.5 14.1 7.3"></polygon>
                    <polygon points="23.9 4.2 28.9 0.2 37.1 5.7 31.2 5 30.6 7.3 28.6 5.3 26.9 7.7 26.4 5.5 23.9 7.3"></polygon>
                </g>
            </g>
        </g>
    </g>
</svg>