<?xml version="1.0" encoding="UTF-8"?>
<svg width="63px" height="55px" viewBox="0 0 63 55" version="1.1" xmlns="http://www.w3.org/2000/svg" xmlns:xlink="http://www.w3.org/1999/xlink">
    <!-- Generator: Sketch 43.1 (39012) - http://www.bohemiancoding.com/sketch -->
    <title>imgly_sticker_emoticons_chicken</title>
    <desc>Created with Sketch.</desc>
    <defs></defs>
    <g id="Page-1" stroke="none" stroke-width="1" fill="none" fill-rule="evenodd">
        <g id="chicken" fill-rule="nonzero">
            <path d="M61.08,32.223 C61.08,44.254 47.837,47.631 31.501,47.631 C15.165,47.631 1.92,44.254 1.92,32.223 C1.92,20.19 15.164,10.436 31.5,10.436 C47.836,10.436 61.08,20.189 61.08,32.223 Z" id="Shape" fill="#C6BD8B"></path>
            <path d="M61.08,32.223 C61.08,44.254 47.837,47.631 31.501,47.631 C15.165,47.631 1.92,44.254 1.92,32.223 C1.92,20.19 15.164,13.461 31.5,13.461 C47.836,13.461 61.08,20.189 61.08,32.223 Z" id="Shape" fill="#B5AD74"></path>
            <path d="M61.08,32.223 C61.08,44.254 47.837,47.631 31.501,47.631 C15.165,47.631 1.92,44.254 1.92,32.223 C1.92,20.19 15.164,26.731 31.5,26.731 C47.836,26.731 61.08,20.189 61.08,32.223 Z" id="Shape" fill="#9E945A"></path>
            <g id="Group" transform="translate(17.000000, 27.000000)" fill="#082856">
                <ellipse id="Oval" cx="2.81" cy="2.918" rx="2.657" ry="2.657"></ellipse>
                <ellipse id="Oval" cx="26.19" cy="2.918" rx="2.657" ry="2.657"></ellipse>
            </g>
            <g id="Group" transform="translate(17.000000, 29.000000)" fill="#000000">
                <path d="M5.467,0.918 C5.467,2.387 4.278,3.576 2.81,3.576 C1.342,3.576 0.153,2.387 0.153,0.918" id="Shape"></path>
                <path d="M28.847,0.918 C28.847,2.387 27.658,3.576 26.191,3.576 C24.723,3.576 23.534,2.387 23.534,0.918" id="Shape"></path>
            </g>
            <g id="Group" transform="translate(3.000000, 35.000000)" fill="#9E945A">
                <ellipse id="Oval" cx="4.5" cy="10.023" rx="4" ry="9.062"></ellipse>
                <ellipse id="Oval" cx="10.5" cy="10.023" rx="4" ry="9.062"></ellipse>
                <ellipse id="Oval" cx="16.5" cy="10.023" rx="4" ry="9.062"></ellipse>
                <ellipse id="Oval" cx="22.5" cy="10.023" rx="4" ry="9.062"></ellipse>
                <ellipse id="Oval" cx="28.5" cy="10.023" rx="4" ry="9.062"></ellipse>
                <ellipse id="Oval" cx="34.5" cy="10.023" rx="4" ry="9.062"></ellipse>
                <ellipse id="Oval" cx="40.5" cy="10.023" rx="4" ry="9.062"></ellipse>
                <ellipse id="Oval" cx="46.5" cy="10.023" rx="4" ry="9.062"></ellipse>
                <ellipse id="Oval" cx="52.5" cy="10.023" rx="4" ry="9.062"></ellipse>
            </g>
            <g id="Group" transform="translate(0.000000, 26.000000)" fill="#9E945A">
                <ellipse id="Oval" cx="5.167" cy="12.336" rx="4.187" ry="12.188"></ellipse>
                <ellipse id="Oval" cx="57.833" cy="12.336" rx="4.187" ry="12.188"></ellipse>
            </g>
            <rect id="Rectangle-path" fill="#FCD827" transform="translate(31.499086, 35.400666) rotate(-44.991897) translate(-31.499086, -35.400666) " x="27.9371201" y="31.8386997" width="7.12393175" height="7.12393175"></rect>
            <polygon id="Shape" fill="#E0A624" points="36.539 35.398 31.5 40.436 26.462 35.398 31.5 36.543"></polygon>
            <path d="M30.726,20.127 C30.726,20.127 32.226,14.793 23.226,11.668 C14.226,8.543 21.726,3.043 26.226,6.168 C26.226,6.168 24.648,5.104 24.1,3.293 C23.434,1.086 31.476,-1.457 33.226,5.168 C33.226,5.168 31.92,3.434 32.6,2.293 C33.434,0.898 36.931,1.188 38.684,3.586 C41.06,6.836 39.726,10.168 36.476,11.418 C33.226,12.668 30.726,20.127 30.726,20.127 Z" id="Shape" fill="#B51063"></path>
            <path d="M32.6,2.293 C32.414,2.607 32.383,2.963 32.428,3.318 C29.799,-0.883 23.507,1.328 24.1,3.293 C24.648,5.104 26.226,6.168 26.226,6.168 C21.726,3.043 14.226,8.543 23.226,11.668 C23.248,11.676 23.27,11.686 23.292,11.693 C25.117,11.795 27.124,11.714 29.221,11.412 C33.737,10.76 37.59,9.25 39.852,7.461 C39.998,6.254 39.655,4.914 38.684,3.586 C36.931,1.188 33.434,0.898 32.6,2.293 Z" id="Shape" fill="#CE1D7E"></path>
            <path d="M26.434,7.305 C26.434,7.84 25.067,7.336 23.496,7.336 C21.925,7.336 20.746,7.84 20.746,7.305 C20.746,6.77 22.019,6.336 23.59,6.336 C25.161,6.336 26.434,6.77 26.434,7.305 Z" id="Shape" fill="#F27EC3"></path>
            <path d="M29.899,2.445 C29.897,2.884 28.923,2.461 27.803,2.453 C26.681,2.445 25.836,2.853 25.838,2.414 C25.841,1.973 26.754,1.623 27.874,1.631 C28.997,1.639 29.903,2.004 29.899,2.445 Z" id="Shape" fill="#F27EC3"></path>
            <path d="M36.399,2.992 C36.397,3.465 35.739,3.013 34.981,3.008 C34.221,3.002 33.648,3.444 33.651,2.971 C33.653,2.5 34.273,2.121 35.032,2.125 C35.791,2.131 36.403,2.52 36.399,2.992 Z" id="Shape" fill="#F27EC3"></path>
        </g>
    </g>
</svg>