<svg height="58" viewBox="0 0 62 58" width="62" xmlns="http://www.w3.org/2000/svg"><g fill="none"><path d="m61.3 34.5c0 13-11.9 23.5-30.3 23.5s-30.3-10.5-30.3-23.5 11.9-32.5 30.3-32.5 30.3 19.5 30.3 32.5z" fill="#f7910b"/><path d="m61.3 34.5c0 13-11.9 19.5-30.3 19.5s-30.3-6.5-30.3-19.5 11.9-34.5 30.3-34.5 30.3 21.5 30.3 34.5z" fill="#f7910b"/><path d="m31 0c18.4 0 30.3 21.5 30.3 34.5s-11.9 19.5-30.3 19.5" fill="#f9a908"/><path d="m61.3 34.5c0 13-11.9 19.5-30.3 19.5s-30.3-6.5-30.3-19.5 11.9-32.5 30.3-32.5 30.3 19.5 30.3 32.5z" fill="#f9a908"/><path d="m.7 34.5c0-13 11.9-32.5 30.3-32.5" fill="#f9c55d"/><path d="m31 2c18.4 0 30.3 19.5 30.3 32.5s-11.9 23.5-30.3 23.5" fill="#f7910b"/><path d="m31 2c18.4 0 30.3 19.5 30.3 32.5" fill="#ea7103"/><g transform="translate(19 13)"><path d="m5.8 5.1c-.6.7-1.4-.6-2.8-1.8s-2.8-1.8-2.2-2.4c.6-.7 2.1-.3 3.5.9 1.4 1.1 2 2.6 1.5 3.3z" fill="#19bca4"/><path d="m5.8 5.1c-.6.7-1.4-.6-2.8-1.8s-2.8-1.8-2.2-2.4" fill="#109da0"/></g><g transform="translate(37 11)"><path d="m.1 2.9c.2.8 1.5.1 3.3-.4 1.8-.4 3.3-.4 3.1-1.2s-1.8-1.2-3.6-.7c-1.8.4-3 1.4-2.8 2.3z" fill="#19bca4"/><path d="m.1 2.9c.2.8 1.5.1 3.3-.4 1.8-.4 3.3-.4 3.1-1.2" fill="#109da0"/></g><ellipse cx="9.3" cy="31.5" fill="#f7910b" rx="1" ry="1"/><ellipse cx="4.8" cy="33.5" fill="#f7910b" rx="1.1" ry="1.1"/><ellipse cx="7.8" cy="29.5" fill="#f7910b" rx="1" ry="1"/><circle cx="12.4" cy="31.3" fill="#f7910b" r="1"/><g fill="#f9a908"><circle cx="51.6" cy="31.8" r="1"/><circle cx="54.1" cy="33.2" r="1"/><circle cx="48.8" cy="24.4" r="1"/><circle cx="48.3" cy="36" r="1.3"/><circle cx="55.5" cy="36.1" r="1"/></g><ellipse cx="8.3" cy="35.5" fill="#f7910b" rx="1" ry="1"/><circle cx="9.1" cy="27.1" fill="#f7910b" r="1"/><ellipse cx="3.8" cy="13.3" fill="#f9a908" rx="1.1" ry="1.1"/><ellipse cx="7" cy="9.8" fill="#f9a908" rx="1" ry="1"/><circle cx="58.2" cy="15.7" fill="#f9a908" r="1"/><g transform="translate(14 19)"><path d="m8.9 6c-.4-.1-.8-.3-1.1-.7-1.1-1.6-3.4-2-5-.9-.8.5-1.8.3-2.3-.4s-.3-1.8.4-2.3c3.1-2.2 7.4-1.4 9.6 1.8.5.7.3 1.8-.4 2.3-.4.2-.8.2-1.2.2z" fill="#1e4784"/><path d="m10.5 3.4c.5.7.3 1.8-.4 2.3-.4.3-.8.3-1.2.3-.4-.1-.8-.3-1.1-.7-1.1-1.6-3.4-2-5-.9-.8.5-1.8.3-2.3-.4s-.3-1.8.4-2.3" fill="#02243e"/></g><g transform="translate(37 18)"><ellipse cx="3.8" cy="4.7" fill="#d87703" rx="3.5" ry="3.5"/><ellipse cx="3.8" cy="3.7" fill="#1e4784" rx="3.5" ry="3.5"/><path d="m3.8.2c1.9 0 3.5 1.6 3.5 3.5s-1.6 3.5-3.5 3.5" fill="#00233f"/></g><ellipse cx="57.4" cy="12.8" fill="#f9a908" rx="1" ry="1"/><circle cx="60" cy="13.3" fill="#f9a908" r="1"/><ellipse cx="5" cy="16.3" fill="#f9a908" rx="1" ry="1"/><g transform="translate(11 25)"><path d="m15.8 2.8c0 1.2-3.5.7-7.8.7s-7.8.6-7.8-.7c0-1.2 3.5-2.2 7.8-2.2s7.8 1 7.8 2.2z" fill="#f9c55d"/><path d="m39.8 2.8c0 1.2-3.5.7-7.8.7s-7.8.6-7.8-.7c0-1.2 3.5-2.2 7.8-2.2s7.8 1 7.8 2.2z" fill="#f9a908"/></g><g transform="translate(19 29)"><path d="m19.4 14.8c0 2.6-6.1 12.6-10.2 12.6s-4.5-10-4.5-12.6" fill="#f7910b"/><path d="m23.9.9c0 6.8-5.3 12.3-11.9 12.3s-11.9-5.5-11.9-12.3" fill="#c42260"/><path d="m23.9.9c0 2.3-5.3 4.1-11.9 4.1s-11.9-1.8-11.9-4.1" fill="#99144a"/><path d="m12 13.2c3.7 0 6.9-1.7 9.1-4.4-1.4-1.5-3.3-2.5-5.5-2.5-1.3 0-2.6.4-3.6 1-1.1-.6-2.3-1-3.6-1-2.2 0-4.1 1-5.5 2.5 2.2 2.6 5.4 4.4 9.1 4.4z" fill="#e2446e"/><path d="m20.8 8.9c0 2.1-3.9 16.3-8.8 16.3s-8.8-14.2-8.8-16.3 3.9-.6 8.8-.6 8.8-1.4 8.8.6z" fill="#e2446e"/><g fill="#ef86ae"><path d="m7 16.6c-.4.1-1.1-1.4-1.6-3.3s-.5-3.5-.2-3.7c.4-.2.7-.3 1.2 1.6s1 5.3.6 5.4z"/><path d="m13.1 16.2c-.4 0-.7-1.6-.7-3.6s.3-3.5.7-3.6c.5-.1.8-.1.8 1.8-.1 2-.4 5.4-.8 5.4z"/></g></g></g></svg>