<?xml version="1.0" encoding="UTF-8"?>
<svg width="62px" height="60px" viewBox="0 0 62 60" version="1.1" xmlns="http://www.w3.org/2000/svg" xmlns:xlink="http://www.w3.org/1999/xlink">
    <!-- Generator: Sketch 43.1 (39012) - http://www.bohemiancoding.com/sketch -->
    <title>imgly_sticker_emoticons_pumpkin</title>
    <desc>Created with Sketch.</desc>
    <defs></defs>
    <g id="Page-1" stroke="none" stroke-width="1" fill="none" fill-rule="evenodd">
        <g id="pumpkin" fill-rule="nonzero">
            <g id="Group" transform="translate(0.000000, 2.000000)">
                <path d="M61.3,34.5 C61.3,47.4 49.4,58 31,58 C12.6,58 0.7,47.4 0.7,34.5 C0.7,21.6 12.6,2 31,2 C49.4,2 61.3,21.5 61.3,34.5 Z" id="Shape" fill="#F7910B"></path>
                <path d="M61.3,34.5 C61.3,47.4 49.4,54 31,54 C12.6,54 0.7,47.4 0.7,34.5 C0.7,21.6 12.6,0 31,0 C49.4,0 61.3,21.5 61.3,34.5 Z" id="Shape" fill="#F7910B"></path>
                <path d="M31,0 C49.4,0 61.3,21.5 61.3,34.5 C61.3,47.5 49.4,54 31,54" id="Shape" fill="#F9A908"></path>
                <path d="M61.3,34.5 C61.3,47.4 49.4,54 31,54 C12.6,54 0.7,47.4 0.7,34.5 C0.7,21.6 12.6,2 31,2 C49.4,2 61.3,21.5 61.3,34.5 Z" id="Shape" fill="#F9A908"></path>
                <path d="M0.7,34.5 C0.7,21.5 12.6,2 31,2" id="Shape" fill="#F9C55D"></path>
                <path d="M31,2 C49.4,2 61.3,21.5 61.3,34.5 C61.3,47.5 49.4,58 31,58" id="Shape" fill="#F7910B"></path>
                <path d="M31,2 C49.4,2 61.3,21.5 61.3,34.5" id="Shape" fill="#EA7103"></path>
                <g transform="translate(17.000000, 21.000000)">
                    <ellipse id="Oval" fill="#EA7103" cx="3.6" cy="2.6" rx="3.2" ry="2"></ellipse>
                    <ellipse id="Oval" fill="#EA7103" cx="24.4" cy="2.6" rx="3.2" ry="2"></ellipse>
                    <ellipse id="Oval" fill="#1E4784" cx="3.6" cy="2" rx="3.2" ry="2"></ellipse>
                    <path d="M3.6,0.1 C5.4,0.1 6.8,1 6.8,2.1 C6.8,3.2 5.4,4.1 3.6,4.1" id="Shape" fill="#00233F"></path>
                    <ellipse id="Oval" fill="#1E4784" cx="24.4" cy="2" rx="3.2" ry="2"></ellipse>
                    <path d="M24.4,0.1 C26.2,0.1 27.6,1 27.6,2.1 C27.6,3.2 26.2,4.1 24.4,4.1" id="Shape" fill="#00233F"></path>
                </g>
                <g transform="translate(18.000000, 8.000000)" id="Shape">
                    <g fill="#19BCA4">
                        <path d="M6.2,7.5 C5.9,8.3 4.7,7.3 3,6.6 C1.3,5.9 -0.2,5.7 0.2,4.9 C0.5,4.1 2.2,4 3.8,4.7 C5.5,5.5 6.5,6.7 6.2,7.5 Z"></path>
                        <path d="M19.7,3.9 C20.1,4.7 21.2,3.6 22.8,2.7 C24.4,1.8 25.9,1.5 25.5,0.8 C25.1,-7.77156117e-16 23.5,0.1 21.9,1 C20.2,1.8 19.3,3.1 19.7,3.9 Z"></path>
                    </g>
                    <g fill="#109DA0">
                        <path d="M6.2,7.5 C5.9,8.3 4.7,7.3 3,6.6 C1.3,5.9 -0.2,5.7 0.2,4.9"></path>
                        <path d="M19.7,3.9 C20.1,4.7 21.2,3.6 22.8,2.7 C24.4,1.8 25.9,1.5 25.5,0.8"></path>
                    </g>
                </g>
                <g transform="translate(11.000000, 25.000000)" id="Shape">
                    <path d="M15.8,2.8 C15.8,4 12.3,3.5 8,3.5 C3.7,3.5 0.2,4.1 0.2,2.8 C0.2,1.6 3.7,0.6 8,0.6 C12.3,0.6 15.8,1.6 15.8,2.8 Z" fill="#F9C55D"></path>
                    <path d="M39.8,2.8 C39.8,4 36.3,3.5 32,3.5 C27.7,3.5 24.2,4.1 24.2,2.8 C24.2,1.6 27.7,0.6 32,0.6 C36.3,0.6 39.8,1.6 39.8,2.8 Z" fill="#F9A908"></path>
                </g>
                <circle id="Oval" fill="#F7910B" cx="9.3" cy="31.4" r="1"></circle>
                <ellipse id="Oval" fill="#F7910B" cx="4.8" cy="33.4" rx="1.1" ry="1.1"></ellipse>
                <ellipse id="Oval" fill="#F7910B" cx="7.8" cy="29.4" rx="1" ry="1"></ellipse>
                <circle id="Oval" fill="#F7910B" cx="12.4" cy="31.2" r="1"></circle>
                <ellipse id="Oval" fill="#F9A908" cx="51.6" cy="31.8" rx="1" ry="1"></ellipse>
                <circle id="Oval" fill="#F9A908" cx="54.1" cy="33.2" r="1"></circle>
                <circle id="Oval" fill="#F9A908" cx="48.8" cy="24.4" r="1"></circle>
                <circle id="Oval" fill="#F9A908" cx="48.3" cy="36" r="1.3"></circle>
                <circle id="Oval" fill="#F9A908" cx="55.5" cy="36.1" r="1"></circle>
                <ellipse id="Oval" fill="#F7910B" cx="8.3" cy="35.5" rx="1" ry="1"></ellipse>
                <circle id="Oval" fill="#F7910B" cx="9.1" cy="27.1" r="1"></circle>
                <ellipse id="Oval" fill="#F9A908" cx="3.8" cy="13.3" rx="1.1" ry="1.1"></ellipse>
                <ellipse id="Oval" fill="#F9A908" cx="7" cy="9.7" rx="1" ry="1"></ellipse>
                <ellipse id="Oval" fill="#F9A908" cx="58.2" cy="15.7" rx="1" ry="1"></ellipse>
                <ellipse id="Oval" fill="#F9A908" cx="57.4" cy="12.7" rx="1" ry="1"></ellipse>
                <circle id="Oval" fill="#F9A908" cx="60" cy="13.3" r="1"></circle>
                <ellipse id="Oval" fill="#F9A908" cx="5" cy="16.2" rx="1" ry="1"></ellipse>
            </g>
            <g id="Group" transform="translate(6.000000, 6.000000)">
                <polygon id="Shape" fill="#F9C55D" points="49.7 23.5 41.8 24.7 38.4 27.3 35.1 24.7 31.7 27.3 28.4 24.7 25 27.3 21.6 24.7 18.3 27.3 14.9 24.7 11.6 27.3 8.2 24.7 0.3 23.5 8.2 39.8 11.6 37.1 14.9 39.8 18.3 37.1 21.6 39.8 25 37.1 28.4 39.8 31.7 37.1 35.1 39.8 38.4 37.1 41.8 39.8"></polygon>
                <polygon id="Shape" fill="#960E08" points="49.7 23.5 41.8 26.1 38.4 28.7 35.1 26.1 31.7 28.7 28.4 26.1 25 28.7 21.6 26.1 18.3 28.7 14.9 26.1 11.6 28.7 8.2 26.1 0.3 23.5 8.2 38.4 11.6 35.8 14.9 38.4 18.3 35.8 21.6 38.4 25 35.8 28.4 38.4 31.7 35.8 35.1 38.4 38.4 35.8 41.8 38.4"></polygon>
                <polygon id="Shape" fill="#490101" points="8.2 30.9 11.6 33.5 14.9 30.9 18.3 33.5 21.6 30.9 25 33.5 28.4 30.9 31.7 33.5 35.1 30.9 38.4 33.5 41.8 30.9 46.6 29.3 49.7 23.5 41.8 26.1 38.4 28.7 35.1 26.1 31.7 28.7 28.4 26.1 25 28.7 21.6 26.1 18.3 28.7 14.9 26.1 11.6 28.7 8.2 26.1 0.3 23.5 3.4 29.3"></polygon>
                <g transform="translate(24.000000, 0.000000)" id="Shape" fill="#F9C55D">
                    <path d="M2,1 C2,1.6 1.6,2 1,2 L1,2 C0.4,2 0,1.6 0,1 L0,1 C0,0.4 0.4,0 1,0 L1,0 C1.6,0 2,0.4 2,1 L2,1 Z"></path>
                    <path d="M2,8 C2,8.6 1.6,9 1,9 L1,9 C0.4,9 0,8.6 0,8 L0,8 C0,7.4 0.4,7 1,7 L1,7 C1.6,7 2,7.4 2,8 L2,8 Z"></path>
                    <path d="M2,15 C2,15.6 1.6,16 1,16 L1,16 C0.4,16 0,15.6 0,15 L0,15 C0,14.4 0.4,14 1,14 L1,14 C1.6,14 2,14.4 2,15 L2,15 Z"></path>
                    <path d="M2,21.8 C2,22.4 1.5,22.8 1,22.8 L1,22.8 C0.4,22.8 0,22.3 0,21.8 L0,21.8 C0,21.2 0.5,20.8 1,20.8 L1,20.8 C1.6,20.8 2,21.3 2,21.8 L2,21.8 Z"></path>
                </g>
            </g>
            <path d="M36.1,3.3 C36.1,5.1 33.8,4.5 31,4.5 C28.2,4.5 25.9,5 25.9,3.3 C25.9,1.6 28.2,0 31,0 C33.8,0 36.1,1.5 36.1,3.3 Z" id="Shape" fill="#109DA0"></path>
            <path d="M36.1,3.3 C36.1,5.1 33.8,4.5 31,4.5 C28.2,4.5 25.9,5 25.9,3.3" id="Shape" fill="#19BCA4"></path>
        </g>
    </g>
</svg>