<svg height="58" viewBox="0 0 62 58" width="62" xmlns="http://www.w3.org/2000/svg"><g fill="none"><ellipse cx="19.7" cy="42.8" fill="#fffefa" rx="5.1" ry="5.1"/><path d="m61.3 34.5c0 13-11.9 23.5-30.3 23.5s-30.3-10.5-30.3-23.5 11.9-32.5 30.3-32.5 30.3 19.5 30.3 32.5z" fill="#f7910b"/><path d="m61.3 34.5c0 13-11.9 19.5-30.3 19.5s-30.3-6.5-30.3-19.5 11.9-34.5 30.3-34.5 30.3 21.5 30.3 34.5z" fill="#f7910b"/><path d="m31 0c18.4 0 30.3 21.5 30.3 34.5s-11.9 19.5-30.3 19.5" fill="#f9a908"/><path d="m61.3 34.5c0 13-11.9 19.5-30.3 19.5s-30.3-6.5-30.3-19.5 11.9-32.5 30.3-32.5 30.3 19.5 30.3 32.5z" fill="#f9a908"/><path d="m.7 34.5c0-13 11.9-32.5 30.3-32.5" fill="#f9c55d"/><path d="m31 2c18.4 0 30.3 19.5 30.3 32.5s-11.9 23.5-30.3 23.5" fill="#f7910b"/><path d="m31 2c18.4 0 30.3 19.5 30.3 32.5" fill="#ea7103"/><g transform="translate(20 9)"><path d="m6.2 6c-.8 1-1.7-.6-3.4-2-1.6-1.4-3.4-2-2.6-3s2.8-.7 4.5.7 2.3 3.3 1.5 4.3z" fill="#19bca4"/><path d="m6.2 6c-.8 1-1.7-.6-3.4-2-1.6-1.4-3.4-2-2.6-3" fill="#109da0"/></g><g transform="translate(35 9)"><path d="m.8 6c.8 1 1.7-.6 3.4-2 1.6-1.4 3.4-2 2.6-3s-2.8-.7-4.5.7-2.3 3.3-1.5 4.3z" fill="#19bca4"/><path d="m.8 6c.8 1 1.7-.6 3.4-2 1.6-1.4 3.4-2 2.6-3" fill="#109da0"/></g><g transform="translate(11 25)"><path d="m15.8 2.8c0 1.2-3.5.7-7.8.7s-7.8.6-7.8-.7c0-1.2 3.5-2.2 7.8-2.2s7.8 1 7.8 2.2z" fill="#f9c55d"/><path d="m39.8 2.8c0 1.2-3.5.7-7.8.7s-7.8.6-7.8-.7c0-1.2 3.5-2.2 7.8-2.2s7.8 1 7.8 2.2z" fill="#f9a908"/></g><ellipse cx="9.3" cy="31.5" fill="#f7910b" rx="1" ry="1"/><ellipse cx="4.8" cy="33.5" fill="#f7910b" rx="1.1" ry="1.1"/><ellipse cx="7.8" cy="29.5" fill="#f7910b" rx="1" ry="1"/><circle cx="12.4" cy="31.3" fill="#f7910b" r="1"/><circle cx="51.6" cy="31.8" fill="#f9a908" r="1"/><circle cx="54.1" cy="33.2" fill="#f9a908" r="1"/><circle cx="48.8" cy="24.4" fill="#f9a908" r="1"/><circle cx="48.3" cy="36" fill="#f9a908" r="1.3"/><circle cx="55.5" cy="36.1" fill="#f9a908" r="1"/><ellipse cx="8.3" cy="35.5" fill="#f7910b" rx="1" ry="1"/><circle cx="9.1" cy="27.1" fill="#f7910b" r="1"/><g fill="#f9a908"><ellipse cx="3.8" cy="13.3" rx="1.1" ry="1.1"/><ellipse cx="7" cy="9.8" rx="1" ry="1"/><circle cx="58.2" cy="15.7" r="1"/><ellipse cx="57.4" cy="12.8" rx="1" ry="1"/><path d="m60.5 13.3c0 .3-.2.5-.5.5s-.5-.2-.5-.5.2-.5.5-.5c.2 0 .5.3.5.5z"/><ellipse cx="5" cy="16.3" rx="1" ry="1"/></g><g transform="translate(14 18)"><path d="m3.2.4c.4.1.7.4.9.8.9 1.8 3 2.5 4.8 1.7.8-.4 1.8 0 2.2.8s0 1.8-.8 2.2c-3.4 1.6-7.6.2-9.2-3.2-.4-.8 0-1.8.8-2.2.5-.2.9-.2 1.3-.1z" fill="#1e4784"/><path d="m1.2 2.7c-.4-.8 0-1.8.8-2.2.4-.2.9-.2 1.3-.1s.7.4.9.8c.9 1.8 3 2.5 4.8 1.7.8-.4 1.8 0 2.2.8s0 1.8-.8 2.2" fill="#02243e"/></g><g transform="translate(36 18)"><path d="m8.8.4c-.4.1-.7.4-.9.8-.9 1.8-3 2.5-4.8 1.7-.8-.4-1.8 0-2.2.8s0 1.8.8 2.2c3.4 1.6 7.6.2 9.2-3.2.4-.8 0-1.8-.8-2.2-.5-.2-.9-.2-1.3-.1z" fill="#1e4784"/><path d="m10.8 2.7c.4-.8 0-1.8-.8-2.2-.4-.2-.9-.2-1.3-.1s-.7.4-.9.8c-.9 1.8-3 2.5-4.8 1.7-.8-.4-1.8 0-2.2.8s0 1.8.8 2.2" fill="#02243e"/></g><g transform="translate(14 27)"><path d="m9.6 11.9c0-2.6 3.3-4.7 7.4-4.7s7.4 2.1 7.4 4.7" fill="#f7910b"/><g fill="#02243e"><g transform="translate(0 5)"><path d="m29.4 5.6c-.6 0-1.1-.5-1.1-1.1 0-2.1 1.7-3.8 3.8-3.8.6 0 1.1.5 1.1 1.1s-.6 1.2-1.2 1.2c-.9 0-1.6.7-1.6 1.6.1.5-.4 1-1 1z"/><path d="m4.6 5.6c-.6 0-1.1-.5-1.1-1.1 0-.9-.7-1.6-1.6-1.6-.6 0-1.1-.5-1.1-1.1s.5-1.1 1.1-1.1c2.1 0 3.8 1.7 3.8 3.8 0 .6-.5 1.1-1.1 1.1z"/></g><path d="m30.2 8.5c-.3 0-.6-.1-.8-.3-3.3-3.4-7.7-5.2-12.4-5.2s-9.1 1.8-12.4 5.1c-.4.4-1.1.4-1.6 0-.4-.4-.4-1.1 0-1.6 3.7-3.7 8.7-5.8 13.9-5.8s10.2 2.1 13.9 5.8c.4.4.4 1.1 0 1.6-.1.3-.4.4-.6.4z"/></g></g><g transform="translate(6 27)"><path d="m18.3 14.5 3.5-14-8.8 8.7c-.4-.1-.8-.1-1.2-.1-1.2 0-2.3.4-3.2 1.1-.7-.3-1.4-.4-2.2-.4-3.2 0-5.9 2.6-5.9 5.9 0 1.5.6 2.9 1.6 4-.7 1-1.2 2.2-1.2 3.5 0 3.2 2.6 5.9 5.9 5.9 1.3 0 2.5-.5 3.5-1.2.9.7 2 1.1 3.2 1.1 2.8 0 5-2.1 5.3-4.7 1.6-.9 2.8-2.7 2.8-4.7 0-2.4-1.4-4.3-3.3-5.1z" fill="#fffefa"/><path d="m31.7 14.5-3.5-14 8.7 8.7c.4-.1.8-.1 1.2-.1 1.2 0 2.3.4 3.2 1.1.7-.3 1.4-.4 2.2-.4 3.2 0 5.9 2.6 5.9 5.9 0 1.5-.6 2.9-1.6 4 .7 1 1.2 2.2 1.2 3.5 0 3.2-2.6 5.9-5.9 5.9-1.3 0-2.5-.5-3.5-1.2-.9.7-2 1.1-3.2 1.1-2.8 0-5-2.1-5.3-4.7-1.6-.9-2.8-2.7-2.8-4.7.1-2.4 1.5-4.3 3.4-5.1z" fill="#ede5ce"/></g></g></svg>