<svg height="60" viewBox="0 0 62 60" width="62" xmlns="http://www.w3.org/2000/svg"><g fill="none"><ellipse cx="11.60374" cy="50.79842" fill="#ea7103" rx="8.799872" ry="8.499876" transform="matrix(.96181398 -.27370398 .27370398 .96181398 -14.460629 5.115779)"/><g transform=""><path d="m61.3 35.2c0 13-11.9 23.5-30.3 23.5s-30.3-10.5-30.3-23.5 11.9-32.5 30.3-32.5 30.3 19.5 30.3 32.5z" fill="#f7910b"/><path d="m61.3 35.2c0 13-11.9 19.5-30.3 19.5s-30.3-6.5-30.3-19.5 11.9-34.5 30.3-34.5 30.3 21.5 30.3 34.5z" fill="#f7910b"/><path d="m31 .7c18.4 0 30.3 21.5 30.3 34.5s-11.9 19.5-30.3 19.5" fill="#f9a908"/><path d="m61.3 35.2c0 13-11.9 19.5-30.3 19.5s-30.3-6.5-30.3-19.5 11.9-32.5 30.3-32.5 30.3 19.5 30.3 32.5z" fill="#f9a908"/><path d="m.7 35.2c0-13 11.9-32.5 30.3-32.5" fill="#f9c55d"/><path d="m31 2.7c18.4 0 30.3 19.5 30.3 32.5s-11.9 23.5-30.3 23.5" fill="#f7910b"/><path d="m31 2.7c18.4 0 30.3 19.5 30.3 32.5" fill="#ea7103"/><g transform="translate(17 19)"><ellipse cx="3.6" cy="4.4" fill="#ea7103" rx="3.2" ry="3.2"/><ellipse cx="24.4" cy="4.4" fill="#ea7103" rx="3.2" ry="3.2"/><ellipse cx="3.6" cy="3.5" fill="#1e4784" rx="3.2" ry="3.2"/><path d="m3.6.3c1.8 0 3.2 1.4 3.2 3.2s-1.4 3.2-3.2 3.2" fill="#00233f"/><ellipse cx="24.4" cy="3.5" fill="#1e4784" rx="3.2" ry="3.2"/><path d="m24.4.3c1.8 0 3.2 1.4 3.2 3.2s-1.4 3.2-3.2 3.2" fill="#00233f"/></g><g fill="#19bca4" transform="translate(18 8)"><path d="m6.2 8.2c-.3.8-1.5-.2-3.2-.9s-3.2-.9-2.8-1.7c.3-.8 2-.9 3.6-.2 1.7.8 2.7 2.1 2.4 2.8z"/><path d="m19.7 4.6c.4.8 1.5-.3 3.1-1.2s3.1-1.2 2.7-1.9c-.4-.8-2-.7-3.6.2-1.7.8-2.6 2.1-2.2 2.9z"/></g><g fill="#109da0" transform="translate(18 9)"><path d="m6.2 7.2c-.3.8-1.5-.2-3.2-.9s-3.2-.9-2.8-1.7"/><path d="m19.7 3.6c.4.8 1.5-.3 3.1-1.2s3.1-1.2 2.7-1.9"/></g><g transform="translate(11 26)"><path d="m15.8 2.5c0 1.2-3.5.7-7.8.7s-7.8.6-7.8-.7c0-1.2 3.5-2.2 7.8-2.2s7.8 1 7.8 2.2z" fill="#f9c55d"/><path d="m39.8 2.5c0 1.2-3.5.7-7.8.7s-7.8.6-7.8-.7c0-1.2 3.5-2.2 7.8-2.2s7.8 1 7.8 2.2z" fill="#f9a908"/></g><ellipse cx="9.3" cy="32.2" fill="#f7910b" rx="1" ry="1"/><ellipse cx="4.8" cy="34.2" fill="#f7910b" rx="1.1" ry="1.1"/><ellipse cx="7.8" cy="30.2" fill="#f7910b" rx="1" ry="1"/><circle cx="12.4" cy="32" fill="#f7910b" r="1"/><circle cx="51.6" cy="32.5" fill="#f9a908" r="1"/><circle cx="54.1" cy="33.9" fill="#f9a908" r="1"/><circle cx="48.8" cy="25.1" fill="#f9a908" r="1"/><ellipse cx="48.3" cy="36.7" fill="#f9a908" rx="1.3" ry="1.3"/><circle cx="55.5" cy="36.8" fill="#f9a908" r="1"/><ellipse cx="8.3" cy="36.2" fill="#f7910b" rx="1" ry="1"/><circle cx="9.1" cy="27.8" fill="#f7910b" r="1"/><g fill="#f9a908"><ellipse cx="3.8" cy="14" rx="1.1" ry="1.1"/><ellipse cx="7" cy="10.5" rx="1" ry="1"/><circle cx="58.2" cy="16.4" r="1"/><ellipse cx="57.4" cy="13.5" rx="1" ry="1"/><circle cx="60" cy="14" r="1"/><ellipse cx="5" cy="17" rx="1" ry="1"/></g></g><g transform="translate(1 30)"><path d="m22.7 10.3c.3 7.4-1.5 5.6-3.6 5.7s-3.8 2.1-4.1-5.3c-.3-7.4 1.3-10.4 3.4-10.5 2.2-.1 4 2.7 4.3 10.1z" fill="#ccf2e3"/><path d="m18.5.2c2.1-.1 4 2.8 4.3 10.2s-1.5 5.6-3.6 5.7" fill="#aad6c3"/><path d="m23 15.2c.3 6.8-3 12.7-9.9 13s-12.7-5-13-11.8 5.2-9.6 12.1-9.9c6.8-.3 10.5 1.9 10.8 8.7z" fill="#ccf2e3"/><path d="m23 15.2c.3 6.8-3 12.7-9.9 13s-9.6-5.7-9.6-12.5c0-5.3-2.5-8.1 8.3-9.2 6.8-.6 10.9 1.7 11.2 8.7z" fill="#aad6c3"/><path d="m27.3 14c1.7 1.9-.8 6.7-5.4 10.7s-9.7 4-11.4 2.1c-1.6-1.9.8-4.9 5.4-9 4.7-4 9.8-5.7 11.4-3.8z" fill="#ccf2e3"/><path d="m27.3 14c1.7 1.9-.8 6.7-5.4 10.7s-9.7 4-11.4 2.1" fill="#aad6c3"/><g fill="#e7f7ef"><path d="m16.4 2.8c-.4 1-.5 1.8-.2 2 .3.1.9-.6 1.3-1.5.4-1 .5-1.8.2-2s-.9.5-1.3 1.5z"/><path d="m2.4 14.6c.1 2.2-.2 4.1-.7 4.1s-1-1.8-1.2-4c-.1-2.2.2-2.8.7-2.8.7-.1 1.1.4 1.2 2.7z"/><path d="m20.7 15.4c1.6-1 3.1-1.5 3.4-1.1s-.8 1.6-2.4 2.6-2.2.9-2.5.5c-.2-.4-.1-1 1.5-2z"/></g><path d="m11.4 11c.3 2.7-.1 5-1 5.1s-1.8-2-2.1-4.7.3-3.6 1.1-3.7c.9-.1 1.7.6 2 3.3z" fill="#ccf2e3"/><path d="m8.7 11.1c0 1 .3 1.9.7 1.9.3 0 .5-.9.5-1.9s-.3-1.9-.7-1.9c-.3 0-.5.9-.5 1.9z" fill="#e7f7ef"/></g><g transform="translate(23 32)"><path d="m15.4 1.3c0 2.6-3.3 4.7-7.4 4.7s-7.4-2.1-7.4-4.7" fill="#f7910b"/><path d="m15 2h-14c-.6 0-1-.4-1-1s.4-1 1-1h14c.6 0 1 .4 1 1s-.4 1-1 1z" fill="#02243e"/></g></g></svg>