<svg height="55" viewBox="0 0 63 55" width="63" xmlns="http://www.w3.org/2000/svg"><g fill="none"><path d="m61.08 32.223c0 12.031-13.243 15.408-29.579 15.408s-29.581-3.377-29.581-15.408c0-12.033 13.244-21.787 29.58-21.787s29.58 9.753 29.58 21.787z" fill="#c6bd8b"/><path d="m61.08 32.223c0 12.031-13.243 15.408-29.579 15.408s-29.581-3.377-29.581-15.408c0-12.033 13.244-18.762 29.58-18.762s29.58 6.728 29.58 18.762z" fill="#b5ad74"/><path d="m61.08 32.223c0 12.031-13.243 15.408-29.579 15.408s-29.581-3.377-29.581-15.408c0-12.033 13.244-5.492 29.58-5.492s29.58-6.542 29.58 5.492z" fill="#9e945a"/><g fill="#082856"><ellipse cx="19.81" cy="29.918" rx="2.657" ry="2.657"/><ellipse cx="43.19" cy="29.918" rx="2.657" ry="2.657"/></g><g fill="#000" transform="translate(17 29)"><path d="m5.467.918c0 1.469-1.189 2.658-2.657 2.658s-2.657-1.189-2.657-2.658"/><path d="m28.847.918c0 1.469-1.189 2.658-2.656 2.658-1.468 0-2.657-1.189-2.657-2.658"/></g><g fill="#9e945a"><ellipse cx="7.5" cy="45.023" rx="4" ry="9.062"/><ellipse cx="13.5" cy="45.023" rx="4" ry="9.062"/><ellipse cx="19.5" cy="45.023" rx="4" ry="9.062"/><ellipse cx="25.5" cy="45.023" rx="4" ry="9.062"/><ellipse cx="31.5" cy="45.023" rx="4" ry="9.062"/><ellipse cx="37.5" cy="45.023" rx="4" ry="9.062"/><ellipse cx="43.5" cy="45.023" rx="4" ry="9.062"/><ellipse cx="49.5" cy="45.023" rx="4" ry="9.062"/><ellipse cx="55.5" cy="45.023" rx="4" ry="9.062"/></g><g fill="#9e945a"><ellipse cx="5.167" cy="38.336" rx="4.187" ry="12.188"/><ellipse cx="57.833" cy="38.336" rx="4.187" ry="12.188"/></g><path d="m27.93712 31.8387h7.123932v7.123932h-7.123932z" fill="#fcd827" transform="matrix(.70720678 -.70700677 .70700677 .70720678 -15.805792 32.635142)"/><path d="m36.539 35.398-5.039 5.038-5.038-5.038 5.038 1.145z" fill="#e0a624"/><path d="m30.726 20.127s1.5-5.334-7.5-8.459-1.5-8.625 3-5.5c0 0-1.578-1.064-2.126-2.875-.666-2.207 7.376-4.75 9.126 1.875 0 0-1.306-1.734-.626-2.875.834-1.395 4.331-1.105 6.084 1.293 2.376 3.25 1.042 6.582-2.208 7.832s-5.75 8.709-5.75 8.709z" fill="#b51063"/><path d="m32.6 2.293c-.186.314-.217.67-.172 1.025-2.629-4.201-8.921-1.99-8.328-.025.548 1.811 2.126 2.875 2.126 2.875-4.5-3.125-12 2.375-3 5.5.022.008.044.018.066.025 1.825.102 3.832.021 5.929-.281 4.516-.652 8.369-2.162 10.631-3.951.146-1.207-.197-2.547-1.168-3.875-1.753-2.398-5.25-2.688-6.084-1.293z" fill="#ce1d7e"/><g fill="#f27ec3"><path d="m26.434 7.305c0 .535-1.367.031-2.938.031s-2.75.504-2.75-.031 1.273-.969 2.844-.969 2.844.434 2.844.969z"/><path d="m29.899 2.445c-.002.439-.976.016-2.096.008-1.122-.008-1.967.4-1.965-.039.003-.441.916-.791 2.036-.783 1.123.008 2.029.373 2.025.814z"/><path d="m36.399 2.992c-.002.473-.66.021-1.418.016-.76-.006-1.333.436-1.33-.037.002-.471.622-.85 1.381-.846.759.006 1.371.395 1.367.867z"/></g></g></svg>