<svg height="47" viewBox="0 0 65 47" width="65" xmlns="http://www.w3.org/2000/svg"><g fill="none"><g transform="translate(2 9)"><path d="m60.08 22.57c0 12.031-13.243 15.408-29.579 15.408s-29.581-3.376-29.581-15.408c0-12.033 13.244-21.787 29.58-21.787s29.58 9.754 29.58 21.787z" fill="#ace8e6"/><path d="m60.08 22.57c0 12.031-13.243 15.408-29.579 15.408s-29.581-3.376-29.581-15.408c0-12.033 13.244-18.762 29.58-18.762s29.58 6.729 29.58 18.762z" fill="#8ed6d6"/><path d="m60.08 22.57c0 12.031-13.243 15.408-29.579 15.408s-29.581-3.376-29.581-15.408c0-12.033 13.244-5.492 29.58-5.492s29.58-6.541 29.58 5.492z" fill="#76c1bf"/><g fill="#082856"><circle cx="18.81" cy="24.266" r="2.657"/><circle cx="42.19" cy="24.266" r="2.657"/></g><g fill="#000" transform="translate(16 24)"><path d="m5.467.266c0 1.469-1.189 2.658-2.657 2.658s-2.657-1.189-2.657-2.658"/><path d="m28.847.266c0 1.469-1.189 2.658-2.656 2.658-1.468 0-2.657-1.189-2.657-2.658"/></g></g><path d="m1.466 1.686c-3.059 3.127 2.917 5.072 7.888 9.93 4.967 4.861 7.044 10.795 10.103 7.67 3.056-3.125 1.509-9.6-3.459-14.459-4.969-4.86-11.475-6.266-14.532-3.141z" fill="#8ed6d6"/><path d="m13.27 6.686c-3.934-3.848-8.825-5.52-12.214-4.502-1.99 2.848 3.6 4.838 8.298 9.432 3.845 3.764 5.959 8.15 8.138 8.498 1.94-3.368.254-9.05-4.222-13.428z" fill="#dd4389"/><path d="m11.27 8.686c3.214 3.145 6.069 6.969 6.096 10.117l.126 1.311c1.94-3.367.254-9.049-4.222-13.428-3.934-3.848-8.825-5.52-12.214-4.502" fill="#9b1b61"/><g transform="translate(43)"><path d="m20.534 1.686c3.06 3.127-2.917 5.072-7.887 9.93-4.966 4.861-7.044 10.795-10.103 7.67-3.056-3.125-1.509-9.6 3.458-14.459 4.97-4.86 11.476-6.266 14.532-3.141z" fill="#8ed6d6"/><path d="m8.73 6.686c3.934-3.848 8.826-5.52 12.215-4.502 1.99 2.848-3.6 4.838-8.298 9.432-3.845 3.764-5.959 8.15-8.138 8.498-1.94-3.368-.255-9.05 4.221-13.428z" fill="#dd4389"/><path d="m10.73 8.686c-3.214 3.145-6.068 6.969-6.096 10.117l-.125 1.311c-1.94-3.367-.255-9.049 4.221-13.428 3.934-3.848 8.826-5.52 12.215-4.502" fill="#9b1b61"/></g><path d="m38.199 36.141c0 1.617-2.552 4.078-5.698 4.078-3.148 0-5.698-2.461-5.698-4.078s2.55-1.463 5.698-1.463c3.146 0 5.698-.155 5.698 1.463z" fill="#b7257c"/><path d="m38.199 36.141c0 1.617-2.552 4.078-5.698 4.078-3.148 0-5.698-2.461-5.698-4.078s2.55.453 5.698.453c3.146 0 5.698-2.071 5.698-.453z" fill="#9b1b61"/><path d="m32.5 43.846c-1.278 0-2.5-.047-3.5-.125v.781c0 1.064.788 1.928 1.853 1.928.758 0 1.371-.443 1.686-1.082.314.639.871 1.082 1.63 1.082 1.062 0 1.832-.863 1.832-1.928v-.781c-1.001.078-2.223.125-3.501.125z" fill="#ebf0f2"/></g></svg>