<svg height="64" viewBox="0 0 62 64" width="62" xmlns="http://www.w3.org/2000/svg"><g fill="none"><path d="m61.3 39.9c0 13-11.9 23.5-30.3 23.5s-30.3-10.5-30.3-23.5 11.9-32.5 30.3-32.5 30.3 19.5 30.3 32.5z" fill="#f7910b"/><path d="m61.3 39.9c0 13-11.9 19.5-30.3 19.5s-30.3-6.5-30.3-19.5 11.9-34.5 30.3-34.5 30.3 21.5 30.3 34.5z" fill="#f7910b"/><path d="m31 5.4c18.4 0 30.3 21.5 30.3 34.5s-11.9 19.5-30.3 19.5" fill="#f9a908"/><path d="m61.3 39.9c0 13-11.9 19.5-30.3 19.5s-30.3-6.5-30.3-19.5 11.9-32.5 30.3-32.5 30.3 19.5 30.3 32.5z" fill="#f9a908"/><path d="m.7 39.9c0-13 11.9-32.5 30.3-32.5" fill="#f9c55d"/><path d="m31 7.4c18.4 0 30.3 19.5 30.3 32.5s-11.9 23.5-30.3 23.5" fill="#f7910b"/><path d="m31 7.4c18.4 0 30.3 19.5 30.3 32.5" fill="#ea7103"/><path d="m24.7 23c.3.8-1.2.9-2.9 1.5s-2.9 1.5-3.2.7.8-2 2.5-2.6c1.6-.6 3.3-.5 3.6.4z" fill="#19bca4"/><path d="m37.3 18.4c0 .9 1.4.5 3.3.6 1.8.1 3.3.6 3.3-.3s-1.4-1.6-3.2-1.7c-1.9-.1-3.4.5-3.4 1.4z" fill="#19bca4"/><path d="m24.7 23c.3.8-1.2.9-2.9 1.5s-2.9 1.5-3.2.7" fill="#109da0"/><path d="m37.3 18.4c0 .9 1.4.5 3.3.6 1.8.1 3.3.6 3.3-.3" fill="#109da0"/><circle cx="9.3" cy="36.9" fill="#f7910b" r="1"/><circle cx="4.8" cy="38.9" fill="#f7910b" r="1.1"/><circle cx="7.8" cy="34.9" fill="#f7910b" r="1"/><circle cx="12.4" cy="36.7" fill="#f7910b" r="1"/><circle cx="51.6" cy="37.2" fill="#f9a908" r="1"/><circle cx="54.1" cy="38.6" fill="#f9a908" r="1"/><circle cx="48.8" cy="29.8" fill="#f9a908" r="1"/><circle cx="43.9" cy="28.7" fill="#f9a908" r="1.3"/><circle cx="55.5" cy="41.5" fill="#f9a908" r="1"/><circle cx="8.3" cy="40.9" fill="#f7910b" r="1"/><circle cx="9.1" cy="32.5" fill="#f7910b" r="1"/><circle cx="3.8" cy="18.7" fill="#f9a908" r="1.1"/><circle cx="7" cy="15.2" fill="#f9a908" r="1"/><circle cx="58.2" cy="21.1" fill="#f9a908" r="1"/><circle cx="57.4" cy="18.2" fill="#f9a908" r="1"/><path d="m60.5 18.7c0 .3-.2.5-.5.5s-.5-.2-.5-.5.2-.5.5-.5c.2 0 .5.3.5.5z" fill="#f9a908"/><circle cx="5" cy="21.7" fill="#f9a908" r="1"/><g transform="translate(9)"><path d="m22 1.3c-12.1 0-21.9 1.4-21.9 3 0 1.7 9.8 4.7 21.9 4.7s21.9-3 21.9-4.7-9.8-3-21.9-3zm0 4.1c-6.8 0-12.3-.8-12.3-1.7s5.5-1.7 12.3-1.7 12.3.8 12.3 1.7-5.5 1.7-12.3 1.7z" fill="#ce3674"/><path d="m22 .6c-12.1 0-21.9 1.4-21.9 3 0 1.7 9.8 3 21.9 3s21.9-1.4 21.9-3-9.8-3-21.9-3zm0 4.1c-6.8 0-12.3-.7-12.3-1.7 0-.9 5.5-1.7 12.3-1.7s12.3.8 12.3 1.7c0 1-5.5 1.7-12.3 1.7z" fill="#ea5c93"/></g><g transform="translate(9 40)"><path d="m17.4 2.6c0 1.3-3.8.7-8.6.7-4.7 0-8.6.6-8.6-.7s3.8-2.4 8.6-2.4 8.6 1.1 8.6 2.4z" fill="#f9c55d"/><path d="m43.8 2.6c0 1.3-3.8.7-8.6.7-4.7 0-8.6.6-8.6-.7s3.8-2.4 8.6-2.4c4.7 0 8.6 1.1 8.6 2.4z" fill="#f9a908"/></g><g transform="translate(14 35)"><path d="m1.7.4c.4 0 .8.2 1.2.5 1.4 1.4 3.7 1.4 5.1 0 .6-.6 1.7-.7 2.3 0 .6.6.7 1.7 0 2.3-2.7 2.7-7.1 2.7-9.8 0-.6-.6-.7-1.7 0-2.3.4-.3.8-.5 1.2-.5z" fill="#1e4784"/><path d="m.6 3.2c-.6-.6-.7-1.7 0-2.3.3-.3.7-.5 1.2-.5.4 0 .8.2 1.2.5 1.4 1.4 3.7 1.4 5.1 0 .6-.6 1.7-.7 2.3 0 .6.6.7 1.7 0 2.3" fill="#02243e"/></g><g transform="translate(37 35)"><path d="m9.3.4c-.4 0-.8.2-1.2.5-1.4 1.4-3.7 1.4-5.1 0-.6-.6-1.7-.7-2.3 0-.6.6-.7 1.7 0 2.3 2.7 2.7 7.1 2.7 9.8 0 .6-.6.6-1.7 0-2.3-.4-.3-.8-.5-1.2-.5z" fill="#1e4784"/><path d="m10.4 3.2c.6-.6.6-1.7 0-2.3-.3-.3-.7-.5-1.2-.5-.4 0-.8.2-1.2.5-1.4 1.4-3.7 1.4-5.1 0-.6-.6-1.7-.7-2.3 0-.6.6-.7 1.7 0 2.3" fill="#02243e"/></g><g transform="translate(14 42)"><path d="m24.4 7.1c0 2.6-3.3 7.3-7.4 7.3s-7.4-4.7-7.4-7.3" fill="#f7910b"/><g fill="#02243e"><g><path d="m2 5c-.6 0-1.1-.5-1.1-1.1s.5-1.1 1.1-1.1c.9 0 1.6-.7 1.6-1.6 0-.6.5-1.1 1.1-1.1s1.1.5 1.1 1.1c-.1 2.1-1.8 3.8-3.8 3.8z"/><path d="m32 5c-2.1 0-3.8-1.7-3.8-3.8 0-.6.5-1.1 1.1-1.1s1.1.5 1.1 1.1c0 .9.7 1.6 1.6 1.6.6 0 1.1.5 1.1 1.1s-.5 1.1-1.1 1.1z"/></g><path d="m17 9.9c-5 0-10.1-1.9-13.9-5.8-.4-.4-.4-1.1 0-1.6.4-.4 1.1-.4 1.6 0 6.8 6.8 17.9 6.8 24.8 0 .4-.4 1.1-.4 1.6 0 .4.4.4 1.1 0 1.6-4 3.9-9.1 5.8-14.1 5.8z"/></g></g><g fill="#12ad79"><path d="m5.5 4.9c0-.4.3-.7.7-.7s.8.3.8.7"/><circle cx="14" cy="9.9" r="1.2"/><circle cx="6.9" cy="10.5" r="3.2"/><path d="m46.8 9c.2 0 .4.2.4.4s-.2.4-.4.4"/><circle cx="51.5" cy="9.3" r="1"/><path d="m53.1 13c0-.5.4-1 1-1 .5 0 1 .4 1 1"/><circle cx="56.7" cy="7.4" r="1.8"/><circle cx="58.7" cy="13.5" r="1"/></g></g></svg>