<svg height="62" viewBox="0 0 62 62" width="62" xmlns="http://www.w3.org/2000/svg"><g fill="none"><ellipse cx="25.52997" cy="52.31567" fill="#ea7103" rx="9.699607" ry="6.799724" transform="matrix(.31091259 -.95043851 .95043851 .31091259 -32.130447 60.314736)"/><ellipse cx="36.64829" cy="52.23605" fill="#ea7103" rx="9.699607" ry="6.799724" transform="matrix(-.31091259 -.95043851 .95043851 -.31091259 -1.604449 103.308842)"/><path d="m61.3 34.5c0 13-11.9 23.5-30.3 23.5s-30.3-10.5-30.3-23.5 11.9-32.5 30.3-32.5 30.3 19.5 30.3 32.5z" fill="#f7910b"/><path d="m61.3 34.5c0 13-11.9 19.5-30.3 19.5s-30.3-6.5-30.3-19.5 11.9-34.5 30.3-34.5 30.3 21.5 30.3 34.5z" fill="#f7910b"/><path d="m31 0c18.4 0 30.3 21.5 30.3 34.5s-11.9 19.5-30.3 19.5" fill="#f9a908"/><path d="m61.3 34.5c0 13-11.9 19.5-30.3 19.5s-30.3-6.5-30.3-19.5 11.9-32.5 30.3-32.5 30.3 19.5 30.3 32.5z" fill="#f9a908"/><path d="m.7 34.5c0-13 11.9-32.5 30.3-32.5" fill="#f9c55d"/><path d="m31 2c18.4 0 30.3 19.5 30.3 32.5s-11.9 23.5-30.3 23.5" fill="#f7910b"/><path d="m31 2c18.4 0 30.3 19.5 30.3 32.5" fill="#ea7103"/><g transform="translate(17 26)"><circle cx="3.6" cy="4.6" fill="#ea7103" r="3.2"/><circle cx="24.4" cy="4.6" fill="#ea7103" r="3.2"/><circle cx="3.6" cy="3.6" fill="#1e4784" r="3.2"/><path d="m3.6.5c1.8 0 3.2 1.4 3.2 3.2s-1.4 3.2-3.2 3.2" fill="#00233f"/><circle cx="24.4" cy="3.6" fill="#1e4784" r="3.2"/><path d="m24.4.5c1.8 0 3.2 1.4 3.2 3.2s-1.4 3.2-3.2 3.2" fill="#00233f"/></g><g transform="translate(19 20)"><path d="m8.6 7.6c-.8 1-2.1-.9-4.3-2.6-2.1-1.7-4.3-2.6-3.5-3.6s3.2-.5 5.4 1.2 3.2 4 2.4 5z" fill="#19bca4"/><path d="m8.6 7.6c-.8 1-2.1-.9-4.3-2.6-2.1-1.7-4.3-2.6-3.5-3.6" fill="#109da0"/></g><g transform="translate(34 20)"><path d="m1.1 6.8c.8 1.1 2.2-.8 4.4-2.4s4.4-2.4 3.6-3.4c-.8-1.1-3.2-.6-5.4 1s-3.4 3.8-2.6 4.8z" fill="#19bca4"/><path d="m1.1 6.8c.8 1.1 2.2-.8 4.4-2.4s4.4-2.4 3.6-3.4" fill="#109da0"/></g><g transform="translate(11 33)"><path d="m15.8 2.7c0 1.2-3.5.7-7.8.7s-7.8.6-7.8-.7 3.5-2.2 7.8-2.2 7.8 1 7.8 2.2z" fill="#f9c55d"/><path d="m39.8 2.7c0 1.2-3.5.7-7.8.7s-7.8.6-7.8-.7 3.5-2.2 7.8-2.2 7.8 1 7.8 2.2z" fill="#f9a908"/></g><path d="m39 43.2c0 4.8-3.6 8.8-8 8.8s-8-3.9-8-8.8" fill="#f7910b"/><circle cx="9.3" cy="31.4" fill="#f7910b" r="1"/><circle cx="4.8" cy="33.4" fill="#f7910b" r="1.1"/><circle cx="7.8" cy="29.4" fill="#f7910b" r="1"/><circle cx="12.4" cy="31.2" fill="#f7910b" r="1"/><circle cx="51.6" cy="31.8" fill="#f9a908" r="1"/><circle cx="54.1" cy="33.2" fill="#f9a908" r="1"/><circle cx="48.8" cy="24.4" fill="#f9a908" r="1"/><circle cx="48.3" cy="36" fill="#f9a908" r="1.3"/><circle cx="55.5" cy="36.1" fill="#f9a908" r="1"/><circle cx="8.3" cy="35.5" fill="#f7910b" r="1"/><circle cx="9.1" cy="27.1" fill="#f7910b" r="1"/><g fill="#f9a908"><circle cx="3.8" cy="13.3" r="1.1"/><circle cx="7" cy="9.7" r="1"/><circle cx="58.2" cy="15.7" r="1"/><circle cx="57.4" cy="12.7" r="1"/><circle cx="60" cy="13.3" r="1"/><circle cx="5" cy="16.2" r="1"/></g><g transform="translate(30 34)"><path d="m20 16.3c0-3.5-2.8-6.3-6.3-6.3h-2.3c-3.5 0-6.3 2.8-6.3 6.3v5.3c0 3.5 2.8 6.3 6.3 6.3h2.3c3.5 0 6.3-2.8 6.3-6.3z" fill="#00233f"/><path d="m18 14.3c0-3.5-2.8-6.3-6.3-6.3h-2.3c-3.5 0-6.3 2.8-6.3 6.3v5.3c0 3.5 2.8 6.3 6.3 6.3h2.3c3.5 0 6.3-2.8 6.3-6.3z" fill="#bfd4e0"/><path d="m2.4 21.5c.5 2.3 3.4 3.6 6.5 3l1.8-.4c3.1-.7 5.1-3.1 4.6-5.4l-.7-3.2c-.5-2.3-3.4-3.6-6.5-3l-1.8.4c-3.1.7-5.1 3.1-4.6 5.4z" fill="#720a2d"/><path d="m20 8.5c0-4.7-3.8-8.5-8.5-8.5h-2.9c-4.7 0-8.5 3.8-8.5 8.5v6.9c0 4.7 3.8 8.5 8.5 8.5h2.9c4.7 0 8.5-3.8 8.5-8.5z" fill="#890e37"/><path d="m18 8.5c0-.3-.2-.5-.5-.5-.3 0-.5.2-.5.5v7c0 .3.2.5.5.5.3 0 .5-.2.5-.5z" fill="#dd436f"/></g><g transform="translate(12 33)"><path d="m16 22.4c0 3.6-3.3 6.6-7 6.6h-2.2c-3.6 0-6.8-2.9-6.8-6.6v-5.1c0-3.6 3.2-6.4 6.8-6.4h2.2c3.6 0 7 2.7 7 6.4z" fill="#00233f"/><path d="m17 20c0 3.6-2.6 7-6.2 7h-2.2c-3.6 0-6.6-3.4-6.6-7v-5.1c0-3.6 2.9-6.9 6.6-6.9h2.2c3.6 0 6.2 3.3 6.2 6.9z" fill="#bfd4e0"/><path d="m18.3 22.2c-.5 2.4-3.5 3.8-6.7 3.1l-1.9-.4c-3.2-.7-5.3-3.2-4.8-5.6l.7-3.3c.5-2.4 3.5-3.8 6.7-3.1l1.9.4c3.2.7 5.3 3.2 4.8 5.6z" fill="#720a2d"/><path d="m21 16.1c0 4.9-4 8.9-8.9 8.9h-3.2c-4.9 0-8.9-4-8.9-8.9v-7.2c0-4.9 4-8.9 8.9-8.9h3.2c4.9 0 8.9 4 8.9 8.9z" fill="#aa2444"/><path d="m3 16.5c0 .3-.2.5-.5.5-.3 0-.5-.2-.5-.5v-8c0-.3.2-.5.5-.5.3 0 .5.2.5.5z" fill="#dd436f"/></g></g></svg>