<svg height="62" viewBox="0 0 64 62" width="64" xmlns="http://www.w3.org/2000/svg"><g fill="none"><g transform="translate(1 3)"><path d="m61.3 35.4c0 13-11.9 23.5-30.3 23.5s-30.3-10.5-30.3-23.5 11.9-32.5 30.3-32.5 30.3 19.5 30.3 32.5z" fill="#f7910b"/><path d="m61.3 35.4c0 13-11.9 19.5-30.3 19.5s-30.3-6.5-30.3-19.5 11.9-34.5 30.3-34.5 30.3 21.5 30.3 34.5z" fill="#f7910b"/><path d="m31 .9c18.4 0 30.3 21.5 30.3 34.5s-11.9 19.5-30.3 19.5" fill="#f9a908"/><path d="m61.3 35.4c0 13-11.9 19.5-30.3 19.5s-30.3-6.5-30.3-19.5 11.9-32.5 30.3-32.5 30.3 19.5 30.3 32.5z" fill="#f9a908"/><path d="m.7 35.4c0-13 11.9-32.5 30.3-32.5" fill="#f9c55d"/><path d="m31 2.9c18.4 0 30.3 19.5 30.3 32.5s-11.9 23.5-30.3 23.5" fill="#f7910b"/><path d="m31 2.9c18.4 0 30.3 19.5 30.3 32.5" fill="#ea7103"/><g transform="translate(11 31)"><path d="m15.8 2.2c0 1.2-3.5.7-7.8.7s-7.8.6-7.8-.7c0-1.2 3.5-2.2 7.8-2.2s7.8 1 7.8 2.2z" fill="#f9c55d"/><path d="m39.8 2.2c0 1.2-3.5.7-7.8.7s-7.8.6-7.8-.7c0-1.2 3.5-2.2 7.8-2.2s7.8 1 7.8 2.2z" fill="#f9a908"/></g><ellipse cx="9.3" cy="32.4" fill="#f7910b" rx="1" ry="1"/><ellipse cx="4.8" cy="34.4" fill="#f7910b" rx="1.1" ry="1.1"/><circle cx="7.8" cy="30.4" fill="#f7910b" r="1"/><circle cx="12.4" cy="32.2" fill="#f7910b" r="1"/><circle cx="51.6" cy="32.7" fill="#f9a908" r="1"/><circle cx="54.1" cy="34.1" fill="#f9a908" r="1"/><circle cx="48.8" cy="25.3" fill="#f9a908" r="1"/><circle cx="48.3" cy="36.9" fill="#f9a908" r="1.3"/><circle cx="55.5" cy="37" fill="#f9a908" r="1"/><circle cx="8.3" cy="36.4" fill="#f7910b" r="1"/><circle cx="9.1" cy="28" fill="#f7910b" r="1"/><g fill="#f9a908"><ellipse cx="3.8" cy="14.2" rx="1.1" ry="1.1"/><ellipse cx="7" cy="10.7" rx="1" ry="1"/><circle cx="58.2" cy="16.6" r="1"/><ellipse cx="57.4" cy="13.7" rx="1" ry="1"/><path d="m60.5 14.2c0 .3-.2.5-.5.5s-.5-.2-.5-.5.2-.5.5-.5c.2 0 .5.3.5.5z"/><ellipse cx="5" cy="17.2" rx="1" ry="1"/></g></g><g transform="translate(9 28)"><ellipse cx="11.7" cy="11.7" fill="#fff" rx="9.3" ry="9.3"/><path d="m11.7 22.7c-6.1 0-11-4.9-11-11s4.9-11 11-11 11 4.9 11 11-5 11-11 11zm0-18.7c-4.2 0-7.7 3.4-7.7 7.7s3.4 7.7 7.7 7.7c4.2 0 7.7-3.4 7.7-7.7s-3.5-7.7-7.7-7.7z" fill="#756a49"/></g><g transform="translate(32 28)"><path d="m20.7 11.7c0 5.2-4.2 9.3-9.3 9.3-5.2 0-9.3-4.2-9.3-9.3s4.2-9.3 9.3-9.3 9.3 4.2 9.3 9.3z" fill="#fff"/><path d="m11.3 22.7c-6.1 0-11-4.9-11-11s4.9-11 11-11 11 4.9 11 11-4.9 11-11 11zm0-18.7c-4.2 0-7.7 3.4-7.7 7.7s3.4 7.7 7.7 7.7c4.2 0 7.7-3.4 7.7-7.7s-3.4-7.7-7.7-7.7z" fill="#756a49"/></g><g transform="translate(17 35)"><ellipse cx="3.6" cy="5.2" fill="#cecdcc" rx="3.5" ry="3.5"/><ellipse cx="26.4" cy="5.2" fill="#cecdcc" rx="3.5" ry="3.5"/><ellipse cx="3.6" cy="4.2" fill="#1e4784" rx="3.5" ry="3.5"/><path d="m3.6.7c1.9 0 3.5 1.6 3.5 3.5s-1.6 3.5-3.5 3.5" fill="#00233f"/><ellipse cx="26.4" cy="4.2" fill="#1e4784" rx="3.5" ry="3.5"/><path d="m26.4.7c1.9 0 3.5 1.6 3.5 3.5s-1.6 3.5-3.5 3.5" fill="#00233f"/></g><g transform="translate(0 36)"><path d="m2 1.5h9" fill="#fff"/><path d="m11 3h-9c-.8 0-1.5-.7-1.5-1.5s.7-1.5 1.5-1.5h9c.8 0 1.5.7 1.5 1.5s-.7 1.5-1.5 1.5z" fill="#756a49"/></g><g transform="translate(51 36)"><path d="m2 1.5h9" fill="#fff"/><path d="m11 3h-9c-.8 0-1.5-.7-1.5-1.5s.7-1.5 1.5-1.5h9c.8 0 1.5.7 1.5 1.5s-.7 1.5-1.5 1.5z" fill="#756a49"/></g><g fill="#109da0" transform="translate(17 16)"><path d="m7 3.1c0 .6-1.5.2-3.2 0-1.8-.2-3.2 0-3.2-.6s.8-2.3 2.6-2.1c1.7.2 3.9 2.1 3.8 2.7z"/><path d="m23 3.9c0 .6 1.5.2 3.2 0 1.8-.2 3.2 0 3.2-.6-.1-.6-.8-2.3-2.6-2.1-1.7.2-3.9 2.2-3.8 2.7z"/></g><g transform="translate(12)"><path d="m30.8 6.2s-1.4 12.3-23 14.4l.6-3s-6.8 3.4-6.9 8c0 0-2-13.4 1.3-19.2 4.4-7.6 12.7-7.4 23.5-4.2z" fill="#641e82"/><path d="m26.3 2.2 4.5 3.9s-1.4 12.3-23 14.4l.6-3s-6.8 3.4-6.9 8c0 0-2-13.4 1.3-19.2" fill="#00233f"/><path d="m26.8 3.7s3.6 8.5 11.8 15.1c0 0 3.7-16.6-9.1-16.8l-4.8.1z" fill="#00233f"/><path d="m29.5 2-4.8.1 2.1 1.6s3.6 8.5 11.8 15.1" fill="#641e82"/></g><path d="m21.2 21.8-3.4 3.2h2.8l-3.7 4h7.6l3.8-4h-3.1l3.4-3.4z" fill="#fcf492"/><path d="m12.5 47.1-2.4 5.3 4.2-3.8z" fill="#fcf492"/><g transform="translate(23 50)"><path d="m16.4 3.6c0 2.6-3.3 8.1-7.4 8.1s-7.4-5.5-7.4-8.1" fill="#f7910b"/><path d="m9 5.1c-3.5 0-6.5-.8-7.9-2.2-.4-.4-.4-1.1 0-1.6s1.1-.4 1.6 0c1 1 3.5 1.6 6.3 1.6s5.4-.6 6.3-1.6c.4-.4 1.1-.4 1.6 0 .4.4.4 1.1 0 1.6-1.4 1.4-4.4 2.2-7.9 2.2z" fill="#02243e"/></g></g></svg>