<svg height="64" viewBox="0 0 64 64" width="64" xmlns="http://www.w3.org/2000/svg"><g fill="none"><path d="m63.6 25.6c-.3-1-1.2-1.8-2.3-1.9l-18.5-2.7-8.3-16.8c-.5-1-1.5-1.6-2.5-1.6-1.1 0-2 .6-2.5 1.6l-8.3 16.8-18.5 2.6c-1.1.2-1.9.9-2.3 1.9-.3 1-.1 2.1.7 2.9l13.4 13.1-3.2 18.4c-.2 1.1.3 2.1 1.1 2.8.9.6 2 .7 3 .2l16.6-8.7 16.6 8.7c.4.2.9.3 1.3.3.6 0 1.2-.2 1.7-.5.9-.6 1.3-1.7 1.1-2.8l-3.2-18.4 13.4-13.1c.7-.7 1-1.8.7-2.8z" fill="#ea7103"/><path d="m63.6 23.7c-.3-1-1.2-1.8-2.3-1.9l-18.5-2.7-8.3-16.7c-.5-1-1.5-1.6-2.5-1.6-1.1 0-2 .6-2.5 1.6l-8.3 16.8-18.5 2.6c-1.1.2-1.9.9-2.3 1.9-.3 1-.1 2.1.7 2.9l13.4 13.1-3.2 18.4c-.2 1.1.3 2.1 1.1 2.8.9.6 2 .7 3 .2l16.6-8.7 16.6 8.7c.4.2.9.3 1.3.3.6 0 1.2-.2 1.7-.5.9-.6 1.3-1.7 1.1-2.8l-3.2-18.4 13.4-13.1c.7-.7 1-1.9.7-2.9z" fill="#f9a908"/><path d="m63.6 23.7c-.3-1-1.2-1.8-2.3-1.9l-18.5-2.7-8.3-16.7c-.5-1-1.4-1.6-2.5-1.6h-.1v51.6l.1-.1 16.5 8.7c.4.2.8.3 1.3.3.6 0 1.2-.2 1.6-.5.9-.6 1.3-1.7 1.1-2.8l-3.2-18.4 13.4-13.1c.9-.6 1.2-1.8.9-2.8z" fill="#f7910b"/><g transform="translate(19 29)"><path d="m6.9 4.1c-.3-.1-.6-.2-.8-.5-.8-1.2-2.5-1.5-3.7-.7-.6.4-1.3.2-1.7-.3-.4-.6-.2-1.3.3-1.7 2.3-1.6 5.5-1 7.1 1.3.4.6.2 1.3-.3 1.7-.2.2-.6.3-.9.2z" fill="#1e4784"/><path d="m8.2 2.2c.4.6.2 1.3-.3 1.7-.3.2-.6.3-.9.2s-.6-.2-.8-.5c-.8-1.2-2.5-1.5-3.7-.7-.6.4-1.3.2-1.7-.3-.4-.6-.2-1.3.3-1.7" fill="#02243e"/></g><g transform="translate(36 29)"><path d="m2.1 4.1c.3-.1.6-.2.8-.5.8-1.2 2.5-1.5 3.7-.7.6.4 1.3.2 1.7-.3.4-.6.2-1.3-.3-1.7-2.3-1.6-5.5-1-7.1 1.3-.4.6-.2 1.3.3 1.7.2.2.6.3.9.2z" fill="#1e4784"/><path d="m.8 2.2c-.4.6-.2 1.3.3 1.7.3.2.6.3.9.2s.6-.2.8-.5c.8-1.2 2.5-1.5 3.7-.7.6.4 1.3.2 1.7-.3.4-.6.2-1.3-.3-1.7" fill="#02243e"/></g><g transform="translate(23 36)"><path d="m17.2.7c0 5.1-3.7 9.2-8.2 9.2s-8.2-4.1-8.2-9.2" fill="#c42260"/><path d="m17.2.7c0 1.7-3.7 3.1-8.2 3.1s-8.2-1.4-8.2-3.1" fill="#99144a"/><path d="m9 9.9c2.5 0 4.8-1.3 6.3-3.3-.9-1.2-2.3-1.9-3.8-1.9-.9 0-1.8.3-2.5.7-.7-.5-1.6-.7-2.5-.7-1.5 0-2.9.7-3.8 1.9 1.5 2 3.8 3.3 6.3 3.3z" fill="#e2446e"/></g><g fill="#f7910b"><circle cx="9.7" cy="24.9" r="1.7"/><circle cx="15.9" cy="23.4" r="1"/><circle cx="24.9" cy="21.1" r="1"/><circle cx="29.6" cy="9.7" r="1.6"/><circle cx="16.1" cy="31.7" r="1"/><circle cx="28.3" cy="25.3" r="1.4"/><circle cx="18.7" cy="44.4" r="1"/><circle cx="20.5" cy="52.8" r="1.2"/><circle cx="23.2" cy="48.8" r="1"/><circle cx="28.6" cy="49.6" r="1"/><circle cx="14.6" cy="57.3" r="1"/></g><circle cx="36.6" cy="21.8" fill="#f9a908" r="1.7"/><circle cx="44.4" cy="25.1" fill="#f9a908" r="1"/><circle cx="53.1" cy="25.8" fill="#f9a908" r="1"/><circle cx="50.8" cy="30.3" fill="#f9a908" r="1.1"/><circle cx="45.9" cy="37.2" fill="#f9a908" r="1"/><circle cx="41.1" cy="50" fill="#f9a908" r="2.1"/><circle cx="44.6" cy="43.3" fill="#f9a908" r="1"/><ellipse cx="47.85" cy="55.2" fill="#f9a908" rx="1" ry="1"/><circle cx="35.4" cy="12.9" fill="#f9a908" r="1"/><circle cx="38" cy="15.7" fill="#f9a908" r="1"/></g></svg>