<svg height="59" viewBox="0 0 62 59" width="62" xmlns="http://www.w3.org/2000/svg"><g fill="none"><path d="m61.3 34.5c0 13-11.9 23.5-30.3 23.5s-30.3-10.5-30.3-23.5 11.9-32.5 30.3-32.5 30.3 19.5 30.3 32.5z" fill="#f7910b"/><path d="m61.3 34.5c0 13-11.9 19.5-30.3 19.5s-30.3-6.5-30.3-19.5 11.9-34.5 30.3-34.5 30.3 21.5 30.3 34.5z" fill="#f7910b"/><path d="m31 0c18.4 0 30.3 21.5 30.3 34.5s-11.9 19.5-30.3 19.5" fill="#f9a908"/><path d="m61.3 34.5c0 13-11.9 19.5-30.3 19.5s-30.3-6.5-30.3-19.5 11.9-32.5 30.3-32.5 30.3 19.5 30.3 32.5z" fill="#f9a908"/><path d="m.7 34.5c0-13 11.9-32.5 30.3-32.5" fill="#f9c55d"/><path d="m31 2c18.4 0 30.3 19.5 30.3 32.5s-11.9 23.5-30.3 23.5" fill="#f7910b"/><path d="m31 2c18.4 0 30.3 19.5 30.3 32.5" fill="#ea7103"/><circle cx="9.3" cy="31.5" fill="#f7910b" r="1"/><ellipse cx="4.8" cy="33.5" fill="#f7910b" rx="1.1" ry="1.1"/><circle cx="7.8" cy="29.5" fill="#f7910b" r="1"/><ellipse cx="12.4" cy="31.3" fill="#f7910b" rx="1" ry="1"/><ellipse cx="51.6" cy="31.8" fill="#f9a908" rx="1" ry="1"/><circle cx="54.1" cy="33.2" fill="#f9a908" r="1"/><circle cx="48.8" cy="24.4" fill="#f9a908" r="1"/><circle cx="48.3" cy="36" fill="#f9a908" r="1.3"/><circle cx="55.5" cy="36.1" fill="#f9a908" r="1"/><circle cx="8.3" cy="35.5" fill="#f7910b" r="1"/><circle cx="9.1" cy="27.1" fill="#f7910b" r="1"/><g fill="#f9a908"><ellipse cx="3.8" cy="13.3" rx="1.1" ry="1.1"/><ellipse cx="7" cy="9.8" rx="1" ry="1"/><ellipse cx="58.2" cy="15.7" rx="1" ry="1"/><ellipse cx="57.4" cy="12.8" rx="1" ry="1"/><circle cx="60" cy="13.3" r="1"/><ellipse cx="5" cy="16.3" rx="1" ry="1"/></g><path d="m38.4 26.2c0 2.6-3.3 7.2-7.4 7.2s-7.4-4.6-7.4-7.2" fill="#f7910b"/><g transform="translate(15 11)"><ellipse cx="4.6" cy="7.3" fill="#d87703" rx="3.5" ry="3.5"/><path d="m30.9 7.3c0 1.9-1.6 3.5-3.5 3.5s-3.5-1.6-3.5-3.5 1.6-3.5 3.5-3.5c2 0 3.5 1.6 3.5 3.5z" fill="#d87703"/><ellipse cx="4.6" cy="6.3" fill="#1e4784" rx="3.5" ry="3.5"/><path d="m4.6 2.8c1.9 0 3.5 1.6 3.5 3.5s-1.6 3.5-3.5 3.5" fill="#00233f"/><path d="m30.9 6.3c0 1.9-1.6 3.5-3.5 3.5s-3.5-1.6-3.5-3.5 1.6-3.5 3.5-3.5c2 0 3.5 1.6 3.5 3.5z" fill="#1e4784"/><path d="m27.4 2.8c1.9 0 3.5 1.6 3.5 3.5s-1.6 3.5-3.5 3.5" fill="#00233f"/><path d="m.5 5.6c0-2.3 1.8-5.1 4.1-5.1s4.1 2.8 4.1 5.1" fill="#f9a908"/><path d="m23.3 5.6c0-2.3 1.8-5.1 4.1-5.1s4.1 2.8 4.1 5.1" fill="#f7910b"/></g><g transform="translate(11 20)"><path d="m15.8 3.1c0 1.2-3.5.7-7.8.7s-7.8.6-7.8-.7 3.5-2.2 7.8-2.2 7.8 1 7.8 2.2z" fill="#f9c55d"/><path d="m39.8 3.1c0 1.2-3.5.7-7.8.7s-7.8.6-7.8-.7 3.5-2.2 7.8-2.2 7.8 1 7.8 2.2z" fill="#f9a908"/></g><g fill="#19bca4" transform="translate(15 8)"><path d="m10.6 8.4c-.3 1.1-2.3-.1-5-.8-2.7-.8-5-.8-4.7-1.9s2.7-1.3 5.4-.6c2.6.7 4.6 2.2 4.3 3.3z"/><path d="m21.8 5.3c.4 1 2.3-.4 4.9-1.5s4.9-1.5 4.4-2.5c-.4-1-2.9-1-5.5.2-2.5 1.1-4.2 2.8-3.8 3.8z"/></g><path d="m33.2 26.8h-4.3c-.6 0-1.1-.5-1.1-1.1s.5-1.1 1.1-1.1h4.3c.6 0 1.1.5 1.1 1.1s-.5 1.1-1.1 1.1z" fill="#02243e"/><g transform="translate(0 19)"><path d="m2.7 4.8v30.8c0 2.6 2.5 3.5 5.6 3.5h13.9c3.1 0 5.6-.9 5.6-3.5v-30.8z" fill="#fffcee"/><path d="m22.2 39c3.1 0 5.6-.9 5.6-3.5v-30.7h-25.1" fill="#e8e3cd"/><path d="m4.9 10.9v23.5c0 2.1 2.1 2.9 4.6 2.9h11.5c2.6 0 4.6-.7 4.6-2.9v-23.5z" fill="#f4cf31"/><path d="m21 37.3c2.6 0 4.6-.7 4.6-2.9v-23.5h-20.7" fill="#f2b233"/><g fill="#f7df77" transform="translate(8 7)"><path d="m2.1 26.3c0 .6-.4 1.1-.9 1.1-.5 0-.9-.5-.9-1.1v-24.5c0-.6.4-1.1.9-1.1.5 0 .9.5.9 1.1z"/><path d="m8.2 26.3c0 .6-.4 1.1-.9 1.1-.5 0-.9-.5-.9-1.1v-24.5c0-.6.4-1.1.9-1.1.5 0 .9.5.9 1.1z"/><path d="m14.2 26.3c0 .6-.4 1.1-.9 1.1-.5 0-.9-.5-.9-1.1v-24.5c0-.6.4-1.1.9-1.1.5 0 .9.5.9 1.1z"/></g><ellipse cx="12.1" cy="5.8" fill="#fcf0be" rx="4" ry="3.3"/><path d="m28.7 3.8c.4-.4.6-.9.6-1.4 0-1.3-1.2-2.3-2.8-2.3-.7 0-1.2.2-1.7.5-.5-.3-1.1-.4-1.8-.4-.8 0-1.6.3-2.2.7-.5-.5-1.3-.8-2.1-.8-.6 0-1.2.2-1.6.5-.3-.1-.7-.2-1-.2s-.5 0-.8.1c-.2-.1-.5-.1-.8-.1-.4 0-.7.1-1 .2-.5-.3-1-.5-1.6-.5-.9 0-1.6.3-2.1.8-.6-.4-1.3-.7-2.2-.7-.6 0-1.2.2-1.7.4-.5-.3-1.1-.5-1.7-.5-1.5 0-2.8 1-2.8 2.3 0 .5.2 1 .6 1.4-.7.6-1.2 1.4-1.2 2.4 0 1.8 1.8 3.3 4 3.3.5 0 1.1-.1 1.5-.3.7.8 1.8 1.3 3.1 1.3 1.4 0 2.5-.6 3.3-1.4.4.6 1.3 1 2.2 1 .2 0 .4 0 .6-.1.2 0 .4.1.6.1.9 0 1.7-.4 2.2-1 .7.9 1.9 1.4 3.3 1.4 1.3 0 2.4-.5 3.1-1.3.5.2 1 .3 1.5.3 2.2 0 4-1.5 4-3.3-.3-1-.8-1.8-1.5-2.4z" fill="#f9f9d9"/><path d="m13.4 14.2c0 .4-.3.6-.8.6s-.8-.3-.8-.6c0-.4.3-.6.8-.6s.8.3.8.6z" fill="#fff399"/><ellipse cx="12" cy="29.2" fill="#f2b233" rx="1" ry="1"/><g fill="#fff399"><ellipse cx="11.7" cy="16.7" rx="1" ry="1"/><ellipse cx="11.4" cy="24.7" rx="1" ry="1"/><path d="m12.9 18.1c0 .2-.2.3-.4.3s-.4-.1-.4-.3.2-.3.4-.3.4.1.4.3z"/></g><ellipse cx="11" cy="23.2" fill="#f2b233" rx="1" ry="1"/><ellipse cx="13.5" cy="27.7" fill="#fff399" rx="1" ry="1"/><ellipse cx="11.8" cy="26.7" fill="#fff399" rx="1" ry="1"/><ellipse cx="12.2" cy="25.5" fill="#f2b233" rx="1" ry="1"/><path d="m6.6 34.4c0 .2-.2.4-.5.4-.3 0-.5-.2-.5-.4v-13.9c0-.2.2-.4.5-.4.3 0 .5.2.5.4z" fill="#fff0b3"/><path d="m6.6 18.7c0 .1-.2.1-.5.1-.3 0-.5-.1-.5-.1v-4.5c0-.1.2-.1.5-.1.3 0 .5.1.5.1z" fill="#fff0b3"/><path d="m28.7 3.8c.4-.4.6-.9.6-1.4 0-1.3-1.2-2.3-2.8-2.3-.7 0-1.2.2-1.7.5-.5-.3-1.1-.4-1.8-.4-.8 0-1.6.3-2.2.7-.5-.5-1.3-.8-2.1-.8-.6 0-1.2.2-1.6.5-.3-.1-.7-.2-1-.2-.2 0-.5 0-.7.1v9.5c.2 0 .3.1.5.1.9 0 1.7-.4 2.2-1 .7.9 1.9 1.4 3.3 1.4 1.3 0 2.4-.5 3.1-1.3.5.2 1 .3 1.5.3 2.2 0 4-1.5 4-3.3-.1-1-.6-1.8-1.3-2.4z" fill="#fcf0be"/><path d="m28.1 11.2h-.2v1.9h.2c1.5 0 2.7 1 2.7 2.3v12.4c0 1.2-1.2 2.3-2.7 2.3h-.2v1.9h.2c2.7 0 4.9-1.8 4.9-4.1v-12.6c0-2.2-2.2-4.1-4.9-4.1z" fill="#fffcee"/><ellipse cx="3.9" cy="1.9" fill="#fff" rx="1.2" ry="1"/><path d="m9.5 2.5c0 .6-.5 1-1.2 1s-1.2-.4-1.2-1c0-.5.5-1 1.2-1s1.2.5 1.2 1z" fill="#fff"/><ellipse cx="3.5" cy="6" fill="#fff" rx="1" ry="1"/></g></g></svg>