<?xml version="1.0" encoding="UTF-8"?>
<svg width="64px" height="58px" viewBox="0 0 64 58" version="1.1" xmlns="http://www.w3.org/2000/svg" xmlns:xlink="http://www.w3.org/1999/xlink">
    <!-- Generator: Sketch 43.1 (39012) - http://www.bohemiancoding.com/sketch -->
    <title>imgly_sticker_emoticons_nerd</title>
    <desc>Created with Sketch.</desc>
    <defs></defs>
    <g id="Page-1" stroke="none" stroke-width="1" fill="none" fill-rule="evenodd">
        <g id="nerd" fill-rule="nonzero">
            <g id="Group" transform="translate(1.000000, 0.000000)">
                <g>
                    <path d="M61.3,34.5 C61.3,47.5 49.4,58 31,58 C12.6,58 0.7,47.5 0.7,34.5 C0.7,21.5 12.6,2 31,2 C49.4,2 61.3,21.5 61.3,34.5 Z" id="Shape" fill="#F7910B"></path>
                    <path d="M61.3,34.5 C61.3,47.5 49.4,54 31,54 C12.6,54 0.7,47.5 0.7,34.5 C0.7,21.5 12.6,0 31,0 C49.4,0 61.3,21.5 61.3,34.5 Z" id="Shape" fill="#F7910B"></path>
                    <path d="M31,0 C49.4,0 61.3,21.5 61.3,34.5 C61.3,47.5 49.4,54 31,54" id="Shape" fill="#F9A908"></path>
                    <path d="M61.3,34.5 C61.3,47.5 49.4,54 31,54 C12.6,54 0.7,47.5 0.7,34.5 C0.7,21.5 12.6,2 31,2 C49.4,2 61.3,21.5 61.3,34.5 Z" id="Shape" fill="#F9A908"></path>
                    <path d="M0.7,34.5 C0.7,21.5 12.6,2 31,2" id="Shape" fill="#F9C55D"></path>
                    <path d="M31,2 C49.4,2 61.3,21.5 61.3,34.5 C61.3,47.5 49.4,58 31,58" id="Shape" fill="#F7910B"></path>
                    <path d="M31,2 C49.4,2 61.3,21.5 61.3,34.5" id="Shape" fill="#EA7103"></path>
                    <g transform="translate(11.000000, 30.000000)" id="Shape">
                        <path d="M15.8,2.3 C15.8,3.5 12.3,3 8,3 C3.7,3 0.2,3.6 0.2,2.3 C0.2,1.1 3.7,0.1 8,0.1 C12.3,0.1 15.8,1.1 15.8,2.3 Z" fill="#F9C55D"></path>
                        <path d="M39.8,2.3 C39.8,3.5 36.3,3 32,3 C27.7,3 24.2,3.6 24.2,2.3 C24.2,1.1 27.7,0.1 32,0.1 C36.3,0.1 39.8,1.1 39.8,2.3 Z" fill="#F9A908"></path>
                    </g>
                    <circle id="Oval" fill="#F7910B" cx="9.3" cy="31.5" r="1"></circle>
                    <circle id="Oval" fill="#F7910B" cx="4.8" cy="33.5" r="1.1"></circle>
                    <circle id="Oval" fill="#F7910B" cx="7.8" cy="29.5" r="1"></circle>
                    <circle id="Oval" fill="#F7910B" cx="12.4" cy="31.3" r="1"></circle>
                    <circle id="Oval" fill="#F9A908" cx="51.6" cy="31.8" r="1"></circle>
                    <circle id="Oval" fill="#F9A908" cx="54.1" cy="33.2" r="1"></circle>
                    <circle id="Oval" fill="#F9A908" cx="48.8" cy="24.4" r="1"></circle>
                    <circle id="Oval" fill="#F9A908" cx="48.3" cy="36" r="1.3"></circle>
                    <circle id="Oval" fill="#F9A908" cx="55.5" cy="36.1" r="1"></circle>
                    <circle id="Oval" fill="#F7910B" cx="8.3" cy="35.5" r="1"></circle>
                    <circle id="Oval" fill="#F7910B" cx="9.1" cy="27.1" r="1"></circle>
                    <circle id="Oval" fill="#F9A908" cx="3.8" cy="13.3" r="1.1"></circle>
                    <circle id="Oval" fill="#F9A908" cx="7" cy="9.8" r="1"></circle>
                    <circle id="Oval" fill="#F9A908" cx="58.2" cy="15.7" r="1"></circle>
                    <circle id="Oval" fill="#F9A908" cx="57.4" cy="12.8" r="1"></circle>
                    <circle id="Oval" fill="#F9A908" cx="60" cy="13.3" r="1"></circle>
                    <circle id="Oval" fill="#F9A908" cx="5" cy="16.3" r="1"></circle>
                </g>
                <g transform="translate(8.000000, 12.000000)">
                    <g>
                        <g>
                            <circle id="Oval" fill="#FFFFFF" cx="11.7" cy="11.6" r="9.3"></circle>
                            <path d="M11.7,22.5 C5.6,22.5 0.7,17.6 0.7,11.5 C0.7,5.4 5.6,0.5 11.7,0.5 C17.8,0.5 22.7,5.4 22.7,11.5 C22.7,17.6 17.7,22.5 11.7,22.5 Z M11.7,3.9 C7.5,3.9 4,7.3 4,11.6 C4,15.9 7.4,19.3 11.7,19.3 C15.9,19.3 19.4,15.9 19.4,11.6 C19.4,7.3 15.9,3.9 11.7,3.9 Z" id="Shape" fill="#756A49"></path>
                        </g>
                        <g transform="translate(23.000000, 0.000000)" id="Shape">
                            <path d="M20.7,11.6 C20.7,16.8 16.5,20.9 11.4,20.9 C6.2,20.9 2.1,16.7 2.1,11.6 C2.1,6.5 6.3,2.3 11.4,2.3 C16.5,2.2 20.7,6.4 20.7,11.6 Z" fill="#FFFFFF"></path>
                            <path d="M11.3,22.5 C5.2,22.5 0.3,17.6 0.3,11.5 C0.3,5.4 5.2,0.5 11.3,0.5 C17.4,0.5 22.3,5.4 22.3,11.5 C22.3,17.6 17.4,22.5 11.3,22.5 Z M11.3,3.9 C7.1,3.9 3.6,7.3 3.6,11.6 C3.6,15.9 7,19.3 11.3,19.3 C15.5,19.3 19,15.9 19,11.6 C19,7.3 15.6,3.9 11.3,3.9 Z" fill="#756A49"></path>
                        </g>
                    </g>
                    <g transform="translate(8.000000, 7.000000)">
                        <circle id="Oval" fill="#CECDCC" cx="3.6" cy="5.1" r="3.5"></circle>
                        <circle id="Oval" fill="#CECDCC" cx="26.4" cy="5.1" r="3.5"></circle>
                        <circle id="Oval" fill="#1E4784" cx="3.6" cy="4.1" r="3.5"></circle>
                        <path d="M3.6,0.6 C5.5,0.6 7.1,2.2 7.1,4.1 C7.1,6 5.5,7.6 3.6,7.6" id="Shape" fill="#00233F"></path>
                        <circle id="Oval" fill="#1E4784" cx="26.4" cy="4.1" r="3.5"></circle>
                        <path d="M26.4,0.6 C28.3,0.6 29.9,2.2 29.9,4.1 C29.9,6 28.3,7.6 26.4,7.6" id="Shape" fill="#00233F"></path>
                    </g>
                </g>
            </g>
            <g id="Group" transform="translate(0.000000, 24.000000)">
                <g id="Shape">
                    <path d="M2,1.5 L11,1.5" fill="#FFFFFF"></path>
                    <path d="M11,3 L2,3 C1.2,3 0.5,2.3 0.5,1.5 C0.5,0.7 1.2,0 2,0 L11,0 C11.8,0 12.5,0.7 12.5,1.5 C12.5,2.3 11.8,3 11,3 Z" fill="#756A49"></path>
                </g>
                <g transform="translate(51.000000, 0.000000)" id="Shape">
                    <path d="M2,1.5 L11,1.5" fill="#FFFFFF"></path>
                    <path d="M11,3 L2,3 C1.2,3 0.5,2.3 0.5,1.5 C0.5,0.7 1.2,0 2,0 L11,0 C11.8,0 12.5,0.7 12.5,1.5 C12.5,2.3 11.8,3 11,3 Z" fill="#756A49"></path>
                </g>
            </g>
            <g id="Group" transform="translate(17.000000, 7.000000)" fill="#109DA0">
                <path d="M7,2.9 C7,3.5 5.5,3.1 3.8,2.9 C2,2.7 0.6,2.9 0.6,2.3 C0.6,1.7 1.4,4.4408921e-16 3.2,0.2 C4.9,0.4 7.1,2.4 7,2.9 Z" id="Shape"></path>
                <path d="M23,3.7 C23,4.3 24.5,3.9 26.2,3.7 C28,3.5 29.4,3.7 29.4,3.1 C29.3,2.5 28.6,0.8 26.8,1 C25.1,1.2 22.9,3.2 23,3.7 Z" id="Shape"></path>
            </g>
            <g id="Group" transform="translate(24.000000, 36.000000)">
                <path d="M15.4,2 C15.4,4.6 12.1,6.7 8,6.7 C3.9,6.7 0.6,4.6 0.6,2" id="Shape" fill="#F7910B"></path>
                <path d="M10,2 L6,2 C5.4,2 5,1.6 5,1 C5,0.4 5.4,0 6,0 L10,0 C10.6,0 11,0.4 11,1 C11,1.6 10.6,2 10,2 Z" id="Shape" fill="#02243E"></path>
            </g>
        </g>
    </g>
</svg>