<?xml version="1.0" encoding="UTF-8"?>
<svg width="62px" height="58px" viewBox="0 0 62 58" version="1.1" xmlns="http://www.w3.org/2000/svg" xmlns:xlink="http://www.w3.org/1999/xlink">
    <!-- Generator: Sketch 43.1 (39012) - http://www.bohemiancoding.com/sketch -->
    <title>imgly_sticker_emoticons_cool</title>
    <desc>Created with Sketch.</desc>
    <defs></defs>
    <g id="Page-1" stroke="none" stroke-width="1" fill="none" fill-rule="evenodd">
        <g id="cool" fill-rule="nonzero">
            <g id="Group">
                <g>
                    <path d="M61.3,34.5 C61.3,47.5 49.4,58 31,58 C12.6,58 0.7,47.5 0.7,34.5 C0.7,21.5 12.6,2 31,2 C49.4,2 61.3,21.5 61.3,34.5 Z" id="Shape" fill="#F7910B"></path>
                    <path d="M61.3,34.5 C61.3,47.5 49.4,54 31,54 C12.6,54 0.7,47.5 0.7,34.5 C0.7,21.5 12.6,0 31,0 C49.4,0 61.3,21.5 61.3,34.5 Z" id="Shape" fill="#F7910B"></path>
                    <path d="M31,0 C49.4,0 61.3,21.5 61.3,34.5 C61.3,47.5 49.4,54 31,54" id="Shape" fill="#F9A908"></path>
                    <path d="M61.3,34.5 C61.3,47.5 49.4,54 31,54 C12.6,54 0.7,47.5 0.7,34.5 C0.7,21.5 12.6,2 31,2 C49.4,2 61.3,21.5 61.3,34.5 Z" id="Shape" fill="#F9A908"></path>
                    <path d="M0.7,34.5 C0.7,21.5 12.6,2 31,2" id="Shape" fill="#F9C55D"></path>
                    <path d="M31,2 C49.4,2 61.3,21.5 61.3,34.5 C61.3,47.5 49.4,58 31,58" id="Shape" fill="#F7910B"></path>
                    <path d="M31,2 C49.4,2 61.3,21.5 61.3,34.5" id="Shape" fill="#EA7103"></path>
                    <ellipse id="Oval" fill="#F7910B" cx="9.3" cy="31.5" rx="1" ry="1"></ellipse>
                    <ellipse id="Oval" fill="#F7910B" cx="4.8" cy="33.5" rx="1.1" ry="1.1"></ellipse>
                    <circle id="Oval" fill="#F7910B" cx="7.8" cy="29.5" r="1"></circle>
                    <circle id="Oval" fill="#F7910B" cx="12.4" cy="31.3" r="1"></circle>
                    <circle id="Oval" fill="#F9A908" cx="51.6" cy="31.8" r="1"></circle>
                    <circle id="Oval" fill="#F9A908" cx="54.1" cy="33.2" r="1"></circle>
                    <circle id="Oval" fill="#F9A908" cx="48.8" cy="24.4" r="1"></circle>
                    <ellipse id="Oval" fill="#F9A908" cx="48.3" cy="36" rx="1.3" ry="1.3"></ellipse>
                    <circle id="Oval" fill="#F9A908" cx="55.5" cy="36.1" r="1"></circle>
                    <circle id="Oval" fill="#F7910B" cx="8.3" cy="35.5" r="1"></circle>
                    <circle id="Oval" fill="#F7910B" cx="9.1" cy="27.1" r="1"></circle>
                    <ellipse id="Oval" fill="#F9A908" cx="3.8" cy="13.3" rx="1.1" ry="1.1"></ellipse>
                    <ellipse id="Oval" fill="#F9A908" cx="7" cy="9.8" rx="1" ry="1"></ellipse>
                    <circle id="Oval" fill="#F9A908" cx="58.2" cy="15.7" r="1"></circle>
                    <ellipse id="Oval" fill="#F9A908" cx="57.4" cy="12.8" rx="1" ry="1"></ellipse>
                    <circle id="Oval" fill="#F9A908" cx="60" cy="13.3" r="1"></circle>
                    <ellipse id="Oval" fill="#F9A908" cx="5" cy="16.3" rx="1" ry="1"></ellipse>
                    <path d="M38.2,44.9 C38.2,47.5 34.9,52.1 30.8,52.1 C26.7,52.1 23.4,47.5 23.4,44.9" id="Shape" fill="#F7910B"></path>
                    <g transform="translate(15.000000, 17.000000)">
                        <circle id="Oval" fill="#D87703" cx="4.6" cy="6" r="3.5"></circle>
                        <path d="M30.9,6 C30.9,7.9 29.3,9.5 27.4,9.5 C25.5,9.5 23.9,7.9 23.9,6 C23.9,4.1 25.5,2.5 27.4,2.5 C29.4,2.5 30.9,4.1 30.9,6 Z" id="Shape" fill="#D87703"></path>
                        <circle id="Oval" fill="#1E4784" cx="4.6" cy="5" r="3.5"></circle>
                        <path d="M4.6,1.5 C6.5,1.5 8.1,3.1 8.1,5 C8.1,6.9 6.5,8.5 4.6,8.5" id="Shape" fill="#00233F"></path>
                        <path d="M30.9,5 C30.9,6.9 29.3,8.5 27.4,8.5 C25.5,8.5 23.9,6.9 23.9,5 C23.9,3.1 25.5,1.5 27.4,1.5 C29.4,1.5 30.9,3.1 30.9,5 Z" id="Shape" fill="#1E4784"></path>
                        <path d="M27.4,1.5 C29.3,1.5 30.9,3.1 30.9,5 C30.9,6.9 29.3,8.5 27.4,8.5" id="Shape" fill="#00233F"></path>
                        <path d="M0.5,4.7 C0.5,2.4 2.3,0.6 4.6,0.6 C6.9,0.6 8.7,2.4 8.7,4.7" id="Shape" fill="#F9A908"></path>
                        <path d="M23.3,4.7 C23.3,2.4 25.1,0.6 27.4,0.6 C29.7,0.6 31.5,2.4 31.5,4.7" id="Shape" fill="#F7910B"></path>
                    </g>
                    <g transform="translate(11.000000, 25.000000)" id="Shape">
                        <path d="M15.8,2.8 C15.8,4 12.3,3.5 8,3.5 C3.7,3.5 0.2,4.1 0.2,2.8 C0.2,1.6 3.7,0.6 8,0.6 C12.3,0.6 15.8,1.6 15.8,2.8 Z" fill="#F9C55D"></path>
                        <path d="M39.8,2.8 C39.8,4 36.3,3.5 32,3.5 C27.7,3.5 24.2,4.1 24.2,2.8 C24.2,1.6 27.7,0.6 32,0.6 C36.3,0.6 39.8,1.6 39.8,2.8 Z" fill="#F9A908"></path>
                    </g>
                </g>
                <g transform="translate(18.000000, 7.000000)" id="Shape" fill="#19BCA4">
                    <path d="M4.2,2.5 C4.2,3.5 4.1,3 2.7,3 C1.3,3 0.2,3.5 0.2,2.5 C0.2,1.5 1.3,0.8 2.7,0.8 C4.1,0.8 4.2,1.6 4.2,2.5 Z"></path>
                    <path d="M21.8,2.5 C21.8,3.5 21.9,3 23.3,3 C24.7,3 25.8,3.5 25.8,2.5 C25.8,1.5 24.7,0.8 23.3,0.8 C21.9,0.8 21.8,1.6 21.8,2.5 Z"></path>
                </g>
            </g>
            <g id="Group" transform="translate(4.000000, 16.000000)" fill="#00233F">
                <g id="Shape">
                    <g>
                        <g transform="translate(4.000000, 0.000000)">
                            <path d="M0.9,1 C0.8,2 0.7,2.2 0.7,2.8 C0.7,7.3 2,11 6.5,11 L14,11 C18.5,11 19.8,7.3 19.8,2.8 C19.8,2.2 19.7,2 19.6,1 L0.9,1 Z"></path>
                            <path d="M20.4,1.5 C20.4,2.2 19.8,3 19.1,3 L1.5,3 C0.8,3 0.2,2.2 0.2,1.5 L0.2,1.5 C0.2,0.8 0.8,0 1.5,0 L19.1,0 C19.8,0 20.4,0.8 20.4,1.5 L20.4,1.5 Z"></path>
                        </g>
                        <path d="M14.2,1 C14.2,1.5 13.8,3 13.4,3 L1.3,3 C0.8,3 0.5,1.4 0.5,1 L0.5,1 C0.5,0.5 0.9,0 1.3,0 L13.4,0 C13.8,0 14.2,0.5 14.2,1 L14.2,1 Z"></path>
                    </g>
                    <g transform="translate(29.000000, 0.000000)">
                        <g>
                            <path d="M20.1,1 C20.2,2 20.3,2.2 20.3,2.8 C20.3,7.3 19,11 14.5,11 L7,11 C2.5,11 1.2,7.3 1.2,2.8 C1.2,2.2 1.3,2 1.4,1 L20.1,1 Z"></path>
                            <path d="M0.6,1.5 C0.6,2.2 1.2,3 1.9,3 L19.5,3 C20.2,3 20.8,2.2 20.8,1.5 L20.8,1.5 C20.8,0.8 20.2,0 19.5,0 L1.9,0 C1.2,0 0.6,0.8 0.6,1.5 L0.6,1.5 Z"></path>
                        </g>
                        <path d="M10.8,1 C10.8,1.5 11.2,3 11.6,3 L23.7,3 C24.2,3 24.5,1.4 24.5,1 L24.5,1 C24.5,0.5 24.1,0 23.7,0 L11.6,0 C11.2,0 10.8,0.5 10.8,1 L10.8,1 Z"></path>
                    </g>
                </g>
                <path d="M37,1 C37,1.6 36.6,2 36,2 L19,2 C18.4,2 18,1.6 18,1 L18,1 C18,0.4 18.4,0 19,0 L36,0 C36.6,0 37,0.4 37,1 L37,1 Z" id="Shape"></path>
            </g>
            <g id="Group" transform="translate(14.000000, 28.000000)">
                <path d="M24.4,7.2 C24.4,9.8 21.1,11.9 17,11.9 C12.9,11.9 9.6,9.8 9.6,7.2" id="Shape" fill="#F7910B"></path>
                <g transform="translate(3.000000, 2.000000)" id="Shape" fill="#02243E">
                    <path d="M9.8,7 C6.6,7 3.2,5.1 0.6,2.4 C0.2,2 0.2,1.3 0.6,0.8 C1,0.4 1.7,0.4 2.2,0.8 C4.7,3.3 9.9,6.7 13.3,3.3 C13.7,2.9 14.4,2.9 14.9,3.3 C15.3,3.7 15.3,4.4 14.9,4.9 C13.3,6.4 11.6,7 9.8,7 Z"></path>
                    <path d="M18.2,7 C16.4,7 14.7,6.4 13.2,4.9 C12.8,4.5 12.8,3.8 13.2,3.3 C13.6,2.9 14.3,2.9 14.8,3.3 C18.2,6.7 23.4,3.3 25.9,0.8 C26.3,0.4 27,0.4 27.5,0.8 C27.9,1.2 27.9,1.9 27.5,2.4 C24.8,5.1 21.4,7 18.2,7 Z"></path>
                </g>
                <g id="Shape" fill="#02243E">
                    <path d="M2,5.1 C1.4,5.1 0.9,4.6 0.9,4 C0.9,3.4 1.4,2.9 2,2.9 C2.9,2.9 3.6,2.2 3.6,1.3 C3.6,0.7 4.1,0.2 4.7,0.2 C5.3,0.2 5.8,0.7 5.8,1.3 C5.7,3.4 4,5.1 2,5.1 Z"></path>
                    <path d="M32,5.1 C29.9,5.1 28.2,3.4 28.2,1.3 C28.2,0.7 28.7,0.2 29.3,0.2 C29.9,0.2 30.4,0.7 30.4,1.3 C30.4,2.2 31.1,2.9 32,2.9 C32.6,2.9 33.1,3.4 33.1,4 C33.1,4.6 32.6,5.1 32,5.1 Z"></path>
                </g>
                <path d="M14.4,5.6 C14.2,6.3 12.3,6.2 10.2,5.4 C8.1,4.6 6.7,3.5 6.9,2.8 C7.1,2.1 8.8,2.8 10.9,3.5 C13,4.3 14.6,4.9 14.4,5.6 Z" id="Shape" fill="#F9C55D"></path>
                <path d="M19.9,5.6 C20.1,6.3 22,6.2 24.1,5.4 C26.2,4.6 27.6,3.5 27.4,2.8 C27.2,2.1 25.5,2.8 23.4,3.5 C21.3,4.3 19.6,4.9 19.9,5.6 Z" id="Shape" fill="#F9A908"></path>
            </g>
        </g>
    </g>
</svg>