<?xml version="1.0" encoding="UTF-8"?>
<svg width="62px" height="54px" viewBox="0 0 62 54" version="1.1" xmlns="http://www.w3.org/2000/svg" xmlns:xlink="http://www.w3.org/1999/xlink">
    <!-- Generator: Sketch 43.1 (39012) - http://www.bohemiancoding.com/sketch -->
    <title>imgly_sticker_emoticons_music</title>
    <desc>Created with Sketch.</desc>
    <defs></defs>
    <g id="Page-1" stroke="none" stroke-width="1" fill="none" fill-rule="evenodd">
        <g id="music" fill-rule="nonzero">
            <path d="M48.9,9.5 C48.9,14.7 44.6,19 39.4,19 L22.6,19 C17.4,19 13.1,14.7 13.1,9.5 L13.1,9.5 C13.1,4.3 17.4,0 22.6,0 L39.5,0 C44.7,0 48.9,4.2 48.9,9.5 L48.9,9.5 Z" id="Shape" fill="#C42260"></path>
            <path d="M22.6,0 L39.5,0 C44.7,0 49,4.3 49,9.5 L49,9.5 C49,14.7 44.7,19 39.5,19" id="Shape" fill="#99144A"></path>
            <path d="M57.7,17.8 C57.7,24.5 45.8,32.5 31,32.5 C16.2,32.5 4.3,24.5 4.3,17.8 C4.3,11.1 16.2,5.7 31,5.7 C45.8,5.7 57.7,11.2 57.7,17.8 Z" id="Shape" fill="#02243E"></path>
            <g id="Group" transform="translate(4.000000, 1.000000)">
                <g>
                    <path d="M53.9,30.7 C53.9,42.2 43.3,51.5 27,51.5 C10.7,51.5 0.1,42.2 0.1,30.7 C0.1,19.2 10.7,1.9 27,1.9 C43.3,1.9 53.9,19.2 53.9,30.7 Z" id="Shape" fill="#F7910B"></path>
                    <path d="M53.9,30.7 C53.9,42.2 43.3,48 27,48 C10.7,48 0.1,42.2 0.1,30.7 C0.1,19.2 10.7,0.1 27,0.1 C43.3,0.1 53.9,19.2 53.9,30.7 Z" id="Shape" fill="#F7910B"></path>
                    <path d="M27,0.1 C43.3,0.1 53.9,19.2 53.9,30.6 C53.9,42.1 43.3,47.9 27,47.9" id="Shape" fill="#F9A908"></path>
                    <path d="M53.9,30.7 C53.9,42.2 43.3,48 27,48 C10.7,48 0.1,42.2 0.1,30.7 C0.1,19.2 10.7,1.9 27,1.9 C43.3,1.9 53.9,19.2 53.9,30.7 Z" id="Shape" fill="#F9A908"></path>
                    <path d="M0.1,30.7 C0.1,19.2 10.7,1.9 27,1.9" id="Shape" fill="#F9C55D"></path>
                    <path d="M27,1.9 C43.3,1.9 53.9,19.2 53.9,30.7 C53.9,42.2 43.3,51.5 27,51.5" id="Shape" fill="#F7910B"></path>
                    <path d="M27,1.9 C43.3,1.9 53.9,19.2 53.9,30.7" id="Shape" fill="#EA7103"></path>
                    <g transform="translate(9.000000, 26.000000)" id="Shape">
                        <path d="M14.3,2.8 C14.3,3.9 11.2,3.4 7.4,3.4 C3.6,3.4 0.5,3.9 0.5,2.8 C0.5,1.7 3.6,0.8 7.4,0.8 C11.2,0.8 14.3,1.7 14.3,2.8 Z" fill="#F9C55D"></path>
                        <path d="M35.5,2.8 C35.5,3.9 32.4,3.4 28.6,3.4 C24.8,3.4 21.7,3.9 21.7,2.8 C21.7,1.7 24.8,0.8 28.6,0.8 C32.4,0.8 35.5,1.7 35.5,2.8 Z" fill="#F9A908"></path>
                    </g>
                    <circle id="Oval" fill="#F7910B" cx="7.8" cy="28" r="1"></circle>
                    <circle id="Oval" fill="#F7910B" cx="3.8" cy="29.8" r="1"></circle>
                    <circle id="Oval" fill="#F7910B" cx="6.5" cy="26.2" r="1"></circle>
                    <circle id="Oval" fill="#F7910B" cx="10.5" cy="27.8" r="1"></circle>
                    <path d="M45.9,28.3 C45.9,28.7 45.6,29 45.2,29 C44.8,29 44.5,28.7 44.5,28.3 C44.5,27.9 44.8,27.6 45.2,27.6 C45.6,27.7 45.9,28 45.9,28.3 Z" id="Shape" fill="#F9A908"></path>
                    <circle id="Oval" fill="#F9A908" cx="47.4" cy="29.5" r="1"></circle>
                    <circle id="Oval" fill="#F9A908" cx="42.7" cy="21.7" r="1"></circle>
                    <circle id="Oval" fill="#F9A908" cx="42.3" cy="32" r="1.2"></circle>
                    <path d="M49.2,32.1 C49.2,32.4 49,32.7 48.6,32.7 C48.3,32.7 48,32.5 48,32.1 C48,31.7 48.2,31.5 48.6,31.5 C49,31.5 49.2,31.8 49.2,32.1 Z" id="Shape" fill="#F9A908"></path>
                    <circle id="Oval" fill="#F7910B" cx="6.9" cy="31.6" r="1"></circle>
                    <path d="M8,24.1 C8,24.3 7.8,24.5 7.6,24.5 C7.4,24.5 7.2,24.3 7.2,24.1 C7.2,23.9 7.4,23.7 7.6,23.7 C7.8,23.7 8,23.9 8,24.1 Z" id="Shape" fill="#F7910B"></path>
                    <path d="M3.9,11.9 C3.9,12.4 3.5,12.9 2.9,12.9 C2.4,12.9 1.9,12.5 1.9,11.9 C1.9,11.4 2.3,10.9 2.9,10.9 C3.5,10.9 3.9,11.4 3.9,11.9 Z" id="Shape" fill="#F9A908"></path>
                    <circle id="Oval" fill="#F9A908" cx="5.8" cy="8.8" r="1"></circle>
                    <circle id="Oval" fill="#F9A908" cx="51.1" cy="14" r="1"></circle>
                    <circle id="Oval" fill="#F9A908" cx="50.4" cy="11.4" r="1"></circle>
                    <path d="M53.1,11.9 C53.1,12.1 52.9,12.3 52.7,12.3 C52.5,12.3 52.3,12.1 52.3,11.9 C52.3,11.7 52.5,11.5 52.7,11.5 C52.9,11.5 53.1,11.7 53.1,11.9 Z" id="Shape" fill="#F9A908"></path>
                    <circle id="Oval" fill="#F9A908" cx="4" cy="14.5" r="1"></circle>
                </g>
                <g transform="translate(12.000000, 23.000000)" id="Shape">
                    <g transform="translate(20.000000, 0.000000)">
                        <path d="M8.5,4.6 C8.1,4.6 7.8,4.5 7.5,4.2 C6.2,3 4.2,3 3,4.2 C2.4,4.8 1.5,4.8 0.9,4.2 C0.3,3.6 0.3,2.7 0.9,2.1 C3.3,-0.3 7.2,-0.3 9.5,2.1 C10.1,2.7 10.1,3.6 9.5,4.2 C9.3,4.5 8.9,4.6 8.5,4.6 Z" fill="#1E4784"></path>
                        <path d="M9.5,2.1 C10.1,2.7 10.1,3.6 9.5,4.2 C9.2,4.5 8.8,4.6 8.5,4.6 C8.1,4.6 7.8,4.5 7.5,4.2 C6.2,3 4.2,3 3,4.2 C2.4,4.8 1.5,4.8 0.9,4.2 C0.3,3.6 0.3,2.7 0.9,2.1" fill="#02243E"></path>
                    </g>
                    <g>
                        <path d="M1.5,4.6 C1.9,4.6 2.2,4.5 2.5,4.2 C3.7,3 5.8,3 7,4.2 C7.6,4.8 8.5,4.8 9.1,4.2 C9.7,3.6 9.7,2.7 9.1,2.1 C6.7,-0.3 2.8,-0.3 0.5,2.1 C-0.1,2.7 -0.1,3.6 0.5,4.2 C0.7,4.5 1.1,4.6 1.5,4.6 Z" fill="#1E4784"></path>
                        <path d="M0.5,2.1 C-0.1,2.7 -0.1,3.6 0.5,4.2 C0.8,4.5 1.2,4.6 1.5,4.6 C1.9,4.6 2.2,4.5 2.5,4.2 C3.7,3 5.8,3 7,4.2 C7.6,4.8 8.5,4.8 9.1,4.2 C9.7,3.6 9.7,2.7 9.1,2.1" fill="#02243E"></path>
                    </g>
                </g>
                <path d="M34.3,38.1 C34.3,40.6 31,44.1 27,44.1 C23,44.1 19.7,40.6 19.7,38.1" id="Shape" fill="#F7910B"></path>
            </g>
            <g id="Group" transform="translate(0.000000, 15.000000)">
                <g>
                    <path d="M12.1,11.8 C12.1,18 11.4,23 8.4,23 C5.4,23 0,18 0,11.8 C0,5.6 5.4,0.6 8.4,0.6 C11.4,0.6 12.1,5.6 12.1,11.8 Z" id="Shape" fill="#073551"></path>
                    <path d="M12.1,11.8 C12.1,18 11.4,23 8.4,23 C5.4,23 0,18 0,11.8" id="Shape" fill="#02243E"></path>
                    <path d="M0,11.8 C0,16.8 3.6,21.1 6.6,22.5 C7,19.3 7.3,15.6 7.3,11.8 C7.3,8 7.1,4.3 6.6,1.1 C3.6,2.5 0,6.8 0,11.8 Z" id="Shape" fill="#1E4784"></path>
                    <path d="M0,11.8 C0,16.8 3.6,21.1 6.6,22.5 C7,19.3 7.3,15.6 7.3,11.8" id="Shape" fill="#0F3A6D"></path>
                    <path d="M0,11.8 C0,15.6 2.1,19 4.3,21 C4.9,18.7 5.4,15.4 5.4,11.8 C5.4,8.2 5,4.9 4.3,2.6 C2.1,4.6 0,8 0,11.8 Z" id="Shape" fill="#C42260"></path>
                    <path d="M0,11.8 C0,15.6 2.1,19 4.3,21 C4.9,18.7 5.4,15.4 5.4,11.8" id="Shape" fill="#99144A"></path>
                    <g transform="translate(8.000000, 7.000000)" id="Oval" fill="#C42260">
                        <circle cx="1" cy="0.7" r="1"></circle>
                        <circle cx="1" cy="4.8" r="1"></circle>
                        <circle cx="1" cy="9" r="1"></circle>
                    </g>
                </g>
                <g transform="translate(49.000000, 0.000000)">
                    <path d="M0.9,11.8 C0.9,18 1.6,23 4.6,23 C7.6,23 13,18 13,11.8 C13,5.6 7.6,0.6 4.6,0.6 C1.6,0.6 0.9,5.6 0.9,11.8 Z" id="Shape" fill="#073551"></path>
                    <path d="M0.9,11.8 C0.9,18 1.6,23 4.6,23 C7.6,23 13,18 13,11.8" id="Shape" fill="#02243E"></path>
                    <path d="M13,11.8 C13,16.8 9.4,21.1 6.4,22.5 C6,19.3 5.7,15.6 5.7,11.8 C5.7,8 5.9,4.3 6.4,1.1 C9.4,2.5 13,6.8 13,11.8 Z" id="Shape" fill="#1E4784"></path>
                    <path d="M13,11.8 C13,16.8 9.4,21.1 6.4,22.5 C6,19.3 5.7,15.6 5.7,11.8" id="Shape" fill="#0F3A6D"></path>
                    <path d="M13,11.8 C13,15.6 10.9,19 8.7,21 C8,18.7 7.6,15.4 7.6,11.8 C7.6,8.2 8,4.9 8.7,2.6 C10.9,4.6 13,8 13,11.8 Z" id="Shape" fill="#C42260"></path>
                    <path d="M13,11.8 C13,15.6 10.9,19 8.7,21 C8,18.7 7.6,15.4 7.6,11.8" id="Shape" fill="#99144A"></path>
                    <g transform="translate(3.000000, 7.000000)" id="Oval" fill="#C42260">
                        <circle cx="1" cy="0.7" r="1"></circle>
                        <circle cx="1" cy="4.8" r="1"></circle>
                        <circle cx="1" cy="9" r="1"></circle>
                    </g>
                </g>
            </g>
            <g id="Group" transform="translate(37.000000, 40.000000)">
                <polygon id="Shape" fill="#6965A8" points="9.5 2.1 4.2 3.2 4.2 1.8 9.5 0.6"></polygon>
                <polygon id="Shape" fill="#4C4C8C" points="4.2 2.1 4.2 11.3 5.5 11.3 5.5 1.9"></polygon>
                <polygon id="Shape" fill="#6965A8" points="2.7 14 0.9 12.1 4.3 8.7 5.5 11.3"></polygon>
            </g>
            <g id="Group" transform="translate(46.000000, 36.000000)">
                <polygon id="Shape" fill="#6965A8" points="9.2 1.7 3.8 2.8 3.8 1.4 9.2 0.2"></polygon>
                <polygon id="Shape" fill="#4C4C8C" points="3.9 1.8 3.9 10.9 5.2 10.9 5.2 1.5"></polygon>
                <polygon id="Shape" fill="#6965A8" points="2.4 13.6 0.5 11.7 4 8.3 5.2 10.9"></polygon>
            </g>
            <g id="Group" transform="translate(35.000000, 39.000000)">
                <polygon id="Shape" fill="#6965A8" points="4.8 1.2 2 1.7 2 1 4.8 0.4"></polygon>
                <polygon id="Shape" fill="#4C4C8C" points="2.1 1.2 2.1 5.9 2.7 5.9 2.7 1"></polygon>
                <polygon id="Shape" fill="#6965A8" points="1.3 7.3 0.3 6.3 2.1 4.6 2.7 5.9"></polygon>
            </g>
            <g id="Group" transform="translate(19.000000, 10.000000)" fill="#037A66">
                <path d="M6.3,1.1 C6.5,1.9 5.1,1.9 3.4,2.4 C1.7,2.9 0.5,3.7 0.2,2.9 C5.27355937e-15,2.1 1.1,1 2.8,0.5 C4.5,0 6.1,0.2 6.3,1.1 Z" id="Shape"></path>
                <path d="M17.7,1.1 C17.5,1.9 18.9,1.9 20.6,2.4 C22.3,2.9 23.5,3.7 23.8,2.9 C24,2.1 22.9,1 21.2,0.5 C19.5,0 17.9,0.2 17.7,1.1 Z" id="Shape"></path>
            </g>
            <path d="M33.4,37.6 C33.4,39.6 32.3,40.2 31,40.2 C29.7,40.2 28.6,39.6 28.6,37.6 C28.6,35.7 29.7,34.1 31,34.1 C32.3,34.1 33.4,35.7 33.4,37.6 Z" id="Shape" fill="#99144A"></path>
        </g>
    </g>
</svg>