<svg height="62" viewBox="0 0 64 62" width="64" xmlns="http://www.w3.org/2000/svg"><g fill="none"><g transform="translate(2 3)"><path d="m61.4 35.4c0 13-11.9 23.5-30.3 23.5s-30.4-10.5-30.4-23.5 11.9-32.5 30.4-32.5 30.3 19.5 30.3 32.5z" fill="#f7910b"/><path d="m61.4 35.4c0 13-11.9 19.5-30.3 19.5s-30.4-6.5-30.4-19.5 11.9-34.5 30.4-34.5 30.3 21.5 30.3 34.5z" fill="#f7910b"/><path d="m31.1.9c18.4 0 30.3 21.5 30.3 34.5s-11.9 19.5-30.3 19.5" fill="#f9a908"/><path d="m61.4 35.4c0 13-11.9 19.5-30.3 19.5s-30.4-6.5-30.4-19.5 11.9-32.5 30.4-32.5 30.3 19.5 30.3 32.5z" fill="#f9a908"/><path d="m.7 35.4c0-13 11.9-32.5 30.3-32.5" fill="#f9c55d"/><path d="m31.1 2.9c18.4 0 30.3 19.5 30.3 32.5s-11.9 23.5-30.3 23.5" fill="#f7910b"/><path d="m31.1 2.9c18.4 0 30.3 19.5 30.3 32.5" fill="#ea7103"/><g transform="translate(24 42)"><path d="m24.8 3.1c0 2.6-5.3 4.7-11.9 4.7s-11.9-2.1-11.9-4.7" fill="#ed7e11"/><path d="m13.1 4.4c-4.9 0-9.8-.7-12-2.1-.5-.3-.7-1-.4-1.5s1-.7 1.5-.4c3.8 2.3 18 2.3 21.8 0 .5-.3 1.2-.2 1.5.4s.2 1.2-.4 1.5c-2.2 1.4-7.1 2.1-12 2.1z" fill="#02243e"/></g><circle cx="9.4" cy="32.4" fill="#f7910b" r="1"/><circle cx="4.9" cy="34.4" fill="#f7910b" r="1.1"/><circle cx="7.9" cy="30.4" fill="#f7910b" r="1"/><circle cx="12.5" cy="32.2" fill="#f7910b" r="1"/><circle cx="57.6" cy="35.3" fill="#f9a908" r="1"/><circle cx="54.1" cy="34.1" fill="#f9a908" r="1"/><circle cx="58.3" cy="41.1" fill="#f9a908" r="1"/><circle cx="54.5" cy="44.9" fill="#f9a908" r="1.3"/><circle cx="55.5" cy="37" fill="#f9a908" r="1"/><circle cx="8.4" cy="36.4" fill="#f7910b" r="1"/><circle cx="9.1" cy="28" fill="#f7910b" r="1"/><g fill="#f9a908"><circle cx="3.9" cy="14.2" r="1.1"/><circle cx="7.1" cy="10.7" r="1"/><circle cx="58.3" cy="16.6" r="1"/><circle cx="57.5" cy="13.7" r="1"/><circle cx="60" cy="14.2" r="1"/><circle cx="5.1" cy="17.2" r="1"/></g><g transform="translate(23 29)"><circle cx="4" cy="5.3" fill="#d87703" r="3.5"/><circle cx="26.8" cy="5.3" fill="#d87703" r="3.5"/><circle cx="4" cy="4.3" fill="#1e4784" r="3.5"/><path d="m4 .8c1.9 0 3.5 1.6 3.5 3.5s-1.6 3.5-3.5 3.5" fill="#00233f"/><circle cx="26.8" cy="4.3" fill="#1e4784" r="3.5"/><path d="m26.8.8c1.9 0 3.5 1.6 3.5 3.5s-1.6 3.5-3.5 3.5" fill="#00233f"/></g><g transform="translate(18 12)"><path d="m10.8.5c-1.8.1-3.2.8-3.2 1.7l6.5-.3c0-.9-1.5-1.5-3.3-1.4z" fill="#19bca4"/><path d="m30.1.5c-1.8-.1-3.3.6-3.3 1.4l6.5.3c.1-.9-1.4-1.7-3.2-1.7z" fill="#19bca4"/><path d="m10.9 2.5c1.8-.1 3.3.3 3.3-.6l-6.5.3c0 .8 1.4.3 3.2.3z" fill="#109da0"/><path d="m30 2.5c1.8.1 3.3.6 3.3-.3l-6.5-.3c0 .9 1.4.5 3.2.6z" fill="#109da0"/><path d="m8.5 24.2c-4.3 0-7.8 1-7.8 2.2s3.5.7 7.8.7 7.8.6 7.8-.7c0-1.2-3.5-2.2-7.8-2.2z" fill="#f9c55d"/><path d="m32.4 24.2c-4.3 0-7.8 1-7.8 2.2s3.5.7 7.8.7 7.8.6 7.8-.7c0-1.2-3.4-2.2-7.8-2.2z" fill="#f9a908"/></g></g><g transform="translate(4 6)"><path d="m26.3 11.4c0-6-5.8-10.8-12.9-10.8s-12.9 4.8-12.9 10.8c0 1.6.4 3.1 1.1 4.5l5.4 7.1v3.1c0 3 2.9 5.4 6.5 5.4s6.5-2.4 6.5-5.4v-3.1l5.2-7.1c.7-1.4 1.1-2.9 1.1-4.5z" fill="#fff"/><path d="m13.5 31.5c3.6 0 6.5-2.4 6.5-5.4v-3.1l5.2-7.1c.7-1.4 1.1-2.9 1.1-4.5 0-6-5.8-10.8-12.9-10.8" fill="#f9f3dc"/><path d="m8.9 29.3v4.3c0 .9.7 1.7 1.7 1.7h5.8c.9 0 1.7-.7 1.7-1.7v-4.3z" fill="#6d6db2"/><path d="m16.4 35.3c.9 0 1.7-.7 1.7-1.7v-4.3h-9.1" fill="#4c4c8c"/><g fill="#7777bf"><path d="m17.9 30.8c0 .2-.1.3-.3.3h-8.3c-.2 0-.3-.1-.3-.3 0-.2.1-.3.3-.3h8.3c.2-.1.3.1.3.3z"/><path d="m17.9 32.3c0 .2-.1.3-.3.3h-8.3c-.2 0-.3-.1-.3-.3 0-.2.1-.3.3-.3h8.3c.2 0 .3.2.3.3z"/><path d="m17.9 33.9c0 .2-.1.3-.3.3h-8.3c-.2 0-.3-.1-.3-.3 0-.2.1-.3.3-.3h8.3c.2 0 .3.1.3.3z"/></g></g><g fill="#f9c55d"><circle cx="12.7" cy="20.1" r="1.2"/><circle cx="17.5" cy="20.1" r="1.2"/><circle cx="22.3" cy="20.1" r="1.2"/></g><g fill="#fff"><path d="m18.5 3c0 .6-.5 1-1 1-.6 0-1-.5-1-1v-1.9c0-.6.5-1 1-1 .6 0 1 .5 1 1z"/><g><path d="m7.7 5.8c.4.4.4 1.1 0 1.5-.4.4-1.1.4-1.5 0l-1.3-1.4c-.4-.4-.4-1.1 0-1.5.4-.4 1.1-.4 1.5 0z"/><path d="m3.8 10.2c.5.2.8.8.6 1.3-.2.5-.8.8-1.3.6l-1.8-.6c-.5-.2-.8-.8-.6-1.3.2-.5.8-.8 1.3-.6z"/><path d="m13.1 3.3c.2.5 0 1.1-.6 1.3-.5.2-1.1 0-1.3-.6l-.7-1.8c-.2-.5 0-1.1.6-1.3.5-.2 1.1 0 1.3.6z"/><g transform="translate(21)"><path d="m6.3 5.8c-.4.4-.4 1.1 0 1.5.4.4 1.1.4 1.5 0l1.4-1.4c.4-.4.4-1.1 0-1.5-.4-.4-1.1-.4-1.5 0z"/><path d="m10.2 10.2c-.5.2-.8.8-.6 1.3.2.5.8.8 1.3.6l1.8-.6c.5-.2.8-.8.6-1.3-.2-.5-.8-.8-1.3-.6z"/><path d="m.8 3.3c-.2.5 0 1.1.6 1.3.5.2 1.1 0 1.3-.6l.7-1.8c.2-.5 0-1.1-.6-1.3-.5-.2-1.1 0-1.3.6z"/></g></g></g></g></svg>