<svg height="60" viewBox="0 0 62 60" width="62" xmlns="http://www.w3.org/2000/svg"><g fill="none" transform="translate(-1)"><ellipse cx="11.60374" cy="50.79852" fill="#ea7103" rx="8.799872" ry="8.499876" transform="matrix(.96181398 -.27370398 .27370398 .96181398 -13.460657 5.115783)"/><g transform="translate(1)"><path d="m61.3 35.2c0 13-11.9 23.5-30.3 23.5s-30.3-10.5-30.3-23.5 11.9-32.5 30.3-32.5 30.3 19.5 30.3 32.5z" fill="#f7910b"/><path d="m61.3 35.2c0 13-11.9 19.5-30.3 19.5s-30.3-6.5-30.3-19.5 11.9-34.5 30.3-34.5 30.3 21.5 30.3 34.5z" fill="#f7910b"/><path d="m31 .7c18.4 0 30.3 21.5 30.3 34.5s-11.9 19.5-30.3 19.5" fill="#f9a908"/><path d="m61.3 35.2c0 13-11.9 19.5-30.3 19.5s-30.3-6.5-30.3-19.5 11.9-32.5 30.3-32.5 30.3 19.5 30.3 32.5z" fill="#f9a908"/><path d="m.7 35.2c0-13 11.9-32.5 30.3-32.5" fill="#f9c55d"/><path d="m31 2.7c18.4 0 30.3 19.5 30.3 32.5s-11.9 23.5-30.3 23.5" fill="#f7910b"/><path d="m31 2.7c18.4 0 30.3 19.5 30.3 32.5" fill="#ea7103"/><g transform="translate(17 19)"><circle cx="3.6" cy="4.4" fill="#ea7103" r="3.2"/><circle cx="24.4" cy="4.4" fill="#ea7103" r="3.2"/><circle cx="3.6" cy="3.5" fill="#1e4784" r="3.2"/><path d="m3.6.3c1.8 0 3.2 1.4 3.2 3.2s-1.4 3.2-3.2 3.2" fill="#00233f"/><circle cx="24.4" cy="3.5" fill="#1e4784" r="3.2"/><path d="m24.4.3c1.8 0 3.2 1.4 3.2 3.2s-1.4 3.2-3.2 3.2" fill="#00233f"/></g><g fill="#19bca4" transform="translate(18 8)"><path d="m6.7 1.8c0 .9-1.4.5-3.3.6-1.8.1-3.3.6-3.3-.3s1.4-1.6 3.2-1.7c1.9-.2 3.4.5 3.4 1.4z"/><path d="m19.3 1.8c0 .9 1.4.5 3.3.6 1.8.1 3.3.6 3.3-.3s-1.4-1.6-3.2-1.7c-1.9-.2-3.4.5-3.4 1.4z"/></g><g fill="#109da0" transform="translate(18 9)"><path d="m6.7.8c0 .9-1.4.5-3.3.6-1.8.1-3.3.6-3.3-.3"/><path d="m19.3.8c0 .9 1.4.5 3.3.6 1.8.1 3.3.6 3.3-.3"/></g><g transform="translate(11 26)"><path d="m15.8 2.5c0 1.2-3.5.7-7.8.7s-7.8.6-7.8-.7c0-1.2 3.5-2.2 7.8-2.2s7.8 1 7.8 2.2z" fill="#f9c55d"/><path d="m39.8 2.5c0 1.2-3.5.7-7.8.7s-7.8.6-7.8-.7c0-1.2 3.5-2.2 7.8-2.2s7.8 1 7.8 2.2z" fill="#f9a908"/></g><g transform="translate(16 29)"><path d="m21.7 6.8c0 2.4-3 6.6-6.7 6.6s-6.7-4.3-6.7-6.6" fill="#f7910b"/><g fill="#02243e"><g><path d="m1.3 4.8c-.6 0-1-.4-1-1s.4-1 1-1c.8 0 1.4-.6 1.4-1.4 0-.6.4-1 1-1s1 .4 1 1c.1 1.9-1.5 3.4-3.4 3.4z"/><path d="m28.7 4.8c-1.9 0-3.4-1.5-3.4-3.4 0-.6.4-1 1-1s1 .4 1 1c0 .8.6 1.4 1.4 1.4.6 0 1 .4 1 1s-.5 1-1 1z"/></g><path d="m15 9.3c-4.8 0-9.3-1.9-12.7-5.2-.4-.4-.4-1 0-1.4s1-.4 1.4 0c3 3 7 4.7 11.3 4.7s8.2-1.7 11.3-4.7c.4-.4 1-.4 1.4 0s.4 1 0 1.4c-3.4 3.4-7.9 5.2-12.7 5.2z"/></g></g><path d="m36.3 33.3c0 1.1-2.4 2.1-5.3 2.1s-5.3-.9-5.3-2.1" fill="#f9c55d"/><circle cx="9.3" cy="32.2" fill="#f7910b" r="1"/><circle cx="4.8" cy="34.2" fill="#f7910b" r="1.1"/><circle cx="7.8" cy="30.2" fill="#f7910b" r="1"/><circle cx="12.4" cy="32" fill="#f7910b" r="1"/><circle cx="51.6" cy="32.5" fill="#f9a908" r="1"/><circle cx="54.1" cy="33.9" fill="#f9a908" r="1"/><circle cx="48.8" cy="25.1" fill="#f9a908" r="1"/><circle cx="48.3" cy="36.7" fill="#f9a908" r="1.3"/><circle cx="55.5" cy="36.8" fill="#f9a908" r="1"/><circle cx="8.3" cy="36.2" fill="#f7910b" r="1"/><circle cx="9.1" cy="27.8" fill="#f7910b" r="1"/><g fill="#f9a908"><circle cx="3.8" cy="14" r="1.1"/><circle cx="7" cy="10.5" r="1"/><circle cx="58.2" cy="16.4" r="1"/><circle cx="57.4" cy="13.5" r="1"/><circle cx="60" cy="14" r="1"/><circle cx="5" cy="17" r="1"/></g></g><g transform="translate(1 32)"><path d="m13 8c2.9 5.8.8 5-.8 5.8-1.7.8-2.3 3-5.2-2.8s-2.7-8.8-1-9.6c1.6-.8 4.1.8 7 6.6z" fill="#ccf2e3"/><path d="m5.9 1.4c1.7-.8 4.2.8 7.1 6.6s.8 5-.8 5.8" fill="#aad6c3"/><path d="m8.8 14.5c2.9 5.8.8 5-.9 5.8s-1.9 3.8-4.8-2c-2.9-5.8-3-9.6-1.4-10.4 1.7-.8 4.2.8 7.1 6.6z" fill="#ccf2e3"/><path d="m1.7 7.9c1.7-.8 4.2.8 7 6.6 2.9 5.8.8 5-.9 5.8" fill="#aad6c3"/><path d="m20.2 7.4c2.9 5.8.8 5-.8 5.8-1.7.8-2.3 3-5.2-2.8s-2.7-8.8-1-9.6c1.6-.8 4.1.8 7 6.6z" fill="#ccf2e3"/><path d="m13.1.8c1.7-.8 4.2.8 7.1 6.6s.8 5-.8 5.8" fill="#aad6c3"/><path d="m22.1 11.2c2.7 5.3 2.1 11.2-3.3 13.9s-11.9.6-14.6-4.8c-2.7-5.3.7-9.5 6.1-12.2 5.4-2.6 9.1-2.2 11.8 3.1z" fill="#ccf2e3"/><path d="m22.1 11.2c2.7 5.3 2.1 11.2-3.3 13.9s-9.4-1.2-12.1-6.6c-2.7-5.2-4.9-5.4 3.3-10.2 5.3-3 9.3-2.6 12.1 2.9z" fill="#aad6c3"/><path d="m25.1 8.7c2 .9 1.8 5.6-.5 10.5-2.2 4.9-6.3 6.7-8.3 5.8s-1.1-4.2 1.1-9.1c2.3-4.9 5.7-8.1 7.7-7.2z" fill="#ccf2e3"/><path d="m25.1 8.7c2 .9 1.8 5.6-.5 10.5-2.2 4.9-6.3 6.7-8.3 5.8" fill="#aad6c3"/><path d="m17 8.9c.1.2.1.4 0 .5l-8.2 7.4c-.2.1-.4.1-.5 0-.1-.2-.1-.4 0-.5l8.2-7.4c.1-.1.4-.1.5 0z" fill="#ccf2e3"/><path d="m17.9 11.1c.1.2.1.4 0 .5l-8.2 7.4c-.2.1-.4.1-.5 0-.1-.2-.1-.4 0-.5l8.2-7.4c.1-.2.3-.1.5 0z" fill="#ccf2e3"/><g fill="#e7f7ef"><path d="m5.2 4.1c0 .9.3 1.6.6 1.6s.5-.8.5-1.7-.3-1.6-.6-1.6-.5.8-.5 1.7z"/><ellipse cx="1.589701" cy="11.02454" rx="1" ry="1.700076" transform="matrix(-.99955523 .02982175 -.02982175 -.99955523 3.507466 21.996769)"/><ellipse cx="13.074234" cy="3.546537" rx="1" ry="1.700031" transform="matrix(-.99958182 .02891696 -.02891696 -.99958182 26.245556 6.713524)"/><path d="m5.5 18c.9 1.7 1.3 3.3.9 3.5s-1.4-1-2.3-2.8c-.9-1.7-.8-2.3-.4-2.5.3-.2.9.1 1.8 1.8z"/><path d="m20.4 12.1c.9-1.4 2-2.3 2.3-2.1.4.2-.1 1.6-1 3s-1.4 1.5-1.8 1.3c-.4-.3-.5-.8.5-2.2z"/></g></g></g></svg>