<svg height="58" viewBox="0 0 62 58" width="62" xmlns="http://www.w3.org/2000/svg"><g fill="none"><path d="m60.9 34.5c0 13-11.9 23.5-30.3 23.5s-30.3-10.5-30.3-23.5 11.9-32.5 30.3-32.5 30.3 19.5 30.3 32.5z" fill="#f7910b"/><path d="m60.9 34.5c0 13-11.9 19.5-30.3 19.5s-30.3-6.5-30.3-19.5 11.9-34.5 30.3-34.5 30.3 21.5 30.3 34.5z" fill="#f7910b"/><path d="m30.6 0c18.4 0 30.3 21.5 30.3 34.5s-11.9 19.5-30.3 19.5" fill="#f9a908"/><path d="m60.9 34.5c0 13-11.9 19.5-30.3 19.5s-30.3-6.5-30.3-19.5 11.9-32.5 30.3-32.5 30.3 19.5 30.3 32.5z" fill="#f9a908"/><path d="m.3 34.5c0-13 11.9-32.5 30.3-32.5" fill="#f9c55d"/><path d="m30.6 2c18.4 0 30.3 19.5 30.3 32.5s-11.9 23.5-30.3 23.5" fill="#f7910b"/><path d="m30.6 2c18.4 0 30.3 19.5 30.3 32.5" fill="#ea7103"/><g transform="translate(18 10)"><path d="m5.4 5.1c-.6.7-1.4-.6-2.8-1.8s-2.8-1.8-2.2-2.4c.6-.7 2.1-.3 3.5.9 1.4 1.1 2.1 2.6 1.5 3.3z" fill="#19bca4"/><path d="m5.4 5.1c-.6.7-1.4-.6-2.8-1.8s-2.8-1.8-2.2-2.4" fill="#109da0"/></g><g transform="translate(36 11)"><path d="m.7 2.9c.2.8 1.5.1 3.3-.4 1.8-.4 3.3-.4 3.1-1.2s-1.8-1.2-3.6-.7c-1.8.4-3 1.4-2.8 2.3z" fill="#19bca4"/><path d="m.7 2.9c.2.8 1.5.1 3.3-.4 1.8-.4 3.3-.4 3.1-1.2" fill="#109da0"/></g><circle cx="8.9" cy="31.5" fill="#f7910b" r="1"/><circle cx="4.4" cy="33.5" fill="#f7910b" r="1.1"/><circle cx="7.4" cy="29.5" fill="#f7910b" r="1"/><circle cx="12" cy="31.3" fill="#f7910b" r="1"/><g fill="#f9a908"><circle cx="51.2" cy="31.8" r="1"/><circle cx="53.7" cy="33.2" r="1"/><circle cx="48.4" cy="24.4" r="1"/><circle cx="47.9" cy="36" r="1.3"/><circle cx="55.1" cy="36.1" r="1"/></g><circle cx="7.9" cy="35.5" fill="#f7910b" r="1"/><circle cx="8.7" cy="27.1" fill="#f7910b" r="1"/><circle cx="3.4" cy="13.3" fill="#f9a908" r="1.1"/><circle cx="6.6" cy="9.8" fill="#f9a908" r="1"/><circle cx="57.8" cy="15.7" fill="#f9a908" r="1"/><g transform="translate(13 19)"><path d="m9.5 6c-.4-.1-.8-.3-1.1-.7-1.1-1.6-3.4-2-5-.9-.8.5-1.8.3-2.3-.4s-.3-1.8.4-2.3c3.1-2.2 7.4-1.4 9.6 1.8.5.7.3 1.8-.4 2.3-.4.2-.8.2-1.2.2z" fill="#1e4784"/><path d="m11.1 3.4c.5.7.3 1.8-.4 2.3-.4.3-.8.3-1.2.3-.4-.1-.8-.3-1.1-.7-1.1-1.6-3.4-2-5-.9-.8.5-1.8.3-2.3-.4s-.3-1.8.4-2.3" fill="#02243e"/></g><g transform="translate(36 18)"><circle cx="4.4" cy="4.7" fill="#d87703" r="3.5"/><circle cx="4.4" cy="3.7" fill="#1e4784" r="3.5"/><path d="m4.4.2c1.9 0 3.5 1.6 3.5 3.5s-1.6 3.5-3.5 3.5" fill="#00233f"/></g><circle cx="57" cy="12.8" fill="#f9a908" r="1"/><circle cx="59.6" cy="13.3" fill="#f9a908" r="1"/><circle cx="4.6" cy="16.3" fill="#f9a908" r="1"/><g transform="translate(10 25)"><path d="m16.4 2.8c0 1.2-3.5.7-7.8.7s-7.8.6-7.8-.7c0-1.2 3.5-2.2 7.8-2.2 4.4 0 7.8 1 7.8 2.2z" fill="#f9c55d"/><path d="m40.4 2.8c0 1.2-3.5.7-7.8.7s-7.8.6-7.8-.7c0-1.2 3.5-2.2 7.8-2.2s7.8 1 7.8 2.2z" fill="#f9a908"/></g><path d="m38 43.1c0 2.6-3.3 7.3-7.4 7.3s-7.4-4.7-7.4-7.3" fill="#f7910b"/><path d="m31.7 45.4c-.4 0-.8-.2-1-.6-.3-.6 0-1.2.5-1.5 2.4-1.1 3.3-2.1 3.3-2.6 0-.6-1.1-1.3-1.6-1.6-.3-.2-.6-.5-.6-.9s.1-.8.4-1c.9-.7 1.2-1.3 1.1-1.5-.1-.6-1.6-1.3-2.7-1.6-.6-.1-1-.7-.8-1.3.1-.6.7-1 1.3-.8.6.1 3.8 1 4.3 3.2.2.9-.1 1.8-.8 2.7.8.6 1.6 1.5 1.6 2.7 0 1.7-1.5 3.2-4.5 4.6-.2.2-.4.2-.5.2z" fill="#02243e"/><g transform="translate(45 24)"><path d="m5.1 1c1.8.5 3 1.9 3.2 3.5 0 .2.2.3.3.3.2.1.4.1.4-.1 1-1.3 2.8-1.9 4.5-1.4 2.2.6 3.6 2.7 3.1 4.7-.2.7-.6 1.3-1.2 1.8l-10 6.8-5.1-11c-.3-.7-.3-1.5-.1-2.2.4-1.9 2.6-3 4.9-2.4z" fill="#d81665"/><path d="m8.6 4.8c.2.1.4.1.4-.1 1-1.3 2.8-1.9 4.5-1.4 2.2.6 3.6 2.7 3.1 4.7-.2.7-.6 1.3-1.2 1.8l-10 6.8" fill="#b20b5f"/></g><g transform="translate(38 35)"><path d="m3.1 1.1c1 .3 1.7 1 1.7 1.9 0 .1.1.2.2.2h.2c.5-.7 1.5-1 2.5-.8 1.2.3 2 1.5 1.7 2.6-.1.4-.3.7-.7 1l-5.5 3.7-2.8-6c-.2-.4-.2-.8-.1-1.2.3-1.2 1.6-1.8 2.8-1.4z" fill="#d81665"/><path d="m5 3.2h.2c.5-.7 1.5-1 2.5-.8 1.2.3 2 1.5 1.7 2.6-.1.4-.3.7-.7 1l-5.5 3.7" fill="#b20b5f"/></g><g transform="translate(50 16)"><path d="m2.7.7c1-.1 1.9.4 2.3 1.3 0 .1.1.1.2.1s.2 0 .2-.1c.3-.8 1.1-1.5 2.1-1.5 1.3-.1 2.3.8 2.4 1.9 0 .4-.1.8-.3 1.2l-4 5.3-4.6-4.9c-.3-.3-.4-.7-.5-1.1-.1-1.1.9-2.1 2.2-2.2z" fill="#d81665"/><path d="m5.1 2.1c.1 0 .2 0 .2-.1.3-.8 1.1-1.5 2.1-1.5 1.3-.1 2.3.8 2.4 1.9 0 .4-.1.8-.3 1.2l-4 5.3" fill="#b20b5f"/></g></g></svg>