<svg height="60" viewBox="0 0 62 60" width="62" xmlns="http://www.w3.org/2000/svg"><g fill="none"><g transform="translate(0 1)"><path d="m61.3 35.2c0 13-11.9 23.5-30.3 23.5s-30.3-10.5-30.3-23.5 11.9-32.5 30.3-32.5 30.3 19.5 30.3 32.5z" fill="#f7910b"/><path d="m61.3 35.2c0 13-11.9 19.5-30.3 19.5s-30.3-6.5-30.3-19.5 11.9-34.5 30.3-34.5 30.3 21.5 30.3 34.5z" fill="#f7910b"/><path d="m31 .7c18.4 0 30.3 21.5 30.3 34.5s-11.9 19.5-30.3 19.5" fill="#f9a908"/><path d="m61.3 35.2c0 13-11.9 19.5-30.3 19.5s-30.3-6.5-30.3-19.5 11.9-32.5 30.3-32.5 30.3 19.5 30.3 32.5z" fill="#f9a908"/><path d="m.7 35.2c0-13 11.9-32.5 30.3-32.5" fill="#f9c55d"/><path d="m31 2.7c18.4 0 30.3 19.5 30.3 32.5s-11.9 23.5-30.3 23.5" fill="#f7910b"/><path d="m31 2.7c18.4 0 30.3 19.5 30.3 32.5" fill="#ea7103"/><ellipse cx="9.3" cy="32.1" fill="#f7910b" rx="1" ry="1"/><ellipse cx="4.8" cy="34.1" fill="#f7910b" rx="1.1" ry="1.1"/><circle cx="7.8" cy="30.1" fill="#f7910b" r="1"/><circle cx="12.4" cy="32" fill="#f7910b" r="1"/><circle cx="51.6" cy="32.5" fill="#f9a908" r="1"/><circle cx="54.1" cy="33.9" fill="#f9a908" r="1"/><circle cx="48.8" cy="25.1" fill="#f9a908" r="1"/><ellipse cx="48.3" cy="36.7" fill="#f9a908" rx="1.3" ry="1.3"/><circle cx="55.5" cy="36.8" fill="#f9a908" r="1"/><circle cx="8.3" cy="36.2" fill="#f7910b" r="1"/><circle cx="9.1" cy="27.8" fill="#f7910b" r="1"/><g fill="#f9a908"><circle cx="3.8" cy="14" r="1.1"/><ellipse cx="7" cy="10.5" rx="1" ry="1"/><circle cx="58.2" cy="16.4" r="1"/><ellipse cx="57.4" cy="13.5" rx="1" ry="1"/><circle cx="60" cy="14" r="1"/><ellipse cx="5" cy="17" rx="1" ry="1"/></g><path d="m38.2 45.6c0 2.6-3.3 7.2-7.4 7.2s-7.4-4.6-7.4-7.2" fill="#f7910b"/><g transform="translate(15 18)"><circle cx="4.6" cy="5.7" fill="#d87703" r="3.5"/><path d="m30.9 5.7c0 1.9-1.6 3.5-3.5 3.5s-3.5-1.6-3.5-3.5 1.6-3.5 3.5-3.5c2 0 3.5 1.6 3.5 3.5z" fill="#d87703"/><circle cx="4.6" cy="4.7" fill="#1e4784" r="3.5"/><path d="m4.6 1.2c1.9 0 3.5 1.6 3.5 3.5s-1.6 3.5-3.5 3.5" fill="#00233f"/><path d="m30.9 4.7c0 1.9-1.6 3.5-3.5 3.5s-3.5-1.6-3.5-3.5 1.6-3.5 3.5-3.5c2 0 3.5 1.6 3.5 3.5z" fill="#1e4784"/><path d="m27.4 1.2c1.9 0 3.5 1.6 3.5 3.5s-1.6 3.5-3.5 3.5" fill="#00233f"/><path d="m.5 4.3c0-2.3 1.8-4.1 4.1-4.1s4.1 1.8 4.1 4.1" fill="#f9a908"/><path d="m23.3 4.3c0-2.3 1.8-4.1 4.1-4.1s4.1 1.8 4.1 4.1" fill="#f7910b"/></g><g transform="translate(11 26)"><path d="m15.8 2.5c0 1.2-3.5.7-7.8.7s-7.8.6-7.8-.7c0-1.2 3.5-2.2 7.8-2.2s7.8 1 7.8 2.2z" fill="#f9c55d"/><path d="m39.8 2.5c0 1.2-3.5.7-7.8.7s-7.8.6-7.8-.7c0-1.2 3.5-2.2 7.8-2.2s7.8 1 7.8 2.2z" fill="#f9a908"/></g></g><g transform="translate(23 39)"><path d="m15.6 5.8c0 3.8-3.4 5.3-7.6 5.3s-7.6-1.5-7.6-5.3 3.4-5.8 7.6-5.8 7.6 2 7.6 5.8z" fill="#c42260"/><path d="m15.5 6.9c-.9-.2-1.9-.3-3-.3-1.6 0-3.2.2-4.5.7-1.3-.4-2.9-.7-4.5-.7-1 0-2 .1-3 .3.6 3 3.7 4.3 7.5 4.3 3.8-.1 6.9-1.3 7.5-4.3z" fill="#e2446e"/><path d="m15.3 4c-.9-3-3.8-4-7.3-4s-6.4 1-7.3 4z" fill="#99144a"/></g><g transform="translate(46)"><path d="m11.2 12.1-5-11.7-5 11.7c-.3.7-.5 1.4-.5 2.2 0 3 2.4 5.4 5.4 5.4s5.4-2.4 5.4-5.4c.1-.8 0-1.6-.3-2.2z" fill="#19daf4"/><path d="m6.2 19.7c3 0 5.4-2.4 5.4-5.4 0-.8-.2-1.6-.5-2.2l-5-11.7" fill="#0eb2cc"/></g><g transform="translate(47 19)"><path d="m9.4 10-4.2-9.9-4.2 9.9c-.3.6-.4 1.2-.4 1.9 0 2.5 2 4.6 4.6 4.6 2.5 0 4.6-2 4.6-4.6 0-.7-.2-1.3-.4-1.9z" fill="#19daf4"/><path d="m5.2 16.5c2.5 0 4.6-2 4.6-4.6 0-.7-.1-1.3-.4-1.9l-4.2-9.8" fill="#0eb2cc"/></g><g fill="#92cfdd" transform="translate(4)"><path d="m1 11.2c0 .2-.3.5-.5.5-.3 0-.5-.2-.5-.5v-6.3c0-.2.2-.5.5-.5.2 0 .5.2.5.5z"/><path d="m4 8.5c0 .2-.2.5-.5.5-.3 0-.5-.2-.5-.5v-6.4c0-.2.2-.5.5-.5.3.1.5.3.5.5z"/><path d="m7 7.6c0 .2-.2.5-.5.5-.3-.1-.5-.3-.5-.5v-6.4c0-.2.2-.5.5-.5.3.1.5.3.5.5z"/></g><g fill="#19bca4" transform="translate(18 9)"><path d="m5.2 2.2c0 1-1.1.5-2.5.5s-2.5.5-2.5-.5 1.1-1.7 2.5-1.7 2.5.7 2.5 1.7z"/><path d="m20.8 2.2c0 1 1.1.5 2.5.5s2.5.5 2.5-.5-1.1-1.7-2.5-1.7-2.5.7-2.5 1.7z"/></g></g></svg>