<?xml version="1.0" encoding="UTF-8"?>
<svg width="62px" height="58px" viewBox="0 0 62 58" version="1.1" xmlns="http://www.w3.org/2000/svg" xmlns:xlink="http://www.w3.org/1999/xlink">
    <!-- Generator: Sketch 43.1 (39012) - http://www.bohemiancoding.com/sketch -->
    <title>imgly_sticker_emoticons_asleep</title>
    <desc>Created with Sketch.</desc>
    <defs></defs>
    <g id="Page-1" stroke="none" stroke-width="1" fill="none" fill-rule="evenodd">
        <g id="asleep" fill-rule="nonzero">
            <g id="Group">
                <path d="M61.3,34.5 C61.3,47.5 49.4,58 31,58 C12.6,58 0.7,47.5 0.7,34.5 C0.7,21.5 12.6,2 31,2 C49.4,2 61.3,21.5 61.3,34.5 Z" id="Shape" fill="#F7910B"></path>
                <path d="M61.3,34.5 C61.3,47.5 49.4,54 31,54 C12.6,54 0.7,47.5 0.7,34.5 C0.7,21.5 12.6,0 31,0 C49.4,0 61.3,21.5 61.3,34.5 Z" id="Shape" fill="#F7910B"></path>
                <path d="M31,0 C49.4,0 61.3,21.5 61.3,34.5 C61.3,47.5 49.4,54 31,54" id="Shape" fill="#F9A908"></path>
                <path d="M61.3,34.5 C61.3,47.5 49.4,54 31,54 C12.6,54 0.7,47.5 0.7,34.5 C0.7,21.5 12.6,2 31,2 C49.4,2 61.3,21.5 61.3,34.5 Z" id="Shape" fill="#F9A908"></path>
                <path d="M0.7,34.5 C0.7,21.5 12.6,2 31,2" id="Shape" fill="#F9C55D"></path>
                <path d="M31,2 C49.4,2 61.3,21.5 61.3,34.5 C61.3,47.5 49.4,58 31,58" id="Shape" fill="#F7910B"></path>
                <path d="M31,2 C49.4,2 61.3,21.5 61.3,34.5" id="Shape" fill="#EA7103"></path>
                <g transform="translate(18.000000, 8.000000)" id="Shape">
                    <g>
                        <path d="M6.6,1.9 C6.8,3.2 5.3,2.8 3.5,3.1 C1.7,3.4 0.4,4.3 0.2,3 C1.55431223e-15,1.7 1.3,0.4 3.1,0.2 C4.8,-0.2 6.4,0.6 6.6,1.9 Z" fill="#19BCA4"></path>
                        <path d="M6.6,1.9 C6.8,3.2 5.3,2.8 3.5,3.1 C1.7,3.4 0.4,4.3 0.2,3" fill="#109DA0"></path>
                    </g>
                    <g transform="translate(19.000000, 3.000000)">
                        <path d="M0.1,0.9 C-0.2,1.7 1.3,1.8 3,2.5 C4.7,3.1 5.9,4.1 6.2,3.3 C6.5,2.5 5.4,1.3 3.7,0.7 C2.1,-1.11022302e-16 0.5,0.1 0.1,0.9 Z" fill="#19BCA4"></path>
                        <path d="M0.1,0.9 C-0.2,1.7 1.3,1.8 3,2.5 C4.7,3.1 5.9,4.1 6.2,3.3" fill="#109DA0"></path>
                    </g>
                </g>
                <g transform="translate(11.000000, 25.000000)" id="Shape">
                    <path d="M15.8,2.8 C15.8,4 12.3,3.5 8,3.5 C3.7,3.5 0.2,4.1 0.2,2.8 C0.2,1.6 3.7,0.6 8,0.6 C12.3,0.6 15.8,1.6 15.8,2.8 Z" fill="#F9C55D"></path>
                    <path d="M39.8,2.8 C39.8,4 36.3,3.5 32,3.5 C27.7,3.5 24.2,4.1 24.2,2.8 C24.2,1.6 27.7,0.6 32,0.6 C36.3,0.6 39.8,1.6 39.8,2.8 Z" fill="#F9A908"></path>
                </g>
                <ellipse id="Oval" fill="#F7910B" cx="9.3" cy="31.5" rx="1" ry="1"></ellipse>
                <ellipse id="Oval" fill="#F7910B" cx="4.8" cy="33.5" rx="1.1" ry="1.1"></ellipse>
                <circle id="Oval" fill="#F7910B" cx="7.8" cy="29.5" r="1"></circle>
                <circle id="Oval" fill="#F7910B" cx="12.4" cy="31.3" r="1"></circle>
                <circle id="Oval" fill="#F9A908" cx="51.6" cy="31.8" r="1"></circle>
                <circle id="Oval" fill="#F9A908" cx="54.1" cy="33.2" r="1"></circle>
                <circle id="Oval" fill="#F9A908" cx="48.8" cy="24.4" r="1"></circle>
                <ellipse id="Oval" fill="#F9A908" cx="48.3" cy="36" rx="1.3" ry="1.3"></ellipse>
                <circle id="Oval" fill="#F9A908" cx="55.5" cy="36.1" r="1"></circle>
                <circle id="Oval" fill="#F7910B" cx="8.3" cy="35.5" r="1"></circle>
                <circle id="Oval" fill="#F7910B" cx="9.1" cy="27.1" r="1"></circle>
                <circle id="Oval" fill="#F9A908" cx="3.8" cy="13.3" r="1.1"></circle>
                <ellipse id="Oval" fill="#F9A908" cx="7" cy="9.8" rx="1" ry="1"></ellipse>
                <circle id="Oval" fill="#F9A908" cx="58.2" cy="15.7" r="1"></circle>
                <ellipse id="Oval" fill="#F9A908" cx="57.4" cy="12.8" rx="1" ry="1"></ellipse>
                <circle id="Oval" fill="#F9A908" cx="60" cy="13.3" r="1"></circle>
                <ellipse id="Oval" fill="#F9A908" cx="5" cy="16.3" rx="1" ry="1"></ellipse>
                <g transform="translate(14.000000, 19.000000)" id="Shape">
                    <g transform="translate(23.000000, 0.000000)">
                        <path d="M2.2,0.9 C2.6,1 3,1.2 3.3,1.6 C4.4,3.2 6.7,3.6 8.3,2.5 C9.1,2 10.1,2.2 10.6,2.9 C11.1,3.6 10.9,4.7 10.2,5.2 C7.1,7.4 2.8,6.6 0.6,3.4 C0.1,2.7 0.3,1.6 1,1.1 C1.4,0.9 1.8,0.9 2.2,0.9 Z" fill="#1E4784"></path>
                        <path d="M0.6,3.5 C0.1,2.8 0.3,1.7 1,1.2 C1.4,0.9 1.8,0.9 2.2,0.9 C2.6,1 3,1.2 3.3,1.6 C4.4,3.2 6.7,3.6 8.3,2.5 C9.1,2 10.1,2.2 10.6,2.9 C11.1,3.6 10.9,4.7 10.2,5.2" fill="#02243E"></path>
                    </g>
                    <g>
                        <path d="M8.9,0.9 C8.5,1 8.1,1.2 7.8,1.6 C6.7,3.2 4.4,3.6 2.8,2.5 C2,2 1,2.2 0.5,2.9 C-1.99840144e-15,3.6 0.2,4.7 0.9,5.2 C4,7.4 8.3,6.6 10.5,3.4 C11,2.7 10.8,1.6 10.1,1.1 C9.8,0.9 9.4,0.9 8.9,0.9 Z" fill="#1E4784"></path>
                        <path d="M10.6,3.5 C11.1,2.8 10.9,1.7 10.2,1.2 C9.8,0.9 9.4,0.9 9,0.9 C8.6,1 8.2,1.2 7.9,1.6 C6.8,3.2 4.5,3.6 2.9,2.5 C2.1,2 1.1,2.2 0.6,2.9 C0.1,3.6 0.3,4.7 1,5.2" fill="#02243E"></path>
                    </g>
                </g>
                <path d="M40.8,34.9 C40.8,37.5 36.4,36.7 31,36.7 C25.6,36.7 21.2,37.6 21.2,34.9 C21.2,32.3 25.6,30.1 31,30.1 C36.4,30.2 40.8,32.3 40.8,34.9 Z" id="Shape" fill="#99144A"></path>
                <path d="M40.8,34.9 C40.8,37.5 36.4,36.7 31,36.7 C25.6,36.7 21.2,37.6 21.2,34.9" id="Shape" fill="#6D0C38"></path>
            </g>
            <path d="M33.6,27.8 C33.6,27.8 49.5,28.1 45.5,41.6 C41.5,55.1 63.9,55.4 60.5,40.3 C56.6,23 33.6,27.8 33.6,27.8 Z" id="Shape" fill="#A4D8EA"></path>
            <path d="M33.6,27.8 C33.6,27.8 49.5,28.1 45.5,41.6 C41.5,55.1 63.9,55.4 60.5,40.3 C56.6,23 33.6,27.8 33.6,27.8 Z" id="Shape" fill="#A4D8EA"></path>
            <path d="M60.5,40.3 C56.9,24.3 36.9,27.2 33.9,27.7 C40.9,28 49,28.1 52.9,37.6 C56.6,46.8 53,51.1 48.9,50.9 C54.3,53.3 62.7,50 60.5,40.3 Z" id="Shape" fill="#78C7DD"></path>
        </g>
    </g>
</svg>