<svg height="64" viewBox="0 0 64 64" width="64" xmlns="http://www.w3.org/2000/svg"><g fill="none"><g fill="#ea81b8"><ellipse cx="6.2" cy="31" rx="5.4" ry="7.7"/><ellipse cx="57.8" cy="31" rx="5.4" ry="7.7"/></g><g transform="translate(1 5)"><path d="m61.3 34.8c0 13-11.9 23.5-30.3 23.5s-30.3-10.5-30.3-23.5 11.9-32.5 30.3-32.5 30.3 19.6 30.3 32.5z" fill="#f7910b"/><path d="m61.3 34.8c0 13-11.9 19.5-30.3 19.5s-30.3-6.5-30.3-19.5 11.9-34.5 30.3-34.5 30.3 21.6 30.3 34.5z" fill="#f7910b"/><path d="m31 .3c18.4 0 30.3 21.5 30.3 34.5s-11.9 19.5-30.3 19.5" fill="#f9a908"/><path d="m61.3 34.8c0 13-11.9 19.5-30.3 19.5s-30.3-6.5-30.3-19.5 11.9-32.5 30.3-32.5 30.3 19.6 30.3 32.5z" fill="#f9a908"/><path d="m.7 34.8c0-13 11.9-32.5 30.3-32.5" fill="#f9c55d"/><path d="m31 2.3c18.4 0 30.3 19.5 30.3 32.5s-11.9 23.5-30.3 23.5" fill="#f7910b"/><path d="m31 2.3c18.4 0 30.3 19.5 30.3 32.5" fill="#ea7103"/><g transform="translate(11 30)"><path d="m15.8 2.7c0 1.2-3.5.7-7.8.7s-7.8.6-7.8-.7 3.5-2.2 7.8-2.2c4.3-.1 7.8.9 7.8 2.2z" fill="#f9c55d"/><path d="m39.8 2.7c0 1.2-3.5.7-7.8.7s-7.8.6-7.8-.7 3.5-2.2 7.8-2.2c4.3-.1 7.8.9 7.8 2.2z" fill="#f9a908"/></g><circle cx="9.3" cy="31.8" fill="#f7910b" r="1"/><circle cx="4.8" cy="33.8" fill="#f7910b" r="1.1"/><circle cx="7.8" cy="29.8" fill="#f7910b" r="1"/><circle cx="12.4" cy="31.6" fill="#f7910b" r="1"/><circle cx="51.6" cy="32.2" fill="#f9a908" r="1"/><circle cx="54.1" cy="33.5" fill="#f9a908" r="1"/><circle cx="48.8" cy="24.7" fill="#f9a908" r="1"/><circle cx="48.3" cy="36.4" fill="#f9a908" r="1.3"/><circle cx="55.5" cy="36.4" fill="#f9a908" r="1"/><circle cx="8.3" cy="35.8" fill="#f7910b" r="1"/><circle cx="9.1" cy="27.4" fill="#f7910b" r="1"/><g fill="#f9a908"><circle cx="3.8" cy="13.7" r="1.1"/><circle cx="7" cy="10.1" r="1"/><circle cx="58.2" cy="16" r="1"/><circle cx="57.4" cy="13.1" r="1"/><circle cx="60" cy="13.7" r="1"/><circle cx="5" cy="16.6" r="1"/></g></g><g transform="translate(9 17)"><circle cx="11.7" cy="11.9" fill="#fff" r="9.3"/><path d="m11.7 22.9c-6.1 0-11-4.9-11-11s4.9-11 11-11 11 4.9 11 11-5 11-11 11zm0-18.7c-4.2 0-7.7 3.4-7.7 7.7s3.4 7.7 7.7 7.7c4.2 0 7.7-3.4 7.7-7.7s-3.5-7.7-7.7-7.7z" fill="#756a49"/></g><g transform="translate(32 17)"><path d="m20.7 11.9c0 5.2-4.2 9.3-9.3 9.3-5.2 0-9.3-4.2-9.3-9.3s4.2-9.3 9.3-9.3 9.3 4.1 9.3 9.3z" fill="#fff"/><path d="m11.3 22.9c-6.1 0-11-4.9-11-11s4.9-11 11-11 11 4.9 11 11-4.9 11-11 11zm0-18.7c-4.2 0-7.7 3.4-7.7 7.7s3.4 7.7 7.7 7.7c4.2 0 7.7-3.4 7.7-7.7s-3.4-7.7-7.7-7.7z" fill="#756a49"/></g><g transform="translate(17 24)"><path d="m7.1 5.4c0 1.9-1.6 3.5-3.5 3.5s-3.5-1.6-3.5-3.5 1.6-3.5 3.5-3.5 3.5 1.6 3.5 3.5z" fill="#cecdcc"/><circle cx="26.4" cy="5.4" fill="#cecdcc" r="3.5"/><path d="m7.1 4.4c0 1.9-1.6 3.5-3.5 3.5s-3.5-1.6-3.5-3.5 1.6-3.5 3.5-3.5 3.5 1.6 3.5 3.5z" fill="#1e4784"/><path d="m3.6.9c1.9 0 3.5 1.6 3.5 3.5s-1.6 3.5-3.5 3.5" fill="#00233f"/><circle cx="26.4" cy="4.4" fill="#1e4784" r="3.5"/><path d="m26.4.9c1.9 0 3.5 1.6 3.5 3.5s-1.6 3.5-3.5 3.5" fill="#00233f"/></g><g transform="translate(0 29)"><path d="m2 1.5h9" fill="#fff"/><path d="m11 3h-9c-.8 0-1.5-.7-1.5-1.5s.7-1.5 1.5-1.5h9c.8 0 1.5.7 1.5 1.5s-.7 1.5-1.5 1.5z" fill="#756a49"/></g><g transform="translate(51 29)"><path d="m2 1.5h9" fill="#fff"/><path d="m11 3h-9c-.8 0-1.5-.7-1.5-1.5s.7-1.5 1.5-1.5h9c.8 0 1.5.7 1.5 1.5s-.7 1.5-1.5 1.5z" fill="#756a49"/></g><g fill="#00233f" transform="translate(17 12)"><path d="m7 3.3c0 .6-1.5.2-3.2 0-1.8-.2-3.2 0-3.2-.6s.8-2.3 2.6-2.1c1.7.1 3.9 2.1 3.8 2.7z"/><path d="m23 4.1c0 .6 1.5.2 3.2 0 1.8-.2 3.2 0 3.2-.6-.1-.6-.8-2.3-2.6-2.1-1.7.2-3.9 2.1-3.8 2.7z"/></g><g transform="translate(24 53)"><path d="m15.4 2.3c0 2.6-3.3 4.7-7.4 4.7s-7.4-2.1-7.4-4.7" fill="#f7910b"/><path d="m10 2h-4c-.6 0-1-.4-1-1s.4-1 1-1h4c.6 0 1 .4 1 1s-.4 1-1 1z" fill="#02243e"/></g><g fill="#00233f" transform="translate(17 48)"><path d="m11.6 0-11.2 4.6 14.6-1.1-.2-3.5z"/><path d="m18.4 0 11.2 4.6-14.6-1.1.2-3.5z"/></g><path d="m38 42c0 7.2-2.7 7.3-6 7.3s-6-.1-6-7.3 2.7-13 6-13 6 5.9 6 13z" fill="#f9b2db"/><path d="m32 29c3.3 0 6 5.8 6 13s-2.7 7.3-6 7.3" fill="#ea81b8"/><g fill="#00233f"><path d="m47 7.5c0 .8-.7 1.5-1.5 1.5h-27c-.8 0-1.5-.7-1.5-1.5 0-.8.7-1.5 1.5-1.5h27c.8 0 1.5.7 1.5 1.5z"/><path d="m21.2 8.7c0-4.4 4.8-8 10.8-8s10.8 3.6 10.8 8"/></g></g></svg>