<svg height="60" viewBox="0 0 64 60" width="64" xmlns="http://www.w3.org/2000/svg"><g fill="none"><g transform="translate(1)"><path d="m61 34.8c0 13-11.9 23.5-30.3 23.5s-30.3-10.5-30.3-23.5 11.8-32.5 30.3-32.5c18.4 0 30.3 19.5 30.3 32.5z" fill="#f7910b"/><path d="m61 34.8c0 13-11.9 19.5-30.3 19.5s-30.3-6.5-30.3-19.5 11.8-34.5 30.3-34.5c18.4 0 30.3 21.5 30.3 34.5z" fill="#f7910b"/><path d="m30.7.3c18.4 0 30.3 21.5 30.3 34.5s-11.9 19.5-30.3 19.5" fill="#f9a908"/><path d="m61 34.8c0 13-11.9 19.5-30.3 19.5s-30.3-6.5-30.3-19.5 11.8-32.5 30.3-32.5c18.4 0 30.3 19.5 30.3 32.5z" fill="#f9a908"/><path d="m.3 34.8c0-13 11.9-32.5 30.3-32.5" fill="#f9c55d"/><path d="m30.7 2.3c18.4 0 30.3 19.5 30.3 32.5s-11.9 23.5-30.3 23.5" fill="#f7910b"/><path d="m30.7 2.3c18.4 0 30.3 19.5 30.3 32.5" fill="#ea7103"/><g transform="translate(18 5)"><path d="m10.4.3c-1.8.1-3.2.8-3.2 1.7l6.5-.3c0-.8-1.5-1.5-3.3-1.4z" fill="#19bca4"/><path d="m29.7.3c-1.8-.1-3.3.6-3.3 1.4l6.5.3c.1-.9-1.4-1.6-3.2-1.7z" fill="#19bca4"/><path d="m10.5 2.3c1.8-.1 3.3.3 3.3-.6l-6.6.3c0 .9 1.5.4 3.3.3z" fill="#109da0"/><path d="m29.6 2.3c1.8.1 3.3.6 3.3-.3l-6.5-.3c-.1.9 1.4.5 3.2.6z" fill="#109da0"/><path d="m8.1 13.9c-4.3 0-7.8 1-7.8 2.2s3.5.7 7.8.7 7.8.6 7.8-.7-3.5-2.2-7.8-2.2z" fill="#f9c55d"/><path d="m32 13.9c-4.3 0-7.8 1-7.8 2.2s3.5.7 7.8.7 7.8.6 7.8-.7-3.4-2.2-7.8-2.2z" fill="#f9a908"/></g><g transform="translate(23 14)"><path d="m2.2.3c.4.1.8.3 1.1.6 1.2 1.6 3.5 1.9 5.1.6.7-.6 1.8-.4 2.3.3.6.7.4 1.8-.3 2.3-3 2.3-7.4 1.8-9.7-1.2-.6-.7-.4-1.8.3-2.3.4-.3.8-.4 1.2-.3z" fill="#1e4784"/><path d="m.7 2.9c-.6-.7-.4-1.8.3-2.3.4-.3.8-.4 1.2-.3s.8.3 1.1.6c1.2 1.6 3.5 1.9 5.1.6.7-.6 1.8-.4 2.3.3.6.7.4 1.8-.3 2.3" fill="#02243e"/></g><g transform="translate(42 14)"><path d="m8.9.3c-.4.1-.8.3-1.1.6-1.2 1.6-3.5 1.9-5.1.6-.7-.5-1.7-.4-2.3.3s-.4 1.8.3 2.3c3 2.3 7.4 1.8 9.7-1.2.6-.7.4-1.8-.3-2.3-.3-.3-.8-.4-1.2-.3z" fill="#1e4784"/><path d="m10.4 2.9c.6-.7.4-1.8-.3-2.3-.4-.3-.8-.4-1.2-.3s-.8.3-1.1.6c-1.2 1.6-3.5 1.9-5.1.6-.7-.5-1.7-.4-2.3.3s-.4 1.8.3 2.3" fill="#02243e"/></g><g transform="translate(29 26)"><path d="m15.6 3.3c0 2.6-3.3 4.7-7.4 4.7s-7.4-2.1-7.4-4.7" fill="#ed7e11"/><path d="m8.4 4.6c-3.2 0-6.4-.7-7.9-2.2-.4-.4-.4-1.1 0-1.6.4-.4 1.1-.4 1.6 0 2.1 2.1 10.6 2.1 12.7 0 .4-.4 1.1-.4 1.6 0 .4.4.4 1.1 0 1.6-1.6 1.4-4.8 2.2-8 2.2z" fill="#02243e"/></g><circle cx="9" cy="31.8" fill="#f7910b" r="1"/><circle cx="4.5" cy="33.8" fill="#f7910b" r="1.1"/><circle cx="7.5" cy="29.8" fill="#f7910b" r="1"/><circle cx="12" cy="31.6" fill="#f7910b" r="1"/><circle cx="57.2" cy="34.7" fill="#f9a908" r="1"/><circle cx="53.7" cy="33.5" fill="#f9a908" r="1"/><circle cx="57.9" cy="40.5" fill="#f9a908" r="1"/><circle cx="54.1" cy="44.3" fill="#f9a908" r="1.3"/><circle cx="55.1" cy="36.4" fill="#f9a908" r="1"/><circle cx="8" cy="35.8" fill="#f7910b" r="1"/><circle cx="8.7" cy="27.4" fill="#f7910b" r="1"/><g fill="#f9a908"><circle cx="3.5" cy="13.6" r="1.1"/><circle cx="6.7" cy="10.1" r="1"/><circle cx="57.9" cy="16" r="1"/><circle cx="57" cy="13.1" r="1"/><circle cx="59.6" cy="13.6" r="1"/><circle cx="4.7" cy="16.6" r="1"/></g></g><g fill="#1e4784"><g transform="translate(0 25)"><path d="m24.7 15.7c0 8.5-6.1 15.4-13.6 15.4-7.4-.1-10.5-6.9-10.5-15.4s3.1-15.4 10.6-15.4 13.5 6.9 13.5 15.4z"/><ellipse cx="25.3" cy="15.7" rx="10.5" ry="11.9"/></g><g transform="translate(0 29)"><path d="m24.7 15.3c0 8.5-6.1 15.4-13.6 15.4-7.5 0-10.6-6.9-10.6-15.4.1-8.4 3.2-15.3 10.7-15.3s13.5 6.9 13.5 15.3z"/><ellipse cx="25.3" cy="15.3" rx="10.5" ry="11.9"/></g></g><g transform="translate(0 27)"><g fill="#02243e"><path d="m24.7 15.5c0 8.5-6.1 15.4-13.6 15.4-7.4 0-10.5-6.9-10.5-15.4s3.1-15.4 10.6-15.4 13.5 6.9 13.5 15.4z"/><ellipse cx="25.3" cy="15.5" rx="10.5" ry="11.9"/></g><path d="m9.2 20c0 .7-.6 1.2-1.2 1.2-.7 0-1.2-.6-1.2-1.2v-9c0-.7.6-1.2 1.2-1.2.7 0 1.2.6 1.2 1.2z" fill="#f9a908"/><circle cx="21.7" cy="15.5" fill="#ea7103" r="4"/></g><path d="m58.9 41.6c0 2 .4 3.6-1.6 3.6h-23.8c-2 0-1.6-1.6-1.6-3.6 0-2-.4-3.6 1.6-3.6h23.8c2 0 1.6 1.6 1.6 3.6z" fill="#844414"/><path d="m58.9 42.5c0 2 .4 3.6-1.6 3.6h-23.8c-2 0-1.6-1.6-1.6-3.6 0-2-.4-3.6 1.6-3.6h23.8c2 0 1.6 1.6 1.6 3.6z" fill="#683409"/><g fill="#844414"><path d="m37 44.6c0 .1-.1.2-.2.2-.1 0-.2-.1-.2-.2v-4.1c0-.1.1-.2.2-.2.1 0 .2.1.2.2z"/><path d="m41.5 44.6c0 .1-.1.2-.2.2-.1 0-.2-.1-.2-.2v-4.1c0-.1.1-.2.2-.2.1 0 .2.1.2.2z"/><path d="m45.9 44.6c0 .1-.1.2-.2.2-.1 0-.2-.1-.2-.2v-4.1c0-.1.1-.2.2-.2.1 0 .2.1.2.2z"/><path d="m50.4 44.6c0 .1-.1.2-.2.2-.1 0-.2-.1-.2-.2v-4.1c0-.1.1-.2.2-.2.1 0 .2.1.2.2z"/><path d="m54.8 44.6c0 .1-.1.2-.2.2-.1 0-.2-.1-.2-.2v-4.1c0-.1.1-.2.2-.2.1 0 .2.1.2.2z"/></g><circle cx="39" cy="42.5" fill="#f9a908" r="1"/><circle cx="47.6" cy="42.5" fill="#f9a908" r="1"/><path d="m63.4 46c0 2.1-1.7 3.8-3.8 3.8-2.1 0-3.8-1.7-3.8-3.8v-7c0-2.1 1.7-3.8 3.8-3.8 2.1 0 3.8 1.7 3.8 3.8z" fill="#02243e"/><g fill="#02243e"><circle cx="58.2" cy="32.4" r="1.1"/><circle cx="58.2" cy="52.6" r="1.1"/><circle cx="61.8" cy="32.4" r="1.1"/><circle cx="61.8" cy="52.6" r="1.1"/></g></g></svg>