<svg height="58" viewBox="0 0 62 58" width="62" xmlns="http://www.w3.org/2000/svg"><g fill="none"><path d="m61.3 34.5c0 13-11.9 23.5-30.3 23.5s-30.3-10.5-30.3-23.5 11.9-32.5 30.3-32.5 30.3 19.5 30.3 32.5z" fill="#f7910b"/><path d="m61.3 34.5c0 13-11.9 19.5-30.3 19.5s-30.3-6.5-30.3-19.5 11.9-34.5 30.3-34.5 30.3 21.5 30.3 34.5z" fill="#f7910b"/><path d="m31 0c18.4 0 30.3 21.5 30.3 34.5s-11.9 19.5-30.3 19.5" fill="#f9a908"/><path d="m61.3 34.5c0 13-11.9 19.5-30.3 19.5s-30.3-6.5-30.3-19.5 11.9-32.5 30.3-32.5 30.3 19.5 30.3 32.5z" fill="#f9a908"/><path d="m.7 34.5c0-13 11.9-32.5 30.3-32.5" fill="#f9c55d"/><path d="m31 2c18.4 0 30.3 19.5 30.3 32.5s-11.9 23.5-30.3 23.5" fill="#f7910b"/><path d="m31 2c18.4 0 30.3 19.5 30.3 32.5" fill="#ea7103"/><g transform="translate(17 18)"><ellipse cx="3.6" cy="4.7" fill="#ea7103" rx="3.2" ry="3.2"/><ellipse cx="24.4" cy="4.7" fill="#ea7103" rx="3.2" ry="3.2"/><ellipse cx="3.6" cy="3.8" fill="#1e4784" rx="3.2" ry="3.2"/><path d="m3.6.6c1.8 0 3.2 1.4 3.2 3.2s-1.4 3.2-3.2 3.2" fill="#00233f"/><ellipse cx="24.4" cy="3.8" fill="#1e4784" rx="3.2" ry="3.2"/><path d="m24.4.6c1.8 0 3.2 1.4 3.2 3.2s-1.4 3.2-3.2 3.2" fill="#00233f"/></g><g transform="translate(20 12)"><path d="m.5 2c-.2-.5.8-.6 2-1.1 1.1-.5 2-1.2 2.2-.7s-.6 1.2-1.7 1.7c-1.2.5-2.3.5-2.5.1z" fill="#19bca4"/><path d="m.5 2c-.2-.5.8-.6 2-1.1 1.1-.5 2-1.2 2.2-.7" fill="#109da0"/></g><g transform="translate(37 12)"><path d="m4.5 2.3c.2-.5-.8-.6-2-1.1-1.1-.5-2-1.2-2.2-.7s.6 1.2 1.7 1.7c1.2.5 2.3.5 2.5.1z" fill="#19bca4"/><path d="m4.5 2.3c.2-.5-.8-.6-2-1.1-1.1-.5-2-1.2-2.2-.7" fill="#109da0"/></g><g transform="translate(11 25)"><path d="m15.8 2.8c0 1.2-3.5.7-7.8.7s-7.8.6-7.8-.7c0-1.2 3.5-2.2 7.8-2.2s7.8 1 7.8 2.2z" fill="#f9c55d"/><path d="m39.8 2.8c0 1.2-3.5.7-7.8.7s-7.8.6-7.8-.7c0-1.2 3.5-2.2 7.8-2.2s7.8 1 7.8 2.2z" fill="#f9a908"/></g><ellipse cx="9.3" cy="31.5" fill="#f7910b" rx="1" ry="1"/><ellipse cx="4.8" cy="33.5" fill="#f7910b" rx="1.1" ry="1.1"/><ellipse cx="7.8" cy="29.5" fill="#f7910b" rx="1" ry="1"/><circle cx="12.4" cy="31.3" fill="#f7910b" r="1"/><circle cx="51.6" cy="31.8" fill="#f9a908" r="1"/><circle cx="54.1" cy="33.2" fill="#f9a908" r="1"/><circle cx="48.8" cy="24.4" fill="#f9a908" r="1"/><circle cx="48.3" cy="36" fill="#f9a908" r="1.3"/><circle cx="55.5" cy="36.1" fill="#f9a908" r="1"/><ellipse cx="8.3" cy="35.5" fill="#f7910b" rx="1" ry="1"/><circle cx="9.1" cy="27.1" fill="#f7910b" r="1"/><g fill="#f9a908"><ellipse cx="3.8" cy="13.3" rx="1.1" ry="1.1"/><ellipse cx="7" cy="9.8" rx="1" ry="1"/><circle cx="58.2" cy="15.7" r="1"/><ellipse cx="57.4" cy="12.8" rx="1" ry="1"/><circle cx="60" cy="13.3" r="1"/><ellipse cx="5" cy="16.3" rx="1" ry="1"/></g><path d="m38.4 42.7c0 2.6-3.3 4.7-7.4 4.7s-7.4-2.1-7.4-4.7" fill="#f7910b"/><g transform="translate(15 29)"><path d="m8.8 3.3c0-1.5 3.2-2.7 7.2-2.7s7.2 1.2 7.2 2.7" fill="#ed7e11"/><g fill="#02243e"><g transform="translate(2 1)"><path d="m26.4 7c-.3 0-.6-.1-.8-.3-1.9-1.9-4.8-3.9-7.5-3.9-1.3 0-2.4.5-3.3 1.4-.4.4-1.1.4-1.6 0-.4-.4-.4-1.1 0-1.6 1.4-1.4 3-2.1 4.9-2.1 4.3 0 8 3.5 9.1 4.6.4.4.4 1.1 0 1.6-.2.2-.5.3-.8.3z"/><path d="m1.6 7c-.3 0-.6-.1-.8-.3-.4-.4-.4-1.1 0-1.6 1.1-1.1 4.8-4.6 9.1-4.6 1.9 0 3.5.7 4.9 2.1.4.4.4 1.1 0 1.6-.4.4-1.1.4-1.6 0-.9-1-2-1.4-3.3-1.4-2.7 0-5.7 2-7.5 3.9-.2.2-.5.3-.8.3z"/></g><g transform="translate(0 5)"><path d="m28.1 5.3c-.6 0-1.1-.5-1.1-1.1 0-2.1 1.7-3.8 3.7-3.8.6 0 1.1.5 1.1 1.1s-.5 1.1-1.1 1.1c-.8 0-1.5.7-1.5 1.6 0 .6-.5 1.1-1.1 1.1z"/><path d="m3.9 5.3c-.6 0-1.1-.5-1.1-1.1 0-.9-.7-1.6-1.5-1.6-.6 0-1.1-.5-1.1-1.1s.5-1.1 1.1-1.1c2 0 3.7 1.7 3.7 3.8 0 .6-.5 1.1-1.1 1.1z"/></g></g><path d="m18.6 4.9c.2-.7 2.1-.6 4.1.2s3.4 1.9 3.2 2.6-1.9 0-3.9-.7c-2-.8-3.7-1.4-3.4-2.1z" fill="#f9a908"/><path d="m13.2 4.9c-.2-.7-2.1-.6-4.1.2s-3.4 1.9-3.2 2.6 1.9 0 3.9-.7c2-.8 3.6-1.4 3.4-2.1z" fill="#f9c55d"/></g></g></svg>