<svg height="41" viewBox="0 0 63 41" width="63" xmlns="http://www.w3.org/2000/svg"><g fill="none"><path d="m1.413 16.69c2.242 3.756 5.65-1.525 11.617-5.088 5.969-3.559 12.236-4.051 9.996-7.807-2.24-3.752-8.895-3.912-14.863-.352-5.967 3.564-8.99 9.494-6.75 13.247z" fill="#f25595"/><path d="m9.265 6.556c-4.725 2.82-7.592 7.123-7.475 10.658 2.244 2.652 5.598-2.242 11.24-5.611 4.621-2.756 9.402-3.678 10.295-5.695-2.76-2.739-8.683-2.559-14.06.648z" fill="#dd4389"/><g transform="translate(39)"><path d="m22.587 16.69c-2.24 3.756-5.65-1.525-11.617-5.088-5.967-3.559-12.236-4.051-9.996-7.807 2.24-3.752 8.895-3.912 14.863-.352 5.967 3.564 8.99 9.494 6.75 13.247z" fill="#f25595"/><path d="m14.737 6.556c4.725 2.82 7.59 7.123 7.473 10.658-2.244 2.652-5.596-2.242-11.24-5.611-4.619-2.756-9.402-3.678-10.293-5.695 2.76-2.739 8.681-2.559 14.06.648z" fill="#dd4389"/></g><g transform="translate(1 2)"><path d="m60.08 22.718c0 12.031-13.243 15.408-29.579 15.408s-29.58-3.377-29.58-15.408c0-12.033 13.244-21.787 29.58-21.787s29.579 9.754 29.579 21.787z" fill="#ff80ba"/><path d="m60.08 22.718c0 12.031-13.243 15.408-29.579 15.408s-29.58-3.377-29.58-15.408c0-12.033 13.244-18.762 29.58-18.762s29.579 6.729 29.579 18.762z" fill="#f25595"/><path d="m60.08 22.718c0 12.031-13.243 15.408-29.579 15.408s-29.58-3.377-29.58-15.408c0-12.033 13.244-5.492 29.58-5.492s29.579-6.541 29.579 5.492z" fill="#dd4389"/><g fill="#082856"><ellipse cx="18.811" cy="20.413" rx="2.657" ry="2.657"/><ellipse cx="42.191" cy="20.413" rx="2.657" ry="2.657"/></g><g fill="#000" transform="translate(16 20)"><path d="m5.468.413c0 1.469-1.189 2.658-2.657 2.658s-2.657-1.189-2.657-2.658"/><path d="m28.848.413c0 1.469-1.189 2.658-2.656 2.658-1.468 0-2.657-1.189-2.657-2.658"/></g></g><g transform="translate(21 23)"><path d="m.804 5.854c0-3.943 4.34-5.051 9.697-5.051 5.355 0 9.697 1.107 9.697 5.051 0 3.945-4.342 7.145-9.697 7.145-5.357 0-9.697-3.199-9.697-7.145z" fill="#e276b7"/><path d="m.804 5.854c0-3.943 4.34-5.051 9.697-5.051 5.355 0 9.697 1.107 9.697 5.051 0 3.945-4.342 6.152-9.697 6.152-5.357.001-9.697-2.206-9.697-6.152z" fill="#f28fc5"/><path d="m.804 5.854c0-3.943 4.34-5.051 9.697-5.051 5.355 0 9.697 1.107 9.697 5.051 0 3.945-4.342 1.803-9.697 1.803-5.357 0-9.697 2.143-9.697-1.803z" fill="#ffa4d2"/><g fill="#dd4389"><ellipse cx="14.333" cy="6.61" rx="1" ry="1"/><circle cx="6.669" cy="6.61" r="1"/></g><g fill="#ba2a79" transform="translate(5 5)"><path d="m8.462 1.61c0-.48.391-.871.873-.871.48 0 .869.391.869.871"/><path d="m.798 1.61c0-.48.389-.871.871-.871.48 0 .871.391.871.871"/></g></g></g></svg>