<svg height="58" viewBox="0 0 62 58" width="62" xmlns="http://www.w3.org/2000/svg"><g fill="none"><path d="m61.3 34.5c0 13-11.9 23.5-30.3 23.5s-30.3-10.5-30.3-23.5 11.9-32.5 30.3-32.5 30.3 19.5 30.3 32.5z" fill="#f7910b"/><path d="m61.3 34.5c0 13-11.9 19.5-30.3 19.5s-30.3-6.5-30.3-19.5 11.9-34.5 30.3-34.5 30.3 21.5 30.3 34.5z" fill="#f7910b"/><path d="m31 0c18.4 0 30.3 21.5 30.3 34.5s-11.9 19.5-30.3 19.5" fill="#f9a908"/><path d="m61.3 34.5c0 13-11.9 19.5-30.3 19.5s-30.3-6.5-30.3-19.5 11.9-32.5 30.3-32.5 30.3 19.5 30.3 32.5z" fill="#f9a908"/><path d="m38.4 44.2c0 2.6-3.3 7.3-7.4 7.3s-7.4-4.7-7.4-7.3" fill="#f7910b"/><path d="m.7 34.5c0-13 11.9-32.5 30.3-32.5" fill="#f9c55d"/><path d="m31 2c18.4 0 30.3 19.5 30.3 32.5s-11.9 23.5-30.3 23.5" fill="#f7910b"/><path d="m31 2c18.4 0 30.3 19.5 30.3 32.5" fill="#ea7103"/><g transform="translate(18 11)"><path d="m5.9 1.3c.3.8-1 .8-2.4 1.4-1.4.5-2.4 1.4-2.7.6s.6-1.9 2-2.4c1.4-.6 2.8-.4 3.1.4z" fill="#19bca4"/><path d="m5.9 1.3c.3.8-1 .8-2.4 1.4-1.4.5-2.4 1.4-2.7.6" fill="#109da0"/></g><g transform="translate(38 11)"><path d="m.1 1.3c-.3.8 1 .8 2.4 1.4 1.4.5 2.4 1.4 2.7.6s-.6-1.9-2-2.4c-1.4-.6-2.8-.4-3.1.4z" fill="#19bca4"/><path d="m.1 1.3c-.3.8 1 .8 2.4 1.4 1.4.5 2.4 1.4 2.7.6" fill="#109da0"/></g><g transform="translate(11 25)"><path d="m15.8 2.8c0 1.2-3.5.7-7.8.7s-7.8.6-7.8-.7c0-1.2 3.5-2.2 7.8-2.2s7.8 1 7.8 2.2z" fill="#f9c55d"/><path d="m39.8 2.8c0 1.2-3.5.7-7.8.7s-7.8.6-7.8-.7c0-1.2 3.5-2.2 7.8-2.2s7.8 1 7.8 2.2z" fill="#f9a908"/></g><circle cx="9.3" cy="31.5" fill="#f7910b" r="1"/><circle cx="4.8" cy="33.5" fill="#f7910b" r="1.1"/><circle cx="7.8" cy="29.5" fill="#f7910b" r="1"/><circle cx="12.4" cy="31.3" fill="#f7910b" r="1"/><circle cx="51.6" cy="31.8" fill="#f9a908" r="1"/><circle cx="54.1" cy="33.2" fill="#f9a908" r="1"/><circle cx="48.8" cy="24.4" fill="#f9a908" r="1"/><circle cx="48.3" cy="36" fill="#f9a908" r="1.3"/><circle cx="55.5" cy="36.1" fill="#f9a908" r="1"/><circle cx="8.3" cy="35.5" fill="#f7910b" r="1"/><circle cx="9.1" cy="27.1" fill="#f7910b" r="1"/><g fill="#f9a908"><circle cx="3.8" cy="13.3" r="1.1"/><circle cx="7" cy="9.8" r="1"/><circle cx="58.2" cy="15.7" r="1"/><circle cx="57.4" cy="12.8" r="1"/><path d="m60.5 13.3c0 .3-.2.5-.5.5s-.5-.2-.5-.5.2-.5.5-.5c.2 0 .5.3.5.5z"/><circle cx="5" cy="16.3" r="1"/></g><g transform="translate(14 19)"><path d="m8.9 6c-.4-.1-.8-.3-1.1-.7-1.1-1.6-3.4-2-5-.9-.8.5-1.8.3-2.3-.4s-.3-1.8.4-2.3c3.1-2.2 7.4-1.4 9.6 1.8.5.7.3 1.8-.4 2.3-.4.2-.8.2-1.2.2z" fill="#1e4784"/><path d="m10.5 3.4c.5.7.3 1.8-.4 2.3-.4.3-.8.3-1.2.3-.4-.1-.8-.3-1.1-.7-1.1-1.6-3.4-2-5-.9-.8.5-1.8.3-2.3-.4s-.3-1.8.4-2.3" fill="#02243e"/></g><g transform="translate(37 19)"><path d="m2.1 6c.4-.1.8-.3 1.1-.7 1.1-1.6 3.4-2 5-.9.8.5 1.8.3 2.3-.4s.3-1.8-.4-2.3c-3.1-2.2-7.4-1.4-9.6 1.8-.5.7-.3 1.8.4 2.3.4.2.8.2 1.2.2z" fill="#1e4784"/><path d="m.5 3.4c-.5.7-.3 1.8.4 2.3.4.3.8.3 1.2.3.4-.1.8-.3 1.1-.7 1.1-1.6 3.4-2 5-.9.8.5 1.8.3 2.3-.4s.3-1.8-.4-2.3" fill="#02243e"/></g><g transform="translate(15 27)"><path d="m.1 8c.5 5 7.4 11.6 15.9 11.6s15.4-6.6 15.9-11.6z" fill="#ce1906"/><path d="m16 19.6c8.5 0 15.4-6.6 15.9-11.6h-15.9" fill="#a80b0b"/><path d="m20.9.1c-2 0-3.7.7-4.9 1.9-1.3-1.2-2.9-1.9-4.9-1.9-4.3 0-9 2.9-10.9 7.9h12.8 6 12.6c-1.9-5-6.3-7.9-10.7-7.9z" fill="#ce1906"/><path d="m19 8h12.9c-1.9-5-6.6-7.9-10.9-7.9-2 0-3.6.7-4.9 1.9" fill="#b51104"/><path d="m9.7 1.3c.4.4-.6 1.6-2.2 2.5s-3.1 1.3-3.4.9c-.4-.4.6-1.6 2.2-2.5 1.6-1 3.1-1.4 3.4-.9z" fill="#e55145"/><path d="m4.2 11.3c.6-.4 2.3.4 3.9 1.9s2.4 3.1 1.8 3.5-2.3-.4-3.9-1.9-2.4-3.1-1.8-3.5z" fill="#e55145"/><path d="m25.3 8c-1.1-1-3.9-1.6-6.4-1.6-1.2 0-2.1.2-2.9.4-.7-.3-1.7-.4-2.9-.4-2.5 0-5.3.6-6.4 1.6.3 1 4.3 2.4 9.2 2.4 5 0 9-1.4 9.4-2.4z" fill="#540200"/><path d="m25 8h.3c-1.1-1-3.9-1.6-6.4-1.6-1.2 0-2.1.2-2.9.4-.7-.3-1.7-.4-2.9-.4-2.5 0-5.3.6-6.4 1.6h.3" fill="#300101"/></g></g></svg>