<svg height="58" viewBox="0 0 62 58" width="62" xmlns="http://www.w3.org/2000/svg"><g fill="none"><path d="m61.3 34.5c0 13-11.9 23.5-30.3 23.5s-30.3-10.5-30.3-23.5 11.9-32.5 30.3-32.5 30.3 19.5 30.3 32.5z" fill="#f7910b"/><path d="m61.3 34.5c0 13-11.9 19.5-30.3 19.5s-30.3-6.5-30.3-19.5 11.9-34.5 30.3-34.5 30.3 21.5 30.3 34.5z" fill="#f7910b"/><path d="m31 0c18.4 0 30.3 21.5 30.3 34.5s-11.9 19.5-30.3 19.5" fill="#f9a908"/><path d="m61.3 34.5c0 13-11.9 19.5-30.3 19.5s-30.3-6.5-30.3-19.5 11.9-32.5 30.3-32.5 30.3 19.5 30.3 32.5z" fill="#f9a908"/><path d="m.7 34.5c0-13 11.9-32.5 30.3-32.5" fill="#f9c55d"/><path d="m31 2c18.4 0 30.3 19.5 30.3 32.5s-11.9 23.5-30.3 23.5" fill="#f7910b"/><path d="m31 2c18.4 0 30.3 19.5 30.3 32.5" fill="#ea7103"/><g transform="translate(18 11)"><path d="m6.9.9c.3.8-1.2.9-2.9 1.6-1.7.6-2.9 1.6-3.2.8s.8-2 2.5-2.6c1.6-.7 3.2-.6 3.6.2z" fill="#19bca4"/><path d="m6.9.9c.3.8-1.2.9-2.9 1.6-1.7.6-2.9 1.6-3.2.8" fill="#109da0"/></g><g transform="translate(37 11)"><path d="m.1.9c-.3.8 1.2.9 2.9 1.6 1.7.6 2.9 1.6 3.2.8s-.8-2-2.5-2.6c-1.6-.7-3.2-.6-3.6.2z" fill="#19bca4"/><path d="m.1.9c-.3.8 1.2.9 2.9 1.6 1.7.6 2.9 1.6 3.2.8" fill="#109da0"/></g><g transform="translate(11 25)"><path d="m15.8 2.8c0 1.2-3.5.7-7.8.7s-7.8.6-7.8-.7c0-1.2 3.5-2.2 7.8-2.2s7.8 1 7.8 2.2z" fill="#f9c55d"/><path d="m39.8 2.8c0 1.2-3.5.7-7.8.7s-7.8.6-7.8-.7c0-1.2 3.5-2.2 7.8-2.2s7.8 1 7.8 2.2z" fill="#f9a908"/></g><circle cx="9.3" cy="31.5" fill="#f7910b" r="1"/><circle cx="4.8" cy="33.5" fill="#f7910b" r="1.1"/><circle cx="7.8" cy="29.5" fill="#f7910b" r="1"/><circle cx="12.4" cy="31.3" fill="#f7910b" r="1"/><circle cx="51.6" cy="31.8" fill="#f9a908" r="1"/><circle cx="54.1" cy="33.2" fill="#f9a908" r="1"/><circle cx="48.8" cy="24.4" fill="#f9a908" r="1"/><circle cx="48.3" cy="36" fill="#f9a908" r="1.3"/><circle cx="55.5" cy="36.1" fill="#f9a908" r="1"/><circle cx="8.3" cy="35.5" fill="#f7910b" r="1"/><circle cx="9.1" cy="27.1" fill="#f7910b" r="1"/><g fill="#f9a908"><circle cx="3.8" cy="13.3" r="1.1"/><circle cx="7" cy="9.8" r="1"/><circle cx="58.2" cy="15.7" r="1"/><circle cx="57.4" cy="12.8" r="1"/><circle cx="60" cy="13.3" r="1"/><circle cx="5" cy="16.3" r="1"/></g><path d="m38.2 42.1c0 2.6-3.3 9.9-7.4 9.9s-7.4-7.3-7.4-9.9" fill="#f7910b"/><g transform="translate(16 27)"><path d="m29.8.3c0 9.1-6.6 16.5-14.8 16.5s-14.8-7.4-14.8-16.5" fill="#c42260"/><path d="m29.8.3c0 3.1-6.6 5.6-14.8 5.6s-14.8-2.5-14.8-5.6" fill="#99144a"/><path d="m15 16.9c4.6 0 8.6-2.3 11.3-5.9-1.7-2.1-4.1-3.4-6.8-3.4-1.6 0-3.2.5-4.5 1.3-1.3-.9-2.9-1.3-4.5-1.3-2.7 0-5.1 1.3-6.8 3.4 2.7 3.5 6.7 5.9 11.3 5.9z" fill="#e2446e"/></g><g transform="translate(33 10)"><path d="m5.4.7c1.8.5 3 1.9 3.2 3.5 0 .2.2.3.3.3.2.1.4.1.4-.1 1-1.3 2.8-1.9 4.5-1.4 2.2.6 3.6 2.7 3.1 4.7-.2.7-.6 1.3-1.2 1.8l-10 6.8-5.1-11c-.3-.7-.3-1.5-.1-2.2.4-2 2.6-3 4.9-2.4z" fill="#d81665"/><path d="m8.9 4.5c.2.1.4.1.4-.1 1-1.3 2.8-1.9 4.5-1.4 2.2.6 3.6 2.7 3.1 4.7-.2.7-.6 1.3-1.2 1.8l-10 6.8" fill="#b20b5f"/></g><g transform="translate(12 10)"><path d="m16.6 3.1c.2.7.2 1.5-.1 2.2l-5.1 11-10-6.8c-.6-.5-1-1.1-1.2-1.8-.5-2 .8-4.1 3.1-4.7 1.8-.5 3.6.1 4.5 1.4.1.1.3.2.4.1.2 0 .3-.1.3-.3.1-1.6 1.4-3 3.2-3.5 2.2-.6 4.4.4 4.9 2.4z" fill="#d81665"/><path d="m11.4 16.4-10-6.8c-.6-.5-1-1.1-1.2-1.8-.5-2 .8-4.1 3.1-4.7 1.8-.5 3.6.1 4.5 1.4.1.1.3.2.4.1" fill="#b20b5f"/></g></g></svg>