<svg height="64" viewBox="0 0 62 64" width="62" xmlns="http://www.w3.org/2000/svg"><g fill="none"><circle cx="24.3" cy="59.3" fill="#7c0a3e" r="4.2"/><ellipse cx="22.6" cy="59.3" fill="#f2e1c2" rx="1" ry="1.8"/><circle cx="52.6" cy="59.3" fill="#7c0a3e" r="4.2"/><ellipse cx="50.8" cy="59.3" fill="#f2e1c2" rx="1" ry="1.8"/><path d="m61.3 35c0 13-11.9 23.5-30.3 23.5s-30.3-10.5-30.3-23.5 11.9-32.5 30.3-32.5 30.3 19.5 30.3 32.5z" fill="#f7910b"/><path d="m61.3 35c0 13-11.9 19.5-30.3 19.5s-30.3-6.5-30.3-19.5 11.9-34.5 30.3-34.5 30.3 21.5 30.3 34.5z" fill="#f7910b"/><path d="m31 .5c18.4 0 30.3 21.5 30.3 34.5s-11.9 19.5-30.3 19.5" fill="#f9a908"/><path d="m61.3 35c0 13-11.9 19.5-30.3 19.5s-30.3-6.5-30.3-19.5 11.9-32.5 30.3-32.5 30.3 19.5 30.3 32.5z" fill="#f9a908"/><path d="m.7 35c0-13 11.9-32.5 30.3-32.5" fill="#f9c55d"/><path d="m31 2.5c18.4 0 30.3 19.5 30.3 32.5s-11.9 23.5-30.3 23.5" fill="#f7910b"/><path d="m31 2.5c18.4 0 30.3 19.5 30.3 32.5" fill="#ea7103"/><g transform="translate(18 14)"><path d="m10.8.5c-1.8.1-3.2.8-3.2 1.7l6.5-.3c0-.8-1.5-1.5-3.3-1.4z" fill="#19bca4"/><path d="m30.1.5c-1.8-.1-3.3.6-3.3 1.4l6.5.3c0-.9-1.4-1.6-3.2-1.7z" fill="#19bca4"/><path d="m10.8 2.5c1.8-.1 3.3.3 3.3-.6l-6.5.3c0 .9 1.4.4 3.2.3z" fill="#109da0"/><path d="m30 2.5c1.8.1 3.3.6 3.3-.3l-6.5-.3c-.1.9 1.4.5 3.2.6z" fill="#109da0"/><path d="m8.4 13.3c-4.3 0-7.8 1-7.8 2.2s3.5.7 7.8.7 7.8.6 7.8-.7-3.4-2.2-7.8-2.2z" fill="#f9c55d"/><path d="m32.4 13.3c-4.3 0-7.8 1-7.8 2.2s3.5.7 7.8.7 7.8.6 7.8-.7-3.5-2.2-7.8-2.2z" fill="#f9a908"/></g><circle cx="9.3" cy="32" fill="#f7910b" r="1"/><circle cx="4.8" cy="34" fill="#f7910b" r="1.1"/><circle cx="7.8" cy="30" fill="#f7910b" r="1"/><circle cx="12.4" cy="31.8" fill="#f7910b" r="1"/><circle cx="57.6" cy="34.9" fill="#f9a908" r="1"/><circle cx="54.1" cy="33.7" fill="#f9a908" r="1"/><circle cx="58.2" cy="40.7" fill="#f9a908" r="1"/><circle cx="54.4" cy="44.5" fill="#f9a908" r="1.3"/><circle cx="55.5" cy="36.6" fill="#f9a908" r="1"/><circle cx="8.3" cy="36" fill="#f7910b" r="1"/><circle cx="9.1" cy="27.6" fill="#f7910b" r="1"/><g fill="#f9a908"><circle cx="3.8" cy="13.8" r="1.1"/><circle cx="7" cy="10.3" r="1"/><circle cx="58.2" cy="16.2" r="1"/><circle cx="57.4" cy="13.3" r="1"/><circle cx="60" cy="13.8" r="1"/><circle cx="5" cy="16.8" r="1"/></g><g transform="translate(25 21)"><circle cx="3.2" cy="4.7" fill="#ea7103" r="3.2"/><circle cx="24" cy="4.7" fill="#ea7103" r="3.2"/><circle cx="3.2" cy="3.8" fill="#1e4784" r="3.2"/><path d="m3.2.6c1.8 0 3.2 1.4 3.2 3.2s-1.4 3.2-3.2 3.2" fill="#00233f"/><circle cx="24" cy="3.8" fill="#1e4784" r="3.2"/><path d="m24 .6c1.8 0 3.2 1.4 3.2 3.2s-1.4 3.2-3.2 3.2" fill="#00233f"/></g><g transform="translate(27 32)"><path d="m21.8 0c0 6.8-4.9 12.2-10.9 12.2s-10.9-5.5-10.9-12.2" fill="#c42260"/><path d="m21.8 0c0 2.3-4.9 4.1-10.9 4.1s-10.9-1.8-10.9-4.1" fill="#99144a"/><path d="m10.9 12.2c3.4 0 6.4-1.7 8.4-4.4-1.2-1.5-3-2.5-5-2.5-1.2 0-2.4.4-3.3 1-1-.6-2.1-1-3.3-1-2 0-3.8 1-5 2.5 1.8 2.7 4.8 4.4 8.2 4.4z" fill="#e2446e"/></g><path d="m61 56.5c0 1.4-1.1 2.5-2.5 2.5h-54c-1.4 0-2.5-1.1-2.5-2.5 0-1.4 1.1-2.5 2.5-2.5h54c1.4 0 2.5 1.1 2.5 2.5z" fill="#19bca4"/><circle cx="10.6" cy="59.3" fill="#c42260" r="4.2"/><ellipse cx="8.8" cy="59.3" fill="#f2e1c2" rx="1" ry="1.8"/><circle cx="38.8" cy="59.3" fill="#c42260" r="4.2"/><ellipse cx="37.1" cy="59.3" fill="#f2e1c2" rx="1" ry="1.8"/></g></svg>