<svg height="58" viewBox="0 0 62 58" width="62" xmlns="http://www.w3.org/2000/svg"><g fill="none"><path d="m61.3 34.5c0 13-11.9 23.5-30.3 23.5s-30.3-10.5-30.3-23.5 11.9-32.5 30.3-32.5 30.3 19.5 30.3 32.5z" fill="#f7910b"/><path d="m61.3 34.5c0 13-11.9 19.5-30.3 19.5s-30.3-6.5-30.3-19.5 11.9-34.5 30.3-34.5 30.3 21.5 30.3 34.5z" fill="#f7910b"/><path d="m31 0c18.4 0 30.3 21.5 30.3 34.5s-11.9 19.5-30.3 19.5" fill="#f9a908"/><path d="m61.3 34.5c0 13-11.9 19.5-30.3 19.5s-30.3-6.5-30.3-19.5 11.9-32.5 30.3-32.5 30.3 19.5 30.3 32.5z" fill="#f9a908"/><path d="m.7 34.5c0-13 11.9-32.5 30.3-32.5" fill="#f9c55d"/><path d="m31 2c18.4 0 30.3 19.5 30.3 32.5s-11.9 23.5-30.3 23.5" fill="#f7910b"/><path d="m37 31c0 2.3-2.8 4.2-6.2 4.2s-6.2-1.9-6.2-4.2 2.8-4.2 6.2-4.2 6.2 1.9 6.2 4.2z" fill="#00233f"/><path d="m31 2c18.4 0 30.3 19.5 30.3 32.5" fill="#ea7103"/><circle cx="9.3" cy="31.5" fill="#f7910b" r="1"/><circle cx="4.8" cy="33.5" fill="#f7910b" r="1.1"/><circle cx="7.8" cy="29.5" fill="#f7910b" r="1"/><circle cx="12.4" cy="31.3" fill="#f7910b" r="1"/><circle cx="51.6" cy="31.8" fill="#f9a908" r="1"/><circle cx="54.1" cy="33.2" fill="#f9a908" r="1"/><circle cx="48.8" cy="24.4" fill="#f9a908" r="1"/><circle cx="48.3" cy="36" fill="#f9a908" r="1.3"/><circle cx="55.5" cy="36.1" fill="#f9a908" r="1"/><circle cx="8.3" cy="35.5" fill="#f7910b" r="1"/><circle cx="9.1" cy="27.1" fill="#f7910b" r="1"/><circle cx="3.8" cy="13.3" fill="#f9a908" r="1.1"/><circle cx="7" cy="9.8" fill="#f9a908" r="1"/><circle cx="58.2" cy="15.7" fill="#f9a908" r="1"/><circle cx="57.4" cy="12.8" fill="#f9a908" r="1"/><path d="m60.5 13.3c0 .3-.2.5-.5.5s-.5-.2-.5-.5.2-.5.5-.5c.2 0 .5.3.5.5z" fill="#f9a908"/><circle cx="5" cy="16.3" fill="#f9a908" r="1"/><path d="m38.4 32c0 2.6-3.3 7.2-7.4 7.2s-7.4-4.6-7.4-7.2" fill="#f7910b"/><g transform="translate(15 11)"><circle cx="4.6" cy="7.3" fill="#d87703" r="3.5"/><path d="m30.9 7.3c0 1.9-1.6 3.5-3.5 3.5s-3.5-1.6-3.5-3.5 1.6-3.5 3.5-3.5c2 0 3.5 1.6 3.5 3.5z" fill="#d87703"/><circle cx="4.6" cy="6.3" fill="#1e4784" r="3.5"/><path d="m4.6 2.8c1.9 0 3.5 1.6 3.5 3.5s-1.6 3.5-3.5 3.5" fill="#00233f"/><path d="m30.9 6.3c0 1.9-1.6 3.5-3.5 3.5s-3.5-1.6-3.5-3.5 1.6-3.5 3.5-3.5c2 0 3.5 1.6 3.5 3.5z" fill="#1e4784"/><path d="m27.4 2.8c1.9 0 3.5 1.6 3.5 3.5s-1.6 3.5-3.5 3.5" fill="#00233f"/><path d="m.5 5.6c0-2.3 1.8-5.1 4.1-5.1s4.1 2.8 4.1 5.1" fill="#f9a908"/><path d="m23.3 5.6c0-2.3 1.8-5.1 4.1-5.1 2.2 0 4.1 2.8 4.1 5.1" fill="#f7910b"/></g><g transform="translate(11 20)"><path d="m15.8 3.1c0 1.2-3.5.7-7.8.7s-7.8.6-7.8-.7 3.5-2.2 7.8-2.2 7.8 1 7.8 2.2z" fill="#f9c55d"/><path d="m39.8 3.1c0 1.2-3.5.7-7.8.7s-7.8.6-7.8-.7 3.5-2.2 7.8-2.2 7.8 1 7.8 2.2z" fill="#f9a908"/></g><g fill="#19bca4" transform="translate(15 11)"><path d="m10.2 2.5c0 1.1-2.3.5-5.1.4s-5.1.4-5.1-.7 2.3-2 5.1-1.9c2.9.1 5.2 1.1 5.1 2.2z"/><path d="m21.8 2.5c0 1.1 2.3.5 5.1.4s5.1.4 5.1-.7-2.3-2-5.1-1.9c-2.9.1-5.2 1.1-5.1 2.2z"/></g><g transform="translate(5 27)"><path d="m23.3 2.6c.5 1.1.1 2.4-1 2.9l-18.2 9c-1.1.5-2.4.1-2.9-1-.5-1.1-.1-2.4 1-3l18.2-9c1-.5 2.3 0 2.9 1.1z" fill="#fffdf3"/><path d="m23.3 2.6c.5 1.1.1 2.4-1 2.9l-18.2 9c-1.1.5-2.4.1-2.9-1" fill="#dff6f7"/><path d="m2 10.7c-1 .6-1.4 1.8-.9 2.9.5 1 1.8 1.5 2.8 1 1-.6 1.4-1.8.9-2.9-.5-1-1.8-1.5-2.8-1z" fill="#f7552f"/><path d="m3.9 14.6c1-.6 1.4-1.8.9-2.9-.5-1-1.8-1.5-2.8-1" fill="#e03405"/><path d="m21.1 1.2-8.6 4.3c1.1-.5 2.4-.1 2.9 1s.1 2.4-1 2.9l8.6-4.3c1.1-.5 1.5-1.9 1-2.9-.5-1.1-1.8-1.6-2.9-1z" fill="#754108"/><path d="m20.3 1.6-8.6 4.3c1.1-.5 2.4-.1 2.9 1s.1 2.4-1 3l8.6-4.3c1.1-.5 1.5-1.9 1-2.9-.5-1.2-1.8-1.7-2.9-1.1z" fill="#935914"/><path d="m11.7 5.8c1.1-.5 2.4-.1 2.9 1s.1 2.4-1 3l8.6-4.3c1.1-.5 1.5-1.9 1-2.9" fill="#754108"/><path d="m16.7 5.8c-.5-1.1-1.9-1.5-3-1l-2.3 1.2c1.1-.5 2.4-.1 2.9 1s.1 2.4-1 2.9l2.3-1.2c1.2-.5 1.7-1.8 1.1-2.9z" fill="#dff6f7"/></g><g fill="#fffdf3"><path d="m8.5 27.6c0 .4-.3.8-.8.8-.4-.1-.7-.4-.7-.8v-8c0-.4.3-.8.8-.8.4 0 .8.3.8.8v8z"/><path d="m11.6 33.7c0 .4-.3.8-.8.8-.4 0-.8-.3-.8-.8v-8c0-.4.3-.8.8-.8.4 0 .8.3.8.8z"/><circle cx="5" cy="30.3" r="1"/><circle cx="9.7" cy="16.7" r="1"/><circle cx="7.7" cy="33.8" r="1"/><circle cx="9.2" cy="12.5" r="1.8"/><circle cx="4.8" cy="26.2" r="1"/><circle cx="5" cy="35.9" r="1"/><circle cx="10.1" cy="22.5" r="1"/></g></g></svg>