<svg height="58" viewBox="0 0 62 58" width="62" xmlns="http://www.w3.org/2000/svg"><g fill="none"><path d="m61.3 34.5c0 13-11.9 23.5-30.3 23.5s-30.3-10.5-30.3-23.5 11.9-32.5 30.3-32.5 30.3 19.5 30.3 32.5z" fill="#f7910b"/><path d="m61.3 34.5c0 13-11.9 19.5-30.3 19.5s-30.3-6.5-30.3-19.5 11.9-34.5 30.3-34.5 30.3 21.5 30.3 34.5z" fill="#f7910b"/><path d="m31 0c18.4 0 30.3 21.5 30.3 34.5s-11.9 19.5-30.3 19.5" fill="#f9a908"/><path d="m61.3 34.5c0 13-11.9 19.5-30.3 19.5s-30.3-6.5-30.3-19.5 11.9-32.5 30.3-32.5 30.3 19.5 30.3 32.5z" fill="#f9a908"/><path d="m.7 34.5c0-13 11.9-32.5 30.3-32.5" fill="#f9c55d"/><path d="m31 2c18.4 0 30.3 19.5 30.3 32.5s-11.9 23.5-30.3 23.5" fill="#f7910b"/><path d="m31 2c18.4 0 30.3 19.5 30.3 32.5" fill="#ea7103"/><g fill="#19bca4" transform="translate(18 11)"><path d="m6.7 2c0 .9-1.4.5-3.3.6-1.8.1-3.3.6-3.3-.3s1.4-1.6 3.2-1.7c1.9-.1 3.4.5 3.4 1.4z"/><path d="m19.3 2c0 .9 1.4.5 3.3.6 1.8.1 3.3.6 3.3-.3s-1.4-1.6-3.2-1.7c-1.9-.1-3.4.5-3.4 1.4z"/></g><g fill="#109da0" transform="translate(18 13)"><path d="m6.7 0c0 .9-1.4.5-3.3.6-1.8.1-3.3.6-3.3-.3"/><path d="m19.3 0c0 .9 1.4.5 3.3.6 1.8.1 3.3.6 3.3-.3"/></g><g transform="translate(11 25)"><path d="m15.8 2.8c0 1.2-3.5.7-7.8.7s-7.8.6-7.8-.7c0-1.2 3.5-2.2 7.8-2.2s7.8 1 7.8 2.2z" fill="#f9c55d"/><path d="m39.8 2.8c0 1.2-3.5.7-7.8.7s-7.8.6-7.8-.7c0-1.2 3.5-2.2 7.8-2.2s7.8 1 7.8 2.2z" fill="#f9a908"/></g><circle cx="9.3" cy="31.5" fill="#f7910b" r="1"/><circle cx="4.8" cy="33.5" fill="#f7910b" r="1.1"/><circle cx="7.8" cy="29.5" fill="#f7910b" r="1"/><circle cx="12.4" cy="31.3" fill="#f7910b" r="1"/><circle cx="51.6" cy="31.8" fill="#f9a908" r="1"/><circle cx="54.1" cy="33.2" fill="#f9a908" r="1"/><circle cx="48.8" cy="24.4" fill="#f9a908" r="1"/><circle cx="48.3" cy="36" fill="#f9a908" r="1.3"/><circle cx="55.5" cy="36.1" fill="#f9a908" r="1"/><circle cx="8.3" cy="35.5" fill="#f7910b" r="1"/><circle cx="9.1" cy="27.1" fill="#f7910b" r="1"/><g fill="#f9a908"><circle cx="3.8" cy="13.3" r="1.1"/><circle cx="7" cy="9.8" r="1"/><circle cx="58.2" cy="15.7" r="1"/><circle cx="57.4" cy="12.8" r="1"/><circle cx="60" cy="13.3" r="1"/><circle cx="5" cy="16.3" r="1"/></g><g fill="#00233f"><ellipse cx="5.97305" cy="5.48855" rx="5.899943" ry="1.799983" transform="matrix(.70710678 .70710678 -.70710678 .70710678 21.630457 13.383975)"/><ellipse cx="6.02665" cy="5.48885" rx="5.899943" ry="1.799983" transform="matrix(.70710678 -.70710678 .70710678 .70710678 13.883962 21.869132)"/><ellipse cx="5.97265" cy="5.48905" rx="5.899943" ry="1.799983" transform="matrix(.70710678 .70710678 -.70710678 .70710678 39.630693 13.384404)"/><ellipse cx="6.02625" cy="5.48825" rx="5.899943" ry="1.799983" transform="matrix(.70710678 -.70710678 .70710678 .70710678 31.884269 21.868673)"/></g><g transform="translate(24 28)"><path d="m12.2 15.4c0 2.4-2.3 4.3-5.2 4.3s-5.2-1.9-5.2-4.3" fill="#f7910b"/><path d="m13.4 9.5c0 6.1-2.9 8.5-6.4 8.5s-6.4-2.4-6.4-8.5 2.9-9.3 6.4-9.3c3.5-.1 6.4 3.1 6.4 9.3z" fill="#c42260"/><path d="m13.3 11.2c-.8-.3-1.6-.4-2.5-.4-1.4 0-2.7.4-3.8 1.1-1.1-.7-2.4-1.1-3.8-1.1-.9 0-1.7.2-2.5.4.5 4.8 3.1 6.8 6.3 6.8s5.8-2 6.3-6.8z" fill="#e2446e"/><path d="m13.2 7c-.8-5-3.3-6.9-6.2-6.9s-5.5 1.9-6.2 6.9z" fill="#99144a"/></g></g></svg>