<svg height="58" viewBox="0 0 62 58" width="62" xmlns="http://www.w3.org/2000/svg"><g fill="none"><g transform="translate(1)"><path d="m61 34.5c0 13-12 23.5-30.4 23.5s-30.3-10.5-30.3-23.5 11.9-32.5 30.3-32.5 30.4 19.5 30.4 32.5z" fill="#f7910b"/><path d="m61 34.5c0 13-12 19.5-30.4 19.5s-30.3-6.5-30.3-19.5 11.9-34.5 30.3-34.5 30.4 21.5 30.4 34.5z" fill="#f7910b"/><path d="m30.6 0c18.4 0 30.4 21.5 30.4 34.5s-12 19.5-30.4 19.5" fill="#f9a908"/><path d="m61 34.5c0 13-12 19.5-30.4 19.5s-30.3-6.5-30.3-19.5 11.9-32.5 30.3-32.5 30.4 19.5 30.4 32.5z" fill="#f9a908"/><path d="m.3 34.5c0-13 11.9-32.5 30.3-32.5" fill="#f9c55d"/><path d="m30.6 2c18.4 0 30.4 19.5 30.4 32.5s-12 23.5-30.4 23.5" fill="#f7910b"/><path d="m30.6 2c18.4 0 30.4 19.5 30.4 32.5" fill="#ea7103"/><g transform="translate(2 11)"><path d="m25.5.8c-1.7.6-2.9 1.7-2.6 2.5l6.2-2.1c-.3-.8-1.9-1-3.6-.4z" fill="#19bca4"/><g transform="translate(9)"><path d="m3.9.9c-1.8-.4-3.3-.1-3.5.8l6.4 1.5c.1-.9-1.2-1.9-2.9-2.3z" fill="#19bca4"/><path d="m3.4 2.8c1.8.4 3.1 1.2 3.3.3l-6.4-1.5c-.2.9 1.4.8 3.1 1.2z" fill="#109da0"/></g><path d="m26.2 2.6c1.7-.6 3.2-.6 3-1.5l-6.2 2.1c.2.9 1.4 0 3.2-.6z" fill="#109da0"/><path d="m7.9 13.3c-4.3 0-7.8 1-7.8 2.2s3.5.7 7.8.7 7.8.6 7.8-.7c0-1.2-3.5-2.2-7.8-2.2z" fill="#f9c55d"/><path d="m29 13.3c-4.3 0-7.8 1-7.8 2.2s3.5.7 7.8.7 7.8.6 7.8-.7c0-1.2-3.5-2.2-7.8-2.2z" fill="#f9a908"/></g><g transform="translate(8 18)"><path d="m1 4.1c.4-.2.8-.3 1.3-.1 1.9.6 3.9-.5 4.5-2.4.3-.9 1.2-1.4 2.1-1.1s1.4 1.2 1.1 2.1c-1.1 3.6-5 5.7-8.6 4.6-.9-.3-1.4-1.2-1.1-2.1 0-.4.3-.8.7-1z" fill="#1e4784"/><path d="m1.3 7.1c-.9-.3-1.4-1.2-1.1-2.1.1-.4.4-.8.8-1s.8-.3 1.3-.1c1.9.6 3.9-.5 4.5-2.4.3-.9 1.2-1.4 2.1-1.1s1.4 1.2 1.1 2.1" fill="#02243e"/></g><g transform="translate(23 18)"><path d="m9.6 4.2c-.4-.2-.8-.3-1.3-.2-1.9.5-3.9-.6-4.4-2.5-.2-.9-1.1-1.4-2-1.2s-1.4 1.1-1.2 2c1 3.7 4.8 5.8 8.5 4.8.9-.2 1.4-1.1 1.2-2-.1-.3-.4-.6-.8-.9z" fill="#1e4784"/><path d="m9.3 7.3c.9-.2 1.4-1.1 1.2-2-.1-.4-.4-.8-.8-1s-.8-.3-1.3-.2c-1.9.5-3.9-.6-4.4-2.5-.2-.9-1.1-1.4-2-1.2s-1.4 1.1-1.2 2" fill="#02243e"/></g><ellipse cx="9" cy="31.5" fill="#f7910b" rx="1" ry="1"/><ellipse cx="4.5" cy="33.5" fill="#f7910b" rx="1.1" ry="1.1"/><ellipse cx="7.5" cy="29.5" fill="#f7910b" rx="1" ry="1"/><circle cx="12" cy="31.3" fill="#f7910b" r="1"/><circle cx="57.2" cy="34.4" fill="#f9a908" r="1"/><circle cx="53.7" cy="33.2" fill="#f9a908" r="1"/><circle cx="57.8" cy="40.2" fill="#f9a908" r="1"/><circle cx="54.1" cy="44" fill="#f9a908" r="1.3"/><circle cx="55.1" cy="36.1" fill="#f9a908" r="1"/><ellipse cx="8" cy="35.5" fill="#f7910b" rx="1" ry="1"/><circle cx="20.8" cy="18.2" fill="#f7910b" r="1"/><g fill="#f9a908"><ellipse cx="3.5" cy="13.3" rx="1.1" ry="1.1"/><ellipse cx="6.6" cy="9.8" rx="1" ry="1"/><circle cx="57.8" cy="15.7" r="1"/><ellipse cx="57" cy="12.8" rx="1" ry="1"/><circle cx="59.6" cy="13.3" r="1"/><circle cx="4.6" cy="16.3" r="1"/></g></g><g transform="translate(14 30)"><path d="m19 11.6c.8 7.1-3.9 13.4-9.1 14s-8.7-4.8-9.5-11.9.1-13 5.2-13.6c5.2-.5 12.6 4.5 13.4 11.5z" fill="#c42260"/><path d="m.5 13.8c-.8-7.1.1-13 5.2-13.6s12.5 4.4 13.3 11.4" fill="#99144a"/><path d="m18.5 17.2c-1.1-.3-2.2-.5-3.4-.5-1.1 0-2.2.2-3.2.4-1-.3-2.1-.4-3.2-.4-2.7 0-5.2.9-7.1 2.3 1.6 4.3 4.5 7.1 8.3 6.7 3.8-.5 7.3-4 8.6-8.5z" fill="#e2446e"/></g><g transform="translate(0 31)"><path d="m26.8 7.2s-6.3-4.5-15-4c-9.2.6-14.9 5.7-9.8 10.5 0 0-3.5 3.6-1 6.5 4.9 5.6 13.3-7.8 18.1-8.1 0 0-3 .8-2.7 4.5.2 3.7 5.1 5.1 7.7-.3 2.6-5.3 2.7-9.1 2.7-9.1z" fill="#11d389"/><path d="m24.1 16.4c2.6-5.4 2.7-9.1 2.7-9.1s-6.3-4.5-15-4" fill="#12ad79"/><path d="m2 13.7s-3.5 3.6-1 6.5c4.9 5.6 13.3-7.8 18.1-8.1" fill="#12ad79"/><g fill="#38e8a0"><path d="m6.4 8.2c.1.8-.5 1.5-1.3 1.6s-1.5-.5-1.6-1.3.5-1.5 1.3-1.6c.9-.1 1.6.5 1.6 1.3z"/><ellipse cx="7.4" cy="6.3" rx="1" ry="1"/><circle cx="12.3" cy="10.6" r="1"/><ellipse cx="11.1" cy="5.8" rx="1" ry="1"/><ellipse cx="3.8" cy="16.5" rx="1" ry="1"/><circle cx="13.8" cy="8.1" r="1"/></g><path d="m23.4 7.2c.1.9-.6 1.8-1.5 1.8-.9.1-1.8-.6-1.8-1.5-.1-.9.6-1.8 1.5-1.8.9-.1 1.7.5 1.8 1.5z" fill="#11d389"/><circle cx="21.9" cy=".9" fill="#38e8a0" r="1"/><ellipse cx="25.5" cy="2.2" fill="#12ad79" rx="1" ry="1"/><ellipse cx="22.4" cy="3.6" fill="#11d389" rx="1" ry="1"/><ellipse cx="17.8" cy="9.2" fill="#11d389" rx="1.2" ry="1.2"/><circle cx="20.1" cy="15.5" fill="#38e8a0" r="1"/></g><g transform="translate(9 43)"><path d="m8.9.4s1.8 3.4.9 7.6c-.9 4.5-3.9 6.9-5.9 4 0 0-2 1.5-3.3 0-2.4-2.8 4.8-5.9 5.3-8.3 0 0-.6 1.4-2.4 1s-2.1-2.8.7-3.7c2.8-.8 4.7-.6 4.7-.6z" fill="#11d389"/><path d="m4.2 1.1c2.8-.9 4.7-.7 4.7-.7s1.8 3.4.9 7.6" fill="#12ad79"/><path d="m3.9 12.1s-2 1.5-3.3 0c-2.4-2.8 4.8-5.9 5.3-8.3" fill="#12ad79"/><g fill="#38e8a0"><path d="m6.9 10.3c-.4-.1-.8.1-.9.5s.1.8.5.9.8-.1.9-.5-.1-.8-.5-.9z"/><ellipse cx="7.9" cy="10" rx="1" ry="1"/><circle cx="6.2" cy="7.3" r="1"/><circle cx="8.4" cy="8.2" r="1"/><circle cx="2.6" cy="11" r="1"/><circle cx="7.5" cy="6.7" r="1"/></g><path d="m8.6 2.1c-.4-.1-.9.2-1 .6s.2.9.6 1 .9-.2 1-.6c.2-.4-.1-.9-.6-1z" fill="#11d389"/><circle cx="11.6" cy="3.3" fill="#38e8a0" r="1"/><circle cx="11.2" cy="1.4" fill="#12ad79" r="1"/><circle cx="10.3" cy="2.8" fill="#11d389" r="1"/><circle cx="7.2" cy="4.7" fill="#11d389" r="1"/><circle cx="4.3" cy="3.1" fill="#38e8a0" r="1"/></g></g></svg>