<?xml version="1.0" encoding="UTF-8"?>
<svg width="64px" height="60px" viewBox="0 0 64 60" version="1.1" xmlns="http://www.w3.org/2000/svg" xmlns:xlink="http://www.w3.org/1999/xlink">
    <!-- Generator: Sketch 43.1 (39012) - http://www.bohemiancoding.com/sketch -->
    <title>imgly_sticker_emoticons_guitar</title>
    <desc>Created with Sketch.</desc>
    <defs></defs>
    <g id="Page-1" stroke="none" stroke-width="1" fill="none" fill-rule="evenodd">
        <g id="guitar" fill-rule="nonzero">
            <g id="Group" transform="translate(1.000000, 0.000000)">
                <path d="M61,34.8 C61,47.8 49.1,58.3 30.7,58.3 C12.3,58.3 0.4,47.8 0.4,34.8 C0.4,21.8 12.2,2.3 30.7,2.3 C49.1,2.3 61,21.8 61,34.8 Z" id="Shape" fill="#F7910B"></path>
                <path d="M61,34.8 C61,47.8 49.1,54.3 30.7,54.3 C12.3,54.3 0.4,47.8 0.4,34.8 C0.4,21.8 12.2,0.3 30.7,0.3 C49.1,0.3 61,21.8 61,34.8 Z" id="Shape" fill="#F7910B"></path>
                <path d="M30.7,0.3 C49.1,0.3 61,21.8 61,34.8 C61,47.8 49.1,54.3 30.7,54.3" id="Shape" fill="#F9A908"></path>
                <path d="M61,34.8 C61,47.8 49.1,54.3 30.7,54.3 C12.3,54.3 0.4,47.8 0.4,34.8 C0.4,21.8 12.2,2.3 30.7,2.3 C49.1,2.3 61,21.8 61,34.8 Z" id="Shape" fill="#F9A908"></path>
                <path d="M0.3,34.8 C0.3,21.8 12.2,2.3 30.6,2.3" id="Shape" fill="#F9C55D"></path>
                <path d="M30.7,2.3 C49.1,2.3 61,21.8 61,34.8 C61,47.8 49.1,58.3 30.7,58.3" id="Shape" fill="#F7910B"></path>
                <path d="M30.7,2.3 C49.1,2.3 61,21.8 61,34.8" id="Shape" fill="#EA7103"></path>
                <g transform="translate(18.000000, 5.000000)" id="Shape">
                    <path d="M10.4,0.3 C8.6,0.4 7.2,1.1 7.2,2 L13.7,1.7 C13.7,0.9 12.2,0.2 10.4,0.3 Z" fill="#19BCA4"></path>
                    <path d="M29.7,0.3 C27.9,0.2 26.4,0.9 26.4,1.7 L32.9,2 C33,1.1 31.5,0.4 29.7,0.3 Z" fill="#19BCA4"></path>
                    <path d="M10.5,2.3 C12.3,2.2 13.8,2.6 13.8,1.7 L7.2,2 C7.2,2.9 8.7,2.4 10.5,2.3 Z" fill="#109DA0"></path>
                    <path d="M29.6,2.3 C31.4,2.4 32.9,2.9 32.9,2 L26.4,1.7 C26.3,2.6 27.8,2.2 29.6,2.3 Z" fill="#109DA0"></path>
                    <path d="M8.1,13.9 C3.8,13.9 0.3,14.9 0.3,16.1 C0.3,17.3 3.8,16.8 8.1,16.8 C12.4,16.8 15.9,17.4 15.9,16.1 C15.9,14.8 12.4,13.9 8.1,13.9 Z" fill="#F9C55D"></path>
                    <path d="M32,13.9 C27.7,13.9 24.2,14.9 24.2,16.1 C24.2,17.3 27.7,16.8 32,16.8 C36.3,16.8 39.8,17.4 39.8,16.1 C39.8,14.8 36.4,13.9 32,13.9 Z" fill="#F9A908"></path>
                </g>
                <g transform="translate(23.000000, 14.000000)" id="Shape">
                    <g>
                        <path d="M2.2,0.3 C2.6,0.4 3,0.6 3.3,0.9 C4.5,2.5 6.8,2.8 8.4,1.5 C9.1,0.9 10.2,1.1 10.7,1.8 C11.3,2.5 11.1,3.6 10.4,4.1 C7.4,6.4 3,5.9 0.7,2.9 C0.1,2.2 0.3,1.1 1,0.6 C1.4,0.3 1.8,0.2 2.2,0.3 Z" fill="#1E4784"></path>
                        <path d="M0.7,2.9 C0.1,2.2 0.3,1.1 1,0.6 C1.4,0.3 1.8,0.2 2.2,0.3 C2.6,0.4 3,0.6 3.3,0.9 C4.5,2.5 6.8,2.8 8.4,1.5 C9.1,0.9 10.2,1.1 10.7,1.8 C11.3,2.5 11.1,3.6 10.4,4.1" fill="#02243E"></path>
                    </g>
                    <g transform="translate(19.000000, 0.000000)">
                        <path d="M8.9,0.3 C8.5,0.4 8.1,0.6 7.8,0.9 C6.6,2.5 4.3,2.8 2.7,1.5 C2,1 1,1.1 0.4,1.8 C-0.2,2.5 -3.05311332e-15,3.6 0.7,4.1 C3.7,6.4 8.1,5.9 10.4,2.9 C11,2.2 10.8,1.1 10.1,0.6 C9.8,0.3 9.3,0.2 8.9,0.3 Z" fill="#1E4784"></path>
                        <path d="M10.4,2.9 C11,2.2 10.8,1.1 10.1,0.6 C9.7,0.3 9.3,0.2 8.9,0.3 C8.5,0.4 8.1,0.6 7.8,0.9 C6.6,2.5 4.3,2.8 2.7,1.5 C2,1 1,1.1 0.4,1.8 C-0.2,2.5 -3.06005221e-15,3.6 0.7,4.1" fill="#02243E"></path>
                    </g>
                </g>
                <g transform="translate(29.000000, 26.000000)" id="Shape">
                    <path d="M15.6,3.3 C15.6,5.9 12.3,8 8.2,8 C4.1,8 0.8,5.9 0.8,3.3" fill="#ED7E11"></path>
                    <path d="M8.4,4.6 C5.2,4.6 2,3.9 0.5,2.4 C0.1,2 0.1,1.3 0.5,0.8 C0.9,0.4 1.6,0.4 2.1,0.8 C4.2,2.9 12.7,2.9 14.8,0.8 C15.2,0.4 15.9,0.4 16.4,0.8 C16.8,1.2 16.8,1.9 16.4,2.4 C14.8,3.8 11.6,4.6 8.4,4.6 Z" fill="#02243E"></path>
                </g>
                <circle id="Oval" fill="#F7910B" cx="9" cy="31.8" r="1"></circle>
                <circle id="Oval" fill="#F7910B" cx="4.5" cy="33.8" r="1.1"></circle>
                <circle id="Oval" fill="#F7910B" cx="7.5" cy="29.8" r="1"></circle>
                <circle id="Oval" fill="#F7910B" cx="12" cy="31.6" r="1"></circle>
                <circle id="Oval" fill="#F9A908" cx="57.2" cy="34.7" r="1"></circle>
                <circle id="Oval" fill="#F9A908" cx="53.7" cy="33.5" r="1"></circle>
                <circle id="Oval" fill="#F9A908" cx="57.9" cy="40.5" r="1"></circle>
                <circle id="Oval" fill="#F9A908" cx="54.1" cy="44.3" r="1.3"></circle>
                <circle id="Oval" fill="#F9A908" cx="55.1" cy="36.4" r="1"></circle>
                <circle id="Oval" fill="#F7910B" cx="8" cy="35.8" r="1"></circle>
                <circle id="Oval" fill="#F7910B" cx="8.7" cy="27.4" r="1"></circle>
                <circle id="Oval" fill="#F9A908" cx="3.5" cy="13.6" r="1.1"></circle>
                <circle id="Oval" fill="#F9A908" cx="6.7" cy="10.1" r="1"></circle>
                <circle id="Oval" fill="#F9A908" cx="57.9" cy="16" r="1"></circle>
                <circle id="Oval" fill="#F9A908" cx="57" cy="13.1" r="1"></circle>
                <circle id="Oval" fill="#F9A908" cx="59.6" cy="13.6" r="1"></circle>
                <circle id="Oval" fill="#F9A908" cx="4.7" cy="16.6" r="1"></circle>
            </g>
            <g id="Group" transform="translate(0.000000, 25.000000)">
                <g fill="#1E4784">
                    <g>
                        <path d="M24.7,15.7 C24.7,24.2 18.6,31.1 11.1,31.1 C3.7,31 0.6,24.2 0.6,15.7 C0.6,7.2 3.7,0.3 11.2,0.3 C18.7,0.3 24.7,7.2 24.7,15.7 Z" id="Shape"></path>
                        <ellipse id="Oval" cx="25.3" cy="15.7" rx="10.5" ry="11.9"></ellipse>
                    </g>
                    <g transform="translate(0.000000, 4.000000)">
                        <path d="M24.7,15.3 C24.7,23.8 18.6,30.7 11.1,30.7 C3.6,30.7 0.5,23.8 0.5,15.3 C0.6,6.9 3.7,0 11.2,0 C18.7,0 24.7,6.9 24.7,15.3 Z" id="Shape"></path>
                        <ellipse id="Oval" cx="25.3" cy="15.3" rx="10.5" ry="11.9"></ellipse>
                    </g>
                </g>
                <g transform="translate(0.000000, 2.000000)">
                    <g fill="#02243E">
                        <path d="M24.7,15.5 C24.7,24 18.6,30.9 11.1,30.9 C3.7,30.9 0.6,24 0.6,15.5 C0.6,7 3.7,0.1 11.2,0.1 C18.7,0.1 24.7,7 24.7,15.5 Z" id="Shape"></path>
                        <ellipse id="Oval" cx="25.3" cy="15.5" rx="10.5" ry="11.9"></ellipse>
                    </g>
                    <path d="M9.2,20 C9.2,20.7 8.6,21.2 8,21.2 L8,21.2 C7.3,21.2 6.8,20.6 6.8,20 L6.8,11 C6.8,10.3 7.4,9.8 8,9.8 L8,9.8 C8.7,9.8 9.2,10.4 9.2,11 L9.2,20 Z" id="Shape" fill="#F9A908"></path>
                    <circle id="Oval" fill="#EA7103" cx="21.7" cy="15.5" r="4"></circle>
                </g>
            </g>
            <path d="M58.9,41.6 C58.9,43.6 59.3,45.2 57.3,45.2 L33.5,45.2 C31.5,45.2 31.9,43.6 31.9,41.6 L31.9,41.6 C31.9,39.6 31.5,38 33.5,38 L57.3,38 C59.3,38 58.9,39.6 58.9,41.6 L58.9,41.6 Z" id="Shape" fill="#844414"></path>
            <path d="M58.9,42.5 C58.9,44.5 59.3,46.1 57.3,46.1 L33.5,46.1 C31.5,46.1 31.9,44.5 31.9,42.5 L31.9,42.5 C31.9,40.5 31.5,38.9 33.5,38.9 L57.3,38.9 C59.3,38.9 58.9,40.5 58.9,42.5 L58.9,42.5 Z" id="Shape" fill="#683409"></path>
            <path d="M37,44.6 C37,44.7 36.9,44.8 36.8,44.8 L36.8,44.8 C36.7,44.8 36.6,44.7 36.6,44.6 L36.6,40.5 C36.6,40.4 36.7,40.3 36.8,40.3 L36.8,40.3 C36.9,40.3 37,40.4 37,40.5 L37,44.6 Z" id="Shape" fill="#844414"></path>
            <path d="M41.5,44.6 C41.5,44.7 41.4,44.8 41.3,44.8 L41.3,44.8 C41.2,44.8 41.1,44.7 41.1,44.6 L41.1,40.5 C41.1,40.4 41.2,40.3 41.3,40.3 L41.3,40.3 C41.4,40.3 41.5,40.4 41.5,40.5 L41.5,44.6 Z" id="Shape" fill="#844414"></path>
            <path d="M45.9,44.6 C45.9,44.7 45.8,44.8 45.7,44.8 L45.7,44.8 C45.6,44.8 45.5,44.7 45.5,44.6 L45.5,40.5 C45.5,40.4 45.6,40.3 45.7,40.3 L45.7,40.3 C45.8,40.3 45.9,40.4 45.9,40.5 L45.9,44.6 Z" id="Shape" fill="#844414"></path>
            <path d="M50.4,44.6 C50.4,44.7 50.3,44.8 50.2,44.8 L50.2,44.8 C50.1,44.8 50,44.7 50,44.6 L50,40.5 C50,40.4 50.1,40.3 50.2,40.3 L50.2,40.3 C50.3,40.3 50.4,40.4 50.4,40.5 L50.4,44.6 Z" id="Shape" fill="#844414"></path>
            <path d="M54.8,44.6 C54.8,44.7 54.7,44.8 54.6,44.8 L54.6,44.8 C54.5,44.8 54.4,44.7 54.4,44.6 L54.4,40.5 C54.4,40.4 54.5,40.3 54.6,40.3 L54.6,40.3 C54.7,40.3 54.8,40.4 54.8,40.5 L54.8,44.6 Z" id="Shape" fill="#844414"></path>
            <circle id="Oval" fill="#F9A908" cx="39" cy="42.5" r="1"></circle>
            <circle id="Oval" fill="#F9A908" cx="47.6" cy="42.5" r="1"></circle>
            <path d="M63.4,46 C63.4,48.1 61.7,49.8 59.6,49.8 L59.6,49.8 C57.5,49.8 55.8,48.1 55.8,46 L55.8,39 C55.8,36.9 57.5,35.2 59.6,35.2 L59.6,35.2 C61.7,35.2 63.4,36.9 63.4,39 L63.4,46 Z" id="Shape" fill="#02243E"></path>
            <g id="Group" transform="translate(57.000000, 31.000000)" fill="#02243E">
                <g id="Oval">
                    <circle cx="1.2" cy="1.4" r="1.1"></circle>
                    <circle cx="1.2" cy="21.6" r="1.1"></circle>
                </g>
                <g transform="translate(3.000000, 0.000000)" id="Oval">
                    <circle cx="1.8" cy="1.4" r="1.1"></circle>
                    <circle cx="1.8" cy="21.6" r="1.1"></circle>
                </g>
            </g>
        </g>
    </g>
</svg>