<?xml version="1.0" encoding="UTF-8"?>
<svg width="62px" height="58px" viewBox="0 0 62 58" version="1.1" xmlns="http://www.w3.org/2000/svg" xmlns:xlink="http://www.w3.org/1999/xlink">
    <!-- Generator: Sketch 43.1 (39012) - http://www.bohemiancoding.com/sketch -->
    <title>imgly_sticker_emoticons_kiss</title>
    <desc>Created with Sketch.</desc>
    <defs></defs>
    <g id="Page-1" stroke="none" stroke-width="1" fill="none" fill-rule="evenodd">
        <g id="kiss" fill-rule="nonzero">
            <path d="M61.3,34.5 C61.3,47.5 49.4,58 31,58 C12.6,58 0.7,47.5 0.7,34.5 C0.7,21.5 12.6,2 31,2 C49.4,2 61.3,21.5 61.3,34.5 Z" id="Shape" fill="#F7910B"></path>
            <path d="M61.3,34.5 C61.3,47.5 49.4,54 31,54 C12.6,54 0.7,47.5 0.7,34.5 C0.7,21.5 12.6,0 31,0 C49.4,0 61.3,21.5 61.3,34.5 Z" id="Shape" fill="#F7910B"></path>
            <path d="M31,0 C49.4,0 61.3,21.5 61.3,34.5 C61.3,47.5 49.4,54 31,54" id="Shape" fill="#F9A908"></path>
            <path d="M61.3,34.5 C61.3,47.5 49.4,54 31,54 C12.6,54 0.7,47.5 0.7,34.5 C0.7,21.5 12.6,2 31,2 C49.4,2 61.3,21.5 61.3,34.5 Z" id="Shape" fill="#F9A908"></path>
            <path d="M38.4,44.2 C38.4,46.8 35.1,51.5 31,51.5 C26.9,51.5 23.6,46.8 23.6,44.2" id="Shape" fill="#F7910B"></path>
            <path d="M0.7,34.5 C0.7,21.5 12.6,2 31,2" id="Shape" fill="#F9C55D"></path>
            <path d="M31,2 C49.4,2 61.3,21.5 61.3,34.5 C61.3,47.5 49.4,58 31,58" id="Shape" fill="#F7910B"></path>
            <path d="M31,2 C49.4,2 61.3,21.5 61.3,34.5" id="Shape" fill="#EA7103"></path>
            <g id="Group" transform="translate(18.000000, 11.000000)">
                <g id="Shape">
                    <path d="M5.9,1.3 C6.2,2.1 4.9,2.1 3.5,2.7 C2.1,3.2 1.1,4.1 0.8,3.3 C0.5,2.5 1.4,1.4 2.8,0.9 C4.2,0.3 5.6,0.5 5.9,1.3 Z" fill="#19BCA4"></path>
                    <path d="M5.9,1.3 C6.2,2.1 4.9,2.1 3.5,2.7 C2.1,3.2 1.1,4.1 0.8,3.3" fill="#109DA0"></path>
                </g>
                <g transform="translate(20.000000, 0.000000)" id="Shape">
                    <path d="M0.1,1.3 C-0.2,2.1 1.1,2.1 2.5,2.7 C3.9,3.2 4.9,4.1 5.2,3.3 C5.5,2.5 4.6,1.4 3.2,0.9 C1.8,0.3 0.4,0.5 0.1,1.3 Z" fill="#19BCA4"></path>
                    <path d="M0.1,1.3 C-0.2,2.1 1.1,2.1 2.5,2.7 C3.9,3.2 4.9,4.1 5.2,3.3" fill="#109DA0"></path>
                </g>
            </g>
            <g id="Group" transform="translate(11.000000, 25.000000)">
                <path d="M15.8,2.8 C15.8,4 12.3,3.5 8,3.5 C3.7,3.5 0.2,4.1 0.2,2.8 C0.2,1.6 3.7,0.6 8,0.6 C12.3,0.6 15.8,1.6 15.8,2.8 Z" id="Shape" fill="#F9C55D"></path>
                <path d="M39.8,2.8 C39.8,4 36.3,3.5 32,3.5 C27.7,3.5 24.2,4.1 24.2,2.8 C24.2,1.6 27.7,0.6 32,0.6 C36.3,0.6 39.8,1.6 39.8,2.8 Z" id="Shape" fill="#F9A908"></path>
            </g>
            <circle id="Oval" fill="#F7910B" cx="9.3" cy="31.5" r="1"></circle>
            <circle id="Oval" fill="#F7910B" cx="4.8" cy="33.5" r="1.1"></circle>
            <circle id="Oval" fill="#F7910B" cx="7.8" cy="29.5" r="1"></circle>
            <circle id="Oval" fill="#F7910B" cx="12.4" cy="31.3" r="1"></circle>
            <circle id="Oval" fill="#F9A908" cx="51.6" cy="31.8" r="1"></circle>
            <circle id="Oval" fill="#F9A908" cx="54.1" cy="33.2" r="1"></circle>
            <circle id="Oval" fill="#F9A908" cx="48.8" cy="24.4" r="1"></circle>
            <circle id="Oval" fill="#F9A908" cx="48.3" cy="36" r="1.3"></circle>
            <circle id="Oval" fill="#F9A908" cx="55.5" cy="36.1" r="1"></circle>
            <circle id="Oval" fill="#F7910B" cx="8.3" cy="35.5" r="1"></circle>
            <circle id="Oval" fill="#F7910B" cx="9.1" cy="27.1" r="1"></circle>
            <circle id="Oval" fill="#F9A908" cx="3.8" cy="13.3" r="1.1"></circle>
            <circle id="Oval" fill="#F9A908" cx="7" cy="9.8" r="1"></circle>
            <circle id="Oval" fill="#F9A908" cx="58.2" cy="15.7" r="1"></circle>
            <circle id="Oval" fill="#F9A908" cx="57.4" cy="12.8" r="1"></circle>
            <path d="M60.5,13.3 C60.5,13.6 60.3,13.8 60,13.8 C59.7,13.8 59.5,13.6 59.5,13.3 C59.5,13 59.7,12.8 60,12.8 C60.2,12.8 60.5,13.1 60.5,13.3 Z" id="Shape" fill="#F9A908"></path>
            <circle id="Oval" fill="#F9A908" cx="5" cy="16.3" r="1"></circle>
            <g id="Group" transform="translate(14.000000, 19.000000)">
                <g id="Shape">
                    <path d="M8.9,6 C8.5,5.9 8.1,5.7 7.8,5.3 C6.7,3.7 4.4,3.3 2.8,4.4 C2,4.9 1,4.7 0.5,4 C1.66533454e-15,3.3 0.2,2.2 0.9,1.7 C4,-0.5 8.3,0.3 10.5,3.5 C11,4.2 10.8,5.3 10.1,5.8 C9.7,6 9.3,6 8.9,6 Z" fill="#1E4784"></path>
                    <path d="M10.5,3.4 C11,4.1 10.8,5.2 10.1,5.7 C9.7,6 9.3,6 8.9,6 C8.5,5.9 8.1,5.7 7.8,5.3 C6.7,3.7 4.4,3.3 2.8,4.4 C2,4.9 1,4.7 0.5,4 C1.66533454e-15,3.3 0.2,2.2 0.9,1.7" fill="#02243E"></path>
                </g>
                <g transform="translate(23.000000, 0.000000)" id="Shape">
                    <path d="M2.1,6 C2.5,5.9 2.9,5.7 3.2,5.3 C4.3,3.7 6.6,3.3 8.2,4.4 C9,4.9 10,4.7 10.5,4 C11,3.3 10.8,2.2 10.1,1.7 C7,-0.5 2.7,0.3 0.5,3.5 C8.32667268e-16,4.2 0.2,5.3 0.9,5.8 C1.3,6 1.7,6 2.1,6 Z" fill="#1E4784"></path>
                    <path d="M0.5,3.4 C8.32667268e-16,4.1 0.2,5.2 0.9,5.7 C1.3,6 1.7,6 2.1,6 C2.5,5.9 2.9,5.7 3.2,5.3 C4.3,3.7 6.6,3.3 8.2,4.4 C9,4.9 10,4.7 10.5,4 C11,3.3 10.8,2.2 10.1,1.7" fill="#02243E"></path>
                </g>
            </g>
            <g id="Group" transform="translate(15.000000, 27.000000)">
                <path d="M0.1,8 C0.6,13 7.5,19.6 16,19.6 C24.5,19.6 31.4,13 31.9,8 L0.1,8 Z" id="Shape" fill="#CE1906"></path>
                <path d="M16,19.6 C24.5,19.6 31.4,13 31.9,8 L16,8" id="Shape" fill="#A80B0B"></path>
                <path d="M20.9,0.1 C18.9,0.1 17.2,0.8 16,2 C14.7,0.8 13.1,0.1 11.1,0.1 C6.8,0.1 2.1,3 0.2,8 L13,8 L19,8 L31.6,8 C29.7,3 25.3,0.1 20.9,0.1 Z" id="Shape" fill="#CE1906"></path>
                <path d="M19,8 L31.9,8 C30,3 25.3,0.1 21,0.1 C19,0.1 17.4,0.8 16.1,2" id="Shape" fill="#B51104"></path>
                <path d="M9.7,1.3 C10.1,1.7 9.1,2.9 7.5,3.8 C5.9,4.7 4.4,5.1 4.1,4.7 C3.7,4.3 4.7,3.1 6.3,2.2 C7.9,1.2 9.4,0.8 9.7,1.3 Z" id="Shape" fill="#E55145"></path>
                <path d="M4.2,11.3 C4.8,10.9 6.5,11.7 8.1,13.2 C9.7,14.7 10.5,16.3 9.9,16.7 C9.3,17.1 7.6,16.3 6,14.8 C4.4,13.3 3.6,11.7 4.2,11.3 Z" id="Shape" fill="#E55145"></path>
                <path d="M25.3,8 C24.2,7 21.4,6.4 18.9,6.4 C17.7,6.4 16.8,6.6 16,6.8 C15.3,6.5 14.3,6.4 13.1,6.4 C10.6,6.4 7.8,7 6.7,8 L6.7,8 C7,9 11,10.4 15.9,10.4 C20.9,10.4 24.9,9 25.3,8 L25.3,8 Z" id="Shape" fill="#540200"></path>
                <path d="M25,8 L25.3,8 C24.2,7 21.4,6.4 18.9,6.4 C17.7,6.4 16.8,6.6 16,6.8 C15.3,6.5 14.3,6.4 13.1,6.4 C10.6,6.4 7.8,7 6.7,8 L7,8" id="Shape" fill="#300101"></path>
            </g>
        </g>
    </g>
</svg>