<svg height="58" viewBox="0 0 62 58" width="62" xmlns="http://www.w3.org/2000/svg"><g fill="none"><path d="m61.3 34.5c0 13-11.9 23.5-30.3 23.5s-30.3-10.5-30.3-23.5 11.9-32.5 30.3-32.5 30.3 19.5 30.3 32.5z" fill="#f7910b"/><path d="m61.3 34.5c0 13-11.9 19.5-30.3 19.5s-30.3-6.5-30.3-19.5 11.9-34.5 30.3-34.5 30.3 21.5 30.3 34.5z" fill="#f7910b"/><path d="m31 0c18.4 0 30.3 21.5 30.3 34.5s-11.9 19.5-30.3 19.5" fill="#f9a908"/><path d="m61.3 34.5c0 13-11.9 19.5-30.3 19.5s-30.3-6.5-30.3-19.5 11.9-32.5 30.3-32.5 30.3 19.5 30.3 32.5z" fill="#f9a908"/><path d="m.7 34.5c0-13 11.9-32.5 30.3-32.5" fill="#f9c55d"/><path d="m31 2c18.4 0 30.3 19.5 30.3 32.5s-11.9 23.5-30.3 23.5" fill="#f7910b"/><path d="m31 2c18.4 0 30.3 19.5 30.3 32.5" fill="#ea7103"/><path d="m50.7 48.8c0 2.6-6.7 7.3-13.2 7.5-10.1.3-10.5-4.9-10.5-7.5" fill="#f7910b"/><circle cx="9.3" cy="31.5" fill="#f7910b" r="1"/><circle cx="4.8" cy="33.5" fill="#f7910b" r="1.1"/><circle cx="7.8" cy="29.5" fill="#f7910b" r="1"/><circle cx="12.4" cy="31.3" fill="#f7910b" r="1"/><circle cx="57.6" cy="34.4" fill="#f9a908" r="1"/><circle cx="54.1" cy="33.2" fill="#f9a908" r="1"/><circle cx="58.2" cy="40.2" fill="#f9a908" r="1"/><circle cx="54.4" cy="44" fill="#f9a908" r="1.3"/><circle cx="55.5" cy="36.1" fill="#f9a908" r="1"/><circle cx="8.3" cy="35.5" fill="#f7910b" r="1"/><circle cx="9.1" cy="27.1" fill="#f7910b" r="1"/><g fill="#f9a908"><circle cx="3.8" cy="13.3" r="1.1"/><circle cx="7" cy="9.8" r="1"/><circle cx="58.2" cy="15.7" r="1"/><circle cx="55" cy="4.8" r="1"/><circle cx="60" cy="13.3" r="1"/><circle cx="5" cy="16.3" r="1"/></g><g transform="translate(23 32)"><circle cx="3.9" cy="5.1" fill="#d87703" r="3.5"/><circle cx="26.8" cy="5.1" fill="#d87703" r="3.5"/><circle cx="3.9" cy="4.1" fill="#1e4784" r="3.5"/><path d="m3.9.6c1.9 0 3.5 1.6 3.5 3.5s-1.6 3.5-3.5 3.5" fill="#00233f"/><circle cx="26.8" cy="4.1" fill="#1e4784" r="3.5"/><path d="m26.8.6c1.9 0 3.5 1.6 3.5 3.5s-1.6 3.5-3.5 3.5" fill="#00233f"/></g><g transform="translate(18 18)"><path d="m11.1 6.4c-2-.7-4-.5-4.3.5l7.4 2.6c.3-1-1.1-2.4-3.1-3.1z" fill="#19bca4"/><path d="m29.6.2c-1.8.2-3.2 1.1-3.1 1.9l6.5-.8c-.1-.8-1.7-1.3-3.4-1.1z" fill="#19bca4"/><path d="m10.3 8.7c2 .7 3.5 1.8 3.9.8l-7.4-2.6c-.4 1 1.4 1.1 3.5 1.8z" fill="#109da0"/><path d="m29.8 2.2c1.8-.2 3.3.1 3.2-.8l-6.5.8c.1.8 1.5.2 3.3 0z" fill="#109da0"/><path d="m8.4 20.9c-4.3 0-7.8 1-7.8 2.2s3.5.7 7.8.7 7.8.6 7.8-.7-3.4-2.2-7.8-2.2z" fill="#f9c55d"/><path d="m32.4 20.9c-4.3 0-7.8 1-7.8 2.2s3.5.7 7.8.7 7.8.6 7.8-.7-3.5-2.2-7.8-2.2z" fill="#f9a908"/></g><path d="m48.5 50.4c0 1.4-6.2 5.4-12.6 4.3-5.5-.9-8-3.7-8-5.1s4.9-2.6 10.5-2.6 10.1 2 10.1 3.4z" fill="#d14905"/><path d="m48.5 50.4c0 1.4-6.5 3.8-12.9 2.7-5.5-.9-7.6-2-7.6-3.4s4.8-2.7 10.4-2.7 10.1 2 10.1 3.4z" fill="#b73e08"/><path d="m27.7 47.4s2.5-5.5 10-5.5 8 .7 10.5 4.2c2 2.8 7.6 2.8 1.7 4.3-5.7 1.5-18.8.5-21.2-.3-3.7-1.2-1-2.7-1-2.7z" fill="#f95d06"/><path d="m37.7 41.9c7.5 0 8 .7 10.5 4.2 2 2.8 7.6 2.8 1.7 4.3" fill="#d14905"/><path d="m37.6 47.8c-1.4-2.7-2.1-4-4.8-4.9-3.7 1.6-5.1 4.6-5.1 4.6s-2.7 1.4 1 2.7c1.5.5 7.2 1.1 12.6 1.1-.8-.8-2.8-1.8-3.7-3.5z" fill="#f77f08"/></g></svg>