<svg height="60" viewBox="0 0 62 60" width="62" xmlns="http://www.w3.org/2000/svg"><g fill="none"><g transform="translate(0 1)"><path d="m61.3 35.1c0 13-11.9 23.5-30.3 23.5s-30.3-10.5-30.3-23.5 11.9-32.5 30.3-32.5 30.3 19.5 30.3 32.5z" fill="#f7910b"/><path d="m61.3 35.1c0 13-11.9 19.5-30.3 19.5s-30.3-6.5-30.3-19.5 11.9-34.5 30.3-34.5 30.3 21.5 30.3 34.5z" fill="#f7910b"/><path d="m31 .6c18.4 0 30.3 21.5 30.3 34.5s-11.9 19.5-30.3 19.5" fill="#f9a908"/><path d="m61.3 35.1c0 13-11.9 19.5-30.3 19.5s-30.3-6.5-30.3-19.5 11.9-32.5 30.3-32.5 30.3 19.5 30.3 32.5z" fill="#f9a908"/><path d="m.7 35.1c0-13 11.9-32.5 30.3-32.5" fill="#f9c55d"/><path d="m31 2.6c18.4 0 30.3 19.5 30.3 32.5s-11.9 23.5-30.3 23.5" fill="#f7910b"/><path d="m31 2.6c18.4 0 30.3 19.5 30.3 32.5" fill="#ea7103"/><g transform="translate(11 24)"><path d="m15.8 3c0 1.2-3.5.7-7.8.7s-7.8.6-7.8-.7c0-1.2 3.5-2.2 7.8-2.2s7.8 1 7.8 2.2z" fill="#f9c55d"/><path d="m39.8 3c0 1.2-3.5.7-7.8.7s-7.8.6-7.8-.7c0-1.2 3.5-2.2 7.8-2.2s7.8 1 7.8 2.2z" fill="#f9a908"/></g><circle cx="9.3" cy="32" fill="#f7910b" r="1"/><circle cx="4.8" cy="34" fill="#f7910b" r="1.1"/><circle cx="7.8" cy="30" fill="#f7910b" r="1"/><circle cx="12.4" cy="31.9" fill="#f7910b" r="1"/><circle cx="51.6" cy="32.4" fill="#f9a908" r="1"/><circle cx="54.1" cy="33.8" fill="#f9a908" r="1"/><circle cx="48.8" cy="25" fill="#f9a908" r="1"/><circle cx="48.3" cy="36.6" fill="#f9a908" r="1.3"/><circle cx="55.5" cy="36.7" fill="#f9a908" r="1"/><circle cx="8.3" cy="36.1" fill="#f7910b" r="1"/><circle cx="9.1" cy="27.7" fill="#f7910b" r="1"/><g fill="#f9a908"><circle cx="3.8" cy="13.9" r="1.1"/><circle cx="7" cy="10.4" r="1"/><circle cx="58.2" cy="16.3" r="1"/><circle cx="57.4" cy="13.4" r="1"/><circle cx="60" cy="13.9" r="1"/><circle cx="5" cy="16.9" r="1"/></g></g><g transform="translate(14 21)"><path d="m1.7.4c.4 0 .8.2 1.2.5 1.4 1.4 3.7 1.4 5.1 0 .6-.6 1.7-.7 2.3 0 .6.6.7 1.7 0 2.3-2.7 2.7-7.1 2.7-9.8 0-.6-.6-.6-1.7 0-2.3.4-.3.8-.5 1.2-.5z" fill="#1e4784"/><path d="m.6 3.2c-.6-.6-.6-1.7 0-2.3.3-.3.7-.5 1.2-.5.4 0 .8.2 1.2.5 1.4 1.4 3.7 1.4 5.1 0 .6-.6 1.7-.7 2.3 0 .6.6.7 1.7 0 2.3" fill="#02243e"/></g><g transform="translate(37 21)"><path d="m9.3.4c-.4 0-.8.2-1.2.5-1.4 1.4-3.7 1.4-5.1 0-.6-.6-1.7-.7-2.3 0-.6.6-.7 1.7 0 2.3 2.7 2.7 7.1 2.7 9.8 0 .6-.6.6-1.7 0-2.3-.4-.3-.8-.5-1.2-.5z" fill="#1e4784"/><path d="m10.4 3.2c.6-.6.6-1.7 0-2.3-.3-.3-.7-.5-1.2-.5-.4 0-.8.2-1.2.5-1.4 1.4-3.7 1.4-5.1 0-.6-.6-1.7-.7-2.3 0-.6.6-.7 1.7 0 2.3" fill="#02243e"/></g><path d="m31 1.6c-18.4 0-30.3 21.5-30.3 34.5s11.9 23.5 30.3 23.5 30.3-10.5 30.3-23.5-11.9-34.5-30.3-34.5zm-20.3 22.9c0-4 4.1-7.2 9.1-7.2s9.1 3.2 9.1 7.2-4.1 3.6-9.1 3.6-9.1.4-9.1-3.6zm20.3 27.9c-7.1 0-12.9-5.6-12.9-12.5s5.8-7.6 12.9-7.6 12.9.7 12.9 7.6-5.8 12.5-12.9 12.5zm11.2-24.3c-5 0-9.1.4-9.1-3.6s4.1-7.2 9.1-7.2 9.1 3.2 9.1 7.2-4.1 3.6-9.1 3.6z" fill="#1e4784"/><path d="m30.9 1.6c-6 0-11.2 2.4-15.9 6v10.6c2-.6 3-1 4.7-1 5 0 9.1 3.2 9.1 7.2s-4.2 3.6-9.2 3.6h-4.7v28.3c5 2.2 9.9 3.2 15.9 3.2 18.4 0 30.3-10.5 30.3-23.5s-11.8-34.4-30.2-34.4zm.1 50.8c-7.1 0-12.9-5.6-12.9-12.5s5.8-7.6 12.9-7.6 12.9.7 12.9 7.6-5.8 12.5-12.9 12.5zm11.2-24.3c-5 0-9.1.4-9.1-3.6s4.1-7.2 9.1-7.2 9.1 3.2 9.1 7.2-4.1 3.6-9.1 3.6z" fill="#00233f"/><ellipse cx="8.79334" cy="32.90302" fill="#2b63a5" rx="4.799959" ry="2.699977" transform="matrix(.94320798 -.33220281 .33220281 .94320798 -10.431084 4.789801)"/><path d="m6.9.4 1.5 3 3.3.5-2.4 2.3.5 3.2-2.9-1.5-2.9 1.5.5-3.2-2.3-2.3 3.2-.5z" fill="#f9a908"/><path d="m15.3 8.1 1.5 3 3.3.5-2.4 2.3.6 3.2-3-1.5-2.9 1.5.6-3.2-2.4-2.3 3.3-.5z" fill="#aad6c3"/><path d="m44.4 13.8 3.2 1.1 2.6-2v3.3l2.7 1.9-3.2 1-1 3.2-1.9-2.7h-3.3l2-2.6z" fill="#aad6c3"/><path d="m51.8 39.7 3.1 1 2.7-1.9-.1 3.3 2.7 1.9-3.1 1-1 3.1-1.9-2.7-3.4.1 2-2.7z" fill="#f7910b"/><g transform="translate(23 37)"><path d="m15.4 1.4c0 2.6-3.3 4.7-7.4 4.7s-7.4-2.1-7.4-4.7" fill="#f7910b"/><path d="m15 2h-14c-.6 0-1-.4-1-1s.4-1 1-1h14c.6 0 1 .4 1 1s-.4 1-1 1z" fill="#02243e"/></g></g></svg>