<svg height="58" viewBox="0 0 62 58" width="62" xmlns="http://www.w3.org/2000/svg"><g fill="none"><g transform="translate(4 2)"><path d="m14.6 16.7h-.2c-4.8-.3-9.2-5.3-9.9-11.2-.2-1.9 0-3.6.5-5.1-2.1 1.5-3.8 3.8-4.5 6.6-1.5 5.6 1.1 11.1 5.8 12.4 3 .7 6.1-.4 8.3-2.7z" fill="#ed1841"/><path d="m39.4 16.7h.2c4.8-.3 9.2-5.3 9.9-11.2.2-1.9 0-3.6-.5-5.1 2.1 1.4 3.8 3.7 4.5 6.6 1.5 5.6-1.2 11.1-5.9 12.3-2.9.8-6-.3-8.2-2.6z" fill="#c1053a"/></g><path d="m61.3 34.5c0 13-11.9 23.5-30.3 23.5s-30.3-10.5-30.3-23.5 11.9-32.5 30.3-32.5 30.3 19.5 30.3 32.5z" fill="#ed1841"/><path d="m61.3 34.5c0 13-11.9 19.5-30.3 19.5s-30.3-6.5-30.3-19.5 11.9-34.5 30.3-34.5 30.3 21.5 30.3 34.5z" fill="#ed1841"/><path d="m31 0c18.4 0 30.3 21.5 30.3 34.5s-11.9 19.5-30.3 19.5" fill="#fc4777"/><path d="m61.3 34.5c0 13-11.9 19.5-30.3 19.5s-30.3-6.5-30.3-19.5 11.9-32.5 30.3-32.5 30.3 19.5 30.3 32.5z" fill="#fc4777"/><path d="m.7 34.5c0-13 11.9-32.5 30.3-32.5" fill="#f98a9f"/><path d="m31 2c18.4 0 30.3 19.5 30.3 32.5s-11.9 23.5-30.3 23.5" fill="#ed1841"/><path d="m31 2c18.4 0 30.3 19.5 30.3 32.5" fill="#c1053a"/><g transform="translate(9 26)"><g fill="#c1053a"><circle cx="11.6" cy="4.8" r="3.2"/><circle cx="32.4" cy="4.8" r="3.2"/></g><circle cx="11.6" cy="3.9" fill="#1e4784" r="3.2"/><path d="m11.6.7c1.8 0 3.2 1.4 3.2 3.2s-1.4 3.2-3.2 3.2" fill="#00233f"/><circle cx="32.4" cy="3.9" fill="#1e4784" r="3.2"/><path d="m32.4.7c1.8 0 3.2 1.4 3.2 3.2s-1.4 3.2-3.2 3.2" fill="#00233f"/><g transform="translate(0 7)"><path d="m17.4 3.1c0 1.3-3.8.8-8.6.8-4.7 0-8.6.5-8.6-.8s3.8-2.4 8.6-2.4 8.6 1.1 8.6 2.4z" fill="#f98a9f"/><path d="m43.8 3.1c0 1.3-3.8.8-8.6.8s-8.6.5-8.6-.8 3.8-2.4 8.6-2.4 8.6 1.1 8.6 2.4z" fill="#ff5069"/></g></g><circle cx="9.3" cy="31.5" fill="#f98a9f" r="1"/><circle cx="4.8" cy="33.5" fill="#f98a9f" r="1.1"/><circle cx="7.8" cy="29.5" fill="#f98a9f" r="1"/><circle cx="12.4" cy="31.3" fill="#f98a9f" r="1"/><g fill="#fc4777"><circle cx="51.6" cy="31.8" r="1"/><circle cx="54.1" cy="33.2" r="1"/><circle cx="48.8" cy="24.4" r="1"/><circle cx="43.9" cy="23.3" r="1.3"/><circle cx="55.5" cy="36.1" r="1"/></g><circle cx="8.3" cy="35.5" fill="#f98a9f" r="1"/><circle cx="9.1" cy="27.1" fill="#f98a9f" r="1"/><circle cx="3.8" cy="4" fill="#fc4777" r="1.1"/><circle cx="11.1" cy="5.7" fill="#fc4777" r="1"/><circle cx="58.2" cy="15.7" fill="#ed1841" r="1"/><circle cx="48.4" cy="3" fill="#ed1841" r="1"/><circle cx="57.1" cy="2.1" fill="#ed1841" r="1"/><circle cx="11.3" cy=".6" fill="#fc4777" r="1"/><g transform="translate(19 38)"><path d="m19.4 9.4c0 2.6-3.3 7.3-7.4 7.3s-7.4-4.7-7.4-7.3" fill="#ed1841"/><path d="m23.9.5c0 6.8-5.3 12.3-11.9 12.3s-11.9-5.5-11.9-12.3" fill="#1e4784"/><path d="m23.9.5c0 2.3-5.3 4.1-11.9 4.1s-11.9-1.8-11.9-4.1" fill="#00233f"/><path d="m12 12.8c3.7 0 6.9-1.7 9.1-4.4-1.3-1.5-3.3-2.5-5.5-2.5-1.3 0-2.6.4-3.6 1-1.1-.6-2.3-1-3.6-1-2.2 0-4.1 1-5.5 2.5 2.2 2.7 5.4 4.4 9.1 4.4z" fill="#f98a9f"/></g><g fill="#7a0b0b" transform="translate(17 20)"><path d="m.5 1.7c-.7 1.5 1.4 2.1 3.5 3.7 2.1 1.7 3.5 3.8 4.2 2.2.7-1.5-.4-4.1-2.6-5.8-2-1.5-4.4-1.6-5.1-.1z"/><path d="m27.5 1.7c.7 1.5-1.4 2.1-3.5 3.7-2.1 1.7-3.5 3.8-4.2 2.2-.7-1.5.4-4.1 2.6-5.8 2-1.5 4.4-1.6 5.1-.1z"/></g></g></svg>