<?xml version="1.0" encoding="UTF-8"?>
<svg width="62px" height="60px" viewBox="0 0 62 60" version="1.1" xmlns="http://www.w3.org/2000/svg" xmlns:xlink="http://www.w3.org/1999/xlink">
    <!-- Generator: Sketch 43.1 (39012) - http://www.bohemiancoding.com/sketch -->
    <title>imgly_sticker_emoticons_wave</title>
    <desc>Created with Sketch.</desc>
    <defs></defs>
    <g id="Page-1" stroke="none" stroke-width="1" fill="none" fill-rule="evenodd">
        <g id="wave" transform="translate(-1.000000, 0.000000)" fill-rule="nonzero">
            <ellipse id="Oval" fill="#EA7103" transform="translate(11.603740, 50.798520) rotate(-15.884795) translate(-11.603740, -50.798520) " cx="11.60374" cy="50.79852" rx="8.79987209" ry="8.49987645"></ellipse>
            <g id="Group" transform="translate(1.000000, 0.000000)">
                <g>
                    <path d="M61.3,35.2 C61.3,48.2 49.4,58.7 31,58.7 C12.6,58.7 0.7,48.2 0.7,35.2 C0.7,22.2 12.6,2.7 31,2.7 C49.4,2.7 61.3,22.2 61.3,35.2 Z" id="Shape" fill="#F7910B"></path>
                    <path d="M61.3,35.2 C61.3,48.2 49.4,54.7 31,54.7 C12.6,54.7 0.7,48.2 0.7,35.2 C0.7,22.2 12.6,0.7 31,0.7 C49.4,0.7 61.3,22.2 61.3,35.2 Z" id="Shape" fill="#F7910B"></path>
                    <path d="M31,0.7 C49.4,0.7 61.3,22.2 61.3,35.2 C61.3,48.2 49.4,54.7 31,54.7" id="Shape" fill="#F9A908"></path>
                    <path d="M61.3,35.2 C61.3,48.2 49.4,54.7 31,54.7 C12.6,54.7 0.7,48.2 0.7,35.2 C0.7,22.2 12.6,2.7 31,2.7 C49.4,2.7 61.3,22.2 61.3,35.2 Z" id="Shape" fill="#F9A908"></path>
                    <path d="M0.7,35.2 C0.7,22.2 12.6,2.7 31,2.7" id="Shape" fill="#F9C55D"></path>
                    <path d="M31,2.7 C49.4,2.7 61.3,22.2 61.3,35.2 C61.3,48.2 49.4,58.7 31,58.7" id="Shape" fill="#F7910B"></path>
                    <path d="M31,2.7 C49.4,2.7 61.3,22.2 61.3,35.2" id="Shape" fill="#EA7103"></path>
                    <g transform="translate(17.000000, 19.000000)">
                        <circle id="Oval" fill="#EA7103" cx="3.6" cy="4.4" r="3.2"></circle>
                        <circle id="Oval" fill="#EA7103" cx="24.4" cy="4.4" r="3.2"></circle>
                        <circle id="Oval" fill="#1E4784" cx="3.6" cy="3.5" r="3.2"></circle>
                        <path d="M3.6,0.3 C5.4,0.3 6.8,1.7 6.8,3.5 C6.8,5.3 5.4,6.7 3.6,6.7" id="Shape" fill="#00233F"></path>
                        <circle id="Oval" fill="#1E4784" cx="24.4" cy="3.5" r="3.2"></circle>
                        <path d="M24.4,0.3 C26.2,0.3 27.6,1.7 27.6,3.5 C27.6,5.3 26.2,6.7 24.4,6.7" id="Shape" fill="#00233F"></path>
                    </g>
                    <g transform="translate(18.000000, 8.000000)" id="Shape">
                        <g fill="#19BCA4">
                            <path d="M6.7,1.8 C6.7,2.7 5.3,2.3 3.4,2.4 C1.6,2.5 0.1,3 0.1,2.1 C0.1,1.2 1.5,0.5 3.3,0.4 C5.2,0.2 6.7,0.9 6.7,1.8 Z"></path>
                            <path d="M19.3,1.8 C19.3,2.7 20.7,2.3 22.6,2.4 C24.4,2.5 25.9,3 25.9,2.1 C25.9,1.2 24.5,0.5 22.7,0.4 C20.8,0.2 19.3,0.9 19.3,1.8 Z"></path>
                        </g>
                        <g transform="translate(0.000000, 1.000000)" fill="#109DA0">
                            <path d="M6.7,0.8 C6.7,1.7 5.3,1.3 3.4,1.4 C1.6,1.5 0.1,2 0.1,1.1"></path>
                            <path d="M19.3,0.8 C19.3,1.7 20.7,1.3 22.6,1.4 C24.4,1.5 25.9,2 25.9,1.1"></path>
                        </g>
                    </g>
                    <g transform="translate(11.000000, 26.000000)" id="Shape">
                        <path d="M15.8,2.5 C15.8,3.7 12.3,3.2 8,3.2 C3.7,3.2 0.2,3.8 0.2,2.5 C0.2,1.3 3.7,0.3 8,0.3 C12.3,0.3 15.8,1.3 15.8,2.5 Z" fill="#F9C55D"></path>
                        <path d="M39.8,2.5 C39.8,3.7 36.3,3.2 32,3.2 C27.7,3.2 24.2,3.8 24.2,2.5 C24.2,1.3 27.7,0.3 32,0.3 C36.3,0.3 39.8,1.3 39.8,2.5 Z" fill="#F9A908"></path>
                    </g>
                    <g transform="translate(16.000000, 29.000000)" id="Shape">
                        <path d="M21.7,6.8 C21.7,9.2 18.7,13.4 15,13.4 C11.3,13.4 8.3,9.1 8.3,6.8" fill="#F7910B"></path>
                        <g fill="#02243E">
                            <path d="M1.3,4.8 C0.7,4.8 0.3,4.4 0.3,3.8 C0.3,3.2 0.7,2.8 1.3,2.8 C2.1,2.8 2.7,2.2 2.7,1.4 C2.7,0.8 3.1,0.4 3.7,0.4 C4.3,0.4 4.7,0.8 4.7,1.4 C4.8,3.3 3.2,4.8 1.3,4.8 Z"></path>
                            <path d="M28.7,4.8 C26.8,4.8 25.3,3.3 25.3,1.4 C25.3,0.8 25.7,0.4 26.3,0.4 C26.9,0.4 27.3,0.8 27.3,1.4 C27.3,2.2 27.9,2.8 28.7,2.8 C29.3,2.8 29.7,3.2 29.7,3.8 C29.7,4.4 29.2,4.8 28.7,4.8 Z"></path>
                        </g>
                        <path d="M15,9.3 C10.2,9.3 5.7,7.4 2.3,4.1 C1.9,3.7 1.9,3.1 2.3,2.7 C2.7,2.3 3.3,2.3 3.7,2.7 C6.7,5.7 10.7,7.4 15,7.4 C19.3,7.4 23.2,5.7 26.3,2.7 C26.7,2.3 27.3,2.3 27.7,2.7 C28.1,3.1 28.1,3.7 27.7,4.1 C24.3,7.5 19.8,9.3 15,9.3 Z" fill="#02243E"></path>
                    </g>
                    <path d="M36.3,33.3 C36.3,34.4 33.9,35.4 31,35.4 C28.1,35.4 25.7,34.5 25.7,33.3" id="Shape" fill="#F9C55D"></path>
                    <circle id="Oval" fill="#F7910B" cx="9.3" cy="32.2" r="1"></circle>
                    <circle id="Oval" fill="#F7910B" cx="4.8" cy="34.2" r="1.1"></circle>
                    <circle id="Oval" fill="#F7910B" cx="7.8" cy="30.2" r="1"></circle>
                    <circle id="Oval" fill="#F7910B" cx="12.4" cy="32" r="1"></circle>
                    <circle id="Oval" fill="#F9A908" cx="51.6" cy="32.5" r="1"></circle>
                    <circle id="Oval" fill="#F9A908" cx="54.1" cy="33.9" r="1"></circle>
                    <circle id="Oval" fill="#F9A908" cx="48.8" cy="25.1" r="1"></circle>
                    <circle id="Oval" fill="#F9A908" cx="48.3" cy="36.7" r="1.3"></circle>
                    <circle id="Oval" fill="#F9A908" cx="55.5" cy="36.8" r="1"></circle>
                    <circle id="Oval" fill="#F7910B" cx="8.3" cy="36.2" r="1"></circle>
                    <circle id="Oval" fill="#F7910B" cx="9.1" cy="27.8" r="1"></circle>
                    <circle id="Oval" fill="#F9A908" cx="3.8" cy="14" r="1.1"></circle>
                    <circle id="Oval" fill="#F9A908" cx="7" cy="10.5" r="1"></circle>
                    <circle id="Oval" fill="#F9A908" cx="58.2" cy="16.4" r="1"></circle>
                    <circle id="Oval" fill="#F9A908" cx="57.4" cy="13.5" r="1"></circle>
                    <circle id="Oval" fill="#F9A908" cx="60" cy="14" r="1"></circle>
                    <circle id="Oval" fill="#F9A908" cx="5" cy="17" r="1"></circle>
                </g>
                <g transform="translate(0.000000, 32.000000)">
                    <g id="Shape">
                        <path d="M13,8 C15.9,13.8 13.8,13 12.2,13.8 C10.5,14.6 9.9,16.8 7,11 C4.1,5.2 4.3,2.2 6,1.4 C7.6,0.6 10.1,2.2 13,8 Z" fill="#CCF2E3"></path>
                        <path d="M5.9,1.4 C7.6,0.6 10.1,2.2 13,8 C15.9,13.8 13.8,13 12.2,13.8" fill="#AAD6C3"></path>
                        <path d="M8.8,14.5 C11.7,20.3 9.6,19.5 7.9,20.3 C6.2,21.1 6,24.1 3.1,18.3 C0.2,12.5 0.1,8.7 1.7,7.9 C3.4,7.1 5.9,8.7 8.8,14.5 Z" fill="#CCF2E3"></path>
                        <path d="M1.7,7.9 C3.4,7.1 5.9,8.7 8.7,14.5 C11.6,20.3 9.5,19.5 7.8,20.3" fill="#AAD6C3"></path>
                        <path d="M20.2,7.4 C23.1,13.2 21,12.4 19.4,13.2 C17.7,14 17.1,16.2 14.2,10.4 C11.3,4.6 11.5,1.6 13.2,0.8 C14.8,1.66533454e-15 17.3,1.6 20.2,7.4 Z" fill="#CCF2E3"></path>
                        <path d="M13.1,0.8 C14.8,1.99840144e-15 17.3,1.6 20.2,7.4 C23.1,13.2 21,12.4 19.4,13.2" fill="#AAD6C3"></path>
                        <path d="M22.1,11.2 C24.8,16.5 24.2,22.4 18.8,25.1 C13.4,27.8 6.9,25.7 4.2,20.3 C1.5,15 4.9,10.8 10.3,8.1 C15.7,5.5 19.4,5.9 22.1,11.2 Z" fill="#CCF2E3"></path>
                        <path d="M22.1,11.2 C24.8,16.5 24.2,22.4 18.8,25.1 C13.4,27.8 9.4,23.9 6.7,18.5 C4,13.3 1.8,13.1 10,8.3 C15.3,5.3 19.3,5.7 22.1,11.2 Z" fill="#AAD6C3"></path>
                        <path d="M25.1,8.7 C27.1,9.6 26.9,14.3 24.6,19.2 C22.4,24.1 18.3,25.9 16.3,25 C14.3,24.1 15.2,20.8 17.4,15.9 C19.7,11 23.1,7.8 25.1,8.7 Z" fill="#CCF2E3"></path>
                        <path d="M25.1,8.7 C27.1,9.6 26.9,14.3 24.6,19.2 C22.4,24.1 18.3,25.9 16.3,25" fill="#AAD6C3"></path>
                    </g>
                    <path d="M17,8.9 C17.1,9.1 17.1,9.3 17,9.4 L8.8,16.8 C8.6,16.9 8.4,16.9 8.3,16.8 L8.3,16.8 C8.2,16.6 8.2,16.4 8.3,16.3 L16.5,8.9 C16.6,8.8 16.9,8.8 17,8.9 L17,8.9 Z" id="Shape" fill="#CCF2E3"></path>
                    <path d="M17.9,11.1 C18,11.3 18,11.5 17.9,11.6 L9.7,19 C9.5,19.1 9.3,19.1 9.2,19 L9.2,19 C9.1,18.8 9.1,18.6 9.2,18.5 L17.4,11.1 C17.5,10.9 17.7,11 17.9,11.1 L17.9,11.1 Z" id="Shape" fill="#CCF2E3"></path>
                    <path d="M5.2,4.1 C5.2,5 5.5,5.7 5.8,5.7 C6.1,5.7 6.3,4.9 6.3,4 C6.3,3.1 6,2.4 5.7,2.4 C5.4,2.4 5.2,3.2 5.2,4.1 Z" id="Shape" fill="#E7F7EF"></path>
                    <ellipse id="Oval" fill="#E7F7EF" transform="translate(1.589701, 11.024540) rotate(178.291086) translate(-1.589701, -11.024540) " cx="1.58970095" cy="11.02454" rx="1" ry="1.70007614"></ellipse>
                    <ellipse id="Oval" fill="#E7F7EF" transform="translate(13.074234, 3.546537) rotate(178.342949) translate(-13.074234, -3.546537) " cx="13.0742341" cy="3.54653661" rx="1" ry="1.70003092"></ellipse>
                    <path d="M5.5,18 C6.4,19.7 6.8,21.3 6.4,21.5 C6,21.7 5,20.5 4.1,18.7 C3.2,17 3.3,16.4 3.7,16.2 C4,16 4.6,16.3 5.5,18 Z" id="Shape" fill="#E7F7EF"></path>
                    <path d="M20.4,12.1 C21.3,10.7 22.4,9.8 22.7,10 C23.1,10.2 22.6,11.6 21.7,13 C20.8,14.4 20.3,14.5 19.9,14.3 C19.5,14 19.4,13.5 20.4,12.1 Z" id="Shape" fill="#E7F7EF"></path>
                </g>
            </g>
        </g>
    </g>
</svg>