<?xml version="1.0" encoding="UTF-8"?>
<svg width="64px" height="64px" viewBox="0 0 64 64" version="1.1" xmlns="http://www.w3.org/2000/svg" xmlns:xlink="http://www.w3.org/1999/xlink">
    <!-- Generator: Sketch 43.1 (39012) - http://www.bohemiancoding.com/sketch -->
    <title>imgly_sticker_emoticons_star</title>
    <desc>Created with Sketch.</desc>
    <defs></defs>
    <g id="Page-1" stroke="none" stroke-width="1" fill="none" fill-rule="evenodd">
        <g id="star" fill-rule="nonzero">
            <path d="M63.6,25.6 C63.3,24.6 62.4,23.8 61.3,23.7 L42.8,21 L34.5,4.2 C34,3.2 33,2.6 32,2.6 C30.9,2.6 30,3.2 29.5,4.2 L21.2,21 L2.7,23.6 C1.6,23.8 0.8,24.5 0.4,25.5 C0.1,26.5 0.3,27.6 1.1,28.4 L14.5,41.5 L11.3,59.9 C11.1,61 11.6,62 12.4,62.7 C13.3,63.3 14.4,63.4 15.4,62.9 L32,54.2 L48.6,62.9 C49,63.1 49.5,63.2 49.9,63.2 C50.5,63.2 51.1,63 51.6,62.7 C52.5,62.1 52.9,61 52.7,59.9 L49.5,41.5 L62.9,28.4 C63.6,27.7 63.9,26.6 63.6,25.6 Z" id="Shape" fill="#EA7103"></path>
            <path d="M63.6,23.7 C63.3,22.7 62.4,21.9 61.3,21.8 L42.8,19.1 L34.5,2.4 C34,1.4 33,0.8 32,0.8 C30.9,0.8 30,1.4 29.5,2.4 L21.2,19.2 L2.7,21.8 C1.6,22 0.8,22.7 0.4,23.7 C0.1,24.7 0.3,25.8 1.1,26.6 L14.5,39.7 L11.3,58.1 C11.1,59.2 11.6,60.2 12.4,60.9 C13.3,61.5 14.4,61.6 15.4,61.1 L32,52.4 L48.6,61.1 C49,61.3 49.5,61.4 49.9,61.4 C50.5,61.4 51.1,61.2 51.6,60.9 C52.5,60.3 52.9,59.2 52.7,58.1 L49.5,39.7 L62.9,26.6 C63.6,25.9 63.9,24.7 63.6,23.7 Z" id="Shape" fill="#F9A908"></path>
            <path d="M63.6,23.7 C63.3,22.7 62.4,21.9 61.3,21.8 L42.8,19.1 L34.5,2.4 C34,1.4 33.1,0.8 32,0.8 L31.9,0.8 L31.9,52.4 L32,52.3 L48.5,61 C48.9,61.2 49.3,61.3 49.8,61.3 C50.4,61.3 51,61.1 51.4,60.8 C52.3,60.2 52.7,59.1 52.5,58 L49.3,39.6 L62.7,26.5 C63.6,25.9 63.9,24.7 63.6,23.7 Z" id="Shape" fill="#F7910B"></path>
            <g id="Group" transform="translate(19.000000, 29.000000)">
                <g id="Shape">
                    <path d="M6.9,4.1 C6.6,4 6.3,3.9 6.1,3.6 C5.3,2.4 3.6,2.1 2.4,2.9 C1.8,3.3 1.1,3.1 0.7,2.6 C0.3,2 0.5,1.3 1,0.9 C3.3,-0.7 6.5,-0.1 8.1,2.2 C8.5,2.8 8.3,3.5 7.8,3.9 C7.6,4.1 7.2,4.2 6.9,4.1 Z" fill="#1E4784"></path>
                    <path d="M8.2,2.2 C8.6,2.8 8.4,3.5 7.9,3.9 C7.6,4.1 7.3,4.2 7,4.1 C6.7,4 6.4,3.9 6.2,3.6 C5.4,2.4 3.7,2.1 2.5,2.9 C1.9,3.3 1.2,3.1 0.8,2.6 C0.4,2 0.6,1.3 1.1,0.9" fill="#02243E"></path>
                </g>
                <g transform="translate(17.000000, 0.000000)" id="Shape">
                    <path d="M2.1,4.1 C2.4,4 2.7,3.9 2.9,3.6 C3.7,2.4 5.4,2.1 6.6,2.9 C7.2,3.3 7.9,3.1 8.3,2.6 C8.7,2 8.5,1.3 8,0.9 C5.7,-0.7 2.5,-0.1 0.9,2.2 C0.5,2.8 0.7,3.5 1.2,3.9 C1.4,4.1 1.8,4.2 2.1,4.1 Z" fill="#1E4784"></path>
                    <path d="M0.8,2.2 C0.4,2.8 0.6,3.5 1.1,3.9 C1.4,4.1 1.7,4.2 2,4.1 C2.3,4 2.6,3.9 2.8,3.6 C3.6,2.4 5.3,2.1 6.5,2.9 C7.1,3.3 7.8,3.1 8.2,2.6 C8.6,2 8.4,1.3 7.9,0.9" fill="#02243E"></path>
                </g>
            </g>
            <g id="Group" transform="translate(23.000000, 36.000000)">
                <path d="M17.2,0.7 C17.2,5.8 13.5,9.9 9,9.9 C4.5,9.9 0.8,5.8 0.8,0.7" id="Shape" fill="#C42260"></path>
                <path d="M17.2,0.7 C17.2,2.4 13.5,3.8 9,3.8 C4.5,3.8 0.8,2.4 0.8,0.7" id="Shape" fill="#99144A"></path>
                <path d="M9,9.9 C11.5,9.9 13.8,8.6 15.3,6.6 C14.4,5.4 13,4.7 11.5,4.7 C10.6,4.7 9.7,5 9,5.4 C8.3,4.9 7.4,4.7 6.5,4.7 C5,4.7 3.6,5.4 2.7,6.6 C4.2,8.6 6.5,9.9 9,9.9 Z" id="Shape" fill="#E2446E"></path>
            </g>
            <circle id="Oval" fill="#F7910B" cx="9.7" cy="24.9" r="1.7"></circle>
            <circle id="Oval" fill="#F7910B" cx="15.9" cy="23.4" r="1"></circle>
            <circle id="Oval" fill="#F7910B" cx="24.9" cy="21.1" r="1"></circle>
            <circle id="Oval" fill="#F7910B" cx="29.6" cy="9.7" r="1.6"></circle>
            <circle id="Oval" fill="#F7910B" cx="16.1" cy="31.7" r="1"></circle>
            <circle id="Oval" fill="#F7910B" cx="28.3" cy="25.3" r="1.4"></circle>
            <circle id="Oval" fill="#F7910B" cx="18.7" cy="44.4" r="1"></circle>
            <circle id="Oval" fill="#F7910B" cx="20.5" cy="52.8" r="1.2"></circle>
            <circle id="Oval" fill="#F7910B" cx="23.2" cy="48.8" r="1"></circle>
            <circle id="Oval" fill="#F7910B" cx="28.6" cy="49.6" r="1"></circle>
            <circle id="Oval" fill="#F7910B" cx="14.6" cy="57.3" r="1"></circle>
            <circle id="Oval" fill="#F9A908" cx="36.6" cy="21.8" r="1.7"></circle>
            <circle id="Oval" fill="#F9A908" cx="44.4" cy="25.1" r="1"></circle>
            <circle id="Oval" fill="#F9A908" cx="53.1" cy="25.8" r="1"></circle>
            <circle id="Oval" fill="#F9A908" cx="50.8" cy="30.3" r="1.1"></circle>
            <circle id="Oval" fill="#F9A908" cx="45.9" cy="37.2" r="1"></circle>
            <circle id="Oval" fill="#F9A908" cx="41.1" cy="50" r="2.1"></circle>
            <circle id="Oval" fill="#F9A908" cx="44.6" cy="43.3" r="1"></circle>
            <ellipse id="Oval" fill="#F9A908" cx="47.85" cy="55.2" rx="1" ry="1"></ellipse>
            <circle id="Oval" fill="#F9A908" cx="35.4" cy="12.9" r="1"></circle>
            <circle id="Oval" fill="#F9A908" cx="38" cy="15.7" r="1"></circle>
        </g>
    </g>
</svg>