<svg height="58" viewBox="0 0 64 58" width="64" xmlns="http://www.w3.org/2000/svg"><g fill="none"><path d="m62 34.5c0 12.8-11.8 23.2-30 23.2s-30-10.4-30-23.2c0-12.9 11.8-32.1 30-32.1s30 19.2 30 32.1z" fill="#f7910b"/><path d="m62 34.5c0 12.8-11.8 19.3-30 19.3s-30-6.4-30-19.3 11.8-34.1 30-34.1 30 21.2 30 34.1z" fill="#f7910b"/><path d="m32 .4c18.2 0 30 21.3 30 34.1s-11.8 19.3-30 19.3" fill="#f9a908"/><path d="m62 34.5c0 12.8-11.8 19.3-30 19.3s-30-6.4-30-19.3 11.8-32.1 30-32.1 30 19.2 30 32.1z" fill="#f9a908"/><path d="m2 34.5c0-12.9 11.8-32.1 30-32.1" fill="#f9c55d"/><path d="m32 2.4c18.2 0 30 19.3 30 32.1s-11.8 23.2-30 23.2" fill="#f7910b"/><path d="m32 2.4c18.2 0 30 19.3 30 32.1" fill="#ea7103"/><g transform="translate(19 11)"><path d="m6.3 3.9c-.4.7-1.5-.3-3-1.2-1.6-.9-3-1.2-2.6-2 .4-.7 2-.6 3.6.3 1.5.8 2.4 2.1 2 2.9z" fill="#19bca4"/><path d="m6.3 3.9c-.4.7-1.5-.3-3-1.2-1.6-.9-3-1.2-2.6-2" fill="#109da0"/></g><g transform="translate(38 12)"><path d="m.6 4.1c.4.8 1.5-.3 3-1.2 1.6-.9 3-1.2 2.6-1.9s-2-.7-3.6.2c-1.5.8-2.5 2.1-2 2.9z" fill="#19bca4"/><path d="m.6 4.1c.4.8 1.5-.3 3-1.2 1.6-.9 3-1.2 2.6-1.9" fill="#109da0"/></g><g transform="translate(12 25)"><path d="m15.9 2.9c0 1.2-3.5.6-7.7.6-4.3 0-7.7.6-7.7-.6s3.5-2.2 7.7-2.2 7.7.9 7.7 2.2z" fill="#f9c55d"/><path d="m39.5 2.9c0 1.2-3.5.6-7.7.6-4.3 0-7.7.6-7.7-.6s3.4-2.2 7.7-2.2 7.7.9 7.7 2.2z" fill="#f9a908"/></g><path d="m26.8 32.7c0-2.3 2.3-4.2 5.2-4.2s5.2 1.9 5.2 4.2" fill="#f9c55d"/><circle cx="10.6" cy="31.5" fill="#f7910b" r="1"/><circle cx="6.2" cy="33.4" fill="#f7910b" r="1.1"/><circle cx="9.1" cy="29.5" fill="#f7910b" r="1"/><circle cx="13.6" cy="31.3" fill="#f7910b" r="1"/><circle cx="52.3" cy="31.8" fill="#f9a908" r="1"/><circle cx="54.8" cy="33.2" fill="#f9a908" r="1"/><circle cx="49.5" cy="24.5" fill="#f9a908" r="1"/><circle cx="49.1" cy="36" fill="#f9a908" r="1.3"/><circle cx="56.2" cy="36" fill="#f9a908" r="1"/><circle cx="9.6" cy="35.4" fill="#f7910b" r="1"/><circle cx="10.4" cy="27.1" fill="#f7910b" r="1"/><g fill="#f9a908"><circle cx="5.2" cy="13.6" r="1.1"/><circle cx="8.3" cy="10" r="1"/><circle cx="58.9" cy="15.9" r="1"/><circle cx="58.1" cy="13" r="1"/><circle cx="60.6" cy="13.6" r="1"/><circle cx="6.3" cy="16.5" r="1"/></g><g transform="translate(16 19)"><path d="m9.6 5c-.4 0-.8-.1-1.2-.4-1.5-1.2-3.8-1-5 .5-.6.7-1.6.8-2.3.2s-.8-1.6-.2-2.3c2.4-2.9 6.7-3.4 9.6-1 .7.6.8 1.6.2 2.3-.3.5-.7.7-1.1.7z" fill="#1e4784"/><path d="m10.4 2.2c.7.6.8 1.6.2 2.3-.2.3-.6.5-1 .5s-.8-.1-1.2-.4c-1.5-1.2-3.8-1-5 .5-.6.7-1.6.8-2.3.2s-.8-1.6-.2-2.3" fill="#02243e"/></g><g transform="translate(36 19)"><path d="m2.4 5c.4 0 .8-.1 1.2-.4 1.5-1.2 3.8-1 5 .5.6.7 1.6.8 2.3.2s.8-1.6.2-2.3c-2.4-2.9-6.7-3.4-9.6-1-.7.6-.8 1.6-.2 2.3.3.5.7.7 1.1.7z" fill="#1e4784"/><path d="m1.6 2.2c-.7.6-.8 1.6-.2 2.3.3.4.7.6 1.1.6s.8-.1 1.2-.4c1.5-1.2 3.8-1 5 .5.6.7 1.6.8 2.3.2s.8-1.6.2-2.3" fill="#02243e"/></g><g transform="translate(5 21)"><path d="m6.3 7.8 8.3-3.5-8.2-3.5c-.5-.2-1-.3-1.6-.3-2.1 0-3.8 1.7-3.8 3.8s1.7 3.8 3.8 3.8c.5.1 1 0 1.5-.3z" fill="#19daf4"/><path d="m.9 4.4c0 2.1 1.7 3.8 3.8 3.8.6 0 1.1-.1 1.6-.3l8.2-3.5" fill="#0eb2cc"/></g><g transform="translate(0 31)"><path d="m6.6 7 5.1-6.2-8 .7c-.5 0-.9.2-1.4.4-1.7.9-2.3 3-1.4 4.6.9 1.7 3 2.3 4.6 1.4.5-.2.8-.5 1.1-.9z" fill="#19daf4"/><path d="m.9 6.5c.9 1.7 3 2.3 4.6 1.4.5-.2.8-.5 1.1-.9l5-6.2" fill="#0eb2cc"/></g><g transform="translate(5 38)"><path d="m6.7 7.2-1.1-6.9-4.2 5.6c-.2.3-.4.7-.5 1.1-.4 1.6.6 3.2 2.2 3.6s3.2-.6 3.6-2.2c.1-.4.1-.8 0-1.2z" fill="#19daf4"/><path d="m3.1 10.6c1.6.4 3.2-.6 3.6-2.2.1-.4.1-.9 0-1.3l-1.1-6.9" fill="#0eb2cc"/></g><g transform="translate(44 21)"><path d="m8.7 7.8-8.3-3.5 8.2-3.5c.5-.2 1-.3 1.6-.3 2.1 0 3.8 1.7 3.8 3.8s-1.7 3.8-3.8 3.8c-.5.1-1 0-1.5-.3z" fill="#0eb2cc"/><path d="m14.1 4.4c0 2.1-1.7 3.8-3.8 3.8-.6 0-1.1-.1-1.6-.3l-8.2-3.5" fill="#19daf4"/></g><g transform="translate(52 31)"><path d="m5.4 7-5.1-6.2 8 .7c.5 0 .9.2 1.4.4 1.7.9 2.3 3 1.4 4.6-.9 1.7-3 2.3-4.6 1.4-.5-.2-.8-.5-1.1-.9z" fill="#0eb2cc"/><path d="m11.1 6.5c-.9 1.7-3 2.3-4.6 1.4-.4-.2-.8-.6-1.1-.9l-5-6.2" fill="#19daf4"/></g><g transform="translate(52 38)"><path d="m.3 7.2 1.1-6.9 4.2 5.6c.3.3.5.7.6 1.1.4 1.6-.6 3.2-2.2 3.6s-3.2-.6-3.6-2.2c-.2-.4-.2-.8-.1-1.2z" fill="#0eb2cc"/><path d="m3.9 10.6c-1.6.4-3.2-.6-3.6-2.2-.1-.4-.1-.9 0-1.3l1.1-6.9" fill="#19daf4"/></g><g transform="translate(17 28)"><path d="m22.3 15.5c0 2.6-3.3 4.6-7.3 4.6s-7.3-2.1-7.3-4.6" fill="#f7910b"/><path d="m.4 17.2c0-9 6.5-16.3 14.6-16.3s14.6 7.3 14.6 16.3" fill="#c42260"/><path d="m.4 17.2c0-3 6.5-5.5 14.6-5.5s14.6 2.5 14.6 5.5" fill="#e2446e"/><path d="m15 .8c-4.5 0-8.5 2.3-11.2 5.8 1.7 2.1 4.1 3.4 6.7 3.4 1.6 0 3.1-.5 4.5-1.3 1.3.8 2.8 1.3 4.5 1.3 2.7 0 5.1-1.3 6.7-3.4-2.7-3.5-6.7-5.8-11.2-5.8z" fill="#99144a"/></g><circle cx="51.6" cy="5.8" fill="#19daf4" r="1.3"/><circle cx="54.2" cy="10.3" fill="#19daf4" r="1"/><circle cx="57.3" cy="2.3" fill="#19daf4" r="2"/><circle cx="7.3" cy="6.2" fill="#19daf4" r="2.3"/><circle cx="10.8" cy="18.7" fill="#19daf4" r="1"/><circle cx="11.2" cy="14" fill="#19daf4" r="1.4"/></g></svg>