<svg height="60" viewBox="0 0 62 60" width="62" xmlns="http://www.w3.org/2000/svg"><g fill="none"><g transform="translate(0 1)"><path d="m61.3 34.8c0 13-11.9 23.5-30.3 23.5s-30.3-10.5-30.3-23.5 11.9-32.5 30.3-32.5 30.3 19.5 30.3 32.5z" fill="#f7910b"/><path d="m61.3 34.8c0 13-11.9 19.5-30.3 19.5s-30.3-6.5-30.3-19.5 11.9-34.5 30.3-34.5 30.3 21.5 30.3 34.5z" fill="#f7910b"/><path d="m31 .3c18.4 0 30.3 21.5 30.3 34.5s-11.9 19.5-30.3 19.5" fill="#f9a908"/><path d="m61.3 34.8c0 13-11.9 19.5-30.3 19.5s-30.3-6.5-30.3-19.5 11.9-32.5 30.3-32.5 30.3 19.5 30.3 32.5z" fill="#f9a908"/><path d="m.7 34.8c0-13 11.9-32.5 30.3-32.5" fill="#f9c55d"/><path d="m31 2.3c18.4 0 30.3 19.5 30.3 32.5s-11.9 23.5-30.3 23.5" fill="#f7910b"/><path d="m31 2.3c18.4 0 30.3 19.5 30.3 32.5" fill="#ea7103"/><g transform="translate(18 11)"><path d="m6.9 1.2c.3.8-1.2.9-2.9 1.6-1.7.6-2.9 1.6-3.2.8s.8-2 2.5-2.6c1.6-.8 3.2-.6 3.6.2z" fill="#19bca4"/><path d="m6.9 1.2c.3.8-1.2.9-2.9 1.6-1.7.6-2.9 1.6-3.2.8" fill="#109da0"/></g><g transform="translate(37 11)"><path d="m.1 1.2c-.3.8 1.2.9 2.9 1.6 1.7.6 2.9 1.6 3.2.8s-.8-2-2.5-2.6c-1.6-.8-3.2-.6-3.6.2z" fill="#19bca4"/><path d="m.1 1.2c-.3.8 1.2.9 2.9 1.6 1.7.6 2.9 1.6 3.2.8" fill="#109da0"/></g><g transform="translate(11 25)"><path d="m15.8 3.1c0 1.2-3.5.7-7.8.7s-7.8.6-7.8-.7c0-1.2 3.5-2.2 7.8-2.2s7.8.9 7.8 2.2z" fill="#f9c55d"/><path d="m39.8 3.1c0 1.2-3.5.7-7.8.7s-7.8.6-7.8-.7c0-1.2 3.5-2.2 7.8-2.2s7.8.9 7.8 2.2z" fill="#f9a908"/></g><ellipse cx="9.3" cy="31.7" fill="#f7910b" rx="1" ry="1"/><ellipse cx="4.8" cy="33.7" fill="#f7910b" rx="1.1" ry="1.1"/><circle cx="7.8" cy="29.7" fill="#f7910b" r="1"/><circle cx="12.4" cy="31.5" fill="#f7910b" r="1"/><circle cx="51.6" cy="32.1" fill="#f9a908" r="1"/><circle cx="54.1" cy="33.5" fill="#f9a908" r="1"/><circle cx="48.8" cy="24.6" fill="#f9a908" r="1"/><ellipse cx="48.3" cy="36.3" fill="#f9a908" rx="1.3" ry="1.3"/><circle cx="55.5" cy="36.3" fill="#f9a908" r="1"/><circle cx="8.3" cy="35.8" fill="#f7910b" r="1"/><circle cx="9.1" cy="27.3" fill="#f7910b" r="1"/><g fill="#f9a908"><circle cx="3.8" cy="13.6" r="1.1"/><ellipse cx="7" cy="10" rx="1" ry="1"/><circle cx="58.2" cy="16" r="1"/><ellipse cx="57.4" cy="13" rx="1" ry="1"/><circle cx="60" cy="13.6" r="1"/><ellipse cx="5" cy="16.5" rx="1" ry="1"/></g><g transform="translate(37 18)"><path d="m2.2.9c.4.1.8.3 1.1.7 1.1 1.6 3.4 2 5 .9.8-.5 1.8-.3 2.3.4s.3 1.8-.4 2.3c-3.1 2.2-7.4 1.4-9.6-1.8-.5-.7-.3-1.8.4-2.3.4-.2.8-.3 1.2-.2z" fill="#1e4784"/><path d="m.6 3.4c-.5-.7-.3-1.8.4-2.3.4-.3.8-.3 1.2-.3.4.1.8.3 1.1.7 1.1 1.6 3.4 2 5 .9.8-.5 1.8-.3 2.3.4s.3 1.8-.4 2.3" fill="#02243e"/></g><g transform="translate(14 18)"><path d="m8.9.9c-.4.1-.8.3-1.1.7-1.1 1.6-3.4 2-5 .9-.8-.5-1.8-.3-2.3.4s-.3 1.8.4 2.3c3.1 2.2 7.4 1.4 9.6-1.8.5-.7.3-1.8-.4-2.3-.3-.2-.7-.3-1.2-.2z" fill="#1e4784"/><path d="m10.6 3.4c.5-.7.3-1.8-.4-2.3-.4-.3-.8-.3-1.2-.3-.4.1-.8.3-1.1.7-1.1 1.6-3.4 2-5 .9-.8-.5-1.8-.3-2.3.4-.5.7-.3 1.8.4 2.3" fill="#02243e"/></g></g><path d="m48.2 13.6 6.6-9.5h-6v-2.6h10v1.8l-6.4 9.3v.1h6.5v2.6h-10.7z" fill="#9011bf"/><path d="m40.1 8.7 3.4-4.8h-3v-1.4h5.1v.9l-3.3 4.8h3.3v1.3h-5.5z" fill="#bd45f4"/><path d="m4.8 8.9 4.4-6.4h-4v-1.8h6.8v1.3l-4.3 6.3v.1h4.3v1.7h-7.2z" fill="#bd45f4"/><path d="m10 17.9 2.6-3.8h-2.4v-1h4v.7l-2.6 3.7h2.6v1h-4.2z" fill="#9011bf"/><g transform="translate(23 27)"><path d="m15.4 5.4c0 2.6-3.3 4.7-7.4 4.7s-7.4-2.1-7.4-4.7" fill="#f7910b"/><path d="m15.7 4.1c0 2.3-3.4 3.2-7.6 3.2s-7.6-.9-7.6-3.2c0-2.3 3.4-3.5 7.6-3.5s7.6 1.1 7.6 3.5z" fill="#c42260"/><path d="m15.5 4.7c-.9-.1-1.9-.2-3-.2-1.6 0-3.2.2-4.5.4-1.3-.3-2.9-.4-4.5-.4-1 0-2 .1-3 .2.6 1.8 3.7 2.6 7.5 2.6s7-.8 7.5-2.6z" fill="#e2446e"/><path d="m15.4 3c-.9-1.6-3.8-2.4-7.3-2.4s-6.4.8-7.3 2.4z" fill="#99144a"/><path d="m10.3 7.2s3.3-2.7 4.9-2.2c0 0 1.4.3 1.3 2.8v10.5s.2 2.6-1.4 2.3c-1.7-.4-1.4-10.4-1.4-10.4s-1.3 1.6-1.4.2c-.1-2.4-2-3.2-2-3.2z" fill="#5dd6e2"/><path d="m15.2 5s1.4.3 1.3 2.8v10.5s.2 2.6-1.4 2.3" fill="#0eb2cc"/></g></g></svg>