<svg height="63" viewBox="0 0 60 63" width="60" xmlns="http://www.w3.org/2000/svg"><g fill="none"><g transform="translate(0 4)"><path d="m59.5 33.5c0 12.6-11.6 22.9-29.5 22.9s-29.5-10.2-29.5-22.9 11.6-31.6 29.5-31.6 29.5 19 29.5 31.6z" fill="#f7910b"/><path d="m59.5 33.5c0 12.6-11.6 19-29.5 19s-29.5-6.3-29.5-19 11.6-33.5 29.5-33.5 29.5 20.9 29.5 33.5z" fill="#f7910b"/><path d="m30 0c17.9 0 29.5 20.9 29.5 33.6s-11.6 19-29.5 19" fill="#f9a908"/><path d="m59.5 33.5c0 12.6-11.6 19-29.5 19s-29.5-6.3-29.5-19 11.6-31.6 29.5-31.6 29.5 19 29.5 31.6z" fill="#f9a908"/><path d="m.5 33.5c0-12.6 11.6-31.6 29.5-31.6" fill="#f9c55d"/><path d="m30 1.9c17.9 0 29.5 19 29.5 31.6s-11.6 22.9-29.5 22.9" fill="#f7910b"/><path d="m30 1.9c17.9 0 29.5 19 29.5 31.6" fill="#ea7103"/><g transform="translate(17 11)"><path d="m7.1.9c.2.8-1.3.8-3 1.2-1.7.5-3 1.2-3.2.4s1-1.9 2.7-2.3 3.3-.1 3.5.7z" fill="#19bca4"/><path d="m7.1.9c.2.8-1.3.8-3 1.2-1.7.5-3 1.2-3.2.4" fill="#109da0"/></g><g transform="translate(35 8)"><path d="m1 .9c-.3.8 1.1.9 2.8 1.6 1.6.7 2.8 1.7 3.1.9s-.7-2-2.3-2.7c-1.7-.6-3.2-.5-3.6.2z" fill="#19bca4"/><path d="m1 .9c-.3.8 1.1.9 2.8 1.6 1.6.7 2.8 1.7 3.1.9" fill="#109da0"/></g><circle cx="8.9" cy="30.6" fill="#f7910b" r="1"/><ellipse cx="4.6" cy="32.5" fill="#f7910b" rx="1.1" ry="1.1"/><circle cx="7.5" cy="28.6" fill="#f7910b" r="1"/><circle cx="11.9" cy="30.4" fill="#f7910b" r="1"/><g fill="#f9a908"><circle cx="50" cy="30.9" r="1"/><circle cx="52.4" cy="32.3" r="1"/><circle cx="47.3" cy="23.7" r="1"/><circle cx="46.8" cy="35" r="1.3"/><circle cx="53.8" cy="35.1" r="1"/></g><circle cx="8" cy="34.5" fill="#f7910b" r="1"/><circle cx="8.7" cy="26.3" fill="#f7910b" r="1"/><ellipse cx="3.6" cy="13" fill="#f9a908" rx="1.1" ry="1.1"/><circle cx="6.7" cy="9.5" fill="#f9a908" r="1"/><ellipse cx="56.5" cy="15.3" fill="#f9a908" rx="1" ry="1"/><g transform="translate(36 17)"><path d="m6.9 5.1c0 1.9-1.5 3.4-3.4 3.4s-3.4-1.5-3.4-3.4 1.5-3.4 3.4-3.4 3.4 1.5 3.4 3.4z" fill="#d87703"/><path d="m6.9 4.1c0 1.9-1.5 3.4-3.4 3.4s-3.4-1.5-3.4-3.4 1.5-3.4 3.4-3.4 3.4 1.5 3.4 3.4z" fill="#1e4784"/><path d="m3.5.7c1.9 0 3.4 1.5 3.4 3.4s-1.5 3.4-3.4 3.4" fill="#00233f"/></g><g transform="translate(17 17)"><circle cx="3.9" cy="5.1" fill="#d87703" r="3.4"/><circle cx="3.9" cy="4.1" fill="#1e4784" r="3.4"/><path d="m3.9.7c1.9 0 3.4 1.5 3.4 3.4s-1.5 3.4-3.4 3.4" fill="#00233f"/></g><ellipse cx="55.7" cy="12.4" fill="#f9a908" rx="1" ry="1"/><circle cx="58.2" cy="13" fill="#f9a908" r="1"/><ellipse cx="4.7" cy="15.8" fill="#f9a908" rx="1" ry="1"/><g transform="translate(10 24)"><path d="m15.9 3c0 1.2-3.4.6-7.6.6s-7.6.6-7.6-.6 3.4-2.2 7.6-2.2c4.2.1 7.6 1 7.6 2.2z" fill="#f9c55d"/><path d="m39.2 3c0 1.2-3.4.6-7.6.6s-7.6.6-7.6-.6 3.4-2.2 7.6-2.2c4.2.1 7.6 1 7.6 2.2z" fill="#f9a908"/></g></g><g transform="translate(0 38)"><path d="m.5 0c.3 12.7 11.8 22.4 29.5 22.4s29.2-10.4 29.5-22.4z" fill="#1e4784"/><path d="m30.2 22.4c17.7 0 29.1-10.2 29.2-22.4h-58.4" fill="#00233f"/><path d="m30 22.4c3.1 0 6-.1 8.6-.6l-4-19.8h-9.2l-4 19.8c2.6.5 5.5.6 8.6.6z" fill="#fffbee"/></g><path d="m25.344945 33.283245h9.39991v9.39991h-9.39991z" fill="#f7910b" transform="matrix(.70700677 -.70720678 .70720678 .70700677 -18.059024 32.376777)"/><path d="m34 37h-8c-.6 0-1-.4-1-1s.4-1 1-1h8c.6 0 1 .4 1 1s-.4 1-1 1z" fill="#02243e"/><path d="m52 45c0 .5-.4 1-1 1h-8c-.5 0-1-.4-1-1 0-.5.4-1 1-1h8c.6 0 1 .4 1 1z" fill="#fffbee"/><g transform="translate(26 40)"><path d="m1.5 2.3 1.3 2-2 16.1 2.3 2.6h.9v-22.2z" fill="#0c537a"/><path d="m6.5 2.3-1.3 2 2 16.1-2.3 2.6h-.9v-22.2z" fill="#00233f"/></g><path d="m35 8h-10v-7.4l2.4 2.4h7.6z" fill="#00233f"/></g></svg>