<svg height="58" viewBox="0 0 62 58" width="62" xmlns="http://www.w3.org/2000/svg"><g fill="none"><path d="m61.3 34.5c0 13-11.9 23.5-30.3 23.5s-30.3-10.5-30.3-23.5 11.9-32.5 30.3-32.5 30.3 19.5 30.3 32.5z" fill="#f7910b"/><path d="m61.3 34.5c0 13-11.9 19.5-30.3 19.5s-30.3-6.5-30.3-19.5 11.9-34.5 30.3-34.5 30.3 21.5 30.3 34.5z" fill="#f7910b"/><path d="m31 0c18.4 0 30.3 21.5 30.3 34.5s-11.9 19.5-30.3 19.5" fill="#f9a908"/><path d="m61.3 34.5c0 13-11.9 19.5-30.3 19.5s-30.3-6.5-30.3-19.5 11.9-32.5 30.3-32.5 30.3 19.5 30.3 32.5z" fill="#f9a908"/><path d="m.7 34.5c0-13 11.9-32.5 30.3-32.5" fill="#f9c55d"/><path d="m31 2c18.4 0 30.3 19.5 30.3 32.5s-11.9 23.5-30.3 23.5" fill="#f7910b"/><path d="m31 2c18.4 0 30.3 19.5 30.3 32.5" fill="#ea7103"/><g transform="translate(11 15)"><path d="m15.8 2.6c0 1.2-3.5.7-7.8.7s-7.8.6-7.8-.7 3.5-2.2 7.8-2.2 7.8 1 7.8 2.2z" fill="#f9c55d"/><path d="m39.8 2.6c0 1.2-3.5.7-7.8.7s-7.8.6-7.8-.7 3.5-2.2 7.8-2.2 7.8 1 7.8 2.2z" fill="#f9a908"/></g><circle cx="9.3" cy="31.5" fill="#f7910b" r="1"/><circle cx="4.8" cy="33.5" fill="#f7910b" r="1.1"/><circle cx="7.8" cy="29.5" fill="#f7910b" r="1"/><circle cx="12.4" cy="31.3" fill="#f7910b" r="1"/><circle cx="51.6" cy="31.8" fill="#f9a908" r="1"/><circle cx="54.1" cy="33.2" fill="#f9a908" r="1"/><circle cx="48.8" cy="24.4" fill="#f9a908" r="1"/><circle cx="48.3" cy="36" fill="#f9a908" r="1.3"/><circle cx="55.5" cy="36.1" fill="#f9a908" r="1"/><circle cx="8.3" cy="35.5" fill="#f7910b" r="1"/><circle cx="9.1" cy="27.1" fill="#f7910b" r="1"/><g fill="#f9a908"><circle cx="3.8" cy="13.3" r="1.1"/><circle cx="7" cy="9.8" r="1"/><circle cx="58.2" cy="15.7" r="1"/><circle cx="57.4" cy="12.8" r="1"/><circle cx="60" cy="13.3" r="1"/><circle cx="5" cy="16.3" r="1"/></g><g transform="translate(37 12)"><path d="m9.3 5.8c-.4 0-.8-.2-1.2-.5-1.4-1.4-3.7-1.4-5.1 0-.6.6-1.7.7-2.3 0-.6-.6-.7-1.7 0-2.3 2.7-2.7 7.1-2.7 9.8 0 .6.6.6 1.7 0 2.3-.4.4-.8.5-1.2.5z" fill="#1e4784"/><path d="m10.4 3c.6.6.6 1.7 0 2.3-.3.3-.7.5-1.2.5-.4 0-.8-.2-1.2-.5-1.4-1.4-3.7-1.4-5.1 0-.6.6-1.7.7-2.3 0-.6-.6-.7-1.7 0-2.3" fill="#02243e"/></g><g transform="translate(14 12)"><path d="m1.7 5.8c.4 0 .8-.2 1.2-.5 1.4-1.4 3.7-1.4 5.1 0 .6.6 1.7.7 2.3 0 .6-.6.7-1.7 0-2.3-2.7-2.7-7.1-2.7-9.8 0-.6.6-.6 1.7 0 2.3.4.4.8.5 1.2.5z" fill="#1e4784"/><path d="m.6 3c-.6.6-.6 1.7 0 2.3.3.3.7.5 1.2.5.4 0 .8-.2 1.2-.5 1.4-1.4 3.7-1.4 5.1 0 .6.6 1.7.7 2.3 0 .6-.6.7-1.7 0-2.3" fill="#02243e"/></g><g fill="#037a66" transform="translate(17 6)"><path d="m7.6 1.8c.3.9-1.4.9-3.3 1.5s-3.3 1.5-3.6.6 1-2.1 2.9-2.7 3.7-.3 4 .6z"/><path d="m20.4 1.8c-.3.9 1.4.9 3.3 1.5s3.3 1.5 3.6.6-1-2.1-2.9-2.7-3.7-.3-4 .6z"/></g><g transform="translate(1 23)"><path d="m26.5 20c0 3.8-4.7 4.7-10.5 4.7s-10.5-3.1-10.5-6.8c0-3.8 1.7-10.2 7.5-10.2s13.5 8.5 13.5 12.3z" fill="#069ace"/><path d="m26.5 20c0 3.8-4.7 4.7-10.5 4.7s-10.5-3.1-10.5-6.8" fill="#0974af"/><g fill="#eaa4cb"><circle cx="12.4" cy="12.7" r="1.6"/><circle cx="18.4" cy="15.4" r="1.6"/><circle cx="12.5" cy="18.6" r="1.6"/><circle cx="18.9" cy="21" r="1.6"/></g><path d="m9.6 10.6c.3.4.2 1-.2 1.4-.4.3-1 .2-1.4-.2l-7.2-9.9c-.3-.4-.2-1 .2-1.4.4-.3 1-.2 1.4.2z" fill="#069ace"/><path d="m16.2 21.3c.6 0 1.1.5 1.1 1.1 0 .6-.5 1.1-1.1 1.1l-13.6.2c-.6 0-1.1-.5-1.1-1.1 0-.6.5-1.1 1.1-1.1z" fill="#0974af"/><g transform="translate(33)"><path d="m.5 20c0 3.8 4.7 4.7 10.5 4.7s10.5-3.1 10.5-6.8c0-3.8-1.7-10.2-7.5-10.2-5.8-.1-13.5 8.5-13.5 12.3z" fill="#069ace"/><path d="m.5 20c0 3.8 4.7 4.7 10.5 4.7s10.5-3.1 10.5-6.8" fill="#0974af"/><g fill="#eaa4cb"><circle cx="14.6" cy="12.7" r="1.6"/><circle cx="8.6" cy="15.4" r="1.6"/><circle cx="14.5" cy="18.6" r="1.6"/><circle cx="8.1" cy="21" r="1.6"/></g><path d="m17.4 10.6c-.3.4-.2 1 .2 1.4.4.3 1 .2 1.4-.2l7.2-9.9c.3-.4.2-1-.2-1.4-.4-.3-1-.2-1.4.2z" fill="#069ace"/><path d="m10.8 21.3c-.6 0-1.1.5-1.1 1.1 0 .6.5 1.1 1.1 1.1l13.6.2c.6 0 1.1-.5 1.1-1.1 0-.6-.5-1.1-1.1-1.1z" fill="#0974af"/></g><path d="m36 21c0 .6-.4 1-1 1h-11c-.6 0-1-.4-1-1 0-.6.4-1 1-1h11c.6 0 1 .4 1 1z" fill="#0974af"/></g><path d="m36.2 22.4c0 1.2-2.3 2.2-5.2 2.2s-5.3-1-5.3-2.2 2.4-.2 5.3-.2 5.2-1.1 5.2.2z" fill="#99144a"/></g></svg>