<svg height="58" viewBox="0 0 62 58" width="62" xmlns="http://www.w3.org/2000/svg"><g fill="none"><path d="m61.3 34.5c0 13-11.9 23.5-30.3 23.5s-30.3-10.5-30.3-23.5 11.9-32.5 30.3-32.5 30.3 19.5 30.3 32.5z" fill="#109da0"/><path d="m61.3 34.5c0 13-11.9 19.5-30.3 19.5s-30.3-6.5-30.3-19.5 11.9-34.5 30.3-34.5 30.3 21.5 30.3 34.5z" fill="#109da0"/><path d="m31 0c18.4 0 30.3 21.5 30.3 34.5s-11.9 19.5-30.3 19.5" fill="#19bca4"/><path d="m61.3 34.5c0 13-11.9 19.5-30.3 19.5s-30.3-6.5-30.3-19.5 11.9-32.5 30.3-32.5 30.3 19.5 30.3 32.5z" fill="#19bca4"/><path d="m.7 34.5c0-13 11.9-32.5 30.3-32.5" fill="#28ddbf"/><path d="m31 2c18.4 0 30.3 19.5 30.3 32.5s-11.9 23.5-30.3 23.5" fill="#109da0"/><path d="m31 2c18.4 0 30.3 19.5 30.3 32.5" fill="#0c838c"/><g transform="translate(9 31)"><path d="m17.4 3.1c0 1.3-3.8 1.8-8.6 1.8-4.7 0-8.6-.5-8.6-1.8s3.8-2.4 8.6-2.4 8.6 1.1 8.6 2.4z" fill="#28ddbf"/><path d="m43.8 3.1c0 1.3-3.8 1.8-8.6 1.8-4.7 0-8.6-.5-8.6-1.8s3.8-2.4 8.6-2.4c4.7 0 8.6 1.1 8.6 2.4z" fill="#19bca4"/></g><g fill="#109da0"><ellipse cx="9.3" cy="31.5" rx="1" ry="1"/><ellipse cx="4.8" cy="33.5" rx="1.1" ry="1.1"/><circle cx="7.8" cy="29.5" r="1"/><circle cx="12.4" cy="31.3" r="1"/></g><circle cx="51.6" cy="31.8" fill="#19bca4" r="1"/><circle cx="54.1" cy="33.2" fill="#19bca4" r="1"/><circle cx="55.5" cy="36.1" fill="#19bca4" r="1"/><ellipse cx="55.8" cy="29.5" fill="#19bca4" rx="1" ry="1"/><circle cx="8.3" cy="35.5" fill="#109da0" r="1"/><circle cx="9.1" cy="27.1" fill="#109da0" r="1"/><ellipse cx="3.8" cy="13.3" fill="#19bca4" rx="1.1" ry="1.1"/><ellipse cx="7" cy="9.8" fill="#19bca4" rx="1" ry="1"/><circle cx="58.2" cy="15.7" fill="#109da0" r="1"/><ellipse cx="57.4" cy="12.8" fill="#19bca4" rx="1" ry="1"/><path d="m60.5 13.3c0 .3-.2.5-.5.5s-.5-.2-.5-.5.2-.5.5-.5c.2 0 .5.3.5.5z" fill="#19bca4"/><ellipse cx="5" cy="16.3" fill="#109da0" rx="1" ry="1"/><path d="m38.4 36.8c0 2.6-3.3 8.1-7.4 8.1s-7.4-5.5-7.4-8.1" fill="#109da0"/><path d="m34 40h-6c-.6 0-1-.4-1-1s.4-1 1-1h6c.6 0 1 .4 1 1s-.4 1-1 1z" fill="#02243e"/><g transform="translate(9 16)"><path d="m17.4 15c-2.1 3-7.2 3.1-11.5.1-4.3-2.9-6.1-7.8-4.1-10.8 2.1-3 7.2-3.1 11.6-.1 4.2 2.9 6 7.8 4 10.8z" fill="#109da0"/><path d="m18.4 13.4c-2.1 3-7.2 3.1-11.6.1-4.3-2.9-6.1-7.8-4.1-10.8 2.1-3 7.2-3.1 11.5-.1 4.5 3 6.3 7.8 4.2 10.8z" fill="#1e4784"/><path d="m14.4 2.6c4.3 2.9 6.1 7.8 4.1 10.8-2.1 3-7.2 3.1-11.6.1" fill="#00233f"/></g><g transform="translate(33 16)"><path d="m2.6 15c2.1 3 7.2 3.1 11.5.1 4.3-2.9 6.1-7.8 4.1-10.8-2.1-3-7.2-3.1-11.6-.1-4.2 2.9-6 7.8-4 10.8z" fill="#19bca4"/><path d="m1.6 13.4c2.1 3 7.2 3.1 11.6.1 4.3-2.9 6.1-7.8 4.1-10.8-2.1-3-7.2-3.1-11.6-.1s-6.2 7.8-4.1 10.8z" fill="#1e4784"/><path d="m5.6 2.6c-4.3 2.9-6.1 7.8-4.1 10.8 2.1 3 7.2 3.1 11.6.1" fill="#00233f"/></g><path d="m28.202416 10.058896h5.499947v5.499947h-5.499947z" fill="#28ddbf" transform="matrix(.70720678 .70700677 -.70700677 .70720678 18.118608 -18.133199)"/><g fill="#28ddbf"><circle cx="31" cy="42.4" r="1"/><circle cx="31" cy="46.5" r="1"/><circle cx="31" cy="50.5" r="1"/></g></g></svg>