<svg height="58" viewBox="0 0 62 58" width="62" xmlns="http://www.w3.org/2000/svg"><g fill="none"><path d="m61.3 34.5c0 13-11.9 23.5-30.3 23.5s-30.3-10.5-30.3-23.5 11.9-32.5 30.3-32.5 30.3 19.5 30.3 32.5z" fill="#f7910b"/><path d="m61.3 34.5c0 13-11.9 19.5-30.3 19.5s-30.3-6.5-30.3-19.5 11.9-34.5 30.3-34.5 30.3 21.5 30.3 34.5z" fill="#f7910b"/><path d="m31 0c18.4 0 30.3 21.5 30.3 34.5s-11.9 19.5-30.3 19.5" fill="#f9a908"/><path d="m61.3 34.5c0 13-11.9 19.5-30.3 19.5s-30.3-6.5-30.3-19.5 11.9-32.5 30.3-32.5 30.3 19.5 30.3 32.5z" fill="#f9a908"/><path d="m.7 34.5c0-13 11.9-32.5 30.3-32.5" fill="#f9c55d"/><path d="m31 2c18.4 0 30.3 19.5 30.3 32.5s-11.9 23.5-30.3 23.5" fill="#f7910b"/><path d="m31 2c18.4 0 30.3 19.5 30.3 32.5" fill="#ea7103"/><g transform="translate(18 11)"><path d="m6.9.9c.3.8-1.2.9-2.9 1.6-1.7.6-2.9 1.6-3.2.8s.8-2 2.5-2.6c1.6-.7 3.2-.6 3.6.2z" fill="#19bca4"/><path d="m6.9.9c.3.8-1.2.9-2.9 1.6-1.7.6-2.9 1.6-3.2.8" fill="#109da0"/></g><g transform="translate(37 11)"><path d="m.1.9c-.3.8 1.2.9 2.9 1.6 1.7.6 2.9 1.6 3.2.8s-.8-2-2.5-2.6c-1.6-.7-3.2-.6-3.6.2z" fill="#19bca4"/><path d="m.1.9c-.3.8 1.2.9 2.9 1.6 1.7.6 2.9 1.6 3.2.8" fill="#109da0"/></g><g transform="translate(11 25)"><path d="m15.8 2.8c0 1.2-3.5.7-7.8.7s-7.8.6-7.8-.7c0-1.2 3.5-2.2 7.8-2.2s7.8 1 7.8 2.2z" fill="#f9c55d"/><path d="m39.8 2.8c0 1.2-3.5.7-7.8.7s-7.8.6-7.8-.7c0-1.2 3.5-2.2 7.8-2.2s7.8 1 7.8 2.2z" fill="#f9a908"/></g><path d="m36.3 29.6c0 1.1-2.4 2.1-5.3 2.1s-5.3-.9-5.3-2.1" fill="#f9c55d"/><ellipse cx="9.3" cy="31.5" fill="#f7910b" rx="1" ry="1"/><ellipse cx="4.8" cy="33.5" fill="#f7910b" rx="1.1" ry="1.1"/><ellipse cx="7.8" cy="29.5" fill="#f7910b" rx="1" ry="1"/><circle cx="12.4" cy="31.3" fill="#f7910b" r="1"/><circle cx="51.6" cy="31.8" fill="#f9a908" r="1"/><circle cx="54.1" cy="33.2" fill="#f9a908" r="1"/><circle cx="48.8" cy="24.4" fill="#f9a908" r="1"/><circle cx="48.3" cy="36" fill="#f9a908" r="1.3"/><circle cx="55.5" cy="36.1" fill="#f9a908" r="1"/><ellipse cx="8.3" cy="35.5" fill="#f7910b" rx="1" ry="1"/><circle cx="9.1" cy="27.1" fill="#f7910b" r="1"/><g fill="#f9a908"><ellipse cx="3.8" cy="13.3" rx="1.1" ry="1.1"/><ellipse cx="7" cy="9.8" rx="1" ry="1"/><circle cx="58.2" cy="15.7" r="1"/><ellipse cx="57.4" cy="12.8" rx="1" ry="1"/><circle cx="60" cy="13.3" r="1"/><ellipse cx="5" cy="16.3" rx="1" ry="1"/></g><g transform="translate(14 19)"><path d="m8.9 6c-.4-.1-.8-.3-1.1-.7-1.1-1.6-3.4-2-5-.9-.8.5-1.8.3-2.3-.4s-.3-1.8.4-2.3c3.1-2.2 7.4-1.4 9.6 1.8.5.7.3 1.8-.4 2.3-.4.2-.8.2-1.2.2z" fill="#1e4784"/><path d="m10.5 3.4c.5.7.3 1.8-.4 2.3-.4.3-.8.3-1.2.3-.4-.1-.8-.3-1.1-.7-1.1-1.6-3.4-2-5-.9-.8.5-1.8.3-2.3-.4s-.3-1.8.4-2.3" fill="#02243e"/></g><g transform="translate(37 19)"><path d="m2.1 6c.4-.1.8-.3 1.1-.7 1.1-1.6 3.4-2 5-.9.8.5 1.8.3 2.3-.4s.3-1.8-.4-2.3c-3.1-2.2-7.4-1.4-9.6 1.8-.5.7-.3 1.8.4 2.3.4.2.8.2 1.2.2z" fill="#1e4784"/><path d="m.5 3.4c-.5.7-.3 1.8.4 2.3.4.3.8.3 1.2.3.4-.1.8-.3 1.1-.7 1.1-1.6 3.4-2 5-.9.8.5 1.8.3 2.3-.4s.3-1.8-.4-2.3" fill="#02243e"/></g><path d="m38.2 44.9c0 2.6-3.3 4.7-7.4 4.7s-7.4-2.1-7.4-4.7" fill="#f7910b"/><g transform="translate(16 30)"><path d="m29.8.6c0 9.1-6.6 16.5-14.8 16.5s-14.8-7.4-14.8-16.5" fill="#c42260"/><path d="m29.8.6c0 3.1-6.6 5.6-14.8 5.6s-14.8-2.5-14.8-5.6" fill="#99144a"/><path d="m15 17.1c4.6 0 8.6-2.3 11.3-5.9-1.7-2.1-4.1-3.4-6.8-3.4-1.6 0-3.2.5-4.5 1.3-1.3-.9-2.9-1.3-4.5-1.3-2.7 0-5.1 1.3-6.8 3.4 2.7 3.6 6.7 5.9 11.3 5.9z" fill="#e2446e"/></g></g></svg>