<svg height="58" viewBox="0 0 62 58" width="62" xmlns="http://www.w3.org/2000/svg"><g fill="none"><path d="m61.3 34.5c0 13-11.9 23.5-30.3 23.5s-30.3-10.5-30.3-23.5 11.9-32.5 30.3-32.5 30.3 19.5 30.3 32.5z" fill="#f7910b"/><path d="m61.3 34.5c0 13-11.9 19.5-30.3 19.5s-30.3-6.5-30.3-19.5 11.9-34.5 30.3-34.5 30.3 21.5 30.3 34.5z" fill="#f7910b"/><path d="m31 0c18.4 0 30.3 21.5 30.3 34.5s-11.9 19.5-30.3 19.5" fill="#f9a908"/><path d="m61.3 34.5c0 13-11.9 19.5-30.3 19.5s-30.3-6.5-30.3-19.5 11.9-32.5 30.3-32.5 30.3 19.5 30.3 32.5z" fill="#f9a908"/><path d="m.7 34.5c0-13 11.9-32.5 30.3-32.5" fill="#f9c55d"/><path d="m31 2c18.4 0 30.3 19.5 30.3 32.5s-11.9 23.5-30.3 23.5" fill="#f7910b"/><path d="m31 2c18.4 0 30.3 19.5 30.3 32.5" fill="#ea7103"/><ellipse cx="9.3" cy="31.5" fill="#f7910b" rx="1" ry="1"/><ellipse cx="4.8" cy="33.5" fill="#f7910b" rx="1.1" ry="1.1"/><circle cx="7.8" cy="29.5" fill="#f7910b" r="1"/><circle cx="12.4" cy="31.3" fill="#f7910b" r="1"/><circle cx="51.6" cy="31.8" fill="#f9a908" r="1"/><circle cx="54.1" cy="33.2" fill="#f9a908" r="1"/><circle cx="48.8" cy="24.4" fill="#f9a908" r="1"/><ellipse cx="48.3" cy="36" fill="#f9a908" rx="1.3" ry="1.3"/><circle cx="55.5" cy="36.1" fill="#f9a908" r="1"/><circle cx="8.3" cy="35.5" fill="#f7910b" r="1"/><circle cx="9.1" cy="27.1" fill="#f7910b" r="1"/><g fill="#f9a908"><ellipse cx="3.8" cy="13.3" rx="1.1" ry="1.1"/><ellipse cx="7" cy="9.8" rx="1" ry="1"/><circle cx="58.2" cy="15.7" r="1"/><ellipse cx="57.4" cy="12.8" rx="1" ry="1"/><circle cx="60" cy="13.3" r="1"/><ellipse cx="5" cy="16.3" rx="1" ry="1"/></g><path d="m38.2 44.9c0 2.6-3.3 7.2-7.4 7.2s-7.4-4.6-7.4-7.2" fill="#f7910b"/><g transform="translate(15 17)"><circle cx="4.6" cy="6" fill="#d87703" r="3.5"/><path d="m30.9 6c0 1.9-1.6 3.5-3.5 3.5s-3.5-1.6-3.5-3.5 1.6-3.5 3.5-3.5c2 0 3.5 1.6 3.5 3.5z" fill="#d87703"/><circle cx="4.6" cy="5" fill="#1e4784" r="3.5"/><path d="m4.6 1.5c1.9 0 3.5 1.6 3.5 3.5s-1.6 3.5-3.5 3.5" fill="#00233f"/><path d="m30.9 5c0 1.9-1.6 3.5-3.5 3.5s-3.5-1.6-3.5-3.5 1.6-3.5 3.5-3.5c2 0 3.5 1.6 3.5 3.5z" fill="#1e4784"/><path d="m27.4 1.5c1.9 0 3.5 1.6 3.5 3.5s-1.6 3.5-3.5 3.5" fill="#00233f"/><path d="m.5 4.7c0-2.3 1.8-4.1 4.1-4.1s4.1 1.8 4.1 4.1" fill="#f9a908"/><path d="m23.3 4.7c0-2.3 1.8-4.1 4.1-4.1s4.1 1.8 4.1 4.1" fill="#f7910b"/></g><g transform="translate(11 25)"><path d="m15.8 2.8c0 1.2-3.5.7-7.8.7s-7.8.6-7.8-.7c0-1.2 3.5-2.2 7.8-2.2s7.8 1 7.8 2.2z" fill="#f9c55d"/><path d="m39.8 2.8c0 1.2-3.5.7-7.8.7s-7.8.6-7.8-.7c0-1.2 3.5-2.2 7.8-2.2s7.8 1 7.8 2.2z" fill="#f9a908"/></g><g fill="#19bca4" transform="translate(18 7)"><path d="m4.2 2.5c0 1-.1.5-1.5.5s-2.5.5-2.5-.5 1.1-1.7 2.5-1.7 1.5.8 1.5 1.7z"/><path d="m21.8 2.5c0 1 .1.5 1.5.5s2.5.5 2.5-.5-1.1-1.7-2.5-1.7-1.5.8-1.5 1.7z"/></g><g fill="#00233f" transform="translate(4 16)"><g transform="translate(4)"><path d="m.9 1c-.1 1-.2 1.2-.2 1.8 0 4.5 1.3 8.2 5.8 8.2h7.5c4.5 0 5.8-3.7 5.8-8.2 0-.6-.1-.8-.2-1.8z"/><path d="m20.4 1.5c0 .7-.6 1.5-1.3 1.5h-17.6c-.7 0-1.3-.8-1.3-1.5 0-.7.6-1.5 1.3-1.5h17.6c.7 0 1.3.8 1.3 1.5z"/></g><path d="m14.2 1c0 .5-.4 2-.8 2h-12.1c-.5 0-.8-1.6-.8-2 0-.5.4-1 .8-1h12.1c.4 0 .8.5.8 1z"/><g transform="translate(29)"><path d="m20.1 1c.1 1 .2 1.2.2 1.8 0 4.5-1.3 8.2-5.8 8.2h-7.5c-4.5 0-5.8-3.7-5.8-8.2 0-.6.1-.8.2-1.8z"/><path d="m.6 1.5c0 .7.6 1.5 1.3 1.5h17.6c.7 0 1.3-.8 1.3-1.5 0-.7-.6-1.5-1.3-1.5h-17.6c-.7 0-1.3.8-1.3 1.5z"/><path d="m10.8 1c0 .5.4 2 .8 2h12.1c.5 0 .8-1.6.8-2 0-.5-.4-1-.8-1h-12.1c-.4 0-.8.5-.8 1z"/></g><path d="m37 1c0 .6-.4 1-1 1h-17c-.6 0-1-.4-1-1 0-.6.4-1 1-1h17c.6 0 1 .4 1 1z"/></g><g transform="translate(14 28)"><path d="m24.4 7.2c0 2.6-3.3 4.7-7.4 4.7s-7.4-2.1-7.4-4.7" fill="#f7910b"/><g fill="#02243e" transform="translate(3 2)"><path d="m9.8 7c-3.2 0-6.6-1.9-9.2-4.6-.4-.4-.4-1.1 0-1.6.4-.4 1.1-.4 1.6 0 2.5 2.5 7.7 5.9 11.1 2.5.4-.4 1.1-.4 1.6 0 .4.4.4 1.1 0 1.6-1.6 1.5-3.3 2.1-5.1 2.1z"/><path d="m18.2 7c-1.8 0-3.5-.6-5-2.1-.4-.4-.4-1.1 0-1.6.4-.4 1.1-.4 1.6 0 3.4 3.4 8.6 0 11.1-2.5.4-.4 1.1-.4 1.6 0 .4.4.4 1.1 0 1.6-2.7 2.7-6.1 4.6-9.3 4.6z"/></g><g fill="#02243e"><path d="m2 5.1c-.6 0-1.1-.5-1.1-1.1s.5-1.1 1.1-1.1c.9 0 1.6-.7 1.6-1.6 0-.6.5-1.1 1.1-1.1s1.1.5 1.1 1.1c-.1 2.1-1.8 3.8-3.8 3.8z"/><path d="m32 5.1c-2.1 0-3.8-1.7-3.8-3.8 0-.6.5-1.1 1.1-1.1s1.1.5 1.1 1.1c0 .9.7 1.6 1.6 1.6.6 0 1.1.5 1.1 1.1s-.5 1.1-1.1 1.1z"/></g><path d="m14.4 5.6c-.2.7-2.1.6-4.2-.2s-3.5-1.9-3.3-2.6 1.9 0 4 .7c2.1.8 3.7 1.4 3.5 2.1z" fill="#f9c55d"/><path d="m19.9 5.6c.2.7 2.1.6 4.2-.2s3.5-1.9 3.3-2.6-1.9 0-4 .7c-2.1.8-3.8 1.4-3.5 2.1z" fill="#f9a908"/></g></g></svg>