<?xml version="1.0" encoding="UTF-8"?>
<svg width="64px" height="64px" viewBox="0 0 64 64" version="1.1" xmlns="http://www.w3.org/2000/svg" xmlns:xlink="http://www.w3.org/1999/xlink">
    <!-- Generator: Sketch 43.1 (39012) - http://www.bohemiancoding.com/sketch -->
    <title>imgly_sticker_emoticons_humourous</title>
    <desc>Created with Sketch.</desc>
    <defs></defs>
    <g id="Page-1" stroke="none" stroke-width="1" fill="none" fill-rule="evenodd">
        <g id="humourous" fill-rule="nonzero">
            <g id="Group" transform="translate(0.000000, 23.000000)" fill="#EA81B8">
                <ellipse id="Oval" cx="6.2" cy="8" rx="5.4" ry="7.7"></ellipse>
                <ellipse id="Oval" cx="57.8" cy="8" rx="5.4" ry="7.7"></ellipse>
            </g>
            <g id="Group" transform="translate(0.000000, 5.000000)">
                <g transform="translate(1.000000, 0.000000)">
                    <g>
                        <path d="M61.3,34.8 C61.3,47.8 49.4,58.3 31,58.3 C12.6,58.3 0.7,47.8 0.7,34.8 C0.7,21.8 12.6,2.3 31,2.3 C49.4,2.3 61.3,21.9 61.3,34.8 Z" id="Shape" fill="#F7910B"></path>
                        <path d="M61.3,34.8 C61.3,47.8 49.4,54.3 31,54.3 C12.6,54.3 0.7,47.8 0.7,34.8 C0.7,21.8 12.6,0.3 31,0.3 C49.4,0.3 61.3,21.9 61.3,34.8 Z" id="Shape" fill="#F7910B"></path>
                        <path d="M31,0.3 C49.4,0.3 61.3,21.8 61.3,34.8 C61.3,47.8 49.4,54.3 31,54.3" id="Shape" fill="#F9A908"></path>
                        <path d="M61.3,34.8 C61.3,47.8 49.4,54.3 31,54.3 C12.6,54.3 0.7,47.8 0.7,34.8 C0.7,21.8 12.6,2.3 31,2.3 C49.4,2.3 61.3,21.9 61.3,34.8 Z" id="Shape" fill="#F9A908"></path>
                        <path d="M0.7,34.8 C0.7,21.8 12.6,2.3 31,2.3" id="Shape" fill="#F9C55D"></path>
                        <path d="M31,2.3 C49.4,2.3 61.3,21.8 61.3,34.8 C61.3,47.8 49.4,58.3 31,58.3" id="Shape" fill="#F7910B"></path>
                        <path d="M31,2.3 C49.4,2.3 61.3,21.8 61.3,34.8" id="Shape" fill="#EA7103"></path>
                        <g transform="translate(11.000000, 30.000000)" id="Shape">
                            <path d="M15.8,2.7 C15.8,3.9 12.3,3.4 8,3.4 C3.7,3.4 0.2,4 0.2,2.7 C0.2,1.4 3.7,0.5 8,0.5 C12.3,0.4 15.8,1.4 15.8,2.7 Z" fill="#F9C55D"></path>
                            <path d="M39.8,2.7 C39.8,3.9 36.3,3.4 32,3.4 C27.7,3.4 24.2,4 24.2,2.7 C24.2,1.4 27.7,0.5 32,0.5 C36.3,0.4 39.8,1.4 39.8,2.7 Z" fill="#F9A908"></path>
                        </g>
                        <circle id="Oval" fill="#F7910B" cx="9.3" cy="31.8" r="1"></circle>
                        <circle id="Oval" fill="#F7910B" cx="4.8" cy="33.8" r="1.1"></circle>
                        <circle id="Oval" fill="#F7910B" cx="7.8" cy="29.8" r="1"></circle>
                        <circle id="Oval" fill="#F7910B" cx="12.4" cy="31.6" r="1"></circle>
                        <circle id="Oval" fill="#F9A908" cx="51.6" cy="32.2" r="1"></circle>
                        <circle id="Oval" fill="#F9A908" cx="54.1" cy="33.5" r="1"></circle>
                        <circle id="Oval" fill="#F9A908" cx="48.8" cy="24.7" r="1"></circle>
                        <circle id="Oval" fill="#F9A908" cx="48.3" cy="36.4" r="1.3"></circle>
                        <circle id="Oval" fill="#F9A908" cx="55.5" cy="36.4" r="1"></circle>
                        <circle id="Oval" fill="#F7910B" cx="8.3" cy="35.8" r="1"></circle>
                        <circle id="Oval" fill="#F7910B" cx="9.1" cy="27.4" r="1"></circle>
                        <circle id="Oval" fill="#F9A908" cx="3.8" cy="13.7" r="1.1"></circle>
                        <circle id="Oval" fill="#F9A908" cx="7" cy="10.1" r="1"></circle>
                        <circle id="Oval" fill="#F9A908" cx="58.2" cy="16" r="1"></circle>
                        <circle id="Oval" fill="#F9A908" cx="57.4" cy="13.1" r="1"></circle>
                        <circle id="Oval" fill="#F9A908" cx="60" cy="13.7" r="1"></circle>
                        <circle id="Oval" fill="#F9A908" cx="5" cy="16.6" r="1"></circle>
                    </g>
                    <g transform="translate(8.000000, 12.000000)">
                        <g>
                            <g>
                                <circle id="Oval" fill="#FFFFFF" cx="11.7" cy="11.9" r="9.3"></circle>
                                <path d="M11.7,22.9 C5.6,22.9 0.7,18 0.7,11.9 C0.7,5.8 5.6,0.9 11.7,0.9 C17.8,0.9 22.7,5.8 22.7,11.9 C22.7,18 17.7,22.9 11.7,22.9 Z M11.7,4.2 C7.5,4.2 4,7.6 4,11.9 C4,16.2 7.4,19.6 11.7,19.6 C15.9,19.6 19.4,16.2 19.4,11.9 C19.4,7.6 15.9,4.2 11.7,4.2 Z" id="Shape" fill="#756A49"></path>
                            </g>
                            <g transform="translate(23.000000, 0.000000)" id="Shape">
                                <path d="M20.7,11.9 C20.7,17.1 16.5,21.2 11.4,21.2 C6.2,21.2 2.1,17 2.1,11.9 C2.1,6.8 6.3,2.6 11.4,2.6 C16.5,2.6 20.7,6.7 20.7,11.9 Z" fill="#FFFFFF"></path>
                                <path d="M11.3,22.9 C5.2,22.9 0.3,18 0.3,11.9 C0.3,5.8 5.2,0.9 11.3,0.9 C17.4,0.9 22.3,5.8 22.3,11.9 C22.3,18 17.4,22.9 11.3,22.9 Z M11.3,4.2 C7.1,4.2 3.6,7.6 3.6,11.9 C3.6,16.2 7,19.6 11.3,19.6 C15.5,19.6 19,16.2 19,11.9 C19,7.6 15.6,4.2 11.3,4.2 Z" fill="#756A49"></path>
                            </g>
                        </g>
                        <g transform="translate(8.000000, 7.000000)">
                            <path d="M7.1,5.4 C7.1,7.3 5.5,8.9 3.6,8.9 C1.7,8.9 0.1,7.3 0.1,5.4 C0.1,3.5 1.7,1.9 3.6,1.9 C5.5,1.9 7.1,3.5 7.1,5.4 Z" id="Shape" fill="#CECDCC"></path>
                            <circle id="Oval" fill="#CECDCC" cx="26.4" cy="5.4" r="3.5"></circle>
                            <path d="M7.1,4.4 C7.1,6.3 5.5,7.9 3.6,7.9 C1.7,7.9 0.1,6.3 0.1,4.4 C0.1,2.5 1.7,0.9 3.6,0.9 C5.5,0.9 7.1,2.5 7.1,4.4 Z" id="Shape" fill="#1E4784"></path>
                            <path d="M3.6,0.9 C5.5,0.9 7.1,2.5 7.1,4.4 C7.1,6.3 5.5,7.9 3.6,7.9" id="Shape" fill="#00233F"></path>
                            <circle id="Oval" fill="#1E4784" cx="26.4" cy="4.4" r="3.5"></circle>
                            <path d="M26.4,0.9 C28.3,0.9 29.9,2.5 29.9,4.4 C29.9,6.3 28.3,7.9 26.4,7.9" id="Shape" fill="#00233F"></path>
                        </g>
                    </g>
                </g>
                <g transform="translate(0.000000, 24.000000)" id="Shape">
                    <g>
                        <path d="M2,1.5 L11,1.5" fill="#FFFFFF"></path>
                        <path d="M11,3 L2,3 C1.2,3 0.5,2.3 0.5,1.5 C0.5,0.7 1.2,0 2,0 L11,0 C11.8,0 12.5,0.7 12.5,1.5 C12.5,2.3 11.8,3 11,3 Z" fill="#756A49"></path>
                    </g>
                    <g transform="translate(51.000000, 0.000000)">
                        <path d="M2,1.5 L11,1.5" fill="#FFFFFF"></path>
                        <path d="M11,3 L2,3 C1.2,3 0.5,2.3 0.5,1.5 C0.5,0.7 1.2,0 2,0 L11,0 C11.8,0 12.5,0.7 12.5,1.5 C12.5,2.3 11.8,3 11,3 Z" fill="#756A49"></path>
                    </g>
                </g>
                <g transform="translate(17.000000, 7.000000)" id="Shape" fill="#00233F">
                    <path d="M7,3.3 C7,3.9 5.5,3.5 3.8,3.3 C2,3.1 0.6,3.3 0.6,2.7 C0.6,2.1 1.4,0.4 3.2,0.6 C4.9,0.7 7.1,2.7 7,3.3 Z"></path>
                    <path d="M23,4.1 C23,4.7 24.5,4.3 26.2,4.1 C28,3.9 29.4,4.1 29.4,3.5 C29.3,2.9 28.6,1.2 26.8,1.4 C25.1,1.6 22.9,3.5 23,4.1 Z"></path>
                </g>
                <g transform="translate(24.000000, 48.000000)" id="Shape">
                    <path d="M15.4,2.3 C15.4,4.9 12.1,7 8,7 C3.9,7 0.6,4.9 0.6,2.3" fill="#F7910B"></path>
                    <path d="M10,2 L6,2 C5.4,2 5,1.6 5,1 C5,0.4 5.4,0 6,0 L10,0 C10.6,0 11,0.4 11,1 C11,1.6 10.6,2 10,2 Z" fill="#02243E"></path>
                </g>
            </g>
            <g id="Group" transform="translate(17.000000, 48.000000)" fill="#00233F">
                <polygon id="Shape" points="11.6 0 0.4 4.6 15 3.5 14.8 0"></polygon>
                <polygon id="Shape" points="18.4 0 29.6 4.6 15 3.5 15.2 0"></polygon>
            </g>
            <path d="M38,42 C38,49.2 35.3,49.3 32,49.3 C28.7,49.3 26,49.2 26,42 C26,34.8 28.7,29 32,29 C35.3,29 38,34.9 38,42 Z" id="Shape" fill="#F9B2DB"></path>
            <path d="M32,29 C35.3,29 38,34.8 38,42 C38,49.2 35.3,49.3 32,49.3" id="Shape" fill="#EA81B8"></path>
            <path d="M47,7.5 C47,8.3 46.3,9 45.5,9 L18.5,9 C17.7,9 17,8.3 17,7.5 L17,7.5 C17,6.7 17.7,6 18.5,6 L45.5,6 C46.3,6 47,6.7 47,7.5 L47,7.5 Z" id="Shape" fill="#00233F"></path>
            <path d="M21.2,8.7 C21.2,4.3 26,0.7 32,0.7 C38,0.7 42.8,4.3 42.8,8.7" id="Shape" fill="#00233F"></path>
        </g>
    </g>
</svg>