<svg height="62" viewBox="0 0 62 62" width="62" xmlns="http://www.w3.org/2000/svg"><g fill="none"><g transform="translate(0 3)"><path d="m61.3 35.3c0 13-11.9 23.5-30.3 23.5s-30.3-10.5-30.3-23.5 11.9-32.5 30.3-32.5 30.3 19.5 30.3 32.5z" fill="#f7910b"/><path d="m61.3 35.3c0 13-11.9 19.5-30.3 19.5s-30.3-6.5-30.3-19.5 11.9-34.5 30.3-34.5 30.3 21.5 30.3 34.5z" fill="#f7910b"/><path d="m31 .8c18.4 0 30.3 21.5 30.3 34.5s-11.9 19.5-30.3 19.5" fill="#f9a908"/><path d="m61.3 35.3c0 13-11.9 19.5-30.3 19.5s-30.3-6.5-30.3-19.5 11.9-32.5 30.3-32.5 30.3 19.5 30.3 32.5z" fill="#f9a908"/><path d="m.7 35.3c0-13 11.9-32.5 30.3-32.5" fill="#f9c55d"/><path d="m31 2.8c18.4 0 30.3 19.5 30.3 32.5s-11.9 23.5-30.3 23.5" fill="#f7910b"/><path d="m31 2.8c18.4 0 30.3 19.5 30.3 32.5" fill="#ea7103"/><g transform="translate(11 26)"><path d="m15.8 2.6c0 1.2-3.5.7-7.8.7s-7.8.6-7.8-.7c0-1.2 3.5-2.2 7.8-2.2s7.8 1 7.8 2.2z" fill="#f9c55d"/><path d="m39.8 2.6c0 1.2-3.5.7-7.8.7s-7.8.6-7.8-.7c0-1.2 3.5-2.2 7.8-2.2s7.8 1 7.8 2.2z" fill="#f9a908"/></g><ellipse cx="9.3" cy="32.3" fill="#f7910b" rx="1" ry="1"/><ellipse cx="4.8" cy="34.3" fill="#f7910b" rx="1.1" ry="1.1"/><ellipse cx="7.8" cy="30.3" fill="#f7910b" rx="1" ry="1"/><circle cx="12.4" cy="32.1" fill="#f7910b" r="1"/><circle cx="51.6" cy="32.7" fill="#f9a908" r="1"/><circle cx="54.1" cy="34" fill="#f9a908" r="1"/><circle cx="48.8" cy="25.2" fill="#f9a908" r="1"/><circle cx="48.3" cy="36.8" fill="#f9a908" r="1.3"/><circle cx="55.5" cy="36.9" fill="#f9a908" r="1"/><ellipse cx="8.3" cy="36.3" fill="#f7910b" rx="1" ry="1"/><circle cx="9.1" cy="27.9" fill="#f7910b" r="1"/><g fill="#f9a908"><ellipse cx="3.8" cy="14.2" rx="1.1" ry="1.1"/><ellipse cx="7" cy="10.6" rx="1" ry="1"/><circle cx="58.2" cy="16.5" r="1"/><ellipse cx="57.4" cy="13.6" rx="1" ry="1"/><circle cx="60" cy="14.2" r="1"/><ellipse cx="5" cy="17.1" rx="1" ry="1"/></g><g transform="translate(19 29)"><path d="m21.5 16.8c0 2.6-4.2 4.7-9.5 4.7-5.2 0-9.5-2.1-9.5-4.7" fill="#f7910b"/><path d="m23.7 10.3c0 6.7-5.2 9.3-11.7 9.3s-11.7-2.6-11.7-9.3 5.2-10.2 11.7-10.2c6.5.1 11.7 3.6 11.7 10.2z" fill="#c42260"/><path d="m23.5 12.2c-1.4-.3-3-.5-4.6-.5-2.5 0-4.9.4-7 1.2-2.1-.7-4.4-1.2-7-1.2-1.6 0-3.1.2-4.6.5.9 5.3 5.7 7.4 11.5 7.4 6 0 10.8-2.1 11.7-7.4z" fill="#e2446e"/><path d="m23.2 7c-1.2-4.1-5.9-7-11.2-7-5.4 0-10 3-11.2 7z" fill="#99144a"/></g><g transform="translate(15 20)"><path d="m8.5 7.3c-.4-.2-.7-.5-.9-.9-.7-1.9-2.8-2.8-4.7-2.1-.8.3-1.8-.1-2.1-1-.3-.8.1-1.8.9-2.1 3.6-1.4 7.6.4 8.9 4 .3.9-.1 1.8-1 2.1-.3.2-.8.2-1.1 0z" fill="#1e4784"/><path d="m10.7 5.2c.3.9-.1 1.8-1 2.1-.4.2-.9.1-1.3 0-.4-.2-.7-.5-.9-.9-.7-1.9-2.8-2.8-4.7-2.1-.8.3-1.8-.1-2.1-1-.3-.8.1-1.8.9-2.1" fill="#02243e"/></g><g transform="translate(36 20)"><path d="m2.5 7.3c.4-.2.7-.5.9-.9.7-1.9 2.8-2.8 4.7-2.1.8.3 1.8-.1 2.1-1 .3-.8-.1-1.8-.9-2.1-3.6-1.4-7.6.4-8.9 4-.3.9.1 1.8 1 2.1.3.2.8.2 1.1 0z" fill="#1e4784"/><path d="m.3 5.2c-.3.9.1 1.8 1 2.1.4.2.9.1 1.3 0 .4-.2.7-.5.9-.9.7-1.9 2.8-2.8 4.7-2.1.8.3 1.8-.1 2.1-1 .3-.8-.1-1.8-.9-2.1" fill="#02243e"/></g><g fill="#109da0" transform="translate(16 13)"><path d="m10.6 7.3c-1 1.7-2.6-.4-5.3-1.9-2.6-1.5-5.3-1.9-4.3-3.6 1-1.7 3.9-1.8 6.5-.3 2.7 1.6 4 4.2 3.1 5.8z"/><path d="m19.4 7.3c1 1.7 2.6-.4 5.3-1.9 2.6-1.5 5.3-1.9 4.3-3.6-1-1.7-3.9-1.8-6.5-.3-2.7 1.6-4 4.2-3.1 5.8z"/></g></g><path d="m56 10.8 4.5 4.1-6.1-.3.3 6.1-4.1-4.6-4 4.6.3-6.1-6.1.3 4.5-4.1-4.5-4.1 6.1.4-.3-6.1 4 4.5 4.1-4.5-.3 6.1 6.1-.4z" fill="#b20644"/><path d="m55.6 8.8 5.7 2.2-5.8 1.9 2.6 5.5-5.5-2.6-2.1 5.7-2-5.8-5.5 2.6 2.7-5.5-5.7-2.1 5.8-2-2.6-5.5 5.5 2.7 2.1-5.7 1.9 5.7 5.6-2.5z" fill="#ff004f"/></g></svg>