<?xml version="1.0" encoding="UTF-8"?>
<svg width="62px" height="62px" viewBox="0 0 62 62" version="1.1" xmlns="http://www.w3.org/2000/svg" xmlns:xlink="http://www.w3.org/1999/xlink">
    <!-- Generator: Sketch 43.1 (39012) - http://www.bohemiancoding.com/sketch -->
    <title>imgly_sticker_emoticons_skull</title>
    <desc>Created with Sketch.</desc>
    <defs></defs>
    <g id="Page-1" stroke="none" stroke-width="1" fill="none" fill-rule="evenodd">
        <g id="skull" fill-rule="nonzero">
            <g id="Group" transform="translate(0.000000, 2.000000)">
                <path d="M61.3,34.7 C61.3,47.7 49.4,58.2 31,58.2 C12.6,58.2 0.7,47.7 0.7,34.7 C0.7,21.7 12.6,2.2 31,2.2 C49.4,2.2 61.3,21.7 61.3,34.7 Z" id="Shape" fill="#F7910B"></path>
                <path d="M61.3,34.7 C61.3,47.7 49.4,54.2 31,54.2 C12.6,54.2 0.7,47.7 0.7,34.7 C0.7,21.7 12.6,0.2 31,0.2 C49.4,0.2 61.3,21.7 61.3,34.7 Z" id="Shape" fill="#F7910B"></path>
                <path d="M31,0.2 C49.4,0.2 61.3,21.7 61.3,34.7 C61.3,47.7 49.4,54.2 31,54.2" id="Shape" fill="#F9A908"></path>
                <path d="M61.3,34.7 C61.3,47.7 49.4,54.2 31,54.2 C12.6,54.2 0.7,47.7 0.7,34.7 C0.7,21.7 12.6,2.2 31,2.2 C49.4,2.2 61.3,21.7 61.3,34.7 Z" id="Shape" fill="#F9A908"></path>
                <path d="M0.7,34.7 C0.7,21.7 12.6,2.2 31,2.2" id="Shape" fill="#F9C55D"></path>
                <path d="M31,2.2 C49.4,2.2 61.3,21.7 61.3,34.7 C61.3,47.7 49.4,58.2 31,58.2" id="Shape" fill="#F7910B"></path>
                <path d="M37,31.2 C37,33.5 34.2,35.4 30.8,35.4 C27.4,35.4 24.6,33.5 24.6,31.2 C24.6,28.9 27.4,27 30.8,27 C34.2,27 37,28.9 37,31.2 Z" id="Shape" fill="#00233F"></path>
                <path d="M31,2.2 C49.4,2.2 61.3,21.7 61.3,34.7" id="Shape" fill="#EA7103"></path>
                <ellipse id="Oval" fill="#F7910B" cx="9.3" cy="31.6" rx="1" ry="1"></ellipse>
                <ellipse id="Oval" fill="#F7910B" cx="4.8" cy="33.6" rx="1.1" ry="1.1"></ellipse>
                <circle id="Oval" fill="#F7910B" cx="7.8" cy="29.6" r="1"></circle>
                <circle id="Oval" fill="#F7910B" cx="12.4" cy="31.5" r="1"></circle>
                <circle id="Oval" fill="#F9A908" cx="51.6" cy="32" r="1"></circle>
                <circle id="Oval" fill="#F9A908" cx="54.1" cy="33.4" r="1"></circle>
                <circle id="Oval" fill="#F9A908" cx="48.8" cy="24.6" r="1"></circle>
                <ellipse id="Oval" fill="#F9A908" cx="48.3" cy="36.2" rx="1.3" ry="1.3"></ellipse>
                <circle id="Oval" fill="#F9A908" cx="55.5" cy="36.3" r="1"></circle>
                <circle id="Oval" fill="#F7910B" cx="8.3" cy="35.7" r="1"></circle>
                <circle id="Oval" fill="#F7910B" cx="9.1" cy="27.3" r="1"></circle>
                <ellipse id="Oval" fill="#F9A908" cx="3.8" cy="13.5" rx="1.1" ry="1.1"></ellipse>
                <ellipse id="Oval" fill="#F9A908" cx="7" cy="10" rx="1" ry="1"></ellipse>
                <circle id="Oval" fill="#F9A908" cx="58.2" cy="15.9" r="1"></circle>
                <ellipse id="Oval" fill="#F9A908" cx="57.4" cy="13" rx="1" ry="1"></ellipse>
                <path d="M60.5,13.5 C60.5,13.8 60.3,14 60,14 C59.7,14 59.5,13.8 59.5,13.5 C59.5,13.2 59.7,13 60,13 C60.2,13 60.5,13.2 60.5,13.5 Z" id="Shape" fill="#F9A908"></path>
                <ellipse id="Oval" fill="#F9A908" cx="5" cy="16.5" rx="1" ry="1"></ellipse>
                <path d="M38.4,32.2 C38.4,34.8 35.1,39.4 31,39.4 C26.9,39.4 23.6,34.8 23.6,32.2" id="Shape" fill="#F7910B"></path>
                <g transform="translate(15.000000, 11.000000)">
                    <ellipse id="Oval" fill="#D87703" cx="4.6" cy="7.5" rx="3.5" ry="3.5"></ellipse>
                    <path d="M30.9,7.5 C30.9,9.4 29.3,11 27.4,11 C25.5,11 23.9,9.4 23.9,7.5 C23.9,5.6 25.5,4 27.4,4 C29.4,4 30.9,5.6 30.9,7.5 Z" id="Shape" fill="#D87703"></path>
                    <ellipse id="Oval" fill="#1E4784" cx="4.6" cy="6.5" rx="3.5" ry="3.5"></ellipse>
                    <path d="M4.6,3 C6.5,3 8.1,4.6 8.1,6.5 C8.1,8.4 6.5,10 4.6,10" id="Shape" fill="#00233F"></path>
                    <path d="M30.9,6.5 C30.9,8.4 29.3,10 27.4,10 C25.5,10 23.9,8.4 23.9,6.5 C23.9,4.6 25.5,3 27.4,3 C29.4,3 30.9,4.6 30.9,6.5 Z" id="Shape" fill="#1E4784"></path>
                    <path d="M27.4,3 C29.3,3 30.9,4.6 30.9,6.5 C30.9,8.4 29.4,10 27.4,10" id="Shape" fill="#00233F"></path>
                    <path d="M0.5,5.8 C0.5,3.5 2.3,0.7 4.6,0.7 C6.9,0.7 8.7,3.5 8.7,5.8" id="Shape" fill="#F9A908"></path>
                    <path d="M23.3,5.8 C23.3,3.5 25.1,0.7 27.4,0.7 C29.6,0.7 31.5,3.5 31.5,5.8" id="Shape" fill="#F7910B"></path>
                </g>
                <g transform="translate(11.000000, 21.000000)" id="Shape">
                    <path d="M15.8,2.3 C15.8,3.5 12.3,3 8,3 C3.7,3 0.2,3.6 0.2,2.3 C0.2,1 3.7,0.1 8,0.1 C12.3,0.1 15.8,1.1 15.8,2.3 Z" fill="#F9C55D"></path>
                    <path d="M39.8,2.3 C39.8,3.5 36.3,3 32,3 C27.7,3 24.2,3.6 24.2,2.3 C24.2,1 27.7,0.1 32,0.1 C36.3,0.1 39.8,1.1 39.8,2.3 Z" fill="#F9A908"></path>
                </g>
                <g transform="translate(15.000000, 11.000000)" id="Shape" fill="#19BCA4">
                    <path d="M10.2,2.7 C10.2,3.8 7.9,3.2 5.1,3.1 C2.3,3 0,3.5 0,2.4 C0,1.3 2.3,0.4 5.1,0.5 C8,0.6 10.3,1.6 10.2,2.7 Z"></path>
                    <path d="M21.8,2.7 C21.8,3.8 24.1,3.2 26.9,3.1 C29.7,3 32,3.5 32,2.4 C32,1.3 29.7,0.4 26.9,0.5 C24,0.6 21.7,1.6 21.8,2.7 Z"></path>
                </g>
            </g>
            <g id="Group" transform="translate(4.000000, 0.000000)">
                <path d="M53.9,27.4 C53.9,12.5 41.9,0.4 27,0.4 C12.1,0.4 0.1,12.5 0.1,27.4 C0.1,37.1 5.2,45.5 12.8,50.3 L12.8,58.6 C12.8,60.3 14.4,61.7 16.4,61.7 L37.6,61.7 C39.6,61.7 41.2,60.3 41.2,58.6 L41.2,50.3 C48.9,45.5 53.9,37 53.9,27.4 Z" id="Shape" fill="#FFFFFF"></path>
                <path d="M53.9,27.4 C53.9,12.5 41.9,2.6 27,2.6 C12.1,2.6 0.1,12.5 0.1,27.3 C0.1,37 5.2,45.4 12.8,50.2 L12.8,58.5 C12.8,60.2 14.4,61.6 16.4,61.6 L37.6,61.6 C39.6,61.6 41.2,60.2 41.2,58.5 L41.2,50.2 C48.9,45.5 53.9,37 53.9,27.4 Z" id="Shape" fill="#E2F2EF"></path>
                <path d="M26.9,61.6 L37.6,61.6 C39.6,61.6 41.2,60.2 41.2,58.5 L41.2,50.2 C48.8,45.4 53.9,37 53.9,27.3 C53.9,12.5 41.9,2.5 27,2.5" id="Shape" fill="#C7E2DD"></path>
                <path d="M20.9,60.4 L20.9,48.7 C20.9,48.1 20.5,47.7 19.9,47.7 C19.3,47.7 18.9,48.1 18.9,48.7 L18.9,60.3 L20.9,60.3 L20.9,60.4 Z" id="Shape" fill="#617F79"></path>
                <path d="M28,60.4 L28,48.7 C28,48.1 27.6,47.7 27,47.7 C26.4,47.7 26,48.1 26,48.7 L26,60.3 L28,60.3 L28,60.4 Z" id="Shape" fill="#617F79"></path>
                <path d="M35.1,60.4 L35.1,48.7 C35.1,48.1 34.7,47.7 34.1,47.7 C33.5,47.7 33.1,48.1 33.1,48.7 L33.1,60.3 L35.1,60.3 L35.1,60.4 Z" id="Shape" fill="#617F79"></path>
                <g transform="translate(4.000000, 20.000000)">
                    <path d="M15.9,9.2 C15.9,13.3 12.6,19.7 8.4,19.7 C4.3,19.7 0.9,13.4 0.9,9.2 C0.9,5 4.2,0.7 8.4,0.7 C12.6,0.7 15.9,5.1 15.9,9.2 Z" id="Shape" fill="#9CBCB6"></path>
                    <path d="M45,9.2 C45,13.3 41.7,19.7 37.5,19.7 C33.4,19.7 30,13.4 30,9.2 C30,5 33.3,0.7 37.5,0.7 C41.7,0.7 45,5.1 45,9.2 Z" id="Shape" fill="#7FA39C"></path>
                    <path d="M15.9,10.5 C15.9,14.6 12.6,18 8.4,18 C4.3,18 0.9,14.7 0.9,10.5 C0.9,6.3 4.2,3 8.4,3 C12.6,3 15.9,6.3 15.9,10.5 Z" id="Shape" fill="#F7910B"></path>
                    <path d="M13.7,5.2 C16.6,8.1 16.6,12.8 13.7,15.8 C10.8,18.7 6.1,18.7 3.2,15.8" id="Shape" fill="#F9A908"></path>
                    <ellipse id="Oval" fill="#F7910B" cx="37.5" cy="10.5" rx="7.5" ry="7.5"></ellipse>
                    <path d="M42.8,5.2 C45.7,8.1 45.7,12.8 42.8,15.8 C39.9,18.7 35.2,18.7 32.2,15.8" id="Shape" fill="#F9A908"></path>
                </g>
                <path d="M6.5,39.5 C5.4,39.5 4.3,39.8 3.4,40.3 C5.6,44.3 8.8,47.7 12.7,50.2 L12.7,45.8 C12.8,42.3 10,39.5 6.5,39.5 Z" id="Shape" fill="#8FA8A3"></path>
                <path d="M12.8,50.2 L12.8,45.8 C12.8,42.3 10,39.6 6.6,39.6" id="Shape" fill="#617F79"></path>
                <path d="M50.6,40.3 C49.7,39.8 48.6,39.5 47.5,39.5 C44,39.5 41.3,42.3 41.3,45.7 L41.3,50.1 C45.1,47.8 48.4,44.4 50.6,40.3 Z" id="Shape" fill="#8FA8A3"></path>
                <path d="M47.5,39.5 C44,39.5 41.3,42.3 41.3,45.7 L41.3,50.1" id="Shape" fill="#617F79"></path>
                <path d="M4.1,38.9 C4.1,40 3.2,40.9 2.1,40.9 L2.1,40.9 C1,40.9 0.1,40 0.1,38.9 L0.1,27.7 C0.1,26.6 1,25.7 2.1,25.7 L2.1,25.7 C3.2,25.7 4.1,26.6 4.1,27.7 L4.1,38.9 Z" id="Shape" fill="#E2F2EF"></path>
                <path d="M53.9,38.9 C53.9,40 53,40.9 51.9,40.9 L51.9,40.9 C50.8,40.9 49.9,40 49.9,38.9 L49.9,27.7 C49.9,26.6 50.8,25.7 51.9,25.7 L51.9,25.7 C53,25.7 53.9,26.6 53.9,27.7 L53.9,38.9 Z" id="Shape" fill="#C7E2DD"></path>
                <g transform="translate(22.000000, 30.000000)" id="Shape">
                    <path d="M7.6,11.4 C6.5,11.4 5.6,10.8 5.3,9.9 C5.3,9.8 5.2,9.8 5.1,9.8 C5,9.8 4.9,9.8 4.9,9.9 C4.6,10.8 3.6,11.4 2.6,11.4 C1.2,11.4 0.1,10.4 0.1,9.2 C0.1,8.8 0.2,8.3 0.5,8 L0.5,8 L0.5,8 L5.1,0.1 L9.7,8 L9.7,8 L9.7,8 C10,8.4 10.1,8.8 10.1,9.2 C10,10.4 8.9,11.4 7.6,11.4 Z" fill="#9CBCB6"></path>
                    <path d="M7.6,11.8 C6.5,11.8 5.6,11.2 5.3,10.3 C5.3,10.2 5.2,10.2 5.1,10.2 C5,10.2 4.9,10.2 4.9,10.3 C4.6,11.2 3.6,11.8 2.6,11.8 C1.2,11.8 0.1,10.8 0.1,9.6 C0.1,9.2 0.2,8.7 0.5,8.4 L0.5,8.4 L0.5,8.4 L5.1,3 L9.7,8.4 L9.7,8.4 L9.7,8.4 C10,8.8 10.1,9.2 10.1,9.6 C10,10.8 8.9,11.8 7.6,11.8 Z" fill="#F9A908"></path>
                    <path d="M5,10.2 C4.9,10.2 4.8,10.2 4.8,10.3 C4.5,11.2 3.5,11.8 2.5,11.8 C1.1,11.8 0,10.8 0,9.6 C0,9.2 0.1,8.7 0.4,8.4 L0.4,8.4 L0.4,8.4 L5,3" fill="#EA7103"></path>
                </g>
                <path d="M27.6,31.2 C27.6,31.5 27.3,31.8 27,31.8 L27,31.8 C26.7,31.8 26.4,31.5 26.4,31.2 L26.4,24.6 C26.4,24.3 26.7,24 27,24 L27,24 C27.3,24 27.6,24.3 27.6,24.6 L27.6,31.2 Z" id="Shape" fill="#9CBCB6"></path>
                <path d="M2.3,37.3 C2.3,37.7 2,38 1.6,38 L1.6,38 C1.2,38 0.9,37.7 0.9,37.3 L0.9,29.2 C0.9,28.8 1.2,28.5 1.6,28.5 L1.6,28.5 C2,28.5 2.3,28.8 2.3,29.2 L2.3,37.3 Z" id="Shape" fill="#FFFFFF"></path>
                <ellipse id="Oval" fill="#FFFFFF" cx="1.7" cy="26.4" rx="1" ry="1"></ellipse>
                <g transform="translate(25.000000, 7.000000)">
                    <circle id="Oval" fill="#9CBCB6" cx="2" cy="1.2" r="1.2"></circle>
                    <path d="M2,0 C2.6,0 3.2,0.5 3.2,1.2 C3.2,1.8 2.7,2.4 2,2.4" id="Shape" fill="#E2F2EF"></path>
                </g>
                <g transform="translate(25.000000, 12.000000)">
                    <circle id="Oval" fill="#9CBCB6" cx="2" cy="1.7" r="1.2"></circle>
                    <path d="M2,0.6 C2.6,0.6 3.2,1.1 3.2,1.8 C3.2,2.4 2.7,3 2,3" id="Shape" fill="#E2F2EF"></path>
                </g>
                <g transform="translate(25.000000, 18.000000)">
                    <circle id="Oval" fill="#9CBCB6" cx="2" cy="1.3" r="1.2"></circle>
                    <path d="M2,0.1 C2.6,0.1 3.2,0.6 3.2,1.3 C3.2,1.9 2.7,2.5 2,2.5" id="Shape" fill="#E2F2EF"></path>
                </g>
                <g transform="translate(18.000000, 48.000000)" id="Shape">
                    <g>
                        <path d="M2.9,13.5 L2.9,1.9 C2.9,1.3 2.5,0.9 1.9,0.9 C1.3,0.9 0.9,1.3 0.9,1.9 L0.9,13.5 L2.9,13.5 Z" fill="#8FA8A3"></path>
                        <path d="M2.9,13.5 L2.9,1.9 C2.9,1.3 2.5,0.9 1.9,0.9 C1.3,0.9 0.9,1.3 0.9,1.9" fill="#76938D"></path>
                    </g>
                    <g transform="translate(8.000000, 0.000000)">
                        <path d="M2,13.5 L2,1.9 C2,1.3 1.6,0.9 1,0.9 C0.4,0.9 0,1.3 0,1.9 L0,13.5 L2,13.5 Z" fill="#8FA8A3"></path>
                        <path d="M2,13.5 L2,1.9 C2,1.3 1.6,0.9 1,0.9 C0.4,0.9 0,1.3 0,1.9" fill="#76938D"></path>
                    </g>
                    <g transform="translate(15.000000, 0.000000)">
                        <path d="M2.1,13.5 L2.1,1.9 C2.1,1.3 1.7,0.9 1.1,0.9 C0.5,0.9 0.1,1.3 0.1,1.9 L0.1,13.5 L2.1,13.5 Z" fill="#8FA8A3"></path>
                        <path d="M2.1,13.5 L2.1,1.9 C2.1,1.3 1.7,0.9 1.1,0.9 C0.5,0.9 0.1,1.3 0.1,1.9" fill="#76938D"></path>
                    </g>
                </g>
            </g>
            <g id="Group" transform="translate(15.000000, 16.000000)">
                <g transform="translate(0.000000, 8.000000)">
                    <ellipse id="Oval" fill="#D87703" cx="4.6" cy="7.2" rx="3.5" ry="3.5"></ellipse>
                    <path d="M30.9,7.2 C30.9,9.1 29.3,10.7 27.4,10.7 C25.5,10.7 23.9,9.1 23.9,7.2 C23.9,5.3 25.5,3.7 27.4,3.7 C29.4,3.7 30.9,5.3 30.9,7.2 Z" id="Shape" fill="#D87703"></path>
                    <ellipse id="Oval" fill="#1E4784" cx="4.6" cy="6.2" rx="3.5" ry="3.5"></ellipse>
                    <path d="M4.6,2.7 C6.5,2.7 8.1,4.3 8.1,6.2 C8.1,8.1 6.5,9.7 4.6,9.7" id="Shape" fill="#00233F"></path>
                    <path d="M30.9,6.2 C30.9,8.1 29.3,9.7 27.4,9.7 C25.5,9.7 23.9,8.1 23.9,6.2 C23.9,4.3 25.5,2.7 27.4,2.7 C29.4,2.7 30.9,4.3 30.9,6.2 Z" id="Shape" fill="#1E4784"></path>
                    <path d="M27.4,2.7 C29.3,2.7 30.9,4.3 30.9,6.2 C30.9,8.1 29.3,9.7 27.4,9.7" id="Shape" fill="#00233F"></path>
                    <path d="M0.5,5.5 C0.5,3.2 2.3,0.4 4.6,0.4 C6.9,0.4 8.7,3.2 8.7,5.5" id="Shape" fill="#F9A908"></path>
                    <path d="M23.3,5.5 C23.3,3.2 25.1,0.4 27.4,0.4 C29.6,0.4 31.5,3.2 31.5,5.5" id="Shape" fill="#F7910B"></path>
                </g>
                <g id="Shape" fill="#19BCA4">
                    <path d="M10.2,2.3 C10.2,3.4 7.9,2.8 5.1,2.7 C2.3,2.6 0,3.1 0,2 C0,0.9 2.3,-1.1379786e-15 5.1,0.1 C8,0.2 10.3,1.2 10.2,2.3 Z"></path>
                    <path d="M21.8,2.3 C21.8,3.4 24.1,2.8 26.9,2.7 C29.7,2.6 32,3.1 32,2 C32,0.9 29.7,-1.1379786e-15 26.9,0.1 C24,0.2 21.7,1.2 21.8,2.3 Z"></path>
                </g>
            </g>
        </g>
    </g>
</svg>