<svg height="2039" viewBox="0 0 1912 2039" width="1912" xmlns="http://www.w3.org/2000/svg"><path d="m164.939823 866.810603c2.217439-6.373341 3.60945-12.444696 13.014154-12.858848 6.269803-.273225 14.325637-3.039992 18.029998-7.587037 4.541293-5.579549 13.166586-6.905411 14.823194-14.923856-11.10733-1.50993-8.075966-18.467158-20.506282-18.67711-10.290529-.175439-20.848532-5.645698-30.857208 3.845287-2.180051-8.688566 2.548186-11.248256 7.109611-12.459076 7.794113-2.07076 20.155403 6.842138 21.633696-9.562887 5.389729.644237 12.648896-.419904 13.534721 6.741476.813924 6.571789 4.020727 10.60402 9.240769 8.731707 6.497011-2.335358 14.302628-6.476879 17.158552-12.073684 3.34773-6.560285-5.691715-8.881262-11.179231-11.823468 6.223786-4.365853 11.409316-3.856792 16.054147.520566 5.44725 5.122257 11.912625 12.131206 18.047253 3.586442 7.115364-9.899385-4.630451-11.184983-9.844741-15.105047 0 0 .10929.296233.112167.296233 4.388862-5.55654 9.758459-6.393473 16.117419-3.652591 7.727964 3.327597 16.169189.834056 21.92993-2.594203 5.614062-3.333349-1.167679-3.183794-3.543302-3.597946l.247341.284729c-8.559143-10.74207-15.340884-22.559786-21.116005-34.984349l-.235837.304862c9.588772-13.307513 3.56631-31.061409-13.908608-38.067482 8.720202-4.115636 17.443281 2.088017 25.214385-2.277836 3.232688-1.814792 8.326184-1.098654 8.027074-6.732848-.241589-4.512533-2.832916-6.059851-7.425978-7.348324-10.031684-2.815659-8.004065-3.077381-5.910296-13.98051 1.420772-7.425978-2.585574-15.208586 4.012099-22.861772 2.467656-2.861676-4.650583-5.222918-8.449853-4.50678-7.581285 1.432276-15.018767 3.36211-25.51062.368135 12.55111-13.209727 31.613611-4.084 41.34331-16.735772l-.307738-.307738c-.483178 9.637665 4.400366 15.087792 13.482952 17.270718-24.932533 3.293085-9.286786 20.578183-11.354671 34.823291 7.316688-20.204296 17.696375-9.945403 28.372296-3.86542-3.097513-7.817121-12.680532-9.462226-9.071082-17.431778 4.104133-9.062453-3.905684-10.163983-8.30605-13.736045 8.935907-2.053504 18.165172-6.048346 23.508884 6.350333 1.94709 4.52116 5.228671 6.566036 7.080851-.667245 1.182059-4.627575 5.43287-5.369598 7.201645-1.912578 6.301439 12.303769 12.479208 1.863685 18.740383.658617 3.597947-.696006 7.147-1.561699 5.950561-6.126-.923214-3.540425-1.236705-8.188132-6.502764-8.697194-7.16138-.69313-14.492448-3.626707-21.371974.802419-8.625293 5.550789-10.31929-3.238439-14.224975-6.902535-3.718741-3.482904-.514814-6.543028 2.358366-7.822873 4.653459-2.059256 9.048073-5.582425 14.201966 1.45816 10.103586 13.799319 18.038626-2.804154 25.30642-5.286191 8.927279-3.051496-5.519152-8.697194-5.956313-16.080031 15.038899 5.450127 27.66191-6.660947 42.447716-4.089752 3.301713.572335 8.513127-2.789775 10.276149-7.647434.839809-2.312349.822552-4.607442-1.34887-6.03109-5.148141-3.37649-8.320431.158183-11.386307 3.620955-3.385119 3.822279-5.904544 1.426524-8.300299-1.173431-3.534673-3.830907-7.05209-7.532392-13.008403-5.056107l.353755.304862c-.946222-4.771378-1.892445-9.542755-2.789774-14.066792-3.474276-.488929-4.184662 2.016116-5.611186 3.606575-2.372747 2.64022-5.867155 5.401234-8.366448 1.912577-2.674733-3.730245 1.282721-5.849898 4.607442-6.985941 15.315-5.231546 28.645521-18.550563 47.129935-11.170602 2.970966 1.187811 4.618947-2.456152 5.625566-5.133761 8.668434-23.071724 2.539558-31.412287-24.055335-32.78129l.330747.278977c7.362704-7.771104 19.462273-13.816574 10.126594-27.69067l-.359507.232961c9.050949 2.249076 17.64173 7.696326 27.460586 4.22205 2.433144-4.82027-8.662682-3.048619-3.986214-8.513126 2.401507-2.807031 5.539284-3.336226 9.048073-1.023877 2.303721 1.518558 5.453003 1.806164 7.656062 3.416755 7.5554 5.533533 11.728558-1.055512 15.674507-4.895048 6.266927-6.100115-3.316093-6.23529-4.60169-9.672177-.960603-2.576946-2.070761-5.102124-3.114769-7.656062l-.270349.330747c11.277017-1.587584 20.727738-14.762798 34.150293-4.733989 2.407259 1.803287 8.516002.672997 7.359828-7.158504-1.311482-8.872634-4.719609-15.69464-10.8226-21.941434-2.804155-2.870304-11.452456-5.706096-4.253687-10.946271 4.282447-3.117645 12.855971-.62698 14.325636 4.929561 2.274961 8.567772 5.197034 9.450721 12.289389 5.593929 3.853915-2.093769 9.637665-2.154166 9.715318-7.831501.069026-5.015842-4.975577-5.378225-8.688566-6.379093-9.893634-2.674732-6.761608-6.609177-1.308606-11.153346 3.701485-3.083133 9.482358-4.167406 10.638533-11.504226-9.301166-1.153298-17.213197 1.852181-25.036071 5.651451-3.497284 1.699749-7.526639 4.239307-10.21-.880073-1.535814-2.930702-3.2672-6.663823-2.68336-9.594524.920338-4.604566 5.677335-4.509657 9.677929-4.705228 5.982198-.281854 11.973023 4.538417 18.136412-.112167.270349-6.111619-5.694592-6.284183-8.921527-8.587904-4.690848-3.359234-8.26291-5.9218-3.609451-11.912625 10.097834-13.002651.092034-13.641135-9.142983-14.420547-3.928693-.330746-7.906279-.017256-11.855104-.198447-6.295688-.296234-8.308927-4.590186-5.697468-9.214885 3.203927-5.671583 14.081172-8.001189 6.358961-17.932211-.834057-1.069893 3.123397-2.343986 5.277563-1.265465 2.847296 1.426524 8.170876 3.78489 7.960924 4.575806-6.675327 25.545132 13.298885 12.349785 21.975947 15.211462 2.036247.670121 4.362977.483177 6.931295.727642-9.654921 10.871493-.353755 26.146228 18.766268 31.915597 2.134034-4.834651-2.890437-5.053231-4.641955-7.411597-3.244192-4.36873-3.094637-9.246521 2.456152-10.63278 3.065876-.770784 9.856245-2.51655 9.680806 5.332208-.422781 19.200552 11.213743 11.187859 20.405619 9.764211 1.832048-6.845014-17.877566-15.990873 2.479161-19.393248.862817-.509062 1.797535-1.038256 2.766766-1.570326 1.325862-.388268 2.651724-.779412 3.98909-1.164803.005753-.002876-.011504-.4084-.011504-.4084.48893 11.515729 8.639673 17.000369 17.359876 22.050724-7.348324 13.454191-17.719383 22.096741-33.72176 23.971929-4.420499.51769-13.842459-5.720476-13.201099 3.733121.460169 6.798998 9.286786 5.729105 15.570969 4.480896 3.77051-.750651 7.739468-.411276 11.555994-1.00662 18.392381-2.878932 25.778093-14.869211 19.505415-31.400783 5.777997 2.182927 12.194478 4.365854 14.846202 10.094958 7.589913 16.405025 24.325685 16.11742 37.753992 19.82178 12.128329 3.344854 12.568366-6.396349 9.214884-15.56234 11.466837-7.587037 26.652414-4.049488 38.852645-12.096693-6.479754-6.609178-13.445563-5.234423-20.606943-5.588178-17.221826-.851313-20.109386 1.432276-17.932211 17.95522-2.476285-1.317234-5.697468-4.374482-7.325316-3.681352-17.549696 7.451862-16.681127-13.920113-27.256386-17.032006 7.989685-4.00347 7.075099-13.644011 12.306645-19.410504 11.354671-12.519473 24.840499-10.60402 33.756273 5.266059 1.446657 2.576947 2.260581 5.861403 5.312077 5.565169 7.653185-.739146-1.584708-8.849625 5.116504-11.852228 6.304315-2.821411-.974983-3.34773-2.134034-3.922941-5.093496-2.542434-10.71331-4.253687-10.339423-11.662408.402648-7.955172 10.244513.419904 10.972155-6.387722 1.345995-7.750971-14.463687-1.800411-9.660673-12.913492 4.613194-10.67017 13.063048-16.220958 23.281676-19.545679 3.620955-1.179183 4.003471 2.269208 3.968958 5.427118-.103538 9.928146 8.274414 11.54449 14.319884 15.852822 4.834651-8.651177-10.313538-15.513447-.106414-23.480123 2.02762-1.578955 5.050355-8.257158 5.57955-3.856792 1.944214 16.32162 25.809729 4.135769 21.328833 12.33253-5.369597 9.824608-13.241363 23.523264-28.044425 26.229633-2.226068.411276-4.618946.353755-6.669575 1.176307-4.872039 1.961471-13.278752-2.571194-14.455059 4.955445-1.000867 6.402102 6.977313 6.289936 11.386307 7.569781 9.795848 2.844419 1.754395 14.541341 11.170603 17.365628 9.810228-6.209406 7.871766-19.959831 15.130933-30.627124 27.736687 21.351842 51.251323 6.390597 74.817729-11.648028-6.442366-5.458755-18.415389-11.648028-3.146406-21.262685l-.373887-.255969c4.026479 8.34344 39.407724 24.184758 46.830825 20.92331.980736-.428532 2.482037-1.153298 2.576947-1.886693 2.758138-21.955814 20.048989-14.639127 32.582842-15.657251 6.744352-.552202 13.111941.025885 19.462273-3.692856 12.162843-7.123991 22.361338 7.725087 35.024615 4.27382 1.878064-.514814 1.478292 6.557408-3.678477 7.587036-5.110752 1.012372-10.906005-.957726-16.068526 3.198175 21.538786 8.191009 30.578231 2.395755 30.477569-19.007856-.011504-3.226935.212828-6.862271 3.40525-5.947685 8.090347 2.323854 16.284231-5.605434 24.015071.733395-.411276-14.679392-.411276-14.679392-33.871316-26.485603h30.80544c1.021-11.366175-10.457341-8.550516-14.941113-13.612375 17.023378-8.090346 46.206721-1.322986 54.558789 12.283637 3.90856 6.381969-.848437 7.762476-5.378225 9.117098-4.895048 1.463913-9.931023-2.772518-17.676243 1.952843 8.849626 8.987676 18.406761 14.820318 28.392428 6.793245 8.32906-6.704088 17.06652-7.581285 28.84685-9.539879-12.26063-8.308927-8.58216-10.828352 1.01812-17.555448 12.7323-8.924403 24.02945-17.078023 41.65392-14.141569-3.77913 7.072222-2.78402 16.471175-13.69002 18.326231-2.08802.359507-4.1329 2.663228-2.8588 5.211414 1.59908 3.198175 4.79438 2.775394 7.25053 1.389135 2.91345-1.6336 5.53641-3.874048 8.02995-6.131752 5.06474-4.590186 11.15623-6.284183 17.26784-4.014975 8.06447 2.993975 1.03251 7.85451.998 12.059305-.06903 7.621549 6.10299 7.172884 10.7737 4.4924 3.21256-1.8378 3.45127-9.479482 9.78435-4.851907 6.83926 5.001462-4.22205 8.346315-.32212 15.00151 14.65063-14.227851 31.45255-7.434606 48.03589-4.570054 8.77773 1.512806 17.07227 16.735772 13.83096 26.632282-3.37074 10.276149-10.57526 11.141842-20.3366 8.265786-8.9359-2.631592-18.63684-12.226116-27.42032 3.750377-2.45615 4.475144-18.00411 1.75727-27.53249 2.338234.42278-.371011.8053-.811048 1.27985-1.098654 7.76823-4.705228-.82255-16.333124 8.60228-20.327966-6.92266-7.566904-8.84675 2.240448-13.2126 3.626707-1.10728.348003-2.95946-1.018124-4.21917-1.94709-3.78202-2.77827-8.40959-5.757865-11.96727-1.604839-4.9497 5.772245 2.38425 8.521755 4.82027 12.344033 3.45702 5.438623 7.83725 9.617533 15.03889 8.774848 6.19791 8.306051 18.29747-.839808 24.25091 8.202513 11.94139-9.40758 7.22753 5.363845 11.06707 8.159372 6.74435-3.175166 10.69317-10.440085 18.57357-11.265513 5.37822-.560831 12.42456-4.279572 14.98425 2.223192 2.49642 6.350332-7.87752 4.469391-9.56864 9.703814 3.50016 5.677335 10.25314 3.261448 14.99001 5.815386 2.38425 1.282721 6.24104 1.668112 7.15563 3.557681 6.38484 13.152206 6.18927 13.24424 19.28683 9.781468 1.14179 17.492175 8.97905 20.368231 25.65442 9.387448-2.26633-4.851907-6.93417-2.496417-10.48035-3.4714-2.92782-.799544-5.28619-2.228944-5.64282-5.48464-.348-3.146405 1.05839-6.278431 4.1559-6.278431 17.94947 0-.59534-12.953757 6.11162-16.781788-1.7774-2.6546-4.13577-3.681352-7.19014-2.401507-12.62301 5.294819-20.52354 5.409862-34.9786-.434285 12.05643 3.387995 17.82868-12.263504 34.3545-6.266927 17.37713 6.304316 27.82872 7.264919 25.43009 22.634564 5.94193 2.15129 7.7107-6.54878 14.27674-4.55855-3.90568 15.683136 13.39379 14.27962 19.37312 22.769739-6.31582.675873-13.00265-1.228077-18.74326 2.065008 4.8404 15.084915 16.23821 15.20571 26.12897 10.109338 5.24305-2.700617.58384-9.758459-4.71961-12.942254 10.30203 3.776262 19.94545-5.220042 30.94349-1.03538 4.48665 1.708378 8.43547 1.860809 9.19763 7.008949 1.94709 13.117693 5.09062 14.610367 16.4798 7.204522 3.27871-2.131158 6.01959-5.444375 9.54276-6.767361 5.92467-2.217439 10.59251 1.4294 15.30349 4.797262 7.495 5.349465-.96635 6.813377-2.15129 9.99142-1.53294 4.11276.28186 7.670442 1.43803 11.294273-5.41561-5.110752-10.81972-10.146727-20.03461-18.740383 6.33308 16.252594-3.2672 20.353851-9.7412 22.96531-14.34289 5.789501.33937 21.259808-10.62415 27.198865 1.28847.974983 2.44464 2.286464 3.89418 2.870304 17.09528 6.891031 36.20955-6.140381 35.65447-24.239403 5.73773 7.989684 15.40703 8.032825 23.4226 11.35467 1.63648.675874 5.08487-.031636 5.96206-1.297101.89733-1.291349.10067-5.711848-.71901-5.933304-7.10673-1.91833-9.30979-13.534721-19.14015-9.689434 4.41762-6.094363 9.60602-11.302901 17.45478-12.286513 5.07624-.635608 13.15796-4.992834 14.17033 2.594203.88007 6.609178-6.18927 9.72107-15.32075 5.151017 7.33682 15.907468 21.79763 18.918699 31.49857 27.500851 3.56343 3.155033 26.74732-9.939651 30.12669-16.658119 2.69774-5.372473 4.93819-12.243371 11.11596-3.865419 8.14211 11.035428 13.74179 4.365853 17.96672-2.410136 5.48752-8.806484 11.6998-12.438943 25.46748-7.400093-16.40503 2.444648-16.76741 16.206578-24.92103 23.667068-7.27067 6.652318-11.96152 15.864327-22.68058 18.498794-3.2672.799544-6.43661 2.752386-6.81338 6.660947-.44866 4.561425 3.43114 5.070487 6.5229 6.335952 10.50336 4.316961 18.24858 9.807352 17.17006 23.589414-.69313 8.815113 5.3322 16.287107 14.52983 18.067386 8.27442 1.601963 13.78782 5.680211 19.49391 11.607763 4.94107 5.130885 11.60777 17.679119 19.58882 1.929834 3.2672 1.972975 14.96412-12.237619 10.60115 5.947685-.94048 3.920065 7.81424.986487 8.28879-1.673865 2.20881-12.398679 12.48784-12.401555 21.07862-15.404158 4.26806-1.492673 9.37019-4.68222 11.32015 1.553071 1.91258 6.146132-3.87692 8.472862-8.59365 10.517738-3.79352 1.64798-12.09957-4.170282-10.97216 5.058983.8772 7.170008 6.74435 2.053504 10.72482 2.122529 11.28564.201324 4.66784 6.896783 3.6152 11.492721l.29911-.319242c-12.74668-2.68336-20.52641 6.649442-31.69414 11.593383 12.15996 10.658665 18.77489-6.430862 28.20261-2.841543.7679 6.243918 5.10787 8.047205 10.5465 8.49587 12.75818-6.522896 25.53362-12.620135 39.85063-.543575-10.97215 9.165992-23.06885 15.996626-41.61078 17.492175 11.579 8.193885 23.01995 6.494135 30.17271 13.684276-6.66383-1.601963-13.66702-.730518-15.19421 6.218034-1.5732 7.155628 6.0426 6.128876 10.61552 7.328191 2.09665.546451 4.74837 1.046885 5.9707 2.536682 8.49012 10.336547 17.92358.658617 26.79621 1.558823.13806-10.721938-10.65003-9.212009-15.78379-14.040907-1.19644-1.124538-2.81566-1.803288-4.23643-2.689113 5.01871.667245 10.02305 1.645104 15.06478 1.96147 20.32221 1.268341 33.55207 12.392927 33.98348 30.839953.16106 6.525771-4.74262 12.996898-12.80133 13.031411-7.63017.037389-14.5701 4.043735-15.39553 9.741203-.93184 6.485507 6.88816 7.287926 12.80133 7.207397 2.39863-.037389 4.64196 1.023876 4.90368 3.638211.38827 3.851039-2.39288 4.725361-5.49615 4.610318-8.54188-.307738-16.77603.046017-24.62191 10.811096 15.02451-3.767634 29.28688 6.41073 39.44798-5.153893 5.97357-6.798997 9.07971-10.529242 16.43379-3.459896l-.27035-.224332c-.15243 12.956634-13.91724 25.044699-.65862 38.815256-7.35982 1.616344-12.6115.276102-17.86606-1.449532-2.66323-.877197-1.71125-10.434332-8.80361-1.967223-6.38197 7.62155-4.13289 12.712169-1.53581 19.508291 1.97873 5.197033 6.21516 7.653185 10.66729 5.743484 10.86862-4.662087-5.81538-7.141248.16394-13.215479 11.22812 7.85451 24.21064 13.759054 36.97745 20.071997 4.09263 2.018992 10.24164 5.079116 2.37563 11.021048-1.77453 1.340243-9.69519-3.022735-5.24305 4.170282 1.81766 2.936453.85418 11.935634 9.53125 7.259166 2.4619-1.322986 5.0561.201324 7.13837 2.827164 13.60662 17.147047 14.7024 17.239081 32.48218 4.823146 2.22319-1.555946 4.34284-3.270076 6.39922-4.826023 5.24881 3.569186 3.65547 7.520888 1.51856 10.704682-5.03597 7.495003-3.8194 11.489845 3.96033 17.374256 12.71792 9.623285 6.93705 28.766316-8.03282 35.858671-10.45159 4.952569-24.62767-.877197-32.06803 11.443828-3.86255 6.393473-7.23041 13.077428-10.883 19.735499 6.40785 1.219448 11.08432-2.838668 16.23821-6.082859 14.66502-9.240769 29.83621-2.991099 29.85059 14.230726.00863 13.065924 4.58156 11.371927 12.59425 8.377952 3.64684-1.360374 7.14988-3.258571 10.89738-4.115636 4.12427-.943347 9.38457-3.822279 12.08231 1.820543 3.12053 6.50564-3.23844 6.7386-6.81625 9.010685-4.87204 3.097513-12.77832 5.556541-5.26606 13.644011-3.35636.62698-8.56489 2.551062-7.00895 5.240175 2.86455 4.946817 7.16138 10.008676 13.6814 11.069941 2.7754.448664 6.08574-.158183 6.53153-3.655468.58384-4.570053-2.68624-6.911163-6.37334-8.769096-2.46478-1.23958-4.81165-2.735129-7.2074-4.115636 11.62214 1.547318 25.89601-2.240448 29.82758 14.82607.24446 1.069893 1.34024 2.775394 1.05264 3.014107-14.11569 11.883865-1.32299 12.85022 11.87523 14.524085-27.83735 17.354124-9.44784 34.515552-6.41073 51.012611.6126 3.339101 5.97357 6.381969.1927 9.096966-3.96033 1.857933-8.29742-.53207-9.51687-4.61607-1.57033-5.274688-2.90482-10.661541-9.62616-8.835245-10.01443 2.717873.69025 7.805617-.77079 11.788955-2.37562 6.531524-5.20566 12.933625-7.48349 19.473777-5.60544 16.111668 6.58616 34.483916-10.57814 50.957963 12.27501-3.06012 15.64287 7.48063 25.23452 8.38083-15.79818-31.259855 14.49245-19.111393 24.02082-26.882497l-.26747-.287606c.13517 3.063-4.34572 8.458482 3.94882 7.33682 5.52203-.747775 11.18499-.595344 16.661-1.530062 7.99543-1.363251 13.13782 3.773386 13.37941 9.557135.37389 9.09409-7.95517 5.00146-12.84734 5.21141-11.63077.51482-12.3728.82256-17.47492 10.90313-.41703.81105-1.53581 1.66524-2.42164 1.77741-28.46145 3.71874-.19557 10.89737-.88007 17.0809-7.12975-1.76878-14.05529-3.22406-20.80539-5.23443-6.49702-1.93271-13.4772-5.4645-18.78065.88295-6.11162 7.30806 6.21803 9.40758 5.58242 15.58535-16.34463-.51769-11.59913 8.63967-7.85738 17.23908 4.37448 10.04894 7.02333.01726 9.17749-1.42364 5.0216-3.36499 9.31555 4.84903 13.93162.13805-.63561-9.94541-10.29628-10.99229-15.63999-16.19508 5.82689-2.21168 8.91865-12.29801 17.10103-7.08085 6.30719 4.01785 7.68482 10.6903 5.36672 18.01562-1.86656 5.89016 1.82917 6.58329 6.41936 6.56028 8.48436-.04314 15.45017 6.4021 24.30555 5.64858 3.17516-.27323 7.147 1.67674 6.9543 5.8614-.20132 4.35723-4.43775 4.49815-7.6388 4.98133-6.44525.97211-12.34691 3.10614-18.85255-2.59133-7.08948-6.2094-16.24972-5.39548-27.61302.73052 17.44616 8.06734 30.25036 22.71222 49.46817 9.10847 3.27295-2.32098 8.46998-3.44551 12.76681-.90883 1.01525.59822 1.67387 3.17516 1.30286 4.50678-1.65661 5.89591-6.17777 5.3092-10.91464 4.4924-7.41159-1.27697-16.05702 3.10614-17.93508 7.09235-6.35897 13.49446-15.13094 7.01183-23.65844 5.40987-.30774-15.6515-6.73285-20.72774-19.06826-15.09355-3.09463 1.41215-8.92152.48318-6.42223 6.83064 1.77165 4.50965 5.61118 5.14526 9.71532 3.48578 6.64081-2.69199 11.87523-1.06702 16.05127 4.56717.26172 6.92267-5.15965 10.11797-12.13121 13.24137 15.23447 7.32531 27.54687.29623 38.03009-2.80991 16.34751-4.83177 17.7539 4.94969 23.2673 14.07254-8.49012 4.22781-15.58535 1.4783-21.8609-1.48979-11.28853-5.33221-19.22069 2.94795-28.44133 5.77799-2.30372.70464-5.12225 3.78202.07478 5.48464 9.03657 2.95371 3.37362 5.2977-.06902 8.35495-2.80703 2.48491-3.4599 5.80963-.08053 8.68281 2.74088 2.33536 6.58041 3.99772 9.29829 1.97298 4.46076-3.31322 6.40497-9.48236 13.57211-1.80904 6.51426 6.97156 5.63132 12.56549 2.3181 19.56581-3.6152 1.45528-7.23328 2.91344-10.84561 4.36297-14.6305-1.73713-29.00215-8.31467-45.28063-3.16078 9.59452 13.1292 18.46716 22.72084 33.71026 9.17749 3.24706-2.88756 7.8315-4.26519 11.80621-6.36183 3.16366 2.99685 6.63506 5.61694 7.88039 10.2704 1.50705 5.63419 6.21804 5.40986 10.7392 4.78 3.71586-.51769 6.14613-2.80415 6.17776-6.54015.0489-5.50477-4.66783-5.32358-8.28591-5.94769-4.01785-.69888-5.06186-3.76475-6.2583-6.85364 4.61319 2.62584 9.2724 3.82803 14.53559 1.61635 16.32737-6.84789 8.52175 4.19329 6.60342 9.91089 5.89017 3.5433 8.63392-2.66323 12.88186-2.59708 4.49527.06615 11.67103-.20708 12.04492 3.45989.56659 5.63995-2.69774 11.7602-4.73399 17.53532-2.08801 5.93043-7.25341 3.60082-9.85049 1.74001-12.28651-8.79785-20.79676-6.70409-26.60352 7.36558-.91171 2.21169-5.69172 1.2252-5.84127 6.17202 6.97156.94047 12.84159-1.73714 18.5218-5.06186 7.06647-4.13289 12.61151-3.31897 16.40503 4.52979 3.92869 8.13636-1.69975 11.81484-7.41735 14.27674-5.93043 2.55682-12.5281 3.56919-19.89656 5.53929 5.8614 11.14472 32.83594 15.68888 9.78147 32.85031-11.62502-22.53677-27.3628-27.79421-57.94103-18.24857-7.74522 2.41876-15.11656 6.04834-23.07748 9.28678 5.02447 5.49039 8.7806.24447 12.74668-.1438 3.25282-.31924 7.57266-3.4599 9.52838-.47455 8.51312 12.97677 15.88733 16.74727 26.29866 1.19931 3.22981-4.83465 17.67624 9.56864 17.88331 19.2437.20996 9.95403-4.43487 18.3176-9.10271 26.59777-1.78028 3.16653-7.21891 4.36297-5.12226 9.58302 3.63533 9.07683-1.89532 8.56202-7.33394 6.43949-8.20827-3.19243-11.95002-3.03424-12.54824 7.82862-1.06414 19.399-19.747 20.86004-32.3355 28.02142-7.48925 4.25656-16.17494 5.57092-15.00151 17.86894.65862 6.85939 3.35923 8.39808 8.77485 9.82748 6.03109 1.59334 14.86921-4.47802 17.40589 7.36846 2.34111 10.96065-4.87779 13.37078-15.74641 16.85081 12.99978 5.15389 22.88478 9.07396 32.55121 12.91062-.95773 5.22867-5.08199 5.31783-6.66095 4.01497-16.93997-13.90285-28.43557 5.22292-42.69218 7.25054-7.89477 1.12454-3.74175 11.84935-4.31696 17.20169-1.30285 12.15709-3.61233 20.70186-18.36074 20.6012 7.43748 8.12485 7.93216 9.13723 15.9995 5.17114 7.95805-3.91431 12.78982.17832 15.32363 5.31208 2.90769 5.89304-4.16166 6.84789-7.92929 8.31756-7.00607 2.72937-10.2819 8.49874-13.42831 14.49532 1.83205-10.25602-4.32271-11.6509-12.04204-10.24451-4.22781.76215-11.00955 2.39863-9.30692 7.40297 2.23469 6.58904 9.19763 7.4346 15.84132 4.92668.52631-.19557 1.06126-.38827 1.59621-.57521.96348 17.52956-6.33883 29.89085-22.56554 37.10113-2.67186 1.18781-7.05784 3.48002-4.50966 7.58128 2.47341 3.98334 5.61694 1.01812 8.62817-.58384 5.59968-2.9911 15.5796.80817 15.83557-10.62703.02588-.95772 3.66409-1.84355 5.62844-2.76101 7.81712 22.74098 24.50975-1.30573 35.13966 6.66382.81967.6126 1.717 1.13604 2.68623 1.77165-2.03912 3.97471-5.81251 2.32386-8.79498 2.69487-8.09034 1.00662-7.29655 1.01524-8.76622 10.00867-.4803 2.93646-6.07998 5.778-9.885 7.26205-7.77111 3.04286-6.72997-5.24306-10.26752-9.30117-5.55367 15.87008-23.04872 19.01361-31.75454 31.93285-3.90281 5.7895-13.19535 3.18955-18.99348-.19269-7.46912-4.37161-.61547-6.55166 2.51368-9.10847 1.77165-1.44378.75352-2.72363-.67013-3.91432-3.26432-2.71212-28.85835 6.62644-27.29377 9.25803 5.22292 8.80648-6.74723 20.60407 6.67245 27.50948-13.18672 8.94166-23.17239 20.73061-41.81786 13.80507-8.15649-3.03137-4.78576 7.61292-3.20105 10.62127 6.54015 12.43032.4803 17.2017-10.1496 21.59919-3.92007 1.62209-10.93189 1.78315-10.92614 8.66268 0 1.29135 2.93645 3.3276 4.80589 3.74462 5.97069 1.31149 12.36129 3.42251 17.35988-2.3296 3.52892-4.06099 6.72709-8.40959 12.46482-13.18384-6.67245 14.40329 1.50993 16.63223 15.7838 16.40502-12.07081 8.50162-25.85862 9.96841-24.42059 24.40334-9.81023-14.21922-24.11286-3.41675-36.03987-8.29455.14381 6.39348 3.73888 8.35207 6.65232 10.80822-9.45935-3.05437-17.13842 5.61119-26.0887 2.87318-2.22895 7.56403 10.27615 8.74321 4.79438 18.26871-2.59133 4.49528 8.62242 3.53468 13.00265 6.39348 3.21256 2.09664 10.48898-1.44378 9.63192 6.17777-.88583 7.80274-7.88328 5.66583-12.13409 5.0446-7.00607-1.02963-13.92874-3.40813-20.54654-6.06273-8.63968-3.46565-11.40357.55796-12.15997 8.17088l.27035-.27898c-2.72938.5407-5.96782.33075-8.09322 1.7659-9.63479 6.48838-17.91496 9.53125-23.12637-4.99859-.57809-1.62209-4.90655-1.90107-11.42945-4.17603 8.27729 8.76047 2.02187 25.52212 20.49765 19.66647 2.48779-.78516 7.33395 6.91979 3.17517 8.32906-7.96955 2.69199-13.97763 16.22384-28.18535.79379 4.81164 14.67939 7.79123 23.77061 10.6788 32.57134-13.76193 6.35033-21.67109-4.48089-31.69702-8.78923-3.07451-1.32011-.49181-12.69491-7.60429-4.82314-3.66985 4.07537-.35376 8.30605 4.63045 10.3653 1.93558.7938 3.66984 2.0909 5.28331 3.03137-1.38913 6.83926-31.76029 1.46103-6.75585 18.2457 5.69171 3.82228-2.11678 9.34718-4.83466 9.1286-11.17923-.91746-16.9716 9.15449-26.85949 11.29715 8.16225 2.33823 16.52295 2.29797 22.91355 8.45561 1.43802 1.39201 7.34257 1.13891 7.86026.04889 7.54102-15.70039 14.73979-.68738 22.33545.19845-8.80648 4.35147-14.74266 14.43492-26.67542 11.41219-2.53668-.64424-7.15563-.7449-7.21027 2.3066-.45155 25.58539-15.11368 4.78-21.97883 8.80648-2.1743-6.00521 1.32874-5.7895 3.76476-6.77886 4.84328-1.96723 4.57293-5.99658 3.37074-9.97704-.91171-3.01699-3.37074-4.39174-6.52002-4.25944-3.77339.15243-7.09236 2.09664-7.65894 5.57379-3.3391 20.46602-17.83442 27.0148-35.80978 29.81896-4.57293.71613-7.01182 3.6267-4.65921 8.5764 7.53239 15.84131-.99799 17.72801-13.79356 15.90459l.54069.696c-8.77197-28.08469-6.2698-24.11285-31.42091-19.14015-9.29254 1.83492-12.57987-5.11075-18.8583-7.32819 3.35923-21.65096 21.15914-4.83753 31.86383-10.9434-2.94221-2.28646-4.58156-3.6756-6.33308-4.89792-3.66122-2.53668-10.67305-1.32874-9.16887-9.44497 1.369-7.43173 6.78749-5.75787 11.58188-6.5948 10.32217-1.80616 16.31874-9.97704 25.73783-16.53732-15.61699-1.00662-15.17695 3.53467-23.4226 4.86053-15.5681 2.49642-24.40622 22.23192-46.25274 12.02479 6.41073 13.21836 14.5097 20.83128 16.25547 31.29437-4.13577 4.30546-9.64629 1.8982-14.44643 2.9796-3.4599.77941-8.28017 3.54042-4.72249 6.0656 14.65639 10.36531.31637 14.26812-6.15763 21.56467 17.74814 1.52431 29.20635-15.14819 46.00539-10.02593-7.9638 8.15074-19.83328 5.90742-28.76631 14.08117 10.60689 4.64771 21.26843-1.47254 30.27624 3.43689-5.02447 28.18535-28.87848 11.01817-42.882 20.34522-.89445-9.23502 13.42831-11.25401 5.92756-18.52468-4.18754-4.06099-15.87871-7.6158-17.59572-5.64857-5.33221 6.10011-11.04405 13.8367-8.12773 24.47811-4.41763-4.18466-12.12833-2.24045-13.33052-9.84186-.00576.00575.03163-.04602.03163-.04602 3.35636-6.59192 15.99375-8.168 9.92815-20.14677-2.05926-4.06962 2.95371-4.81452 6.53152-4.55855 4.19617.29911 10.85424 2.92495 11.0872-3.10614.27898-7.08661-8.7921-11.16485-9.4651-19.399-.22433-2.73226-7.31956-4.30834-10.40557-2.37275-4.05237 2.5223-10.81685 6.52865-2.00174 12.0593 2.19156 1.37763 5.97645 2.76965 1.23958 5.54216-10.57526 6.17202-16.24396 19.95984-30.85721 19.81028l.42566.17256c-1.58183-12.4073-8.76047-15.75791-17.89482-8.16512-5.7176 4.75987-18.32336 4.33134-17.12404 11.79471 1.4294 8.90139 14.40904 5.57379 21.28857 10.01155l-.30199-.325c-.36238 1.06702-.4803 2.89044-1.11303 3.08889-14.72253 4.64483-24.40622 19.81603-42.06233 18.99348-8.01269-.37677-15.10504 3.31609-19.04812-8.34057-1.88094-5.55366-11.32878-8.64255-17.60434-3.32472-3.39374 2.87893-19.10276 3.75613-4.90943 14.32564 2.22032 1.64798-4.03223 4.24793-6.79037 4.25368-4.05811.00863-4.9008-4.13001-6.01671-7.20739-2.62583-7.25629-8.09609-8.79211-14.89797-7.73084-3.17516.4918-4.71961 2.43314-4.77425 5.81251-.19557 10.54362 10.23301 3.45127 15.17695 10.18987-30.25611 4.17603-54.52715 23.69582-84.78039 24.45223.26172-3.40525 6.90829-6.76161 2.27496-9.38458-4.45501-2.51942-10.77658-2.44177-16.23534-2.24044-3.50303.1323-2.71499 3.52029-2.36987 6.58617.8168 7.20164 6.23242 5.03309 10.18412 5.57092 2.07939.28185 4.30258-.5292 6.46537-.84269-1.9701 8.5649-7.88039 11.95289-15.99662 10.98366-8.24853-.98361-12.51372-6.59767-13.419682-14.6305-.434285-3.8798-.103538-9.38457-5.956313-6.1979-9.600276 5.22867-19.810276-.44579-29.197724 2.96809 2.562566-7.42885 5.674459-15.15969-7.259166-7.19589-2.87318 1.76877-9.045197 5.09637-9.913766.12655-2.93933-16.83356-18.44415-11.90975-23.934541-9.84187-24.371702 9.14011-10.474597-6.90253-10.307786-13.90286 8.363572 3.93445 15.671631-.79379 21.846524-4.50965 9.490986-5.71473 18.067386-2.73513 22.648944 3.76763 12.643143 17.9581 29.114318 13.55486 45.54523 10.1381 4.09838-.85419 12.1916-.33937 10.88299-7.42598-.94334-5.12225-7.89477-6.59767-12.77831-6.01095-13.572113 1.6336-28.734682.90595-39.111494-4.63621-20.63858-11.03543-34.754264-5.90167-48.83256 8.97042-8.783476-8.75759-11.803335-26.48848-30.747918-19.63196 1.555946 6.92555 11.561746 4.51541 12.971014 12.30377-6.669575 3.22118-10.373936 12.94513-19.58882 10.65579-16.310116-4.04661-15.752161 6.66382-16.261223 16.98311-3.459895-1.03825-7.069346-1.12741-9.433464 1.5617-6.727096 7.63881-14.066792 8.53038-21.702721 2.07939-9.286786-7.84876-.209953-14.29112 4.035107-21.30583-7.296555-2.32097-12.505093-1.07277-17.615846 1.37476 2.007488-2.61721 3.782015-5.47601 6.091488-7.80562 3.382242-3.40237 13.137825-1.84355 11.320158-7.55252-2.433144-7.61005-2.159919-15.70327-5.225795-22.72372-1.737138-3.98909-7.322439-4.61607-12.059304-2.96809-2.824287 5.64282 5.875783 4.50102 4.811642 8.98767-17.003245 8.00119-36.686974.85707-54.840642 10.17261-9.40758 4.8289-23.534769-4.82314-33.644107-11.65665-13.313265-9.00493-25.752209-7.19014-38.760611-.53207.42278-6.16914.980735-12.32103 1.222324-18.4988.186943-4.77137-3.894181-6.58904-6.560285-4.4924-5.62269 4.409-2.214563 11.44958-2.996851 17.34837-1.14467 8.60804 4.808767 5.14239 8.67131 5.30633 4.567178 3.93157 11.104454 6.89966 6.80475 14.96412-4.063868 7.61292-9.78722 3.03712-14.837575 1.99023-5.041727-1.04401-9.873502-.63273-14.958369-.40265-11.524358.52632-24.745589 4.38311-28.346411-14.48669-.793792-4.16453-1.515682-14.95837-8.222645-16.16919-9.157364-1.65373-18.964716.65574-28.435569.16681-4.664964-.23871-11.811964 3.8798-13.710161-1.79466-2.157042-6.45675 5.645699-7.52952 10.673045-10.03456-13.66702-3.58644-26.583389-6.65232-36.258442 8.42684-3.574938-6.68683-8.639673-12.66902-1.949966-19.71249 2.979594-3.14352 5.389729-6.08861 3.252819-10.35092-2.761014-5.50477-6.899659-.88583-10.365307-.89446-4.371605-.00862-8.915774 1.39489-12.461952-2.82428 8.487242-11.23963 22.246296-10.20713 35.760885-14.21923-26.304412-10.33654-49.243837-27.86323-78.58824-6.93129 4.262316-15.91897 20.480397-14.60174 24.411966-25.17412-3.503036-5.96207-9.341431.22721-13.063047-4.22493.687377-1.13317 1.610591-3.59507 2.237571-3.52317 10.287654 1.17056 22.588547-12.23762 30.779555 7.80849 3.439764 8.41535 19.298338 2.7035 28.984896-2.12252 4.771378-2.3785 9.384572-5.07912 14.711028-7.97818-1.918329-1.38339-3.551929-3.35349-4.408994-3.05725-19.499662 6.68108-36.192293-1.82917-53.454383-8.88989-6.620682-2.70637-16.646614-2.45903-17.158552-10.50048-.448665-7.07223 10.882997-2.87894 15.320752-8.54764-9.89651-11.76883-21.487017-18.69437-37.636073-14.19047l.322118.31349c.396896-12.49646-13.839583-8.59365-19.18042-16.99461-4.785758-7.52377-.767907-9.0567 2.620087-14.7513-10.877245 4.85766-20.103633 4.61607-28.90149-.78228-2.36987-1.44954-5.113628-3.87693-7.661814-1.85218-5.864279 4.67359-6.560284 16.66674-20.031732 9.43634-6.698335-3.59507-17.377133.23871-30.589735.94622 8.409588-6.32732 13.859715-8.01557 20.566678-7.63018 9.002057.52057 11.018172-7.43748 12.542482-13.32477 1.765899-6.80475-5.033098-9.50824-10.189867-11.18498-8.228398-2.68624-18.67711-1.11591-21.446753-12.78695 2.277837 1.6336 4.391738 4.37449 6.842138 4.71674 14.900848 2.07651 28.13646-9.21489 43.402567-5.93043.293357.0604 1.8378-3.75613 1.96147-5.81251.054645-.89158-2.122529-2.82429-3.132025-2.72075-16.612102 1.717-33.500304 2.25483-48.858445 10.09496-17.891947 3.3995-23.994938-12.89912-40.60704-22.46488 14.751293-.02588 22.160014-6.01096 30.868713-8.52751 3.336225-.96635 7.552524-.81104 7.201645-5.09349-.434285-5.34947-5.32358-5.51628-9.117099-4.38024-14.377405 4.28245-30.258988-6.08286-44.127332 4.90656-2.240448 1.7774-7.817121 2.21744-10.066197-2.81854 12.950882-9.36444 16.954352-25.10509 26.497107-36.98896 9.83036-12.24625 1.768775-18.28884-10.753575-19.67222-14.21347-1.56458-28.214112-3.08314-36.917059-16.58335-.69313-.89157-1.406391-1.82342-2.119653-2.74663-3.439764-7.46624 1.000867-10.45446 7.141247-12.07656 4.728237-1.25684 6.750105-.18119 6.945676 5.81826.209953 6.51139 5.271812 2.60858 6.560285.58672 3.180918-5.00146 2.364118-11.37481-3.698608-12.252-20.540795-2.96234-17.62735-12.99403-8.912899-25.57677 1.866561-2.70062 1.921206-6.65807-1.159051-6.89103-9.979915-.77366-21.2368-9.02507-26.902631-7.52664-9.48811 2.49929-17.149924-.85994-27.265014-.34513 4.440631-4.78576 12.246248-7.25054 9.91089-14.08117-2.145538-6.28706-8.041453-.0604-11.8436-1.98736-2.361242-1.20219-9.016436 1.7544-6.488383-3.57206 2.044876-4.31983-5.125132-10.75357 2.913445-12.3843 10.486102-2.1254 6.476879-15.09066 15.496192-19.15166 5.058983-2.28071-.980735-5.32358-3.503037-5.93905-6.126-1.51856-12.384298-1.28272-18.053005 2.06501-6.781741 4.00634-13.183843 8.78922-20.299206 12.04492-4.9008 2.24332-12.044924 2.9911-14.518332-2.73513-1.417896-3.27007.520566-8.67994 6.146132-12.12833 15.188453-9.31267 33.183938-14.52696 44.791701-29.35591-5.565169-1.87231-11.087197-4.87491-16.810549-5.3092-4.80589-.36238-15.375397-2.15416-7.221777 9.3213 4.656335 6.55166 2.755262 10.56951-5.234423 7.17001-7.244786-3.08313-18.096146 1.78603-21.722853-9.43346l-.287606.3365c10.244513-4.25369 15.568093-13.72167 23.695828-21.47264-18.674234-2.81566-27.057938-17.29948-39.72409-28.86985 7.771104-2.86743 13.474324-4.97271 19.174668-7.07223l-.301986.29336c6.652318 8.42397 19.355859 1.49555 26.016805 10.38832-2.090893 6.47112-10.394067-1.65086-12.499341 6.41935 6.264051 4.15878 13.646888 7.67907 20.161155 1.21945 6.715592-6.65519 2.631592-11.87524-2.456152-19.64346-4.279572-6.53153-7.644558-9.5974-14.325636-12.76394-12.182975-5.76649 2.522301-8.42685 2.536681-14.50683-14.788681-4.3486-29.378915-13.23849-45.369788-1.27409-5.211415 3.89418-7.995437.92609-12.367043-3.27008-16.465422-15.7838-35.059126-28.88998-56.016949-38.82101.603972-6.28706 7.36558-5.78662 10.966403-8.9129 6.350332-5.52202-4.127141-8.72595-1.205068-13.55197.885826-.3969 2.295093-1.49843 2.804155-1.18206 12.001783 7.58128 16.991741 23.66131 37.118383 23.72746-11.34029 8.59078-18.81516-4.14727-26.353304 4.40612 12.461952 7.02045 23.761978 6.89103 37.989828 4.60744 12.709293-2.03912 25.493364-18.51605 40.233152-3.8913 2.881809 2.86455 6.039719-.67587 8.081719-3.65259 3.034239-4.42338-.324995-6.09724-3.330474-7.64168-3.511664-1.81192-7.230405-3.21544-10.845608-4.82603-18.723127-8.30605-18.720251-8.30605-12.024792-27.1586-4.434878.76216-8.688566 3.06876-13.203974 1.01813-.537823.1323-1.121662.23296-1.731386.29623-6.390597-3.38224-8.682814-10.906-16.451042-13.81945-7.374209-2.76101-8.783476-12.21173-5.743485-19.03662 2.214563-4.95832 2.726501-16.47692 14.604614-9.64054 4.521161 2.60283 5.205662-3.25282 5.895916-5.89591 1.380507-5.3092-3.22406-5.19991-6.28706-4.82027-3.226935.39977-6.333076 2.01036-9.40758 3.29021-2.818535 1.17343-5.777997 1.90682-7.190141-1.42365-1.337366-3.14353.661493-5.51915 3.753254-6.29281 12.847344-3.21544 10.250265-8.21977 1.475417-13.48871-3.367862-2.02187-6.361837-3.45989-2.05638-7.10386 2.755261-2.33536 5.335084-7.17863 9.807352-3.14065 4.817394 4.35147 10.017304 6.83063 19.045245 6.45387-8.587905-8.31756-6.310068-15.60836 3.842411-24.51838-9.189 2.05063-13.940245 3.11189-20.362479 4.54417 6.298563-29.28688-21.633696-15.06478-31.144814-25.63717 2.401507-7.08948 10.606896-9.41908 12.689161-17.19594 3.618078-13.51171-9.453598-5.08774-12.364167-9.64629 2.177175-5.19991 3.853916-10.37969 9.908014-10.6069 4.014975-.14955 6.980189-.56658 6.039719-5.31783-.719014-3.64684-4.009223-3.46852-6.787493-3.01985-9.324175 1.49842-22.027716 9.16311-18.225569-11.49848.324994-1.7659-9.767088-6.41648-15.496192-8.08172-6.683955-1.93846-4.676467 4.17029-5.312076 7.62155-.428532 2.36987-2.430267 5.19704-4.253687 3.56919-8.639673-7.71646-15.7118959 4.40324-24.7168283 1.04113 3.422507-6.60342 23.8712673-10.2704 4.4751437-20.80539 3.1780422-10.04319 27.4749666 10.18412 17.8833186-16.14906 7.282174 5.68597 9.738326 13.28451 17.653233 13.4772 13.782062 12.18298 28.265882 22.82439 50.187184 22.70934-5.565169-8.3118-1.783155-16.31011-3.382243-23.88277-3.666972-17.38576 4.722485-13.24136 13.905733-8.11623-12.533854 8.32906 4.647707 16.64662.023008 25.1885-1.901073 3.5203-.310614 6.67821 3.951702 7.26492 3.868295.52632 8.124859.89733 11.023924-2.33536 3.318969-3.70148 1.521433-7.22753-1.541567-10.22725-5.976445-5.86141-12.461952-11.35755-13.960377-20.29633 6.120248 5.20278 7.681946-.24734 9.306918-4.2767 3.068752-7.60717-3.592194-2.55394-5.406986-3.86542-6.284183-4.54129-14.058163-2.3181-20.373983-3.86542-10.782335-2.63734-12.853096 10.98941-21.75449 8.25428-3.359234-1.02675-7.359828-2.51942-7.561152 2.55682-.201324 4.95832 4.676467 3.8194 7.699203 3.69861 9.873501-.3854 14.995757 5.40123 19.071129 13.31901-9.065329 6.69834-16.370512 2.27784-23.273048-2.7869-5.697467-4.18466-11.084321-8.09322-18.153667-2.98247 1.13029-3.18091 3.78489-6.72422 3.137777-9.49386-4.109884-17.55545 5.786626-22.19165 21.081493-21.92993-1.869436-8.60803-7.656062-6.61205-12.18585-6.92266-3.074505-.20708-6.008082-.78229-5.217167-4.65634.727643-3.56919 3.761882-3.62383 6.735724-2.94508 6.218034 1.41789 11.32591 4.67359 16.134676 8.84962 11.745814 10.20425 25.271907 5.90742 38.343583 3.82803 1.018124-.16681 1.484045-3.78489 3.897057-10.53787-14.380282 14.60174-23.569282 1.61922-34.158921.24159-5.122257-.66437-4.736865-5.47601-.719014-8.83524 6.450994-5.39548 12.876104-10.82548 19.387495-16.14906 5.939057-4.85478 14.964121-8.61379 5.953437-18.303221 13.813699-17.696375-5.179778-21.757366-15.142437-29.856341 8.967544-3.75613 18.521803-1.952842 20.819772-11.932758-4.245059-4.759873-9.879253-1.302853-14.506828-2.979594 7.681946-11.472589 2.93933-17.270718-22.948054-27.871862.152431-6.801873 9.286786-7.995437 9.525499-14.670763.405524-11.328786-8.895642-5.317829-13.57211-7.466243-5.504772-2.528053-11.305777-4.42625-17.995484-6.991693 1.964346-2.162794 3.557681-4.357225 3.859667-4.190414 17.86031 9.792972 24.440727-4.926684 33.135045-15.033146 1.993107 9.396076-5.847022 22.229039 9.534127 26.804845-1.786031 5.424242-.207076 12.637391-8.409589 14.558597-2.717873.638485-2.861676 3.241316-1.015248 5.058983.972108.957727 3.152158 1.670989 4.345722 1.251085 3.560557-1.259713 6.76736-3.626707 10.368183-4.616071 2.746634-.75065 6.991693 2.473409 7.923535-2.694865.69313-3.853915-2.507921-5.743484-5.349465-7.595664-2.781146-1.811916-5.450127-3.799271-8.162248-5.708972 1.461037-.834057 2.84442-1.849304 4.385986-2.467657 11.42082-4.593061 23.221279-23.275923 18.202561-32.674876-6.980189-13.065924-18.889938-7.843005-29.367412-3.698608-2.985346 1.164803-5.671583 3.258572-8.521754 4.943941zm1486.087067 693.077807c-8.86113-9.24364 5.39548-13.04867 4.78864-20.3481 4.5758 7.61005 11.02392 15.83844 19.69523 9.20051 8.70007-6.64945-4.85478-6.75011-5.97932-11.16773-.26172-1.02388-.77941-2.23757-.46017-3.10614 4.54992-12.51372-6.21516-12.39005-11.48122-10.78809-9.20338 2.79553-2.02186 9.95116-1.21082 15.31213-10.94051-3.71012-13.18959 10.4861-26.12609 8.75184 9.26665 5.97069 13.96038 11.03255 21.08724 11.85222 2.52806 13.59225-18.08752 7.43749-15.37252 14.71678 3.80502 10.21 15.88446-6.17201 23.18964 2.53381.31925.38251 1.01238.6011 1.53869.63561 4.55855.2646 3.63534-.9606 4.76851-5.5623 4.2393-17.18156-7.34545-11.04693-14.43781-12.03054zm-992.25669 332.57565c2.070761-2.88181 1.489797-6.2698-1.484045-6.88815-15.369645-3.19243-26.937144-12.3843-38.317699-22.36422-4.449259-3.90281-9.634788-1.01524-14.734036 1.48405 15.176949-4.48953 5.536408 23.19252 22.059352 16.21808 7.65031 13.0573 23.284552 3.99772 32.827307 11.84072-6.327324.55508-13.537597-.8283-17.676242 8.46999 13.060171 1.41502 23.209774 16.28998 36.853786 3.37649-.56946-5.53928-8.56202-3.17517-9.226389-8.60228 13.894228-1.58471 26.353304-4.88642 31.527329-20.49478 1.141795-3.44264 3.22406-6.26693-.293357-8.34919-3.169414-1.86656-10.445837-3.10327-10.382564-.40553.345127 14.18759-8.300298 5.23155-13.169462 6.00521-6.025338.95772-13.00265-2.38425-18.29747 2.83579 5.651451 11.44383 15.881583 1.39201 23.356453 6.01959-3.270076 6.23241-13.828078 5.63994-12.398678 14.66788-3.678477-.91171-8.901395 2.49067-10.644285-3.81365zm371.53759-1622.702621c2.34111-6.402101-1.11304-11.446704-6.5229-10.790963-7.79411.949099-16.97448 2.959462-21.28282 10.253141-2.993971 5.064735-2.611456 7.069346-8.188129 2.116777-2.870304-2.551062-9.77284-1.478293-14.616118-.644236-5.924677 1.021-10.733443 5.176901-11.01242 11.334538-.31349 7.190141 6.427986 7.057842 11.202239 7.374208 7.290803.483178 13.920113 3.272952 17.633102 8.708699 2.516546 3.684228.779411 11.786079 8.449856 6.212282 3.4714-2.519426 7.40297-9.059578 1.03538-12.870353-8.708701-5.208538-2.09377-7.730839.18119-12.576994 5.25743-11.184983 15.54221-6.934172 23.56353-9.50249-.54933 11.794707 3.48578 21.029724 15.13956 25.317924 4.27957 1.576079 9.53988 1.555946 12.27788-2.697741 3.2442-5.047479-3.45126-5.953437-5.20278-9.019313-4.92381-8.616664-16.62936-6.126-22.65757-13.215479zm364.54014 1570.646001c6.8939-12.6604-5.03885-37.09825 24.28829-34.9182 2.46766.18119 4.30833-3.25569 3.07738-4.94969-5.74348-7.91778-2.4504-17.26497-4.7081-25.66305-.70176-2.59996-2.21456-3.89706-4.80014-3.50591-.91746.14667-2.53093 1.55307-2.43314 1.7889 6.98019 16.44529-10.14385 18.9906-16.05415 27.94664-3.23844 4.91806-11.89537 5.33221-6.799 16.62361 3.47716 7.72221-13.30176 8.58215-20.2273 16.98311 10.72769 2.34974 26.41945 7.96092 27.65616 5.69459zm-842.926099-1411.83017c-15.277611 1.541567-14.098428-5.398357-13.103313-11.564622 1.179183-7.264918 8.329059-5.312076 10.437209-3.37649 11.728558 10.770831 21.041228.624104 32.459172-1.253961-8.116231-10.339422-17.771153-.322118-24.288296-4.084-17.989733-10.385439-27.503727 5.240175-38.053102 12.784071-9.048073 6.471126 1.29135 16.640862 1.049761 27.822969 4.245059-6.787493 13.692904-12.706417 31.498569-20.327967zm1142.257409 321.870969c-8.52175 2.194431-13.75905 7.549648-17.79703 15.251727 22.80137 1.285597 32.70938-11.564622 38.58517-31.216715-11.59339 2.013239-22.50227 3.90856-34.06977 5.924676 3.53468 7.385712 9.51975 5.683087 13.28163 10.040312zm-639.82475 1225.070581c3.62096-14.80594 17.22183-7.46625 23.53477-13.02279 2.68624-2.35836 12.28364-8.78347 8.19389-17.22182-1.95285-4.01498-6.7875-5.75211-10.14098-3.41676-9.62041 6.72135-18.68286 14.26237-27.67054 21.8264-1.21369 1.01812-1.5128 4.31983-.85994 6.03396.64136 1.67674 3.04287 2.68336 6.9428 5.80101zm-824.257611-1142.783733c3.534673 21.584803 15.01589 12.306645 25.7292 7.926412 3.209679-1.314358 9.036569 1.285597 8.70007-4.754122-.264597-4.782881-4.555673-7.264918-9.171743-8.636797-9.591648-2.847295-17.394389 2.113902-25.257527 5.464507zm-4.084 68.271826c5.139513-9.870626 16.35038-9.17462 13.172338-16.379141-2.657476-6.03109-2.335358-15.73778-10.802468-17.817169-8.438349-2.079389-12.832963 4.524036-18.070262 11.786079 10.132347 1.75727 13.828079 8.797856 15.700392 22.410231zm476.850141-560.442719c12.070808 1.449533 11.849352 7.73084 7.500755 16.591969-2.493541 5.087744 2.755262 8.694319 6.773112 9.88213 5.29482 1.555946 6.775989-3.701485 6.827758-7.385713.138051-9.916642 2.677609-21.906921-1.915453-29.180467-4.282448-6.781741-8.05871 11.248256-16.928468 7.063594-.089158-.046017-.592468.779411-2.257704 3.028487zm320.30352 1577.157396c20.94919 4.01497 30.94924-2.88181 32.62023-21.68547-17.31961-3.31609-20.71623 12.9135-32.62023 21.68547zm-390.654734-78.56236c4.754121 6.52578 14.693771 8.49012 8.449853 17.49218-2.263456 3.2672-3.045744 6.61493 1.340242 8.03282 2.870305.92034 5.996578-2.23757 7.845882-2.99972 11.452456-4.72536 4.043735-8.2169 3.474276-15.1108-.790915-9.67793-1.783155-11.58188-10.123718-10.50624-3.244192.41128-6.364713 1.74865-10.986535 3.09176zm1006.625474-361.97757c10.66729 5.78662 17.29947 8.72883 23.21265 12.73518 11.87811 8.03857 17.08952-2.46766 23.4111-8.4211 2.24907-2.11677-.22721-8.55339-3.88843-5.75211-12.52235 9.57152-25.40421 1.87519-42.73532 1.43803zm-548.13033 452.35764c10.93765 8.56202 17.37714 17.76253 29.2495 17.62735 5.14526-.06039 9.00205-2.24332 8.56777-7.72221-.35951-4.49815-4.26232-11.16197-7.82-8.42684-9.82173 7.57265-17.9092-.21858-29.99727-1.4783zm529.4676-1344.88708c-13.69291-3.031364-23.01996-9.767088-31.81206-.040265-2.69774 2.979594.16393 6.105868 3.10901 8.245653 10.8715 7.880395 17.17581-.972107 28.70305-8.205388zm-765.35886-286.731313c6.494135 5.9218 12.853096 11.996031 19.542803 17.690623 3.733121 3.175166 8.639673 4.860535 11.331662-.667245 2.456152-5.027347-1.501301-9.795848-5.803882-10.215753-8.71445-.854188-15.323628-5.858526-25.070583-6.807625zm-346.139132 146.181316c-12.936502-14.066792-16.931344 1.524309-23.609547 5.987949-4.230679 2.827163.857065 7.006073 2.84442 7.259166 10.756451 1.380507 13.724541-8.996304 20.765127-13.247115zm-110.141454 1238.823877c-8.070214-7.65606-14.820318-8.77772-22.013335-2.59133-3.054372 2.62872-3.715865 5.63995-.120794 8.26291 8.789228 6.40786 14.095552-1.35749 22.134129-5.67158zm-198.971329-425.76275c-16.983113-.83981-4.308333-14.36015-12.6604-20.12664-3.316093 7.41735-11.619268 12.98827-8.507375 20.61844 1.389135 3.40813 10.744946 4.43201 21.167775-.4918zm95.162952 260.02425c-.146679-7.52664-5.130885-10.558-11.541614-11.73431-3.712989-.67875-9.384572-.83118-8.403837 4.41475 1.331614 7.1355 10.264645 7.01758 15.00151 11.49847 2.571194 2.42452 4.460763-1.21945 4.943941-4.17891zm-26.7502-781.749499c4.610318-5.870031 7.371332-10.509109 13.054419-12.441819 2.855924-.969231 9.67793-1.719882 6.22091-7.359828-3.304588-5.401234-8.869757-4.65346-12.735177.092033-3.948825 4.851907-10.684549 8.84675-6.540152 19.709614zm-32.493685 125.14584c12.853096 4.063867 22.499389 6.172017 34.038127 4.607442-12.401555-9.70669-15.358141-10.192744-34.038127-4.607442zm-19.899434 328.969079c-1.210819 2.20593-6.46825 6.06848 2.134034 6.2813 8.426845.2042 8.392333-5.128 9.260902-10.59251.644236-4.04661 1.475417-8.57353-4.866288-7.53239-6.01671.98648-10.85136 3.59794-6.528648 11.8436zm1320.708082-632.223335c10.96352 2.237571 13.57786 11.602011 22.09674 15.05903-5.87578-24.291171-5.87578-24.291171-22.09674-15.05903zm-1247.624614 843.325865c-3.054372 5.18841 4.673592 8.84963.29911 13.14933-1.91833 1.87807-10.465969-1.06414-4.860535 5.87291 2.602831 3.22118 7.920659 4.71098 12.519473 2.28359 6.62931-3.50592.103538-6.32445-.857065-9.30117-1.351746-4.16453-1.682493-9.00206-7.100983-12.00466zm1237.426114 317.04782c-10.6299-.57521-11.15334-13.20109-20.30783-5.73485-3.69573 3.01123-2.2462 8.30317.25884 10.79671 6.27843 6.25543 10.22726-.69888 20.04899-5.06186zm-1062.843742-1233.019993c5.849898-6.16914 15.332256 3.856792 19.439265-5.306323 1.377631-3.060124-3.074505-5.700344-6.612054-6.243919-8.038577-1.228076-12.085189 2.700617-12.827211 11.550242zm-6.356085 1240.092223c-1.791783-4.34572-2.139786-10.52925-8.133487-11.35755-4.259439-.58959-5.099248 4.2278-5.116504 7.30518-.025885 5.79813 4.351473 9.07109 9.315546 10.13235 3.393747.72477 4.089752-2.85592 3.934445-6.07998zm906.101547-1272.076845c7.21603-3.853916 16.30149 1.389135 20.16979-8.70007.92609-2.418764-.88008-5.602558-2.59133-4.98133-6.55166 2.35549-16.48556.301986-17.57846 13.6814zm-295.29908 1484.559885c-10.96353-2.90194-19.21781-5.85853-30.05191-2.89331 9.64629 8.77772 17.97822 10.90313 30.05191 2.89331zm309.42052-55.51939c3.24131.20707 8.15074 1.92983 7.75672-3.01123-.49755-6.22379-7.495-7.7596-12.00753-9.91665-3.60658-1.72851-4.83753 3.93445-5.39261 6.72998-1.91258 9.6693 6.91692 3.35348 9.64342 6.1979zm-1000.303899-1374.55936c-3.422507-3.399498-10.307786 3.416755-11.70555-2.827163-1.918329-8.590781 8.409589-7.32244 12.11395-12.122578-23.500257-10.638532-5.093496-30.198591-9.876378-45.177093-6.433738.491806-11.346042 3.641088-10.488977 10.244513 1.630724 12.608631-9.128603 3.891304-12.300893 7.771104 11.167727 23.068848 8.421093 29.726919-15.476059 32.726645 9.404704 4.190414 15.783797 9.053826 25.102219 10.954899 5.970693 1.213696 9.769964 12.703541 14.765674 19.430637.917462 1.236704 2.870304 2.436019 4.328464 2.413011 6.304316-.092034 14.063916 6.269803 18.608085-1.19644 4.978453-8.173752-3.885552-9.528374-8.550516-13.057295-2.965214-2.240448-4.613194-6.229538-6.84789-9.430589-.005752-.005752.324995.270349.327871.270349zm1411.689249 870.16523c1.8378-2.75814 2.29221-7.62443-2.18005-10.37969-4.53555-2.7984-9.84187-2.68624-11.9759 1.5617-7.02621 13.98338-17.8977 12.00466-29.89949 9.29829-4.05811-.91171-10.37393-.0604-10.71043 5.40986-.40552 6.58904 5.76362 7.88902 10.92039 7.37996 9.03944-.8887 17.79416-.71039 26.72431 1.3575 6.34171 1.46679 7.67044 3.55193 3.8683 8.89564-2.05926 2.88468-8.09898 4.4924-4.78001 9.3213 3.4714 5.03885 8.6483 3.24419 13.77056 1.82054 4.79151-1.32586 10.23876-.47455 14.89222-2.06213 4.51253-1.54444 11.23675-4.02935 10.11221-9.47085-.77941-3.76764-6.46825-8.03283-10.75932-9.22352-8.36933-2.33248-7.2189 8.40672-15.73203 12.94226 3.73312-10.14673.50906-18.95897 5.74924-26.85086zm-1017.468207-1098.118579c26.888251 7.776856 52.186042-.241589 77.593124-7.558276-11.524358-2.42164-23.109113-3.58069-34.236575.563707-7.230405 2.694865-11.742938 1.012372-14.722532-5.749237-3.862544-8.746087-12.53673-12.519473-17.080899-5.844146-6.192149 9.091214-6.376217 3.111893-8.797856-1.383383-1.878065-3.511665-4.219175-6.845014-9.180372-4.788634 2.522302 10.060445 2.522302 10.060445-5.366721 19.833284 4.037983 1.725634 8.107603 3.454144 12.177223 5.18553-.002877 0-.37964-.255969-.385392-.258845zm-647.360017 695.027774c3.658344 6.462499 6.870899 12.344034 10.30491 18.087519 1.259713 2.096645 1.857932 7.167132 5.179777 4.817394 10.759327-7.607169 25.059079-4.656335 37.949564-13.359282-41.610783-5.349464-7.342572-28.438445-11.576127-43.31916-14.866335 15.729152-14.866335 15.729152-32.108293 6.997445 5.872907 12.384299 1.282721 29.223608 17.877566 36.744496-10.762203-1.33449-16.410777-11.308654-27.627397-9.968412zm1714.112324 422.012375c4.01497 4.72824 10.94052.02013 13.27875-3.13203 4.10701-5.50189 5.57955-11.40068 14.57873-13.04291 4.59018-.83981.52057-10.6184-2.07939-14.85483-3.36499-5.48752-6.78174-.46305-8.65405 2.66898-6.83064 11.4467-17.02913 3.70724-25.63717 4.85478-2.99973-22.82151-15.92472-7.13837-27.59001-6.2583 12.1082 12.80708 26.43096 18.36937 36.10314 29.76431zm-1024.672727-1156.488138c-7.966676 2.001735-12.795574.885825-17.040634-5.723352-4.432002-6.893907-11.300025-6.318696-18.090394-5.136637-2.090893.368136-5.346589 3.353482-3.333349 4.043736 9.091214 3.117645.776535 16.669622 10.371059 17.5612 18.993476 1.760146 36.968828 18.346363 58.409828 1.717005-12.131206-1.34887-18.024245-15.550836-30.31651-12.461952zm-378.664453 216.155766c5.691715-12.07656 11.389183-24.155997 18.308974-38.829636-19.422008 5.487515-32.162938 18.81516-49.243836 22.062228-2.395755.457293-3.500161 2.827163-2.441772 5.312076 1.271217 2.991099 4.135769 3.123397 6.931296 3.712989 4.032231.848436 10.627028-5.070488 11.650904 4.19329 1.783155 16.143304 8.855377 7.719335 15.064783 3.218307zm285.629783 1537.183092c-6.350333-7.70784-12.159966-15.9161-18.320479-23.60955-15.987997-19.96558-44.877983-18.47579-59.778831 1.45241l-.29911-.31062c3.845287-.72189 8.478614-.33074 11.397811-2.3785 9.237893-6.48263 13.365034-3.87117 22.899161 3.04287 12.001783 8.6972 25.496239 17.60434 39.951299 23.48875 1.389135-.5637 2.795526-1.13891 4.150149-1.68536zm816.817257-1543.918816c5.58818-9.493862 11.80621-13.344901 21.72573-5.864279 2.42451 1.826296 5.49039 4.728237 8.33481.132299-20.52066-18.711622-25.56814-18.162296-39.47675 4.084-.50906.8168-1.85793 1.377631-2.89906 1.547318-13.04292 2.116778-18.74902 14.912353-29.63201 20.267569 19.52267 3.684229 32.82443-4.664963 41.94728-20.166907zm-729.042894 1519.889356c-.59822 5.58531 3.589319 12.52235-5.412738 15.68026-3.954577 1.38051-9.623284 4.23356-8.297422 9.14874 1.317233 4.89505 7.121115 6.50851 12.188726 7.86601 7.11824 1.9097 6.891031-2.23182 7.610045-7.30806.80242-5.73198 6.131753-5.99657 8.616665-2.32673 14.222099 20.96933 28.69729 8.95317 43.270268 1.0095-23.275924 1.50418-43.647031-4.00635-57.975544-24.06972zm-624.409087-1217.739505c.005752 6.775989-9.97704 5.378225-10.069073 12.116825 11.95289 5.050355 11.95289 5.050355 24.10998-1.734262 16.985989-9.482357 21.898293-6.695459 23.411099 13.273l.189819-.273225c6.491259 5.429994 13.100437 5.41849 19.816028.42278l.109291.296234c-4.27382-4.285324-7.448986-8.38658-7.060719-15.5192.440037-8.214017-3.58069-14.961245-13.520341-15.162569l.316367-.221456c.442912 2.171422.480301 6.197901-1.090026 5.734856-12.421687-3.638211-24.179005 7.05209-36.494279 1.371879zm743.771177 1260.963765c-7.727963-2.85018-14.21347-10.16399-23.623926-9.35294-.629857 6.77599 5.165397 7.80562 7.402969 11.46971 9.954031 16.26985 10.862864 16.47693 21.162022 2.87031 7.716459-10.20137 21.567547-16.19508 22.266428-31.36052-11.12171 9.21776-25.910391 2.39288-37.716603 8.60804 3.618079 5.66583 16.177817 5.59393 10.50911 17.7654zm-10.097833-17.62448c-5.401234-7.12687-12.234744-10.69605-21.139015-7.26779-.834056-6.3906 8.947412-8.86401 3.920065-14.02365-2.487788-2.55969-8.360696-2.69487-12.623011-2.4504-6.632186.38826-13.189594 2.02186-19.781516 3.12915-1.164802 6.28418-6.399225 12.21173-1.64798 19.00785 17.184437-2.33535 33.980606 7.472 51.271457 1.60484zm-795.974477-837.09633c-13.971881 6.25543-28.9503826 12.76106-32.7410249 32.78705 13.5577299-9.27241 28.1911039-1.0814 43.0056709-5.42137-5.372474-4.23643-9.329927-7.35695-13.431184-10.59252 6.42511-5.62269 10.310662 1.32299 17.877567.36239-5.775121-6.88241-12.901989-17.94372-14.711029-17.13555zm1499.624664 580.22999c-11.27414-18.54769-18.03575-6.14901-25.97078 2.8588-3.73025 4.22493-9.15449 5.8499-14.35153 8.08747-4.20191 1.80904-13.40242 9.28391-7.73659 13.42831 10.06332 7.3742 16.91697-15.76367 29.98289-6.65807.56946.39977 2.97097-1.68825 2.5827-4.77426-1.15618-9.22926-.83118-9.16887 8.23415-6.5344 8.27154 2.39576 16.47692 3.97471 22.56266-6.38197-6.55166-3.52604-11.52148 6.1864-15.3035-.02588zm-1477.467525-463.15436c-2.993975-1.49268-8.392333-7.63018-10.578136.29911-1.150422 4.17028 2.786899 9.54275 7.647434 9.2005 11.127462-.77941 18.447025 6.81626 27.567 10.37394 4.457887 1.73714 7.920659 11.34604 13.577862 4.28532 4.403242-5.49902 11.176355-12.28076 4.374482-20.88017-.540699.13518-1.124538.23296-1.734262.29624-13.678524-.20133-27.572752 3.03999-40.85438-3.57494zm1100.321635 652.80727c-5.48177.92896-10.75645.92033-14.46081-4.2767l.42853.17256c-6.88528 2.22032-5.69172 12.57987-13.72454 13.64114l-.30199-.325c22.22329 3.85104 6.72135 18.42977 6.89103 31.89259 6.88816-8.37507 19.45365-5.41561 18.41539-17.44615-.84556-9.862 5.91317-12.2405 12.20886-15.7119-.00575.00575.02876-.04602.02876-.04602-.64999-5.65432-3.17229-8.97329-9.48523-7.90052zm-839.1901-166.15553c-4.814519-.39402-14.708152 9.08546-14.739789 14.18183-.060397 8.48149 9.347183 13.16084 17.903451 14.57586 9.669301 1.60484 9.741203-10.37681 17.213197-11.6394-3.609451-11.15335-12.47058-16.47405-20.376859-17.11829zm-115.758392-179.21282c1.064141-5.14527 12.076561-6.85365 4.756997-13.32477-2.821411-2.49642-11.780326-4.87204-13.100436.79667-2.631592 11.30577-12.643144 10.4372-22.884781 14.84045 17.072271 6.40497 30.307882 14.31988 45.827082 6.11449-.696005-.89445-1.409267-1.82342-2.122529-2.74951-3.172291-4.05236-10.152479-.44866-12.476333-5.67733zm471.555321-1406.592877c-4.170281.477426-9.091214-.690253-10.834104 5.588178-2.64022 9.525498-5.179777 19.292586-12.228991 26.776084-2.390003 2.533806-5.752113 4.647707-2.476285 8.170876 2.628716 2.827164 7.080851 2.249076 9.40758.198448 11.052685-9.758459 17.469166-22.536777 21.918426-37.788504-.224333-2.177175-2.867429-3.28158-5.786626-2.945082zm1031.917511 1179.395927c3.12052 1.37188 51.27721-14.57873 52.40175-17.55545 1.57895-4.18178-1.64798-8.08747-4.50678-6.14325-11.94427 8.14499-16.5891-4.52404-25.16837-9.05095 7.29943 17.26209 5.84414 18.67998-26.85374 28.34066-.08053 2.81853 2.18005 3.54905 4.12714 4.40899zm-1155.737488-1109.522138c22.77549 23.787862 39.007952 27.029177 58.970659 10.658665-21.760242 9.321298-37.765496-11.231-58.970659-10.658665zm638.076108 64.624986c-12.82721-3.971834-17.18156 5.191282-21.98745 18.277338 18.65122-11.682541 46.22398-.040265 51.48428-29.997268-11.96439-1.435152-16.12029 15.864327-29.49683 11.71993zm-365.239024-77.276758c3.55193-.42278 8.625293 1.725634 9.125727-4.38311.471673-5.798129-4.138645-5.683087-8.08747-5.927552-7.848758-.480301-15.407034-.730518-12.807079-12.516597.566583-2.588451-2.427392-6.203654-8.46711-6.370465 2.988222 5.639947-1.064141 9.945403-1.849304 14.544217-1.092902 6.422234-7.195893 10.207124-6.632186 18.084642 10.002924-1.193563 19.364487-2.303721 28.717422-3.431135zm-688.818369 512.03869c8.35782-12.139834 24.06684-6.149008 34.222195-13.862591-.002876 0-.238713.304862-.238713.304862-14.109932-2.096645-28.214113-4.25944-42.361434-6.094364-.744898-.097786-2.059256 2.496417-2.755262 3.997719-5.596805 12.085188 4.952569 12.272132 11.446704 15.432918zm175.859341 987.56009c-2.093769-5.48751-3.425383-16.71564-11.975898-16.24109-5.366722.29911-16.465423.69888-14.964122 11.52724.842685 6.09436 2.139786 14.41192 12.436068 11.79183 6.491259.32787 16.298611-2.37562 14.503952-7.07798zm1471.672272-631.97311c-8.93878-.48893-12.55973 6.17201-12.35553 12.87898.26459 8.78635 9.07683 10.0892 15.76078 11.43232 7.08086 1.42365 9.93678-3.54905 10.52062-11.08144-2.15129-6.13751-5.03022-12.74093-13.92587-13.22986zm-1335.421979-772.062946c-.310614-19.131527-12.654648-10.644284-21.337462-11.73431-.566583 9.091214 7.25629 10.782335 11.832096 14.414795-4.167406 5.165397-11.164851-.995116-14.409042 7.293678 13.201098-.592467 25.61991-.195571 37.552667 3.44264.862817-.511938 1.797535-1.038256 2.766766-1.570327-1.164802-10.207124-16.264098-3.146405-16.405025-11.846476zm-471.5754534 439.610963c-19.2408169-5.847022-38.1192507-11.579002-60.67040844-18.438397 24.49537184 21.665333 46.91135494 27.952392 60.67040844 18.438397zm1182.5825924-492.498763c-6.64369-13.836707-18.1968-17.592837-30.17845-18.633969-7.15563-.621228-6.24392 7.595665-8.2888 12.571242 12.53673 2.62584 24.52701 6.045471 38.46725 6.062727zm-63.75354 1699.677396c.8053.27035 3.90856-2.90769 4.00347-4.58444.22721-3.98333-3.50591-3.42538-6.12887-3.77338-19.23507-2.52805-32.85032 10.26752-48.68588 17.69925 18.81803 5.81251 31.69414-15.74929 50.81128-9.34143zm482.49872-282.08936c4.25081-2.55394 10.84561-5.14239 8.9129-10.28478-2.53956-6.76161-7.84588-3.57781-11.72281.44004-2.35261 2.4504-4.84328 1.71701-7.54389.46592-12.81859-5.94481-17.48643 2.77827-21.85516 12.9854 10.45447-5.84415 21.93856 2.56831 32.20896-3.60658zm244.52806-347.86477c-7.41447 6.33596-20.27044 4.18179-24.11573 14.10418-1.61634 4.18754 4.5643 9.07109 9.9339 8.52176 9.26953-.95485 16.93997-4.98708 18.70012-13.99489.24446-5.18553-2.71788-10.16974-4.51829-8.63105zm-194.97649-694.622246c-9.28678 3.882676-13.7648 13.218355-19.69235 20.601191-1.21082 1.507054 3.27007 7.906279 8.87838 7.503631 14.23073-1.018124 14.73116-12.252 16.46255-22.582794.86282-4.489524-2.45903-6.856518-5.64858-5.522028zm-1533.055942 37.428997c13.100436 6.186397 8.354943 12.073684 2.159918 18.136411-2.182927 2.139786-3.065876 4.754121-.48893 7.33682 2.073637 2.079389 4.489524 3.34773 7.575533 2.821411 3.039991-.514814 6.614929-2.381374 5.691715-5.056107-5.737732-16.66387 7.52664-21.898293 17.12404-30.420048-11.274141-.365259-19.548555 7.917783-32.062276 7.181513zm673.583898-476.476254c.894454-2.033371-.491805-4.892171-3.272952-4.702352-10.140975.687378-14.587358-8.717326-22.315321-12.298017-2.292217-1.06414-3.787766-4.912304-6.865147-2.69774-2.88756 2.088017-4.187538 6.5344-2.157042 8.887014 5.706096 6.603425 8.245654 18.602332 23.905781 13.393794 1.728509-.796668 7.943667 3.753254 10.704681-2.582699zm921.005274 1318.435993c2.80415 4.64483 7.05497 8.65406 11.34604 12.09382 3.3391 2.67473 7.63593 5.34084 12.25488 3.3276 2.79552-1.21658 3.17516-4.6132 2.47916-7.37421-1.36325-5.38686-29.1891-20.59832-38.92167-19.54856 6.37046 4.30258 10.14672 7.02908 12.84159 11.50135zm-956.317494 407.33874c-12.010411 3.51166-23.951797 7.29655-37.086746 4.25368 1.82342 3.71299 3.042868 6.19791 4.262315 8.68857l-.336498-.2761c16.471175-4.00347 19.355859 8.96179 24.256659 19.42201 3.954578-3.1349 6.554532-7.04634 7.034834-12.19161-18.05013-8.13348 5.619814-11.68541 1.869436-19.89655zm-46.419549 47.01777c-8.208265 7.24478-19.784391-.92034-28.409684 5.85852 27.089574 19.1229 27.089574 19.1229 40.310805 11.56175-11.866608-1.55882-15.697515-7.61292-12.182974-17.75102zm-646.73016-983.08783c-4.76275-3.710112-8.809361 1.33449-11.018172 6.68683-2.867428 6.95718 1.504177 7.68195 6.338828 8.2888 8.809361 1.11015 17.9696.71326 25.668803 7.34544 1.340242-16.33887-13.247116-16.29861-20.989459-22.32107zm646.454059 982.76283c2.096645.82255 4.515408 1.22808 6.203653 2.55682 3.295961 2.5942 5.660079 8.43835 10.753575 2.83579 2.930701-3.21543 7.308059-7.19877 7.129744-10.63278-.244465-4.6851-6.528648-5.70322-10.785212-6.62356-8.748963-1.88669-17.664738-3.28446-27.037805-.3969 4.121388 5.26894 19.00498-1.86656 14.00927 12.58563.002876 0-.281853-.33363-.273225-.325zm-663.382527-1022.210818c8.191008 1.883817 12.588499-2.838668 15.967865-9.281034-6.873775-2.720749-10.658665-10.664417-19.140155-10.871493-6.4107297-.155307-8.3204311 1.857933-4.9238086 7.673319-6.5631605 10.215752 1.4236476 10.943394 8.0960986 12.479208zm1473.084421-470.028135c-10.9664 3.537549-21.23968 6.094363-31.5072 8.642549l.29911-.319242c-1.1648 2.916321-2.3296 5.832642-3.49153 8.751839.77078 6.243919 5.11075 8.047206 10.5465 8.495871 8.05008-8.527507 16.09728-17.049262 24.15312-25.571017zm-79.05991 1315.959713c-2.96234 2.52805 1.00086 11.5071 4.98708 12.39005 9.6808 2.15129 18.74038-.53207 23.90578-11.44383-10.1266-4.50103-20.12089-8.42972-28.89286-.94622zm333.07896-496.91351c4.38886 8.55051 15.85282 13.96325 28.77494 3.40525-11.44383-2.40151-14.92098-8.97042-13.94312-20.46027-1.12454 11.10733-21.95581 3.16942-14.83182 17.05502zm33.27597-322.845955c-3.73887-3.419631-8.68857-3.022736-11.37193 2.102397-1.17055 2.240448-2.19731 6.102991-1.08427 7.707831 2.64597 3.819407 7.57841 5.691717 11.93276 4.446387 10.52924-3.019863 18.36074-9.393204 21.50139-20.885925-8.42397-1.049761-9.90801 16.767408-20.97795 6.62931zm-1660.223655 456.487665c-4.71098-15.5192-21.167775-11.48697-31.222468-19.62046 6.163389 22.59717 11.602012 25.78385 31.515826 19.28108-.002876 0-.287606.3365-.293358.33938zm1032.694045-1158.13037c-5.94481-3.678476-13.05154-4.495276-16.57759 1.138919-4.72536 7.5554 3.61808 7.118239 7.82863 8.283042 3.29021.903082 4.7685 2.493541 4.23068 5.81251-.69026 4.265191-.98362 8.582152 5.3207 6.922667 4.23643-1.121662 5.75211-4.964073 5.93618-9.490985-1.63072-4.345722-1.82054-9.629037-6.7386-12.666153zm-669.422245 1716.30388c-6.755856 8.10472-9.994296 19.14015-14.874963 29.01365 21.495645 6.39923 10.158231-25.41283 25.234518-21.95006-4.483772 2.73225-.770783-18.57645-10.359555-7.06359zm1212.272125-1241.504367c.35951-6.635062-4.77713-9.861997-11.06706-9.519746-7.95805.431408-14.88359 4.854783-15.07054 12.654648-.15243 6.177769 7.47487 4.633326 12.26638 5.191281 5.81251-.851312 13.41968.155307 13.87122-8.326183zm-1179.142832-490.120265c-1.949966-6.381969 8.636797-9.70669 4.613194-15.878707-8.475738-13.005526-17.164304 3.917189-26.738696.557955 10.163984 1.929834 10.063322 17.02913 22.125502 15.320752zm741.680282 1647.750202c.41991 7.87176 18.38951 16.8882 25.82124 13.99489 1.82342-.70751 3.27295-2.70062 4.46076-4.40325.21858-.31349-1.85793-3.13202-2.42739-2.98822-11.06131 2.78115-10.83986-8.99343-16.70989-12.76681l.5407.696c-5.85278-2.20018-12.11395-2.38712-11.68542 5.46739zm-596.804696 105.57427c6.824881 2.68624 10.871493 17.53819 14.124312 11.76882 6.445243-11.40931 21.277065-11.92413 25.783846-25.85862-15.855699-.08053-23.45424 18.25146-39.908158 14.0898zm126.983639-20.4919c-.805296-2.57695-5.41849-4.04949-9.048073-2.88756-3.646839 1.17631-6.925544 4.10126-2.116777 6.62356 13.370785 7.01182 21.696969 27.21324 42.539749 14.94686-13.816575-1.14467-26.499983-3.0745-31.374899-18.68286zm-25.651546-1768.067138c2.34111 4.50678 8.389456 5.769369 13.436935 2.174299 1.642228-1.167679 3.97471-3.830907 3.577814-5.004338-2.329606-6.983065-6.209406.106414-9.352935-.681626-2.709245-.684501-2.579823-3.189546-3.339102-5.271811-2.585574-7.129744-8.944535-6.52002-14.22785-5.409862-6.790369 1.41502-7.549648 7.178637-6.52002 16.054147 6.370465-5.493268 10.813972-12.657524 16.425158-1.860809zm464.129343 31.0384c1.63072 1.262589 4.00635-.074777 3.10902-1.944214-2.57695-5.412738-4.72536-12.148462-9.19188-15.222966-4.70235-3.229811-11.85223-.845561-12.65177 6.163389-.59247 5.199909-6.63219 3.773385-7.26492 9.206256 9.56864 1.449532 18.16517-4.279572 25.99955 1.797535zm-208.92248-79.554594c6.97731-7.62155 21.46113-3.776262 25.27766-16.937096-15.48757-8.475738-23.79937 4.314084-31.7718 12.582746-4.06099 4.219175 3.55193 4.026479 6.89103 4.285324-.00287.002876-.39114.071902-.39689.069026zm694.52158 801.646059c10.58677.880073 20.35961-.023009 25.7781-11.161975 1.55019-3.18667 6.73572-6.404977 1.24245-9.643417-3.19817-1.886693-7.69057-1.32011-10.69317 2.214564-5.34947 6.292811-10.71619 12.57987-16.06853 18.872681 0-.005752-.27035-.287605-.25885-.281853zm-1676.490624 215.508653c15.881584-2.48491 27.385809-14.90085 42.614527-18.74038-19.295462-4.50678-29.775811 9.51112-42.614527 18.74038zm162.741648-599.580093c11.737186 1.501302 7.960924-11.725681 8.720203-15.887335 1.645104-9.002056-10.986535-2.988222-16.22671-8.05871 10.014428 6.393474-8.921526 21.83502 7.506507 23.946045zm700.265074-388.164067c13.120569 5.726228 23.764852 9.085462 35.628582 3.534673-10.33367-16.603473-21.78037-8.35782-35.628582-3.534673zm-626.04844 354.936989c-8.927279 1.558822-17.667614.744898-26.505735-1.2252-2.996851-.664369-7.259166.624104-7.538144 4.892171-.215704 3.281581 2.821412 5.128009 5.752113 4.814519 10.934766-1.164803 21.901169 6.387721 32.798546-.29911-1.590459-2.769642-3.224059-5.628442-4.860535-8.490118 0 0 .353755.304862.353755.307738zm804.386942-342.923702c1.27984-3.669848-3.02561-5.406986-5.17115-4.4924-8.31756 3.554806-19.5428 1.725634-24.38896 11.73431-1.88669 3.891304 1.82342 4.345721 5.15677 4.293952 8.21402-3.244191 20.19567.460169 24.40334-11.535862zm-101.9562 1804.897913c-12.50222 9.99717-22.70934-21.07861-37.80863 1.9586 14.18758.34512 25.85574 7.35695 37.80863-1.9586zm420.32701-198.09988c3.15216 3.78489 6.57179 4.0236 10.2934 1.32586 1.97873-1.43803 2.48492-5.67446 1.53007-5.69172-12.13984-.28185-11.57901-22.23191-28.65703-15.09354 5.99658 6.89678 11.52723 13.08606 16.83356 19.4594zm-288.18372 137.33744c11.3863 3.79927 21.25405 10.37969 34.3171 4.48377-10.05469-2.16854-21.79763-2.15992-18.94458-18.92732-3.15504 7.98393-12.5885 6.24967-15.37252 14.44355zm-983.251764-434.63539c4.2882 1.6825 9.189 6.78462 13.040039-.10353 3.874048-6.93705-1.952842-8.85826-6.778865-10.36531-6.172016-1.93271-12.102445-6.3417-20.319338-1.0325 7.152753 1.27409 8.242778 9.21776 14.058164 11.50134zm418.526594-1223.520379c-7.966676-29.821828-22.349834-16.266974-35.133904-10.135222 11.167727 2.418763 23.465744-2.562566 35.133904 10.135222zm1267.75125 984.531609c-5.22004-.24447-10.71906 2.45615-10.68742 8.18813.01725 5.74636 5.66583 8.04433 10.78521 8.30893 5.90742.29911 10.51199-2.65173 13.11769-8.37508-2.3296-6.21228-7.80561-7.87464-13.21548-8.12198zm-1795.478827-294.70662c-9.4967384-26.934267-9.6779299-27.023425-27.397313-11.182107 15.4904394-11.452456 15.5508366 13.203977 27.397313 11.182107zm1536.858097 655.58266c-8.68569-.58959-17.30236-1.17055-25.91327-1.75439 8.44122 1.36325 17.38001 36.06574 25.91327 1.75439zm-179.84268-1242.660536c-4.74837-3.747501-9.64054-6.028214-14.40905.054645-5.77224 7.368456 2.4504 8.628169 5.5738 10.667293 4.432 2.899065 10.09496 3.928693 17.48355 6.560285-2.78978-8.067338-3.99772-13.615251-8.6483-17.282223zm-1047.8106-18.533307c-3.986215-1.015248-10.667293 3.103265-7.794113 7.730839 3.310341 5.326457-2.352614 15.033147 7.492127 16.172065 3.060124.350879 8.170876.592468 9.698062-5.536408-10.796716-2.251952.350879-15.887335-9.396076-18.366496zm1337.66531 1063.821603c-1.57321-1.78316 1.28272-6.53152-2.96234-6.56891-3.14353-.02589-6.6667 1.40064-9.35869 3.18667-2.84442 1.88957-2.03337 5.33796.10066 7.33107 5.49615 5.12513 8.58791 13.60662 20.41713 12.20885-15.15107-.30486-4.03799-11.4467-8.19676-16.15768zm-1314.501553 309.57008c27.636026.99511 27.636026.99511 22.289437-21.6452-2.499293 14.07542-15.849947 13.19822-22.289437 21.6452zm527.744834-1585.175844c-8.852501 1.469665-13.183842-12.413059-24.32856-7.630177 16.353256 11.855104 16.75878 15.044651 2.528053 23.40247 16.589093 4.406119 15.901716-9.623284 21.800507-15.772293zm-839.48058 1051.572484c-2.660352 2.19443-8.110479 4.42049-4.141521 8.86688 2.694865 3.02561 8.596532 1.70837 10.721938-.51769 4.872039-5.11651 10.0058-9.54276 19.965583-12.98252-13.293133-5.43862-20.100758-.6845-26.546 4.63333zm1756.407609-66.60372c-4.4694 2.33536-12.29514 1.73139-12.69204 7.94942-.31349 4.95832 4.67072 9.31267 10.37969 8.02995 5.32358-1.19644 9.92814-4.5643 10.81397-10.56375-1.05264-5.20279-4.68222-7.41448-8.50162-5.41562zm-69.05412 407.12591c2.22607 4.82027-.6845 14.56147 9.49674 12.48496 14.84045-3.03136-6.09724-12.12545 2.49354-17.68199 2.34974-1.52719-.95485-5.95919-5.52778-5.63707-5.13951 1.74576-9.45647 4.34859-6.4625 10.8341zm63.94624-342.94383c-7.0866-.63561-9.35293 4.79151-11.67679 9.81022-.9491 2.05926-.78229 4.88642 1.61347 5.71185 5.27469 1.82055 9.87638-.56083 13.37941-4.20767 2.52518-2.62009 7.32244-3.43976 7.27355-8.34344-2.7265-3.90281-6.91404-2.64597-10.58964-2.97096zm-1381.643084 534.56684c-5.053231-3.65547-9.442093-1.93847-14.521209 2.33823 2.930702 3.10326 9.108471 4.50103 8.320431 9.26953-.802419 4.87204-1.299977 8.2514 4.892172 7.11249 5.340837-.99224 7.707831-4.55855 5.501896-9.98855-1.262589-3.11189-2.993975-6.03684-4.518284-9.04519.002876.00287.324994.31924.324994.31349zm-309.193313-1019.070171c-7.454738-10.11509-18.306098-14.411918-29.850588-17.644605-3.088885-.865693-5.872908-.572336-7.167133 2.237571-1.685369 3.655468 1.426524 5.530657 4.16453 5.568045 11.98165.138051 21.271312 9.281034 33.137921 9.531251zm88.335195-132.896811c3.028487 1.087149 6.051222 2.171422 9.082586 3.255696.509061-1.469665 1.869436-3.819403 1.392011-4.285324-5.021595-4.915181-8.383704-12.97389-15.999502-13.399547-7.828625-.43716-9.769963 6.338828-11.400687 12.401555 6.419358 3.201051 12.853096-7.218901 17.236206 2.34111-.002876-.005752-.307738-.31349-.310614-.31349zm-6.968685-89.94291c11.075693 5.007214 22.137006 10.11509 35.110896.506186-11.239628-1.74289-22.47638-3.491532-33.718885-5.234423-.460169 1.573203-.92609 3.152158-1.392011 4.728237zm850.866887-317.292287c-10.63566-16.462547 10.76796-12.530978 10.4861-22.444744-6.93417-4.388862-14.58448 3.747501-20.92043-1.903949.00575.002876.39689-.063273.39689-.063273-2.28646 9.004932-2.59995 17.37138 10.03744 24.411966zm737.39208 1290.075199c2.69775-1.57032 3.59508-6.16051.37389-8.66268-7.32244-5.69171-14.31701-2.57694-24.42634 3.34198 9.9569 3.23844 15.89308 10.06332 24.05245 5.3207zm-1750.408147-447.02831c12.735177 2.29222 20.581059-4.19329 18.570696-15.27761-.557955-3.07163-2.10815-5.1654-5.245927-5.69459-2.111026-.35663-6.232414.18119-5.507648 1.43803 5.858527 10.12084-7.408721 12.44469-7.581285 19.83328zm1422.373797 695.4448c7.4346 7.1959 4.81739 15.25461.27897 23.135 16.48268 1.86656 18.15655 1.33737 16.35614-3.22406-3.28734-8.32043-3.91144-19.48528-16.90546-19.63196-.00288-.00287.2646-.27898.27035-.27898zm-936.996149 190.98452c-15.568093.75353-25.916144-6.33307-36.85091-.80241 10.8226 2.50216 21.173527 11.45533 36.85091.80241zm1028.848759-1428.082761c-6.68396 2.729377-13.86835 5.52778-15.01877 14.020774-.3365 2.490665 2.94221 4.555673 4.63908 2.689113 4.87779-5.386854 13.85972-5.312076 17.14705-13.088932-1.48117-2.95371-3.94595-4.771378-6.76736-3.620955zm-1268.243061-179.719009c1.93271.474549 4.794386.391144 6.137505-.73627 1.857932-1.555947 1.072769-4.826023-.937595-5.628443-8.004065-3.209678-14.823194-12.948005-27.095327-4.437754 9.88213 1.015247 14.201967 8.912898 21.895417 10.802467zm1169.315351 107.547251c-12.20886-1.725634-24.156-1.627848-35.6516 3.572062 12.53961 4.058115 24.13587.629856 35.6516-3.572062zm358.58383 836.089709c-4.59019.36238-10.9549-1.68824-12.52235 4.83753-1.2741 5.29769 3.6152 6.1979 7.48925 6.15763 5.38685-.06039 11.00091-.35375 14.06104-5.92467-1.06702-5.62844-5.34372-5.35809-9.02794-5.07049zm-217.96193 454.15518c-2.59996 1.95572-8.56777 4.21342-4.33422 8.68857 5.43862 5.74348 12.0593 2.70924 19.06825-1.92696-5.38973-1.4294-5.64569-13.60087-14.73403-6.76161zm-1.71701-1109.179886c10.86574-1.892445 24.96705 11.860856 33.49743-7.598541-12.93363-1.866561-22.61731 5.176901-33.25296 7.811369.00575 0-.25885-.221457-.24447-.212828zm-1491.442286 44.955636c-1.328738 5.07624 2.643096 7.420226 6.525772 7.267795 4.339969-.172564 8.79498-2.295093 9.099842-7.739468.201324-3.669848-2.044876-6.065603-5.864279-6.965808-4.291076 1.023876-8.518878 2.703493-9.761335 7.437481zm55.752352 108.249009c-12.464828-7.282175-21.443876-1.898197-32.421783 7.333943 14.486696 3.045744 23.411099-2.79265 32.623107-7.615797-.002876 0-.195572.273226-.201324.281854zm495.791848 1227.227621c5.128009.66437 11.555995.39977 14.345769-5.67158 1.032504-2.24908 1.219448-7.01183-.023008-7.81137-4.961197-3.1838-7.374209 2.51942-10.926138 4.35435-1.357499.54357-2.761014 1.12166-4.158778 1.67961-2.516549 2.84442-4.032231 6.82488.762155 7.44899zm955.307996-376.0645c.99512 5.2373 4.45789 9.47085 9.22927 10.6069 4.83177 1.15329 6.24391-4.16166 6.75298-7.64744 1.06414-7.28792-5.25456-6.85652-9.24365-8.08747-3.92869.14956-7.71071.02013-6.7386 5.12801zm-1349.782131-8.66268c-9.050949-1.98448-17.820045-1.83493-28.311899 3.71299 12.844468 12.59137 19.90231.65286 28.311899-3.71299zm855.356411-1617.41930887c-10.63853 9.06820563-9.57152 20.62419997-7.19014 32.45341967 2.39-10.8139718 4.79439-21.6336957 7.19014-32.45341967zm248.20366 367.85335787c-14.00639-12.131206-22.91354 5.519152-32.88195-1.018124 10.73344 16.52582 18.85543-2.950834 32.88195 1.018124zm446.29204 768.784241c-2.44752 2.09664 1.38051 6.62356 4.01498 7.83438 8.35782 3.83953 13.946-1.14467 21.70847-8.58216-10.5465 0-18.51892-5.44149-25.72345.74778zm-1300.454886-808.591737c-9.654921-2.286465-13.80507 4.903676-18.671357 10.839856.008628-.002876-.008629-.4084-.008629-.4084 16.764533 6.919792 17.017626 6.775989 18.679986-10.431456zm-20.906053 1526.691237c1.276969-2.18005-3.178042-4.88642-5.68884-4.95257-7.713583-.18695-15.872955-.2042-17.825797 13.76768 8.461358-6.30432 18.354992-.02013 23.514637-8.81511zm-21.75449 43.47159c-12.896237-4.40324-24.432099-2.42164-35.136781-5.97645 9.413333 6.61781 19.315595 13.71592 35.136781 5.97645zm-180.150417-1473.743038c-.336499.140927-.097786 3.198174.70751 4.259439 1.593335 2.093769 4.385986 2.119654 5.685963.09491 4.647707-7.264918 13.327645-7.411597 22.223287-12.95951-14.176081-5.893039-20.152526 5.107876-28.61676 8.605161zm37.79138 55.157008c2.044876-.897329 4.331341-1.463912 6.074231-2.76389 3.968958-2.950834 12.272132-2.522301 10.166859-10.261769-.710386-2.617211-8.222645-6.980189-8.234149-6.203653-.138051 8.769095-12.991147 10.175487-10.776583 19.551431.01438.060397 2.036248-.356631 3.120521-.552203.002876-.002876-.353755.230084-.350879.230084zm277.950713 1541.85956c4.984205 3.2183 2.228943 11.41794 8.46711 12.64314 3.59507.70463 7.000321-1.80041 5.990825-6.06848-1.274093-5.42999-3.724493-10.47747-9.344307-12.41594-3.623831.96348-6.563161 4.90656-5.113628 5.84128zm-115.9856-1699.386917c-.632733 1.941338.4084 3.468523 2.401507 3.229811 1.432276-.172564 2.738005-1.403516 4.095504-2.162795-5.579549-8.892766 7.123992-16.597721 2.297969-26.140476-11.990279 5.90742-6.14038 16.91984-8.79498 25.07346zm471.822793-206.886237c-10.54075-3.727369-18.50167.719014-26.681174 1.972975 8.659804 5.360969 17.239084 9.606028 26.681174-1.972975zm-378.399855 1855.651684c-8.041454.73339-16.833558-3.48866-26.894003 4.51828 11.541614 1.94997 21.53591 13.41968 26.594893-4.83465.005752.00288.304862.31637.29911.31637zm-539.381358-916.11023c-2.9709662-1.52718-5.9102957-3.06875-8.887014-4.52979-3.977586-1.94996-6.8593944-8.57352-12.6028789-3.13202-1.8147916 1.71988-1.8147916 3.86542-.4457887 5.95343 3.0514957 4.65922 7.4806225 6.7386 12.8013267 5.55942 3.1233972-.69025 5.9534366-2.70637 8.9215269-4.13002-.002876.00288.23296.29911.212828.27898zm50.299349 164.80091c-22.415983-7.39147-22.415983-7.39147-32.695008 4.63045 12.574118-7.33395 22.674828 1.15905 32.695008-4.63045zm631.354764 730.53556c-6.442366 4.69373-18.038626-2.84154-21.892541 10.55513 8.748963-3.91719 16.307239 3.02273 25.611282 1.17343-1.567451-4.63333-2.81566-8.32618-4.063868-12.01329 0 .00576.336499.27898.345127.28473zm-300.478862-95.63462c1.616343 5.17402 7.239034 3.45414 9.666425 1.21369 2.942206-2.70924-.103538-6.57466-2.556814-8.32906-4.863411-3.48002-10.356679-6.08573-17.006121-9.86487-.304862 9.58877 7.981056 10.83123 9.89651 16.98024zm1327.438052-901.022436c-3.10902-2.065009-8.23127-3.261448-12.23475 2.999726 8.68569 5.429995 16.39065 7.676195 25.44735-.29911-4.67647-3.247067-9.14298.005753-13.2126-2.700616zm78.89022 93.888856c-.16106 7.05497 6.93418 5.34947 11.37481 5.92468 3.8798.49756 9.19475-.41415 8.84962-4.9727-.45729-5.9218-6.27843-4.66784-10.60977-4.50966-3.49441.70463-9.51112-1.44666-9.61466 3.55768zm-1680.102951 339.82907c-1.167679-5.95632 4.184662-10.56088 5.165397-19.1114-7.687699 6.5344-17.624473 1.63936-21.656704 11.57613 6.456746 1.70263 12.56549 2.44177 16.787541 7.25054 0 0-.301986.29623-.296234.28473zm-41.797727 133.58994c-1.630724 1.57033-1.055513 4.92668 1.179183 5.63994 8.260034 2.62297 14.549969-.70751 21.619316-8.7921-9.571516-2.41301-16.640862-2.76964-22.798499 3.15216zm107.550127-754.961914c-4.46364-2.096645-9.519747-2.743758-13.060172-6.876651-7.543896-8.809361-13.782062-4.063868-19.876425 2.453276 11.314405-.765031 20.811143 10.882997 32.709388 4.158777-.002876-.002876.247341.28473.227209.264598z" fill="#fff" transform=""/></svg>