<svg height="2248" viewBox="0 0 1407 2248" width="1407" xmlns="http://www.w3.org/2000/svg"><path d="m850.123878 151.539383c15.356967-11.971493 33.267171-5.263701 36.486878 13.661587-2.664002 1.759574-9.349352-3.511638-8.206028 1.836567 1.943088 9.068289.080728 19.323399 6.786728 27.400166-1.858606-10.027886.996889-19.695219 1.184627-29.473346 7.9676-14.502877 13.928282.326751 21.634926 1.556763-.679612-7.295569-.814783-14.538557-2.204044-21.531786-.923671-4.655268.996889-6.272124 4.57893-6.140672 2.577642.093894 5.3449 1.318273 3.349245 5.490925-2.301667 4.822399.70214 7.40073 4.847395 9.66921 10.261759 5.616743 8.727939 10.202529-1.616424 13.571448-4.426862 1.442213-8.329934 5.179197-6.535159 9.019464 2.44998 5.259945 1.563857 12.587438 6.98573 15.706599 3.963149 2.27787 8.080243 1.042224 7.548945-5.535994-.446817-5.487169 1.642707-9.988451 7.710399-11.342403 6.471328-1.447847 11.83688-.108917 15.020916 6.32846-13.71426 5.115348-1.841709 16.102831-4.903716 23.120474-6.28359 3.913504-5.5026-7.158484-11.64351-4.279692 1.408035 6.80732-1.896154 13.090711-3.00193 20.551533 3.381161-2.647813 5.519497-5.387642 8.269858-6.29278 12.120365-3.986742 15.514667-11.808118 11.881937-23.659426-.925548-3.008366-.576355-6.407331-.811028-9.624142 4.822989.202812 10.466393-3.201787 11.303705 6.469301 1.653971 19.137488 3.957516 20.078307 21.708143 13.809939 1.629566-1.590565 3.302311-3.205543 4.975057-4.818643 11.814351.743641 14.129161 10.829741 6.161561 13.975192-15.935201 6.302169-1.903664 12.271954-2.301668 18.061462-5.78233 1.440335-10.952634-1.338929-15.867615-3.244979-10.622215-4.121949-12.70423 2.048769-17.393925 11.954592 10.055247-4.482502 16.843853-3.740739 23.707554-3.35014 3.884299.217834 10.1172 2.660958 9.298662-5.603598 5.908115.747397 9.484523 3.67877 8.656599 10.046665-.285362 2.230923-1.657727 4.21021.585742 6.275879 5.194712 4.796109 9.278012 10.961193 16.539722 13.160192-8.76737 12.671943 9.53896 10.234453 10.656 17.481197-8.5646-8.583796 2.17964-25.159853-15.63857-31.131516-11.720484-3.924772-11.324356-28.277136-.9631-38.412061 2.57201-2.518239 9.33997-3.742617 1.97501-8.473-3.154-2.026234-9.63659-3.209299-4.68031-8.514314 5.92125-6.330337 4.78169 4.578275 8.59464 4.429922.87299-.037557 1.75723.084505 2.5983.13333 5.28294-4.473113-3.91809-6.698403-1.29164-11.195928.97061.092016 2.70155-.279805 3.32859.390599 5.66969 6.0449 15.20866 9.428842 13.54155 20.59848-.48625 3.267513 3.56139 3.641211 6.05079 4.655267-1.41179 7.658 3.51821 12.343314 8.06898 17.205148-10.95639 8.88989-3.28541 15.199571 2.98691 21.683895-5.74666-2.065669-12.35128 4.121949-10.70482 4.805498 11.6116 4.801742 5.51199 17.357257 12.37757 25.762653 1.8924-9.490812 3.39805-17.036139 4.89433-24.581466 2.94561 3.021511 5.89121 6.0449 8.78989 9.073923-10.33498 7.075856-8.40691 20.382523-14.98149 29.642355-2.71469 3.829 3.42058 3.372675 6.31926 3.436523-.87111 4.645878-1.28038 10.521769 2.91932 12.407161 5.35805 2.409322 3.87116-4.623343 6.00199-7.040176 2.22657-2.523873 6.24792-3.367042 6.97634-1.004667 2.20029 7.149094 15.41329 7.554716 11.02585 18.076485-2.54572 6.09748-5.85554 11.875721-8.76548 17.687764-11.44076-6.454278 4.3405-18.373191-5.91375-24.647192-5.29421 1.276959-2.45561 7.776306-6.45819 9.798784-12.50335-14.435273-16.07412-14.829628-28.67885.754909 13.18484-8.480512 20.33014-5.620499 24.76076 4.792353.88612 2.078814 5.82927 1.605588 3.77541 5.941616-1.22405 2.591476-2.93247 2.033745-5.2116 2.341718-2.53071.343652-1.59202 18.703697 1.10389 19.300863 4.99571 1.109828 4.94878-1.70136 3.94813-5.68059-.98374-3.932284 2.067-5.828944 5.37494-6.779152 3.22159-.922039 5.92314.503272 6.13716 3.718205 1.0701 15.963869 13.54342 17.154445 24.99168 19.990046 2.56262.634724 4.85866 2.369886 7.27297 3.599898l.22153-.270414c-6.99324 1.213111-13.12852 9.796906-21.69688 1.669436-1.08137-1.027201-11.14225 5.487169-15.21429 10.114268-3.67966 4.182042 2.82734 7.945316 4.02135 12.208106 1.3198 4.728505 9.41694 5.047745 7.70477 12.386505 3.32672-6.377285 5.39371-12.033463-1.95435-15.879364 9.44322-5.599842 16.37638-7.269278 20.76757 6.377285 1.179 3.675014 8.41254 9.751837 14.81628 12.166793l-.26471-.234735c-2.03695 10.305812 7.55646 12.121723 12.66669 17.135666 1.43619 1.402777 3.64587.758664 4.93187-.768053 2.56263-3.057191 1.49252-6.084336-.79601-8.713369-2.25848-2.587721-4.80984-5.934105-1.10014-8.069256 3.79418-2.18022 5.52137 2.535139 6.67596 5.104081 3.31358 7.336882 12.87507 13.235307 5.82739 23.278216-1.07386 1.526718-.82229 3.357652 1.4437 4.503159 8.47825 4.296593 14.71866-2.717294 21.77949-4.664657 5.75605-1.590565 1.04382-6.110625-.42429-8.931203-1.85297-3.560463-1.44746-7.188529-1.27099-10.816596.05069-1.089171 1.27099-2.672225 2.28478-3.006488.89926-.292949 3.30982 1.19621 3.27227 1.291982-2.82734 8.275823 7.54519 12.854098 5.72225 21.047294-.91428 4.106926.11265 8.619474-6.36056 8.134981-4.37805-.328629-9.22732 1.291982-8.32618 5.962273 1.087 5.612987 9.08464 5.049623 11.33562 3.89097 5.54578-2.84499 5.8931-4.142606 5.14214 3.280659-.36045 3.643089 4.22223 1.297616 5.66594-.961476 2.84798-4.471235 5.17593-9.259832 5.85367-15.377969 5.78984 4.028055 3.68529 8.309624 3.64399 12.157403-13.31438 8.679567-2.62833 17.591992.04693 26.416156 5.05954-8.856088-1.72718-17.736589-.26471-26.605822 9.85062 4.07688 19.82326 10.268255 25.38406-5.986685 1.89803-5.543506 7.84932-4.818644 13.81564-4.213966-.61578 4.976385-14.8238 3.35953-5.04828 12.153648 1.59765 1.438457-4.34801 11.289822-1.23531 17.533777 1.75722 3.522905-5.28671 10.296423 4.79858 10.948047 9.59529.617823 10.13222-7.464577 8.55334-11.030674-6.50887-14.660619 6.63091-11.434419 12.06029-13.302911 4.36491-1.507938 5.86869 5.592331.87298 12.318901-4.19219 5.648667-6.94067 10.268255-.97811 16.474652 2.84047 2.961419 5.52137 7.847666 9.45824 5.299381 4.66904-3.027144 5.04639-10.904856.97811-13.079443-6.14466-3.290048-2.62082-6.289024-1.15459-8.40164 4.87368-7.02891 6.91064 2.491948 11.30183 2.668469 7.91879.317362.42241 3.370797-.04318 5.402664-2.48565 10.902979 2.47626 18.035172 11.80684 22.536453-3.9838 14.885965-19.91149-6.033632-24.29517 9.321803 5.28107 1.076026 10.5321 2.037501 15.73432 3.246856 5.31862 1.235646 7.6353 6.540661 7.77611 10.241965.22528 5.898425-5.58333 2.168953-8.68664 2.997098-1.62393.435669-3.20093 1.059125-5.11586 1.705116 7.52078 9.956527 20.28134-2.597109 26.90473 7.761284.73593-1.012178 1.82294-1.928584 2.13458-3.062825 1.02881-3.748251.12766-9.554659 7.19975-5.462756 5.39184 3.121038 7.02328 7.096513 3.58392 12.594949-.73405 1.16992-1.8924 2.112617-2.45373 3.346385-1.38363 3.053435-2.35987 6.634554.66834 8.899279 3.17465 2.383031 4.47943-1.966142 6.75669-3.034656 1.64271-.771809 3.20469-1.712628 4.96004-2.65908 2.81983 7.058956 5.63026 13.766748 8.14783 20.587212.97061 2.630912 1.62393 6.557562 4.83425 5.485291 6.46007-2.159563 10.69168.722985 11.63788 5.883402.99314 5.404543-6.93504 4.908782-9.2705 8.593185.92367 4.521938 10.30869 1.460992 7.21102 7.751894-2.63021 5.327549-8.32431 3.134184-15.58601-.98401 5.58708 10.388439 9.92571 14.454052 17.58917 8.292724 3.44312-2.771753 8.83871-3.699426 8.87062.236613.07697 8.672055 22.45722 5.611109 9.6854 19.584423-3.51821 3.842145-5.09896 8.441076-5.69221 13.663464 5.99259.681671 2.10642-7.714336 6.97634-6.591363 5.20034 1.199966 2.33358 6.185741 3.32296 9.39504 1.70279 5.543505-1.50002 14.395838 10.59406 12.495422-9.78303 12.908556-19.56793-3.122917-29.08625 2.570819.76034 5.616743 2.62082 10.615663 9.29679 11.329258 8.72418.929551 10.94512 7.864567 12.57844 14.178003 1.83233 7.085246 1.50942 14.619306 9.09028 19.026693 2.59641 1.511695 3.20468 4.880614.70401 7.171629-2.90994 2.672225-5.52137.270415-6.6309-2.11825-3.39806-7.325615-10.30494-10.294545-16.53033-14.072842-2.15148-1.301372-5.221-3.532295-7.3706-.364309-1.78914 2.644056-.01314 6.67399 2.00505 7.265522 9.41318 2.752974 5.67156 17.27463 17.10856 18.256762 3.02258.261025 1.00627 3.708815-.16709 5.522848-2.81231 4.356685-11.67542 9.248566 1.74409 11.605307 2.42933.428156 2.48377 6.23081-.3154 6.657089-6.03953.925795-8.12718 3.892847-9.49767 9.370627-.62704 2.488193-10.80432-1.977409-6.62527 5.547261 3.52009 6.345361 7.53768-.991521 11.28493-2.4281 1.25409-.47886 2.37864-1.504183 4.26165.704205-8.40878 7.584763-15.99152 16.833328-28.7333 5.239289-.82417 5.644911-.76597 10.313324-2.38051 14.305699-.97249 2.40181 5.23413 14.219317-7.56021 6.640188-2.78416-1.660047-11.27742 11.659765-6.92378 20.147788 2.97001 5.785753 1.09263 5.468391-3.1784 7.962217-10.00456 5.842089-9.97265 9.76686-2.02194 18.823882 2.90243-.784955 2.76162-3.299438 3.19905-5.532239.34169-1.755819.85046-3.481591 1.3029-5.280602 11.02773 4.349173 14.3338 14.427762 19.19809 23.236903 1.24846 2.268481 1.36861 4.572641-.85233 6.14255-1.81167 1.280715-4.03824.319239-4.56579-1.457236-4.21847-14.224951-17.7525-7.246744-28.07809-14.576115 2.77101 10.484211 5.62087 15.436184 14.72429 13.648441 7.70101-1.509816 9.9013 1.799011 5.32425 8.176295-2.31669 3.231834-3.81671 6.048656-3.0545 10.097368.81854 4.275935-.88612 8.125592-5.56267 7.359416-5.72038-.937062-3.79982-4.965118-1.88677-8.489901.79413-1.462869 1.087-3.207421 2.07075-6.249588-11.20045 3.59802-22.20941 2.841234-28.55307 14.307577-2.81232 5.08718-3.73223 7.387585-2.1083 13.776137 1.99566 7.847665-2.71845 17.52251-4.99195 26.286581-1.50566 5.780119-12.11661-5.922837-10.77804 4.891881.58574 4.694703 5.76543 8.726514 6.69474 13.490699 1.40803 7.203553-5.7523 6.298414-7.91504 4.157629-9.98578-9.872022-16.05347-3.860924-18.20683 5.363229-2.38803 10.236331-8.52893 2.08257-12.51461 3.680647-5.54578 2.223412 1.63895-6.014853-4.01572-7.406363-3.33235 3.776419-8.65096 4.820521-9.10717 13.447507-.46747 9.079556-.20275 9.55466 7.11339 5.348206 4.70472-2.707905 7.23355-.69106 6.74355 4.411143-.71152 7.479601-7.36684 7.440166-12.49771 8.734026-4.79859 1.209355-9.32495.848802-10.04023-5.82331-.30602-2.858135.72842-8.155638-4.11334-6.694647-4.64276 1.397144-4.95816 8.732148-2.69029 10.514258 11.75616 9.205373-1.20715 10.981849-4.31609 14.938545 1.71029 5.812042 6.05079 1.209355 8.78238 3.549195.15394 4.876858-8.42005 5.877769-5.31862 13.586471 2.57014 6.371651-6.2742 9.079553-10.71796 12.660673-2.8968 2.33984-5.69597-.48261-6.64029-2.74546-1.9675-4.730383-5.31674-9.376261 2.82358-13.565814 2.65837-1.367097-6.49761-3.648723-6.79612-8.54436-6.48259 4.65339-.0995 9.331192-2.00128 13.464409-1.03632-.274171-2.11957-.244125-2.69404-.771809-3.65151-3.340751-8.70542-9.372505-12.23489-6.243955-5.35804 4.752917 2.83484 9.090823 4.86241 13.340468 4.96755 10.424121-.81853 18.760031-2.31668 28.378541-1.08137-6.33973 2.8217-14.70005-8.64158-13.99585 1.12643-3.07597 5.08019-6.07119-.81854-8.92181-4.11334-1.99056-7.06083-5.579187-7.28987-10.62881.57636-1.853469 1.15459-3.708816 1.73658-5.564162 3.83924-9.832586-11.15351-4.140728-9.81682-11.913279-5.34114-.234735-4.89808 4.155751-5.54766 7.316225-1.02505 5.010188-6.48259 5.977296-8.5064 9.967794l.23842.161498v-11.729246c-12.86756 12.32829-13.4946 18.0408-4.77417 30.85922 2.65086 3.89473 8.34495 9.11899 2.2904 12.56303-3.61396 2.05628-10.8644 1.12485-13.85319-6.60451-2.9212-7.53969-7.74794-14.82587-17.03534-16.66995 2.89116-7.274914 17.1555-4.1858 14.90639-16.718779-4.09268.875092-7.62967 8.814774-12.11473 1.023445-1.52255-2.645935-3.93123-1.969897-5.75417-.212201-2.36174 2.26097.14268 3.641212.97812 5.620499 1.35547 3.224322 1.52443 6.948161 2.19465 10.461676-1.67274 4.68907-2.69967 9.75372-5.16091 13.98083-4.34051 7.45706 1.27098 7.84203 6.5314 8.02982-4.6728 8.19883-11.68857 4.4656-17.36013 6.25522.52379 3.04404 3.46377 2.89945 5.41436 3.75388 2.57201 1.13424 6.22164 2.00558 4.79295 5.40267-3.32859 7.92278-7.6935 15.68406-15.35696 19.96563-3.46189 1.9361-7.24669-2.39242-8.58902-5.42895-2.70155-6.12941 5.75605-2.38303 6.61026-7.412-9.5446-1.05913-14.66797-6.96318-14.45958-18.41263-4.79107 4.74917-6.7229 9.56405-12.27056 9.8063 1.14521 2.199 1.35359 3.23747 1.98627 3.70318 4.19595 3.09099 13.43265.53708 12.96706 7.74063-.41865 6.39606-7.87373 3.69379-12.56342 4.02054-2.00129.14272-4.21847 2.8356-3.33047 3.31634 14.97022 8.14437-2.69404 11.60531-2.36738 17.49998-7.20163-3.62995-3.39618-12.66068-8.28863-17.60514-8.16473 11.05509-4.16966 20.34496 11.92887 26.47812-1.48876-3.49285-2.68278-6.30404-3.87679-9.11523 7.57335-2.84311 9.31744 2.75485 11.20608 9.04763 3.04323-7.96973 14.66609-9.71991 10.67666-20.3337 6.02264-.30234 7.7273 4.97263 11.29432 7.48712 10.44949 7.34814 17.08791 3.9304 20.66432-8.15564.88612-2.9802 2.58327-7.72373 5.01636-10.49173 2.93246-3.33136.6139-11.70107 6.72665-10.23633 5.16655 1.23002 4.58081 6.80732.81478 11.18654-2.44247 2.8356.36985 3.67689 2.62082 4.42429 3.82423 1.27884 6.70976 3.36329 5.62276 8.02982-1.12643 4.81113-5.93628 3.1924-8.55147 4.85245-8.35809 5.30313-16.38765 9.85887-26.85779 9.5509-3.71534-.1108-7.75358 3.06846-7.00075 9.42696 1.69152 0 3.40181.14648 5.06517-.0338 3.22909-.34553 6.8299-1.35207 9.12219 1.47226 1.79665 2.20463-.51065 4.28533-2.10267 5.85711-2.8799 2.84311-7.19787 4.60832-9.93322 1.7239-9.72107-10.25887-14.63793-2.30792-22.13994 7.66363 2.70155-11.41188.76785-16.96478-9.38877-15.37985-14.78249 2.30229-15.69115 3.78393-11.57593 21.42851-10.28616-.02442-10.31057-.02254-11.80309-14.01275-1.01941-9.56405-2.98879-17.91687-15.91079-13.37803-1.92056 4.44307 2.73159 3.55671 4.14901 5.27685 4.65402 5.64115 8.66598 10.09736-1.38363 16.1141-5.69785 3.40835-15.06034 7.40636-13.67859 17.75724 0-.00939.05632-.04882.05632-.04882-3.659012 10.14431-5.328003 21.31395-15.009651 28.32596-1.270986.91828-1.753473 2.9201-2.602049 4.41677-13.310623-9.97342-9.313681 5.9604-10.248616 8.45798-6.358686 16.93473-14.468967 32.99813-22.074233 49.33382-6.056428 13.00996-4.862414 29.92216-17.957139 38.95665-14.117896 9.74432-26.384697 21.28954-37.821695 33.75679-8.919432 9.73118-16.20742 20.71115-22.014156 32.80846-8.577749 17.90184-20.358308 33.91829-32.899205 49.20612-4.233492 5.16418-6.204741 10.30582-5.506356 16.44649 4.599581 40.24863 7.926298 80.72636 14.812528 120.58814 2.842353 16.46714-3.189669 32.74462 2.750361 48.80238 1.471866 3.98299 1.883012 8.49366 3.60457 12.84847 10.164134 25.71758 19.17368 51.25864 12.634766 80.27566-5.851793 26.00302-3.120205 53.31305-9.309927 79.58461-4.595826 19.52245-11.298072 38.08719-22.47036 54.57499-17.658635 26.07062-44.401911 36.68065-74.434357 38.3238-23.532957 1.29198-47.373804-2.70979-63.740802-21.25011-13.348171-15.12633-18.760657-35.64031-12.142893-55.01629 6.146542-17.96756 9.713563-34.95675 4.543259-53.28488-1.573244-5.54913-1.668991-11.27855-.35107-16.53098 5.889341-23.43972-.030038-46.517-1.40428-69.72386-.93869-15.83993-1.5188-31.65169-1.503781-47.55171.02816-29.30433-1.477498-58.60679-1.781634-87.91864-.058199-5.78012 1.387384-12.08229 3.899318-17.29341 10.855011-22.49889 7.100251-45.68509 4.779809-69.02716-2.26412-22.75804-2.525076-45.75833-5.637771-68.37741-2.960629-21.51489-5.86869-43.04104-11.380677-64.35875-2.953119-11.44944-6.736039-24.52513-5.309231-37.42054.253447-2.2666.906775-5.71063-.268465-6.72093-18.351388-15.94697-22.432812-44.63912-48.657932-53.69426-18.246255-6.29842-37.162735 4.18579-38.863641 23.43971-5.016359 56.7214.180229 112.88508 9.33621 168.91354 3.698439 22.63035 2.759749 45.65505 3.015072 68.63468.302259 26.88187 1.006276 54.20317 6.339912 81.04936 4.053263 20.39379-.133294 41.1594-1.199645 61.71469-1.892399 36.69192-3.84112 73.32563-4.479429 110.11144-.476854 27.7288.679612 54.74212 10.158503 80.23624 7.976987 21.46606 9.518316 44.04194 12.615993 65.68077 5.082067 35.54829 11.27742 71.33883 11.037116 107.73029-.146436 22.96649 3.516332 45.90105-1.87738 68.79806-1.796653 7.62795-2.988789 15.24652-5.78233 22.74114-8.36185 22.44632-16.027192 45.13488-9.597166 69.78207 2.607681 9.9753-3.653381 18.79008-4.980689 28.35788-5.461298 39.3003-23.698166 72.86743-51.158602 100.65819-14.224907 14.39209-30.864125 26.97577-50.700521 33.95961-18.043498 6.34912-33.460542.71923-42.603382-15.68782-2.699672-4.82991-5.303598-9.97155-9.054603-13.9151-20.260684-21.31583-13.539664-42.8833-.518157-64.02636 11.290563-18.32061 15.5203-38.35009 17.042855-59.27532.266588-3.6337.619535-7.91152-.942445-10.92176-14.358201-27.72128-11.318723-56.84347-10.075898-86.63981 1.546961-36.89285 7.762966-74.15753-4.190312-111.03724-3.645871-11.25602-2.123316-24.8669-.42241-37.04684 5.35241-38.31066 3.602692-76.92741 5.450034-115.35073 1.772246-36.68817 4.364908-73.45333.369844-110.49454-4.010084-37.16515 3.08078-74.68897 1.038191-112.14519-1.973127-36.22996-3.426219-72.4956-4.89433-108.75186-.469345-11.55272-1.254089-23.17869 1.269109-34.63752.81666-3.7013 1.329185-7.41575-.886123-10.76589-15.097889-22.79372-22.721929-50.41548-45.556501-68.27413-11.681057-9.13589-20.127389-21.38343-28.48173-33.78308-9.060235-13.44939-21.68937-24.05942-33.918622-34.77085-18.740006-16.41644-33.663299-35.63843-48.184832-56.07541-18.009706-25.34764-37.097027-50.27276-54.038503-76.23447-11.382554-17.44552-29.92919-25.83026-41.381207-42.13214-2.42933-3.45906-8.269859-10.43915-13.346294-.94833-5.249154-4.98766-14.718658-1.76146-18.266906-6.74535-5.808614-8.14438-11.910098-10.94054-23.568627-6.2571 7.393122-12.61186 5.767311-15.96012-7.603389-17.4812-5.93252-.67416-15.00402-8.89365-22.466605-13.956415-1.907418-1.291982-3.794185-2.634667-5.78984-3.776419-2.630209-1.500427-5.245399-4.82991-8.440699-1.291982-2.825457 3.122916 2.647105 5.120982 2.301667 8.334036-1.644585-.26102-3.229093-.23473-3.306066-.561486-2.465-10.478577-13.1491684-15.875608-16.0422108-26.027434-1.6821324-5.894669-3.7416182-10.78655-10.1040586-13.984582-15.6667351-7.879589-20.4146289-28.498725-38.52759-33.98965-1.9261918-.585899-2.0763822-2.786776-1.7515954-4.782964 1.8417096-11.210951-5.8930955-17.580724-12.3193668-24.757986-7.5733505-8.444832-17.1817808-16.15729-12.1391384-29.92216 1.7628597-4.811132-3.4806623-7.199797-4.6821854-10.964949-2.0801369-6.523759-19.0422642-9.552782-4.88306511-20.014458.17459633-.125818.07134044-1.089171-.19337012-1.299494-15.48087454-12.480399-5.05766142-26.992665-2.98127926-40.667396 2.28852608-15.101921-6.37745947-28.909982-2.50442477-44.868217 5.2078518-21.456671 10.52646906-42.712409 17.57603046-63.654541 1.7928978-5.333183 6.1765799-5.806409 8.3280572-9.11148 4.5883164-7.047688 7.8436932-15.008027 5.8011038-23.597456-2.6715115-11.209073.9574638-17.156323 15.2893818-16.547889-8.564607-8.611964-9.8243289-12.39965 2.564501-14.281287 8.470738-1.291982 13.9095075-10.119902 14.7486963-19.593813.5744783-6.508737-2.0519762-15.02305 9.9613777-11.488878.8129055.234736 2.6058033-1.153019 3.2178291-2.208388 13.3932281-23.043481 37.2134243-36.291933 53.2105783-56.757083 5.555167-7.107781 11.470791-12.270076 19.727508-15.924433 8.474492-3.753885 4.237246-17.926254 15.296891-20.808802 1.982513-.51454 1.858606-4.061857 6.082711-3.582998 15.623555 1.768965 17.951506-1.996187 12.080939-20.284873 13.569702 5.496559 22.019789.341774 27.302736-11.526435.597007-1.344563 2.812315-2.191487 4.451268-2.816822 18.266906-6.980085 20.266316-8.726514 23.940348-24.327952 1.362978-5.755706 4.884943-5.383885 8.110281-3.124794 5.802981 4.059979 10.992059 4.264668 16.348224-.24788 7.100251-2.993343 3.68342-10.270133 6.099607-15.188304 3.435606-3.158596 6.931287-6.435499 7.890628-11.169638 3.056375-15.090653 9.351229-9.541514 15.762482-2.27787 6.078956-11.819384 21.148684-13.97707 26.273931-26.260291.632677-1.511694 2.761626-2.379275 4.14901-3.601776 3.041355-2.677859 3.221584-9.179084 7.890627-8.799752 6.099608.492005 1.984391 8.328404 6.893739 11.886989 3.227216-4.850568 8.958857-9.671089 9.073377-14.62494.138926-6.076823-11.895079-.65538-13.231773-9.599729 4.216595-3.047801 10.894435.55022 13.856941-3.28817 3.812958-6.781029-11.341252-4.377341-4.130236-11.117057 4.548891-4.247767 8.926941-2.441245 11.52899 3.990498 2.235959 5.53036 7.744192 5.569796 13.100357 5.320038-5.51762-10.750871-1.663359-15.101921 16.933966-19.400392-1.36861-5.736927-8.564607-4.29847-11.575924-9.847609 14.686743.722984 28.464834-.110795 40.95692-7.355661 2.089523-1.209355 22.545455-15.408015 23.822073-17.099986 1.160221-1.530474 2.292281-3.066581.681489-4.809254-1.60516-1.742674-3.863648-3.522906-.790377-5.466513 2.168374-1.370853 4.214718.105162 6.067692 1.780232 2.735342 2.473169 3.90495 9.830708 5.149653 8.467366 6.261062-6.869289 19.986586-2.384909 21.815154-10.444775 3.955639-17.48683 19.648658-15.36858 30.098154-21.851026-1.567612 7.04581 3.664646 14.093498 7.496378 14.254996 5.538271.232857 11.611595-4.707848 16.873891-8.292724 2.973769-2.029989 1.524432-5.870256-1.749718-5.8496-8.095263.046947-15.490262-6.978206-23.923452-2.257213 1.657726-11.2917 5.855547-16.273719 16.042211-6.484324.319154.309851.803518.621579 1.214665.630968 11.767417.236613 23.75261-1.921072 32.009327 11.071988 1.693396 2.674103 13.057177 3.308827 16.167995-7.119048.792254-2.653446-.978115-13.699143 9.882528-11.06072 1.47562.354919-5.093332-2.6234-4.028857-6.249589 22.603653-4.796109 27.338406-1.981165 22.979129 15.075631 6.936919-3.045924 13.203613-5.853356 19.528506-8.536849 2.166496-.918284 4.025102-1.708872 4.601458-4.474991.662715-3.169863-8.690391-4.890002-1.650217-8.026064 4.1415-1.842202 8.979508.497638 11.791823 5.064646.542563.888237 2.155232 1.115461 3.985678 1.981164 3.150243-9.149037-2.632087-14.149835-7.396877-19.404147-.717159-.790588-2.570133-1.214989-3.621466-.893871-2.179638.674159 1.888644 8.739659-4.48506 4.381097-3.420586-2.33984-2.215309-7.68429-.210267-10.288912 11.566538-15.036195 10.708575-27.193598-6.925654-36.528546-.70965-.373698-.976238-3.395209-.735933-3.494737 5.196587-2.204632 10.592177-5.943494 15.726811-5.644911 4.481306.261026 6.75669 5.774485 3.934988 11.025041-5.697848 10.596884 5.491337 13.00245 9.910689 15.823028 4.776054 3.049679 7.456953-3.489104 5.94003-8.416664-1.603283-5.212999-1.524433-10.617541 4.222227-10.409096 5.536393.197178 3.21032 7.077734 2.801051 10.429752-1.006276 8.23451-6.476961 16.367613 2.078259 24.299784 4.755404-2.351107 7.676607-7.169751 5.756047-12.762081-3.593305-10.493601 4.028857-9.918969 7.916911-6.801686 7.824919 6.258978 8.814299-.972742 12.107223-4.230866l-.163332-.240369c.951832 4.296592 1.963739 8.566894 5.787962 11.40625l-.187738-.326751c-1.796652 6.944405 6.861824 4.91066 8.960734 12.39965-9.807432-8.878623-6.056427 6.76225-15.428308 4.811132-9.967009-2.075059-9.921952-9.077678-13.764949-19.075518-1.207155 17.098109-1.184627 29.631088 6.430026 42.796914 2.624577-5.701248 2.065118-12.912312 9.880651-9.659821 11.530867 4.799864 13.239283 13.772381 8.825562 26.525072 5.741028-2.364252 10.182909-9.049509 13.888857-1.626245 4.877433 9.764983 4.719733 9.849487 15.683631 7.552839-1.787265-3.094749-5.85367-7.169751-5.016359-9.117114 4.409966-10.206285-6.292977-11.32738-9.80931-15.250274-5.063293-5.652422-7.425037-7.455188-1.139569-11.160248 2.81607-1.660047 5.15153-3.60741 7.670974-5.558528 11.842512-9.186595 12.373811-15.629606 1.715925-25.456559l-.142681.253514c6.195354 2.674103 6.017003-10.516135 11.662284-5.477779 4.616477 4.125705 6.358686 11.113301 5.943785 17.761001-.304136 4.991408-2.219063 10.078588 2.237837 14.3226 4.06265-12.602461 16.239336-9.303024 24.907199-12.852219.268465 5.631766-4.85115 7.665511-7.804268 10.833497-9.214181 9.872021-9.345598 9.616629-5.802982 20.895184.657083 2.078815.506893 4.700337-.116397 6.827977-1.055088 3.586753-3.24599 6.811075 1.959984 9.241053 5.399345 2.518239 6.108994-.820634 7.124657-4.668413.897388-3.40272 4.235369-2.615888 6.664699-3.618677 8.632192-3.560463 16.843852.420646 28.048055 3.537928-7.355574-7.689923-9.760498-14.181759-17.731853-18.305586 9.533335-1.342685 14.947699-2.18961 19.440269 6.399819 3.957517 7.571618 13.885101 12.114212 21.920287 12.872876 11.311214 1.068515.822293-8.972516 4.107708-12.936724.857962-1.042224 1.173362-2.52575 2.003164-3.601776 5.059539-6.551928 10.021454-11.990272 3.910582-21.807835-2.602048-4.183919-2.265997-13.588349 2.960628-19.496163 3.401813 5.372618 1.567612 11.509534 1.965617 20.575945 6.602745-10.40534 18.129858-2.69476 23.763875-12.519834 4.16966-7.263645 8.701655-15.122578 18.741883-16.534745 2.143968-.302339 3.116451-3.391453 1.708416-5.810164-2.855495-4.890003-8.083998-6.148184-12.93327-7.233599-4.881188-1.091049-12.095959 2.74734-11.741134 5.062768 2.346725 15.242762-7.364961 14.054063-16.915193 14.138568-1.601405.011267-3.189668 1.70136-4.781687 2.621522-3.373651-4.878736 3.388671-9.980939-.116397-15.774203-9.544599 8.497413-7.269215 19.646394-8.767364 29.909015-7.539558-10.707679-7.468217-10.655098-14.671724-.304217-2.076382 2.982076-4.699082 5.584819-7.07209 8.365961l.22904-.242246c-10.588422-9.496446-23.583646-8.315258-36.336687-8.208219-.063831-2.644057.707772-5.763218-3.334227-6.249589-12.674192-1.519206-8.778628-12.827807-7.911279-18.196669 2.031325-12.516079-2.628332-25.186144-14.987123-29.837656 2.864881-8.347182 20.546045-4.867468 14.226784-20.168444 7.554577 2.732317 10.746123 7.907758 8.737326 12.934846-4.699082 11.757414 2.812315 21.257616 4.107707 31.816942.606394 4.983897 6.818644 8.412908 8.023922 4.366074 3.83361-12.876632 19.092954-17.875552 19.413986-32.07609 6.31926.392477 7.411895 6.00922 11.070909 8.495535 2.547604 1.733284 6.583971 3.060946 6.666576.075115.275975-10.18375 8.236065-6.551928 13.013997-8.054233 5.220994-1.63939 8.962612-1.092926 8.895026 6.595119-.060076 6.595119 3.185914 13.32169 9.841225 15.960113 8.40503 3.333239 11.431366-6.245833 16.475886-9.639164 6.848682-4.608321-8.881884-5.040234-5.061416-11.67291zm255.789252 272.572586c3.87116-7.898368 5.29985-15.154501-5.2698-19.385368-2.48753 3.742618.89363 8.00353-1.98815 12.589316-2.96626 4.724749 2.14585 7.408242 7.50764 6.580096-1.86423 12.161159 2.54198 14.527289 17.17615 8.202585-8.66223 2.884426-8.77675-10.842886-17.42584-7.986629zm-307.505436-223.223744c12.597219-10.042909 11.288685-9.791273 7.26546-30.680824-1.376119-7.130315-4.931877-5.915326-8.117791-7.177262-3.985677-1.581176-7.235422.950208-9.002036 4.444945-2.735343 5.408298 2.061363 7.748138 5.343023 9.393162 7.090864 3.560463 10.395052 7.421387 4.436249 14.686909-1.969372 2.399932-.777236 5.248678.075095 9.33307zm-160.048513 7.507769c1.319798 1.720139 3.612079 3.336995 3.811081 5.179197 1.791021 16.562912 13.081583 26.581409 24.794557 36.171748 1.528187 1.250669 2.082014 6.097481 5.063293 3.442157 2.189025-1.951119 3.133347-5.986686-1.342326-7.81762-11.718606-4.799864-14.698008-16.146023-18.009706-26.250902-2.406801-7.348149-7.284234-9.609118-14.316899-10.72458zm708.335429 403.96606c.46371 7.567861-6.59336 11.053209-8.3825 17.781657-1.66711 6.290902 2.77665 8.696468 6.38122 10.623174 3.32859 1.780232 5.44252-2.895693 4.50571-4.715359-3.52009-6.846755-3.34737-12.112335 3.08265-17.216416 1.09827-.871337-1.27286-4.978263-5.58708-6.473056zm-312.00552-373.933105c-2.23032-4.465602 1.28976-12.844708-5.39183-13.779893-6.17283-.869459-5.42751 7.27679-6.54079 11.411885-1.45122 5.378252 3.40932 10.0861 7.63342 11.004384 3.65714.794344 4.45127-4.647756 4.2992-8.636376zm-5.16842 89.002182c0-5.571674.689-8.397885-.1333-10.668243-1.94308-5.340695-4.23537-11.073866-11.94201-7.077735-.82792-2.368008.51816-8.09179-4.66717-4.420532-3.09016 2.187731-.32478 6.054289 1.81543 8.279578 3.96315 4.133217 8.3656 7.845788 14.92705 13.886932zm-409.984099-54.113026c2.33546-7.727482 8.472615-11.537703 3.820468-17.113132-.521912-.623457-7.081477-4.824277-10.603442.215956-5.495091 7.855178 3.458134 9.51898 6.782974 16.897176zm448.637469 741.533995c.76597-3.78581 4.09457-8.36033-.98938-8.473-4.79858-.10329-5.99447 6.07307-7.58086 10.01849-1.54696 3.85905 1.34796 6.11439 4.99383 6.2064 7.98075.19906 3.05075-5.6036 3.57641-7.75189zm-384.889158-830.361534c8.769241-2.275992 19.291956 1.027201 25.804586-9.194107-2.348602 7.69368-2.119561 16.915955-13.776213 14.116034-4.828621-1.162409-6.717265 1.851591-6.240411 6.486201l-.187738-.326751c15.146701 5.513459 15.178617 5.53036 5.671565 20.050138-1.265354 1.928584-.565092 3.513516.392372 5.004554 1.657727 2.595232 3.251622 1.498549 5.639649.330507 11.88757-5.821432 20.840794-13.019351 16.199911-28.207654l-.14268.253514c-4.65027-15.522567 4.088933-22.887617 18.505333-26.923184-7.38749-4.281569-15.55597 4.535083-20.031643-3.881581-4.877433-9.165938-6.908758-2.148296-10.492677.92204-4.034489 3.459057-2.541972 13.086955-9.677893 11.57526-9.875018-2.095715-8.788015 5.522849-11.502706 10.037276zm30.0944-69.821503c-4.640884-1.265692-11.559028-6.161328-13.631656 1.611222-2.158987 8.119959-19.579195 14.463441-4.047631 25.450925.591375.416889.38674 2.679736-.103256 3.795198-5.478194 12.517956 3.169017 8.874867 9.416938 8.486145 7.839938-.486371 12.820627-5.851478 18.831997-9.6786 1.047578-.662892 6.458187 3.691915 7.569596-.420645 1.133938-4.206454-3.454379-8.664544-6.996995-8.679567-9.13533-.037558-5.408731-6.568829-6.794238-10.638198 4.699082-5.982929.568847-8.611963-4.244755-9.92648zm485.458518 927.814177c3.67967 1.81779 6.0508 8.61384 11.48394 4.13322 4.70096-3.87783.12015-8.66454-.14268-12.97804-.31728-5.1961-3.43185-7.40636-8.56086-4.42053-2.94936 1.72202-5.49509 1.95675-5.53827-2.30604-.02816-2.96893-.53505-6.84863 4.56204-6.83361 5.15716.0169 10.22233-.31548 12.13913-6.5369.6064-1.98305 3.28542-3.83651.09951-5.82895-2.05573-1.28634-4.31986-2.10322-6.35681-.24975-9.41694 8.5744-18.7494 17.24833-28.10626 25.88283-1.48688 1.36898-2.30354 3.10414-.9706 4.77358.63643.79622 2.88741 1.48728 3.36426 1.05537 9.35874-8.38287 6.46194 2.65908 8.20415 5.40454 1.89803 3.00085-.22716 8.92557 7.34807 8.33404-.56322-4.5426-1.09451-8.91055-1.92244-15.64651 2.36925 2.89194 3.1127 4.58766 4.39682 5.21675zm-628.926012-856.603042c-4.522608.584021-10.995814 4.443067-11.483933 10.390317-.352947 4.242134-3.476907 11.286066 6.112749 12.420307 3.501314.415011 7.689748 4.756673 3.469398 10.681388-1.929946 2.707905 1.907418 9.575317 2.787909 8.125592 4.883065-7.999774 11.129108-6.482446 18.432116-6.364139 3.187791.046947 7.312395-4.095659 2.010674-10.210041-6.548301-7.556594-14.949576-5.723782-22.552965-7.776306-2.388027-.645991-5.979455 1.402777-6.127768-2.918227-.073217-2.110739.814783-4.850568 2.269753-6.274002 1.958107-1.915439 4.862414-2.664713 7.199752.202812 1.102022 1.352074 2.305422 2.619644 3.465643 3.926649.467467-5.842088.561336-12.998694-5.583328-12.20435zm598.542502 877.265372c-8.33932 13.75736-16.29003 27.52598-.41303 42.24294 16.44773-18.89336 16.47965-23.17493.41303-42.24294zm-634.813481-836.481547c-3.621466-.486371-7.325537-1.35583-9.672262 1.395266 3.705948 14.241851 19.321994 13.340468 27.484842 22.07825.371721.405622 8.517673 4.307859 11.459527-.291072 1.481253-2.315428 7.417528-7.415753.013141-9.620386-5.328004-1.588687-6.270448-6.377284-9.582146-9.327436-9.80931-8.735903-11.008956-8.589429-14.985247 4.36983-4.501957-1.322029-5.046397-4.86559-4.95065-8.773461zm506.023341 900.735137c5.18908 8.5237 23.89717 16.32066 25.10996 11.59403 2.42557-9.45513 9.57463-10.4166 16.23182-14.23246-5.37494.17089-13.18484.77181-14.12728-2.22341-6.86558-21.77215-9.37564 1.58869-13.90388 1.0441-4.04199-.82251-1.32355-8.32089-7.07772-7.7256-1.79102 4.46372 8.4407 15.08314-6.44692 11.83816zm-393.977555-967.503205c8.4407 2.076937 15.484629-.553975 20.022256-8.063622 5.003218-8.283334-6.614009-4.923805-7.9676-10.906734-1.91305-8.469245-7.220403-4.106927-9.375635 1.410288-1.464356 3.735106-1.616424 7.988507-2.742852 14.101011-8.442577-13.689755-15.35509-10.268255-21.571095.112673 6.818644 3.667502 14.506515 1.592443 21.634926 3.346384zm393.759775 967.798025c-.63643-2.38303.63831-5.71439-3.55388-6.25898-3.71158-.47886-4.67092 1.88352-5.65654 4.60081-2.5814 7.16036-.44869 14.3827-.31165 21.56747.26471 13.52638-3.87115 17.6164-16.765 15.15826-3.63836-.6967-6.81301-2.61214-10.29555 1.65817 5.64716 2.95578 9.42632 5.02145 17.35825 3.95669 13.55093-1.82342 15.63295-1.60183 16.32758-16.77511.36421-8.00729-1.42306-16.62301 3.10894-24.20777.00563.00564-.20651.30046-.21215.30046zm-189.322492-976.156474c-3.760392-9.862633.940567-19.729021-2.74473-30.451723 9.452608 3.100382 6.210373 11.729247 12.606606 16.189214 1.301024-7.552838 12.27431-8.910546 8.810544-19.317764-4.075792 2.253458-7.411896 8.377228-11.842512 2.039379-2.296036-3.290048-1.901786-9.911457-9.34372-5.207365-6.048918 3.819611-10.314325 8.427931-7.483236 15.143235 1.776001 4.202698 2.023815 7.789451 1.357345 11.791216-1.178994 7.132193 2.577643 9.468277 8.857479 9.597851 0 .001878-.217776.217834-.217776.215957zm281.304722 920.633164c-4.66153 1.99619-9.27989 4.08627-13.99023 5.95664-3.29668 1.307-5.88371 3.15672-5.14966 7.05707.91992 4.90127 5.29797 3.95294 7.6691 2.7173 7.38749-3.85717 10.03084-1.07978 10.71421 6.16884.34356 3.62619.49375 8.04109 5.48195 8.19883 5.62838.17652 4.61835-4.4487 4.88306-8.02043.2159-2.93325 3.61959-2.65533 4.76855-4.32664 3.44874-5.01207 2.2078-9.98094-4.13399-8.64577-9.22357 1.94924-10.18291-2.67598-10.47391-9.34809zm-132.745775-910.075716c-.707772.234735-2.399291-.28356-2.485651-.689182-3.630852-17.282142-12.952043-1.536107-19.596091-4.435556 10.336854 4.182042 11.115966 12.474765 11.219222 22.615324 5.404977-12.829685 11.793701-11.348036 19.704975-3.029022-.3398-7.490869 8.79928-20.303653-8.842455-14.461564zm132.511105 909.839096c6.87496 6.11626 13.90951.15587 21.48661-.20281-5.84991-.2122 2.93435-13.3292-8.19101-8.35657-11.18355 4.99892-10.03459-.81875-8.8969-8.62135 1.29352-8.90491-.40739-16.90093-14.78249-21.03039 11.34689 12.93297 5.2867 26.7598 10.61846 38.45149zm61.78833 24.68288c7.80051-.05822 2.373-5.60548 2.54197-9.03261.40176-7.94156 7.51515-10.78092 12.6235-15.01554 1.44558-1.19809 6.46382 1.74079 4.05702-3.8459-1.54321-3.57549-4.22223-5.63177-7.47385-3.52666-7.71791 4.99328-19.21874 7.48711-15.8357 20.25295-.59513 5.01957-3.28166 11.22409 4.08706 11.16776zm-168.08182 49.6155c-7.25796-6.7078 6.39247-15.01554-2.45749-19.37598-5.07832-2.49946-11.9683-10.59313-19.43089-2.63843 0-.00938.05632-.04882.05632-.04882 3.12396 10.47294 6.20662 20.97593 21.83206 22.06323zm265.58542-667.875983c.26471 7.143461 6.81864.199056 9.92007 2.576453 2.80856 2.157686 5.66218 1.607467 5.76544-2.116372.17084-6.00922-1.21842-12.061631-4.96943-16.842717-4.25977-5.43271-9.04146-.893871-13.52652.379332-3.01319.858192-5.95505 1.984921-11.73362 3.943551 9.00203 1.590565 14.22866 3.321972 14.54406 12.059753zm-635.286581-357.394604c-5.791717-1.614978-12.347528-5.772607-17.213696-4.309737-9.65161 2.901326-8.1253-7.366929-15.694896-11.541459 3.664645 6.298414 1.614547 10.703924 3.114573 13.479432 2.620822 4.854323-5.033255 9.631653-.628922 12.189327 6.349299 3.686281 4.507589-5.049622 7.599634-6.858022.92367-.538952 3.082657-.713595 3.454379-.189666 6.610254 9.325558 12.557794-1.656291 18.858281.852558.170841-1.207478.339805-2.414955.510647-3.622433zm725.918971 332.799994c-3.83173 13.058786 2.33922 19.822914 15.55597 22.921418 3.71158-19.849205 2.36738-21.698918-15.55597-22.921418zm-237.3102 576.167773c-.33418 6.95379 6.30611 2.63466 9.49954 4.19894 1.96374.96899 4.58268.84692 6.26106 2.09008 2.38427 1.76897 4.54889 3.30695 7.3199 1.47977 3.20094-2.10698.43743-4.89939.58575-7.38195.55382-9.14716-6.00011-8.59694-11.93263-8.98942-6.33428-.46383-11.42198 2.18022-11.73362 8.60258zm-375.513529-892.56823c-4.708469.383088-5.162795 1.667559-6.321139 6.129404-3.024459 11.599673 9.092151 7.33876 11.957033 12.707623 2.145845 4.029933 4.710346.379332 6.287345-1.48916 7.314272-8.677689-8.01078-5.169807-5.671564-12.104823 1.357345-4.086269 8.035185 2.861892 9.617817-3.444034-4.794829-4.888125-10.2749-2.251579-15.869492-1.79901zm57.468475-37.197072c-3.204687-.8901156-10.997691 5.661812-10.678537 10.510502.465591 7.049566 8.902536 8.057988 14.523411 10.371538 3.428096 1.412166 6.296732-.692938 5.71099-7.282424-4.669044-2.388665-3.456257-11.913278-9.555864-13.599616zm-334.374499 104.457145c-.933058 4.499403-2.821702 8.157516 2.49316 9.858876 4.302955 1.376487 7.192243-.647869 9.634714-5.263701 2.962505-5.596086 1.667113-11.687933 4.637128-18.1516-10.706697-.322995-14.878235 4.444945-16.765002 13.556425zm321.995056-72.536919c-4.122726-2.908838-5.121492-7.066467-4.192189-14.532923.503138-4.073125-1.034436-8.249533-5.851793-6.889947-3.689052 1.040347-7.119025-.460081-11.345007.681671 8.495144 23.552387 8.977631 24.001201 21.388989 20.741199zm347.174477 856.74952c-8.37499-5.376375-10.89631 4.734138-16.64861 6.439254-2.92871.865704-5.69597 6.097482-7.22603-1.064758l.23843.15962c-4.58832 1.60371-7.28799 4.409265-4.55641 9.3049 3.19531 5.73693 8.32431 6.65709 14.22491 4.57452 5.36931-3.47032 2.0914-14.58926 12.23301-13.847496.57636-1.855347 1.15834-3.710694 1.7347-5.56604zm-227.412659-851.913976c4.06265-3.085359 11.027729.261025 14.260578-5.836455-8.579627-3.949184-8.579627-3.949184-9.993294-12.989305-.598884-3.840267-2.160864-3.964207-5.523251-2.240312-10.548998 5.412054-10.616583 5.22051-2.3073 15.582659 1.413667 1.768964 2.556991 3.753884 3.8261 5.635521zm192.630439 100.453502c-9.7436 7.682412-9.30805 7.411997-3.56702 16.536622 3.07515 4.888125 6.69098 5.177319 10.30494 2.739829 4.77793-3.216811 6.14278-8.491779 2.25473-13.199627-2.2078-2.66847-6.09022-3.956696-9.21042-5.868379zm247.90051 341.503973c.49562-.937063.26095-3.100382-.45433-3.66938-2.4481-1.937973-5.10835-4.420533-8.40878-1.139874-1.92995 1.919195-4.16967 2.307916-5.77295-.118306-1.69715-2.555797.50314-4.215844 2.17589-5.736928 3.3361-3.036534 2.10642-6.360384-.60828-8.195073-3.8918-2.629034-5.32424 2.506971-7.53955 4.075002-4.80985 3.404599-1.26536 8.959371-.19525 12.578048 1.55635 5.280603 7.81365 2.850624 11.91573 3.526661 3.08078-.984009 6.68347 2.884426 8.88752-1.32015zm-689.597306-431.236651c-4.023225.02629-5.254787 4.535083-4.526363 8.427931.833556 4.473113-.985625 7.930293-3.326717 11.400617-1.383629 2.058158-4.577053 4.313493-1.282251 6.835488 3.090167 2.360497 6.482593.70045 8.170357-2.095716 2.787909-4.615832 5.630263-9.38565 6.009493-16.144145-1.302901-2.40181.779113-8.457977-5.044519-8.424175zm261.269326 11.652253c-4.776054-1.48916-6.782973.4075-8.825563 3.703182-1.165853 1.891026-1.477498 6.058045-1.043823 5.810165 9.212303-5.259946 13.552806 13.541401 24.914709 2.764241-6.696614-2.754852-8.057715-10.099246-15.045323-12.277588zm160.91586 208.991283c1.29164 4.234622-8.63595 8.998807-.23092 12.315145 5.83115 2.296649 7.52642-5.239289 11.30746-8.037332 3.1953-2.364252 4.68407-5.505948 2.25098-9.436353-1.8586-2.989587-4.14901-3.228078-6.68723-1.029079-2.373 2.058158-4.58268 4.304104-6.86933 6.465545.00376-.005634.22529-.274171.22904-.277926zm-450.000447-266.110797c-1.242825 9.680478 8.410662 10.775283 12.957676 15.879364 1.158344 1.299494 3.987555-.242247 4.364908-1.973653 1.561981-7.196041-4.539504-9.879533-8.649089-13.661586-1.903663-1.744552-2.556991-5.1191046-6.908758-4.7134823-.521911 1.2675699-1.556348 2.8149443-1.764737 4.4693573zm72.087633-9.8738995c-4.37054 3.2017875-14.418277-5.3820077-14.110387 6.6965245.086359 3.472202.62329 8.640132 5.108351 8.360327 7.0214-.435668 8.675372-8.264555 13.423266-11.3442803-.247814-3.7820528-2.134581-5.3876413-4.42123-3.7125712zm358.960664 251.5722395c-4.84364 2.234679-3.24599 4.767941-3.1202 7.244866.20651 4.020544 3.7923 4.270302 5.92313 2.461903 4.52636-3.853413 10.77241-1.010301 16.10041-4.8393-5.4444-8.942471-10.95451-8.536849-18.90334-4.867469zm-814.613904 64.454519c-7.819287 1.237523-8.919432 8.681445-11.885692 13.856885-3.392425 5.930349 1.710293 6.467423 6.065815 6.506859 7.10025-2.993343 3.683419-10.270133 6.099607-15.188304-.091992-1.723895-.189616-3.449667-.27973-5.17544zm727.462174-230.252654c-8.416291 6.963183-14.923289 13.554546-23.992912 5.836455-2.393659 8.048599 2.108298 12.675698 4.338625 17.943155 1.627689-1.590566 3.302312-3.205543 4.975057-4.818643 1.785388-7.582885 13.235528-7.357539 14.67923-18.960967zm100.89791 970.032704c1.80791-2.86001 1.75347-5.7219-1.98439-6.01861-4.2579-.34365-9.43384-2.30791-12.56155 2.33609-1.80041 2.67786.03942 6.05992 2.56825 6.81107 6.23103 1.86098 5.022 7.49463 6.52765 12.39402 8.79928-4.22523 2.59642-11.02504 5.45004-15.52257zm247.88173-373.792261c-8.09526 1.415922-6.86933 13.053152-15.27624 14.673764.33042 1.243157.59888 2.506971 1.03819 3.706937.1164.324874.73781.544586 1.1621.661014 4.45877 1.2056 17.51595-8.290845 17.32258-13.603371-1.1039-1.483527-3.05825-5.644911-4.24663-5.438344zm-600.145784-658.12602c2.540095-.353042 5.401222.317362 7.884995 1.183065 2.496915.867581 2.710937 6.698403 7.130289 3.487226.771603-.561487 1.212787-2.777387.739688-3.637456-1.757228-3.167986-4.387437-7.440166-7.909402-6.311559-7.744192 2.476925-10.244862-3.676892-16.267497-9.04951-1.47562 9.272978-3.0376 15.926311 8.421927 14.328234zm556.228234 373.332182c-2.83484-.480737-5.87808 2.623401-4.27855 5.338817 2.44623 4.135094 4.41372 9.898312 9.5615 10.8842 4.1659.799977 5.82926-3.509761 6.64029-8.484268-2.99254-3.363285-6.82615-6.86929-11.92324-7.738749zm-719.911354-439.2458141c-.50877 4.6947031 3.358632 6.8505108 6.968834 6.8749233 5.93252.0394355 6.617764-5.6355217 7.6522-9.7987844.891756-3.5660965-1.28225-6.073068-5.384325-6.1688399-4.462532 1.6656806-8.673495 3.8459008-9.236709 9.092701zm466.808634 165.7192651c-1.92995-5.981052-5.06893-11.053209-12.87883-7.71997-1.41179 7.658 3.51821 12.343313 8.06898 17.205148 7.87185.050703 6.16156-5.286236 4.80985-9.485178zm73.63835 21.586245c.15206-1.832812.15206-3.684403.47685-5.487169 1.12267-6.255223-2.8968-8.288968-7.78174-9.060777-5.48195-.867581-7.65971 3.56234-8.10089 7.496502-.69463 6.206397 5.51949 4.523816 8.84058 5.922837 2.03132.856314 4.50759.649747 6.78297.918284zm-85.52592-82.801418c-2.55324 1.45348.60639 6.713425 2.11768 6.12377 5.57394-2.18022 14.02966-4.923804 15.02655-9.008196 1.50754-6.202642-7.18286-1.783987-10.36501-4.471235-9.3869-4.463724-3.445 5.457123-6.77922 7.355661zm-292.214182-79.9845966c-5.264173.8995051-8.018289 4.1313388-8.177867 9.5095907-.090114 2.9632966.414901 6.1031141 3.998819 5.9754181 6.411253-.2309794 7.35933-5.8852798 9.23671-10.119902-.443062-3.3313614-1.235316-6.0186094-5.057662-5.3651068zm185.595898 62.2818096c-.955586.978376-2.001287 1.872248-2.859249 2.929495-2.735343 3.37643-7.492623 6.446766-1.984391 11.286066 2.740975 2.409322 5.630262 5.646789 9.503297 3.036534 6.548301-4.409265-3.163385-7.273034-1.618301-11.749903.45808-1.348319-2.123317-3.742617-3.311698-5.658056.001877 0 .260955.148353.270342.155864zm208.687674 71.537886c-1.01942-1.870369-.93869-5.289991-4.10583-3.992375-2.33359.952086-4.73288 3.062824-5.85931 5.284358-1.13393 2.253457 1.00065 4.61771 3.29668 4.982019 10.65789 1.690093 5.04265 8.523703 3.41496 15.638995 9.0133-7.819498 7.18098-14.705688 3.2535-21.912997zm191.76121 326.054644c-1.23532 5.436467 1.99566 7.639221 6.67409 7.840155 4.10395.174643 7.62779-2.914472 7.8681-6.189497.36608-5.102203-3.5276-7.922781-9.06587-8.290846-5.83678-1.464747-4.76104 3.504127-5.47632 6.640188zm66.51557 5.081547c2.27163 1.237524 4.65402 1.154897 5.6434-1.631879 1.1039-3.100382-.27973-6.535026-3.43936-5.889035-9.83559 2.009333-16.70117-6.587608-28.2433-7.33876 8.12342 9.924602 18.06603 10.514257 26.03926 14.859674zm-428.348627-419.466091c4.291691-.484493 4.946896-6.074946 5.523252-10.091734.392372-2.664713 5.063293-6.219543-.015019-8.03921-3.957517-1.419678-6.426272 2.997099-5.772943 5.772607 2.573887 10.951804-6.047041 2.465658-8.230434 4.899393.435552 5.415809 5.540148 7.791329 8.495144 7.458944zm-200.99229-38.7313009c-4.988199-.3530417-7.821165 2.9670523-8.433191 7.3763175-.450571 3.2543682 1.466234 6.9857183 4.888697 7.3293705 5.545781.5577308 6.127768-4.3416614 6.976344-8.0298202.174596-3.2055433.373599-6.4016972-3.43185-6.6758678zm38.771649 1.7971323c-.274098-3.5247831-1.678378-7.6241979-6.822399-6.0073421-4.52824 1.4178003-2.583274 3.9829861-1.526309 7.2936908 1.592018 4.9895305 2.02757 10.2776441 7.625917 14.6850314.35107-6.2683677 1.098267-11.1640041.722791-15.9713801zm224.102838 46.6277916c-3.95001.157742-8.74296-.426279-10.01958 4.655268-.43179 1.740795 1.36486 4.251523 2.61519 6.089968.42992.630969 2.29041.29295 3.49005.398111.80728-13.370514 6.3493-3.834633 10.55088-2.368008 2.04071.709839 3.16338-1.055369 2.99442-2.617766-1.13394-6.144428-5.39371-6.326582-9.63096-6.157573zm21.90151-38.4026717c-2.89492-2.1727086-7.18473-2.6459347-8.83119-.3136062-4.29545 6.0974805 4.36491 6.1894966 5.71286 9.9922059.53881 1.51545 2.00505 2.702271 3.26101 4.315371 5.5608-5.366984 5.44628-9.8044176-.14268-13.9939707zm-201.052364-25.4039776c1.244703-1.1624085 7.038297.4920049 2.799173-4.1219493-1.513168-1.6431461-2.639596-5.2787242-6.351176-2.0825703-4.340502 3.7407394-9.155982 6.9331375-15.796274 11.875721 9.570882 2.2478239 14.630421-1.2544247 19.348277-5.6712014zm131.951645 1099.8130783c-4.231614-.22722-7.843693-.09201-7.685993 4.66466.296626 8.85796 8.87062 2.70039 12.734268 6.44864-1.847342-3.89097 4.590194-10.59876-5.048275-11.1133zm181.334249-40.14722c-.19713 2.37364 1.4193 4.55574 3.81859 5.01394 9.30992 1.76709 5.01636-9.40067 10.41195-11.90201-4.68031 2.93137-13.4458-2.33233-14.23054 6.88807zm-383.366608-1110.6522122c-1.351713 2.4750475.670225 5.1097149 2.985034 4.7228714 8.998282-1.4910378 5.94754-10.89546707 9.677894-16.00705984.839188-1.14738544-.05069-3.56234073-3.281661-3.90035936-3.016949 4.82052118-6.469451 9.85512082-9.381267 15.1845478zm-149.707904 70.1970791c-2.333583.0206567-5.857425 1.5548857-4.809847 3.2618798 2.720323 4.4355555 11.527112 3.2693912 10.97704 11.3273797 2.821702-1.122973 4.580807-2.9219832 4.09832-6.4317433-.829802-5.8439665-4.612722-8.2100968-10.265513-8.1575162zm-29.213908 121.8876381c.499383 1.209356.704017 3.17362 1.548838 3.500371 7.685993 2.97832 8.523305-5.062768 12.514614-8.084279 1.070107-.807489 1.837955-2.014966 3.56139-3.956696-10.725471-4.970751-11.059645 7.49838-17.624842 8.540604zm460.53818 18.003248c5.97195-5.643033 11.48769-11.417518 11.94765-23.096062-14.09162 14.365792-14.09162 14.365792-11.94765 23.096062zm21.54857 44.612825c-8.97951 8.788484-8.97951 8.788484-13.57346 3.530417-7.6353 2.846868-7.54707 9.180961-7.0796 15.685942 6.66658-6.146306 19.32012-5.847722 20.65306-19.216359zm-186.881905-140.174446c3.580163.101405 3.114573-2.505094 2.855495-4.876858-1.163976-10.583739-9.435712-.617823-13.034649-6.606386-.058199 9.030731 4.190312 11.310479 10.179154 11.483244zm-367.566576 96.780366c1.456847-1.055369 3.21032-1.872248 4.317974-3.216811 2.213431-2.696637 5.566431-5.926593 1.819181-9.237298-3.024459-2.67598-7.321781-4.039322-11.057767-.630968-4.776055 4.364196 1.505658 5.742561 2.587029 8.521825.651451 1.65817 1.704661 3.16423 2.577643 4.734139 0 .001878-.234673-.167131-.24406-.170887zm581.049071 180.607107c12.13163.422524 12.13163.422524 3.40369-19.560011-4.50195 6.213909-3.05262 13.133902-3.14461 19.794746zm-316.939268-191.915708c-1.372365 6.503103-7.400632 13.408072 1.496271 19.297108 3.155876-3.537929-.593252-12.465376 7.541435-10.908612 10.911332 2.088204-1.852974 11.509534 4.655902 16.179824 5.926889-7.406363 8.36936-12.870998 1.781634-23.191833-6.844927-10.732091-10.851256.773687-15.709915-1.13424 0 .001878.22904-.240369.234673-.242247z" fill="#fff" transform=""/></svg>