<?xml version="1.0" encoding="UTF-8"?>
<svg width="1407px" height="2248px" viewBox="0 0 1407 2248" version="1.1" xmlns="http://www.w3.org/2000/svg" xmlns:xlink="http://www.w3.org/1999/xlink">
    <!-- Generator: Sketch 43.1 (39012) - http://www.bohemiancoding.com/sketch -->
    <title>imgly_sticker_shapes_spray_04</title>
    <desc>Created with Sketch.</desc>
    <defs></defs>
    <g id="Page-1" stroke="none" stroke-width="1" fill="none" fill-rule="evenodd">
        <g id="Artboard" transform="translate(-4261.000000, -16865.000000)" fill-rule="nonzero" fill="#FFFFFF">
            <g id="spray_04" transform="translate(4261.000000, 16865.000000)">
                <path d="M850.123878,151.539383 C865.480845,139.56789 883.391049,146.275682 886.610756,165.20097 C883.946754,166.960544 877.261404,161.689332 878.404728,167.037537 C880.347816,176.105826 878.485456,186.360936 885.191456,194.437703 C883.33285,184.409817 886.188345,174.742484 886.376083,164.964357 C894.343683,150.46148 900.304365,165.291108 908.011009,166.52112 C907.331397,159.225551 907.196226,151.982563 905.806965,144.989334 C904.883294,140.334066 906.803854,138.71721 910.385895,138.848662 C912.963537,138.942556 915.730795,140.166935 913.73514,144.339587 C911.433473,149.161986 914.43728,151.740317 918.582535,154.008797 C928.844294,159.62554 927.310474,164.211326 916.966111,167.580245 C912.539249,169.022458 908.636177,172.759442 910.430952,176.599709 C912.880932,181.859654 911.994809,189.187147 917.416682,192.306308 C921.379831,194.584178 925.496925,193.348532 924.965627,186.770314 C924.51881,181.283145 926.608334,176.781863 932.676026,175.427911 C939.147354,173.980064 944.512906,175.318994 947.696942,181.756371 C933.982682,186.871719 945.855233,197.859202 942.793226,204.876845 C936.509636,208.790349 937.290626,197.718361 931.149716,200.597153 C932.557751,207.404473 929.253562,213.687864 928.147786,221.148686 C931.528947,218.500873 933.667283,215.761044 936.417644,214.855906 C948.538009,210.869164 951.932311,203.047788 948.299581,191.19648 C947.374033,188.188114 947.723226,184.789149 947.488553,181.572338 C952.311542,181.77515 957.954946,178.370551 958.792258,188.041639 C960.446229,207.179127 962.749774,208.119946 980.500401,201.851578 C982.129967,200.261013 983.802712,198.646035 985.475458,197.032935 C997.289809,197.776576 999.604619,207.862676 991.637019,211.008127 C975.701818,217.310296 989.733355,223.280081 989.335351,229.069589 C983.553021,230.509924 978.382717,227.73066 973.467736,225.82461 C962.845521,221.702661 960.763506,227.873379 956.073811,237.779202 C966.129058,233.2967 972.917664,234.038463 979.781365,234.429062 C983.665664,234.646896 989.898565,237.09002 989.080027,228.825464 C994.988142,229.572861 998.56455,232.504234 997.736626,238.872129 C997.451264,241.103052 996.078899,243.082339 998.322368,245.148008 C1003.51708,249.944117 1007.60038,256.109201 1014.86209,258.3082 C1006.09472,270.980143 1024.40105,268.542653 1025.51809,275.789397 C1016.95349,267.205601 1027.69773,250.629544 1009.87952,244.657881 C998.159036,240.733109 998.555164,216.380745 1008.91642,206.24582 C1011.48843,203.727581 1018.25639,202.503203 1010.89143,197.77282 C1007.73743,195.746586 1001.25484,194.563521 1006.21112,189.258506 C1012.13237,182.928169 1010.99281,193.836781 1014.80576,193.688428 C1015.67875,193.650871 1016.56299,193.772933 1017.40406,193.821758 C1022.687,189.348645 1013.48597,187.123355 1016.11242,182.62583 C1017.08303,182.717846 1018.81397,182.346025 1019.44101,183.016429 C1025.1107,189.061329 1034.64967,192.445271 1032.98256,203.614909 C1032.49631,206.882422 1036.54395,207.25612 1039.03335,208.270176 C1037.62156,215.928176 1042.55156,220.61349 1047.10233,225.475324 C1036.14594,234.365214 1043.81692,240.674895 1050.08924,247.159219 C1044.34258,245.09355 1037.73796,251.281168 1039.38442,251.964717 C1050.99602,256.766459 1044.89641,269.321974 1051.76199,277.72737 C1053.65439,268.236558 1055.16004,260.691231 1056.65632,253.145904 C1059.60193,256.167415 1062.54753,259.190804 1065.44621,262.219827 C1055.11123,269.295683 1057.0393,282.60235 1050.46472,291.862182 C1047.75003,295.691182 1053.8853,295.234857 1056.78398,295.298705 C1055.91287,299.944583 1055.5036,305.820474 1059.7033,307.705866 C1065.06135,310.115188 1063.57446,303.082523 1065.70529,300.66569 C1067.93186,298.141817 1071.95321,297.298648 1072.68163,299.661023 C1074.88192,306.810117 1088.09492,307.215739 1083.70748,317.737508 C1081.16176,323.834988 1077.85194,329.613229 1074.942,335.425272 C1063.50124,328.970994 1079.2825,317.052081 1069.02825,310.77808 C1063.73404,312.055039 1066.57264,318.554386 1062.57006,320.576864 C1050.06671,306.141591 1046.49594,305.747236 1033.89121,321.331773 C1047.07605,312.851261 1054.22135,315.711274 1058.65197,326.124126 C1059.53809,328.20294 1064.48124,327.729714 1062.42738,332.065742 C1061.20333,334.657218 1059.49491,334.099487 1057.21578,334.40746 C1054.68507,334.751112 1055.62376,353.111157 1058.31967,353.708323 C1063.31538,354.818151 1063.26845,352.006963 1062.2678,348.027733 C1061.28406,344.095449 1064.3348,342.198789 1067.64274,341.248581 C1070.86433,340.326542 1073.56588,341.751853 1073.7799,344.966786 C1074.85,360.930655 1087.32332,362.121231 1098.77158,364.956832 C1101.3342,365.591556 1103.63024,367.326718 1106.04455,368.55673 L1106.26608,368.286316 C1099.27284,369.499427 1093.13756,378.083222 1084.5692,369.955752 C1083.48783,368.928551 1073.42695,375.442921 1069.35491,380.07002 C1065.67525,384.252062 1072.18225,388.015336 1073.37626,392.278126 C1074.69606,397.006631 1082.7932,397.325871 1081.08103,404.664631 C1084.40775,398.287346 1086.47474,392.631168 1079.12668,388.785267 C1088.5699,383.185425 1095.50306,381.515989 1099.89425,395.162552 C1101.07325,398.837566 1108.30679,404.914389 1114.71053,407.329345 L1114.44582,407.09461 C1112.40887,417.400422 1122.00228,419.216333 1127.11251,424.230276 C1128.5487,425.633053 1130.75838,424.98894 1132.04438,423.462223 C1134.60701,420.405032 1133.5369,417.377887 1131.24837,414.748854 C1128.98989,412.161133 1126.43853,408.814749 1130.14823,406.679598 C1133.94241,404.499378 1135.6696,409.214737 1136.82419,411.783679 C1140.13777,419.120561 1149.69926,425.018986 1142.65158,435.061895 C1141.57772,436.588613 1141.82929,438.419547 1144.09528,439.565054 C1152.57353,443.861647 1158.81394,436.84776 1165.87477,434.900397 C1171.63082,433.309832 1166.91859,428.789772 1165.45048,425.969194 C1163.59751,422.408731 1164.00302,418.780665 1164.17949,415.152598 C1164.23018,414.063427 1165.45048,412.480373 1166.46427,412.14611 C1167.36353,411.853161 1169.77409,413.34232 1169.73654,413.438092 C1166.9092,421.713915 1177.28173,426.29219 1175.45879,434.485386 C1174.54451,438.592312 1175.57144,443.10486 1169.09823,442.620367 C1164.72018,442.291738 1159.87091,443.912349 1160.77205,448.58264 C1161.85905,454.195627 1169.85669,453.632263 1172.10767,452.47361 C1177.65345,449.62862 1178.00077,448.331004 1177.24981,455.754269 C1176.88936,459.397358 1181.47204,457.051885 1182.91575,454.792793 C1185.76373,450.321558 1188.09168,445.532961 1188.76942,439.414824 C1194.55926,443.442879 1192.45471,447.724448 1192.41341,451.572227 C1179.09903,460.251794 1189.78508,469.164219 1192.46034,477.988383 C1197.51988,469.132295 1190.73316,460.251794 1192.19563,451.382561 C1202.04625,455.459441 1212.01889,461.650816 1217.57969,445.395876 C1219.47772,439.85237 1225.42901,440.577232 1231.39533,441.18191 C1230.77955,446.158295 1216.57153,444.54144 1226.34705,453.335558 C1227.9447,454.774015 1221.99904,464.62538 1225.11174,470.869335 C1226.86896,474.39224 1219.82503,481.165758 1229.91032,481.817382 C1239.50561,482.435205 1240.04254,474.352805 1238.46366,470.786708 C1231.95479,456.126089 1245.09457,459.352289 1250.52395,457.483797 C1254.88886,455.975859 1256.39264,463.076128 1251.39693,469.802698 C1247.20474,475.451365 1244.45626,480.070953 1250.41882,486.27735 C1253.25929,489.238769 1255.94019,494.125016 1259.87706,491.576731 C1264.5461,488.549587 1264.92345,480.671875 1260.85517,478.497288 C1254.71051,475.20724 1258.23435,472.208264 1259.70058,470.095648 C1264.57426,463.066738 1266.61122,472.587596 1271.00241,472.764117 C1278.9212,473.081479 1271.42482,476.134914 1270.95923,478.166781 C1268.47358,489.06976 1273.43549,496.201953 1282.76607,500.703234 C1278.78227,515.589199 1262.85458,494.669602 1258.4709,510.025037 C1263.75197,511.101063 1269.003,512.062538 1274.20522,513.271893 C1279.52384,514.507539 1281.84052,519.812554 1281.98133,523.513858 C1282.20661,529.412283 1276.398,525.682811 1273.29469,526.510956 C1271.67076,526.946625 1270.09376,527.570081 1268.17883,528.216072 C1275.69961,538.172599 1288.46017,525.618963 1295.08356,535.977356 C1295.81949,534.965178 1296.9065,534.048772 1297.21814,532.914531 C1298.24695,529.16628 1297.3458,523.359872 1304.41789,527.451775 C1309.80973,530.572813 1311.44117,534.548288 1308.00181,540.046724 C1307.26776,541.216644 1306.10941,542.159341 1305.54808,543.393109 C1304.16445,546.446544 1303.18821,550.027663 1306.21642,552.292388 C1309.39107,554.675419 1310.69585,550.326246 1312.97311,549.257732 C1314.61582,548.485923 1316.1778,547.545104 1317.93315,546.598652 C1320.75298,553.657608 1323.56341,560.3654 1326.08098,567.185864 C1327.05159,569.816776 1327.70491,573.743426 1330.91523,572.671155 C1337.3753,570.511592 1341.60691,573.39414 1342.55311,578.554557 C1343.54625,583.9591 1335.61807,583.463339 1333.28261,587.147742 C1334.20628,591.66968 1343.5913,588.608734 1340.49363,594.899636 C1337.86342,600.227185 1332.16932,598.03382 1324.90762,593.915626 C1330.4947,604.304065 1334.83333,608.369678 1342.49679,602.20835 C1345.93991,599.436597 1351.3355,598.508924 1351.36741,602.444963 C1351.44438,611.117018 1373.82463,608.056072 1361.05281,622.029386 C1357.5346,625.871531 1355.95385,630.470462 1355.3606,635.69285 C1361.35319,636.374521 1357.46702,627.978514 1362.33694,629.101487 C1367.53728,630.301453 1364.67052,635.287228 1365.6599,638.496527 C1367.36269,644.040032 1364.15988,652.892365 1376.25396,650.991949 C1366.47093,663.900505 1356.68603,647.869032 1347.16771,653.562768 C1347.92805,659.179511 1349.78853,664.178431 1356.4645,664.892026 C1365.18868,665.821577 1367.40962,672.756593 1369.04294,679.070029 C1370.87527,686.155275 1370.55236,693.689335 1378.13322,698.096722 C1380.72963,699.608417 1381.3379,702.977336 1378.83723,705.268351 C1375.92729,707.940576 1373.31586,705.538766 1372.20633,703.150101 C1368.80827,695.824486 1361.90139,692.855556 1355.676,689.077259 C1353.52452,687.775887 1350.455,685.544964 1348.3054,688.71295 C1346.51626,691.357006 1348.29226,695.38694 1350.31045,695.978472 C1359.72363,698.731446 1355.98201,713.253102 1367.41901,714.235234 C1370.44159,714.496259 1368.42528,717.944049 1367.25192,719.758082 C1364.43961,724.114767 1355.5765,729.006648 1368.99601,731.363389 C1371.42534,731.791545 1371.47978,737.594199 1368.68061,738.020478 C1362.64108,738.946273 1360.55343,741.913325 1359.18294,747.391105 C1358.5559,749.879298 1348.37862,745.413696 1352.55767,752.938366 C1356.07776,759.283727 1360.09535,751.946845 1363.8426,750.510266 C1365.09669,750.031406 1366.22124,749.006083 1368.10425,751.214471 C1359.69547,758.799234 1352.11273,768.047799 1339.37095,756.45376 C1338.54678,762.098671 1338.60498,766.767084 1336.99044,770.759459 C1336.01795,773.161269 1342.22457,784.978776 1329.43023,777.399647 C1326.64607,775.7396 1318.15281,789.059412 1322.50645,797.547435 C1325.47646,803.333188 1323.59908,803.015826 1319.32805,805.509652 C1309.32349,811.351741 1309.3554,815.276512 1317.30611,824.333534 C1320.20854,823.548579 1320.06773,821.034096 1320.50516,818.801295 C1320.84685,817.045476 1321.35562,815.319704 1321.80806,813.520693 C1332.83579,817.869866 1336.14186,827.948455 1341.00615,836.757596 C1342.25461,839.026077 1342.37476,841.330237 1340.15382,842.900146 C1338.34215,844.180861 1336.11558,843.219385 1335.58803,841.44291 C1331.36956,827.217959 1317.83553,834.196166 1307.50994,826.866795 C1310.28095,837.351006 1313.13081,842.302979 1322.23423,840.515236 C1329.93524,839.00542 1332.13553,842.314247 1327.55848,848.691531 C1325.24179,851.923365 1323.74177,854.740187 1324.50398,858.788899 C1325.32252,863.064834 1323.61786,866.914491 1318.94131,866.148315 C1313.22093,865.211253 1315.14149,861.183197 1317.05454,857.658414 C1317.84867,856.195545 1318.14154,854.450993 1319.12529,851.408826 C1307.92484,855.006846 1296.91588,854.25006 1290.57222,865.716403 C1287.7599,870.803583 1286.83999,873.103988 1288.46392,879.49254 C1290.45958,887.340205 1285.74547,897.01505 1283.47197,905.779121 C1281.96631,911.55924 1271.35536,899.856284 1272.69393,910.671002 C1273.27967,915.365705 1278.45936,919.397516 1279.38867,924.161701 C1280.7967,931.365254 1273.63637,930.460115 1271.47363,928.31933 C1261.48785,918.447308 1255.42016,924.458406 1253.2668,933.682559 C1250.87877,943.91889 1244.73787,935.765129 1240.75219,937.363206 C1235.20641,939.586618 1242.39114,931.348353 1236.73647,929.956843 C1233.40412,933.733262 1228.08551,934.777364 1227.6293,943.40435 C1227.16183,952.483906 1227.42655,952.95901 1234.74269,948.752556 C1239.44741,946.044651 1241.97624,948.061496 1241.48624,953.163699 C1240.77472,960.6433 1234.1194,960.603865 1228.98853,961.897725 C1224.18994,963.10708 1219.66358,962.746527 1218.9483,956.074415 C1218.64228,953.21628 1219.67672,947.918777 1214.83496,949.379768 C1210.1922,950.776912 1209.8768,958.111916 1212.14467,959.894026 C1223.90083,969.099399 1210.93752,970.875875 1207.82858,974.832571 C1209.53887,980.644613 1213.87937,976.041926 1216.61096,978.381766 C1216.7649,983.258624 1208.19091,984.259535 1211.29234,991.968237 C1213.86248,998.339888 1205.01814,1001.04779 1200.57438,1004.62891 C1197.67758,1006.96875 1194.87841,1004.1463 1193.93409,1001.88345 C1191.96659,997.153067 1188.61735,992.507189 1196.75767,988.317636 C1199.41604,986.950539 1190.26006,984.668913 1189.96155,979.773276 C1183.47896,984.426666 1189.86205,989.104468 1187.96027,993.237685 C1186.92395,992.963514 1185.8407,992.99356 1185.26623,992.465876 C1181.61472,989.125125 1176.56081,983.093371 1173.03134,986.221921 C1167.6733,990.974838 1175.86618,995.312744 1177.89375,999.562389 C1182.8613,1009.98651 1177.07522,1018.32242 1175.57707,1027.94093 C1174.4957,1021.6012 1178.39877,1013.24088 1166.93549,1013.94508 C1168.06192,1010.86911 1172.01568,1007.87389 1166.11695,1005.02327 C1162.00361,1003.03271 1159.05612,999.444083 1158.82708,994.39446 C1159.40344,992.540991 1159.98167,990.685644 1160.56366,988.830298 C1164.4029,978.997712 1149.41015,984.68957 1150.74684,976.917019 C1145.4057,976.682284 1145.84876,981.07277 1145.19918,984.233244 C1144.17413,989.243432 1138.71659,990.21054 1136.69278,994.201038 L1136.9312,994.362536 L1136.9312,982.63329 C1124.06364,994.96158 1123.4366,1000.67409 1132.15703,1013.49251 C1134.80789,1017.38724 1140.50198,1022.6115 1134.44743,1026.05554 C1130.83347,1028.11182 1123.58303,1027.18039 1120.59424,1019.45103 C1117.67304,1011.91134 1112.8463,1004.62516 1103.5589,1002.78108 C1106.45006,995.506166 1120.7144,998.59528 1118.46529,986.062301 C1114.37261,986.937393 1110.83562,994.877075 1106.35056,987.085746 C1104.82801,984.439811 1102.41933,985.115849 1100.59639,986.873545 C1098.23465,989.134515 1100.73907,990.514757 1101.57451,992.494044 C1102.92998,995.718366 1103.09894,999.442205 1103.76916,1002.95572 C1102.09642,1007.64479 1101.06949,1012.70944 1098.60825,1016.93655 C1094.26774,1024.39361 1099.87923,1024.77858 1105.13965,1024.96637 C1100.46685,1033.1652 1093.45108,1029.43197 1087.77952,1031.22159 C1088.30331,1034.26563 1091.24329,1034.12104 1093.19388,1034.97547 C1095.76589,1036.10971 1099.41552,1036.98105 1097.98683,1040.37814 C1094.65824,1048.30092 1090.29333,1056.0622 1082.62987,1060.34377 C1079.16798,1062.27987 1075.38318,1057.95135 1074.04085,1054.91482 C1071.3393,1048.78541 1079.7969,1052.53179 1080.65111,1047.50282 C1071.10651,1046.44369 1065.98314,1040.53964 1066.19153,1029.09019 C1061.40046,1033.83936 1059.46863,1038.65424 1053.92097,1038.89649 C1055.06618,1041.09549 1055.27456,1042.13396 1055.90724,1042.59967 C1060.10319,1045.69066 1069.33989,1043.13675 1068.8743,1050.3403 C1068.45565,1056.73636 1061.00057,1054.03409 1056.31088,1054.36084 C1054.30959,1054.50356 1052.09241,1057.19644 1052.98041,1057.67718 C1067.95063,1065.82155 1050.28637,1069.28249 1050.61303,1075.17716 C1043.4114,1071.54721 1047.21685,1062.51648 1042.3244,1057.57202 C1034.15967,1068.62711 1038.15474,1077.91698 1054.25327,1084.05014 C1052.76451,1080.55729 1051.57049,1077.7461 1050.37648,1074.93491 C1057.94983,1072.0918 1059.69392,1077.68976 1061.58256,1083.98254 C1064.62579,1076.01281 1076.24865,1074.26263 1072.25922,1063.64884 C1078.28186,1063.3465 1079.98652,1068.62147 1083.55354,1071.13596 C1094.00303,1078.4841 1100.64145,1075.06636 1104.21786,1062.98032 C1105.10398,1060.00012 1106.80113,1055.25659 1109.23422,1052.48859 C1112.16668,1049.15723 1109.84812,1040.78752 1115.96087,1042.25226 C1121.12742,1043.48228 1120.54168,1049.05958 1116.77565,1053.4388 C1114.33318,1056.2744 1117.1455,1057.11569 1119.39647,1057.86309 C1123.2207,1059.14193 1126.10623,1061.22638 1125.01923,1065.89291 C1123.8928,1070.70404 1119.08295,1069.08531 1116.46776,1070.74536 C1108.10967,1076.04849 1100.08011,1080.60423 1089.60997,1080.29626 C1085.89463,1080.18546 1081.85639,1083.36472 1082.60922,1089.72322 C1084.30074,1089.72322 1086.01103,1089.8697 1087.67439,1089.68942 C1090.90348,1089.34389 1094.50429,1088.33735 1096.79658,1091.16168 C1098.59323,1093.36631 1096.28593,1095.44701 1094.69391,1097.01879 C1091.81401,1099.8619 1087.49604,1101.62711 1084.76069,1098.74269 C1075.03962,1088.48382 1070.12276,1096.43477 1062.62075,1106.40632 C1065.3223,1094.99444 1063.3886,1089.44154 1053.23198,1091.02647 C1038.44949,1093.32876 1037.54083,1094.8104 1041.65605,1112.45498 C1031.36989,1112.43056 1031.34548,1112.43244 1029.85296,1098.44223 C1028.83355,1088.87818 1026.86417,1080.52536 1013.94217,1085.0642 C1012.02161,1089.50727 1016.67376,1088.62091 1018.09118,1090.34105 C1022.7452,1095.9822 1026.75716,1100.43841 1016.70755,1106.45515 C1011.0097,1109.8635 1001.64721,1113.86151 1003.02896,1124.21239 C1003.02896,1124.203 1003.08528,1124.16357 1003.08528,1124.16357 C999.426268,1134.30788 997.757277,1145.47752 988.075629,1152.48953 C986.804643,1153.40781 986.322156,1155.40963 985.47358,1156.9063 C972.162957,1146.93288 976.159899,1162.8667 975.224964,1165.36428 C968.866278,1182.29901 960.755997,1198.36241 953.150731,1214.6981 C947.094303,1227.70806 948.288317,1244.62026 935.193592,1253.65475 C921.075696,1263.39907 908.808895,1274.94429 897.371897,1287.41154 C888.452465,1297.14272 881.164477,1308.12269 875.357741,1320.22 C866.779992,1338.12184 854.999433,1354.13829 842.458536,1369.42612 C838.225044,1374.5903 836.253795,1379.73194 836.95218,1385.87261 C841.551761,1426.12124 844.878478,1466.59897 851.764708,1506.46075 C854.607061,1522.92789 848.575039,1539.20537 854.515069,1555.26313 C855.986935,1559.24612 856.398081,1563.75679 858.119639,1568.1116 C868.283773,1593.82918 877.293319,1619.37024 870.754405,1648.38726 C864.902612,1674.39028 867.6342,1701.70031 861.444478,1727.97187 C856.848652,1747.49432 850.146406,1766.05906 838.974118,1782.54686 C821.315483,1808.61748 794.572207,1819.22751 764.539761,1820.87066 C741.006804,1822.16264 717.165957,1818.16087 700.798959,1799.62055 C687.450788,1784.49422 682.038302,1763.98024 688.656066,1744.60426 C694.802608,1726.6367 698.369629,1709.64751 693.199325,1691.31938 C691.626081,1685.77025 691.530334,1680.04083 692.848255,1674.7884 C698.737596,1651.34868 692.818217,1628.2714 691.443975,1605.06454 C690.505285,1589.22461 689.925175,1573.41285 689.940194,1557.51283 C689.968354,1528.2085 688.462696,1498.90604 688.15856,1469.59419 C688.100361,1463.81407 689.545944,1457.5119 692.057878,1452.30078 C702.912889,1429.80189 699.158129,1406.61569 696.837687,1383.27362 C694.573567,1360.51558 694.312611,1337.51529 691.199916,1314.89621 C688.239287,1293.38132 685.331226,1271.85517 679.819239,1250.53746 C676.86612,1239.08802 673.0832,1226.01233 674.510008,1213.11692 C674.763455,1210.85032 675.416783,1207.40629 674.241543,1206.39599 C655.890155,1190.44902 651.808731,1161.75687 625.583611,1152.70173 C607.337356,1146.40331 588.420876,1156.88752 586.71997,1176.14144 C581.703611,1232.86284 586.900199,1289.02652 596.05618,1345.05498 C599.754619,1367.68533 598.815929,1390.71003 599.071252,1413.68966 C599.373511,1440.57153 600.077528,1467.89283 605.411164,1494.73902 C609.464427,1515.13281 605.27787,1535.89842 604.211519,1556.45371 C602.31912,1593.14563 600.370399,1629.77934 599.73209,1666.56515 C599.255236,1694.29395 600.411702,1721.30727 609.890593,1746.80139 C617.86758,1768.26745 619.408909,1790.84333 622.506586,1812.48216 C627.588653,1848.03045 633.784006,1883.82099 633.543702,1920.21245 C633.397266,1943.17894 637.060034,1966.1135 631.666322,1989.01051 C629.869669,1996.63846 628.677533,2004.25703 625.883992,2011.75165 C617.522142,2034.19797 609.8568,2056.88653 616.286826,2081.53372 C618.894507,2091.50902 612.633445,2100.3238 611.306137,2109.8916 C605.844839,2149.1919 587.607971,2182.75903 560.147535,2210.54979 C545.922628,2224.94188 529.28341,2237.52556 509.447014,2244.5094 C491.403516,2250.85852 475.986472,2245.22863 466.843632,2228.82158 C464.14396,2223.99167 461.540034,2218.85003 457.789029,2214.90648 C437.528345,2193.59065 444.249365,2172.02318 457.270872,2150.88012 C468.561435,2132.55951 472.791172,2112.53003 474.313727,2091.6048 C474.580315,2087.9711 474.933262,2083.69328 473.371282,2080.68304 C459.013081,2052.96176 462.052559,2023.83957 463.295384,1994.04323 C464.842345,1957.15038 471.05835,1919.8857 459.105072,1883.00599 C455.459201,1871.74997 456.981756,1858.13909 458.682662,1845.95915 C464.035072,1807.64849 462.285354,1769.03174 464.132696,1730.60842 C465.904942,1693.92025 468.497604,1657.15509 464.50254,1620.11388 C460.492456,1582.94873 467.58332,1545.42491 465.540731,1507.96869 C463.567604,1471.73873 462.114512,1435.47309 460.646401,1399.21683 C460.177056,1387.66411 459.392312,1376.03814 461.91551,1364.57931 C462.73217,1360.87801 463.244695,1357.16356 461.029387,1353.81342 C445.931498,1331.0197 438.307458,1303.39794 415.472886,1285.53929 C403.791829,1276.4034 395.345497,1264.15586 386.991156,1251.75621 C377.930921,1238.30682 365.301786,1227.69679 353.072534,1216.98536 C334.332528,1200.56892 319.409235,1181.34693 304.887702,1160.90995 C286.877996,1135.56231 267.790675,1110.63719 250.849199,1084.67548 C239.466645,1067.22996 220.920009,1058.84522 209.467992,1042.54334 C207.038662,1039.08428 201.198133,1032.10419 196.121698,1041.59501 C190.872544,1036.60735 181.40304,1039.83355 177.854792,1034.84966 C172.046178,1026.70528 165.944694,1023.90912 154.286165,1028.59256 C161.679287,1015.9807 160.053476,1012.63244 146.682776,1011.11136 C140.750256,1010.4372 131.678756,1002.21771 124.216171,997.154945 C122.308753,995.862963 120.421986,994.520278 118.426331,993.378526 C115.796122,991.878099 113.180932,988.548616 109.985632,992.086544 C107.160175,995.20946 112.632737,997.207526 112.287299,1000.42058 C110.642714,1000.15956 109.058206,1000.18585 108.981233,999.859094 C106.516233,989.380517 95.8320646,983.983486 92.9390222,973.83166 C91.2568898,967.936991 89.197404,963.04511 82.8349636,959.847078 C67.1682285,951.967489 62.4203347,931.348353 44.3073736,925.857428 C42.3811818,925.271529 42.2309914,923.070652 42.5557782,921.074464 C44.3974878,909.863513 36.6626827,903.49374 30.2364114,896.316478 C22.6630609,887.871646 13.0546306,880.159188 18.097273,866.394318 C19.8601327,861.583186 14.6166107,859.194521 13.4150876,855.429369 C11.3349507,848.90561 -5.6271766,845.876587 8.53202249,835.414911 C8.70661882,835.289093 8.60336293,834.32574 8.33865237,834.115417 C-7.14222217,821.635018 3.28099095,807.122752 5.35737311,793.448021 C7.64589919,778.3461 -1.02008636,764.538039 2.85294834,748.579804 C8.06080014,727.123133 13.3794174,705.867395 20.4289788,684.925263 C22.2218766,679.59208 26.6055587,679.118854 28.757036,675.813783 C33.3453524,668.766095 36.6007292,660.805756 34.5581398,652.216327 C31.8866283,641.007254 35.5156036,635.060004 49.8475216,635.668438 C41.2829146,627.056474 40.0231927,623.268788 52.4120226,621.387151 C60.8827606,620.095169 66.3215301,611.267249 67.1607189,601.793338 C67.7351972,595.284601 65.1087427,586.770288 77.1220966,590.30446 C77.9350021,590.539196 79.7278999,589.151441 80.3399257,588.096072 C93.7331538,565.052591 117.55335,551.804139 133.550504,531.338989 C139.105671,524.231208 145.021295,519.068913 153.278012,515.414556 C161.752504,511.660671 157.515258,497.488302 168.574903,494.605754 C170.557416,494.091214 170.433509,490.543897 174.657614,491.022756 C190.281169,492.791721 192.60912,489.026569 186.738553,470.737883 C200.308255,476.234442 208.758342,471.079657 214.041289,459.211448 C214.638296,457.866885 216.853604,457.019961 218.492557,456.394626 C236.759463,449.414541 238.758873,447.668112 242.432905,432.066674 C243.795883,426.310968 247.317848,426.682789 250.543186,428.94188 C256.346167,433.001859 261.535245,433.206548 266.89141,428.694 C273.991661,425.700657 270.57483,418.423867 272.991017,413.505696 C276.426623,410.3471 279.922304,407.070197 280.881645,402.336058 C283.93802,387.245405 290.232874,392.794544 296.644127,400.058188 C302.723083,388.238804 317.792811,386.081118 322.918058,373.797897 C323.550735,372.286203 325.679684,371.418622 327.067068,370.196121 C330.108423,367.518262 330.288652,361.017037 334.957695,361.396369 C341.057303,361.888374 336.942086,369.724773 341.851434,373.283358 C345.07865,368.43279 350.810291,363.612269 350.924811,358.658418 C351.063737,352.581595 339.029732,358.003038 337.693038,349.058689 C341.909633,346.010888 348.587473,349.608909 351.549979,345.770519 C355.362937,338.98949 340.208727,341.393178 347.419743,334.653462 C351.968634,330.405695 356.346684,332.212217 358.948733,338.64396 C361.184692,344.17432 366.692925,344.213756 372.04909,343.963998 C366.53147,333.213127 370.385731,328.862077 388.983056,324.563606 C387.614446,318.826679 380.418449,320.265136 377.407132,314.715997 C392.093875,315.438981 405.871966,314.605202 418.364052,307.360336 C420.453575,306.150981 440.909507,291.952321 442.186125,290.26035 C443.346346,288.729876 444.478406,287.193769 442.867614,285.451096 C441.262454,283.708422 439.003966,281.92819 442.077237,279.984583 C444.245611,278.61373 446.291955,280.089745 448.144929,281.764815 C450.880271,284.237984 452.049879,291.595523 453.294582,290.232181 C459.555644,283.362892 473.281168,287.847272 475.109736,279.787406 C479.065375,262.300576 494.758394,264.418826 505.20789,257.93638 C503.640278,264.98219 508.872536,272.029878 512.704268,272.191376 C518.242539,272.424233 524.315863,267.483528 529.578159,263.898652 C532.551928,261.868663 531.102591,258.028396 527.828441,258.049052 C519.733178,258.095999 512.338179,251.070846 503.904989,255.791839 C505.562715,244.500139 509.760536,239.51812 519.9472,249.307515 C520.266354,249.617366 520.750718,249.929094 521.161865,249.938483 C532.929282,250.175096 544.914475,248.017411 553.171192,261.010471 C554.864588,263.684574 566.228369,264.319298 569.339187,253.891423 C570.131441,251.237977 568.361072,240.19228 579.221715,242.830703 C580.697335,243.185622 574.128383,240.207303 575.192858,236.581114 C597.796511,231.785005 602.531264,234.599949 598.171987,251.656745 C605.108906,248.610821 611.3756,245.803389 617.700493,243.119896 C619.866989,242.201612 621.725595,241.411024 622.301951,238.644905 C622.964666,235.475042 613.61156,233.754903 620.651734,230.618841 C624.793234,228.776639 629.631242,231.116479 632.443557,235.683487 C632.98612,236.571724 634.598789,236.798948 636.429235,237.664651 C639.579478,228.515614 633.797148,223.514816 629.032358,218.260504 C628.315199,217.469916 626.462225,217.045515 625.410892,217.366633 C623.231254,218.040792 627.299536,226.106292 620.925832,221.74773 C617.505246,219.40789 618.710523,214.06344 620.715565,211.458818 C632.282103,196.422623 631.42414,184.26522 613.789911,174.930272 C613.080261,174.556574 612.813673,171.535063 613.053978,171.435535 C618.250565,169.230903 623.646155,165.492041 628.780789,165.790624 C633.262095,166.05165 635.537479,171.565109 632.715777,176.815665 C627.017929,187.412549 638.207114,189.818115 642.626466,192.638693 C647.40252,195.688372 650.083419,189.149589 648.566496,184.222029 C646.963213,179.00903 647.042063,173.604488 652.788723,173.812933 C658.325116,174.010111 655.999043,180.890667 655.589774,184.242685 C654.583498,192.477195 649.112813,200.610298 657.668033,208.542469 C662.423437,206.191362 665.34464,201.372718 663.42408,195.780388 C659.830775,185.286787 667.452937,185.861419 671.340991,188.978702 C679.16591,195.23768 680.15529,188.00596 683.448214,184.747836 L683.284882,184.507467 C684.236714,188.804059 685.248621,193.074361 689.072844,195.913717 L688.885106,195.586966 C687.088454,202.531371 695.74693,200.497626 697.84584,207.986616 C688.038408,199.107993 691.789413,214.748866 682.417532,212.797748 C672.450523,210.722689 672.49558,203.72007 668.652583,193.72223 C667.445428,210.820339 667.467956,223.353318 675.082609,236.519144 C677.707186,230.817896 677.147727,223.606832 684.96326,226.859323 C696.494127,231.659187 698.202543,240.631704 693.788822,253.384395 C699.52985,251.020143 703.971731,244.334886 707.677679,251.75815 C712.555112,261.523133 712.397412,261.607637 723.36131,259.310989 C721.574045,256.21624 717.50764,252.141238 718.344951,250.193875 C722.754917,239.98759 712.051974,238.866495 708.535641,234.943601 C703.472348,229.291179 701.110604,227.488413 707.396072,223.783353 C710.212142,222.123306 712.547602,220.175943 715.067046,218.224825 C726.909558,209.03823 727.440857,202.595219 716.782971,192.768266 L716.64029,193.02178 C722.835644,195.695883 722.657293,182.505645 728.302574,187.544001 C732.919051,191.669706 734.66126,198.657302 734.246359,205.305002 C733.942223,210.29641 732.027296,215.38359 736.484196,219.627602 C740.546846,207.025141 752.723532,210.324578 761.391395,206.775383 C761.65986,212.407149 756.540245,214.440894 753.587127,217.60888 C744.372946,227.480901 744.241529,227.225509 747.784145,238.504064 C748.441228,240.582879 748.291038,243.204401 747.667748,245.332041 C746.61266,248.918794 744.421758,252.143116 749.627732,254.573094 C755.027077,257.091333 755.736726,253.75246 756.752389,249.904681 C757.649777,246.501961 760.987758,247.288793 763.417088,246.286004 C772.04928,242.725541 780.26094,246.70665 791.465143,249.823932 C784.109569,242.134009 781.704645,235.642173 773.73329,231.518346 C783.266625,230.175661 788.680989,229.328736 793.173559,237.918165 C797.131076,245.489783 807.05866,250.032377 815.093846,250.791041 C826.40506,251.859556 815.916139,241.818525 819.201554,237.854317 C820.059516,236.812093 820.374916,235.328567 821.204718,234.252541 C826.264257,227.700613 831.226172,222.262269 825.1153,212.444706 C822.513252,208.260787 822.849303,198.856357 828.075928,192.948543 C831.477741,198.321161 829.64354,204.458077 830.041545,213.524488 C836.64429,203.119148 848.171403,210.829728 853.80542,201.004654 C857.97508,193.741009 862.507075,185.882076 872.547303,184.469909 C874.691271,184.16757 875.663754,181.078456 874.255719,178.659745 C871.400224,173.769742 866.171721,172.511561 861.322449,171.426146 C856.441261,170.335097 849.22649,174.173486 849.581315,176.488914 C851.92804,191.731676 842.216354,190.542977 832.666122,190.627482 C831.064717,190.638749 829.476454,192.328842 827.884435,193.249004 C824.510784,188.370268 831.273106,183.268065 827.768038,177.474801 C818.223439,185.972214 820.498823,197.121195 819.000674,207.383816 C811.461116,196.676137 811.532457,196.728718 804.32895,207.079599 C802.252568,210.061675 799.629868,212.664418 797.25686,215.44556 L797.4859,215.203314 C786.897478,205.706868 773.902254,206.888056 761.149213,206.995095 C761.085382,204.351038 761.856985,201.231877 757.814986,200.745506 C745.140794,199.2263 749.036358,187.917699 749.903707,182.548837 C751.935032,170.032758 747.275375,157.362693 734.916584,152.711181 C737.781465,144.363999 755.462629,147.843713 749.143368,132.542737 C756.697945,135.275054 759.889491,140.450495 757.880694,145.477583 C753.181612,157.234997 760.693009,166.735199 761.988401,177.294525 C762.594795,182.278422 768.807045,185.707433 770.012323,181.660599 C773.845933,168.783967 789.105277,163.785047 789.426309,149.584509 C795.745569,149.976986 796.838204,155.593729 800.497218,158.080044 C803.044822,159.813328 807.081189,161.14099 807.163794,158.155159 C807.439769,147.971409 815.399859,151.603231 820.177791,150.100926 C825.398785,148.461536 829.140403,149.008 829.072817,156.696045 C829.012741,163.291164 832.258731,170.017735 838.914042,172.656158 C847.319072,175.989397 850.345408,166.410325 855.389928,163.016994 C862.23861,158.408673 846.508044,157.97676 850.328512,151.344084 L850.123878,151.539383 Z M1105.91313,424.111969 C1109.78429,416.213601 1111.21298,408.957468 1100.64333,404.726601 C1098.1558,408.469219 1101.53696,412.730131 1098.65518,417.315917 C1095.68892,422.040666 1100.80103,424.724159 1106.16282,423.896013 C1104.29859,436.057172 1108.7048,438.423302 1123.33897,432.098598 C1114.67674,434.983024 1114.56222,421.255712 1105.91313,424.111969 Z M798.407694,200.888225 C811.004913,190.845316 809.696379,191.096952 805.673154,170.207401 C804.297035,163.077086 800.741277,164.292075 797.555363,163.030139 C793.569686,161.448963 790.319941,163.980347 788.553327,167.475084 C785.817984,172.883382 790.61469,175.223222 793.89635,176.868246 C800.987214,180.428709 804.291402,184.289633 798.332599,191.555155 C796.363227,193.955087 797.555363,196.803833 798.407694,200.888225 Z M638.359181,208.395994 C639.678979,210.116133 641.97126,211.732989 642.170262,213.575191 C643.961283,230.138103 655.251845,240.1566 666.964819,249.746939 C668.493006,250.997608 669.046833,255.84442 672.028112,253.189096 C674.217137,251.237977 675.161459,247.20241 670.685786,245.371476 C658.96718,240.571612 655.987778,229.225453 652.67608,219.120574 C650.269279,211.772425 645.391846,209.511456 638.359181,208.395994 Z M1346.69461,612.362054 C1347.15832,619.929915 1340.10125,623.415263 1338.31211,630.143711 C1336.645,636.434613 1341.08876,638.840179 1344.69333,640.766885 C1348.02192,642.547117 1350.13585,637.871192 1349.19904,636.051526 C1345.67895,629.204771 1345.85167,623.939191 1352.28169,618.83511 C1353.37996,617.963773 1351.00883,613.856847 1346.69461,612.362054 Z M1034.68909,238.428949 C1032.45877,233.963347 1035.97885,225.584241 1029.29726,224.649056 C1023.12443,223.779597 1023.86975,231.925846 1022.75647,236.060941 C1021.30525,241.439193 1026.16579,246.147041 1030.38989,247.065325 C1034.04703,247.859669 1034.84116,242.417569 1034.68909,238.428949 Z M1029.52067,327.431131 C1029.52067,321.859457 1030.20967,319.033246 1029.38737,316.762888 C1027.44429,311.422193 1025.152,305.689022 1017.44536,309.685153 C1016.61744,307.317145 1017.96352,301.593363 1012.77819,305.264621 C1009.68803,307.452352 1012.45341,311.31891 1014.59362,313.544199 C1018.55677,317.677416 1022.95922,321.389987 1029.52067,327.431131 Z M619.536571,273.318105 C621.872031,265.590623 628.009186,261.780402 623.357039,256.204973 C622.835127,255.581516 616.275562,251.380696 612.753597,256.420929 C607.258506,264.276107 616.211731,265.939909 619.536571,273.318105 Z M1068.17404,1014.8521 C1068.94001,1011.06629 1072.26861,1006.49177 1067.18466,1006.3791 C1062.38608,1006.27581 1061.19019,1012.45217 1059.6038,1016.39759 C1058.05684,1020.25664 1060.95176,1022.51198 1064.59763,1022.60399 C1072.57838,1022.80305 1067.64838,1017.00039 1068.17404,1014.8521 Z M683.284882,184.490566 C692.054123,182.214574 702.576838,185.517767 709.089468,175.296459 C706.740866,182.990139 706.969907,192.212414 695.313255,189.412493 C690.484634,188.250084 688.59599,191.264084 689.072844,195.898694 L688.885106,195.571943 C704.031807,201.085402 704.063723,201.102303 694.556671,215.622081 C693.291317,217.550665 693.991579,219.135597 694.949043,220.626635 C696.60677,223.221867 698.200665,222.125184 700.588692,220.957142 C712.476262,215.13571 721.429486,207.937791 716.788603,192.749488 L716.645923,193.003002 C711.995653,177.480435 720.734856,170.115385 735.151256,166.079818 C727.763766,161.798249 719.595286,170.614901 715.119613,162.198237 C710.24218,153.032299 708.210855,160.049941 704.626936,163.120277 C700.592447,166.579334 702.084964,176.207232 694.949043,174.695537 C685.074025,172.599822 686.161028,180.218386 683.446337,184.732813 L683.284882,184.490566 Z M713.379282,114.669063 C708.738398,113.403371 701.820254,108.507735 699.747626,116.280285 C697.588639,124.400244 680.168431,130.743726 695.699995,141.73121 C696.29137,142.148099 696.086735,144.410946 695.596739,145.526408 C690.118545,158.044364 698.765756,154.401275 705.013677,154.012553 C712.853615,153.526182 717.834304,148.161075 723.845674,144.333953 C724.893252,143.671061 730.303861,148.025868 731.41527,143.913308 C732.549208,139.706854 727.960891,135.248764 724.418275,135.233741 C715.282945,135.196183 719.009544,128.664912 717.624037,124.595543 C722.323119,118.612614 718.192884,115.98358 713.379282,114.669063 Z M1198.8378,1042.48324 C1202.51747,1044.30103 1204.8886,1051.09708 1210.32174,1046.61646 C1215.0227,1042.73863 1210.44189,1037.95192 1210.17906,1033.63842 C1209.86178,1028.44232 1206.74721,1026.23206 1201.6182,1029.21789 C1198.66884,1030.93991 1196.12311,1031.17464 1196.07993,1026.91185 C1196.05177,1023.94292 1195.54488,1020.06322 1200.64197,1020.07824 C1205.79913,1020.09514 1210.8643,1019.76276 1212.7811,1013.54134 C1213.3875,1011.55829 1216.06652,1009.70483 1212.88061,1007.71239 C1210.82488,1006.42605 1208.56075,1005.60917 1206.5238,1007.46264 C1197.10686,1016.03704 1187.7744,1024.71097 1178.41754,1033.34547 C1176.93066,1034.71445 1176.114,1036.44961 1177.44694,1038.11905 C1178.08337,1038.91527 1180.33435,1039.60633 1180.8112,1039.17442 C1190.16994,1030.79155 1187.27314,1041.8335 1189.01535,1044.57896 C1190.91338,1047.57981 1188.78819,1053.50453 1196.36342,1052.913 C1195.8002,1048.3704 1195.26891,1044.00245 1194.44098,1037.26649 C1196.81023,1040.15843 1197.55368,1041.85415 1198.8378,1042.48324 Z M569.911788,185.880198 C565.38918,186.464219 558.915974,190.323265 558.427855,196.270515 C558.074908,200.512649 554.950948,207.556581 564.540604,208.690822 C568.041918,209.105833 572.230352,213.447495 568.010002,219.37221 C566.080056,222.080115 569.91742,228.947527 570.797911,227.497802 C575.680976,219.498028 581.927019,221.015356 589.230027,221.133663 C592.417818,221.18061 596.542422,217.038004 591.240701,210.923622 C584.6924,203.367028 576.291125,205.19984 568.687736,203.147316 C566.299709,202.501325 562.708281,204.550093 562.559968,200.229089 C562.486751,198.11835 563.374751,195.378521 564.829721,193.955087 C566.787828,192.039648 569.692135,191.290374 572.029473,194.157899 C573.131495,195.509973 574.334895,196.777543 575.495116,198.084548 C575.962583,192.24246 576.056452,185.085854 569.911788,185.880198 Z M1168.45429,1063.14557 C1160.11497,1076.90293 1152.16426,1090.67155 1168.04126,1105.38851 C1184.48899,1086.49515 1184.52091,1082.21358 1168.45429,1063.14557 Z M533.640809,226.664023 C530.019343,226.177652 526.315272,225.308193 523.968547,228.059289 C527.674495,242.30114 543.290541,241.399757 551.453389,250.137539 C551.82511,250.543161 559.971062,254.445398 562.912916,249.846467 C564.394169,247.531039 570.330444,242.430714 562.926057,240.226081 C557.598053,238.637394 556.655609,233.848797 553.343911,230.898645 C543.534601,222.162742 542.334955,222.309216 538.358664,235.268475 C533.856707,233.946446 533.312267,230.402885 533.408014,226.495014 L533.640809,226.664023 Z M1039.66415,1127.39916 C1044.85323,1135.92286 1063.56132,1143.71982 1064.77411,1138.99319 C1067.19968,1129.53806 1074.34874,1128.57659 1081.00593,1124.76073 C1075.63099,1124.93162 1067.82109,1125.53254 1066.87865,1122.53732 C1060.01307,1100.76517 1057.50301,1124.12601 1052.97477,1123.58142 C1048.93278,1122.75891 1051.65122,1115.26053 1045.89705,1115.85582 C1044.10603,1120.31954 1054.33775,1130.93896 1039.45013,1127.69398 L1039.66415,1127.39916 Z M645.686595,159.895955 C654.127295,161.972892 661.171224,159.34198 665.708851,151.832333 C670.712069,143.548999 659.094842,146.908528 657.741251,140.925599 C655.828201,132.456354 650.520848,136.818672 648.365616,142.335887 C646.90126,146.070993 646.749192,150.324394 645.622764,156.436898 C637.180187,142.747143 630.267674,146.168643 624.051669,156.549571 C630.870313,160.217073 638.558184,158.142014 645.686595,159.895955 Z M1039.44637,1127.69398 C1038.80994,1125.31095 1040.08468,1121.97959 1035.89249,1121.435 C1032.18091,1120.95614 1031.22157,1123.31852 1030.23595,1126.03581 C1027.65455,1133.19617 1029.78726,1140.41851 1029.9243,1147.60328 C1030.18901,1161.12966 1026.05315,1165.21968 1013.1593,1162.76154 C1009.52094,1162.06484 1006.34629,1160.1494 1002.86375,1164.41971 C1008.51091,1167.37549 1012.29007,1169.44116 1020.222,1168.3764 C1033.77293,1166.55298 1035.85495,1166.77457 1036.54958,1151.60129 C1036.91379,1143.594 1035.12652,1134.97828 1039.65852,1127.39352 C1039.66415,1127.39916 1039.45201,1127.69398 1039.44637,1127.69398 Z M850.123878,151.537506 C846.363486,141.674873 851.064445,131.808485 847.379148,121.085783 C856.831756,124.186165 853.589521,132.81503 859.985754,137.274997 C861.286778,129.722159 872.260064,128.364451 868.796298,117.957233 C864.720506,120.210691 861.384402,126.334461 856.953786,119.996612 C854.65775,116.706564 855.052,110.085155 847.610066,114.789247 C841.561148,118.608858 837.295741,123.217178 840.12683,129.932482 C841.902831,134.13518 842.150645,137.721933 841.484175,141.723698 C840.305181,148.855891 844.061818,151.191975 850.341654,151.321549 C850.341654,151.323427 850.123878,151.539383 850.123878,151.537506 Z M1131.4286,1072.17067 C1126.76707,1074.16686 1122.14871,1076.25694 1117.43837,1078.12731 C1114.14169,1079.43431 1111.55466,1081.28403 1112.28871,1085.18438 C1113.20863,1090.08565 1117.58668,1089.13732 1119.95781,1087.90168 C1127.3453,1084.04451 1129.98865,1086.8219 1130.67202,1094.07052 C1131.01558,1097.69671 1131.16577,1102.11161 1136.15397,1102.26935 C1141.78235,1102.44587 1140.77232,1097.82065 1141.03703,1094.24892 C1141.25293,1091.31567 1144.65662,1091.59359 1145.80558,1089.92228 C1149.25432,1084.91021 1148.01338,1079.94134 1141.67159,1081.27651 C1132.44802,1083.22575 1131.48868,1078.60053 1131.19768,1071.92842 L1131.4286,1072.17067 Z M998.682825,162.094954 C997.975053,162.329689 996.283534,161.811394 996.197174,161.405772 C992.566322,144.12363 983.245131,159.869665 976.601083,156.970216 C986.937937,161.152258 987.717049,169.444981 987.820305,179.58554 C993.225282,166.755855 999.614006,168.237504 1007.52528,176.556518 C1007.18548,169.065649 1016.32456,156.252865 998.682825,162.094954 Z M1131.19393,1071.93405 C1138.06889,1078.05031 1145.10344,1072.08992 1152.68054,1071.73124 C1146.83063,1071.51904 1155.61489,1058.40204 1144.48953,1063.37467 C1133.30598,1068.37359 1134.45494,1062.55592 1135.59263,1054.75332 C1136.88615,1045.84841 1135.18524,1037.85239 1120.81014,1033.72293 C1132.15703,1046.6559 1126.09684,1060.48273 1131.4286,1072.17442 L1131.19393,1071.93405 Z M1192.98226,1096.61693 C1200.78277,1096.55871 1195.35526,1091.01145 1195.52423,1087.58432 C1195.92599,1079.64276 1203.03938,1076.8034 1208.14773,1072.56878 C1209.59331,1071.37069 1214.61155,1074.30957 1212.20475,1068.72288 C1210.66154,1065.14739 1207.98252,1063.09111 1204.7309,1065.19622 C1197.01299,1070.1895 1185.51216,1072.68333 1188.8952,1085.44917 C1188.30007,1090.46874 1185.61354,1096.67326 1192.98226,1096.61693 Z M1024.90044,1146.23243 C1017.64248,1139.52463 1031.29291,1131.21689 1022.44295,1126.85645 C1017.36463,1124.35699 1010.47465,1116.26332 1003.01206,1124.21802 C1003.01206,1124.20864 1003.06838,1124.1692 1003.06838,1124.1692 C1006.19234,1134.64214 1009.275,1145.14513 1024.90044,1146.23243 Z M1290.48586,478.356447 C1290.75057,485.499908 1297.3045,478.555503 1300.40593,480.9329 C1303.21449,483.090586 1306.06811,482.540367 1306.17137,478.816528 C1306.34221,472.807308 1304.95295,466.754897 1301.20194,461.973811 C1296.94217,456.541101 1292.16048,461.07994 1287.67542,462.353143 C1284.66223,463.211335 1281.72037,464.338064 1275.9418,466.296694 C1284.94383,467.887259 1290.17046,469.618666 1290.48586,478.356447 Z M655.199279,120.961843 C649.407562,119.346865 642.851751,115.189236 637.985583,116.652106 C628.333973,119.553432 629.860283,109.285177 622.290687,105.110647 C625.955332,111.409061 623.905234,115.814571 625.40526,118.590079 C628.026082,123.444402 620.372005,128.221732 624.776338,130.779406 C631.125637,134.465687 629.283927,125.729784 632.375972,123.921384 C633.299642,123.382432 635.458629,123.207789 635.830351,123.731718 C642.440605,133.057276 648.388145,122.075427 654.688632,124.584276 C654.859473,123.376798 655.028437,122.169321 655.199279,120.961843 Z M1381.11825,453.761837 C1377.28652,466.820623 1383.45747,473.584751 1396.67422,476.683255 C1400.3858,456.83405 1399.0416,454.984337 1381.11825,453.761837 Z M1143.80805,1029.92961 C1143.47387,1036.8834 1150.11416,1032.56427 1153.30759,1034.12855 C1155.27133,1035.09754 1157.89027,1034.97547 1159.56865,1036.21863 C1161.95292,1037.9876 1164.11754,1039.52558 1166.88855,1037.6984 C1170.08949,1035.59142 1167.32598,1032.79901 1167.4743,1030.31645 C1168.02812,1021.16929 1161.47419,1021.71951 1155.54167,1021.32703 C1149.20739,1020.8632 1144.11969,1023.50725 1143.80805,1029.92961 Z M768.294521,137.36138 C763.586052,137.744468 763.131726,139.028939 761.973382,143.490784 C758.948923,155.090457 771.065533,150.829544 773.930415,156.198407 C776.07626,160.22834 778.640761,156.577739 780.21776,154.709247 C787.532032,146.031558 772.20698,149.53944 774.546196,142.604424 C775.903541,138.518155 782.581381,145.466316 784.164013,139.16039 C779.369184,134.272265 773.889113,136.908811 768.294521,137.36138 Z M825.762996,100.164308 C822.558309,99.2741924 814.765305,105.82612 815.084459,110.67481 C815.55005,117.724376 823.986995,118.732798 829.60787,121.046348 C833.035966,122.458514 835.904602,120.35341 835.31886,113.763924 C830.649816,111.375259 831.862603,101.850646 825.762996,100.164308 Z M491.388497,204.621453 C490.455439,209.120856 488.566795,212.778969 493.881657,214.480329 C498.184612,215.856816 501.0739,213.83246 503.516371,209.216628 C506.478876,203.620542 505.183484,197.528695 508.153499,191.065028 C497.446802,190.742033 493.275264,195.509973 491.388497,204.621453 Z M813.383553,132.084534 C809.260827,129.175696 808.262061,125.018067 809.191364,117.551611 C809.694502,113.478486 808.156928,109.302078 803.339571,110.661664 C799.650519,111.702011 796.220546,110.201583 791.994564,111.343335 C800.489708,134.895722 800.972195,135.344536 813.383553,132.084534 Z M1160.55803,988.834054 C1152.18304,983.457679 1149.66172,993.568192 1143.90942,995.273308 C1140.98071,996.139012 1138.21345,1001.37079 1136.68339,994.20855 L1136.92182,994.36817 C1132.3335,995.97188 1129.63383,998.777435 1132.36541,1003.67307 C1135.56072,1009.41 1140.68972,1010.33016 1146.59032,1008.24759 C1151.95963,1004.77727 1148.68172,993.65833 1158.82333,994.400094 C1159.39969,992.544747 1159.98167,990.6894 1160.55803,988.834054 Z M933.145371,136.920078 C937.208021,133.834719 944.1731,137.181103 947.405949,131.083623 C938.826322,127.134439 938.826322,127.134439 937.412655,118.094318 C936.813771,114.254051 935.251791,114.130111 931.889404,115.854006 C921.340406,121.26606 921.272821,121.074516 929.582104,131.436665 C930.995771,133.205629 932.139095,135.190549 933.408204,137.072186 L933.145371,136.920078 Z M1125.77581,237.37358 C1116.03221,245.055992 1116.46776,244.785577 1122.20879,253.910202 C1125.28394,258.798327 1128.89977,259.087521 1132.51373,256.650031 C1137.29166,253.43322 1138.65651,248.158252 1134.76846,243.450404 C1132.56066,240.781934 1128.67824,239.493708 1125.55804,237.582025 L1125.77581,237.37358 Z M1373.67632,578.877553 C1374.17194,577.94049 1373.93727,575.777171 1373.22199,575.208173 C1370.77389,573.2702 1368.11364,570.78764 1364.81321,574.068299 C1362.88326,575.987494 1360.64354,576.376215 1359.04026,573.949993 C1357.34311,571.394196 1359.5434,569.734149 1361.21615,568.213065 C1364.55225,565.176531 1363.32257,561.852681 1360.60787,560.017992 C1356.71607,557.388958 1355.28363,562.524963 1353.06832,564.092994 C1348.25847,567.497593 1351.80296,573.052365 1352.87307,576.671042 C1354.42942,581.951645 1360.68672,579.521666 1364.7888,580.197703 C1367.86958,579.213694 1371.47227,583.082129 1373.67632,578.877553 Z M684.079014,147.640902 C680.055789,147.667192 678.824227,152.175985 679.552651,156.068833 C680.386207,160.541946 678.567026,163.999126 676.225934,167.46945 C674.842305,169.527608 671.648881,171.782943 674.943683,174.304938 C678.03385,176.665435 681.426276,175.005388 683.11404,172.209222 C685.901949,167.59339 688.744303,162.823572 689.123533,156.065077 C687.820632,153.663267 689.902646,147.6071 684.079014,147.640902 Z M945.34834,159.293155 C940.572286,157.803995 938.565367,159.700655 936.522777,162.996337 C935.356924,164.887363 935.045279,169.054382 935.478954,168.806502 C944.691257,163.546556 949.03176,182.347903 960.393663,171.570743 C953.697049,168.815891 952.335948,161.471497 945.34834,159.293155 Z M1106.2642,368.284438 C1107.55584,372.51906 1097.62825,377.283245 1106.03328,380.599583 C1111.86443,382.896232 1113.5597,375.360294 1117.34074,372.562251 C1120.53604,370.197999 1122.02481,367.056303 1119.59172,363.125898 C1117.73312,360.136311 1115.44271,359.89782 1112.90449,362.096819 C1110.53149,364.154977 1108.32181,366.400923 1106.03516,368.562364 C1106.03892,368.55673 1106.26045,368.288193 1106.2642,368.284438 Z M656.263753,102.173641 C655.020928,111.854119 664.674415,112.948924 669.221429,118.053005 C670.379773,119.352499 673.208984,117.810758 673.586337,116.079352 C675.148318,108.883311 669.046833,106.199819 664.937248,102.417766 C663.033585,100.673214 662.380257,97.2986614 658.02849,97.7042837 C657.506579,98.9718536 656.472142,100.519228 656.263753,102.173641 Z M728.351386,92.2997415 C723.980846,95.501529 713.933109,86.9177338 714.240999,98.996266 C714.327358,102.468468 714.864289,107.636398 719.34935,107.356593 C726.37075,106.920925 728.024722,99.092038 732.772616,96.0123127 C732.524802,92.2302599 730.638035,90.6246714 728.351386,92.2997415 Z M1087.31205,343.871981 C1082.46841,346.10666 1084.06606,348.639922 1084.19185,351.116847 C1084.39836,355.137391 1087.98415,355.387149 1090.11498,353.57875 C1094.64134,349.725337 1100.88739,352.568449 1106.21539,348.73945 C1100.77099,339.796979 1095.26088,340.202601 1087.31205,343.871981 Z M272.698146,408.3265 C264.878859,409.564023 263.778714,417.007945 260.812454,422.183385 C257.420029,428.113734 262.522747,428.650808 266.878269,428.690244 C273.978519,425.696901 270.561688,418.420111 272.977876,413.50194 C272.885884,411.778045 272.78826,410.052273 272.698146,408.3265 Z M1000.16032,178.073846 C991.744029,185.037029 985.237031,191.628392 976.167408,183.910301 C973.773749,191.9589 978.275706,196.585999 980.506033,201.853456 C982.133722,200.26289 983.808345,198.647913 985.48109,197.034813 C987.266478,189.451928 998.716618,189.677274 1000.16032,178.073846 Z M1101.05823,1148.10655 C1102.86614,1145.24654 1102.8117,1142.38465 1099.07384,1142.08794 C1094.81594,1141.74429 1089.64,1139.78003 1086.51229,1144.42403 C1084.71188,1147.10189 1086.55171,1150.48395 1089.08054,1151.2351 C1095.31157,1153.09608 1094.10254,1158.72973 1095.60819,1163.62912 C1104.40747,1159.40389 1098.20461,1152.60408 1101.05823,1148.10655 Z M1348.93996,774.314289 C1340.8447,775.730211 1342.07063,787.367441 1333.66372,788.988053 C1333.99414,790.23121 1334.2626,791.495024 1334.70191,792.69499 C1334.81831,793.019864 1335.43972,793.239576 1335.86401,793.356004 C1340.32278,794.561604 1353.37996,785.065159 1353.18659,779.752633 C1352.08269,778.269106 1350.12834,774.107722 1348.93996,774.314289 Z M748.794176,116.188269 C751.334271,115.835227 754.195398,116.505631 756.679171,117.371334 C759.176086,118.238915 759.390108,124.069737 763.80946,120.85856 C764.581063,120.297073 765.022247,118.081173 764.549148,117.221104 C762.79192,114.053118 760.161711,109.780938 756.639746,110.909545 C748.895554,113.38647 746.394884,107.232653 740.372249,101.860035 C738.896629,111.133013 737.334649,117.786346 748.794176,116.188269 Z M1305.02241,489.520451 C1302.18757,489.039714 1299.14433,492.143852 1300.74386,494.859268 C1303.19009,498.994362 1305.15758,504.75758 1310.30536,505.743468 C1314.47126,506.543445 1316.13462,502.233707 1316.94565,497.2592 C1313.95311,493.895915 1310.1195,490.38991 1305.02241,489.520451 Z M585.111056,50.2746369 C584.602286,54.96934 588.469688,57.1251477 592.07989,57.1495602 C598.01241,57.1889957 598.697654,51.5140385 599.73209,47.3507758 C600.623846,43.7846793 598.44984,41.2777078 594.347765,41.1819359 C589.885233,42.8476165 585.67427,45.0278367 585.111056,50.2746369 Z M1051.91969,215.993902 C1049.98974,210.01285 1046.85076,204.940693 1039.04086,208.273932 C1037.62907,215.931932 1042.55907,220.617245 1047.10984,225.47908 C1054.98169,225.529783 1053.2714,220.192844 1051.91969,215.993902 Z M1125.55804,237.580147 C1125.7101,235.747335 1125.7101,233.895744 1126.03489,232.092978 C1127.15756,225.837755 1123.13809,223.80401 1118.25315,223.032201 C1112.7712,222.16462 1110.59344,226.594541 1110.15226,230.528703 C1109.45763,236.7351 1115.67175,235.052519 1118.99284,236.45154 C1121.02416,237.307854 1123.50043,237.101287 1125.77581,237.369824 L1125.55804,237.580147 Z M1040.03212,154.778729 C1037.47888,156.232209 1040.63851,161.492154 1042.1498,160.902499 C1047.72374,158.722279 1056.17946,155.978695 1057.17635,151.894303 C1058.68389,145.691661 1049.99349,150.110316 1046.81134,147.423068 C1037.42444,142.959344 1043.36634,152.880191 1040.03212,154.778729 Z M747.817938,74.7941324 C742.553765,75.6936375 739.799649,78.9254712 739.640071,84.3037231 C739.549957,87.2670197 740.054972,90.4068372 743.63889,90.2791412 C750.050143,90.0481618 750.99822,84.3938614 752.8756,80.1592392 C752.432538,76.8278778 751.640284,74.1406298 747.817938,74.7941324 Z M933.413836,137.075942 C932.45825,138.054318 931.412549,138.94819 930.554587,140.005437 C927.819244,143.381867 923.061964,146.452203 928.570196,151.291503 C931.311171,153.700825 934.200458,156.938292 938.073493,154.328037 C944.621794,149.918772 934.910108,147.055003 936.455192,142.578134 C936.913272,141.229815 934.331875,138.835517 933.143494,136.920078 C933.145371,136.920078 933.404449,137.068431 933.413836,137.075942 Z M1142.10151,208.613828 C1141.08209,206.743459 1141.16282,203.323837 1137.99568,204.621453 C1135.66209,205.573539 1133.2628,207.684277 1132.13637,209.905811 C1131.00244,212.159268 1133.13702,214.523521 1135.43305,214.88783 C1146.09094,216.577923 1140.4757,223.411533 1138.84801,230.526825 C1147.86131,222.707327 1146.02899,215.821137 1142.10151,208.613828 Z M1333.86272,534.668472 C1332.6274,540.104939 1335.85838,542.307693 1340.53681,542.508627 C1344.64076,542.68327 1348.1646,539.594155 1348.40491,536.31913 C1348.77099,531.216927 1344.87731,528.396349 1339.33904,528.028284 C1333.50226,526.563537 1334.578,531.532411 1333.86272,534.668472 Z M1400.37829,539.750019 C1402.64992,540.987543 1405.03231,540.904916 1406.02169,538.11814 C1407.12559,535.017758 1405.74196,531.583114 1402.58233,532.229105 C1392.74674,534.238438 1385.88116,525.641497 1374.33903,524.890345 C1382.46245,534.814947 1392.40506,535.404602 1400.37829,539.750019 Z M972.029663,120.283928 C976.321354,119.799435 976.976559,114.208982 977.552915,110.192194 C977.945287,107.527481 982.616208,103.972651 977.537896,102.152984 C973.580379,100.733306 971.111624,105.150083 971.764953,107.925591 C974.33884,118.877395 965.717912,110.391249 963.534519,112.824984 C963.970071,118.240793 969.074667,120.616313 972.029663,120.283928 Z M771.037373,81.5526271 C766.049174,81.1995854 763.216208,84.5196794 762.604182,88.9289446 C762.153611,92.1833128 764.070416,95.9146629 767.492879,96.2583151 C773.03866,96.8160459 773.620647,91.9166537 774.469223,88.2284949 C774.643819,85.0229516 774.842822,81.8267977 771.037373,81.5526271 Z M809.809022,83.3497594 C809.534924,79.8249763 808.130644,75.7255615 802.986623,77.3424173 C798.458383,78.7602176 800.403349,81.3254034 801.460314,84.6361081 C803.052332,89.6256386 803.487884,94.9137522 809.086231,99.3211395 C809.437301,93.0527718 810.184498,88.1571354 809.809022,83.3497594 Z M1033.91186,129.977551 C1029.96185,130.135293 1025.1689,129.551272 1023.89228,134.632819 C1023.46049,136.373614 1025.25714,138.884342 1026.50747,140.722787 C1026.93739,141.353756 1028.79788,141.015737 1029.99752,141.120898 C1030.8048,127.750384 1036.34682,137.286265 1040.5484,138.75289 C1042.58911,139.462729 1043.71178,137.697521 1043.54282,136.135124 C1042.40888,129.990696 1038.14911,129.808542 1033.91186,129.977551 Z M1055.81337,91.5748793 C1052.91845,89.4021707 1048.62864,88.9289446 1046.98218,91.2612731 C1042.68673,97.3587536 1051.34709,97.4507697 1052.69504,101.253479 C1053.23385,102.768929 1054.70009,103.95575 1055.95605,105.56885 C1061.51685,100.201866 1061.40233,95.7644324 1055.81337,91.5748793 Z M854.761006,66.1709017 C856.005709,65.0084932 861.799303,66.6629066 857.560179,62.0489524 C856.047011,60.4058063 854.920583,56.7702282 851.209003,59.9663821 C846.868501,63.7071215 842.053021,66.8995196 835.412729,71.8421031 C844.983611,74.089927 850.04315,70.5876784 854.761006,66.1709017 Z M986.712651,1165.98398 C982.481037,1165.75676 978.868958,1165.89197 979.026658,1170.64864 C979.323284,1179.5066 987.897278,1173.34903 991.760926,1177.09728 C989.913584,1173.20631 996.35112,1166.49852 986.712651,1165.98398 Z M1168.0469,1125.83676 C1167.84977,1128.2104 1169.4662,1130.3925 1171.86549,1130.8507 C1181.17541,1132.61779 1176.88185,1121.45003 1182.27744,1118.94869 C1177.59713,1121.88006 1168.83164,1116.61636 1168.0469,1125.83676 Z M784.680292,15.1845478 C783.328579,17.6595953 785.350517,20.2942627 787.665326,19.9074192 C796.663608,18.4163814 793.612866,9.01195213 797.34322,3.90035936 C798.182408,2.75297392 797.29253,0.338018626 794.061559,0 C791.04461,4.82052118 787.592108,9.85512082 784.680292,15.1845478 Z M634.972388,85.3816269 C632.638805,85.4022836 629.114963,86.9365126 630.162541,88.6435067 C632.882864,93.0790622 641.689653,91.9128979 641.139581,99.9708864 C643.961283,98.8479134 645.720388,97.0489032 645.237901,93.5391431 C644.408099,87.6951766 640.625179,85.3290463 634.972388,85.3816269 Z M605.75848,207.269265 C606.257863,208.478621 606.462497,210.442885 607.307318,210.769636 C614.993311,213.747956 615.830623,205.706868 619.821932,202.685357 C620.892039,201.877868 621.659887,200.670391 623.383322,198.728661 C612.657851,193.75791 612.323677,206.227041 605.75848,207.269265 Z M1066.29666,225.272513 C1072.26861,219.62948 1077.78435,213.854995 1078.24431,202.176451 C1064.15269,216.542243 1064.15269,216.542243 1066.29666,225.272513 Z M1087.84523,269.885338 C1078.86572,278.673822 1078.86572,278.673822 1074.27177,273.415755 C1066.63647,276.262623 1066.7247,282.596716 1067.19217,289.101697 C1073.85875,282.955391 1086.51229,283.253975 1087.84523,269.885338 Z M900.963325,129.710892 C904.543488,129.812297 904.077898,127.205798 903.81882,124.834034 C902.654844,114.250295 894.383108,124.216211 890.784171,118.227648 C890.725972,127.258379 894.974483,129.538127 900.963325,129.710892 Z M533.396749,226.491258 C534.853596,225.435889 536.607069,224.61901 537.714723,223.274447 C539.928154,220.57781 543.281154,217.347854 539.533904,214.037149 C536.509445,211.361169 532.212123,209.997827 528.476137,213.406181 C523.700082,217.770377 529.981795,219.148742 531.063166,221.928006 C531.714617,223.586176 532.767827,225.092236 533.640809,226.662145 C533.640809,226.664023 533.406136,226.495014 533.396749,226.491258 Z M1114.44582,407.098365 C1126.57745,407.520889 1126.57745,407.520889 1117.84951,387.538354 C1113.34756,393.752263 1114.79689,400.672256 1114.7049,407.3331 L1114.44582,407.098365 Z M797.506552,215.182657 C796.134187,221.68576 790.10592,228.590729 799.002823,234.479765 C802.158699,230.941836 798.409571,222.014389 806.544258,223.571153 C817.45559,225.659357 804.691284,235.080687 811.20016,239.750977 C817.127049,232.344614 819.56952,226.879979 812.981794,216.559144 C806.136867,205.827053 802.130538,217.332831 797.271879,215.424904 C797.271879,215.426782 797.500919,215.184535 797.506552,215.182657 Z" id="Shape"></path>
            </g>
        </g>
    </g>
</svg>