<?xml version="1.0" encoding="UTF-8"?>
<svg width="62px" height="58px" viewBox="0 0 62 58" version="1.1" xmlns="http://www.w3.org/2000/svg" xmlns:xlink="http://www.w3.org/1999/xlink">
    <!-- Generator: Sketch 43.1 (39012) - http://www.bohemiancoding.com/sketch -->
    <title>imgly_sticker_emoticons_blush</title>
    <desc>Created with Sketch.</desc>
    <defs></defs>
    <g id="Page-1" stroke="none" stroke-width="1" fill="none" fill-rule="evenodd">
        <g id="blush" fill-rule="nonzero">
            <path d="M61.3,34.5 C61.3,47.5 49.4,58 31,58 C12.6,58 0.7,47.5 0.7,34.5 C0.7,21.5 12.6,2 31,2 C49.4,2 61.3,21.5 61.3,34.5 Z" id="Shape" fill="#F7910B"></path>
            <path d="M61.3,34.5 C61.3,47.5 49.4,54 31,54 C12.6,54 0.7,47.5 0.7,34.5 C0.7,21.5 12.6,0 31,0 C49.4,0 61.3,21.5 61.3,34.5 Z" id="Shape" fill="#F7910B"></path>
            <path d="M31,0 C49.4,0 61.3,21.5 61.3,34.5 C61.3,47.5 49.4,54 31,54" id="Shape" fill="#F9A908"></path>
            <path d="M61.3,34.5 C61.3,47.5 49.4,54 31,54 C12.6,54 0.7,47.5 0.7,34.5 C0.7,21.5 12.6,2 31,2 C49.4,2 61.3,21.5 61.3,34.5 Z" id="Shape" fill="#F9A908"></path>
            <path d="M0.7,34.5 C0.7,21.5 12.6,2 31,2" id="Shape" fill="#F9C55D"></path>
            <path d="M31,2 C49.4,2 61.3,21.5 61.3,34.5 C61.3,47.5 49.4,58 31,58" id="Shape" fill="#F7910B"></path>
            <path d="M31,2 C49.4,2 61.3,21.5 61.3,34.5" id="Shape" fill="#EA7103"></path>
            <g id="Group" transform="translate(9.000000, 26.000000)">
                <g transform="translate(8.000000, 1.000000)" id="Oval" fill="#EA7103">
                    <circle cx="3.6" cy="3.8" r="3.2"></circle>
                    <circle cx="24.4" cy="3.8" r="3.2"></circle>
                </g>
                <circle id="Oval" fill="#1E4784" cx="11.6" cy="3.9" r="3.2"></circle>
                <path d="M11.6,0.7 C13.4,0.7 14.8,2.1 14.8,3.9 C14.8,5.7 13.4,7.1 11.6,7.1" id="Shape" fill="#00233F"></path>
                <circle id="Oval" fill="#1E4784" cx="32.4" cy="3.9" r="3.2"></circle>
                <path d="M32.4,0.7 C34.2,0.7 35.6,2.1 35.6,3.9 C35.6,5.7 34.2,7.1 32.4,7.1" id="Shape" fill="#00233F"></path>
                <g transform="translate(0.000000, 8.000000)" id="Shape" fill="#FF4200">
                    <path d="M17.4,2.9 C17.4,4.2 13.6,4.7 8.8,4.7 C4.1,4.7 0.2,4.2 0.2,2.9 C0.2,1.6 4,0.5 8.8,0.5 C13.6,0.5 17.4,1.6 17.4,2.9 Z"></path>
                    <path d="M43.8,2.9 C43.8,4.2 40,4.7 35.2,4.7 C30.4,4.7 26.6,4.2 26.6,2.9 C26.6,1.6 30.4,0.5 35.2,0.5 C40,0.5 43.8,1.6 43.8,2.9 Z"></path>
                </g>
            </g>
            <g id="Group" transform="translate(18.000000, 11.000000)" fill="#19BCA4">
                <path d="M6.7,2 C6.7,2.9 5.3,2.5 3.4,2.6 C1.6,2.7 0.1,3.2 0.1,2.3 C0.1,1.4 1.5,0.7 3.3,0.6 C5.2,0.5 6.7,1.1 6.7,2 Z" id="Shape"></path>
                <path d="M19.3,2 C19.3,2.9 20.7,2.5 22.6,2.6 C24.4,2.7 25.9,3.2 25.9,2.3 C25.9,1.4 24.5,0.7 22.7,0.6 C20.8,0.5 19.3,1.1 19.3,2 Z" id="Shape"></path>
            </g>
            <g id="Group" transform="translate(18.000000, 13.000000)" fill="#109DA0">
                <path d="M6.7,0 C6.7,0.9 5.3,0.5 3.4,0.6 C1.6,0.7 0.1,1.2 0.1,0.3" id="Shape"></path>
                <path d="M19.3,0 C19.3,0.9 20.7,0.5 22.6,0.6 C24.4,0.7 25.9,1.2 25.9,0.3" id="Shape"></path>
            </g>
            <circle id="Oval" fill="#F7910B" cx="9.3" cy="31.5" r="1"></circle>
            <circle id="Oval" fill="#F7910B" cx="4.8" cy="33.5" r="1.1"></circle>
            <circle id="Oval" fill="#F7910B" cx="7.8" cy="29.5" r="1"></circle>
            <circle id="Oval" fill="#F7910B" cx="12.4" cy="31.3" r="1"></circle>
            <circle id="Oval" fill="#F9A908" cx="51.6" cy="31.8" r="1"></circle>
            <circle id="Oval" fill="#F9A908" cx="54.1" cy="33.2" r="1"></circle>
            <circle id="Oval" fill="#F9A908" cx="48.8" cy="24.4" r="1"></circle>
            <circle id="Oval" fill="#F9A908" cx="43.9" cy="23.3" r="1.3"></circle>
            <circle id="Oval" fill="#F9A908" cx="55.5" cy="36.1" r="1"></circle>
            <circle id="Oval" fill="#F7910B" cx="8.3" cy="35.5" r="1"></circle>
            <circle id="Oval" fill="#F7910B" cx="9.1" cy="27.1" r="1"></circle>
            <circle id="Oval" fill="#F9A908" cx="3.8" cy="13.3" r="1.1"></circle>
            <circle id="Oval" fill="#F9A908" cx="7" cy="9.8" r="1"></circle>
            <circle id="Oval" fill="#F9A908" cx="58.2" cy="15.7" r="1"></circle>
            <circle id="Oval" fill="#F9A908" cx="57.4" cy="12.8" r="1"></circle>
            <circle id="Oval" fill="#F9A908" cx="60" cy="13.3" r="1"></circle>
            <circle id="Oval" fill="#F9A908" cx="5" cy="16.3" r="1"></circle>
            <path d="M38.4,43.7 C38.4,46.3 35.1,51.8 31,51.8 C26.9,51.8 23.6,46.3 23.6,43.7" id="Shape" fill="#F7910B"></path>
            <path d="M31,45.2 C27.5,45.2 24.5,44.4 23.1,43 C22.7,42.6 22.7,41.9 23.1,41.4 C23.5,41 24.2,41 24.7,41.4 C25.7,42.4 28.2,43 31,43 C33.8,43 36.4,42.4 37.3,41.4 C37.7,41 38.4,41 38.9,41.4 C39.3,41.8 39.3,42.5 38.9,43 C37.5,44.4 34.5,45.2 31,45.2 Z" id="Shape" fill="#02243E"></path>
        </g>
    </g>
</svg>