<?xml version="1.0" encoding="UTF-8"?>
<svg width="62px" height="59px" viewBox="0 0 62 59" version="1.1" xmlns="http://www.w3.org/2000/svg" xmlns:xlink="http://www.w3.org/1999/xlink">
    <!-- Generator: Sketch 43.1 (39012) - http://www.bohemiancoding.com/sketch -->
    <title>imgly_sticker_emoticons_sobbing</title>
    <desc>Created with Sketch.</desc>
    <defs></defs>
    <g id="Page-1" stroke="none" stroke-width="1" fill="none" fill-rule="evenodd">
        <g id="sobbing" fill-rule="nonzero">
            <path d="M61.3,34.5 C61.3,47.5 49.4,58 31,58 C12.6,58 0.7,47.5 0.7,34.5 C0.7,21.5 12.6,2 31,2 C49.4,2 61.3,21.5 61.3,34.5 Z" id="Shape" fill="#F7910B"></path>
            <path d="M61.3,34.5 C61.3,47.5 49.4,54 31,54 C12.6,54 0.7,47.5 0.7,34.5 C0.7,21.5 12.6,0 31,0 C49.4,0 61.3,21.5 61.3,34.5 Z" id="Shape" fill="#F7910B"></path>
            <path d="M31,0 C49.4,0 61.3,21.5 61.3,34.5 C61.3,47.5 49.4,54 31,54" id="Shape" fill="#F9A908"></path>
            <path d="M61.3,34.5 C61.3,47.5 49.4,54 31,54 C12.6,54 0.7,47.5 0.7,34.5 C0.7,21.5 12.6,2 31,2 C49.4,2 61.3,21.5 61.3,34.5 Z" id="Shape" fill="#F9A908"></path>
            <path d="M0.7,34.5 C0.7,21.5 12.6,2 31,2" id="Shape" fill="#F9C55D"></path>
            <path d="M31,2 C49.4,2 61.3,21.5 61.3,34.5 C61.3,47.5 49.4,58 31,58" id="Shape" fill="#F7910B"></path>
            <path d="M31,2 C49.4,2 61.3,21.5 61.3,34.5" id="Shape" fill="#EA7103"></path>
            <g id="Group" transform="translate(18.000000, 10.000000)">
                <g id="Shape">
                    <path d="M7.2,2.7 C7.4,4 5.9,3.6 4.1,3.9 C2.3,4.2 1,5.1 0.8,3.8 C0.6,2.5 1.9,1.2 3.7,1 C5.4,0.6 7,1.5 7.2,2.7 Z" fill="#19BCA4"></path>
                    <path d="M7.2,2.7 C7.4,4 5.9,3.6 4.1,3.9 C2.3,4.2 1,5.1 0.8,3.8" fill="#109DA0"></path>
                </g>
                <g transform="translate(18.000000, 0.000000)" id="Shape">
                    <path d="M0.8,2.7 C0.6,4 2.1,3.6 3.9,3.9 C5.7,4.2 7,5.1 7.2,3.8 C7.4,2.5 6.1,1.2 4.3,1 C2.6,0.6 1,1.5 0.8,2.7 Z" fill="#19BCA4"></path>
                    <path d="M0.8,2.7 C0.6,4 2.1,3.6 3.9,3.9 C5.7,4.2 7,5.1 7.2,3.8" fill="#109DA0"></path>
                </g>
            </g>
            <g id="Group" transform="translate(11.000000, 25.000000)">
                <path d="M15.8,2.8 C15.8,4 12.3,3.5 8,3.5 C3.7,3.5 0.2,4.1 0.2,2.8 C0.2,1.5 3.7,0.6 8,0.6 C12.3,0.6 15.8,1.6 15.8,2.8 Z" id="Shape" fill="#F9C55D"></path>
                <path d="M39.8,2.8 C39.8,4 36.3,3.5 32,3.5 C27.7,3.5 24.2,4.1 24.2,2.8 C24.2,1.5 27.7,0.6 32,0.6 C36.3,0.6 39.8,1.6 39.8,2.8 Z" id="Shape" fill="#F9A908"></path>
            </g>
            <ellipse id="Oval" fill="#F7910B" cx="9.3" cy="31.5" rx="1" ry="1"></ellipse>
            <ellipse id="Oval" fill="#F7910B" cx="4.8" cy="33.5" rx="1.1" ry="1.1"></ellipse>
            <ellipse id="Oval" fill="#F7910B" cx="7.8" cy="29.5" rx="1" ry="1"></ellipse>
            <circle id="Oval" fill="#F7910B" cx="12.4" cy="31.3" r="1"></circle>
            <circle id="Oval" fill="#F9A908" cx="51.6" cy="31.8" r="1"></circle>
            <circle id="Oval" fill="#F9A908" cx="54.1" cy="33.2" r="1"></circle>
            <circle id="Oval" fill="#F9A908" cx="48.8" cy="24.4" r="1"></circle>
            <circle id="Oval" fill="#F9A908" cx="48.3" cy="36" r="1.3"></circle>
            <circle id="Oval" fill="#F9A908" cx="55.5" cy="36.1" r="1"></circle>
            <ellipse id="Oval" fill="#F7910B" cx="8.3" cy="35.5" rx="1" ry="1"></ellipse>
            <circle id="Oval" fill="#F7910B" cx="9.1" cy="27.1" r="1"></circle>
            <ellipse id="Oval" fill="#F9A908" cx="3.8" cy="13.3" rx="1.1" ry="1.1"></ellipse>
            <ellipse id="Oval" fill="#F9A908" cx="7" cy="9.8" rx="1" ry="1"></ellipse>
            <circle id="Oval" fill="#F9A908" cx="58.2" cy="15.7" r="1"></circle>
            <ellipse id="Oval" fill="#F9A908" cx="57.4" cy="12.8" rx="1" ry="1"></ellipse>
            <path d="M60.5,13.3 C60.5,13.6 60.3,13.8 60,13.8 C59.7,13.8 59.5,13.6 59.5,13.3 C59.5,13 59.7,12.8 60,12.8 C60.2,12.8 60.5,13.1 60.5,13.3 Z" id="Shape" fill="#F9A908"></path>
            <ellipse id="Oval" fill="#F9A908" cx="5" cy="16.3" rx="1" ry="1"></ellipse>
            <g id="Group" transform="translate(15.000000, 21.000000)">
                <g id="Shape">
                    <path d="M8,36 C8,38.3 6.3,36.1 4,36.1 L4,36.1 C1.7,36.1 0,36.3 0,34 L0,4.1 C0,1.8 1.7,0 4,0 L4,0 C6.3,0 8,1.8 8,4.1 L8,36 Z" fill="#98DDED"></path>
                    <path d="M4,0 L4,0 C6.3,0 8,1.8 8,4.1 L8,36 C8,38.3 6.2,36.1 3.9,36.1 L3.9,36.1" fill="#78C7DD"></path>
                </g>
                <g transform="translate(24.000000, 0.000000)" id="Shape">
                    <path d="M0,36 C0,38.3 1.7,36.1 4,36.1 L4,36.1 C6.3,36.1 8,36.3 8,34 L8,4.1 C8,1.8 6.3,0 4,0 L4,0 C1.7,0 0,1.8 0,4.1 L0,36 Z" fill="#78C7DD"></path>
                    <path d="M4,0 L4,0 C1.7,0 0,1.8 0,4.1 L0,36 C0,38.3 1.8,36.1 4.1,36.1 L4.1,36.1" fill="#98DDED"></path>
                </g>
            </g>
            <g id="Group" transform="translate(24.000000, 31.000000)">
                <path d="M13.2,11.1 C13.2,17.2 10.4,15.2 7,15.2 C3.5,15.2 0.8,17.2 0.8,11.1 C0.8,5 3.6,0 7,0 C10.5,0 13.2,4.9 13.2,11.1 Z" id="Shape" fill="#99144A"></path>
                <path d="M13.2,11.1 C13.2,17.2 10.4,15.2 7,15.2 C3.5,15.2 0.8,17.2 0.8,11.1" id="Shape" fill="#6D0C38"></path>
            </g>
            <path d="M31,36.5 C32.9,36.5 34.7,36.2 36.2,35.8 C35,32.9 33.1,31 31,31 C28.9,31 27,32.9 25.8,35.8 C27.3,36.2 29.1,36.5 31,36.5 Z" id="Shape" fill="#EADAEA"></path>
            <g id="Group" transform="translate(14.000000, 20.000000)">
                <g id="Shape">
                    <path d="M8.9,6.3 C8.5,6.2 8.1,6 7.8,5.6 C6.7,4 4.4,3.6 2.8,4.7 C2,5.2 1,5 0.5,4.3 C1.74860126e-15,3.5 0.2,2.5 0.9,2 C4,-0.2 8.3,0.6 10.5,3.8 C11,4.5 10.8,5.6 10.1,6.1 C9.7,6.3 9.3,6.4 8.9,6.3 Z" fill="#1E4784"></path>
                    <path d="M10.5,3.7 C11,4.4 10.8,5.5 10.1,6 C9.7,6.3 9.3,6.3 8.9,6.3 C8.5,6.2 8.1,6 7.8,5.6 C6.7,4 4.4,3.6 2.8,4.7 C2,5.2 1,5 0.5,4.3 C1.74860126e-15,3.5 0.2,2.5 0.9,2" fill="#02243E"></path>
                </g>
                <g transform="translate(23.000000, 0.000000)" id="Shape">
                    <path d="M2.1,6.3 C2.5,6.2 2.9,6 3.2,5.6 C4.3,4 6.6,3.6 8.2,4.7 C9,5.2 10,5 10.5,4.3 C11,3.5 10.8,2.5 10.1,2 C7,-0.2 2.7,0.6 0.5,3.8 C9.71445147e-16,4.5 0.2,5.6 0.9,6.1 C1.3,6.3 1.7,6.4 2.1,6.3 Z" fill="#1E4784"></path>
                    <path d="M0.5,3.7 C9.71445147e-16,4.4 0.2,5.5 0.9,6 C1.3,6.3 1.7,6.3 2.1,6.3 C2.5,6.2 2.9,6 3.2,5.6 C4.3,4 6.6,3.6 8.2,4.7 C9,5.2 10,5 10.5,4.3 C11,3.5 10.8,2.5 10.1,2" fill="#02243E"></path>
                </g>
            </g>
        </g>
    </g>
</svg>