<?xml version="1.0" encoding="UTF-8"?>
<svg width="62px" height="58px" viewBox="0 0 62 58" version="1.1" xmlns="http://www.w3.org/2000/svg" xmlns:xlink="http://www.w3.org/1999/xlink">
    <!-- Generator: Sketch 43.1 (39012) - http://www.bohemiancoding.com/sketch -->
    <title>imgly_sticker_emoticons_steaming_furious</title>
    <desc>Created with Sketch.</desc>
    <defs></defs>
    <g id="Page-1" stroke="none" stroke-width="1" fill="none" fill-rule="evenodd">
        <g id="steaming_furious" fill-rule="nonzero">
            <ellipse id="Oval" fill="#FFFEFA" cx="19.7" cy="42.8" rx="5.1" ry="5.1"></ellipse>
            <g id="Group">
                <g>
                    <path d="M61.3,34.5 C61.3,47.5 49.4,58 31,58 C12.6,58 0.7,47.5 0.7,34.5 C0.7,21.5 12.6,2 31,2 C49.4,2 61.3,21.5 61.3,34.5 Z" id="Shape" fill="#F7910B"></path>
                    <path d="M61.3,34.5 C61.3,47.5 49.4,54 31,54 C12.6,54 0.7,47.5 0.7,34.5 C0.7,21.5 12.6,0 31,0 C49.4,0 61.3,21.5 61.3,34.5 Z" id="Shape" fill="#F7910B"></path>
                    <path d="M31,0 C49.4,0 61.3,21.5 61.3,34.5 C61.3,47.5 49.4,54 31,54" id="Shape" fill="#F9A908"></path>
                    <path d="M61.3,34.5 C61.3,47.5 49.4,54 31,54 C12.6,54 0.7,47.5 0.7,34.5 C0.7,21.5 12.6,2 31,2 C49.4,2 61.3,21.5 61.3,34.5 Z" id="Shape" fill="#F9A908"></path>
                    <path d="M0.7,34.5 C0.7,21.5 12.6,2 31,2" id="Shape" fill="#F9C55D"></path>
                    <path d="M31,2 C49.4,2 61.3,21.5 61.3,34.5 C61.3,47.5 49.4,58 31,58" id="Shape" fill="#F7910B"></path>
                    <path d="M31,2 C49.4,2 61.3,21.5 61.3,34.5" id="Shape" fill="#EA7103"></path>
                    <g transform="translate(20.000000, 9.000000)" id="Shape">
                        <g>
                            <path d="M6.2,6 C5.4,7 4.5,5.4 2.8,4 C1.2,2.6 -0.6,2 0.2,1 C1,5.55111512e-16 3,0.3 4.7,1.7 C6.4,3.1 7,5 6.2,6 Z" fill="#19BCA4"></path>
                            <path d="M6.2,6 C5.4,7 4.5,5.4 2.8,4 C1.2,2.6 -0.6,2 0.2,1" fill="#109DA0"></path>
                        </g>
                        <g transform="translate(15.000000, 0.000000)">
                            <path d="M0.8,6 C1.6,7 2.5,5.4 4.2,4 C5.8,2.6 7.6,2 6.8,1 C6,5.55111512e-16 4,0.3 2.3,1.7 C0.6,3.1 1.60982339e-15,5 0.8,6 Z" fill="#19BCA4"></path>
                            <path d="M0.8,6 C1.6,7 2.5,5.4 4.2,4 C5.8,2.6 7.6,2 6.8,1" fill="#109DA0"></path>
                        </g>
                    </g>
                    <g transform="translate(11.000000, 25.000000)" id="Shape">
                        <path d="M15.8,2.8 C15.8,4 12.3,3.5 8,3.5 C3.7,3.5 0.2,4.1 0.2,2.8 C0.2,1.6 3.7,0.6 8,0.6 C12.3,0.6 15.8,1.6 15.8,2.8 Z" fill="#F9C55D"></path>
                        <path d="M39.8,2.8 C39.8,4 36.3,3.5 32,3.5 C27.7,3.5 24.2,4.1 24.2,2.8 C24.2,1.6 27.7,0.6 32,0.6 C36.3,0.6 39.8,1.6 39.8,2.8 Z" fill="#F9A908"></path>
                    </g>
                    <ellipse id="Oval" fill="#F7910B" cx="9.3" cy="31.5" rx="1" ry="1"></ellipse>
                    <ellipse id="Oval" fill="#F7910B" cx="4.8" cy="33.5" rx="1.1" ry="1.1"></ellipse>
                    <ellipse id="Oval" fill="#F7910B" cx="7.8" cy="29.5" rx="1" ry="1"></ellipse>
                    <circle id="Oval" fill="#F7910B" cx="12.4" cy="31.3" r="1"></circle>
                    <circle id="Oval" fill="#F9A908" cx="51.6" cy="31.8" r="1"></circle>
                    <circle id="Oval" fill="#F9A908" cx="54.1" cy="33.2" r="1"></circle>
                    <circle id="Oval" fill="#F9A908" cx="48.8" cy="24.4" r="1"></circle>
                    <circle id="Oval" fill="#F9A908" cx="48.3" cy="36" r="1.3"></circle>
                    <circle id="Oval" fill="#F9A908" cx="55.5" cy="36.1" r="1"></circle>
                    <ellipse id="Oval" fill="#F7910B" cx="8.3" cy="35.5" rx="1" ry="1"></ellipse>
                    <circle id="Oval" fill="#F7910B" cx="9.1" cy="27.1" r="1"></circle>
                    <ellipse id="Oval" fill="#F9A908" cx="3.8" cy="13.3" rx="1.1" ry="1.1"></ellipse>
                    <ellipse id="Oval" fill="#F9A908" cx="7" cy="9.8" rx="1" ry="1"></ellipse>
                    <circle id="Oval" fill="#F9A908" cx="58.2" cy="15.7" r="1"></circle>
                    <ellipse id="Oval" fill="#F9A908" cx="57.4" cy="12.8" rx="1" ry="1"></ellipse>
                    <path d="M60.5,13.3 C60.5,13.6 60.3,13.8 60,13.8 C59.7,13.8 59.5,13.6 59.5,13.3 C59.5,13 59.7,12.8 60,12.8 C60.2,12.8 60.5,13.1 60.5,13.3 Z" id="Shape" fill="#F9A908"></path>
                    <ellipse id="Oval" fill="#F9A908" cx="5" cy="16.3" rx="1" ry="1"></ellipse>
                    <g transform="translate(14.000000, 18.000000)" id="Shape">
                        <g>
                            <path d="M3.2,0.4 C3.6,0.5 3.9,0.8 4.1,1.2 C5,3 7.1,3.7 8.9,2.9 C9.7,2.5 10.7,2.9 11.1,3.7 C11.5,4.5 11.1,5.5 10.3,5.9 C6.9,7.5 2.7,6.1 1.1,2.7 C0.7,1.9 1.1,0.9 1.9,0.5 C2.4,0.3 2.8,0.3 3.2,0.4 Z" fill="#1E4784"></path>
                            <path d="M1.2,2.7 C0.8,1.9 1.2,0.9 2,0.5 C2.4,0.3 2.9,0.3 3.3,0.4 C3.7,0.5 4,0.8 4.2,1.2 C5.1,3 7.2,3.7 9,2.9 C9.8,2.5 10.8,2.9 11.2,3.7 C11.6,4.5 11.2,5.5 10.4,5.9" fill="#02243E"></path>
                        </g>
                        <g transform="translate(22.000000, 0.000000)">
                            <path d="M8.8,0.4 C8.4,0.5 8.1,0.8 7.9,1.2 C7,3 4.9,3.7 3.1,2.9 C2.3,2.5 1.3,2.9 0.9,3.7 C0.5,4.5 0.9,5.5 1.7,5.9 C5.1,7.5 9.3,6.1 10.9,2.7 C11.3,1.9 10.9,0.9 10.1,0.5 C9.6,0.3 9.2,0.3 8.8,0.4 Z" fill="#1E4784"></path>
                            <path d="M10.8,2.7 C11.2,1.9 10.8,0.9 10,0.5 C9.6,0.3 9.1,0.3 8.7,0.4 C8.3,0.5 8,0.8 7.8,1.2 C6.9,3 4.8,3.7 3,2.9 C2.2,2.5 1.2,2.9 0.8,3.7 C0.4,4.5 0.8,5.5 1.6,5.9" fill="#02243E"></path>
                        </g>
                    </g>
                </g>
                <g transform="translate(14.000000, 27.000000)" id="Shape">
                    <path d="M9.6,11.9 C9.6,9.3 12.9,7.2 17,7.2 C21.1,7.2 24.4,9.3 24.4,11.9" fill="#F7910B"></path>
                    <g fill="#02243E">
                        <g transform="translate(0.000000, 5.000000)">
                            <path d="M29.4,5.6 C28.8,5.6 28.3,5.1 28.3,4.5 C28.3,2.4 30,0.7 32.1,0.7 C32.7,0.7 33.2,1.2 33.2,1.8 C33.2,2.4 32.6,3 32,3 C31.1,3 30.4,3.7 30.4,4.6 C30.5,5.1 30,5.6 29.4,5.6 Z"></path>
                            <path d="M4.6,5.6 C4,5.6 3.5,5.1 3.5,4.5 C3.5,3.6 2.8,2.9 1.9,2.9 C1.3,2.9 0.8,2.4 0.8,1.8 C0.8,1.2 1.3,0.7 1.9,0.7 C4,0.7 5.7,2.4 5.7,4.5 C5.7,5.1 5.2,5.6 4.6,5.6 Z"></path>
                        </g>
                        <path d="M30.2,8.5 C29.9,8.5 29.6,8.4 29.4,8.2 C26.1,4.8 21.7,3 17,3 C12.3,3 7.9,4.8 4.6,8.1 C4.2,8.5 3.5,8.5 3,8.1 C2.6,7.7 2.6,7 3,6.5 C6.7,2.8 11.7,0.7 16.9,0.7 C22.1,0.7 27.1,2.8 30.8,6.5 C31.2,6.9 31.2,7.6 30.8,8.1 C30.7,8.4 30.4,8.5 30.2,8.5 Z"></path>
                    </g>
                </g>
                <g transform="translate(6.000000, 27.000000)" id="Shape">
                    <path d="M18.3,14.5 L21.8,0.5 L13,9.2 C12.6,9.1 12.2,9.1 11.8,9.1 C10.6,9.1 9.5,9.5 8.6,10.2 C7.9,9.9 7.2,9.8 6.4,9.8 C3.2,9.8 0.5,12.4 0.5,15.7 C0.5,17.2 1.1,18.6 2.1,19.7 C1.4,20.7 0.9,21.9 0.9,23.2 C0.9,26.4 3.5,29.1 6.8,29.1 C8.1,29.1 9.3,28.6 10.3,27.9 C11.2,28.6 12.3,29 13.5,29 C16.3,29 18.5,26.9 18.8,24.3 C20.4,23.4 21.6,21.6 21.6,19.6 C21.6,17.2 20.2,15.3 18.3,14.5 Z" fill="#FFFEFA"></path>
                    <path d="M31.7,14.5 L28.2,0.5 L36.9,9.2 C37.3,9.1 37.7,9.1 38.1,9.1 C39.3,9.1 40.4,9.5 41.3,10.2 C42,9.9 42.7,9.8 43.5,9.8 C46.7,9.8 49.4,12.4 49.4,15.7 C49.4,17.2 48.8,18.6 47.8,19.7 C48.5,20.7 49,21.9 49,23.2 C49,26.4 46.4,29.1 43.1,29.1 C41.8,29.1 40.6,28.6 39.6,27.9 C38.7,28.6 37.6,29 36.4,29 C33.6,29 31.4,26.9 31.1,24.3 C29.5,23.4 28.3,21.6 28.3,19.6 C28.4,17.2 29.8,15.3 31.7,14.5 Z" fill="#EDE5CE"></path>
                </g>
            </g>
        </g>
    </g>
</svg>