<?xml version="1.0" encoding="UTF-8"?>
<svg width="64px" height="58px" viewBox="0 0 64 58" version="1.1" xmlns="http://www.w3.org/2000/svg" xmlns:xlink="http://www.w3.org/1999/xlink">
    <!-- Generator: Sketch 43.1 (39012) - http://www.bohemiancoding.com/sketch -->
    <title>imgly_sticker_emoticons_loud_cry</title>
    <desc>Created with Sketch.</desc>
    <defs></defs>
    <g id="Page-1" stroke="none" stroke-width="1" fill="none" fill-rule="evenodd">
        <g id="loud_cry" fill-rule="nonzero">
            <g id="Group">
                <path d="M62,34.5 C62,47.3 50.2,57.7 32,57.7 C13.8,57.7 2,47.3 2,34.5 C2,21.6 13.8,2.4 32,2.4 C50.2,2.4 62,21.6 62,34.5 Z" id="Shape" fill="#F7910B"></path>
                <path d="M62,34.5 C62,47.3 50.2,53.8 32,53.8 C13.8,53.8 2,47.4 2,34.5 C2,21.6 13.8,0.4 32,0.4 C50.2,0.4 62,21.6 62,34.5 Z" id="Shape" fill="#F7910B"></path>
                <path d="M32,0.4 C50.2,0.4 62,21.7 62,34.5 C62,47.3 50.2,53.8 32,53.8" id="Shape" fill="#F9A908"></path>
                <path d="M62,34.5 C62,47.3 50.2,53.8 32,53.8 C13.8,53.8 2,47.4 2,34.5 C2,21.6 13.8,2.4 32,2.4 C50.2,2.4 62,21.6 62,34.5 Z" id="Shape" fill="#F9A908"></path>
                <path d="M2,34.5 C2,21.6 13.8,2.4 32,2.4" id="Shape" fill="#F9C55D"></path>
                <path d="M32,2.4 C50.2,2.4 62,21.7 62,34.5 C62,47.3 50.2,57.7 32,57.7" id="Shape" fill="#F7910B"></path>
                <path d="M32,2.4 C50.2,2.4 62,21.7 62,34.5" id="Shape" fill="#EA7103"></path>
                <g transform="translate(19.000000, 11.000000)" id="Shape">
                    <g>
                        <path d="M6.3,3.9 C5.9,4.6 4.8,3.6 3.3,2.7 C1.7,1.8 0.3,1.5 0.7,0.7 C1.1,-8.32667268e-17 2.7,0.1 4.3,1 C5.8,1.8 6.7,3.1 6.3,3.9 Z" fill="#19BCA4"></path>
                        <path d="M6.3,3.9 C5.9,4.6 4.8,3.6 3.3,2.7 C1.7,1.8 0.3,1.5 0.7,0.7" fill="#109DA0"></path>
                    </g>
                    <g transform="translate(19.000000, 1.000000)">
                        <path d="M0.6,4.1 C1,4.9 2.1,3.8 3.6,2.9 C5.2,2 6.6,1.7 6.2,1 C5.8,0.3 4.2,0.3 2.6,1.2 C1.1,2 0.1,3.3 0.6,4.1 Z" fill="#19BCA4"></path>
                        <path d="M0.6,4.1 C1,4.9 2.1,3.8 3.6,2.9 C5.2,2 6.6,1.7 6.2,1" fill="#109DA0"></path>
                    </g>
                </g>
                <g transform="translate(12.000000, 25.000000)" id="Shape">
                    <path d="M15.9,2.9 C15.9,4.1 12.4,3.5 8.2,3.5 C3.9,3.5 0.5,4.1 0.5,2.9 C0.5,1.7 4,0.7 8.2,0.7 C12.4,0.7 15.9,1.6 15.9,2.9 Z" fill="#F9C55D"></path>
                    <path d="M39.5,2.9 C39.5,4.1 36,3.5 31.8,3.5 C27.5,3.5 24.1,4.1 24.1,2.9 C24.1,1.7 27.5,0.7 31.8,0.7 C36.1,0.7 39.5,1.6 39.5,2.9 Z" fill="#F9A908"></path>
                </g>
                <path d="M26.8,32.7 C26.8,30.4 29.1,28.5 32,28.5 C34.9,28.5 37.2,30.4 37.2,32.7" id="Shape" fill="#F9C55D"></path>
                <circle id="Oval" fill="#F7910B" cx="10.6" cy="31.5" r="1"></circle>
                <circle id="Oval" fill="#F7910B" cx="6.2" cy="33.4" r="1.1"></circle>
                <circle id="Oval" fill="#F7910B" cx="9.1" cy="29.5" r="1"></circle>
                <circle id="Oval" fill="#F7910B" cx="13.6" cy="31.3" r="1"></circle>
                <circle id="Oval" fill="#F9A908" cx="52.3" cy="31.8" r="1"></circle>
                <circle id="Oval" fill="#F9A908" cx="54.8" cy="33.2" r="1"></circle>
                <circle id="Oval" fill="#F9A908" cx="49.5" cy="24.5" r="1"></circle>
                <circle id="Oval" fill="#F9A908" cx="49.1" cy="36" r="1.3"></circle>
                <circle id="Oval" fill="#F9A908" cx="56.2" cy="36" r="1"></circle>
                <circle id="Oval" fill="#F7910B" cx="9.6" cy="35.4" r="1"></circle>
                <circle id="Oval" fill="#F7910B" cx="10.4" cy="27.1" r="1"></circle>
                <circle id="Oval" fill="#F9A908" cx="5.2" cy="13.6" r="1.1"></circle>
                <circle id="Oval" fill="#F9A908" cx="8.3" cy="10" r="1"></circle>
                <circle id="Oval" fill="#F9A908" cx="58.9" cy="15.9" r="1"></circle>
                <circle id="Oval" fill="#F9A908" cx="58.1" cy="13" r="1"></circle>
                <circle id="Oval" fill="#F9A908" cx="60.6" cy="13.6" r="1"></circle>
                <circle id="Oval" fill="#F9A908" cx="6.3" cy="16.5" r="1"></circle>
                <g transform="translate(16.000000, 19.000000)" id="Shape">
                    <g>
                        <path d="M9.6,5 C9.2,5 8.8,4.9 8.4,4.6 C6.9,3.4 4.6,3.6 3.4,5.1 C2.8,5.8 1.8,5.9 1.1,5.3 C0.4,4.7 0.3,3.7 0.9,3 C3.3,0.1 7.6,-0.4 10.5,2 C11.2,2.6 11.3,3.6 10.7,4.3 C10.4,4.8 10,5 9.6,5 Z" fill="#1E4784"></path>
                        <path d="M10.4,2.2 C11.1,2.8 11.2,3.8 10.6,4.5 C10.4,4.8 10,5 9.6,5 C9.2,5 8.8,4.9 8.4,4.6 C6.9,3.4 4.6,3.6 3.4,5.1 C2.8,5.8 1.8,5.9 1.1,5.3 C0.4,4.7 0.3,3.7 0.9,3" fill="#02243E"></path>
                    </g>
                    <g transform="translate(20.000000, 0.000000)">
                        <path d="M2.4,5 C2.8,5 3.2,4.9 3.6,4.6 C5.1,3.4 7.4,3.6 8.6,5.1 C9.2,5.8 10.2,5.9 10.9,5.3 C11.6,4.7 11.7,3.7 11.1,3 C8.7,0.1 4.4,-0.4 1.5,2 C0.8,2.6 0.7,3.6 1.3,4.3 C1.6,4.8 2,5 2.4,5 Z" fill="#1E4784"></path>
                        <path d="M1.6,2.2 C0.9,2.8 0.8,3.8 1.4,4.5 C1.7,4.9 2.1,5.1 2.5,5.1 C2.9,5.1 3.3,5 3.7,4.7 C5.2,3.5 7.5,3.7 8.7,5.2 C9.3,5.9 10.3,6 11,5.4 C11.7,4.8 11.8,3.8 11.2,3.1" fill="#02243E"></path>
                    </g>
                </g>
                <g transform="translate(0.000000, 21.000000)" id="Shape">
                    <g>
                        <g transform="translate(5.000000, 0.000000)">
                            <path d="M6.3,7.8 L6.3,7.8 L14.6,4.3 L6.4,0.8 L6.4,0.8 C5.9,0.6 5.4,0.5 4.8,0.5 C2.7,0.5 1,2.2 1,4.3 C1,6.4 2.7,8.1 4.8,8.1 C5.3,8.2 5.8,8.1 6.3,7.8 Z" fill="#19DAF4"></path>
                            <path d="M0.9,4.4 C0.9,6.5 2.6,8.2 4.7,8.2 C5.3,8.2 5.8,8.1 6.3,7.9 L6.3,7.9 L14.5,4.4" fill="#0EB2CC"></path>
                        </g>
                        <g transform="translate(0.000000, 10.000000)">
                            <path d="M6.6,7 L6.6,7 L11.7,0.8 L3.7,1.5 L3.7,1.5 C3.2,1.5 2.8,1.7 2.3,1.9 C0.6,2.8 -4.99600361e-16,4.9 0.9,6.5 C1.8,8.2 3.9,8.8 5.5,7.9 C6,7.7 6.3,7.4 6.6,7 Z" fill="#19DAF4"></path>
                            <path d="M0.9,6.5 C1.8,8.2 3.9,8.8 5.5,7.9 C6,7.7 6.3,7.4 6.6,7 L6.6,7 L11.6,0.8" fill="#0EB2CC"></path>
                        </g>
                        <g transform="translate(5.000000, 17.000000)">
                            <path d="M6.7,7.2 L6.7,7.2 L5.6,0.3 L1.4,5.9 L1.4,5.9 C1.2,6.2 1,6.6 0.9,7 C0.5,8.6 1.5,10.2 3.1,10.6 C4.7,11 6.3,10 6.7,8.4 C6.8,8 6.8,7.6 6.7,7.2 Z" fill="#19DAF4"></path>
                            <path d="M3.1,10.6 C4.7,11 6.3,10 6.7,8.4 C6.8,8 6.8,7.5 6.7,7.1 L6.7,7.1 L5.6,0.2" fill="#0EB2CC"></path>
                        </g>
                    </g>
                    <g transform="translate(44.000000, 0.000000)">
                        <g>
                            <path d="M8.7,7.8 L8.7,7.8 L0.4,4.3 L8.6,0.8 L8.6,0.8 C9.1,0.6 9.6,0.5 10.2,0.5 C12.3,0.5 14,2.2 14,4.3 C14,6.4 12.3,8.1 10.2,8.1 C9.7,8.2 9.2,8.1 8.7,7.8 Z" fill="#0EB2CC"></path>
                            <path d="M14.1,4.4 C14.1,6.5 12.4,8.2 10.3,8.2 C9.7,8.2 9.2,8.1 8.7,7.9 L8.7,7.9 L0.5,4.4" fill="#19DAF4"></path>
                        </g>
                        <g transform="translate(8.000000, 10.000000)">
                            <path d="M5.4,7 L5.4,7 L0.3,0.8 L8.3,1.5 L8.3,1.5 C8.8,1.5 9.2,1.7 9.7,1.9 C11.4,2.8 12,4.9 11.1,6.5 C10.2,8.2 8.1,8.8 6.5,7.9 C6,7.7 5.7,7.4 5.4,7 Z" fill="#0EB2CC"></path>
                            <path d="M11.1,6.5 C10.2,8.2 8.1,8.8 6.5,7.9 C6.1,7.7 5.7,7.3 5.4,7 L5.4,7 L0.4,0.8" fill="#19DAF4"></path>
                        </g>
                        <g transform="translate(8.000000, 17.000000)">
                            <path d="M0.3,7.2 L0.3,7.2 L1.4,0.3 L5.6,5.9 L5.6,5.9 C5.9,6.2 6.1,6.6 6.2,7 C6.6,8.6 5.6,10.2 4,10.6 C2.4,11 0.8,10 0.4,8.4 C0.2,8 0.2,7.6 0.3,7.2 Z" fill="#0EB2CC"></path>
                            <path d="M3.9,10.6 C2.3,11 0.7,10 0.3,8.4 C0.2,8 0.2,7.5 0.3,7.1 L0.3,7.1 L1.4,0.2" fill="#19DAF4"></path>
                        </g>
                    </g>
                </g>
                <g transform="translate(17.000000, 28.000000)" id="Shape">
                    <path d="M22.3,15.5 C22.3,18.1 19,20.1 15,20.1 C11,20.1 7.7,18 7.7,15.5" fill="#F7910B"></path>
                    <g>
                        <path d="M0.4,17.2 C0.4,8.2 6.9,0.9 15,0.9 C23.1,0.9 29.6,8.2 29.6,17.2" fill="#C42260"></path>
                        <path d="M0.4,17.2 C0.4,14.2 6.9,11.7 15,11.7 C23.1,11.7 29.6,14.2 29.6,17.2" fill="#E2446E"></path>
                        <path d="M15,0.8 C10.5,0.8 6.5,3.1 3.8,6.6 C5.5,8.7 7.9,10 10.5,10 C12.1,10 13.6,9.5 15,8.7 C16.3,9.5 17.8,10 19.5,10 C22.2,10 24.6,8.7 26.2,6.6 C23.5,3.1 19.5,0.8 15,0.8 Z" fill="#99144A"></path>
                    </g>
                </g>
            </g>
            <circle id="Oval" fill="#19DAF4" cx="51.6" cy="5.8" r="1.3"></circle>
            <circle id="Oval" fill="#19DAF4" cx="54.2" cy="10.3" r="1"></circle>
            <circle id="Oval" fill="#19DAF4" cx="57.3" cy="2.3" r="2"></circle>
            <circle id="Oval" fill="#19DAF4" cx="7.3" cy="6.2" r="2.3"></circle>
            <circle id="Oval" fill="#19DAF4" cx="10.8" cy="18.7" r="1"></circle>
            <circle id="Oval" fill="#19DAF4" cx="11.2" cy="14" r="1.4"></circle>
        </g>
    </g>
</svg>