<?xml version="1.0" encoding="UTF-8"?>
<svg width="64px" height="60px" viewBox="0 0 64 60" version="1.1" xmlns="http://www.w3.org/2000/svg" xmlns:xlink="http://www.w3.org/1999/xlink">
    <!-- Generator: Sketch 43.1 (39012) - http://www.bohemiancoding.com/sketch -->
    <title>imgly_sticker_emoticons_hitman</title>
    <desc>Created with Sketch.</desc>
    <defs></defs>
    <g id="Page-1" stroke="none" stroke-width="1" fill="none" fill-rule="evenodd">
        <g id="hitman" fill-rule="nonzero">
            <path d="M21,49.1 C21,54.1 13,57.6 8,57.6 C3,57.6 4,54.4 4,49.4 C4,44.4 7,40.1 12,40.1 C16.9,40.1 21,44.1 21,49.1 Z" id="Shape" fill="#EA7103"></path>
            <g id="Group" transform="translate(1.000000, 0.000000)">
                <path d="M60.8,34.8 C60.8,47.8 48.9,58.3 30.5,58.3 C12.1,58.3 0.2,47.8 0.2,34.8 C0.2,21.8 12.1,2.3 30.5,2.3 C48.9,2.3 60.8,21.8 60.8,34.8 Z" id="Shape" fill="#F7910B"></path>
                <path d="M60.8,34.8 C60.8,47.8 48.9,54.3 30.5,54.3 C12.1,54.3 0.2,47.8 0.2,34.8 C0.2,21.8 12.1,0.3 30.5,0.3 C48.9,0.3 60.8,21.8 60.8,34.8 Z" id="Shape" fill="#F7910B"></path>
                <path d="M30.5,0.3 C48.9,0.3 60.8,21.8 60.8,34.8 C60.8,47.8 48.9,54.3 30.5,54.3" id="Shape" fill="#F9A908"></path>
                <path d="M60.8,34.8 C60.8,47.8 48.9,54.3 30.5,54.3 C12.1,54.3 0.2,47.8 0.2,34.8 C0.2,21.8 12.1,2.3 30.5,2.3 C48.9,2.3 60.8,21.8 60.8,34.8 Z" id="Shape" fill="#F9A908"></path>
                <path d="M0.2,34.8 C0.2,21.8 12.1,2.3 30.5,2.3" id="Shape" fill="#F9C55D"></path>
                <path d="M30.5,2.3 C48.9,2.3 60.8,21.8 60.8,34.8 C60.8,47.8 48.9,58.3 30.5,58.3" id="Shape" fill="#F7910B"></path>
                <path d="M30.5,2.3 C48.9,2.3 60.8,21.8 60.8,34.8" id="Shape" fill="#EA7103"></path>
                <g transform="translate(29.000000, 10.000000)" id="Shape">
                    <g fill="#19BCA4">
                        <path d="M6.8,1.5 C6.8,2.4 5.4,2 3.5,2.1 C1.7,2.2 0.2,2.7 0.2,1.8 C0.2,0.9 1.6,0.2 3.4,0.1 C5.3,5.96744876e-16 6.8,0.6 6.8,1.5 Z"></path>
                        <path d="M19.4,1.5 C19.4,2.4 20.8,2 22.7,2.1 C24.5,2.2 26,2.7 26,1.8 C26,0.9 24.6,0.2 22.8,0.1 C21,5.96744876e-16 19.5,0.6 19.4,1.5 Z"></path>
                    </g>
                    <g transform="translate(0.000000, 1.000000)" fill="#109DA0">
                        <path d="M6.8,0.5 C6.8,1.4 5.4,1 3.5,1.1 C1.7,1.2 0.2,1.7 0.2,0.8"></path>
                        <path d="M19.4,0.5 C19.4,1.4 20.8,1 22.7,1.1 C24.5,1.2 26,1.7 26,0.8"></path>
                    </g>
                </g>
                <g transform="translate(18.000000, 27.000000)" id="Shape">
                    <path d="M15.8,3 C15.8,4.2 12.3,3.7 8,3.7 C3.7,3.7 0.2,4.3 0.2,3 C0.2,1.7 3.7,0.8 8,0.8 C12.3,0.8 15.8,1.7 15.8,3 Z" fill="#F9C55D"></path>
                    <path d="M39.8,3 C39.8,4.2 36.3,3.7 32,3.7 C27.7,3.7 24.2,4.3 24.2,3 C24.2,1.7 27.7,0.8 32,0.8 C36.3,0.8 39.8,1.7 39.8,3 Z" fill="#F9A908"></path>
                </g>
                <circle id="Oval" fill="#F7910B" cx="8.8" cy="31.7" r="1"></circle>
                <circle id="Oval" fill="#F7910B" cx="4.3" cy="33.7" r="1.1"></circle>
                <circle id="Oval" fill="#F7910B" cx="7.3" cy="29.7" r="1"></circle>
                <circle id="Oval" fill="#F7910B" cx="11.9" cy="31.6" r="1"></circle>
                <circle id="Oval" fill="#F9A908" cx="51.1" cy="32.1" r="1"></circle>
                <circle id="Oval" fill="#F9A908" cx="53.6" cy="33.5" r="1"></circle>
                <circle id="Oval" fill="#F9A908" cx="48.3" cy="24.7" r="1"></circle>
                <circle id="Oval" fill="#F9A908" cx="47.8" cy="36.3" r="1.3"></circle>
                <circle id="Oval" fill="#F9A908" cx="55" cy="36.4" r="1"></circle>
                <circle id="Oval" fill="#F7910B" cx="7.8" cy="35.8" r="1"></circle>
                <circle id="Oval" fill="#F7910B" cx="8.6" cy="27.4" r="1"></circle>
                <circle id="Oval" fill="#F9A908" cx="3.3" cy="13.6" r="1.1"></circle>
                <circle id="Oval" fill="#F9A908" cx="6.5" cy="10.1" r="1"></circle>
                <circle id="Oval" fill="#F9A908" cx="57.7" cy="16" r="1"></circle>
                <circle id="Oval" fill="#F9A908" cx="56.9" cy="13.1" r="1"></circle>
                <circle id="Oval" fill="#F9A908" cx="59.5" cy="13.6" r="1"></circle>
                <circle id="Oval" fill="#F9A908" cx="4.5" cy="16.6" r="1"></circle>
            </g>
            <g id="Group" transform="translate(3.000000, 34.000000)">
                <path d="M7.8,23.6 C7.8,24.8 6.8,25.7 5.7,25.7 L2.1,25.7 C0.9,25.7 -4.4408921e-16,24.7 -4.4408921e-16,23.6 L2.7,13 C2.7,11.8 3.7,10.9 4.8,10.9 L8.4,10.9 C9.6,10.9 10.5,11.9 10.5,13 L7.8,23.6 Z" id="Shape" fill="#454949"></path>
                <path d="M29.4,8.8 L2.7,8.8 L2.7,13.1 L0,23.6 C0,24.8 1,25.7 2.1,25.7 L5.7,25.7 C6.9,25.7 7.8,24.7 7.8,23.6 L9.3,17.9 L16.3,17.9 C17.5,17.9 17.8,16.9 17.8,15.8 L17.8,13.1 L29.4,13.1 L29.4,8.8 Z M15.4,14.7 C15.4,15.6 15.2,16.4 14.3,16.4 L9.7,16.4 L10.6,13.1 L15.4,13.1 L15.4,14.7 Z" id="Shape" fill="#454949"></path>
                <path d="M9.3,17.9 L16.3,17.9 C17.5,17.9 17.8,16.9 17.8,15.8 L17.8,13.1 L29.4,13.1 L29.4,8.8 L2.7,8.8 L2.7,13.1 L9.3,17.9 Z M15.4,14.7 C15.4,15.6 15.2,16.4 14.3,16.4 L9.7,16.4 L10.6,13.1 L15.4,13.1 L15.4,14.7 Z" id="Shape" fill="#252828"></path>
                <polygon id="Shape" fill="#2ABA9E" points="13.1 16 12.1 16 11.4 13.4 13.1 13.4"></polygon>
                <polyline id="Shape" fill="#1A9992" points="11.4 13.4 13.1 13.4 13.1 16"></polyline>
                <polygon id="Shape" fill="#2ABA9E" points="31.5 0.7 30.8 3.2 3.9 3.2 2.7 8 32.5 8 32.5 3.3 32.5 3.2 32.5 0.7"></polygon>
                <g transform="translate(0.000000, 15.000000)" id="Shape" fill="#2ABA9E">
                    <path d="M5.3,0 L2.2,0 L2,0.9 L5.3,0.9 C5.5,0.9 5.7,0.7 5.7,0.5 C5.7,0.2 5.5,0 5.3,0 Z"></path>
                    <path d="M4.9,2.2 L1.6,2.2 L1.4,3.1 L4.9,3.1 C5.1,3.1 5.3,2.9 5.3,2.7 C5.3,2.5 5.2,2.2 4.9,2.2 Z"></path>
                    <path d="M0.8,5.3 L4.2,5.3 C4.4,5.3 4.6,5.1 4.6,4.9 C4.6,4.7 4.4,4.5 4.2,4.5 L1.1,4.5 L0.8,5.3 Z"></path>
                </g>
                <path d="M30.2,12.4 C30.2,12.8 29.9,13.1 29.5,13.1 L29.5,13.1 C29.1,13.1 28.8,12.8 28.8,12.4 L28.8,9.5 C28.8,9.1 29.1,8.8 29.5,8.8 L29.5,8.8 C29.9,8.8 30.2,9.1 30.2,9.5 L30.2,12.4 Z" id="Shape" fill="#252828"></path>
                <polygon id="Shape" fill="#1A9992" points="3.5 5 2.7 8 32.5 8 32.5 5"></polygon>
                <path d="M32.5,7.5 C32.5,7.8 32.3,8 32,8 L32,8 C31.7,8 31.5,7.8 31.5,7.5 L31.5,5.4 C31.5,5.1 31.7,4.9 32,4.9 L32,4.9 C32.3,4.9 32.5,5.1 32.5,5.4 L32.5,7.5 Z" id="Shape" fill="#2ABA9E"></path>
                <circle id="Oval" fill="#2ABA9E" cx="16.9" cy="10.8" r="1"></circle>
                <circle id="Oval" fill="#2ABA9E" cx="19.8" cy="10.8" r="1"></circle>
                <path d="M23.4,10.8 C23.4,11.1 23.1,11.4 22.8,11.4 C22.5,11.4 22.2,11.1 22.2,10.8 C22.2,10.5 22.5,10.2 22.8,10.2 C23.2,10.2 23.4,10.5 23.4,10.8 Z" id="Shape" fill="#2ABA9E"></path>
                <path d="M33.2,13.2 C31.9,13.2 30.8,12.1 30.8,10.8 C30.8,9.5 31.9,8.4 33.2,8.4" id="Shape" fill="#EA1F0A"></path>
                <path d="M60,10.3 L34.3,10.3 C33,10.3 31.9,10.5 31.9,10.8 C31.9,11.1 33,11.3 34.3,11.3 L60,11.3 L60,10.3 Z" id="Shape" fill="#FF5512"></path>
            </g>
            <g id="Group" transform="translate(0.000000, 17.000000)" fill="#00233F">
                <g id="Shape">
                    <g>
                        <g transform="translate(21.000000, 0.000000)">
                            <path d="M1.6,2.1 C1.5,2.7 1.4,3.2 1.4,3.8 C1.4,8.3 2.7,12 7.2,12 L14.7,12 C19.2,12 20.5,8.3 20.5,3.8 C20.5,3.2 20.4,2.6 20.3,2.1 L1.6,2.1 Z"></path>
                            <path d="M21.1,1.8 C21.1,2.5 20.5,3.1 19.8,3.1 L2.2,3.1 C1.5,3.1 0.9,2.5 0.9,1.8 L0.9,1.8 C0.9,1.1 1.5,0.5 2.2,0.5 L19.8,0.5 C20.6,0.5 21.1,1.1 21.1,1.8 L21.1,1.8 Z"></path>
                        </g>
                        <path d="M32,1.4 C32,1.9 31.6,3.3 31.2,3.3 L1.3,3.3 C0.8,3.3 0.5,1.8 0.5,1.4 L0.5,1.4 C0.5,0.9 0.9,0.6 1.3,0.6 L31.1,0.6 C31.6,0.5 32,0.9 32,1.4 L32,1.4 Z"></path>
                    </g>
                    <g transform="translate(47.000000, 0.000000)">
                        <g>
                            <path d="M13.5,2.1 C13.6,2.7 13.6,3.2 13.6,3.8 C13.6,8.3 12.7,12 9.7,12 L4.6,12 C1.5,12 0.7,8.3 0.7,3.8 C0.7,3.2 0.7,2.6 0.8,2.1 L13.5,2.1 Z"></path>
                            <path d="M0.4,1.8 C0.4,2.5 0.8,3.1 1.3,3.1 L13.2,3.1 C13.7,3.1 14.1,2.5 14.1,1.8 L14.1,1.8 C14.1,1.1 13.7,0.5 13.2,0.5 L1.2,0.5 C0.7,0.5 0.4,1.1 0.4,1.8 L0.4,1.8 Z"></path>
                        </g>
                        <path d="M7.2,1.4 C7.2,1.9 7.4,3.3 7.8,3.3 L16,3.3 C16.3,3.3 16.6,1.8 16.6,1.4 L16.6,1.4 C16.6,0.9 16.4,0.6 16,0.6 L7.8,0.6 C7.5,0.5 7.2,0.9 7.2,1.4 L7.2,1.4 Z"></path>
                    </g>
                </g>
                <path d="M54.1,1.6 C54.1,2.2 53.6,2.7 53,2.7 L36.4,2.7 C35.8,2.7 35.3,2.2 35.3,1.6 L35.3,1.6 C35.3,1 35.8,0.5 36.4,0.5 L53.1,0.5 C53.7,0.5 54.1,1 54.1,1.6 L54.1,1.6 Z" id="Shape"></path>
            </g>
            <path d="M46.6,34.5 L43.6,34.5 C43,34.5 42.5,34 42.5,33.4 C42.5,32.8 43,32.3 43.6,32.3 L46.6,32.3 C47.2,32.3 47.7,32.8 47.7,33.4 C47.7,34 47.2,34.5 46.6,34.5 Z" id="Shape" fill="#02243E"></path>
        </g>
    </g>
</svg>