<?xml version="1.0" encoding="UTF-8"?>
<svg width="62px" height="58px" viewBox="0 0 62 58" version="1.1" xmlns="http://www.w3.org/2000/svg" xmlns:xlink="http://www.w3.org/1999/xlink">
    <!-- Generator: Sketch 43.1 (39012) - http://www.bohemiancoding.com/sketch -->
    <title>imgly_sticker_emoticons_sad</title>
    <desc>Created with Sketch.</desc>
    <defs></defs>
    <g id="Page-1" stroke="none" stroke-width="1" fill="none" fill-rule="evenodd">
        <g id="sad" fill-rule="nonzero">
            <path d="M61.3,34.5 C61.3,47.5 49.4,58 31,58 C12.6,58 0.7,47.5 0.7,34.5 C0.7,21.5 12.6,2 31,2 C49.4,2 61.3,21.5 61.3,34.5 Z" id="Shape" fill="#F7910B"></path>
            <path d="M61.3,34.5 C61.3,47.5 49.4,54 31,54 C12.6,54 0.7,47.5 0.7,34.5 C0.7,21.5 12.6,0 31,0 C49.4,0 61.3,21.5 61.3,34.5 Z" id="Shape" fill="#F7910B"></path>
            <path d="M31,0 C49.4,0 61.3,21.5 61.3,34.5 C61.3,47.5 49.4,54 31,54" id="Shape" fill="#F9A908"></path>
            <path d="M61.3,34.5 C61.3,47.5 49.4,54 31,54 C12.6,54 0.7,47.5 0.7,34.5 C0.7,21.5 12.6,2 31,2 C49.4,2 61.3,21.5 61.3,34.5 Z" id="Shape" fill="#F9A908"></path>
            <path d="M0.7,34.5 C0.7,21.5 12.6,2 31,2" id="Shape" fill="#F9C55D"></path>
            <path d="M31,2 C49.4,2 61.3,21.5 61.3,34.5 C61.3,47.5 49.4,58 31,58" id="Shape" fill="#F7910B"></path>
            <path d="M31,2 C49.4,2 61.3,21.5 61.3,34.5" id="Shape" fill="#EA7103"></path>
            <g id="Group" transform="translate(17.000000, 18.000000)">
                <ellipse id="Oval" fill="#EA7103" cx="3.6" cy="4.7" rx="3.2" ry="3.2"></ellipse>
                <ellipse id="Oval" fill="#EA7103" cx="24.4" cy="4.7" rx="3.2" ry="3.2"></ellipse>
                <ellipse id="Oval" fill="#1E4784" cx="3.6" cy="3.8" rx="3.2" ry="3.2"></ellipse>
                <path d="M3.6,0.6 C5.4,0.6 6.8,2 6.8,3.8 C6.8,5.6 5.4,7 3.6,7" id="Shape" fill="#00233F"></path>
                <ellipse id="Oval" fill="#1E4784" cx="24.4" cy="3.8" rx="3.2" ry="3.2"></ellipse>
                <path d="M24.4,0.6 C26.2,0.6 27.6,2 27.6,3.8 C27.6,5.6 26.2,7 24.4,7" id="Shape" fill="#00233F"></path>
            </g>
            <g id="Group" transform="translate(20.000000, 12.000000)">
                <g id="Shape">
                    <path d="M0.5,2 C0.3,1.5 1.3,1.4 2.5,0.9 C3.6,0.4 4.5,-0.3 4.7,0.2 C4.9,0.7 4.1,1.4 3,1.9 C1.8,2.4 0.7,2.4 0.5,2 Z" fill="#19BCA4"></path>
                    <path d="M0.5,2 C0.3,1.5 1.3,1.4 2.5,0.9 C3.6,0.4 4.5,-0.3 4.7,0.2" fill="#109DA0"></path>
                </g>
                <g transform="translate(17.000000, 0.000000)" id="Shape">
                    <path d="M4.5,2.3 C4.7,1.8 3.7,1.7 2.5,1.2 C1.4,0.7 0.5,4.4408921e-16 0.3,0.5 C0.1,1 0.9,1.7 2,2.2 C3.2,2.7 4.3,2.7 4.5,2.3 Z" fill="#19BCA4"></path>
                    <path d="M4.5,2.3 C4.7,1.8 3.7,1.7 2.5,1.2 C1.4,0.7 0.5,4.4408921e-16 0.3,0.5" fill="#109DA0"></path>
                </g>
            </g>
            <g id="Group" transform="translate(11.000000, 25.000000)">
                <path d="M15.8,2.8 C15.8,4 12.3,3.5 8,3.5 C3.7,3.5 0.2,4.1 0.2,2.8 C0.2,1.6 3.7,0.6 8,0.6 C12.3,0.6 15.8,1.6 15.8,2.8 Z" id="Shape" fill="#F9C55D"></path>
                <path d="M39.8,2.8 C39.8,4 36.3,3.5 32,3.5 C27.7,3.5 24.2,4.1 24.2,2.8 C24.2,1.6 27.7,0.6 32,0.6 C36.3,0.6 39.8,1.6 39.8,2.8 Z" id="Shape" fill="#F9A908"></path>
            </g>
            <ellipse id="Oval" fill="#F7910B" cx="9.3" cy="31.5" rx="1" ry="1"></ellipse>
            <ellipse id="Oval" fill="#F7910B" cx="4.8" cy="33.5" rx="1.1" ry="1.1"></ellipse>
            <ellipse id="Oval" fill="#F7910B" cx="7.8" cy="29.5" rx="1" ry="1"></ellipse>
            <circle id="Oval" fill="#F7910B" cx="12.4" cy="31.3" r="1"></circle>
            <circle id="Oval" fill="#F9A908" cx="51.6" cy="31.8" r="1"></circle>
            <circle id="Oval" fill="#F9A908" cx="54.1" cy="33.2" r="1"></circle>
            <circle id="Oval" fill="#F9A908" cx="48.8" cy="24.4" r="1"></circle>
            <circle id="Oval" fill="#F9A908" cx="48.3" cy="36" r="1.3"></circle>
            <circle id="Oval" fill="#F9A908" cx="55.5" cy="36.1" r="1"></circle>
            <ellipse id="Oval" fill="#F7910B" cx="8.3" cy="35.5" rx="1" ry="1"></ellipse>
            <circle id="Oval" fill="#F7910B" cx="9.1" cy="27.1" r="1"></circle>
            <ellipse id="Oval" fill="#F9A908" cx="3.8" cy="13.3" rx="1.1" ry="1.1"></ellipse>
            <ellipse id="Oval" fill="#F9A908" cx="7" cy="9.8" rx="1" ry="1"></ellipse>
            <circle id="Oval" fill="#F9A908" cx="58.2" cy="15.7" r="1"></circle>
            <ellipse id="Oval" fill="#F9A908" cx="57.4" cy="12.8" rx="1" ry="1"></ellipse>
            <circle id="Oval" fill="#F9A908" cx="60" cy="13.3" r="1"></circle>
            <ellipse id="Oval" fill="#F9A908" cx="5" cy="16.3" rx="1" ry="1"></ellipse>
            <path d="M38.4,42.7 C38.4,45.3 35.1,47.4 31,47.4 C26.9,47.4 23.6,45.3 23.6,42.7" id="Shape" fill="#F7910B"></path>
            <g id="Group" transform="translate(15.000000, 29.000000)">
                <path d="M8.8,3.3 C8.8,1.8 12,0.6 16,0.6 C20,0.6 23.2,1.8 23.2,3.3" id="Shape" fill="#ED7E11"></path>
                <g transform="translate(0.000000, 1.000000)" id="Shape" fill="#02243E">
                    <g transform="translate(2.000000, 0.000000)">
                        <path d="M26.4,7 C26.1,7 25.8,6.9 25.6,6.7 C23.7,4.8 20.8,2.8 18.1,2.8 L18.1,2.8 C16.8,2.8 15.7,3.3 14.8,4.2 C14.4,4.6 13.7,4.6 13.2,4.2 C12.8,3.8 12.8,3.1 13.2,2.6 C14.6,1.2 16.2,0.5 18.1,0.5 L18.1,0.5 C22.4,0.5 26.1,4 27.2,5.1 C27.6,5.5 27.6,6.2 27.2,6.7 C27,6.9 26.7,7 26.4,7 Z"></path>
                        <path d="M1.6,7 C1.3,7 1,6.9 0.8,6.7 C0.4,6.3 0.4,5.6 0.8,5.1 C1.9,4 5.6,0.5 9.9,0.5 L9.9,0.5 C11.8,0.5 13.4,1.2 14.8,2.6 C15.2,3 15.2,3.7 14.8,4.2 C14.4,4.6 13.7,4.6 13.2,4.2 C12.3,3.2 11.2,2.8 9.9,2.8 L9.9,2.8 C7.2,2.8 4.2,4.8 2.4,6.7 C2.2,6.9 1.9,7 1.6,7 Z"></path>
                    </g>
                    <g transform="translate(0.000000, 4.000000)">
                        <path d="M28.1,5.3 C27.5,5.3 27,4.8 27,4.2 C27,2.1 28.7,0.4 30.7,0.4 C31.3,0.4 31.8,0.9 31.8,1.5 C31.8,2.1 31.3,2.6 30.7,2.6 C29.9,2.6 29.2,3.3 29.2,4.2 C29.2,4.8 28.7,5.3 28.1,5.3 Z"></path>
                        <path d="M3.9,5.3 C3.3,5.3 2.8,4.8 2.8,4.2 C2.8,3.3 2.1,2.6 1.3,2.6 C0.7,2.6 0.2,2.1 0.2,1.5 C0.2,0.9 0.7,0.4 1.3,0.4 C3.3,0.4 5,2.1 5,4.2 C5,4.8 4.5,5.3 3.9,5.3 Z"></path>
                    </g>
                </g>
                <path d="M18.6,4.9 C18.8,4.2 20.7,4.3 22.7,5.1 C24.7,5.9 26.1,7 25.9,7.7 C25.7,8.4 24,7.7 22,7 C20,6.2 18.3,5.6 18.6,4.9 Z" id="Shape" fill="#F9A908"></path>
                <path d="M13.2,4.9 C13,4.2 11.1,4.3 9.1,5.1 C7.1,5.9 5.7,7 5.9,7.7 C6.1,8.4 7.8,7.7 9.8,7 C11.8,6.2 13.4,5.6 13.2,4.9 Z" id="Shape" fill="#F9C55D"></path>
            </g>
        </g>
    </g>
</svg>