<?xml version="1.0" encoding="UTF-8"?>
<svg width="62px" height="58px" viewBox="0 0 62 58" version="1.1" xmlns="http://www.w3.org/2000/svg" xmlns:xlink="http://www.w3.org/1999/xlink">
    <!-- Generator: Sketch 43.1 (39012) - http://www.bohemiancoding.com/sketch -->
    <title>imgly_sticker_emoticons_loving</title>
    <desc>Created with Sketch.</desc>
    <defs></defs>
    <g id="Page-1" stroke="none" stroke-width="1" fill="none" fill-rule="evenodd">
        <g id="loving" fill-rule="nonzero">
            <path d="M61.3,34.5 C61.3,47.5 49.4,58 31,58 C12.6,58 0.7,47.5 0.7,34.5 C0.7,21.5 12.6,2 31,2 C49.4,2 61.3,21.5 61.3,34.5 Z" id="Shape" fill="#F7910B"></path>
            <path d="M61.3,34.5 C61.3,47.5 49.4,54 31,54 C12.6,54 0.7,47.5 0.7,34.5 C0.7,21.5 12.6,0 31,0 C49.4,0 61.3,21.5 61.3,34.5 Z" id="Shape" fill="#F7910B"></path>
            <path d="M31,0 C49.4,0 61.3,21.5 61.3,34.5 C61.3,47.5 49.4,54 31,54" id="Shape" fill="#F9A908"></path>
            <path d="M61.3,34.5 C61.3,47.5 49.4,54 31,54 C12.6,54 0.7,47.5 0.7,34.5 C0.7,21.5 12.6,2 31,2 C49.4,2 61.3,21.5 61.3,34.5 Z" id="Shape" fill="#F9A908"></path>
            <path d="M0.7,34.5 C0.7,21.5 12.6,2 31,2" id="Shape" fill="#F9C55D"></path>
            <path d="M31,2 C49.4,2 61.3,21.5 61.3,34.5 C61.3,47.5 49.4,58 31,58" id="Shape" fill="#F7910B"></path>
            <path d="M31,2 C49.4,2 61.3,21.5 61.3,34.5" id="Shape" fill="#EA7103"></path>
            <g id="Group" transform="translate(18.000000, 11.000000)">
                <g id="Shape">
                    <path d="M6.9,0.9 C7.2,1.7 5.7,1.8 4,2.5 C2.3,3.1 1.1,4.1 0.8,3.3 C0.5,2.5 1.6,1.3 3.3,0.7 C4.9,-1.11022302e-16 6.5,0.1 6.9,0.9 Z" fill="#19BCA4"></path>
                    <path d="M6.9,0.9 C7.2,1.7 5.7,1.8 4,2.5 C2.3,3.1 1.1,4.1 0.8,3.3" fill="#109DA0"></path>
                </g>
                <g transform="translate(19.000000, 0.000000)" id="Shape">
                    <path d="M0.1,0.9 C-0.2,1.7 1.3,1.8 3,2.5 C4.7,3.1 5.9,4.1 6.2,3.3 C6.5,2.5 5.4,1.3 3.7,0.7 C2.1,-1.11022302e-16 0.5,0.1 0.1,0.9 Z" fill="#19BCA4"></path>
                    <path d="M0.1,0.9 C-0.2,1.7 1.3,1.8 3,2.5 C4.7,3.1 5.9,4.1 6.2,3.3" fill="#109DA0"></path>
                </g>
            </g>
            <g id="Group" transform="translate(11.000000, 25.000000)">
                <path d="M15.8,2.8 C15.8,4 12.3,3.5 8,3.5 C3.7,3.5 0.2,4.1 0.2,2.8 C0.2,1.6 3.7,0.6 8,0.6 C12.3,0.6 15.8,1.6 15.8,2.8 Z" id="Shape" fill="#F9C55D"></path>
                <path d="M39.8,2.8 C39.8,4 36.3,3.5 32,3.5 C27.7,3.5 24.2,4.1 24.2,2.8 C24.2,1.6 27.7,0.6 32,0.6 C36.3,0.6 39.8,1.6 39.8,2.8 Z" id="Shape" fill="#F9A908"></path>
            </g>
            <circle id="Oval" fill="#F7910B" cx="9.3" cy="31.5" r="1"></circle>
            <circle id="Oval" fill="#F7910B" cx="4.8" cy="33.5" r="1.1"></circle>
            <circle id="Oval" fill="#F7910B" cx="7.8" cy="29.5" r="1"></circle>
            <circle id="Oval" fill="#F7910B" cx="12.4" cy="31.3" r="1"></circle>
            <circle id="Oval" fill="#F9A908" cx="51.6" cy="31.8" r="1"></circle>
            <circle id="Oval" fill="#F9A908" cx="54.1" cy="33.2" r="1"></circle>
            <circle id="Oval" fill="#F9A908" cx="48.8" cy="24.4" r="1"></circle>
            <circle id="Oval" fill="#F9A908" cx="48.3" cy="36" r="1.3"></circle>
            <circle id="Oval" fill="#F9A908" cx="55.5" cy="36.1" r="1"></circle>
            <circle id="Oval" fill="#F7910B" cx="8.3" cy="35.5" r="1"></circle>
            <circle id="Oval" fill="#F7910B" cx="9.1" cy="27.1" r="1"></circle>
            <circle id="Oval" fill="#F9A908" cx="3.8" cy="13.3" r="1.1"></circle>
            <circle id="Oval" fill="#F9A908" cx="7" cy="9.8" r="1"></circle>
            <circle id="Oval" fill="#F9A908" cx="58.2" cy="15.7" r="1"></circle>
            <circle id="Oval" fill="#F9A908" cx="57.4" cy="12.8" r="1"></circle>
            <circle id="Oval" fill="#F9A908" cx="60" cy="13.3" r="1"></circle>
            <circle id="Oval" fill="#F9A908" cx="5" cy="16.3" r="1"></circle>
            <path d="M38.2,42.1 C38.2,44.7 34.9,52 30.8,52 C26.7,52 23.4,44.7 23.4,42.1" id="Shape" fill="#F7910B"></path>
            <g id="Group" transform="translate(16.000000, 27.000000)">
                <path d="M29.8,0.3 C29.8,9.4 23.2,16.8 15,16.8 C6.8,16.8 0.2,9.4 0.2,0.3" id="Shape" fill="#C42260"></path>
                <path d="M29.8,0.3 C29.8,3.4 23.2,5.9 15,5.9 C6.8,5.9 0.2,3.4 0.2,0.3" id="Shape" fill="#99144A"></path>
                <path d="M15,16.9 C19.6,16.9 23.6,14.6 26.3,11 C24.6,8.9 22.2,7.6 19.5,7.6 C17.9,7.6 16.3,8.1 15,8.9 C13.7,8 12.1,7.6 10.5,7.6 C7.8,7.6 5.4,8.9 3.7,11 C6.4,14.5 10.4,16.9 15,16.9 Z" id="Shape" fill="#E2446E"></path>
            </g>
            <g id="Group" transform="translate(12.000000, 10.000000)">
                <g transform="translate(21.000000, 0.000000)" id="Shape">
                    <path d="M5.4,0.7 C7.2,1.2 8.4,2.6 8.6,4.2 C8.6,4.4 8.8,4.5 8.9,4.5 C9.1,4.6 9.3,4.6 9.3,4.4 C10.3,3.1 12.1,2.5 13.8,3 C16,3.6 17.4,5.7 16.9,7.7 C16.7,8.4 16.3,9 15.7,9.5 L15.7,9.5 L15.7,9.5 L5.7,16.3 L0.6,5.3 L0.6,5.3 L0.6,5.3 C0.3,4.6 0.3,3.8 0.5,3.1 C0.9,1.1 3.1,0.1 5.4,0.7 Z" fill="#D81665"></path>
                    <path d="M8.9,4.5 C9.1,4.6 9.3,4.6 9.3,4.4 C10.3,3.1 12.1,2.5 13.8,3 C16,3.6 17.4,5.7 16.9,7.7 C16.7,8.4 16.3,9 15.7,9.5 L15.7,9.5 L15.7,9.5 L5.7,16.3" fill="#B20B5F"></path>
                </g>
                <g id="Shape">
                    <path d="M16.6,3.1 C16.8,3.8 16.8,4.6 16.5,5.3 L16.5,5.3 L16.5,5.3 L11.4,16.3 L1.4,9.5 L1.4,9.5 L1.4,9.5 C0.8,9 0.4,8.4 0.2,7.7 C-0.3,5.7 1,3.6 3.3,3 C5.1,2.5 6.9,3.1 7.8,4.4 C7.9,4.5 8.1,4.6 8.2,4.5 C8.4,4.5 8.5,4.4 8.5,4.2 C8.6,2.6 9.9,1.2 11.7,0.7 C13.9,0.1 16.1,1.1 16.6,3.1 Z" fill="#D81665"></path>
                    <path d="M11.4,16.4 L1.4,9.6 L1.4,9.6 L1.4,9.6 C0.8,9.1 0.4,8.5 0.2,7.8 C-0.3,5.8 1,3.7 3.3,3.1 C5.1,2.6 6.9,3.2 7.8,4.5 C7.9,4.6 8.1,4.7 8.2,4.6" fill="#B20B5F"></path>
                </g>
            </g>
        </g>
    </g>
</svg>