<?xml version="1.0" encoding="UTF-8"?>
<svg width="62px" height="58px" viewBox="0 0 62 58" version="1.1" xmlns="http://www.w3.org/2000/svg" xmlns:xlink="http://www.w3.org/1999/xlink">
    <!-- Generator: Sketch 43.1 (39012) - http://www.bohemiancoding.com/sketch -->
    <title>imgly_sticker_emoticons_anxious</title>
    <desc>Created with Sketch.</desc>
    <defs></defs>
    <g id="Page-1" stroke="none" stroke-width="1" fill="none" fill-rule="evenodd">
        <g id="anxious" fill-rule="nonzero">
            <g id="Group">
                <g>
                    <path d="M61.3,34.5 C61.3,47.5 49.4,58 31,58 C12.6,58 0.7,47.5 0.7,34.5 C0.7,21.5 12.6,2 31,2 C49.4,2 61.3,21.5 61.3,34.5 Z" id="Shape" fill="#F7910B"></path>
                    <path d="M61.3,34.5 C61.3,47.5 49.4,54 31,54 C12.6,54 0.7,47.5 0.7,34.5 C0.7,21.5 12.6,0 31,0 C49.4,0 61.3,21.5 61.3,34.5 Z" id="Shape" fill="#F7910B"></path>
                    <path d="M31,0 C49.4,0 61.3,21.5 61.3,34.5 C61.3,47.5 49.4,54 31,54" id="Shape" fill="#F9A908"></path>
                    <path d="M61.3,34.5 C61.3,47.5 49.4,54 31,54 C12.6,54 0.7,47.5 0.7,34.5 C0.7,21.5 12.6,2 31,2 C49.4,2 61.3,21.5 61.3,34.5 Z" id="Shape" fill="#F9A908"></path>
                    <path d="M0.7,34.5 C0.7,21.5 12.6,2 31,2" id="Shape" fill="#F9C55D"></path>
                    <path d="M31,2 C49.4,2 61.3,21.5 61.3,34.5 C61.3,47.5 49.4,58 31,58" id="Shape" fill="#F7910B"></path>
                    <path d="M31,2 C49.4,2 61.3,21.5 61.3,34.5" id="Shape" fill="#EA7103"></path>
                    <g transform="translate(17.000000, 18.000000)">
                        <ellipse id="Oval" fill="#EA7103" cx="3.6" cy="4.7" rx="3.2" ry="3.2"></ellipse>
                        <ellipse id="Oval" fill="#EA7103" cx="24.4" cy="4.7" rx="3.2" ry="3.2"></ellipse>
                        <ellipse id="Oval" fill="#1E4784" cx="3.6" cy="3.8" rx="3.2" ry="3.2"></ellipse>
                        <path d="M3.6,0.6 C5.4,0.6 6.8,2 6.8,3.8 C6.8,5.6 5.4,7 3.6,7" id="Shape" fill="#00233F"></path>
                        <ellipse id="Oval" fill="#1E4784" cx="24.4" cy="3.8" rx="3.2" ry="3.2"></ellipse>
                        <path d="M24.4,0.6 C26.2,0.6 27.6,2 27.6,3.8 C27.6,5.6 26.2,7 24.4,7" id="Shape" fill="#00233F"></path>
                    </g>
                    <g transform="translate(17.000000, 7.000000)" id="Shape">
                        <g>
                            <path d="M0.4,6.6 C-0.3,5.5 1.9,4.9 4.3,3.4 C6.6,2 8.2,0.2 8.9,1.3 C9.6,2.4 8.3,4.5 6,5.9 C3.6,7.5 1.1,7.7 0.4,6.6 Z" fill="#19BCA4"></path>
                            <path d="M0.4,6.6 C-0.3,5.5 1.9,4.9 4.3,3.4 C6.6,2 8.2,0.2 8.9,1.3" fill="#109DA0"></path>
                        </g>
                        <g transform="translate(18.000000, 0.000000)">
                            <path d="M9.6,6.6 C10.3,5.5 8.1,4.9 5.7,3.4 C3.4,2 1.8,0.2 1.1,1.3 C0.4,2.4 1.7,4.5 4,5.9 C6.4,7.5 8.9,7.7 9.6,6.6 Z" fill="#19BCA4"></path>
                            <path d="M9.6,6.6 C10.3,5.5 8.1,4.9 5.7,3.4 C3.4,2 1.8,0.2 1.1,1.3" fill="#109DA0"></path>
                        </g>
                    </g>
                    <g transform="translate(11.000000, 25.000000)" id="Shape">
                        <path d="M15.8,2.8 C15.8,4 12.3,3.5 8,3.5 C3.7,3.5 0.2,4.1 0.2,2.8 C0.2,1.5 3.7,0.6 8,0.6 C12.3,0.6 15.8,1.6 15.8,2.8 Z" fill="#F9C55D"></path>
                        <path d="M39.8,2.8 C39.8,4 36.3,3.5 32,3.5 C27.7,3.5 24.2,4.1 24.2,2.8 C24.2,1.5 27.7,0.6 32,0.6 C36.3,0.6 39.8,1.6 39.8,2.8 Z" fill="#F9A908"></path>
                    </g>
                    <path d="M39,32.1 C39,36.9 35.4,40.9 31,40.9 C26.6,40.9 23,37 23,32.1" id="Shape" fill="#F7910B"></path>
                    <ellipse id="Oval" fill="#F7910B" cx="9.3" cy="31.5" rx="1" ry="1"></ellipse>
                    <ellipse id="Oval" fill="#F7910B" cx="4.8" cy="33.5" rx="1.1" ry="1.1"></ellipse>
                    <ellipse id="Oval" fill="#F7910B" cx="7.8" cy="29.5" rx="1" ry="1"></ellipse>
                    <circle id="Oval" fill="#F7910B" cx="12.4" cy="31.3" r="1"></circle>
                    <circle id="Oval" fill="#F9A908" cx="51.6" cy="31.8" r="1"></circle>
                    <circle id="Oval" fill="#F9A908" cx="54.1" cy="33.2" r="1"></circle>
                    <circle id="Oval" fill="#F9A908" cx="48.8" cy="24.4" r="1"></circle>
                    <circle id="Oval" fill="#F9A908" cx="48.3" cy="36" r="1.3"></circle>
                    <circle id="Oval" fill="#F9A908" cx="55.5" cy="36.1" r="1"></circle>
                    <ellipse id="Oval" fill="#F7910B" cx="8.3" cy="35.5" rx="1" ry="1"></ellipse>
                    <circle id="Oval" fill="#F7910B" cx="9.1" cy="27.1" r="1"></circle>
                    <ellipse id="Oval" fill="#F9A908" cx="3.8" cy="13.3" rx="1.1" ry="1.1"></ellipse>
                    <ellipse id="Oval" fill="#F9A908" cx="7" cy="9.8" rx="1" ry="1"></ellipse>
                    <circle id="Oval" fill="#F9A908" cx="58.2" cy="15.7" r="1"></circle>
                    <ellipse id="Oval" fill="#F9A908" cx="57.4" cy="12.8" rx="1" ry="1"></ellipse>
                    <path d="M60.5,13.3 C60.5,13.6 60.3,13.8 60,13.8 C59.7,13.8 59.5,13.6 59.5,13.3 C59.5,13 59.7,12.8 60,12.8 C60.2,12.8 60.5,13.1 60.5,13.3 Z" id="Shape" fill="#F9A908"></path>
                    <ellipse id="Oval" fill="#F9A908" cx="5" cy="16.3" rx="1" ry="1"></ellipse>
                </g>
                <path d="M19.5,38.7 C19.5,29.1 24.7,31.5 31.1,31.5 C37.5,31.5 42.7,30.6 42.7,38.7 C42.7,42.7 37.5,31.7 31.1,31.7 C24.7,31.8 19.5,42.7 19.5,38.7 Z" id="Shape" fill="#99144A"></path>
            </g>
            <g id="Group" transform="translate(44.000000, 25.000000)">
                <path d="M1.1,5.5 L1.1,5.5 L0.8,0.1 L4.9,3.6 L4.9,3.6 C5.1,3.8 5.4,4.1 5.5,4.4 C6.1,5.6 5.6,7 4.5,7.5 C3.3,8.1 1.9,7.6 1.4,6.5 C1.2,6.2 1.1,5.8 1.1,5.5 Z" id="Shape" fill="#0EB2CC"></path>
                <path d="M4.5,7.5 C3.3,8.1 1.9,7.6 1.4,6.5 C1.2,6.2 1.2,5.9 1.2,5.5 L1.2,5.5 L0.9,0.1" id="Shape" fill="#19DAF4"></path>
            </g>
        </g>
    </g>
</svg>