<?xml version="1.0" encoding="UTF-8"?>
<svg width="65px" height="47px" viewBox="0 0 65 47" version="1.1" xmlns="http://www.w3.org/2000/svg" xmlns:xlink="http://www.w3.org/1999/xlink">
    <!-- Generator: Sketch 43.1 (39012) - http://www.bohemiancoding.com/sketch -->
    <title>imgly_sticker_emoticons_rabbit</title>
    <desc>Created with Sketch.</desc>
    <defs></defs>
    <g id="Page-1" stroke="none" stroke-width="1" fill="none" fill-rule="evenodd">
        <g id="rabbit" fill-rule="nonzero">
            <g id="Group" transform="translate(2.000000, 9.000000)">
                <path d="M60.08,22.57 C60.08,34.601 46.837,37.978 30.501,37.978 C14.165,37.978 0.92,34.602 0.92,22.57 C0.92,10.537 14.164,0.783 30.5,0.783 C46.836,0.783 60.08,10.537 60.08,22.57 Z" id="Shape" fill="#ACE8E6"></path>
                <path d="M60.08,22.57 C60.08,34.601 46.837,37.978 30.501,37.978 C14.165,37.978 0.92,34.602 0.92,22.57 C0.92,10.537 14.164,3.808 30.5,3.808 C46.836,3.808 60.08,10.537 60.08,22.57 Z" id="Shape" fill="#8ED6D6"></path>
                <path d="M60.08,22.57 C60.08,34.601 46.837,37.978 30.501,37.978 C14.165,37.978 0.92,34.602 0.92,22.57 C0.92,10.537 14.164,17.078 30.5,17.078 C46.836,17.078 60.08,10.537 60.08,22.57 Z" id="Shape" fill="#76C1BF"></path>
                <g transform="translate(16.000000, 21.000000)" id="Oval" fill="#082856">
                    <circle cx="2.81" cy="3.266" r="2.657"></circle>
                    <circle cx="26.19" cy="3.266" r="2.657"></circle>
                </g>
                <g transform="translate(16.000000, 24.000000)" id="Shape" fill="#000000">
                    <path d="M5.467,0.266 C5.467,1.735 4.278,2.924 2.81,2.924 C1.342,2.924 0.153,1.735 0.153,0.266"></path>
                    <path d="M28.847,0.266 C28.847,1.735 27.658,2.924 26.191,2.924 C24.723,2.924 23.534,1.735 23.534,0.266"></path>
                </g>
            </g>
            <g id="Group">
                <g id="Shape">
                    <path d="M1.466,1.686 C-1.593,4.813 4.383,6.758 9.354,11.616 C14.321,16.477 16.398,22.411 19.457,19.286 C22.513,16.161 20.966,9.686 15.998,4.827 C11.029,-0.033 4.523,-1.439 1.466,1.686 Z" fill="#8ED6D6"></path>
                    <path d="M13.27,6.686 C9.336,2.838 4.445,1.166 1.056,2.184 C-0.934,5.032 4.656,7.022 9.354,11.616 C13.199,15.38 15.313,19.766 17.492,20.114 C19.432,16.746 17.746,11.064 13.27,6.686 Z" fill="#DD4389"></path>
                    <path d="M11.27,8.686 C14.484,11.831 17.339,15.655 17.366,18.803 L17.492,20.114 C19.432,16.747 17.746,11.065 13.27,6.686 C9.336,2.838 4.445,1.166 1.056,2.184" fill="#9B1B61"></path>
                </g>
                <g transform="translate(43.000000, 0.000000)" id="Shape">
                    <path d="M20.534,1.686 C23.594,4.813 17.617,6.758 12.647,11.616 C7.681,16.477 5.603,22.411 2.544,19.286 C-0.512,16.161 1.035,9.686 6.002,4.827 C10.972,-0.033 17.478,-1.439 20.534,1.686 Z" fill="#8ED6D6"></path>
                    <path d="M8.73,6.686 C12.664,2.838 17.556,1.166 20.945,2.184 C22.935,5.032 17.345,7.022 12.647,11.616 C8.802,15.38 6.688,19.766 4.509,20.114 C2.569,16.746 4.254,11.064 8.73,6.686 Z" fill="#DD4389"></path>
                    <path d="M10.73,8.686 C7.516,11.831 4.662,15.655 4.634,18.803 L4.509,20.114 C2.569,16.747 4.254,11.065 8.73,6.686 C12.664,2.838 17.556,1.166 20.945,2.184" fill="#9B1B61"></path>
                </g>
            </g>
            <path d="M38.199,36.141 C38.199,37.758 35.647,40.219 32.501,40.219 C29.353,40.219 26.803,37.758 26.803,36.141 C26.803,34.524 29.353,34.678 32.501,34.678 C35.647,34.678 38.199,34.523 38.199,36.141 Z" id="Shape" fill="#B7257C"></path>
            <path d="M38.199,36.141 C38.199,37.758 35.647,40.219 32.501,40.219 C29.353,40.219 26.803,37.758 26.803,36.141 C26.803,34.524 29.353,36.594 32.501,36.594 C35.647,36.594 38.199,34.523 38.199,36.141 Z" id="Shape" fill="#9B1B61"></path>
            <path d="M32.5,43.846 C31.222,43.846 30,43.799 29,43.721 L29,44.502 C29,45.566 29.788,46.43 30.853,46.43 C31.611,46.43 32.224,45.987 32.539,45.348 C32.853,45.987 33.41,46.43 34.169,46.43 C35.231,46.43 36.001,45.567 36.001,44.502 L36.001,43.721 C35,43.799 33.778,43.846 32.5,43.846 Z" id="Shape" fill="#EBF0F2"></path>
        </g>
    </g>
</svg>