<?xml version="1.0" encoding="UTF-8"?>
<svg width="62px" height="62px" viewBox="0 0 62 62" version="1.1" xmlns="http://www.w3.org/2000/svg" xmlns:xlink="http://www.w3.org/1999/xlink">
    <!-- Generator: Sketch 43.1 (39012) - http://www.bohemiancoding.com/sketch -->
    <title>imgly_sticker_emoticons_boxer</title>
    <desc>Created with Sketch.</desc>
    <defs></defs>
    <g id="Page-1" stroke="none" stroke-width="1" fill="none" fill-rule="evenodd">
        <g id="boxer" fill-rule="nonzero">
            <ellipse id="Oval" fill="#EA7103" transform="translate(25.529970, 52.315670) rotate(-71.885764) translate(-25.529970, -52.315670) " cx="25.52997" cy="52.31567" rx="9.699607" ry="6.79972449"></ellipse>
            <ellipse id="Oval" fill="#EA7103" transform="translate(36.648290, 52.236050) rotate(-108.114236) translate(-36.648290, -52.236050) " cx="36.64829" cy="52.23605" rx="9.699607" ry="6.79972449"></ellipse>
            <g id="Group">
                <g>
                    <path d="M61.3,34.5 C61.3,47.5 49.4,58 31,58 C12.6,58 0.7,47.5 0.7,34.5 C0.7,21.5 12.6,2 31,2 C49.4,2 61.3,21.5 61.3,34.5 Z" id="Shape" fill="#F7910B"></path>
                    <path d="M61.3,34.5 C61.3,47.5 49.4,54 31,54 C12.6,54 0.7,47.5 0.7,34.5 C0.7,21.5 12.6,0 31,0 C49.4,0 61.3,21.5 61.3,34.5 Z" id="Shape" fill="#F7910B"></path>
                    <path d="M31,0 C49.4,0 61.3,21.5 61.3,34.5 C61.3,47.5 49.4,54 31,54" id="Shape" fill="#F9A908"></path>
                    <path d="M61.3,34.5 C61.3,47.5 49.4,54 31,54 C12.6,54 0.7,47.5 0.7,34.5 C0.7,21.5 12.6,2 31,2 C49.4,2 61.3,21.5 61.3,34.5 Z" id="Shape" fill="#F9A908"></path>
                    <path d="M0.7,34.5 C0.7,21.5 12.6,2 31,2" id="Shape" fill="#F9C55D"></path>
                    <path d="M31,2 C49.4,2 61.3,21.5 61.3,34.5 C61.3,47.5 49.4,58 31,58" id="Shape" fill="#F7910B"></path>
                    <path d="M31,2 C49.4,2 61.3,21.5 61.3,34.5" id="Shape" fill="#EA7103"></path>
                    <g transform="translate(17.000000, 26.000000)">
                        <circle id="Oval" fill="#EA7103" cx="3.6" cy="4.6" r="3.2"></circle>
                        <circle id="Oval" fill="#EA7103" cx="24.4" cy="4.6" r="3.2"></circle>
                        <circle id="Oval" fill="#1E4784" cx="3.6" cy="3.6" r="3.2"></circle>
                        <path d="M3.6,0.5 C5.4,0.5 6.8,1.9 6.8,3.7 C6.8,5.5 5.4,6.9 3.6,6.9" id="Shape" fill="#00233F"></path>
                        <circle id="Oval" fill="#1E4784" cx="24.4" cy="3.6" r="3.2"></circle>
                        <path d="M24.4,0.5 C26.2,0.5 27.6,1.9 27.6,3.7 C27.6,5.5 26.2,6.9 24.4,6.9" id="Shape" fill="#00233F"></path>
                    </g>
                    <g transform="translate(19.000000, 20.000000)" id="Shape">
                        <g>
                            <path d="M8.6,7.6 C7.8,8.6 6.5,6.7 4.3,5 C2.2,3.3 8.8817842e-16,2.4 0.8,1.4 C1.6,0.4 4,0.9 6.2,2.6 C8.4,4.3 9.4,6.6 8.6,7.6 Z" fill="#19BCA4"></path>
                            <path d="M8.6,7.6 C7.8,8.6 6.5,6.7 4.3,5 C2.2,3.3 4.4408921e-15,2.4 0.8,1.4" fill="#109DA0"></path>
                        </g>
                        <g transform="translate(15.000000, 0.000000)">
                            <path d="M1.1,6.8 C1.9,7.9 3.3,6 5.5,4.4 C7.7,2.8 9.9,2 9.1,1 C8.3,-0.1 5.9,0.4 3.7,2 C1.5,3.6 0.3,5.8 1.1,6.8 Z" fill="#19BCA4"></path>
                            <path d="M1.1,6.8 C1.9,7.9 3.3,6 5.5,4.4 C7.7,2.8 9.9,2 9.1,1" fill="#109DA0"></path>
                        </g>
                    </g>
                    <g transform="translate(11.000000, 33.000000)" id="Shape">
                        <path d="M15.8,2.7 C15.8,3.9 12.3,3.4 8,3.4 C3.7,3.4 0.2,4 0.2,2.7 C0.2,1.4 3.7,0.5 8,0.5 C12.3,0.5 15.8,1.5 15.8,2.7 Z" fill="#F9C55D"></path>
                        <path d="M39.8,2.7 C39.8,3.9 36.3,3.4 32,3.4 C27.7,3.4 24.2,4 24.2,2.7 C24.2,1.4 27.7,0.5 32,0.5 C36.3,0.5 39.8,1.5 39.8,2.7 Z" fill="#F9A908"></path>
                    </g>
                    <path d="M39,43.2 C39,48 35.4,52 31,52 C26.6,52 23,48.1 23,43.2" id="Shape" fill="#F7910B"></path>
                    <circle id="Oval" fill="#F7910B" cx="9.3" cy="31.4" r="1"></circle>
                    <circle id="Oval" fill="#F7910B" cx="4.8" cy="33.4" r="1.1"></circle>
                    <circle id="Oval" fill="#F7910B" cx="7.8" cy="29.4" r="1"></circle>
                    <circle id="Oval" fill="#F7910B" cx="12.4" cy="31.2" r="1"></circle>
                    <circle id="Oval" fill="#F9A908" cx="51.6" cy="31.8" r="1"></circle>
                    <circle id="Oval" fill="#F9A908" cx="54.1" cy="33.2" r="1"></circle>
                    <circle id="Oval" fill="#F9A908" cx="48.8" cy="24.4" r="1"></circle>
                    <circle id="Oval" fill="#F9A908" cx="48.3" cy="36" r="1.3"></circle>
                    <circle id="Oval" fill="#F9A908" cx="55.5" cy="36.1" r="1"></circle>
                    <circle id="Oval" fill="#F7910B" cx="8.3" cy="35.5" r="1"></circle>
                    <circle id="Oval" fill="#F7910B" cx="9.1" cy="27.1" r="1"></circle>
                    <circle id="Oval" fill="#F9A908" cx="3.8" cy="13.3" r="1.1"></circle>
                    <circle id="Oval" fill="#F9A908" cx="7" cy="9.7" r="1"></circle>
                    <circle id="Oval" fill="#F9A908" cx="58.2" cy="15.7" r="1"></circle>
                    <circle id="Oval" fill="#F9A908" cx="57.4" cy="12.7" r="1"></circle>
                    <circle id="Oval" fill="#F9A908" cx="60" cy="13.3" r="1"></circle>
                    <circle id="Oval" fill="#F9A908" cx="5" cy="16.2" r="1"></circle>
                </g>
                <g transform="translate(12.000000, 33.000000)" id="Shape">
                    <g transform="translate(18.000000, 1.000000)">
                        <path d="M20,16.3 C20,12.8 17.2,10 13.7,10 L11.4,10 C7.9,10 5.1,12.8 5.1,16.3 L5.1,21.6 C5.1,25.1 7.9,27.9 11.4,27.9 L13.7,27.9 C17.2,27.9 20,25.1 20,21.6 L20,16.3 Z" fill="#00233F"></path>
                        <path d="M18,14.3 C18,10.8 15.2,8 11.7,8 L9.4,8 C5.9,8 3.1,10.8 3.1,14.3 L3.1,19.6 C3.1,23.1 5.9,25.9 9.4,25.9 L11.7,25.9 C15.2,25.9 18,23.1 18,19.6 L18,14.3 Z" fill="#BFD4E0"></path>
                        <path d="M2.4,21.5 C2.9,23.8 5.8,25.1 8.9,24.5 L10.7,24.1 C13.8,23.4 15.8,21 15.3,18.7 L14.6,15.5 C14.1,13.2 11.2,11.9 8.1,12.5 L6.3,12.9 C3.2,13.6 1.2,16 1.7,18.3 L2.4,21.5 Z" fill="#720A2D"></path>
                        <path d="M20,8.5 C20,3.8 16.2,0 11.5,0 L8.6,0 C3.9,0 0.1,3.8 0.1,8.5 L0.1,15.4 C0.1,20.1 3.9,23.9 8.6,23.9 L11.5,23.9 C16.2,23.9 20,20.1 20,15.4 L20,8.5 Z" fill="#890E37"></path>
                        <path d="M18,8.5 C18,8.2 17.8,8 17.5,8 L17.5,8 C17.2,8 17,8.2 17,8.5 L17,15.5 C17,15.8 17.2,16 17.5,16 L17.5,16 C17.8,16 18,15.8 18,15.5 L18,8.5 Z" fill="#DD436F"></path>
                    </g>
                    <g>
                        <path d="M16,22.4 C16,26 12.7,29 9,29 L6.8,29 C3.2,29 0,26.1 0,22.4 L0,17.3 C0,13.7 3.2,10.9 6.8,10.9 L9,10.9 C12.6,10.9 16,13.6 16,17.3 L16,22.4 Z" fill="#00233F"></path>
                        <path d="M17,20 C17,23.6 14.4,27 10.8,27 L8.6,27 C5,27 2,23.6 2,20 L2,14.9 C2,11.3 4.9,8 8.6,8 L10.8,8 C14.4,8 17,11.3 17,14.9 L17,20 Z" fill="#BFD4E0"></path>
                        <path d="M18.3,22.2 C17.8,24.6 14.8,26 11.6,25.3 L9.7,24.9 C6.5,24.2 4.4,21.7 4.9,19.3 L5.6,16 C6.1,13.6 9.1,12.2 12.3,12.9 L14.2,13.3 C17.4,14 19.5,16.5 19,18.9 L18.3,22.2 Z" fill="#720A2D"></path>
                        <path d="M21,16.1 C21,21 17,25 12.1,25 L8.9,25 C4,25 0,21 0,16.1 L0,8.9 C0,4 4,0 8.9,0 L12.1,0 C17,0 21,4 21,8.9 L21,16.1 Z" fill="#AA2444"></path>
                        <path d="M3,16.5 C3,16.8 2.8,17 2.5,17 L2.5,17 C2.2,17 2,16.8 2,16.5 L2,8.5 C2,8.2 2.2,8 2.5,8 L2.5,8 C2.8,8 3,8.2 3,8.5 L3,16.5 Z" fill="#DD436F"></path>
                    </g>
                </g>
            </g>
        </g>
    </g>
</svg>