<?xml version="1.0" encoding="UTF-8"?>
<svg width="60px" height="63px" viewBox="0 0 60 63" version="1.1" xmlns="http://www.w3.org/2000/svg" xmlns:xlink="http://www.w3.org/1999/xlink">
    <!-- Generator: Sketch 43.1 (39012) - http://www.bohemiancoding.com/sketch -->
    <title>imgly_sticker_emoticons_business</title>
    <desc>Created with Sketch.</desc>
    <defs></defs>
    <g id="Page-1" stroke="none" stroke-width="1" fill="none" fill-rule="evenodd">
        <g id="business" fill-rule="nonzero">
            <g id="Group" transform="translate(0.000000, 4.000000)">
                <g>
                    <path d="M59.5,33.5 C59.5,46.1 47.9,56.4 30,56.4 C12.1,56.4 0.5,46.2 0.5,33.5 C0.5,20.8 12.1,1.9 30,1.9 C47.9,1.9 59.5,20.9 59.5,33.5 Z" id="Shape" fill="#F7910B"></path>
                    <path d="M59.5,33.5 C59.5,46.1 47.9,52.5 30,52.5 C12.1,52.5 0.5,46.2 0.5,33.5 C0.5,20.8 12.1,0 30,0 C47.9,0 59.5,20.9 59.5,33.5 Z" id="Shape" fill="#F7910B"></path>
                    <path d="M30,0 C47.9,0 59.5,20.9 59.5,33.6 C59.5,46.3 47.9,52.6 30,52.6" id="Shape" fill="#F9A908"></path>
                    <path d="M59.5,33.5 C59.5,46.1 47.9,52.5 30,52.5 C12.1,52.5 0.5,46.2 0.5,33.5 C0.5,20.8 12.1,1.9 30,1.9 C47.9,1.9 59.5,20.9 59.5,33.5 Z" id="Shape" fill="#F9A908"></path>
                    <path d="M0.5,33.5 C0.5,20.9 12.1,1.9 30,1.9" id="Shape" fill="#F9C55D"></path>
                    <path d="M30,1.9 C47.9,1.9 59.5,20.9 59.5,33.5 C59.5,46.1 47.9,56.4 30,56.4" id="Shape" fill="#F7910B"></path>
                    <path d="M30,1.9 C47.9,1.9 59.5,20.9 59.5,33.5" id="Shape" fill="#EA7103"></path>
                    <g transform="translate(17.000000, 8.000000)" id="Shape">
                        <g transform="translate(0.000000, 3.000000)">
                            <path d="M7.1,0.9 C7.3,1.7 5.8,1.7 4.1,2.1 C2.4,2.6 1.1,3.3 0.9,2.5 C0.7,1.7 1.9,0.6 3.6,0.2 C5.3,-0.2 6.9,0.1 7.1,0.9 Z" fill="#19BCA4"></path>
                            <path d="M7.1,0.9 C7.3,1.7 5.8,1.7 4.1,2.1 C2.4,2.6 1.1,3.3 0.9,2.5" fill="#109DA0"></path>
                        </g>
                        <g transform="translate(18.000000, 0.000000)">
                            <path d="M1,0.9 C0.7,1.7 2.1,1.8 3.8,2.5 C5.4,3.2 6.6,4.2 6.9,3.4 C7.2,2.6 6.2,1.4 4.6,0.7 C2.9,0.1 1.4,0.2 1,0.9 Z" fill="#19BCA4"></path>
                            <path d="M1,0.9 C0.7,1.7 2.1,1.8 3.8,2.5 C5.4,3.2 6.6,4.2 6.9,3.4" fill="#109DA0"></path>
                        </g>
                    </g>
                    <circle id="Oval" fill="#F7910B" cx="8.9" cy="30.6" r="1"></circle>
                    <ellipse id="Oval" fill="#F7910B" cx="4.6" cy="32.5" rx="1.1" ry="1.1"></ellipse>
                    <circle id="Oval" fill="#F7910B" cx="7.5" cy="28.6" r="1"></circle>
                    <circle id="Oval" fill="#F7910B" cx="11.9" cy="30.4" r="1"></circle>
                    <circle id="Oval" fill="#F9A908" cx="50" cy="30.9" r="1"></circle>
                    <circle id="Oval" fill="#F9A908" cx="52.4" cy="32.3" r="1"></circle>
                    <circle id="Oval" fill="#F9A908" cx="47.3" cy="23.7" r="1"></circle>
                    <circle id="Oval" fill="#F9A908" cx="46.8" cy="35" r="1.3"></circle>
                    <circle id="Oval" fill="#F9A908" cx="53.8" cy="35.1" r="1"></circle>
                    <circle id="Oval" fill="#F7910B" cx="8" cy="34.5" r="1"></circle>
                    <circle id="Oval" fill="#F7910B" cx="8.7" cy="26.3" r="1"></circle>
                    <ellipse id="Oval" fill="#F9A908" cx="3.6" cy="13" rx="1.1" ry="1.1"></ellipse>
                    <circle id="Oval" fill="#F9A908" cx="6.7" cy="9.5" r="1"></circle>
                    <ellipse id="Oval" fill="#F9A908" cx="56.5" cy="15.3" rx="1" ry="1"></ellipse>
                    <g transform="translate(36.000000, 17.000000)" id="Shape">
                        <path d="M6.9,5.1 C6.9,7 5.4,8.5 3.5,8.5 C1.6,8.5 0.1,7 0.1,5.1 C0.1,3.2 1.6,1.7 3.5,1.7 C5.4,1.7 6.9,3.2 6.9,5.1 Z" fill="#D87703"></path>
                        <path d="M6.9,4.1 C6.9,6 5.4,7.5 3.5,7.5 C1.6,7.5 0.1,6 0.1,4.1 C0.1,2.2 1.6,0.7 3.5,0.7 C5.4,0.7 6.9,2.2 6.9,4.1 Z" fill="#1E4784"></path>
                        <path d="M3.5,0.7 C5.4,0.7 6.9,2.2 6.9,4.1 C6.9,6 5.4,7.5 3.5,7.5" fill="#00233F"></path>
                    </g>
                    <g transform="translate(17.000000, 17.000000)">
                        <circle id="Oval" fill="#D87703" cx="3.9" cy="5.1" r="3.4"></circle>
                        <circle id="Oval" fill="#1E4784" cx="3.9" cy="4.1" r="3.4"></circle>
                        <path d="M3.9,0.7 C5.8,0.7 7.3,2.2 7.3,4.1 C7.3,6 5.8,7.5 3.9,7.5" id="Shape" fill="#00233F"></path>
                    </g>
                    <ellipse id="Oval" fill="#F9A908" cx="55.7" cy="12.4" rx="1" ry="1"></ellipse>
                    <circle id="Oval" fill="#F9A908" cx="58.2" cy="13" r="1"></circle>
                    <ellipse id="Oval" fill="#F9A908" cx="4.7" cy="15.8" rx="1" ry="1"></ellipse>
                    <g transform="translate(10.000000, 24.000000)" id="Shape">
                        <path d="M15.9,3 C15.9,4.2 12.5,3.6 8.3,3.6 C4.1,3.6 0.7,4.2 0.7,3 C0.7,1.8 4.1,0.8 8.3,0.8 C12.5,0.9 15.9,1.8 15.9,3 Z" fill="#F9C55D"></path>
                        <path d="M39.2,3 C39.2,4.2 35.8,3.6 31.6,3.6 C27.4,3.6 24,4.2 24,3 C24,1.8 27.4,0.8 31.6,0.8 C35.8,0.9 39.2,1.8 39.2,3 Z" fill="#F9A908"></path>
                    </g>
                </g>
                <g transform="translate(0.000000, 34.000000)" id="Shape">
                    <path d="M0.5,0 C0.8,12.7 12.3,22.4 30,22.4 C47.7,22.4 59.2,12 59.5,0 L0.5,0 Z" fill="#1E4784"></path>
                    <path d="M30.2,22.4 C47.9,22.4 59.3,12.2 59.4,0 L1,0" fill="#00233F"></path>
                    <path d="M30,22.4 C33.1,22.4 36,22.3 38.6,21.8 L34.6,2 L25.4,2 L21.4,21.8 C24,22.3 26.9,22.4 30,22.4 Z" fill="#FFFBEE"></path>
                </g>
            </g>
            <rect id="Rectangle-path" fill="#F7910B" transform="translate(30.044900, 37.983200) rotate(-45.008103) translate(-30.044900, -37.983200) " x="25.344945" y="33.283245" width="9.39990995" height="9.39990995"></rect>
            <path d="M34,37 L26,37 C25.4,37 25,36.6 25,36 C25,35.4 25.4,35 26,35 L34,35 C34.6,35 35,35.4 35,36 C35,36.6 34.6,37 34,37 Z" id="Shape" fill="#02243E"></path>
            <path d="M52,45 C52,45.5 51.6,46 51,46 L43,46 C42.5,46 42,45.6 42,45 L42,45 C42,44.5 42.4,44 43,44 L51,44 C51.6,44 52,44.4 52,45 L52,45 Z" id="Shape" fill="#FFFBEE"></path>
            <g id="Group" transform="translate(26.000000, 40.000000)">
                <polygon id="Shape" fill="#0C537A" points="1.5 2.3 2.8 4.3 0.8 20.4 3.1 23 4 23 4 0.8"></polygon>
                <polygon id="Shape" fill="#00233F" points="6.5 2.3 5.2 4.3 7.2 20.4 4.9 23 4 23 4 0.8"></polygon>
            </g>
            <polygon id="Shape" fill="#00233F" points="35 8 25 8 25 0.6 27.4 3 35 3"></polygon>
        </g>
    </g>
</svg>