<?xml version="1.0" encoding="UTF-8"?>
<svg width="62px" height="60px" viewBox="0 0 62 60" version="1.1" xmlns="http://www.w3.org/2000/svg" xmlns:xlink="http://www.w3.org/1999/xlink">
    <!-- Generator: Sketch 43.1 (39012) - http://www.bohemiancoding.com/sketch -->
    <title>imgly_sticker_emoticons_tired</title>
    <desc>Created with Sketch.</desc>
    <defs></defs>
    <g id="Page-1" stroke="none" stroke-width="1" fill="none" fill-rule="evenodd">
        <g id="tired" fill-rule="nonzero">
            <g id="Group" transform="translate(0.000000, 1.000000)">
                <path d="M61.3,35.2 C61.3,48.2 49.4,58.7 31,58.7 C12.6,58.7 0.7,48.2 0.7,35.2 C0.7,22.2 12.6,2.7 31,2.7 C49.4,2.7 61.3,22.2 61.3,35.2 Z" id="Shape" fill="#F7910B"></path>
                <path d="M61.3,35.2 C61.3,48.2 49.4,54.7 31,54.7 C12.6,54.7 0.7,48.2 0.7,35.2 C0.7,22.2 12.6,0.7 31,0.7 C49.4,0.7 61.3,22.2 61.3,35.2 Z" id="Shape" fill="#F7910B"></path>
                <path d="M31,0.7 C49.4,0.7 61.3,22.2 61.3,35.2 C61.3,48.2 49.4,54.7 31,54.7" id="Shape" fill="#F9A908"></path>
                <path d="M61.3,35.2 C61.3,48.2 49.4,54.7 31,54.7 C12.6,54.7 0.7,48.2 0.7,35.2 C0.7,22.2 12.6,2.7 31,2.7 C49.4,2.7 61.3,22.2 61.3,35.2 Z" id="Shape" fill="#F9A908"></path>
                <path d="M0.7,35.2 C0.7,22.2 12.6,2.7 31,2.7" id="Shape" fill="#F9C55D"></path>
                <path d="M31,2.7 C49.4,2.7 61.3,22.2 61.3,35.2 C61.3,48.2 49.4,58.7 31,58.7" id="Shape" fill="#F7910B"></path>
                <path d="M31,2.7 C49.4,2.7 61.3,22.2 61.3,35.2" id="Shape" fill="#EA7103"></path>
                <ellipse id="Oval" fill="#F7910B" cx="9.3" cy="32.1" rx="1" ry="1"></ellipse>
                <ellipse id="Oval" fill="#F7910B" cx="4.8" cy="34.1" rx="1.1" ry="1.1"></ellipse>
                <circle id="Oval" fill="#F7910B" cx="7.8" cy="30.1" r="1"></circle>
                <circle id="Oval" fill="#F7910B" cx="12.4" cy="32" r="1"></circle>
                <circle id="Oval" fill="#F9A908" cx="51.6" cy="32.5" r="1"></circle>
                <circle id="Oval" fill="#F9A908" cx="54.1" cy="33.9" r="1"></circle>
                <circle id="Oval" fill="#F9A908" cx="48.8" cy="25.1" r="1"></circle>
                <ellipse id="Oval" fill="#F9A908" cx="48.3" cy="36.7" rx="1.3" ry="1.3"></ellipse>
                <circle id="Oval" fill="#F9A908" cx="55.5" cy="36.8" r="1"></circle>
                <circle id="Oval" fill="#F7910B" cx="8.3" cy="36.2" r="1"></circle>
                <circle id="Oval" fill="#F7910B" cx="9.1" cy="27.8" r="1"></circle>
                <circle id="Oval" fill="#F9A908" cx="3.8" cy="14" r="1.1"></circle>
                <ellipse id="Oval" fill="#F9A908" cx="7" cy="10.5" rx="1" ry="1"></ellipse>
                <circle id="Oval" fill="#F9A908" cx="58.2" cy="16.4" r="1"></circle>
                <ellipse id="Oval" fill="#F9A908" cx="57.4" cy="13.5" rx="1" ry="1"></ellipse>
                <circle id="Oval" fill="#F9A908" cx="60" cy="14" r="1"></circle>
                <ellipse id="Oval" fill="#F9A908" cx="5" cy="17" rx="1" ry="1"></ellipse>
                <path d="M38.2,45.6 C38.2,48.2 34.9,52.8 30.8,52.8 C26.7,52.8 23.4,48.2 23.4,45.6" id="Shape" fill="#F7910B"></path>
                <g transform="translate(15.000000, 18.000000)">
                    <circle id="Oval" fill="#D87703" cx="4.6" cy="5.7" r="3.5"></circle>
                    <path d="M30.9,5.7 C30.9,7.6 29.3,9.2 27.4,9.2 C25.5,9.2 23.9,7.6 23.9,5.7 C23.9,3.8 25.5,2.2 27.4,2.2 C29.4,2.2 30.9,3.8 30.9,5.7 Z" id="Shape" fill="#D87703"></path>
                    <circle id="Oval" fill="#1E4784" cx="4.6" cy="4.7" r="3.5"></circle>
                    <path d="M4.6,1.2 C6.5,1.2 8.1,2.8 8.1,4.7 C8.1,6.6 6.5,8.2 4.6,8.2" id="Shape" fill="#00233F"></path>
                    <path d="M30.9,4.7 C30.9,6.6 29.3,8.2 27.4,8.2 C25.5,8.2 23.9,6.6 23.9,4.7 C23.9,2.8 25.5,1.2 27.4,1.2 C29.4,1.2 30.9,2.8 30.9,4.7 Z" id="Shape" fill="#1E4784"></path>
                    <path d="M27.4,1.2 C29.3,1.2 30.9,2.8 30.9,4.7 C30.9,6.6 29.3,8.2 27.4,8.2" id="Shape" fill="#00233F"></path>
                    <path d="M0.5,4.3 C0.5,2 2.3,0.2 4.6,0.2 C6.9,0.2 8.7,2 8.7,4.3" id="Shape" fill="#F9A908"></path>
                    <path d="M23.3,4.3 C23.3,2 25.1,0.2 27.4,0.2 C29.7,0.2 31.5,2 31.5,4.3" id="Shape" fill="#F7910B"></path>
                </g>
                <g transform="translate(11.000000, 26.000000)" id="Shape">
                    <path d="M15.8,2.5 C15.8,3.7 12.3,3.2 8,3.2 C3.7,3.2 0.2,3.8 0.2,2.5 C0.2,1.3 3.7,0.3 8,0.3 C12.3,0.3 15.8,1.3 15.8,2.5 Z" fill="#F9C55D"></path>
                    <path d="M39.8,2.5 C39.8,3.7 36.3,3.2 32,3.2 C27.7,3.2 24.2,3.8 24.2,2.5 C24.2,1.3 27.7,0.3 32,0.3 C36.3,0.3 39.8,1.3 39.8,2.5 Z" fill="#F9A908"></path>
                </g>
            </g>
            <g id="Group" transform="translate(23.000000, 39.000000)">
                <path d="M15.6,5.8 C15.6,9.6 12.2,11.1 8,11.1 C3.8,11.1 0.4,9.6 0.4,5.8 C0.4,2 3.8,0 8,0 C12.2,0 15.6,2 15.6,5.8 Z" id="Shape" fill="#C42260"></path>
                <path d="M15.5,6.9 C14.6,6.7 13.6,6.6 12.5,6.6 C10.9,6.6 9.3,6.8 8,7.3 C6.7,6.9 5.1,6.6 3.5,6.6 C2.5,6.6 1.5,6.7 0.5,6.9 C1.1,9.9 4.2,11.2 8,11.2 C11.8,11.1 14.9,9.9 15.5,6.9 Z" id="Shape" fill="#E2446E"></path>
                <path d="M15.3,4 C14.4,1 11.5,0 8,0 C4.5,0 1.6,1 0.7,4 L15.3,4 Z" id="Shape" fill="#99144A"></path>
            </g>
            <g id="Group" transform="translate(46.000000, 0.000000)">
                <path d="M11.2,12.1 L11.2,12.1 L6.2,0.4 L1.2,12.1 L1.2,12.1 C0.9,12.8 0.7,13.5 0.7,14.3 C0.7,17.3 3.1,19.7 6.1,19.7 C9.1,19.7 11.5,17.3 11.5,14.3 C11.6,13.5 11.5,12.7 11.2,12.1 Z" id="Shape" fill="#19DAF4"></path>
                <path d="M6.2,19.7 C9.2,19.7 11.6,17.3 11.6,14.3 C11.6,13.5 11.4,12.7 11.1,12.1 L11.1,12.1 L6.1,0.4" id="Shape" fill="#0EB2CC"></path>
            </g>
            <g id="Group" transform="translate(47.000000, 19.000000)">
                <path d="M9.4,10 L9.4,10 L5.2,0.1 L1,10 L1,10 C0.7,10.6 0.6,11.2 0.6,11.9 C0.6,14.4 2.6,16.5 5.2,16.5 C7.7,16.5 9.8,14.5 9.8,11.9 C9.8,11.2 9.6,10.6 9.4,10 Z" id="Shape" fill="#19DAF4"></path>
                <path d="M5.2,16.5 C7.7,16.5 9.8,14.5 9.8,11.9 C9.8,11.2 9.7,10.6 9.4,10 L9.4,10 L5.2,0.2" id="Shape" fill="#0EB2CC"></path>
            </g>
            <g id="Group" transform="translate(4.000000, 0.000000)" fill="#92CFDD">
                <path d="M1,11.2 C1,11.4 0.7,11.7 0.5,11.7 L0.5,11.7 C0.2,11.7 0,11.5 0,11.2 L0,4.9 C0,4.7 0.2,4.4 0.5,4.4 L0.5,4.4 C0.7,4.4 1,4.6 1,4.9 L1,11.2 Z" id="Shape"></path>
                <path d="M4,8.5 C4,8.7 3.8,9 3.5,9 L3.5,9 C3.2,9 3,8.8 3,8.5 L3,2.1 C3,1.9 3.2,1.6 3.5,1.6 L3.5,1.6 C3.8,1.7 4,1.9 4,2.1 L4,8.5 Z" id="Shape"></path>
                <path d="M7,7.6 C7,7.8 6.8,8.1 6.5,8.1 L6.5,8.1 C6.2,8 6,7.8 6,7.6 L6,1.2 C6,1 6.2,0.7 6.5,0.7 L6.5,0.7 C6.8,0.8 7,1 7,1.2 L7,7.6 Z" id="Shape"></path>
            </g>
            <g id="Group" transform="translate(18.000000, 9.000000)" fill="#19BCA4">
                <path d="M5.2,2.2 C5.2,3.2 4.1,2.7 2.7,2.7 C1.3,2.7 0.2,3.2 0.2,2.2 C0.2,1.2 1.3,0.5 2.7,0.5 C4.1,0.5 5.2,1.2 5.2,2.2 Z" id="Shape"></path>
                <path d="M20.8,2.2 C20.8,3.2 21.9,2.7 23.3,2.7 C24.7,2.7 25.8,3.2 25.8,2.2 C25.8,1.2 24.7,0.5 23.3,0.5 C21.9,0.5 20.8,1.2 20.8,2.2 Z" id="Shape"></path>
            </g>
        </g>
    </g>
</svg>