<?xml version="1.0" encoding="UTF-8"?>
<svg width="1912px" height="2039px" viewBox="0 0 1912 2039" version="1.1" xmlns="http://www.w3.org/2000/svg" xmlns:xlink="http://www.w3.org/1999/xlink">
    <!-- Generator: Sketch 43.1 (39012) - http://www.bohemiancoding.com/sketch -->
    <title>imgly_sticker_shapes_spray_01</title>
    <desc>Created with Sketch.</desc>
    <defs></defs>
    <g id="Page-1" stroke="none" stroke-width="1" fill="none" fill-rule="evenodd">
        <g id="Artboard" transform="translate(-1203.000000, -10871.000000)" fill-rule="nonzero" fill="#FFFFFF">
            <g id="spray_01" transform="translate(1203.000000, 10871.000000)">
                <path d="M164.939823,866.810603 C167.157262,860.437262 168.549273,854.365907 177.953977,853.951755 C184.22378,853.67853 192.279614,850.911763 195.983975,846.364718 C200.525268,840.785169 209.150561,839.459307 210.807169,831.440862 C199.699839,829.930932 202.731203,812.973704 190.300887,812.763752 C180.010358,812.588313 169.452355,807.118054 159.443679,816.609039 C157.263628,807.920473 161.991865,805.360783 166.55329,804.149963 C174.347403,802.079203 186.708693,810.992101 188.186986,794.587076 C193.576715,795.231313 200.835882,794.167172 201.721707,801.328552 C202.535631,807.900341 205.742434,811.932572 210.962476,810.060259 C217.459487,807.724901 225.265104,803.58338 228.121028,797.986575 C231.468758,791.42629 222.429313,789.105313 216.941797,786.163107 C223.165583,781.797254 228.351113,782.306315 232.995944,786.683673 C238.443194,791.80593 244.908569,798.814879 251.043197,790.270115 C258.158561,780.37073 246.412746,779.085132 241.198456,775.165068 C241.198456,775.165068 241.307746,775.461301 241.310623,775.461301 C245.699485,769.904761 251.069082,769.067828 257.428042,771.80871 C265.156006,775.136307 273.597231,772.642766 279.357972,769.214507 C284.972034,765.881158 278.190293,766.030713 275.81467,765.616561 L276.062011,765.90129 C267.502868,755.15922 260.721127,743.341504 254.946006,730.916941 L254.710169,731.221803 C264.298941,717.91429 258.276479,700.160394 240.801561,693.154321 C249.521763,689.038685 258.244842,695.242338 266.015946,690.876485 C269.248634,689.061693 274.34213,689.777831 274.04302,684.143637 C273.801431,679.631104 271.210104,678.083786 266.617042,676.795313 C256.585358,673.979654 258.612977,673.717932 260.706746,662.814803 C262.127518,655.388825 258.121172,647.606217 264.718845,639.953031 C267.186501,637.091355 260.068262,634.730113 256.268992,635.446251 C248.687707,636.878527 241.250225,638.808361 230.758372,635.814386 C243.309482,622.604659 262.371983,631.730386 272.101682,619.078614 L271.793944,618.770876 C271.310766,628.408541 276.19431,633.858668 285.276896,636.041594 C260.344363,639.334679 275.99011,656.619777 273.922225,670.864885 C281.238913,650.660589 291.6186,660.919482 302.294521,666.999465 C299.197008,659.182344 289.613989,657.537239 293.223439,649.567687 C297.327572,640.505234 289.317755,639.403704 284.917389,635.831642 C293.853296,633.778138 303.082561,629.783296 308.426273,642.181975 C310.373363,646.703135 313.654944,648.748011 315.507124,641.51473 C316.689183,636.887155 320.939994,636.145132 322.708769,639.602152 C329.010208,651.905921 335.187977,641.465837 341.449152,640.260769 C345.047099,639.564763 348.596152,638.69907 347.399713,634.134769 C346.476499,630.594344 346.163008,625.946637 340.896949,625.437575 C333.735569,624.744445 326.404501,621.810868 319.524975,626.239994 C310.899682,631.790783 309.205685,623.001555 305.3,619.337459 C301.581259,615.854555 304.785186,612.794431 307.658366,611.514586 C312.311825,609.45533 316.706439,605.932161 321.860332,612.972746 C331.963918,626.772065 339.898958,610.168592 347.166752,607.686555 C356.094031,604.635059 341.6476,598.989361 341.210439,591.606524 C356.249338,597.056651 368.872349,584.945577 383.658155,587.516772 C386.959868,588.089107 392.171282,584.726997 393.934304,579.869338 C394.774113,577.556989 394.756856,575.261896 392.585434,573.838248 C387.437293,570.461758 384.265003,573.996431 381.199127,577.459203 C377.814008,581.281482 375.294583,578.885727 372.898828,576.285772 C369.364155,572.454865 365.846738,568.75338 359.890425,571.229665 L360.24418,571.534527 C359.297958,566.763149 358.351735,561.991772 357.454406,557.467735 C353.98013,556.978806 353.269744,559.483851 351.84322,561.07431 C349.470473,563.71453 345.976065,566.475544 343.476772,562.986887 C340.802039,559.256642 344.759493,557.136989 348.084214,556.000946 C363.399214,550.7694 376.729735,537.450383 395.214149,544.830344 C398.185115,546.018155 399.833096,542.374192 400.839715,539.696583 C409.508149,516.624859 403.379273,508.284296 376.78438,506.915293 L377.115127,507.19427 C384.477831,499.423166 396.5774,493.377696 387.241721,479.5036 L386.882214,479.736561 C395.933163,481.985637 404.523944,487.432887 414.3428,483.958611 C416.775944,479.138341 405.680118,480.909992 410.356586,475.445485 C412.758093,472.638454 415.89587,472.109259 419.404659,474.421608 C421.70838,475.940166 424.857662,476.227772 427.060721,477.838363 C434.616121,483.371896 438.789279,476.782851 442.735228,472.943315 C449.002155,466.8432 439.419135,466.708025 438.133538,463.271138 C437.172935,460.694192 436.062777,458.169014 435.018769,455.615076 L434.74842,455.945823 C446.025437,454.358239 455.476158,441.183025 468.898713,451.211834 C471.305972,453.015121 477.414715,451.884831 476.258541,444.05333 C474.947059,435.180696 471.538932,428.35869 465.435941,422.111896 C462.631786,419.241592 453.983485,416.4058 461.182254,411.165625 C465.464701,408.04798 474.038225,410.538645 475.50789,416.095186 C477.782851,424.662958 480.704924,425.545907 487.797279,421.689115 C491.651194,419.595346 497.434944,419.534949 497.512597,413.857614 C497.581623,408.841772 492.53702,408.479389 488.824031,407.478521 C478.930397,404.803789 482.062423,400.869344 487.515425,396.325175 C491.21691,393.242042 496.997783,392.157769 498.153958,384.820949 C488.852792,383.667651 480.940761,386.67313 473.117887,390.4724 C469.620603,392.172149 465.591248,394.711707 462.907887,389.592327 C461.372073,386.661625 459.640687,382.928504 460.224527,379.997803 C461.144865,375.393237 465.901862,375.488146 469.902456,375.292575 C475.884654,375.010721 481.875479,379.830992 488.038868,375.180408 C488.309217,369.068789 482.344276,368.896225 479.117341,366.592504 C474.426493,363.23327 470.854431,360.670704 475.50789,354.679879 C485.605724,341.677228 475.599924,341.038744 466.364907,340.259332 C462.436214,339.928586 458.458628,340.242076 454.509803,340.060885 C448.214115,339.764651 446.200876,335.470699 448.812335,330.846 C452.016262,325.174417 462.893507,322.844811 455.171296,312.913789 C454.337239,311.843896 458.294693,310.569803 460.448859,311.648324 C463.296155,313.074848 468.619735,315.433214 468.409783,316.22413 C461.734456,341.769262 481.708668,328.573915 490.38573,331.435592 C492.421977,332.105713 494.748707,331.918769 497.317025,332.163234 C487.662104,343.034727 496.96327,358.309462 516.083293,364.078831 C518.217327,359.24418 513.192856,359.0256 511.441338,356.667234 C508.197146,352.298504 508.346701,347.420713 513.89749,346.034454 C516.963366,345.26367 523.753735,343.517904 523.578296,351.366662 C523.155515,370.567214 534.792039,362.554521 543.983915,361.130873 C545.815963,354.285859 526.106349,345.14 546.463076,341.737625 C547.325893,341.228563 548.260611,340.699369 549.229842,340.167299 C550.555704,339.779031 551.881566,339.387887 553.218932,339.002496 C553.224685,338.99962 553.207428,338.594096 553.207428,338.594096 C553.696358,350.109825 561.847101,355.594465 570.567304,360.64482 C563.21898,374.099011 552.847921,382.741561 536.845544,384.616749 C532.425045,385.134439 523.003085,378.896273 523.644445,388.34987 C524.104614,395.148868 532.931231,394.078975 539.215414,392.830766 C542.985924,392.080115 546.954882,392.41949 550.771408,391.824146 C569.163789,388.945214 576.549501,376.954935 570.276823,360.423363 C576.05482,362.60629 582.471301,364.789217 585.123025,370.518321 C592.712938,386.923346 609.44871,386.635741 622.877017,390.340101 C635.005346,393.684955 635.445383,383.943752 632.091901,374.777761 C643.558738,367.190724 658.744315,370.728273 670.944546,362.681068 C664.464792,356.07189 657.498983,357.446645 650.337603,357.09289 C633.115777,356.241577 630.228217,358.525166 632.405392,375.04811 C629.929107,373.730876 626.707924,370.673628 625.080076,371.366758 C607.53038,378.81862 608.398949,357.446645 597.82369,354.334752 C605.813375,350.331282 604.898789,340.690741 610.130335,334.924248 C621.485006,322.404775 634.970834,324.320228 643.886608,340.190307 C645.333265,342.767254 646.147189,346.05171 649.198685,345.755476 C656.85187,345.01633 647.613977,336.905851 654.315189,333.903248 C660.619504,331.081837 653.340206,330.555518 652.181155,329.980307 C647.087659,327.437873 641.467845,325.72662 641.841732,318.317899 C642.24438,310.362727 652.086245,318.737803 652.813887,311.930177 C654.159882,304.179206 638.3502,310.129766 643.153214,299.016685 C647.766408,288.346515 656.216262,282.795727 666.43489,279.471006 C670.055845,278.291823 670.438361,281.740214 670.403848,284.898124 C670.30031,294.82627 678.678262,296.442614 684.723732,300.750946 C689.558383,292.099769 674.410194,285.237499 684.617318,277.270823 C686.644938,275.691868 689.667673,269.013665 690.196868,273.414031 C692.141082,289.735651 716.006597,277.5498 711.525701,285.746561 C706.156104,295.571169 698.284338,309.269825 683.481276,311.976194 C681.255208,312.38747 678.86233,312.329949 676.811701,313.152501 C671.939662,315.113972 663.532949,310.581307 662.356642,318.107946 C661.355775,324.510048 669.333955,324.397882 673.742949,325.677727 C683.538797,328.522146 675.497344,340.219068 684.913552,343.043355 C694.72378,336.833949 692.785318,323.083524 700.044485,312.416231 C727.781172,333.768073 751.295808,318.806828 774.862214,300.768203 C768.419848,295.309448 756.446825,289.120175 771.715808,279.505518 L771.341921,279.249549 C775.3684,287.592989 810.749645,303.434307 818.172746,300.172859 C819.153482,299.744327 820.654783,299.019561 820.749693,298.286166 C823.507831,276.330352 840.798682,283.647039 853.332535,282.628915 C860.076887,282.076713 866.444476,282.6548 872.794808,278.936059 C884.957651,271.812068 895.156146,286.661146 907.819423,283.209879 C909.697487,282.695065 909.297715,289.767287 904.140946,290.796915 C899.030194,291.809287 893.234941,289.839189 888.07242,293.99509 C909.611206,302.186099 918.650651,296.390845 918.549989,274.987234 C918.538485,271.760299 918.762817,268.124963 921.955239,269.039549 C930.045586,271.363403 938.23947,263.434115 945.97031,269.772944 C945.559034,255.093552 945.559034,255.093552 912.098994,243.287341 L942.904434,243.287341 C943.925434,231.921166 932.447093,234.736825 927.963321,229.674966 C944.986699,221.58462 974.170042,228.35198 982.52211,241.958603 C986.43067,248.340572 981.673673,249.721079 977.143885,251.075701 C972.248837,252.539614 967.212862,248.303183 959.467642,253.028544 C968.317268,262.01622 977.874403,267.848862 987.86007,259.821789 C996.18913,253.117701 1004.92659,252.240504 1016.70692,250.28191 C1004.44629,241.972983 1008.12476,239.453558 1017.72504,232.726462 C1030.45734,223.802059 1041.75449,215.648439 1059.37896,218.584893 C1055.59983,225.657115 1056.59494,235.056068 1045.68894,236.911124 C1043.60092,237.270631 1041.55604,239.574352 1042.83014,242.122538 C1044.42922,245.320713 1047.62452,244.897932 1050.08067,243.511673 C1052.99412,241.878073 1055.61708,239.637625 1058.11062,237.379921 C1063.17536,232.789735 1069.26685,231.095738 1075.37846,233.364946 C1083.44293,236.358921 1076.41097,241.219456 1076.37646,245.424251 C1076.30743,253.0458 1082.47945,252.597135 1087.15016,249.916651 C1090.36272,248.078851 1090.60143,240.437169 1096.93451,245.064744 C1103.77377,250.066206 1092.71246,253.411059 1096.61239,260.066254 C1111.26302,245.838403 1128.06494,252.631648 1144.64828,255.4962 C1153.42601,257.009006 1161.72055,272.231972 1158.47924,282.128482 C1155.1085,292.404631 1147.90398,293.270324 1138.14264,290.394268 C1129.20674,287.762676 1119.5058,278.168152 1110.72232,294.144645 C1108.26617,298.619789 1092.71821,295.901915 1083.18983,296.482879 C1083.61261,296.111868 1083.99513,295.671831 1084.46968,295.384225 C1092.23791,290.678997 1083.64713,279.051101 1093.07196,275.056259 C1086.1493,267.489355 1084.22521,277.296707 1079.85936,278.682966 C1078.75208,279.030969 1076.8999,277.664842 1075.64019,276.735876 C1071.85817,273.957606 1067.2306,270.978011 1063.67292,275.131037 C1058.72322,280.903282 1066.05717,283.652792 1068.49319,287.47507 C1071.95021,292.913693 1076.33044,297.092603 1083.53208,296.249918 C1089.72999,304.555969 1101.82955,295.41011 1107.78299,304.452431 C1119.72438,295.044851 1115.01052,309.816276 1118.85006,312.611803 C1125.59441,309.436637 1129.54323,302.171718 1137.42363,301.34629 C1142.80185,300.785459 1149.84819,297.066718 1152.40788,303.569482 C1154.9043,309.919814 1144.53036,308.038873 1142.83924,313.273296 C1146.3394,318.950631 1153.09238,316.534744 1157.82925,319.088682 C1160.2135,320.371403 1164.07029,320.756794 1164.98488,322.646363 C1171.36972,335.798569 1171.17415,335.890603 1184.27171,332.427831 C1185.4135,349.920006 1193.25076,352.796062 1209.92613,341.815279 C1207.6598,336.963372 1202.99196,339.318862 1199.44578,338.343879 C1196.51796,337.544335 1194.15959,336.114935 1193.80296,332.859239 C1193.45496,329.712834 1194.86135,326.580808 1197.95886,326.580808 C1215.90833,326.580808 1197.36352,313.627051 1204.07048,309.79902 C1202.29308,307.14442 1199.93471,306.117668 1196.88034,307.397513 C1184.25733,312.692332 1176.3568,312.807375 1161.90174,306.963228 C1173.95817,310.351223 1179.73042,294.699724 1196.25624,300.696301 C1213.63337,307.000617 1224.08496,307.96122 1221.68633,323.330865 C1227.62826,325.482155 1229.39703,316.782085 1235.96307,318.772315 C1232.05739,334.455451 1249.35686,333.051935 1255.33619,341.542054 C1249.02037,342.217927 1242.33354,340.313977 1236.59293,343.607062 C1241.43333,358.691977 1252.83114,358.812772 1262.7219,353.7164 C1267.96495,351.015783 1263.30574,343.957941 1258.00229,340.774146 C1268.30432,344.550408 1277.94774,335.554104 1288.94578,339.738766 C1293.43243,341.447144 1297.38125,341.599575 1298.14341,346.747715 C1300.0905,359.865408 1303.23403,361.358082 1314.62321,353.952237 C1317.90192,351.821079 1320.6428,348.507862 1324.16597,347.184876 C1330.09064,344.967437 1334.75848,348.614276 1339.46946,351.982138 C1346.96446,357.331603 1338.50311,358.795515 1337.31817,361.973558 C1335.78523,366.086318 1337.60003,369.644 1338.7562,373.267831 C1333.34059,368.157079 1327.93648,363.121104 1318.72159,354.527448 C1325.05467,370.780042 1315.45439,374.881299 1308.98039,377.492758 C1294.6375,383.282259 1309.31976,398.752566 1298.35624,404.691623 C1299.64471,405.666606 1300.80088,406.978087 1302.25042,407.561927 C1319.3457,414.452958 1338.45997,401.421546 1337.90489,383.322524 C1343.64262,391.312208 1353.31192,391.355349 1361.32749,394.677194 C1362.96397,395.353068 1366.41236,394.645558 1367.28955,393.380093 C1368.18688,392.088744 1367.39022,387.668245 1366.57054,387.446789 C1359.46381,385.528459 1357.26075,373.912068 1347.43039,377.757355 C1351.84801,371.662992 1357.03641,366.454454 1364.88517,365.470842 C1369.96141,364.835234 1378.04313,360.478008 1379.0555,368.065045 C1379.93557,374.674223 1372.86623,377.786115 1363.73475,373.216062 C1371.07157,389.12353 1385.53238,392.134761 1395.23332,400.716913 C1398.79675,403.871946 1421.98064,390.777262 1425.36001,384.058794 C1428.05775,378.686321 1430.2982,371.815423 1436.47597,380.193375 C1444.61808,391.228803 1450.21776,384.559228 1454.44269,377.783239 C1459.93021,368.976755 1466.14249,365.344296 1479.91017,370.383146 C1463.50514,372.827794 1463.14276,386.589724 1454.98914,394.050214 C1447.71847,400.702532 1443.02762,409.914541 1432.30856,412.549008 C1429.04136,413.348552 1425.87195,415.301394 1425.49518,419.209955 C1425.04652,423.77138 1428.92632,424.280442 1432.01808,425.545907 C1442.52144,429.862868 1450.26666,435.353259 1449.18814,449.135321 C1448.49501,457.950434 1454.52034,465.422428 1463.71797,467.202707 C1471.99239,468.80467 1477.50579,472.882918 1483.21188,478.81047 C1488.15295,483.941355 1494.81965,496.489589 1502.8007,480.740304 C1506.0679,482.713279 1517.76482,468.502685 1513.40185,486.687989 C1512.46137,490.608054 1521.21609,487.674476 1521.69064,485.014124 C1523.89945,472.615445 1534.17848,472.612569 1542.76926,469.609966 C1547.03732,468.117293 1552.13945,464.927746 1554.08941,471.163037 C1556.00199,477.309169 1550.21249,479.635899 1545.49576,481.680775 C1541.70224,483.328755 1533.39619,477.510493 1534.5236,486.739758 C1535.4008,493.909766 1541.26795,488.793262 1545.24842,488.862287 C1556.53406,489.063611 1549.91626,495.75907 1548.86362,500.355008 L1549.16273,500.035766 C1536.41605,497.352406 1528.63632,506.685208 1517.46859,511.629149 C1529.62855,522.287814 1536.24348,505.198287 1545.6712,508.787606 C1546.4391,515.031524 1550.77907,516.834811 1556.2177,517.283476 C1568.97588,510.76058 1581.75132,504.663341 1596.06833,516.739901 C1585.09618,525.905893 1572.99948,532.736527 1554.45755,534.232076 C1566.03655,542.425961 1577.4775,540.726211 1584.63026,547.916352 C1577.96643,546.314389 1570.96324,547.185834 1569.43605,554.134386 C1567.86285,561.290014 1575.47865,560.263262 1580.05157,561.462577 C1582.14822,562.009028 1584.79994,562.509462 1586.02227,563.999259 C1594.51239,574.335806 1603.94585,564.657876 1612.81848,565.558082 C1612.95654,554.836144 1602.16845,556.346073 1597.03469,551.517175 C1595.83825,550.392637 1594.21903,549.713887 1592.79826,548.828062 C1597.81697,549.495307 1602.82131,550.473166 1607.86304,550.789532 C1628.18525,552.057873 1641.41511,563.182459 1641.84652,581.629485 C1642.00758,588.155256 1637.1039,594.626383 1629.04519,594.660896 C1621.41502,594.698285 1614.47509,598.704631 1613.64966,604.402099 C1612.71782,610.887606 1620.53782,611.690025 1626.45099,611.609496 C1628.84962,611.572107 1631.09295,612.633372 1631.35467,615.247707 C1631.74294,619.098746 1628.96179,619.973068 1625.85852,619.858025 C1617.31664,619.550287 1609.08249,619.904042 1601.23661,630.669121 C1616.26112,626.901487 1630.52349,637.079851 1640.68459,625.515228 C1646.65816,618.716231 1649.7643,614.985986 1657.11838,622.055332 L1656.84803,621.831 C1656.6956,634.787634 1642.93079,646.875699 1656.18941,660.646256 C1648.82959,662.2626 1643.57791,660.922358 1638.32335,659.196724 C1635.66012,658.319527 1636.6121,648.762392 1629.51974,657.229501 C1623.13777,664.851051 1625.38685,669.94167 1627.98393,676.737792 C1629.96266,681.934825 1634.19909,684.390977 1638.65122,682.481276 C1649.51984,677.819189 1632.83584,675.340028 1638.81516,669.265797 C1650.04328,677.120307 1663.0258,683.024851 1675.79261,689.337794 C1679.88524,691.356786 1686.03425,694.41691 1678.16824,700.358842 C1676.39371,701.699085 1668.47305,697.336107 1672.92519,704.529124 C1674.74285,707.465577 1673.77937,716.464758 1682.45644,711.78829 C1684.91834,710.465304 1687.51254,711.989614 1689.59481,714.615454 C1703.20143,731.762501 1704.29721,731.854535 1722.07699,719.4386 C1724.30018,717.882654 1726.41983,716.168524 1728.47621,714.612577 C1733.72502,718.181763 1732.13168,722.133465 1729.99477,725.317259 C1724.9588,732.812262 1726.17537,736.807104 1733.9551,742.691515 C1746.67302,752.3148 1740.89215,771.457831 1725.92228,778.550186 C1715.47069,783.502755 1701.29461,777.672989 1693.85425,789.994014 C1689.9917,796.387487 1686.62384,803.071442 1682.97125,809.729513 C1689.3791,810.948961 1694.05557,806.890845 1699.20946,803.646654 C1713.87448,794.405885 1729.04567,800.655555 1729.06005,817.87738 C1729.06868,830.943304 1733.64161,829.249307 1741.6543,826.255332 C1745.30114,824.894958 1748.80418,822.996761 1752.55168,822.139696 C1756.67595,821.196349 1761.93625,818.317417 1764.63399,823.960239 C1767.75452,830.465879 1761.39555,830.698839 1757.81774,832.970924 C1752.9457,836.068437 1745.03942,838.527465 1752.55168,846.614935 C1749.19532,847.241915 1743.98679,849.165997 1745.54273,851.85511 C1748.40728,856.801927 1752.70411,861.863786 1759.22413,862.925051 C1761.99953,863.373715 1765.30987,862.766868 1765.75566,859.269583 C1766.3395,854.69953 1763.06942,852.35842 1759.38232,850.500487 C1756.91754,849.260907 1754.57067,847.765358 1752.17492,846.384851 C1763.79706,847.932169 1778.07093,844.144403 1782.0025,861.210921 C1782.24696,862.280814 1783.34274,863.986315 1783.05514,864.225028 C1768.93945,876.108893 1781.73215,877.075248 1794.93037,878.749113 C1767.09302,896.103237 1785.48253,913.264665 1788.51964,929.761724 C1789.13224,933.100825 1794.49321,936.143693 1788.71234,938.85869 C1784.75201,940.716623 1780.41492,938.32662 1779.19547,934.24262 C1777.62514,928.967932 1776.29065,923.581079 1769.56931,925.407375 C1759.55488,928.125248 1770.25956,933.212992 1768.79852,937.19633 C1766.4229,943.727854 1763.59286,950.129955 1761.31503,956.670107 C1755.70959,972.781775 1767.90119,991.154023 1750.73689,1007.62807 C1763.0119,1004.56795 1766.37976,1015.1087 1775.97141,1016.0089 C1760.17323,984.749045 1790.46386,996.897507 1799.99223,989.126403 L1799.72476,988.838797 C1799.85993,991.901797 1795.37904,997.297279 1803.67358,996.175617 C1809.19561,995.427842 1814.85857,995.580273 1820.33458,994.645555 C1828.33001,993.282304 1833.4724,998.418941 1833.71399,1004.20269 C1834.08788,1013.29678 1825.75882,1009.20415 1820.86665,1009.4141 C1809.23588,1009.92892 1808.49385,1010.23666 1803.39173,1020.31723 C1802.9747,1021.12828 1801.85592,1021.98247 1800.97009,1022.09464 C1772.50864,1025.81338 1800.77452,1032.99201 1800.09002,1039.17554 C1792.96027,1037.40676 1786.03473,1035.95148 1779.28463,1033.94111 C1772.78761,1032.0084 1765.80743,1028.47661 1760.50398,1034.82406 C1754.39236,1042.13212 1766.72201,1044.23164 1766.0864,1050.40941 C1749.74177,1049.89172 1754.48727,1059.04908 1758.22902,1067.64849 C1762.6035,1077.69743 1765.25235,1067.66575 1767.40651,1066.22485 C1772.42811,1062.85986 1776.72206,1071.07388 1781.33813,1066.3629 C1780.70252,1056.41749 1771.04185,1055.37061 1765.69814,1050.16782 C1771.52503,1047.95614 1774.61679,1037.86981 1782.79917,1043.08697 C1789.10636,1047.10482 1790.48399,1053.77727 1788.16589,1061.10259 C1786.29933,1066.99275 1789.99506,1067.68588 1794.58525,1067.66287 C1803.06961,1067.61973 1810.03542,1074.06497 1818.8908,1073.31145 C1822.06596,1073.03822 1826.0378,1074.98819 1825.8451,1079.17285 C1825.64378,1083.53008 1821.40735,1083.671 1818.2063,1084.15418 C1811.76105,1085.12629 1805.85939,1087.26032 1799.35375,1081.56285 C1792.26427,1075.35345 1783.10403,1076.16737 1771.74073,1082.29337 C1789.18689,1090.36071 1801.99109,1105.00559 1821.2089,1091.40184 C1824.48185,1089.08086 1829.67888,1087.95633 1833.97571,1090.49301 C1834.99096,1091.09123 1835.64958,1093.66817 1835.27857,1094.99979 C1833.62196,1100.8957 1829.1008,1100.30899 1824.36393,1099.49219 C1816.95234,1098.21522 1808.30691,1102.59833 1806.42885,1106.58454 C1800.06988,1120.079 1791.29791,1113.59637 1782.77041,1111.99441 C1782.46267,1096.34291 1776.03756,1091.26667 1763.70215,1096.90086 C1760.60752,1098.31301 1754.78063,1097.38404 1757.27992,1103.7315 C1759.05157,1108.24115 1762.8911,1108.87676 1766.99524,1107.21728 C1773.63605,1104.52529 1778.87047,1106.15026 1783.04651,1111.78445 C1783.30823,1118.70712 1777.88686,1121.90242 1770.9153,1125.02582 C1786.14977,1132.35113 1798.46217,1125.32205 1808.94539,1122.21591 C1825.2929,1117.38414 1826.69929,1127.1656 1832.21269,1136.28845 C1823.72257,1140.51626 1816.62734,1137.76675 1810.35179,1134.79866 C1799.06326,1129.46645 1791.1311,1137.74661 1781.91046,1140.57665 C1779.60674,1141.28129 1776.78821,1144.35867 1781.98524,1146.06129 C1791.02181,1149.015 1785.35886,1151.35899 1781.91622,1154.41624 C1779.10919,1156.90115 1778.45632,1160.22587 1781.83569,1163.09905 C1784.57657,1165.43441 1788.4161,1167.09677 1791.13398,1165.07203 C1795.59474,1161.75881 1797.53895,1155.58967 1804.70609,1163.26299 C1811.22035,1170.23455 1810.33741,1175.82848 1807.02419,1182.8288 C1803.40899,1184.28408 1799.79091,1185.74224 1796.17858,1187.19177 C1781.54808,1185.45464 1767.17643,1178.8771 1750.89795,1184.03099 C1760.49247,1197.16019 1769.36511,1206.75183 1784.60821,1193.20848 C1787.85527,1190.32092 1792.43971,1188.94329 1796.41442,1186.84665 C1799.57808,1189.8435 1803.04948,1192.46359 1804.29481,1197.11705 C1805.80186,1202.75124 1810.51285,1202.52691 1815.03401,1201.89705 C1818.74987,1201.37936 1821.18014,1199.0929 1821.21177,1195.3569 C1821.26067,1189.85213 1816.54394,1190.03332 1812.92586,1189.40921 C1808.90801,1188.71033 1807.864,1185.64446 1806.66756,1182.55557 C1811.28075,1185.18141 1815.93996,1186.3836 1821.20315,1184.17192 C1837.53052,1177.32403 1829.7249,1188.36521 1827.80657,1194.08281 C1833.69674,1197.62611 1836.44049,1191.41958 1840.68843,1191.48573 C1845.1837,1191.55188 1852.35946,1191.27865 1852.73335,1194.94562 C1853.29994,1200.58557 1850.03561,1206.70582 1847.99936,1212.48094 C1845.91135,1218.41137 1840.74595,1216.08176 1838.14887,1214.22095 C1825.86236,1205.4231 1817.35211,1207.51686 1811.54535,1221.58653 C1810.63364,1223.79822 1805.85363,1222.81173 1805.70408,1227.75855 C1812.67564,1228.69902 1818.54567,1226.02141 1824.22588,1222.69669 C1831.29235,1218.5638 1836.83739,1219.37772 1840.63091,1227.22648 C1844.5596,1235.36284 1838.93116,1239.04132 1833.21356,1241.50322 C1827.28313,1244.06004 1820.68546,1245.07241 1813.317,1247.04251 C1819.1784,1258.18723 1846.15294,1262.73139 1823.09847,1279.89282 C1811.47345,1257.35605 1795.73567,1252.09861 1765.15744,1261.64425 C1757.41222,1264.06301 1750.04088,1267.69259 1742.07996,1270.93103 C1747.10443,1276.42142 1750.86056,1271.1755 1754.82664,1270.78723 C1758.07946,1270.46799 1762.3993,1267.32733 1764.35502,1270.31268 C1772.86814,1283.28945 1780.24235,1287.05995 1790.65368,1271.51199 C1793.88349,1266.67734 1808.32992,1281.08063 1808.53699,1290.75569 C1808.74695,1300.70972 1804.10212,1309.07329 1799.43428,1317.35346 C1797.654,1320.51999 1792.21537,1321.71643 1794.31202,1326.93648 C1797.94735,1336.01331 1792.4167,1335.4985 1786.97808,1333.37597 C1778.76981,1330.18354 1775.02806,1330.34173 1774.42984,1341.20459 C1773.3657,1360.60359 1754.68284,1362.06463 1742.09434,1369.22601 C1734.60509,1373.48257 1725.9194,1374.79693 1727.09283,1387.09495 C1727.75145,1393.95434 1730.45206,1395.49303 1735.86768,1396.92243 C1741.89877,1398.51577 1750.73689,1392.44441 1753.27357,1404.29089 C1755.61468,1415.25154 1748.39578,1417.66167 1737.52716,1421.1417 C1750.52694,1426.29559 1760.41194,1430.21566 1770.07837,1434.05232 C1769.12064,1439.28099 1764.99638,1439.37015 1763.41742,1438.06729 C1746.47745,1424.16444 1734.98185,1443.29021 1720.72524,1445.31783 C1712.83047,1446.44237 1716.98349,1457.16718 1716.40828,1462.51952 C1715.10543,1474.67661 1712.79595,1483.22138 1698.04754,1483.12072 C1705.48502,1491.24557 1705.9797,1492.25795 1714.04704,1488.29186 C1722.00509,1484.37755 1726.83686,1488.47018 1729.37067,1493.60394 C1732.27836,1499.49698 1725.20901,1500.45183 1721.44138,1501.9215 C1714.43531,1504.65087 1711.15948,1510.42024 1708.01307,1516.41682 C1709.84512,1506.1608 1703.69036,1504.76592 1695.97103,1506.17231 C1691.74322,1506.93446 1684.96148,1508.57094 1686.66411,1513.57528 C1688.8988,1520.16432 1695.86174,1521.00988 1702.50543,1518.50196 C1703.03174,1518.30639 1703.56669,1518.11369 1704.10164,1517.92675 C1705.06512,1535.45631 1697.76281,1547.8176 1681.5361,1555.02788 C1678.86424,1556.21569 1674.47826,1558.5079 1677.02644,1562.60916 C1679.49985,1566.5925 1682.64338,1563.62728 1685.65461,1562.02532 C1691.25429,1559.03422 1701.23421,1562.83349 1701.49018,1551.39829 C1701.51606,1550.44057 1705.15427,1549.55474 1707.11862,1548.63728 C1714.93574,1571.37826 1731.62837,1547.33155 1742.25828,1555.3011 C1743.07795,1555.9137 1743.97528,1556.43714 1744.94451,1557.07275 C1742.90539,1561.04746 1739.132,1559.39661 1736.14953,1559.76762 C1728.05919,1560.77424 1728.85298,1560.78286 1727.38331,1569.77629 C1726.90301,1572.71275 1721.30333,1575.55429 1717.49831,1577.03834 C1709.7272,1580.0812 1710.76834,1571.79528 1707.23079,1567.73717 C1701.67712,1583.60725 1684.18207,1586.75078 1675.47625,1599.67002 C1671.57344,1605.45952 1662.2809,1602.85957 1656.48277,1599.47733 C1649.01365,1595.10572 1655.8673,1592.92567 1658.99645,1590.36886 C1660.7681,1588.92508 1659.74997,1587.64523 1658.32632,1586.45454 C1655.062,1583.74242 1629.46797,1593.08098 1631.03255,1595.71257 C1636.25547,1604.51905 1624.28532,1616.31664 1637.705,1623.22205 C1624.51828,1632.16371 1614.53261,1643.95266 1595.88714,1637.02712 C1587.73065,1633.99575 1591.10138,1644.64004 1592.68609,1647.64839 C1599.22624,1660.07871 1593.16639,1664.85009 1582.53649,1669.24758 C1578.61642,1670.86967 1571.6046,1671.03073 1571.61035,1677.91026 C1571.61035,1679.20161 1574.5468,1681.23786 1576.41624,1681.65488 C1582.38693,1682.96637 1588.77753,1685.07739 1593.77612,1679.32528 C1597.30504,1675.26429 1600.50321,1670.91569 1606.24094,1666.14144 C1599.56849,1680.54473 1607.75087,1682.77367 1622.02474,1682.54646 C1609.95393,1691.04808 1596.16612,1692.51487 1597.60415,1706.9498 C1587.79392,1692.73058 1573.49129,1703.53305 1561.56428,1698.65525 C1561.70809,1705.04873 1565.30316,1707.00732 1568.2166,1709.46347 C1558.75725,1706.4091 1551.07818,1715.07466 1542.1279,1712.33665 C1539.89895,1719.90068 1552.40405,1721.07986 1546.92228,1730.60536 C1544.33095,1735.10064 1555.5447,1734.14004 1559.92493,1736.99884 C1563.13749,1739.09548 1570.41391,1735.55506 1569.55685,1743.17661 C1568.67102,1750.97935 1561.67357,1748.84244 1557.42276,1748.22121 C1550.41669,1747.19158 1543.49402,1744.81308 1536.87622,1742.15848 C1528.23654,1738.69283 1525.47265,1742.71644 1524.71625,1750.32936 L1524.9866,1750.05038 C1522.25722,1750.59108 1519.01878,1750.38113 1516.89338,1751.81628 C1507.25859,1758.30466 1498.97842,1761.34753 1493.76701,1746.81769 C1493.18892,1745.1956 1488.86046,1744.91662 1482.33756,1742.64166 C1490.61485,1751.40213 1484.35943,1768.16378 1502.83521,1762.30813 C1505.323,1761.52297 1510.16916,1769.22792 1506.01038,1770.63719 C1498.04083,1773.32918 1492.03275,1786.86103 1477.82503,1771.43098 C1482.63667,1786.11037 1485.61626,1795.20159 1488.50383,1804.00232 C1474.7419,1810.35265 1466.83274,1799.52143 1456.80681,1795.21309 C1453.7323,1793.89298 1456.315,1782.51818 1449.20252,1790.38995 C1445.53267,1794.46532 1448.84876,1798.696 1453.83297,1800.75525 C1455.76855,1801.54905 1457.50281,1802.84615 1459.11628,1803.78662 C1457.72715,1810.62588 1427.35599,1805.24765 1452.36043,1822.03232 C1458.05214,1825.8546 1450.24365,1831.3795 1447.52577,1831.16092 C1436.34654,1830.24346 1430.55417,1840.31541 1420.66628,1842.45807 C1428.82853,1844.7963 1437.18923,1844.75604 1443.57983,1850.91368 C1445.01785,1852.30569 1450.9224,1852.05259 1451.44009,1850.96257 C1458.98111,1835.26218 1466.17988,1850.27519 1473.77554,1851.16102 C1464.96906,1855.51249 1459.03288,1865.59594 1447.10012,1862.57321 C1444.56344,1861.92897 1439.94449,1861.82831 1439.88985,1864.87981 C1439.4383,1890.4652 1424.77617,1869.65981 1417.91102,1873.68629 C1415.73672,1867.68108 1419.23976,1867.89679 1421.67578,1866.90743 C1426.51906,1864.9402 1426.24871,1860.91085 1425.04652,1856.93039 C1424.13481,1853.9134 1421.67578,1852.53865 1418.5265,1852.67095 C1414.75311,1852.82338 1411.43414,1854.76759 1410.86756,1858.24474 C1407.52846,1878.71076 1393.03314,1885.25954 1375.05778,1888.0637 C1370.48485,1888.77983 1368.04596,1891.6904 1370.39857,1896.6401 C1377.93096,1912.48141 1369.40058,1914.36811 1356.60501,1912.54469 L1357.1457,1913.24069 C1348.37373,1885.156 1350.8759,1889.12784 1325.72479,1894.10054 C1316.43225,1895.93546 1313.14492,1888.98979 1306.86649,1886.77235 C1310.22572,1865.12139 1328.02563,1881.93482 1338.73032,1875.82895 C1335.78811,1873.54249 1334.14876,1872.15335 1332.39724,1870.93103 C1328.73602,1868.39435 1321.72419,1869.60229 1323.22837,1861.48606 C1324.59737,1854.05433 1330.01586,1855.72819 1334.81025,1854.89126 C1345.13242,1853.0851 1351.12899,1844.91422 1360.54808,1838.35394 C1344.93109,1837.34732 1345.37113,1841.88861 1337.12548,1843.21447 C1321.55738,1845.71089 1312.71926,1865.44639 1290.87274,1855.23926 C1297.28347,1868.45762 1305.38244,1876.07054 1307.12821,1886.53363 C1302.99244,1890.83909 1297.48192,1888.43183 1292.68178,1889.51323 C1289.22188,1890.29264 1284.40161,1893.05365 1287.95929,1895.57883 C1302.61568,1905.94414 1288.27566,1909.84695 1281.80166,1917.1435 C1299.5498,1918.66781 1311.00801,1901.99531 1327.80705,1907.11757 C1319.84325,1915.26831 1307.97377,1913.02499 1299.04074,1921.19874 C1309.64763,1925.84645 1320.30917,1919.7262 1329.31698,1924.63563 C1324.29251,1952.82098 1300.4385,1935.6538 1286.43498,1944.98085 C1285.54053,1935.74583 1299.86329,1933.72684 1292.36254,1926.45617 C1288.175,1922.39518 1276.48383,1918.84037 1274.76682,1920.8076 C1269.43461,1926.90771 1263.72277,1934.6443 1266.63909,1945.28571 C1262.22146,1941.10105 1254.51076,1943.04526 1253.30857,1935.44385 C1253.30281,1935.4496 1253.3402,1935.39783 1253.3402,1935.39783 C1256.69656,1928.80591 1269.33395,1927.22983 1263.26835,1915.25106 C1261.20909,1911.18144 1266.22206,1910.43654 1269.79987,1910.69251 C1273.99604,1910.99162 1280.65411,1913.61746 1280.88707,1907.58637 C1281.16605,1900.49976 1272.09497,1896.42152 1271.42197,1888.18737 C1271.19764,1885.45511 1264.10241,1883.87903 1261.0164,1885.81462 C1256.96403,1888.33692 1250.19955,1892.34327 1259.01466,1897.87392 C1261.20622,1899.25155 1264.99111,1900.64357 1260.25424,1903.41608 C1249.67898,1909.5881 1244.01028,1923.37592 1229.39703,1923.22636 L1229.82269,1923.39892 C1228.24086,1910.99162 1221.06222,1907.64101 1211.92787,1915.2338 C1206.21027,1919.99367 1193.60451,1919.56514 1194.80383,1927.02851 C1196.23323,1935.9299 1209.21287,1932.6023 1216.0924,1937.04006 L1215.79041,1936.71506 C1215.42803,1937.78208 1215.31011,1939.6055 1214.67738,1939.80395 C1199.95485,1944.44878 1190.27116,1959.61998 1172.61505,1958.79743 C1164.60236,1958.42066 1157.51001,1962.11352 1153.56693,1950.45686 C1151.68599,1944.9032 1142.23815,1941.81431 1135.96259,1947.13214 C1132.56885,1950.01107 1116.85983,1950.88827 1131.05316,1961.45778 C1133.27348,1963.10576 1127.02093,1965.70571 1124.26279,1965.71146 C1120.20468,1965.72009 1119.36199,1961.58145 1118.24608,1958.50407 C1115.62025,1951.24778 1110.14999,1949.71196 1103.34811,1950.77323 C1100.17295,1951.26503 1098.6285,1953.20637 1098.57386,1956.58574 C1098.37829,1967.12936 1108.80687,1960.03701 1113.75081,1966.77561 C1083.4947,1970.95164 1059.22366,1990.47143 1028.97042,1991.22784 C1029.23214,1987.82259 1035.87871,1984.46623 1031.24538,1981.84326 C1026.79037,1979.32384 1020.4688,1979.40149 1015.01004,1979.60282 C1011.50701,1979.73512 1012.29505,1983.12311 1012.64017,1986.18899 C1013.45697,1993.39063 1018.87259,1991.22208 1022.82429,1991.75991 C1024.90368,1992.04176 1027.12687,1991.23071 1029.28966,1990.91722 C1027.31956,1999.48212 1021.40927,2002.87011 1013.29304,2001.90088 C1005.04451,2000.91727 1000.77932,1995.30321 999.873358,1987.27038 C999.439073,1983.39058 999.76982,1977.88581 993.917045,1981.07248 C984.316769,1986.30115 974.106769,1980.62669 964.719321,1984.04057 C967.281887,1976.61172 970.39378,1968.88088 957.460155,1976.84468 C954.586975,1978.61345 948.414958,1981.94105 947.546389,1976.97123 C944.607059,1960.13767 929.102239,1965.06148 923.611848,1967.12936 C899.240146,1976.26947 913.137251,1960.22683 913.304062,1953.2265 C921.667634,1957.16095 928.975693,1952.43271 935.150586,1948.71685 C944.641572,1943.00212 953.217972,1945.98172 957.79953,1952.48448 C970.442673,1970.44258 986.913848,1966.03934 1003.34476,1962.62258 C1007.44314,1961.76839 1015.53636,1962.28321 1014.22775,1955.1966 C1013.28441,1950.07435 1006.33298,1948.59893 1001.44944,1949.18565 C987.877327,1950.81925 972.714758,1950.0916 962.337946,1944.54944 C941.699366,1933.51401 927.583682,1938.64777 913.505386,1953.51986 C904.72191,1944.76227 901.702051,1927.03138 882.757468,1933.8879 C884.313414,1940.81345 894.319214,1938.40331 895.728482,1946.19167 C889.058907,1949.41285 885.354546,1959.1368 876.139662,1956.84746 C859.829546,1952.80085 860.387501,1963.51128 859.878439,1973.83057 C856.418544,1972.79232 852.809093,1972.70316 850.444975,1975.39227 C843.717879,1983.03108 836.378183,1983.92265 828.742254,1977.47166 C819.455468,1969.6229 828.532301,1963.18054 832.777361,1956.16583 C825.480806,1953.84486 820.272268,1955.09306 815.161515,1957.54059 C817.169003,1954.92338 818.94353,1952.06458 821.253003,1949.73497 C824.635245,1946.3326 834.390828,1947.89142 832.573161,1942.18245 C830.140017,1934.5724 830.413242,1926.47918 827.347366,1919.45873 C825.610228,1915.46964 820.024927,1914.84266 815.288062,1916.49064 C812.463775,1922.13346 821.163845,1920.99166 820.099704,1925.47831 C803.096459,1933.4795 783.41273,1926.33538 765.259062,1935.65092 C755.851482,1940.47982 741.724293,1930.82778 731.614955,1923.99427 C718.30169,1914.98934 705.862746,1916.80413 692.854344,1923.4622 C693.277124,1917.29306 693.835079,1911.14117 694.076668,1904.9634 C694.263611,1900.19203 690.182487,1898.37436 687.516383,1900.471 C681.893693,1904.88 685.30182,1911.92058 684.519532,1917.81937 C683.374862,1926.42741 689.328299,1922.96176 693.190842,1923.1257 C697.75802,1927.05727 704.295296,1930.02536 699.995592,1938.08982 C695.931724,1945.70274 690.208372,1941.12694 685.158017,1940.08005 C680.11629,1939.03604 675.284515,1939.44732 670.199648,1939.6774 C658.67529,1940.20372 645.454059,1944.06051 641.853237,1925.19071 C641.059445,1921.02618 640.337555,1910.23234 633.630592,1909.02152 C624.473228,1907.36779 614.665876,1909.67726 605.195023,1909.18833 C600.530059,1908.94962 593.383059,1913.06813 591.484862,1907.39367 C589.32782,1900.93692 597.130561,1899.86415 602.157907,1897.35911 C588.490887,1893.77267 575.574518,1890.70679 565.899465,1905.78595 C562.324527,1899.09912 557.259792,1893.11693 563.949499,1886.07346 C566.929093,1882.92994 569.339228,1879.98485 567.202318,1875.72254 C564.441304,1870.21777 560.302659,1874.83671 556.837011,1874.82808 C552.465406,1874.81946 547.921237,1876.22297 544.375059,1872.0038 C552.862301,1860.76417 566.621355,1861.79667 580.135944,1857.78457 C553.831532,1847.44803 530.892107,1829.92134 501.547704,1850.85328 C505.81002,1834.93431 522.028101,1836.25154 525.95967,1825.67916 C522.456634,1819.71709 516.618239,1825.90637 512.896623,1821.45423 C513.584,1820.32106 514.507214,1817.85916 515.134194,1817.93106 C525.421848,1819.10162 537.722741,1805.69344 545.913749,1825.73955 C549.353513,1834.1549 565.212087,1828.44305 574.898645,1823.61703 C579.670023,1821.23853 584.283217,1818.53791 589.609673,1815.63885 C587.691344,1814.25546 586.057744,1812.28536 585.200679,1812.5816 C565.701017,1819.26268 549.008386,1810.75243 531.746296,1803.69171 C525.125614,1800.98534 515.099682,1801.23268 514.587744,1793.19123 C514.139079,1786.119 525.470741,1790.31229 529.908496,1784.64359 C520.011986,1772.87476 508.421479,1765.94922 492.272423,1770.45312 L492.594541,1770.76661 C492.991437,1758.27015 478.754958,1762.17296 473.414121,1753.772 C468.628363,1746.24823 472.646214,1744.7153 476.034208,1739.0207 C465.156963,1743.87836 455.930575,1743.63677 447.132718,1738.23842 C444.762848,1736.78888 442.01909,1734.36149 439.470904,1736.38624 C433.606625,1741.05983 432.91062,1753.05298 419.439172,1745.82258 C412.740837,1742.22751 402.062039,1746.06129 388.849437,1746.7688 C397.259025,1740.44148 402.709152,1738.75323 409.416115,1739.13862 C418.418172,1739.65919 420.434287,1731.70114 421.958597,1725.81385 C423.724496,1719.0091 416.925499,1716.30561 411.76873,1714.62887 C403.540332,1711.94263 393.09162,1713.51296 390.321977,1701.84192 C392.599814,1703.47552 394.713715,1706.21641 397.164115,1706.55866 C412.064963,1708.63517 425.300575,1697.34377 440.566682,1700.62823 C440.860039,1700.68863 442.404482,1696.8721 442.528152,1694.81572 C442.582797,1693.92414 440.405623,1691.99143 439.396127,1692.09497 C422.784025,1693.81197 405.895823,1694.3498 390.537682,1702.18993 C372.645735,1705.58943 366.542744,1689.29081 349.930642,1679.72505 C364.681935,1679.69917 372.090656,1673.71409 380.799355,1671.19754 C384.13558,1670.23119 388.351879,1670.3865 388.001,1666.10405 C387.566715,1660.75458 382.67742,1660.58777 378.883901,1661.72381 C364.506496,1666.00626 348.624913,1655.64095 334.756569,1666.63037 C332.516121,1668.40777 326.939448,1668.84781 324.690372,1663.81183 C337.641254,1654.44739 341.644724,1638.70674 351.187479,1626.82287 C361.017839,1614.57662 352.956254,1608.53403 340.433904,1607.15065 C326.220434,1605.58607 312.219792,1604.06751 303.516845,1590.5673 C302.823715,1589.67573 302.110454,1588.74388 301.397192,1587.82067 C297.957428,1580.35443 302.398059,1577.36621 308.538439,1575.74411 C313.266676,1574.48727 315.288544,1575.56292 315.484115,1581.56237 C315.694068,1588.07376 320.755927,1584.17095 322.0444,1582.14909 C325.225318,1577.14763 324.408518,1570.77428 318.345792,1569.89709 C297.804997,1566.93475 300.718442,1556.90306 309.432893,1544.32032 C311.299454,1541.6197 311.354099,1537.66225 308.273842,1537.42929 C298.293927,1536.65563 287.037042,1528.40422 281.371211,1529.90265 C271.883101,1532.40194 264.221287,1529.04271 254.106197,1529.55752 C258.546828,1524.77176 266.352445,1522.30698 264.017087,1515.47635 C261.871549,1509.18929 255.975634,1515.41595 252.173487,1513.48899 C249.812245,1512.2868 243.157051,1515.24339 245.685104,1509.91693 C247.72998,1505.5971 240.559972,1499.16336 248.598549,1497.53263 C259.084651,1495.40723 255.075428,1482.44197 264.094741,1478.38097 C269.153724,1476.10026 263.114006,1473.05739 260.591704,1472.44192 C254.465704,1470.92336 248.207406,1471.1592 242.538699,1474.50693 C235.756958,1478.51327 229.354856,1483.29615 222.239493,1486.55185 C217.338693,1488.79517 210.194569,1489.54295 207.721161,1483.81672 C206.303265,1480.54665 208.241727,1475.13678 213.867293,1471.68839 C229.055746,1462.37572 247.051231,1457.16143 258.658994,1442.33248 C253.093825,1440.46017 247.571797,1437.45757 241.848445,1437.02328 C237.042555,1436.6609 226.473048,1434.86912 234.626668,1446.34458 C239.283003,1452.89624 237.38193,1456.91409 229.392245,1453.51459 C222.147459,1450.43146 211.296099,1455.30062 207.669392,1444.08113 L207.381786,1444.41763 C217.626299,1440.16394 222.949879,1430.69596 231.077614,1422.94499 C212.40338,1420.12933 204.019676,1405.64551 191.353524,1394.07514 C199.124628,1391.20771 204.827848,1389.10243 210.528192,1387.00291 L210.226206,1387.29627 C216.878524,1395.72024 229.582065,1388.79182 236.243011,1397.68459 C234.152118,1404.15571 225.848944,1396.03373 223.74367,1404.10394 C230.007721,1408.26272 237.390558,1411.78301 243.904825,1405.32339 C250.620417,1398.6682 246.536417,1393.44815 241.448673,1385.67993 C237.169101,1379.1484 233.804115,1376.08253 227.123037,1372.91599 C214.940062,1367.1495 229.645338,1364.48914 229.659718,1358.40916 C214.871037,1354.06056 200.280803,1345.17067 184.28993,1357.13507 C179.078515,1361.02925 176.294493,1358.06116 171.922887,1353.86499 C155.457465,1338.08119 136.863761,1324.97501 115.905938,1315.04398 C116.50991,1308.75692 123.271518,1309.25736 126.872341,1306.13108 C133.222673,1300.60906 122.7452,1297.40513 125.667273,1292.57911 C126.553099,1292.18221 127.962366,1291.08068 128.471428,1291.39705 C140.473211,1298.97833 145.463169,1315.05836 165.589811,1315.12451 C154.249521,1323.71529 146.774651,1310.97724 139.236507,1319.53063 C151.698459,1326.55108 162.998485,1326.42166 177.226335,1324.13807 C189.935628,1322.09895 202.719699,1305.62202 217.459487,1320.24677 C220.341296,1323.11132 223.499206,1319.5709 225.541206,1316.59418 C228.575445,1312.1708 225.216211,1310.49694 222.210732,1308.9525 C218.699068,1307.14058 214.980327,1305.73706 211.365124,1304.12647 C192.641997,1295.82042 192.644873,1295.82042 199.340332,1276.96787 C194.905454,1277.73003 190.651766,1280.03663 186.136358,1277.986 C185.598535,1278.1183 185.014696,1278.21896 184.404972,1278.28223 C178.014375,1274.89999 175.722158,1267.37623 167.95393,1264.46278 C160.579721,1261.70177 159.170454,1252.25105 162.210445,1245.42616 C164.425008,1240.46784 164.936946,1228.94924 176.815059,1235.78562 C181.33622,1238.38845 182.020721,1232.5328 182.710975,1229.88971 C184.091482,1224.58051 179.486915,1224.6898 176.423915,1225.06944 C173.19698,1225.46921 170.090839,1227.0798 167.016335,1228.35965 C164.1978,1229.53308 161.238338,1230.26647 159.826194,1226.936 C158.488828,1223.79247 160.487687,1221.41685 163.579448,1220.64319 C176.426792,1217.42775 173.829713,1212.42342 165.054865,1207.15448 C161.687003,1205.13261 158.693028,1203.69459 162.998485,1200.05062 C165.753746,1197.71526 168.333569,1192.87199 172.805837,1196.90997 C177.623231,1201.26144 182.823141,1203.7406 191.851082,1203.36384 C183.263177,1195.04628 185.541014,1187.75548 195.693493,1178.84546 C186.504493,1180.89609 181.753248,1181.95735 175.331014,1183.38963 C181.629577,1154.10275 153.697318,1168.32485 144.1862,1157.75246 C146.587707,1150.66298 154.793096,1148.33338 156.875361,1140.55652 C160.493439,1127.04481 147.421763,1135.46878 144.511194,1130.91023 C146.688369,1125.71032 148.36511,1120.53054 154.419208,1120.30333 C158.434183,1120.15378 161.399397,1119.73675 160.458927,1114.9855 C159.739913,1111.33866 156.449704,1111.51698 153.671434,1111.96565 C144.347259,1113.46407 131.643718,1121.12876 135.445865,1100.46717 C135.770859,1098.70127 125.678777,1094.05069 119.949673,1092.38545 C113.265718,1090.44699 115.273206,1096.55574 114.637597,1100.007 C114.209065,1102.37687 112.20733,1105.20404 110.38391,1103.57619 C101.744237,1095.85973 94.6720141,1107.97943 85.6670817,1104.61732 C89.0895887,1098.0139 109.538349,1094.34692 90.1422254,1083.81193 C93.3202676,1073.76874 117.617192,1093.99605 108.025544,1067.66287 C115.307718,1073.34884 117.76387,1080.94738 125.678777,1081.14007 C139.460839,1093.32305 153.944659,1103.96446 175.865961,1103.84941 C170.300792,1095.53761 174.082806,1087.5393 172.483718,1079.96664 C168.816746,1062.58088 177.206203,1066.72528 186.389451,1071.85041 C173.855597,1080.17947 191.037158,1088.49703 186.412459,1097.03891 C184.511386,1100.55921 186.101845,1103.71712 190.364161,1104.30383 C194.232456,1104.83015 198.48902,1105.20116 201.388085,1101.96847 C204.707054,1098.26699 202.909518,1094.74094 199.846518,1091.74122 C193.870073,1085.87981 187.384566,1080.38367 185.886141,1071.44489 C192.006389,1076.64767 193.568087,1071.19755 195.193059,1067.16819 C198.261811,1059.56102 191.600865,1064.61425 189.786073,1063.30277 C183.50189,1058.76148 175.72791,1060.98467 169.41209,1059.43735 C158.629755,1056.80001 156.558994,1070.42676 147.6576,1067.69163 C144.298366,1066.66488 140.297772,1065.17221 140.096448,1070.24845 C139.895124,1075.20677 144.772915,1074.06785 147.795651,1073.94706 C157.669152,1073.56166 162.791408,1079.34829 166.86678,1087.26607 C157.801451,1093.96441 150.496268,1089.54391 143.593732,1084.47917 C137.896265,1080.29451 132.509411,1076.38595 125.440065,1081.4967 C126.570355,1078.31579 129.224955,1074.77248 128.577842,1072.00284 C124.467958,1054.44739 134.364468,1049.81119 149.659335,1050.07291 C147.789899,1041.46488 142.003273,1043.46086 137.473485,1043.15025 C134.39898,1042.94317 131.465403,1042.36796 132.256318,1038.49391 C132.983961,1034.92472 136.0182,1034.87008 138.992042,1035.54883 C145.210076,1036.96672 150.317952,1040.22242 155.126718,1044.39845 C166.872532,1054.6027 180.398625,1050.30587 193.470301,1048.22648 C194.488425,1048.05967 194.954346,1044.44159 197.367358,1037.68861 C182.987076,1052.29035 173.798076,1039.30783 163.208437,1037.9302 C158.08618,1037.26583 158.471572,1032.45419 162.489423,1029.09496 C168.940417,1023.69948 175.365527,1018.26948 181.876918,1012.9459 C187.815975,1008.09112 196.841039,1004.33211 187.830355,994.642679 C201.644054,976.946304 182.650577,972.885313 172.687918,964.786338 C181.655462,961.030208 191.209721,962.833496 193.50769,952.85358 C189.262631,948.093707 183.628437,951.550727 179.000862,949.873986 C186.682808,938.401397 181.940192,932.603268 156.052808,922.002124 C156.205239,915.200251 165.339594,914.006687 165.578307,907.331361 C165.983831,896.002575 156.682665,902.013532 152.006197,899.865118 C146.501425,897.337065 140.70042,895.438868 134.010713,892.873425 C135.975059,890.710631 137.568394,888.5162 137.87038,888.683011 C155.73069,898.475983 162.311107,883.756327 171.005425,873.649865 C172.998532,883.045941 165.158403,895.878904 180.539552,900.45471 C178.753521,905.878952 180.332476,913.092101 172.129963,915.013307 C169.41209,915.651792 169.268287,918.254623 171.114715,920.07229 C172.086823,921.030017 174.266873,921.743279 175.460437,921.323375 C179.020994,920.063662 182.227797,917.696668 185.82862,916.707304 C188.575254,915.956654 192.820313,919.180713 193.752155,914.012439 C194.445285,910.158524 191.244234,908.268955 188.40269,906.416775 C185.621544,904.604859 182.952563,902.617504 180.240442,900.707803 C181.701479,899.873746 183.084862,898.858499 184.626428,898.240146 C196.047248,893.647085 207.847707,874.964223 202.828989,865.56527 C195.8488,852.499346 183.939051,857.722265 173.461577,861.866662 C170.476231,863.031465 167.789994,865.125234 164.939823,866.810603 Z M1651.02689,1559.88841 C1642.16576,1550.64477 1656.42237,1546.83974 1655.81553,1539.54031 C1660.39133,1547.15036 1666.83945,1555.37875 1675.51076,1548.74082 C1684.21083,1542.09137 1670.65598,1541.99071 1669.53144,1537.57309 C1669.26972,1536.54921 1668.75203,1535.33552 1669.07127,1534.46695 C1673.62119,1521.95323 1662.85611,1522.0769 1657.59005,1523.67886 C1648.38667,1526.47439 1655.56819,1533.63002 1656.37923,1538.99099 C1645.43872,1535.28087 1643.18964,1549.47709 1630.25314,1547.74283 C1639.51979,1553.71352 1644.21352,1558.77538 1651.34038,1559.59505 C1653.86844,1573.1873 1633.25286,1567.03254 1635.96786,1574.31183 C1639.77288,1584.52183 1651.85232,1568.13982 1659.1575,1576.84564 C1659.47675,1577.22815 1660.16988,1577.44674 1660.69619,1577.48125 C1665.25474,1577.74585 1664.33153,1576.52065 1665.4647,1571.91895 C1669.704,1554.73739 1658.11925,1560.87202 1651.02689,1559.88841 Z M658.7702,1892.46406 C660.840961,1889.58225 660.259997,1886.19426 657.286155,1885.57591 C641.91651,1882.38348 630.349011,1873.19161 618.968456,1863.21169 C614.519197,1859.30888 609.333668,1862.19645 604.23442,1864.69574 C619.411369,1860.20621 609.770828,1887.88826 626.293772,1880.91382 C633.944082,1893.97112 649.578324,1884.91154 659.121079,1892.75454 C652.793755,1893.30962 645.583482,1891.92624 641.444837,1901.22453 C654.505008,1902.63955 664.654611,1917.51451 678.298623,1904.60102 C677.729163,1899.06174 669.736603,1901.42585 669.072234,1895.99874 C682.966462,1894.41403 695.425538,1891.11232 700.599563,1875.50396 C701.741358,1872.06132 703.823623,1869.23703 700.306206,1867.15477 C697.136792,1865.28821 689.860369,1864.0515 689.923642,1866.74924 C690.268769,1880.93683 681.623344,1871.98079 676.75418,1872.75445 C670.728842,1873.71217 663.75153,1870.3702 658.45671,1875.59024 C664.108161,1887.03407 674.338293,1876.98225 681.813163,1881.60983 C678.543087,1887.84224 667.985085,1887.24977 669.414485,1896.27771 C665.736008,1895.366 660.51309,1898.76838 658.7702,1892.46406 Z M1030.30779,269.761439 C1032.6489,263.359338 1029.19475,258.314735 1023.78489,258.970476 C1015.99078,259.919575 1006.81041,261.929938 1002.50207,269.223617 C999.508099,274.288352 999.890614,276.292963 994.313941,271.340394 C991.443637,268.789332 984.541101,269.862101 979.697823,270.696158 C973.773146,271.717158 968.96438,275.873059 968.685403,282.030696 C968.371913,289.220837 975.113389,289.088538 979.887642,289.404904 C987.178445,289.888082 993.807755,292.677856 997.520744,298.113603 C1000.03729,301.797831 998.300155,309.899682 1005.9706,304.325885 C1009.442,301.806459 1013.37357,295.266307 1007.00598,291.455532 C998.297279,286.246994 1004.91221,283.724693 1007.18717,278.878538 C1012.4446,267.693555 1022.72938,271.944366 1030.7507,269.376048 C1030.20137,281.170755 1034.23648,290.405772 1045.89026,294.693972 C1050.16983,296.270051 1055.43014,296.249918 1058.16814,291.996231 C1061.41234,286.948752 1054.71688,286.042794 1052.96536,282.976918 C1048.04155,274.360254 1036.336,276.850918 1030.30779,269.761439 Z M1394.84793,1840.40744 C1401.74183,1827.74704 1389.80908,1803.30919 1419.13622,1805.48924 C1421.60388,1805.67043 1423.44455,1802.23355 1422.2136,1800.53955 C1416.47012,1792.62177 1419.7632,1783.27458 1417.5055,1774.8765 C1416.80374,1772.27654 1415.29094,1770.97944 1412.70536,1771.37059 C1411.7879,1771.51726 1410.17443,1772.92366 1410.27222,1773.15949 C1417.25241,1789.60478 1400.12837,1792.15009 1394.21807,1801.10613 C1390.97963,1806.02419 1382.3227,1806.43834 1387.41907,1817.72974 C1390.89623,1825.45195 1374.11731,1826.31189 1367.19177,1834.71285 C1377.91946,1837.06259 1393.61122,1842.67377 1394.84793,1840.40744 Z M551.921831,428.57727 C536.64422,430.118837 537.823403,423.178913 538.818518,417.012648 C539.997701,409.74773 547.147577,411.700572 549.255727,413.636158 C560.984285,424.406989 570.296955,414.260262 581.714899,412.382197 C573.598668,402.042775 563.943746,412.060079 557.426603,408.298197 C539.43687,397.912758 529.922876,413.538372 519.373501,421.082268 C510.325428,427.553394 520.664851,437.72313 520.423262,448.905237 C524.668321,442.117744 534.116166,436.19882 551.921831,428.57727 Z M1694.17924,750.448239 C1685.65749,752.64267 1680.42019,757.997887 1676.38221,765.699966 C1699.18358,766.985563 1709.09159,754.135344 1714.96738,734.483251 C1703.37399,736.49649 1692.46511,738.391811 1680.89761,740.407927 C1684.43229,747.793639 1690.41736,746.091014 1694.17924,750.448239 Z M1054.35449,1975.51882 C1057.97545,1960.71288 1071.57632,1968.05257 1077.88926,1962.49603 C1080.5755,1960.13767 1090.1729,1953.71256 1086.08315,1945.27421 C1084.1303,1941.25923 1079.29565,1939.5221 1075.94217,1941.85745 C1066.32176,1948.5788 1057.25931,1956.11982 1048.27163,1963.68385 C1047.05794,1964.70197 1046.75883,1968.00368 1047.41169,1969.71781 C1048.05305,1971.39455 1050.45456,1972.40117 1054.35449,1975.51882 Z M230.096879,832.735087 C233.631552,854.31989 245.112769,845.041732 255.826079,840.661499 C259.035758,839.347141 264.862648,841.947096 264.526149,835.907377 C264.261552,831.124496 259.970476,828.642459 255.354406,827.27058 C245.762758,824.423285 237.960017,829.384482 230.096879,832.735087 Z M226.012879,901.006913 C231.152392,891.136287 242.363259,891.832293 239.185217,884.627772 C236.527741,878.596682 236.849859,868.889992 228.382749,866.810603 C219.9444,864.731214 215.549786,871.334639 210.312487,878.596682 C220.444834,880.353952 224.140566,887.394538 226.012879,901.006913 Z M702.86302,340.564194 C714.933828,342.013727 714.712372,348.295034 710.363775,357.156163 C707.870234,362.243907 713.119037,365.850482 717.136887,367.038293 C722.431707,368.594239 723.912876,363.336808 723.964645,359.65258 C724.102696,349.735938 726.642254,337.745659 722.049192,330.472113 C717.766744,323.690372 713.990482,341.720369 705.120724,337.535707 C705.031566,337.48969 704.528256,338.315118 702.86302,340.564194 Z M1023.16654,1917.72159 C1044.11573,1921.73656 1054.11578,1914.83978 1055.78677,1896.03612 C1038.46716,1892.72003 1035.07054,1908.94962 1023.16654,1917.72159 Z M632.511806,1839.15923 C637.265927,1845.68501 647.205577,1847.64935 640.961659,1856.65141 C638.698203,1859.91861 637.915915,1863.26634 642.301901,1864.68423 C645.172206,1865.60457 648.298479,1862.44666 650.147783,1861.68451 C661.600239,1856.95915 654.191518,1853.46761 653.622059,1846.57371 C652.831144,1836.89578 651.838904,1834.99183 643.498341,1836.06747 C640.254149,1836.47875 637.133628,1837.81612 632.511806,1839.15923 Z M1639.13728,1477.18166 C1649.80457,1482.96828 1656.43675,1485.91049 1662.34993,1489.91684 C1674.22804,1497.95541 1679.43945,1487.44918 1685.76103,1481.49574 C1688.0101,1479.37897 1685.53382,1472.94235 1681.8726,1475.74363 C1669.35025,1485.31515 1656.46839,1477.61882 1639.13728,1477.18166 Z M1091.00695,1929.5393 C1101.9446,1938.10132 1108.38409,1947.30183 1120.25645,1947.16665 C1125.40171,1947.10626 1129.2585,1944.92333 1128.82422,1939.44444 C1128.46471,1934.94629 1124.5619,1928.28247 1121.00422,1931.0176 C1111.18249,1938.59025 1103.09502,1930.79902 1091.00695,1929.5393 Z M1620.47455,584.65222 C1606.78164,581.620856 1597.45459,574.885132 1588.66249,584.611955 C1585.96475,587.591549 1588.82642,590.717823 1591.7715,592.857608 C1602.643,600.738003 1608.94731,591.885501 1620.47455,584.65222 Z M855.11569,297.920907 C861.609825,303.842707 867.968786,309.916938 874.658493,315.61153 C878.391614,318.786696 883.298166,320.472065 885.990155,314.944285 C888.446307,309.916938 884.488854,305.148437 880.186273,304.728532 C871.471823,303.874344 864.862645,298.870006 855.11569,297.920907 Z M508.976558,444.102223 C496.040056,430.035431 492.045214,445.626532 485.367011,450.090172 C481.136332,452.917335 486.224076,457.096245 488.211431,457.349338 C498.967882,458.729845 501.935972,448.353034 508.976558,444.102223 Z M398.835104,1682.9261 C390.76489,1675.27004 384.014786,1674.14838 376.821769,1680.33477 C373.767397,1682.96349 373.105904,1685.97472 376.700975,1688.59768 C385.490203,1695.00554 390.796527,1687.24019 398.835104,1682.9261 Z M199.863775,1257.16335 C182.880662,1256.32354 195.555442,1242.8032 187.203375,1237.03671 C183.887282,1244.45406 175.584107,1250.02498 178.696,1257.65515 C180.085135,1261.06328 189.440946,1262.08716 199.863775,1257.16335 Z M295.026727,1517.1876 C294.880048,1509.66096 289.895842,1506.6296 283.485113,1505.45329 C279.772124,1504.77454 274.100541,1504.62211 275.081276,1509.86804 C276.41289,1517.00354 285.345921,1516.88562 290.082786,1521.36651 C292.65398,1523.79103 294.543549,1520.14706 295.026727,1517.1876 Z M268.276527,735.438101 C272.886845,729.56807 275.647859,724.928992 281.330946,722.996282 C284.18687,722.027051 291.008876,721.2764 287.551856,715.636454 C284.247268,710.23522 278.682099,710.982994 274.816679,715.728487 C270.867854,720.580394 264.13213,724.575237 268.276527,735.438101 Z M235.782842,860.583941 C248.635938,864.647808 258.282231,866.755958 269.820969,865.191383 C257.419414,855.484693 254.462828,854.998639 235.782842,860.583941 Z M215.883408,1189.55302 C214.672589,1191.75895 209.415158,1195.6215 218.017442,1195.83432 C226.444287,1196.03852 226.409775,1190.70632 227.278344,1185.24181 C227.92258,1181.1952 228.753761,1176.66828 222.412056,1177.70942 C216.395346,1178.6959 211.560696,1181.30736 215.883408,1189.55302 Z M1536.59149,557.329685 C1547.55501,559.567256 1550.16935,568.931696 1558.68823,572.388715 C1552.81245,548.097544 1552.81245,548.097544 1536.59149,557.329685 Z M288.966876,1400.65555 C285.912504,1405.84396 293.640468,1409.50518 289.265986,1413.80488 C287.347656,1415.68295 278.800017,1412.74074 284.405451,1419.67779 C287.008282,1422.89897 292.32611,1424.38877 296.924924,1421.96138 C303.554234,1418.45546 297.028462,1415.63693 296.067859,1412.66021 C294.716113,1408.49568 294.385366,1403.65815 288.966876,1400.65555 Z M1526.39299,1717.70337 C1515.76309,1717.12816 1515.23965,1704.50228 1506.08516,1711.96852 C1502.38943,1714.97975 1503.83896,1720.27169 1506.344,1722.76523 C1512.62243,1729.02066 1516.57126,1722.06635 1526.39299,1717.70337 Z M463.549248,484.683377 C469.399146,478.514237 478.881504,488.540169 482.988513,479.377054 C484.366144,476.31693 479.914008,473.67671 476.376459,473.133135 C468.337882,471.905059 464.29127,475.833752 463.549248,484.683377 Z M457.193163,1724.7756 C455.40138,1720.42988 455.053377,1714.24635 449.059676,1713.41805 C444.800237,1712.82846 443.960428,1717.64585 443.943172,1720.72323 C443.917287,1726.52136 448.294645,1729.79432 453.258718,1730.85558 C456.652465,1731.58035 457.34847,1727.99966 457.193163,1724.7756 Z M1363.29471,452.698755 C1370.51074,448.844839 1379.5962,454.08789 1383.4645,443.998685 C1384.39059,441.579921 1382.58442,438.396127 1380.87317,439.017355 C1374.32151,441.372845 1364.38761,439.319341 1363.29471,452.698755 Z M1067.99563,1937.25864 C1057.0321,1934.3567 1048.77782,1931.40011 1037.94372,1934.36533 C1047.59001,1943.14305 1055.92194,1945.26846 1067.99563,1937.25864 Z M1377.41615,1881.73925 C1380.65746,1881.94632 1385.56689,1883.66908 1385.17287,1878.72802 C1384.67532,1872.50423 1377.67787,1870.96842 1373.16534,1868.81137 C1369.55876,1867.08286 1368.32781,1872.74582 1367.77273,1875.54135 C1365.86015,1885.21065 1374.68965,1878.89483 1377.41615,1881.73925 Z M377.112251,507.17989 C373.689744,503.780392 366.804465,510.596645 365.406701,504.352727 C363.488372,495.761946 373.81629,497.030287 377.520651,492.230149 C354.020394,481.591617 372.427155,462.031558 367.644273,447.053056 C361.210535,447.544862 356.298231,450.694144 357.155296,457.297569 C358.78602,469.9062 348.026693,461.188873 344.854403,465.068673 C356.02213,488.137521 353.275496,494.795592 329.378344,497.795318 C338.783048,501.985732 345.162141,506.849144 354.480563,508.750217 C360.451256,509.963913 364.250527,521.453758 369.246237,528.180854 C370.163699,529.417558 372.116541,530.616873 373.574701,530.593865 C379.879017,530.501831 387.638617,536.863668 392.182786,529.397425 C397.161239,521.223673 388.297234,519.869051 383.63227,516.34013 C380.667056,514.099682 379.019076,510.110592 376.78438,506.909541 C376.778628,506.903789 377.109375,507.17989 377.112251,507.17989 Z M1788.8015,1377.34512 C1790.6393,1374.58698 1791.09371,1369.72069 1786.62145,1366.96543 C1782.0859,1364.16703 1776.77958,1364.27919 1774.64555,1368.52713 C1767.61934,1382.51051 1756.74785,1380.53179 1744.74606,1377.82542 C1740.68795,1376.91371 1734.37213,1377.76502 1734.03563,1383.23528 C1733.63011,1389.82432 1739.79925,1391.1243 1744.95602,1390.61524 C1753.99546,1389.72654 1762.75018,1389.90485 1771.68033,1391.97274 C1778.02204,1393.43953 1779.35077,1395.52467 1775.54863,1400.86838 C1773.48937,1403.75306 1767.44965,1405.36078 1770.76862,1410.18968 C1774.24002,1415.22853 1779.41692,1413.43387 1784.53918,1412.01022 C1789.33069,1410.68436 1794.77794,1411.53567 1799.4314,1409.94809 C1803.94393,1408.40365 1810.66815,1405.91874 1809.54361,1400.47724 C1808.7642,1396.7096 1803.07536,1392.44441 1798.78429,1391.25372 C1790.41496,1388.92124 1791.56539,1399.66044 1783.05226,1404.19598 C1786.78538,1394.04925 1783.56132,1385.23701 1788.8015,1377.34512 Z M771.333293,279.226541 C798.221544,287.003397 823.519335,278.984952 848.926417,271.668265 C837.402059,269.246625 825.817304,268.087575 814.689842,272.231972 C807.459437,274.926837 802.946904,273.244344 799.96731,266.482735 C796.104766,257.736648 787.43058,253.963262 782.886411,260.638589 C776.694262,269.729803 776.510194,263.750482 774.088555,259.255206 C772.21049,255.743541 769.86938,252.410192 764.908183,254.466572 C767.430485,264.527017 767.430485,264.527017 759.541462,274.299856 C763.579445,276.02549 767.649065,277.754 771.718685,279.485386 C771.715808,279.485386 771.339045,279.229417 771.333293,279.226541 Z M123.973276,974.254315 C127.63162,980.716814 130.844175,986.598349 134.278186,992.341834 C135.537899,994.438479 136.136118,999.508966 139.457963,997.159228 C150.21729,989.552059 164.517042,992.502893 177.407527,983.799946 C135.796744,978.450482 170.064955,955.361501 165.8314,940.480786 C150.965065,956.209938 150.965065,956.209938 133.723107,947.478231 C139.596014,959.86253 135.005828,976.701839 151.600673,984.222727 C140.83847,982.888237 135.189896,972.914073 123.973276,974.254315 Z M1838.0856,1396.26669 C1842.10057,1400.99493 1849.02612,1396.28682 1851.36435,1393.13466 C1855.47136,1387.63277 1856.9439,1381.73398 1865.94308,1380.09175 C1870.53326,1379.25194 1866.46365,1369.47335 1863.86369,1365.23692 C1860.4987,1359.7494 1857.08195,1364.77387 1855.20964,1367.9059 C1848.379,1379.3526 1838.18051,1371.61314 1829.57247,1372.76068 C1826.57274,1349.93917 1813.64775,1365.62231 1801.98246,1366.50238 C1814.09066,1379.30946 1828.41342,1384.87175 1838.0856,1396.26669 Z M813.412873,239.778552 C805.446197,241.780287 800.617299,240.664377 796.372239,234.0552 C791.940237,227.161293 785.072214,227.736504 778.281845,228.918563 C776.190952,229.286699 772.935256,232.272045 774.948496,232.962299 C784.03971,236.079944 775.725031,249.631921 785.319555,250.523499 C804.313031,252.283645 822.288383,268.869862 843.729383,252.240504 C831.598177,250.891634 825.705138,236.689668 813.412873,239.778552 Z M434.74842,455.934318 C440.440135,443.857758 446.137603,431.778321 453.057394,417.104682 C433.635386,422.592197 420.894456,435.919842 403.813558,439.16691 C401.417803,439.624203 400.313397,441.994073 401.371786,444.478986 C402.643003,447.470085 405.507555,447.602383 408.303082,448.191975 C412.335313,449.040411 418.93011,443.121487 419.953986,452.385265 C421.737141,468.528569 428.809363,460.1046 435.018769,455.603572 L434.74842,455.934318 Z M720.378203,1993.11741 C714.02787,1985.40957 708.218237,1977.20131 702.057724,1969.50786 C686.069727,1949.54228 657.179741,1951.03207 642.278893,1970.96027 L641.979783,1970.64965 C645.82507,1969.92776 650.458397,1970.31891 653.377594,1968.27115 C662.615487,1961.78852 666.742628,1964.39998 676.276755,1971.31402 C688.278538,1980.01122 701.772994,1988.91836 716.228054,1994.80277 C717.617189,1994.23907 719.02358,1993.66386 720.378203,1993.11741 Z M1537.19546,449.198594 C1542.78364,439.704732 1549.00167,435.853693 1558.92119,443.334315 C1561.3457,445.160611 1564.41158,448.062552 1567.256,443.466614 C1546.73534,424.754992 1541.68786,425.304318 1527.77925,447.550614 C1527.27019,448.367414 1525.92132,448.928245 1524.88019,449.097932 C1511.83727,451.21471 1506.13117,464.010285 1495.24818,469.365501 C1514.77085,473.04973 1528.07261,464.700538 1537.19546,449.198594 Z M808.152566,1969.08795 C807.554346,1974.67326 811.741885,1981.6103 802.739828,1984.76821 C798.785251,1986.14872 793.116544,1989.00177 794.442406,1993.91695 C795.759639,1998.812 801.563521,2000.42546 806.631132,2001.78296 C813.749372,2003.69266 813.522163,1999.55114 814.241177,1994.4749 C815.043597,1988.74292 820.37293,1988.47833 822.857842,1992.14817 C837.079941,2013.1175 851.555132,2001.10134 866.12811,1993.15767 C842.852186,1994.66185 822.481079,1989.15132 808.152566,1969.08795 Z M183.743479,751.348445 C183.749231,758.124434 173.766439,756.72667 173.674406,763.46527 C185.627296,768.515625 185.627296,768.515625 197.784386,761.731008 C214.770375,752.248651 219.682679,755.035549 221.195485,775.004008 L221.385304,774.730783 C227.876563,780.160777 234.485741,780.149273 241.201332,775.153563 L241.310623,775.449797 C237.036803,771.164473 233.861637,767.063217 234.249904,759.930597 C234.689941,751.71658 230.669214,744.969352 220.729563,744.768028 L221.04593,744.546572 C221.488842,746.717994 221.526231,750.744473 219.955904,750.281428 C207.534217,746.643217 195.776899,757.333518 183.461625,751.653307 L183.743479,751.348445 Z M927.514656,2012.31221 C919.786693,2009.46203 913.301186,2002.14822 903.89073,2002.95927 C903.260873,2009.73526 909.056127,2010.76489 911.293699,2014.42898 C921.24773,2030.69883 922.156563,2030.90591 932.455721,2017.29929 C940.17218,2007.09792 954.023268,2001.10421 954.722149,1985.93877 C943.600439,1995.15653 928.811758,1988.33165 917.005546,1994.54681 C920.623625,2000.21264 933.183363,2000.14074 927.514656,2012.31221 Z M917.416823,1994.68773 C912.015589,1987.56086 905.182079,1983.99168 896.277808,1987.41994 C895.443752,1981.02934 905.22522,1978.55593 900.197873,1973.39629 C897.710085,1970.8366 891.837177,1970.70142 887.574862,1970.94589 C880.942676,1971.33415 874.385268,1972.96775 867.793346,1974.07504 C866.628544,1980.35922 861.394121,1986.28677 866.145366,1993.08289 C883.329803,1990.74754 900.125972,2000.55489 917.416823,1994.68773 Z M121.442346,1157.5914 C107.470465,1163.84683 92.4919634,1170.35246 88.7013211,1190.37845 C102.259051,1181.10604 116.892425,1189.29705 131.706992,1184.95708 C126.334518,1180.72065 122.377065,1177.60013 118.275808,1174.36456 C124.700918,1168.74187 128.58647,1175.68755 136.153375,1174.72695 C130.378254,1167.84454 123.251386,1156.78323 121.442346,1157.5914 Z M1621.06701,1737.82139 C1609.79287,1719.2737 1603.03126,1731.67238 1595.09623,1740.68019 C1591.36598,1744.90512 1585.94174,1746.53009 1580.7447,1748.76766 C1576.54279,1750.5767 1567.34228,1758.05157 1573.00811,1762.19597 C1583.07143,1769.57017 1589.92508,1746.4323 1602.991,1755.5379 C1603.56046,1755.93767 1605.96197,1753.84965 1605.5737,1750.76364 C1604.41752,1741.53438 1604.74252,1741.59477 1613.80785,1744.22924 C1622.07939,1746.625 1630.28477,1748.20395 1636.37051,1737.84727 C1629.81885,1734.32123 1624.84903,1744.03367 1621.06701,1737.82139 Z M143.599485,1274.66703 C140.60551,1273.17435 135.207152,1267.03685 133.021349,1274.96614 C131.870927,1279.13642 135.808248,1284.50889 140.668783,1284.16664 C151.796245,1283.38723 159.115808,1290.9829 168.235783,1294.54058 C172.69367,1296.27772 176.156442,1305.88662 181.813645,1298.8259 C186.216887,1293.32688 192.99,1286.54514 186.188127,1277.94573 C185.647428,1278.08091 185.063589,1278.17869 184.453865,1278.24197 C170.775341,1278.04064 156.881113,1281.28196 143.599485,1274.66703 Z M1243.92112,1927.4743 C1238.43935,1928.40326 1233.16467,1928.39463 1229.46031,1923.1976 L1229.88884,1923.37016 C1223.00356,1925.59048 1224.19712,1935.95003 1216.1643,1937.0113 L1215.86231,1936.6863 C1238.0856,1940.53734 1222.58366,1955.11607 1222.75334,1968.57889 C1229.6415,1960.20382 1242.20699,1963.16328 1241.16873,1951.13274 C1240.32317,1941.27074 1247.0819,1938.89224 1253.37759,1935.42084 C1253.37184,1935.42659 1253.40635,1935.37482 1253.40635,1935.37482 C1252.75636,1929.7205 1250.23406,1926.40153 1243.92112,1927.4743 Z M404.73102,1761.31877 C399.916501,1760.92475 390.022868,1770.40423 389.991231,1775.5006 C389.930834,1783.98209 399.338414,1788.66144 407.894682,1790.07646 C417.563983,1791.6813 417.635885,1779.69965 425.107879,1778.43706 C421.498428,1767.28371 412.637299,1761.96301 404.73102,1761.31877 Z M288.972628,1582.10595 C290.036769,1576.96068 301.049189,1575.2523 293.729625,1568.78118 C290.908214,1566.28476 281.949299,1563.90914 280.629189,1569.57785 C277.997597,1580.88362 267.986045,1580.01505 257.744408,1584.4183 C274.816679,1590.82327 288.05229,1598.73818 303.57149,1590.53279 C302.875485,1589.63834 302.162223,1588.70937 301.448961,1587.78328 C298.27667,1583.73092 291.296482,1587.33462 288.972628,1582.10595 Z M760.527949,175.513073 C756.357668,175.990499 751.436735,174.82282 749.693845,181.101251 C747.053625,190.626749 744.514068,200.393837 737.464854,207.877335 C735.074851,210.411141 731.712741,212.525042 734.988569,216.048211 C737.617285,218.875375 742.06942,218.297287 744.396149,216.246659 C755.448834,206.4882 761.865315,193.709882 766.314575,178.458155 C766.090242,176.28098 763.447146,175.176575 760.527949,175.513073 Z M1792.44546,1354.909 C1795.56598,1356.28088 1843.72267,1340.33027 1844.84721,1337.35355 C1846.42616,1333.17177 1843.19923,1329.26608 1840.34043,1331.2103 C1828.39616,1339.35529 1823.75133,1326.68626 1815.17206,1322.15935 C1822.47149,1339.42144 1821.0162,1340.83933 1788.31832,1350.50001 C1788.23779,1353.31854 1790.49837,1354.04906 1792.44546,1354.909 Z M636.707972,245.386862 C659.483462,269.174724 675.715924,272.416039 695.678631,256.045527 C673.918389,265.366825 657.913135,244.814527 636.707972,245.386862 Z M1274.78408,310.011848 C1261.95687,306.040014 1257.60252,315.20313 1252.79663,328.289186 C1271.44785,316.606645 1299.02061,328.248921 1304.28091,298.291918 C1292.31652,296.856766 1288.16062,314.156245 1274.78408,310.011848 Z M909.545056,232.73509 C913.096986,232.31231 918.170349,234.460724 918.670783,228.35198 C919.142456,222.553851 914.532138,222.668893 910.583313,222.424428 C902.734555,221.944127 895.176279,221.69391 897.776234,209.907831 C898.342817,207.31938 895.348842,203.704177 889.309124,203.537366 C892.297346,209.177313 888.244983,213.482769 887.45982,218.081583 C886.366918,224.503817 880.263927,228.288707 880.827634,236.166225 C890.830558,234.972662 900.192121,233.862504 909.545056,232.73509 Z M220.726687,744.77378 C229.084507,732.633946 244.793527,738.624772 254.948882,730.911189 C254.946006,730.911189 254.710169,731.216051 254.710169,731.216051 C240.600237,729.119406 226.496056,726.956611 212.348735,725.121687 C211.603837,725.023901 210.289479,727.618104 209.593473,729.119406 C203.996668,741.204594 214.546042,741.391538 221.040177,744.552324 L220.726687,744.77378 Z M396.586028,1732.33387 C394.492259,1726.84636 393.160645,1715.61823 384.61013,1716.09278 C379.243408,1716.39189 368.144707,1716.79166 369.646008,1727.62002 C370.488693,1733.71438 371.785794,1742.03194 382.082076,1739.41185 C388.573335,1739.73972 398.380687,1737.03623 396.586028,1732.33387 Z M1868.2583,1100.36076 C1859.31952,1099.87183 1855.69857,1106.53277 1855.90277,1113.23974 C1856.16736,1122.02609 1864.9796,1123.32894 1871.66355,1124.67206 C1878.74441,1126.09571 1881.60033,1121.12301 1882.18417,1113.59062 C1880.03288,1107.45311 1877.15395,1100.84969 1868.2583,1100.36076 Z M532.836321,328.297814 C532.525707,309.166287 520.181673,317.65353 511.498859,316.563504 C510.932276,325.654718 518.755149,327.345839 523.330955,330.978299 C519.163549,336.143696 512.166104,329.983183 508.921913,338.271977 C522.123011,337.67951 534.541823,338.076406 546.47458,341.714617 C547.337397,341.202679 548.272115,340.676361 549.241346,340.14429 C548.076544,329.937166 532.977248,336.997885 532.836321,328.297814 Z M61.2608676,767.908777 C42.0200507,762.061755 23.1416169,756.329775 0.590459155,749.47038 C25.085831,771.135713 47.5018141,777.422772 61.2608676,767.908777 Z M1243.84346,275.410014 C1237.19977,261.573307 1225.64666,257.817177 1213.66501,256.776045 C1206.50938,256.154817 1207.42109,264.37171 1205.37621,269.347287 C1217.91294,271.973127 1229.90322,275.392758 1243.84346,275.410014 Z M1180.08992,1975.08741 C1180.89522,1975.35776 1183.99848,1972.17972 1184.09339,1970.50297 C1184.3206,1966.51964 1180.58748,1967.07759 1177.96452,1966.72959 C1158.72945,1964.20154 1145.1142,1976.99711 1129.27864,1984.42884 C1148.09667,1990.24135 1160.97278,1968.67955 1180.08992,1975.08741 Z M1662.58864,1692.99805 C1666.83945,1690.44411 1673.43425,1687.85566 1671.50154,1682.71327 C1668.96198,1675.95166 1663.65566,1679.13546 1659.77873,1683.15331 C1657.42612,1685.60371 1654.93545,1684.87032 1652.23484,1683.61923 C1639.41625,1677.67442 1634.74841,1686.3975 1630.37968,1696.60463 C1640.83415,1690.76048 1652.31824,1699.17294 1662.58864,1692.99805 Z M1907.1167,1345.13328 C1899.70223,1351.46924 1886.84626,1349.31507 1883.00097,1359.23746 C1881.38463,1363.425 1887.56527,1368.30855 1892.93487,1367.75922 C1902.2044,1366.80437 1909.87484,1362.77214 1911.63499,1353.76433 C1911.87945,1348.5788 1908.91711,1343.59459 1907.1167,1345.13328 Z M1712.14021,650.511034 C1702.85343,654.39371 1698.37541,663.729389 1692.44786,671.112225 C1691.23704,672.619279 1695.71793,679.018504 1701.32624,678.615856 C1715.55697,677.597732 1716.0574,666.363856 1717.78879,656.033062 C1718.65161,651.543538 1715.32976,649.176544 1712.14021,650.511034 Z M179.084268,687.940031 C192.184704,694.126428 187.439211,700.013715 181.244186,706.076442 C179.061259,708.216228 178.17831,710.830563 180.755256,713.413262 C182.828893,715.492651 185.24478,716.760992 188.330789,716.234673 C191.37078,715.719859 194.945718,713.853299 194.022504,711.178566 C188.284772,694.514696 201.549144,689.280273 211.146544,680.758518 C199.872403,680.393259 191.597989,688.676301 179.084268,687.940031 Z M852.668166,211.463777 C853.56262,209.430406 852.176361,206.571606 849.395214,206.761425 C839.254239,207.448803 834.807856,198.044099 827.079893,194.463408 C824.787676,193.399268 823.292127,189.551104 820.214746,191.765668 C817.327186,193.853685 816.027208,198.300068 818.057704,200.652682 C823.7638,207.256107 826.303358,219.255014 841.963485,214.046476 C843.691994,213.249808 849.907152,217.79973 852.668166,211.463777 Z M1773.67344,1529.89977 C1776.47759,1534.5446 1780.72841,1538.55383 1785.01948,1541.99359 C1788.35858,1544.66832 1792.65541,1547.33443 1797.27436,1545.32119 C1800.06988,1544.10461 1800.44952,1540.70799 1799.75352,1537.94698 C1798.39027,1532.56012 1770.56442,1517.34866 1760.83185,1518.39842 C1767.20231,1522.701 1770.97857,1525.4275 1773.67344,1529.89977 Z M817.355946,1937.23851 C805.345535,1940.75017 793.404149,1944.53506 780.2692,1941.49219 C782.09262,1945.20518 783.312068,1947.6901 784.531515,1950.18076 L784.195017,1949.90466 C800.666192,1945.90119 803.550876,1958.86645 808.451676,1969.32667 C812.406254,1966.19177 815.006208,1962.28033 815.48651,1957.13506 C797.43638,1949.00158 821.106324,1945.44965 817.355946,1937.23851 Z M770.936397,1984.25628 C762.728132,1991.50106 751.152006,1983.33594 742.526713,1990.1148 C769.616287,2009.2377 769.616287,2009.2377 782.837518,2001.67655 C770.97091,2000.11773 767.140003,1994.06363 770.654544,1983.92553 L770.936397,1984.25628 Z M124.206237,1001.16845 C119.443487,997.458338 115.396876,1002.50294 113.188065,1007.85528 C110.320637,1014.81246 114.692242,1015.53723 119.526893,1016.14408 C128.336254,1017.25423 137.496493,1016.85734 145.195696,1023.48952 C146.535938,1007.15065 131.94858,1007.19091 124.206237,1001.16845 Z M770.660296,1983.93128 C772.756941,1984.75383 775.175704,1985.15936 776.863949,1986.4881 C780.15991,1989.0823 782.524028,1994.92645 787.617524,1989.32389 C790.548225,1986.10846 794.925583,1982.12512 794.747268,1978.69111 C794.502803,1974.00601 788.21862,1972.98789 783.962056,1972.06755 C775.213093,1970.18086 766.297318,1968.78309 756.924251,1971.67065 C761.045639,1976.93959 775.929231,1969.80409 770.933521,1984.25628 C770.936397,1984.25628 770.651668,1983.92265 770.660296,1983.93128 Z M107.277769,961.720462 C115.468777,963.604279 119.866268,958.881794 123.245634,952.439428 C116.371859,949.718679 112.586969,941.775011 104.105479,941.567935 C97.6947493,941.412628 95.7850479,943.425868 99.1816704,949.241254 C92.6185099,959.457006 100.605318,960.184648 107.277769,961.720462 Z M1580.36219,491.692327 C1569.39579,495.229876 1559.12251,497.78669 1548.85499,500.334876 L1549.1541,500.015634 C1547.9893,502.931955 1546.8245,505.848276 1545.66257,508.767473 C1546.43335,515.011392 1550.77332,516.814679 1556.20907,517.263344 C1564.25915,508.735837 1572.30635,500.214082 1580.36219,491.692327 Z M1501.30228,1807.65204 C1498.33994,1810.18009 1502.30314,1819.15914 1506.28936,1820.04209 C1515.97016,1822.19338 1525.02974,1819.51002 1530.19514,1808.59826 C1520.06854,1804.09723 1510.07425,1800.16854 1501.30228,1807.65204 Z M1834.38124,1310.73853 C1838.7701,1319.28904 1850.23406,1324.70178 1863.15618,1314.14378 C1851.71235,1311.74227 1848.2352,1305.17336 1849.21306,1293.68351 C1848.08852,1304.79084 1827.25725,1296.85293 1834.38124,1310.73853 Z M1867.65721,987.892575 C1863.91834,984.472944 1858.96864,984.869839 1856.28528,989.994972 C1855.11473,992.23542 1854.08797,996.097963 1855.20101,997.702803 C1857.84698,1001.52221 1862.77942,1003.39452 1867.13377,1002.14919 C1877.66301,999.129327 1885.49451,992.755986 1888.63516,981.263265 C1880.21119,980.213504 1878.72715,998.030673 1867.65721,987.892575 Z M207.433555,1444.38024 C202.722575,1428.86104 186.26578,1432.89327 176.211087,1424.75978 C182.374476,1447.35695 187.813099,1450.54363 207.726913,1444.04086 C207.724037,1444.04086 207.439307,1444.37736 207.433555,1444.38024 Z M1240.1276,286.24987 C1234.18279,282.571394 1227.07606,281.754594 1223.55001,287.388789 C1218.82465,294.944189 1227.16809,294.507028 1231.37864,295.671831 C1234.66885,296.574913 1236.14714,298.165372 1235.60932,301.484341 C1234.91906,305.749532 1234.6257,310.066493 1240.93002,308.407008 C1245.16645,307.285346 1246.68213,303.442935 1246.8662,298.916023 C1245.23548,294.570301 1245.04566,289.286986 1240.1276,286.24987 Z M570.705355,2002.55375 C563.949499,2010.65847 560.711059,2021.6939 555.830392,2031.5674 C577.326037,2037.96663 565.988623,2006.15457 581.06491,2009.61734 C576.581138,2012.34959 580.294127,1991.04089 570.705355,2002.55375 Z M1782.97748,761.049383 C1783.33699,754.414321 1778.20035,751.187386 1771.91042,751.529637 C1763.95237,751.961045 1757.02683,756.38442 1756.83988,764.184285 C1756.68745,770.362054 1764.31475,768.817611 1769.10626,769.375566 C1774.91877,768.524254 1782.52594,769.530873 1782.97748,761.049383 Z M603.834648,270.929118 C601.884682,264.547149 612.471445,261.222428 608.447842,255.050411 C599.972104,242.044885 591.283538,258.9676 581.709146,255.608366 C591.87313,257.5382 591.772468,272.637496 603.834648,270.929118 Z M1345.51493,1918.67932 C1345.93484,1926.55108 1363.90444,1935.56752 1371.33617,1932.67421 C1373.15959,1931.9667 1374.60912,1929.97359 1375.79693,1928.27096 C1376.01551,1927.95747 1373.939,1925.13894 1373.36954,1925.28274 C1362.30823,1928.06389 1362.52968,1916.28931 1356.65965,1912.51593 L1357.20035,1913.21193 C1351.34757,1911.01175 1345.0864,1910.82481 1345.51493,1918.67932 Z M748.710234,2024.25359 C755.535115,2026.93983 759.581727,2041.79178 762.834546,2036.02241 C769.279789,2024.6131 784.111611,2024.09828 788.618392,2010.16379 C772.762693,2010.08326 765.164152,2028.41525 748.710234,2024.25359 Z M875.693873,2003.76169 C874.888577,2001.18474 870.275383,1999.7122 866.6458,2000.87413 C862.998961,2002.05044 859.720256,2004.97539 864.529023,2007.49769 C877.899808,2014.50951 886.225992,2034.71093 907.068772,2022.44455 C893.252197,2021.29988 880.568789,2019.37005 875.693873,2003.76169 Z M850.042327,235.694552 C852.383437,240.201332 858.431783,241.463921 863.479262,237.868851 C865.12149,236.701172 867.453972,234.037944 867.057076,232.864513 C864.72747,225.881448 860.84767,232.970927 857.704141,232.182887 C854.994896,231.498386 855.124318,228.993341 854.365039,226.911076 C851.779465,219.781332 845.420504,220.391056 840.137189,221.501214 C833.34682,222.916234 832.587541,228.679851 833.617169,237.555361 C839.987634,232.062093 844.431141,224.897837 850.042327,235.694552 Z M1314.17167,266.732952 C1315.80239,267.995541 1318.17802,266.658175 1317.28069,264.788738 C1314.70374,259.376 1312.55533,252.640276 1308.08881,249.565772 C1303.38646,246.335961 1296.23658,248.720211 1295.43704,255.729161 C1294.84457,260.92907 1288.80485,259.502546 1288.17212,264.935417 C1297.74076,266.384949 1306.33729,260.655845 1314.17167,266.732952 Z M1105.24919,187.178358 C1112.2265,179.556808 1126.71032,183.402096 1130.52685,170.241262 C1115.03928,161.765524 1106.72748,174.555346 1098.75505,182.824008 C1094.69406,187.043183 1102.30698,186.850487 1105.64608,187.109332 C1105.64321,187.112208 1105.25494,187.181234 1105.24919,187.178358 Z M1799.77077,988.824417 C1810.35754,989.70449 1820.13038,988.801408 1825.54887,977.662442 C1827.09906,974.475772 1832.28459,971.257465 1826.79132,968.019025 C1823.59315,966.132332 1819.10075,966.698915 1816.09815,970.233589 C1810.74868,976.5264 1805.38196,982.813459 1800.02962,989.10627 C1800.02962,989.100518 1799.75927,988.818665 1799.77077,988.824417 Z M123.280146,1204.33307 C139.16173,1201.84816 150.665955,1189.43222 165.894673,1185.59269 C146.599211,1181.08591 136.118862,1195.10381 123.280146,1204.33307 Z M286.021794,604.752977 C297.75898,606.254279 293.982718,593.027296 294.741997,588.865642 C296.387101,579.863586 283.755462,585.87742 278.515287,580.806932 C288.529715,587.200406 269.593761,602.641952 286.021794,604.752977 Z M986.286868,216.58891 C999.407437,222.315138 1010.05172,225.674372 1021.91545,220.123583 C1011.58178,203.52011 1000.13508,211.765763 986.286868,216.58891 Z M360.238428,571.525899 C351.311149,573.084721 342.570814,572.270797 333.732693,570.300699 C330.735842,569.63633 326.473527,570.924803 326.194549,575.19287 C325.978845,578.474451 329.015961,580.320879 331.946662,580.007389 C342.881428,578.842586 353.847831,586.39511 364.745208,579.708279 C363.154749,576.938637 361.521149,574.079837 359.884673,571.218161 C359.884673,571.218161 360.238428,571.523023 360.238428,571.525899 Z M1164.62537,228.602197 C1165.90521,224.932349 1161.59976,223.195211 1159.45422,224.109797 C1151.13666,227.664603 1139.91142,225.835431 1135.06526,235.844107 C1133.17857,239.735411 1136.88868,240.189828 1140.22203,240.138059 C1148.43605,236.893868 1160.4177,240.598228 1164.62537,228.602197 Z M1062.66917,2033.50011 C1050.16695,2043.49728 1039.95983,2012.4215 1024.86054,2035.45871 C1039.04812,2035.80383 1050.71628,2042.81566 1062.66917,2033.50011 Z M1482.99618,1835.40023 C1486.14834,1839.18512 1489.56797,1839.42383 1493.28958,1836.72609 C1495.26831,1835.28806 1495.7745,1831.05163 1494.81965,1831.03437 C1482.67981,1830.75252 1483.24064,1808.80246 1466.16262,1815.94083 C1472.1592,1822.83761 1477.68985,1829.02689 1482.99618,1835.40023 Z M1194.81246,1972.73767 C1206.19876,1976.53694 1216.06651,1983.11736 1229.12956,1977.22144 C1219.07487,1975.0529 1207.33193,1975.06152 1210.18498,1958.29412 C1207.02994,1966.27805 1197.59648,1964.54379 1194.81246,1972.73767 Z M211.560696,1538.10228 C215.848896,1539.78478 220.749696,1544.8869 224.600735,1537.99875 C228.474783,1531.0617 222.647893,1529.14049 217.82187,1527.63344 C211.649854,1525.70073 205.719425,1521.29174 197.502532,1526.60094 C204.655285,1527.87503 205.74531,1535.8187 211.560696,1538.10228 Z M630.08729,314.581901 C622.120614,284.760073 607.737456,298.314927 594.953386,304.446679 C606.121113,306.865442 618.41913,301.884113 630.08729,314.581901 Z M1897.83854,1299.11351 C1892.6185,1298.86904 1887.11948,1301.56966 1887.15112,1307.30164 C1887.16837,1313.048 1892.81695,1315.34597 1897.93633,1315.61057 C1903.84375,1315.90968 1908.44832,1312.95884 1911.05402,1307.23549 C1908.72442,1301.02321 1903.24841,1299.36085 1897.83854,1299.11351 Z M102.359713,1004.40689 C92.8629746,977.472623 92.6817831,977.383465 74.9624,993.224783 C90.4528394,981.772327 90.5132366,1006.42876 102.359713,1004.40689 Z M1639.21781,1659.98955 C1630.53212,1659.39996 1621.91545,1658.819 1613.30454,1658.23516 C1621.74576,1659.59841 1630.68455,1694.3009 1639.21781,1659.98955 Z M1459.37513,417.329014 C1454.62676,413.581513 1449.73459,411.3008 1444.96608,417.383659 C1439.19384,424.752115 1447.41648,426.011828 1450.53988,428.050952 C1454.97188,430.950017 1460.63484,431.979645 1468.02343,434.611237 C1465.23365,426.543899 1464.02571,420.995986 1459.37513,417.329014 Z M411.56453,398.795707 C407.578315,397.780459 400.897237,401.898972 403.770417,406.526546 C407.080758,411.853003 401.417803,421.559693 411.262544,422.698611 C414.322668,423.04949 419.43342,423.291079 420.960606,417.162203 C410.16389,414.910251 421.311485,401.274868 411.56453,398.795707 Z M1749.22984,1462.61731 C1747.65663,1460.83415 1750.51256,1456.08579 1746.2675,1456.0484 C1743.12397,1456.02251 1739.6008,1457.44904 1736.90881,1459.23507 C1734.06439,1461.12464 1734.87544,1464.57303 1737.00947,1466.56614 C1742.50562,1471.69127 1745.59738,1480.17276 1757.4266,1478.77499 C1742.27553,1478.47013 1753.38861,1467.32829 1749.22984,1462.61731 Z M434.728287,1772.18739 C462.364313,1773.1825 462.364313,1773.1825 457.017724,1750.54219 C454.518431,1764.61761 441.167777,1763.74041 434.728287,1772.18739 Z M962.473121,187.011546 C953.62062,188.481211 949.289279,174.598487 938.144561,179.381369 C954.497817,191.236473 954.903341,194.42602 940.672614,202.783839 C957.261707,207.189958 956.57433,193.160555 962.473121,187.011546 Z M122.992541,1238.58403 C120.332189,1240.77846 114.882062,1243.00452 118.85102,1247.45091 C121.545885,1250.47652 127.447552,1249.15928 129.572958,1246.93322 C134.444997,1241.81671 139.578758,1237.39046 149.538541,1233.9507 C136.245408,1228.51208 129.437783,1233.2662 122.992541,1238.58403 Z M1879.40015,1171.98031 C1874.93075,1174.31567 1867.10501,1173.7117 1866.70811,1179.92973 C1866.39462,1184.88805 1871.37883,1189.2424 1877.0878,1187.95968 C1882.41138,1186.76324 1887.01594,1183.39538 1887.90177,1177.39593 C1886.84913,1172.19314 1883.21955,1169.98145 1879.40015,1171.98031 Z M1810.34603,1579.10622 C1812.5721,1583.92649 1809.66153,1593.66769 1819.84277,1591.59118 C1834.68322,1588.55982 1813.74553,1579.46573 1822.33631,1573.90919 C1824.68605,1572.382 1821.38146,1567.95 1816.80853,1568.27212 C1811.66902,1570.01788 1807.35206,1572.62071 1810.34603,1579.10622 Z M1874.29227,1236.16239 C1867.20567,1235.52678 1864.93934,1240.9539 1862.61548,1245.97261 C1861.66638,1248.03187 1861.83319,1250.85903 1864.22895,1251.68446 C1869.50364,1253.50501 1874.10533,1251.12363 1877.60836,1247.47679 C1880.13354,1244.8567 1884.9308,1244.03703 1884.88191,1239.13335 C1882.15541,1235.23054 1877.96787,1236.48738 1874.29227,1236.16239 Z M492.649186,1770.72923 C487.595955,1767.07376 483.207093,1768.79076 478.127977,1773.06746 C481.058679,1776.17072 487.236448,1777.56849 486.448408,1782.33699 C485.645989,1787.20903 485.148431,1790.58839 491.34058,1789.44948 C496.681417,1788.45724 499.048411,1784.89093 496.842476,1779.46093 C495.579887,1776.34904 493.848501,1773.42409 492.324192,1770.41574 C492.327068,1770.41861 492.649186,1770.73498 492.649186,1770.72923 Z M183.455873,751.659059 C176.001135,741.543969 165.149775,737.247141 153.605285,734.014454 C150.5164,733.148761 147.732377,733.442118 146.438152,736.252025 C144.752783,739.907493 147.864676,741.782682 150.602682,741.82007 C162.584332,741.958121 171.873994,751.101104 183.740603,751.351321 L183.455873,751.659059 Z M271.791068,618.762248 C274.819555,619.849397 277.84229,620.93367 280.873654,622.017944 C281.382715,620.548279 282.74309,618.198541 282.265665,617.73262 C277.24407,612.817439 273.881961,604.75873 266.266163,604.333073 C258.437538,603.895913 256.4962,610.671901 254.865476,616.734628 C261.284834,619.935679 267.718572,609.515727 272.101682,619.075738 C272.098806,619.069986 271.793944,618.762248 271.791068,618.762248 Z M264.822383,528.819338 C275.898076,533.826552 286.959389,538.934428 299.933279,529.325524 C288.693651,527.582634 277.456899,525.833992 266.214394,524.091101 C265.754225,525.664304 265.288304,527.243259 264.822383,528.819338 Z M1115.68927,211.527051 C1105.05361,195.064504 1126.45723,198.996073 1126.17537,189.082307 C1119.2412,184.693445 1111.59089,192.829808 1105.25494,187.178358 C1105.26069,187.181234 1105.65183,187.115085 1105.65183,187.115085 C1103.36537,196.120017 1103.05188,204.486465 1115.68927,211.527051 Z M1853.08135,1501.60225 C1855.7791,1500.03193 1856.67643,1495.44174 1853.45524,1492.93957 C1846.1328,1487.24786 1839.13823,1490.36263 1829.0289,1496.28155 C1838.9858,1499.51999 1844.92198,1506.34487 1853.08135,1501.60225 Z M102.673203,1054.57394 C115.40838,1056.86616 123.254262,1050.38065 121.243899,1039.29633 C120.685944,1036.2247 119.135749,1034.13093 115.997972,1033.60174 C113.886946,1033.24511 109.765558,1033.78293 110.490324,1035.03977 C116.348851,1045.16061 103.081603,1047.48446 102.909039,1054.87305 L102.673203,1054.57394 Z M1525.047,1750.01874 C1532.4816,1757.21464 1529.86439,1765.27335 1525.32597,1773.15374 C1541.80865,1775.0203 1543.48252,1774.49111 1541.68211,1769.92968 C1538.39477,1761.60925 1537.77067,1750.4444 1524.77665,1750.29772 C1524.77377,1750.29485 1525.04125,1750.01874 1525.047,1750.01874 Z M588.050851,1941.00326 C572.482758,1941.75679 562.134707,1934.67019 551.199941,1940.20085 C562.022541,1942.70301 572.373468,1951.65618 588.050851,1941.00326 Z M1616.89961,512.920499 C1610.21565,515.649876 1603.03126,518.448279 1601.88084,526.941273 C1601.54434,529.431938 1604.82305,531.496946 1606.51992,529.630386 C1611.39771,524.243532 1620.37964,524.31831 1623.66697,516.541454 C1622.1858,513.587744 1619.72102,511.770076 1616.89961,512.920499 Z M348.656549,333.20149 C350.589259,333.676039 353.450935,333.592634 354.794054,332.46522 C356.651986,330.909273 355.866823,327.639197 353.856459,326.836777 C345.852394,323.627099 339.033265,313.888772 326.761132,322.399023 C336.643262,323.41427 340.963099,331.311921 348.656549,333.20149 Z M1517.9719,440.748741 C1505.76304,439.023107 1493.8159,439.120893 1482.3203,444.320803 C1494.85991,448.378918 1506.45617,444.950659 1517.9719,440.748741 Z M1876.55573,1276.83845 C1871.96554,1277.20083 1865.60083,1275.15021 1864.03338,1281.67598 C1862.75928,1286.97367 1867.64858,1287.87388 1871.52263,1287.83361 C1876.90948,1287.77322 1882.52354,1287.47986 1885.58367,1281.90894 C1884.51665,1276.2805 1880.23995,1276.55085 1876.55573,1276.83845 Z M1658.5938,1730.99363 C1655.99384,1732.94935 1650.02603,1735.20705 1654.25958,1739.6822 C1659.6982,1745.42568 1666.31888,1742.39144 1673.32783,1737.75524 C1667.9381,1736.32584 1667.68214,1724.15437 1658.5938,1730.99363 Z M1656.87679,621.813744 C1667.74253,619.921299 1681.84384,633.6746 1690.37422,614.215203 C1677.44059,612.348642 1667.75691,619.392104 1657.12126,622.026572 C1657.12701,622.026572 1656.86241,621.805115 1656.87679,621.813744 Z M165.434504,666.76938 C164.105766,671.84562 168.0776,674.189606 171.960276,674.037175 C176.300245,673.864611 180.755256,671.742082 181.060118,666.297707 C181.261442,662.627859 179.015242,660.232104 175.195839,659.331899 C170.904763,660.355775 166.676961,662.035392 165.434504,666.76938 Z M221.186856,775.018389 C208.722028,767.736214 199.74298,773.120192 188.765073,782.352332 C203.251769,785.398076 212.176172,779.559682 221.38818,774.736535 C221.385304,774.736535 221.192608,775.009761 221.186856,775.018389 Z M716.978704,2002.24601 C722.106713,2002.91038 728.534699,2002.64578 731.324473,1996.57443 C732.356977,1994.32535 732.543921,1989.5626 731.301465,1988.76306 C726.340268,1985.57926 723.927256,1991.28248 720.375327,1993.11741 C719.017828,1993.66098 717.614313,1994.23907 716.216549,1994.79702 C713.7,1997.64144 712.184318,2001.6219 716.978704,2002.24601 Z M1672.2867,1626.18151 C1673.28182,1631.41881 1676.74459,1635.65236 1681.51597,1636.78841 C1686.34774,1637.9417 1687.75988,1632.62675 1688.26895,1629.14097 C1689.33309,1621.85305 1683.01439,1622.28445 1679.0253,1621.0535 C1675.09661,1621.20306 1671.31459,1621.07363 1672.2867,1626.18151 Z M322.504569,1617.51883 C313.45362,1615.53435 304.684524,1615.6839 294.19267,1621.23182 C307.037138,1633.82319 314.09498,1621.88468 322.504569,1617.51883 Z M1177.86098,0.0995211268 C1167.22245,9.16772676 1168.28946,20.7237211 1170.67084,32.5529408 C1173.06084,21.738969 1175.46523,10.9192451 1177.86098,0.0995211268 Z M1426.06464,367.952879 C1412.05825,355.821673 1403.1511,373.472031 1393.18269,366.934755 C1403.91613,383.460575 1412.03812,363.983921 1426.06464,367.952879 Z M1872.35668,1136.73712 C1869.90916,1138.83376 1873.73719,1143.36068 1876.37166,1144.5715 C1884.72948,1148.41103 1890.31766,1143.42683 1898.08013,1135.98934 C1887.53363,1135.98934 1879.56121,1130.54785 1872.35668,1136.73712 Z M571.901794,328.145383 C562.246873,325.858918 558.096724,333.049059 553.230437,338.985239 C553.239065,338.982363 553.221808,338.576839 553.221808,338.576839 C569.986341,345.496631 570.239434,345.352828 571.901794,328.145383 Z M550.995741,1854.83662 C552.27271,1852.65657 547.817699,1849.9502 545.306901,1849.88405 C537.593318,1849.6971 529.433946,1849.67985 527.481104,1863.65173 C535.942462,1857.34741 545.836096,1863.6316 550.995741,1854.83662 Z M529.241251,1898.30821 C516.345014,1893.90497 504.809152,1895.88657 494.10447,1892.33176 C503.517803,1898.94957 513.420065,1906.04768 529.241251,1898.30821 Z M349.090834,424.565172 C348.754335,424.706099 348.993048,427.763346 349.798344,428.824611 C351.391679,430.91838 354.18433,430.944265 355.484307,428.919521 C360.132014,421.654603 368.811952,421.507924 377.707594,415.960011 C363.531513,410.066972 357.555068,421.067887 349.090834,424.565172 Z M386.882214,479.72218 C388.92709,478.824851 391.213555,478.258268 392.956445,476.95829 C396.925403,474.007456 405.228577,474.435989 403.123304,466.696521 C402.412918,464.07931 394.900659,459.716332 394.889155,460.492868 C394.751104,469.261963 381.898008,470.668355 384.112572,480.044299 C384.126952,480.104696 386.14882,479.687668 387.233093,479.492096 C387.235969,479.48922 386.879338,479.72218 386.882214,479.72218 Z M664.832927,2021.58174 C669.817132,2024.80004 667.06187,2032.99968 673.300037,2034.22488 C676.895107,2034.92951 680.300358,2032.42447 679.290862,2028.1564 C678.016769,2022.72641 675.566369,2017.67893 669.946555,2015.74046 C666.322724,2016.70394 663.383394,2020.64702 664.832927,2021.58174 Z M548.847327,322.194823 C548.214594,324.136161 549.255727,325.663346 551.248834,325.424634 C552.68111,325.25207 553.986839,324.021118 555.344338,323.261839 C549.764789,314.369073 562.46833,306.664118 557.642307,297.121363 C545.652028,303.028783 551.501927,314.041203 548.847327,322.194823 Z M1020.67012,115.308586 C1010.12937,111.581217 1002.16845,116.0276 993.988946,117.281561 C1002.64875,122.64253 1011.22803,126.887589 1020.67012,115.308586 Z M642.270265,1970.96027 C634.228811,1971.69366 625.436707,1967.47161 615.376262,1975.47855 C626.917876,1977.42852 636.912172,1988.89823 641.971155,1970.6439 C641.976907,1970.64678 642.276017,1970.96027 642.270265,1970.96027 Z M102.888907,1054.85004 C99.9179408,1053.32286 96.9786113,1051.78129 94.001893,1050.32025 C90.024307,1048.37029 87.1424986,1041.74673 81.3990141,1047.18823 C79.5842225,1048.90811 79.5842225,1051.05365 80.9532254,1053.14166 C84.0047211,1057.80088 88.4338479,1059.88026 93.7545521,1058.70108 C96.8779493,1058.01083 99.7079887,1055.99471 102.676079,1054.57106 C102.673203,1054.57394 102.909039,1054.87017 102.888907,1054.85004 Z M153.188256,1219.65095 C130.772273,1212.25948 130.772273,1212.25948 120.493248,1224.2814 C133.067366,1216.94745 143.168076,1225.44045 153.188256,1219.65095 Z M784.54302,1950.18651 C778.100654,1954.88024 766.504394,1947.34497 762.650479,1960.74164 C771.399442,1956.82445 778.957718,1963.76437 788.261761,1961.91507 C786.69431,1957.28174 785.446101,1953.58889 784.197893,1949.90178 C784.197893,1949.90754 784.534392,1950.18076 784.54302,1950.18651 Z M484.064158,1854.55189 C485.680501,1859.72591 491.303192,1858.00603 493.730583,1855.76558 C496.672789,1853.05634 493.627045,1849.19092 491.173769,1847.43652 C486.310358,1843.9565 480.81709,1841.35079 474.167648,1837.57165 C473.862786,1847.16042 482.148704,1848.40288 484.064158,1854.55189 Z M1811.50221,953.529454 C1808.39319,951.464445 1803.27094,950.268006 1799.26746,956.52918 C1807.95315,961.959175 1815.65811,964.205375 1824.71481,956.23007 C1820.03834,952.983003 1815.57183,956.235823 1811.50221,953.529454 Z M1890.39243,1047.41831 C1890.23137,1054.47328 1897.32661,1052.76778 1901.76724,1053.34299 C1905.64704,1053.84055 1910.96199,1052.92884 1910.61686,1048.37029 C1910.15957,1042.44849 1904.33843,1043.70245 1900.00709,1043.86063 C1896.51268,1044.56526 1890.49597,1042.41397 1890.39243,1047.41831 Z M210.289479,1387.24738 C209.1218,1381.29106 214.474141,1376.6865 215.454876,1368.13598 C207.767177,1374.67038 197.830403,1369.77534 193.798172,1379.71211 C200.254918,1381.41474 206.363662,1382.15388 210.585713,1386.96265 C210.585713,1386.96265 210.283727,1387.25888 210.289479,1387.24738 Z M168.491752,1520.83732 C166.861028,1522.40765 167.436239,1525.764 169.670935,1526.47726 C177.930969,1529.10023 184.220904,1525.76975 191.290251,1517.68516 C181.718735,1515.27215 174.649389,1514.91552 168.491752,1520.83732 Z M276.041879,765.875406 C271.578239,763.778761 266.522132,763.131648 262.981707,758.998755 C255.437811,750.189394 249.199645,754.934887 243.105282,761.452031 C254.419687,760.687 263.916425,772.335028 275.81467,765.610808 C275.811794,765.607932 276.062011,765.895538 276.041879,765.875406 Z" id="Shape"></path>
            </g>
        </g>
    </g>
</svg>